<?xml version="1.0" encoding="UTF-8"?>
<!DOCTYPE svg PUBLIC "-//W3C//DTD SVG 1.1//EN" "http://www.w3.org/Graphics/SVG/1.1/DTD/svg11.dtd">
<!-- Creator: CorelDRAW -->
<svg xmlns="http://www.w3.org/2000/svg" xml:space="preserve" width="8.4666mm" height="8.4666mm" version="1.1" style="shape-rendering:geometricPrecision; text-rendering:geometricPrecision; image-rendering:optimizeQuality; fill-rule:evenodd; clip-rule:evenodd"
viewBox="0 0 276.77 276.77"
 xmlns:xlink="http://www.w3.org/1999/xlink">
 <defs>
  <style type="text/css">
   <![CDATA[
    .fil0 {fill:#F3BA2F}
    .fil1 {fill:#FEFEFE}
   ]]>
  </style>
 </defs>
 <g id="Layer_x0020_1">
  <metadata id="CorelCorpID_0Corel-Layer"/>
  <g id="_105553548692512">
   <path class="fil0" d="M85.6 171.74c2.75,-5.36 14.21,-13.63 18.42,-19.33 2.98,1.43 30.52,29.31 33.78,33.15 5.78,-2.21 28.86,-30.18 35,-33.17 4.2,5.66 15.64,14 18.37,19.35 -1.66,2.94 -50.26,51.76 -53.38,52.93 -8.68,-10.29 -48.67,-46.78 -52.19,-52.93zm45.13 -171.74l15.58 0c16.98,1.01 34.13,5.32 51.49,13.04 13.45,5.99 28.29,17.16 38.53,27.4 5.81,5.81 10.43,11.17 15.14,17.83 15.73,22.25 24.08,47.15 25.3,72.65l0 13.17c-0.86,18.03 -5.24,36.16 -13.04,53.7 -8.99,20.2 -27.37,41.05 -45.23,53.68 -22.25,15.73 -47.15,24.08 -72.65,25.3l-13.17 0c-18.03,-0.86 -36.16,-5.24 -53.7,-13.04 -3.92,-1.75 -7.11,-3.73 -10.99,-5.88 -9.14,-5.06 -20.35,-14.31 -27.55,-21.52 -5.81,-5.81 -10.43,-11.17 -15.14,-17.83 -2.15,-3.04 -4.76,-6.74 -6.64,-10.23 -14.82,-27.39 -18.66,-43.19 -18.66,-76.41 0,-43.85 30.29,-92.54 68.49,-113.21 20.56,-11.12 41.28,-17.41 62.23,-18.66zm55.53 138.77c1.13,-2.35 16.94,-17.96 19.43,-19.76l19 18.76c-1.11,3.02 -15.9,17.53 -19.35,19.91l-19.08 -18.91zm-67.52 -1.05c4.79,-3.96 15.52,-17.32 20.26,-18.9l19.05 18.89c-1.64,4.73 -15.03,15.63 -18.98,20.32 -3.17,-1.09 -19.22,-17.16 -20.33,-20.31zm-47.29 -18.64l19.08 18.93c-1.11,2.34 -16.97,17.99 -19.22,19.54 -3.28,-2.26 -18.08,-16.77 -19.15,-19.72l19.29 -18.75zm14.18 -14.04c0.59,-1.09 49.02,-51.35 53.39,-52.95 8.18,9.83 48.95,47.07 52.15,52.95 -2.76,5.3 -14.18,13.72 -18.37,19.35 -6.14,-2.99 -29.22,-30.96 -35,-33.17 -3.26,3.84 -30.79,31.72 -33.78,33.15 -4.25,-5.82 -15.4,-13.81 -18.4,-19.33z"/>
   <path class="fil1" d="M85.6 171.74c3.52,6.16 43.51,42.64 52.19,52.93 3.12,-1.17 51.72,-50 53.38,-52.93 -2.73,-5.35 -14.17,-13.69 -18.37,-19.35 -6.14,2.99 -29.22,30.96 -35,33.17 -3.26,-3.84 -30.79,-31.72 -33.78,-33.15 -4.22,5.7 -15.67,13.97 -18.42,19.33z"/>
   <path class="fil1" d="M85.62 105.04c3,5.51 14.15,13.51 18.4,19.33 2.98,-1.43 30.52,-29.31 33.78,-33.15 5.78,2.21 28.86,30.18 35,33.17 4.19,-5.63 15.61,-14.05 18.37,-19.35 -3.2,-5.88 -43.97,-43.12 -52.15,-52.95 -4.37,1.6 -52.8,51.86 -53.39,52.95z"/>
   <path class="fil1" d="M118.73 137.72c1.11,3.15 17.16,19.22 20.33,20.31 3.95,-4.69 17.34,-15.59 18.98,-20.32l-19.05 -18.89c-4.73,1.59 -15.47,14.95 -20.26,18.9z"/>
   <path class="fil1" d="M186.26 138.77l19.08 18.91c3.45,-2.39 18.24,-16.9 19.35,-19.91l-19 -18.76c-2.49,1.8 -18.3,17.41 -19.43,19.76z"/>
   <path class="fil1" d="M52.15 137.82c1.08,2.95 15.88,17.46 19.15,19.72 2.25,-1.55 18.11,-17.2 19.22,-19.54l-19.08 -18.93 -19.29 18.75z"/>
  </g>
 </g>
</svg>
