<?xml version="1.0" encoding="UTF-8"?>
<!DOCTYPE svg PUBLIC "-//W3C//DTD SVG 1.1//EN" "http://www.w3.org/Graphics/SVG/1.1/DTD/svg11.dtd">
<!-- Creator: CorelDRAW -->
<svg xmlns="http://www.w3.org/2000/svg" xml:space="preserve" width="79.375mm" height="79.375mm" version="1.1" style="shape-rendering:geometricPrecision; text-rendering:geometricPrecision; image-rendering:optimizeQuality; fill-rule:evenodd; clip-rule:evenodd"
viewBox="0 0 4786.6 4786.6"
 xmlns:xlink="http://www.w3.org/1999/xlink">
 <defs>
  <style type="text/css">
   <![CDATA[
    .fil0 {fill:#FFB900}
    .fil1 {fill:white}
   ]]>
  </style>
 </defs>
 <g id="Layer_x0020_1">
  <metadata id="CorelCorpID_0Corel-Layer"/>
  <g id="_105553616963552">
   <path class="fil0" d="M1954.46 3744.19c50.34,-91.66 343.8,-363.74 437.82,-458.43l1355.17 -1330.62 437.13 448.81c-136.45,152.1 -304.8,305.21 -454.34,454.07 -154.38,153.67 -292.82,292.56 -446.86,446.66 -126.11,126.16 -814.33,842.52 -900.72,883.4 -80.12,-38.31 -400.86,-356.71 -428.2,-443.88zm-1355.78 -1340.25c29.77,-58.25 385.65,-412.13 443.73,-442.97 79.21,80.77 390.07,366.51 425.48,442.97 -50.56,76.56 -368.67,404.82 -452.73,434.35l-416.47 -434.35zm673.96 659.49c58.9,-100.16 340.35,-356.55 440.69,-456.56 218.5,-217.79 1262.28,-1287.4 1350.08,-1328.01 105.83,40.01 326.17,332.57 449.77,417.61 -54.85,101.36 -1775.1,1797.87 -1811.3,1813.41 -48.13,-26.95 -403.68,-358 -429.25,-446.45zm-1.36 -1340.25c90.88,-112.15 1081.53,-1098.05 1131.15,-1118.61l426.08 437.85c-51.01,93.95 -448.56,463.43 -555.7,570.93 -171.05,171.61 -406.57,378.61 -557.32,558.88l-444.2 -449.05zm-1271.28 520.66l0 298.94c68.08,220.72 7.97,422.43 233.82,881.42 267.3,543.25 589.16,861.08 1128.42,1128.82 453.45,225.14 698.42,172.55 882.2,233.59l297.73 0c188,-62.44 421.23,-6.61 882.19,-233.72 539.57,-265.85 861.47,-587.43 1128.47,-1128.75 64.03,-129.8 109.37,-255.73 151.06,-402.43 42.27,-148.72 47.5,-364.75 82.72,-478.93l0 -298.94c-68.81,-223.11 -8.38,-424.07 -233.85,-881.36 -269,-545.6 -586.17,-858.1 -1129.23,-1128.1 -458.6,-228.01 -691.03,-171.15 -881.36,-234.37l-297.73 0c-95.29,31.65 -340.55,45.05 -479.2,82.98 -389.51,106.59 -816.46,352.96 -1070.86,611.31 -166.49,169.09 -330.74,403.99 -460.5,668.27 -229.01,466.42 -166.43,662.59 -233.88,881.27z"/>
   <path class="fil1" d="M1272.65 3063.42c25.57,88.44 381.12,419.5 429.25,446.45 36.19,-15.54 1756.45,-1712.04 1811.3,-1813.41 -123.6,-85.04 -343.94,-377.61 -449.77,-417.61 -87.81,40.61 -1131.59,1110.22 -1350.08,1328.01 -100.34,100.01 -381.79,356.4 -440.69,456.56z"/>
   <path class="fil1" d="M1954.46 3744.19c27.34,87.16 348.08,405.57 428.2,443.88 86.39,-40.88 774.61,-757.24 900.72,-883.4 154.04,-154.1 292.48,-292.99 446.86,-446.66 149.53,-148.85 317.89,-301.97 454.34,-454.07l-437.13 -448.81 -1355.17 1330.62c-94.03,94.69 -387.48,366.78 -437.82,458.43z"/>
   <path class="fil1" d="M1271.28 1723.18l444.2 449.05c150.75,-180.27 386.27,-387.27 557.32,-558.88 107.14,-107.5 504.69,-476.98 555.7,-570.93l-426.08 -437.85c-49.61,20.56 -1040.26,1006.46 -1131.15,1118.61z"/>
   <path class="fil1" d="M598.69 2403.94l416.47 434.35c84.06,-29.54 402.16,-357.8 452.73,-434.35 -35.41,-76.46 -346.26,-362.2 -425.48,-442.97 -58.07,30.84 -413.96,384.72 -443.73,442.97z"/>
  </g>
 </g>
</svg>
