<?xml version="1.0" encoding="UTF-8"?>
<!DOCTYPE svg PUBLIC "-//W3C//DTD SVG 1.1//EN" "http://www.w3.org/Graphics/SVG/1.1/DTD/svg11.dtd">
<!-- Creator: CorelDRAW -->
<svg xmlns="http://www.w3.org/2000/svg" xml:space="preserve" width="27.5954mm" height="68.7969mm" version="1.1" style="shape-rendering:geometricPrecision; text-rendering:geometricPrecision; image-rendering:optimizeQuality; fill-rule:evenodd; clip-rule:evenodd"
viewBox="0 0 1070.32 2668.37"
 xmlns:xlink="http://www.w3.org/1999/xlink">
 <defs>
  <style type="text/css">
   <![CDATA[
    .fil1 {fill:white;fill-rule:nonzero}
    .fil9 {fill:#FBE4EE;fill-rule:nonzero}
    .fil5 {fill:#F1A0C2;fill-rule:nonzero}
    .fil0 {fill:#E73A7E;fill-rule:nonzero}
    .fil8 {fill:#F4C1D8;fill-rule:nonzero}
    .fil3 {fill:#F4C8DD;fill-rule:nonzero}
    .fil4 {fill:#E2245E;fill-rule:nonzero}
    .fil6 {fill:#E594B5;fill-rule:nonzero}
    .fil7 {fill:#493239;fill-rule:nonzero}
    .fil2 {fill:#4A4646;fill-rule:nonzero}
   ]]>
  </style>
 </defs>
 <g id="Layer_x0020_1">
  <metadata id="CorelCorpID_0Corel-Layer"/>
  <path class="fil0" d="M1006.05 2128.14l0 216.59c-65.31,24.93 -166.21,50.64 -293.06,43.56l0 -201.29c81.11,-1.92 194.21,-14.13 293.06,-58.86z"/>
  <path class="fil0" d="M1006.05 1742.54l0 216.59c-65.31,24.93 -166.21,50.62 -293.06,43.56l0 -201.29c81.11,-1.93 194.21,-14.13 293.06,-58.87z"/>
  <path class="fil0" d="M1006.05 1356.93l0 216.59c-65.31,24.93 -166.21,50.64 -293.06,43.58l0 -201.29c81.11,-1.93 194.21,-14.15 293.06,-58.88z"/>
  <path class="fil0" d="M1006.05 971.33l0 216.59c-65.31,24.93 -166.21,50.64 -293.06,43.57l0 -201.29c81.11,-1.92 194.21,-14.13 293.06,-58.87z"/>
  <path class="fil0" d="M359.01 535.6c-1.3,10.15 -1.8,20.3 -1.8,30.33l0 175.72c-72.88,-15.82 -184.57,-31.88 -292.92,-15.17l0 -160.54c0,-14.65 0.5,-29.05 1.53,-43.32 65.82,-11.44 169.41,-18.25 293.2,12.99z"/>
  <path class="fil1" d="M1006.05 802.31c-65.31,24.94 -166.21,50.64 -293.06,43.58l0 -201.29c81.11,-1.93 194.21,-14.13 293.06,-58.88l0 216.59zm0 385.61c-65.31,24.93 -166.21,50.64 -293.06,43.57l0 -201.29c81.11,-1.92 194.21,-14.13 293.06,-58.87l0 216.59zm0 385.6c-65.31,24.93 -166.21,50.64 -293.06,43.58l0 -201.29c81.11,-1.93 194.21,-14.15 293.06,-58.88l0 216.59zm0 385.61c-65.31,24.93 -166.21,50.62 -293.06,43.56l0 -201.29c81.11,-1.93 194.21,-14.13 293.06,-58.87l0 216.59zm0 385.6c-65.31,24.93 -166.21,50.64 -293.06,43.56l0 -201.29c81.11,-1.92 194.21,-14.13 293.06,-58.86l0 216.59zm-362.86 -1953.72c-24.16,-19.66 -55.4,-32.27 -94.99,-33.41 -2.31,-0.26 -4.63,-0.26 -6.94,-0.26 -3.72,0 -7.45,0.12 -11.07,0.26 -39.71,2.05 -72.36,15.16 -97.93,35.34 -28.15,21.98 -47.94,52.45 -60.15,86.24 -58.49,-49.23 -150.51,-115.8 -254.64,-150.77 32.14,-65.92 77.77,-122.49 133.54,-166.19 57.71,22.23 132.92,60.67 209.13,126.61 13.89,-65.03 23.66,-143.18 16.58,-220.43 21.07,-2.7 42.56,-4.12 64.53,-4.12 48.59,0 94.98,7.19 138.31,20.95 6.17,56.05 7.57,141.78 -17.87,243.45 67.22,-18.64 153.59,-49.88 229.31,-100.12 42.02,51.02 74.02,111.94 93.56,180.19l0 0.14c-55.79,39.59 -147.56,90.87 -274.42,115.68 -6.94,-51.15 -27.5,-101.67 -66.96,-133.54zm-285.99 174.93l0 175.72c-72.88,-15.82 -184.57,-31.88 -292.92,-15.17l0 -160.54c0,-14.65 0.5,-29.05 1.53,-43.32 65.82,-11.44 169.41,-18.25 293.2,12.99 -1.3,10.15 -1.8,20.3 -1.8,30.33zm660.14 -182.27c-20.81,-66.83 -53.21,-126.85 -94.73,-177.88 -64.01,-78.68 -149.87,-135.87 -249.34,-162.73 -41.79,-11.44 -86.01,-17.35 -132.01,-17.35 -23.78,0 -46.92,1.54 -69.67,4.5 -101.15,13.11 -191.38,54.5 -263.75,117.22 -53.35,46.02 -97.04,103.73 -128.4,169.93 -30.07,64 -48.59,136.12 -52.83,213.49 -0.64,11.56 -1.03,23.26 -1.03,35.08l0 222.62c0,102.19 82.91,185.09 185.09,185.09 102.31,0 185.09,-82.9 185.09,-185.09l0 -222.62c0,-6.55 0.26,-13.23 0.76,-19.78 1.16,-13.38 3.48,-26.61 6.95,-39.46 5.39,-19.8 13.75,-38.57 25.32,-54.63 23.66,-33.55 60.67,-56.17 112.47,-56.17 5.79,0 11.3,0.26 16.58,0.9l2.82 0.38c29.83,3.72 51.8,16.2 68,32.91 28.4,28.91 39.2,70.7 43.3,101.16 2.05,15.54 2.45,28.14 2.45,34.7l0 1891.63c0,102.2 82.9,185.1 185.09,185.1 102.18,0 185.09,-82.91 185.09,-185.1l0 -1891.63c0,-64.53 -9.51,-125.84 -27.26,-182.27z"/>
  <path class="fil0" d="M1006.05 585.72l0 216.59c-65.31,24.94 -166.21,50.64 -293.06,43.58l0 -201.29c81.11,-1.93 194.21,-14.13 293.06,-58.88z"/>
  <path class="fil0" d="M984.58 408.74l0 0.14c-55.79,39.59 -147.56,90.87 -274.42,115.68 -6.94,-51.15 -27.5,-101.67 -66.96,-133.54 -24.16,-19.66 -55.4,-32.27 -94.99,-33.41 -1.03,-4.24 -1.03,-4.24 -1.03,-4.24 0,0 193.19,-24.81 343.84,-124.8 42.02,51.02 74.02,111.94 93.56,180.19z"/>
  <path class="fil0" d="M661.71 328.66c-66.58,18.51 -114.53,24.68 -114.53,24.68 0,0 0,0 1.03,4.24 -2.31,-0.26 -4.63,-0.26 -6.94,-0.26 -3.72,0 -7.45,0.12 -11.07,0.26 -39.71,2.05 -72.36,15.16 -97.93,35.34 22.74,-70.18 55.91,-198.58 44.47,-324.54 21.07,-2.7 42.56,-4.12 64.53,-4.12 48.59,0 94.98,7.19 138.31,20.95 6.17,56.05 7.57,141.78 -17.87,243.45z"/>
  <path class="fil0" d="M460.16 288.82c-8.73,41.13 -19.14,76.99 -27.89,104.11 -28.15,21.98 -47.94,52.45 -60.15,86.24 -58.49,-49.23 -150.51,-115.8 -254.64,-150.77 32.14,-65.92 77.77,-122.49 133.54,-166.19 57.71,22.23 132.92,60.67 209.13,126.61z"/>
  <path class="fil2" d="M1006.05 2457.57c0,80.85 -65.82,146.53 -146.53,146.53 -80.85,0 -146.53,-65.68 -146.53,-146.53l0 -1891.63c0,-13.63 -0.89,-27.5 -2.83,-41.39 -6.94,-51.15 -27.5,-101.67 -66.96,-133.54 -24.16,-19.66 -55.4,-32.27 -94.99,-33.41 -2.31,-0.26 -4.63,-0.26 -6.94,-0.26 -3.72,0 -7.45,0.12 -11.05,0.26 -39.72,2.05 -72.37,15.16 -97.94,35.34 -28.15,21.98 -47.94,52.45 -60.15,86.24 -6.57,18.13 -10.93,37.15 -13.11,56.43 -1.3,10.15 -1.8,20.3 -1.8,30.33l0 222.62c0,80.85 -65.68,146.53 -146.53,146.53 -80.72,0 -146.39,-65.68 -146.39,-146.53l0 -222.62c0,-14.65 0.5,-29.05 1.53,-43.32 5.27,-70.56 23.14,-135.98 51.67,-194.21 32.14,-65.92 77.77,-122.49 133.54,-166.19 63.64,-49.74 140.49,-82.65 225.71,-93.84 21.07,-2.68 42.56,-4.1 64.53,-4.1 48.59,0 94.98,7.19 138.31,20.95 83.67,26.22 156.16,76.1 211.44,143.33 42.02,51.02 74.02,111.94 93.56,180.19l0 0.14c14.01,48.97 21.47,101.66 21.47,157.06l0 1891.63zm63.9 -1915.83c-2.38,-63.9 -13.6,-125.35 -33.38,-182.64 -21.91,-63.24 -53.57,-120.48 -94.08,-170.14 -90.57,-111.32 -219.65,-177.94 -363.81,-187.59 -11.4,-0.92 -23.64,-1.37 -37.4,-1.37 -25.49,0 -51.08,1.74 -76.05,5.16 -112.02,14.98 -213.58,63.43 -293.73,140.14 -50,47.7 -90.06,104.71 -119.14,169.49 -32.46,72.04 -50,150.63 -52.08,233.59 -0.15,5.8 -0.28,11.74 -0.28,17.55l0 222.62c0,116.24 94.51,210.8 210.66,210.8 116.24,0 210.8,-94.56 210.8,-210.8l0 -222.62c0,-2.79 0.03,-5.73 0.28,-7.31 0.12,-7.03 0.76,-14.46 1.91,-21.97 3.26,-23.19 12.1,-56.15 35.89,-81.59 17.79,-18.88 40.5,-29.9 67.67,-32.77 4.49,-0.43 9.13,-0.7 14.05,-0.7 10.58,0 20.68,1.33 30.1,3.94 20.99,5.95 38,18.21 50.49,36.37 12.86,18.37 21.26,42.68 24.95,72.24 1.26,10.13 1.9,20.81 1.9,31.79l0 1891.65c0,116.22 94.56,210.78 210.8,210.78 116.22,0 210.8,-94.56 210.8,-210.78l0 -1891.65c0,-8.1 -0.15,-16.19 -0.37,-24.2z"/>
  <path class="fil3" d="M968.96 1047.27c-0.02,0 -0.04,0 -0.05,0 -5.68,-0.14 -10.28,-20.15 -14.78,-55.66 11.03,-3.69 21.97,-7.7 32.78,-12.08 -5.22,43.31 -11.9,67.74 -17.95,67.74z"/>
  <path class="fil1" d="M954.12 991.61c-3.61,-28.62 -7.18,-67.32 -11.19,-113.81 -1.48,-16.94 -3.04,-34.92 -4.69,-53.81 21.29,-5.57 40.57,-11.71 57.69,-17.91 -0.07,25.08 -0.56,48.64 -1.41,70.48 -1.6,40.91 -4.32,75.7 -7.61,102.98 -10.81,4.38 -21.76,8.39 -32.78,12.08z"/>
  <path class="fil1" d="M917.6 616.97c-5.53,-45.47 -12.66,-92.48 -23.8,-139.47 -1.02,-4.38 -2.09,-8.74 -3.19,-13.08 24.78,-12.08 46.66,-24.57 65.66,-36.59 3.1,10.81 5.94,21.76 8.53,32.8 10.84,45.87 17.35,90.65 21.62,133.49 -22.55,9.1 -45.66,16.63 -68.83,22.85z"/>
  <path class="fil1" d="M805.99 275.96c-35.94,-47.75 -79.33,-82.47 -119.47,-104.7 -1.11,-0.6 -2.21,-1.19 -3.31,-1.76 0.1,-4.72 0.14,-9.33 0.14,-13.86 0,-14.26 -0.45,-27.63 -1.21,-40.01 8.51,2.49 17.21,5.42 26.08,8.81 52.61,20.98 110.21,59.96 157.3,119.02 0.21,0.25 0.4,0.49 0.59,0.74 -19.73,11.74 -39.91,22.29 -60.12,31.77z"/>
  <path class="fil3" d="M938.24 823.98c-3.46,-39.23 -7.39,-82.46 -12.05,-128.7 -2.63,-25.35 -5.32,-51.57 -8.58,-78.31 23.17,-6.23 46.28,-13.75 68.83,-22.85 3.31,33.4 5.27,65.61 6.81,96.22 1.95,41.17 2.76,79.99 2.68,115.73 -17.12,6.2 -36.4,12.34 -57.69,17.91z"/>
  <path class="fil3" d="M890.62 464.43c-17.48,-69.19 -43.98,-131.83 -78.69,-180.37 -1.95,-2.73 -3.94,-5.45 -5.94,-8.1 20.21,-9.48 40.39,-20.03 60.12,-31.77 40.65,51.19 70.51,114.89 90.17,183.65 -19.01,12.02 -40.88,24.51 -65.66,36.59z"/>
  <path class="fil3" d="M683.21 169.49c-41.47,-21.84 -79.17,-31.18 -106.15,-34.97 -6.94,-0.81 -13.18,-1.68 -18.68,-2.61 -5.47,-0.71 -10.15,-0.99 -14.04,-1.71 -7.77,-1.33 -12.24,-3.18 -12.73,-5.64 -0.47,-2.47 3.11,-5.47 10.66,-8.93 3.79,-1.66 8.54,-3.74 14.33,-5.35 5.8,-1.38 12.6,-2.78 20.35,-4.17 7.77,-1.23 16.46,-1.44 26.08,-2.04 0.12,0 0.24,0 0.37,0 9.46,0 19.78,0.5 30.84,1.57 14.86,1.76 30.97,5.01 47.9,9.99 0.75,12.38 1.21,25.75 1.21,40.01 0,4.53 -0.04,9.14 -0.14,13.86z"/>
  <path class="fil3" d="M942.48 1208.46c-5.38,-11 -9.09,-24.83 -9.89,-40.28 -2.16,-39.65 15.82,-70.77 35.18,-70.77 0.49,0 1,0.03 1.49,0.07 20.23,1.64 34.22,31.54 36.2,66.79 0.42,8.39 0.15,16.56 -0.8,24.18 -18.11,6.87 -38.91,13.78 -62.19,20.02z"/>
  <path class="fil1" d="M973.17 1234.85c-11.17,0 -22.74,-10.1 -30.69,-26.39 23.27,-6.24 44.07,-13.15 62.19,-20.02 -3.02,24.4 -12.87,43.21 -28.08,46.1 -1.13,0.22 -2.27,0.31 -3.42,0.31z"/>
  <path class="fil4" d="M752.03 2389.48c-12.73,-0.07 -25.74,-0.44 -39.04,-1.19l0 -201.29c7.85,-0.18 16.01,-0.47 24.42,-0.86 1.64,32.61 3.53,64.08 5.61,94.08 2.16,31.04 4.49,60.53 7.02,88.12 0.68,7.13 1.33,14.18 1.99,21.14zm58.33 -2c0.07,-7.07 0.15,-14.32 0.15,-21.76 -0.09,-27.61 -0.19,-57.1 -0.29,-88.15 -0.3,-31.06 -0.81,-63.64 -1.52,-97.42 37.11,-4.53 76.47,-11.66 115.58,-22.6 23.03,47.59 49.96,82.63 81.37,101.26 0.14,1.34 0.26,2.71 0.4,4.08l0 81.84c-47.58,18.16 -114.05,36.74 -195.7,42.76z"/>
  <path class="fil4" d="M731.19 2003.49c-6.01,-0.19 -12.08,-0.45 -18.2,-0.8l0 -201.29c6.05,-0.14 12.27,-0.34 18.66,-0.62 -1.5,60.34 -1.78,129.03 -0.47,202.7zm72.24 -1.14c-2.84,-75.05 -6.29,-144.94 -10.23,-206.04 12.85,-1.36 26.02,-3 39.42,-5.01 9.93,73.49 22.08,142.36 36.93,203.77 -20.8,3.27 -42.84,5.79 -66.12,7.28z"/>
  <path class="fil4" d="M742.61 1618.17c-9.71,-0.16 -19.58,-0.52 -29.62,-1.07l0 -201.29c26.15,-0.63 55.63,-2.32 86.88,-5.82 3.39,69.3 7.85,138.57 13.68,206.04 -11.95,0.93 -24.21,1.6 -36.78,1.95 -5.55,-38.44 -11.53,-60.2 -17.76,-60.2 0,0 0,0 -0.01,0 -6.12,0.03 -11.76,21.86 -16.39,60.38z"/>
  <path class="fil4" d="M755.54 1232.68c-13.83,0 -28.02,-0.37 -42.55,-1.19l0 -201.29c23.37,-0.55 49.41,-1.96 76.99,-4.75 0.44,65.84 1.42,135.21 3.28,206.28 -12.26,0.62 -24.83,0.95 -37.72,0.95z"/>
  <path class="fil5" d="M859.52 2604.1c-80.85,0 -146.53,-65.68 -146.53,-146.53l0 -69.28c13.3,0.75 26.31,1.12 39.04,1.19 1.86,19.76 3.87,38.89 7.62,57.67 5.03,25.25 13.54,48.44 26.06,66.82 12.4,18.12 27.31,30.28 40.97,37.25 12.22,6.4 23.3,8.36 31.14,8.36 0.9,0 1.76,-0.03 2.58,-0.07 7.97,-0.48 11.94,-3.01 12.14,-5.34 0.53,-5.49 -13.79,-9.66 -29.39,-26.12 -7.78,-8.11 -15.91,-19.5 -21.81,-34.02 -5.75,-14.25 -9.39,-32.53 -10.55,-53.82 -0.9,-15.53 -0.64,-33.39 -0.43,-52.75 81.65,-6.02 148.12,-24.6 195.7,-42.76l0 -81.84 0 194.68c0,76.2 -58.45,138.92 -132.75,145.89 -0.31,0 -0.64,0 -0.96,0 -4.23,0.37 -8.49,0.64 -12.82,0.64zm-146.53 -417.09l0 -184.31c6.12,0.34 12.19,0.6 18.2,0.8 0.42,24.34 1.04,49.26 1.83,74.55 1.15,37.08 2.63,73.23 4.39,108.1 -8.42,0.4 -16.57,0.68 -24.42,0.86zm95.71 -6.84c-0.71,-33.73 -1.62,-68.63 -2.72,-104.37 -0.78,-24.94 -1.63,-49.43 -2.55,-73.43 23.28,-1.49 45.32,-4.01 66.12,-7.28 15.23,63.05 33.29,118.19 54.73,162.48 -39.11,10.95 -78.47,18.08 -115.58,22.6zm-95.71 -378.75l0 -184.31c10.04,0.55 19.91,0.9 29.62,1.07 -5.14,42.7 -9.04,105.91 -10.96,182.62 -6.39,0.28 -12.62,0.48 -18.66,0.62zm80.21 -5.09c-4.83,-74.81 -10.37,-136.46 -16.42,-178.33 12.57,-0.36 24.83,-1.03 36.78,-1.95 5.2,60.26 11.48,119.16 19.06,175.27 -13.4,2.01 -26.57,3.65 -39.42,5.01zm-80.21 -380.51l0 -184.32c14.53,0.82 28.72,1.19 42.55,1.19 12.89,0 25.46,-0.33 37.72,-0.95 1.55,58.69 3.68,118.5 6.61,178.26 -31.25,3.5 -60.74,5.19 -86.88,5.82zm0 -385.61l0 -184.31c14.53,0.81 28.72,1.19 42.57,1.19 11.71,0 23.15,-0.27 34.36,-0.79 -0.29,55.13 -0.36,115.44 0.07,179.16 -27.58,2.79 -53.63,4.2 -76.99,4.75z"/>
  <path class="fil4" d="M357.21 741.65c-8.13,-1.76 -16.74,-3.53 -25.75,-5.26 2.01,-20.88 2.8,-41.24 3.79,-62.42 0.96,-21.92 1.68,-44.62 2.18,-67.88 0.62,-26.55 0.54,-51.86 1.08,-75.37 6.77,1.5 13.61,3.13 20.51,4.87 -1.3,10.15 -1.8,20.3 -1.8,30.33l0 175.72zm-93.14 -15.81c-4.54,-0.55 -9.15,-1.08 -13.82,-1.57 4.72,-34.69 8.72,-74.75 14.2,-119.7 -0.49,23.26 -0.71,45.96 -0.69,67.91 0.11,18.39 0.21,36.23 0.3,53.36z"/>
  <path class="fil5" d="M210.68 935.09c-0.15,0 -0.29,0 -0.43,0 -0.03,0 -0.05,0 -0.08,0 -0.14,0 -0.28,0 -0.4,0 -0.04,0 -0.07,0 -0.11,0 -0.12,0 -0.23,0 -0.36,0 -0.03,0 -0.05,0 -0.08,0 -0.12,0 -0.23,0 -0.36,-0.01 -0.05,0 -0.1,0 -0.15,0 -0.11,0 -0.23,0 -0.34,0 -0.07,0 -0.12,0 -0.18,0 -0.07,0 -0.14,0 -0.19,0 -0.14,-0.02 -0.28,-0.02 -0.4,-0.02 -0.03,0 -0.05,0 -0.09,0 -47.47,-1.01 -89.36,-24.85 -115.4,-60.86 17.6,3.46 33.1,5.16 46.8,5.16 78.23,0 97.79,-55.4 111.34,-155.08 4.67,0.49 9.28,1.02 13.82,1.57 0.03,2.89 0.04,5.74 0.05,8.58 -0.08,37.38 -5.36,67.84 -16.56,88.54 -11.57,21.71 -27.53,35.18 -39.94,42.56 -12.48,7.79 -22.22,10.29 -22.84,15.64 -0.75,4.27 8.21,11.96 27.71,11.96 0.66,0 1.31,-0.02 1.98,-0.03 20.51,-0.31 50.71,-11.85 75,-40.02 25.35,-28.91 37.74,-71.84 41.76,-114.61 0.08,-0.7 0.15,-1.4 0.22,-2.08 9.02,1.73 17.62,3.49 25.75,5.26l0 -175.72c0,-10.03 0.5,-20.18 1.8,-30.33 -6.9,-1.74 -13.74,-3.37 -20.51,-4.87 0.42,-18.1 1.23,-35.14 3.04,-50.84 0.86,-7.98 1.96,-15.61 3.29,-22.92 9.75,7.68 18.87,15.12 27.3,22.21 12.21,-33.8 32,-64.27 60.15,-86.24 25.57,-20.18 58.22,-33.29 97.93,-35.34 3.61,-0.14 7.35,-0.26 11.07,-0.26 2.31,0 4.63,0 6.94,0.26 0.47,0.01 0.93,0.03 1.38,0.04 -0.45,-0.01 -0.92,-0.03 -1.38,-0.04 -2.31,-0.26 -4.63,-0.26 -6.94,-0.26 -3.72,0 -7.45,0.12 -11.05,0.26 -39.72,2.05 -72.37,15.16 -97.94,35.34 -28.15,21.98 -47.94,52.45 -60.15,86.24 -6.57,18.13 -10.93,37.15 -13.11,56.43 -1.3,10.15 -1.8,20.3 -1.8,30.33l0 222.62c0,0.63 0,1.26 -0.02,1.9 -1.01,79.97 -66.31,144.63 -146.51,144.63z"/>
  <path class="fil5" d="M712.99 644.6l0 -78.66c0,-13.63 -0.89,-27.51 -2.83,-41.39 -6.94,-51.15 -27.5,-101.67 -66.96,-133.54 39.46,31.88 60.03,82.4 66.96,133.54 27.35,-5.35 53.07,-11.92 77.16,-19.35 1.63,16.08 2.78,32.61 3.53,49.51 0.78,17.47 0.88,46.56 0.66,84.98 -28.14,2.9 -54.72,4.35 -78.51,4.91z"/>
  <path class="fil6" d="M432.27 392.93c8.74,-27.12 19.16,-62.98 27.89,-104.11 -12.17,-10.53 -24.3,-20.35 -36.36,-29.53 12.05,9.18 24.19,18.99 36.36,29.53 0.75,-3.51 1.49,-7.09 2.21,-10.69 -9.15,45.55 -20.54,85.31 -30.1,114.8z"/>
  <path class="fil5" d="M460.16 288.82c-12.17,-10.53 -24.3,-20.35 -36.36,-29.53 13.58,-5.74 28.36,-10.25 44.5,-13.49 -1.82,11.04 -3.82,21.85 -5.93,32.33 -0.73,3.6 -1.46,7.17 -2.21,10.69z"/>
  <path class="fil6" d="M547.18 353.35c0,0 0,0 0.02,0 -0.02,0 -0.02,0 -0.02,0zm0.03 -0.01c1.48,-0.19 48.96,-6.45 114.5,-24.67 17.83,-4.94 37,-10.77 56.95,-17.6l0.02 0c-93.41,31.99 -169.58,42.04 -171.46,42.27z"/>
  <path class="fil5" d="M661.71 328.66c4.8,-19.21 8.66,-37.86 11.7,-55.84 17.4,10.54 32.39,23.38 45.25,38.24 -19.95,6.83 -39.12,12.66 -56.95,17.6z"/>
  <path class="fil4" d="M755.56 847.08c-13.85,0 -28.04,-0.38 -42.57,-1.19l0 -201.29c23.8,-0.56 50.37,-2.01 78.51,-4.91 -0.3,53.1 -1.18,124.03 -1.59,206.6 -11.21,0.52 -22.64,0.79 -34.36,0.79z"/>
  <path class="fil4" d="M710.16 524.55c-6.94,-51.15 -27.5,-101.67 -66.96,-133.54 -23.89,-19.44 -54.67,-31.96 -93.61,-33.38 -0.45,-0.01 -0.92,-0.03 -1.38,-0.04 -1.03,-4.24 -1.03,-4.24 -1.03,-4.24 0,0 0,0 0.02,0l0.01 -0.01c1.88,-0.23 78.05,-10.28 171.46,-42.27 41.09,47.44 60.65,115.38 68.65,194.13 -24.08,7.43 -49.81,14 -77.16,19.35z"/>
  <path class="fil4" d="M432.27 392.93l0 0c9.56,-29.49 20.95,-69.25 30.1,-114.8 2.11,-10.48 4.1,-21.29 5.93,-32.33 20.11,-4.02 42.3,-6.08 66.87,-6.12 0.22,0 0.44,0 0.67,0 57.4,0 102.41,11.86 137.57,33.14 -3.04,17.98 -6.9,36.63 -11.7,55.84 -65.54,18.23 -113.02,24.48 -114.5,24.67l-0.01 0.01c-0.02,0 -0.02,0 -0.02,0 0,0 0,0 1.03,4.24 -2.31,-0.26 -4.63,-0.26 -6.94,-0.26 -3.72,0 -7.45,0.12 -11.07,0.26 -39.71,2.05 -72.36,15.16 -97.93,35.34z"/>
  <path class="fil4" d="M372.12 479.18c-8.43,-7.09 -17.54,-14.53 -27.3,-22.21 4.75,-26.19 12.45,-48.18 22.67,-66.17 25.35,-47.02 60.4,-60.66 58,-71.04 -0.66,-3.13 -5.88,-5.71 -15.19,-5.71 -4.41,0 -9.73,0.58 -15.9,1.94 -18.9,4.27 -45.5,17.93 -68.61,44.4 -2.84,3.22 -5.65,6.61 -8.39,10.18 23.77,-52.97 57.09,-90.38 106.38,-111.29 12.05,9.18 24.19,18.99 36.36,29.53 -8.73,41.13 -19.14,76.99 -27.89,104.11 -28.15,21.98 -47.94,52.45 -60.15,86.24z"/>
  <path class="fil7" d="M859.52 2604.1c-80.85,0 -146.53,-65.68 -146.53,-146.53 0,80.85 65.68,146.53 146.53,146.53zm14.49 -0.64c-0.23,0 -0.48,0 -0.71,0 74.3,-6.97 132.75,-69.69 132.75,-145.89l0 -194.68c10.69,111.71 36.34,340.57 -132.04,340.57zm-663.33 -1668.37c-0.14,0 -0.29,0 -0.43,0 0.14,0 0.28,0 0.43,0zm-0.51 0c-0.14,0 -0.28,0 -0.4,0 0.12,0 0.26,0 0.4,0zm-0.5 0c-0.11,0 -0.23,0 -0.36,0 0.12,0 0.23,0 0.36,0zm-0.44 0c-0.12,0 -0.23,0 -0.36,-0.01 0.12,0.01 0.23,0.01 0.36,0.01zm-0.51 -0.01c-0.11,0 -0.23,0 -0.34,0 0.11,0 0.23,0 0.34,0zm-0.52 0c-0.07,0 -0.14,0 -0.19,0 0.05,0 0.12,0 0.19,0zm-0.59 -0.02c-0.04,0 -0.05,0 -0.09,0 0.04,0 0.07,0 0.09,0zm149.58 -144.6c0.02,-0.64 0.02,-1.28 0.02,-1.9l0 -222.62c0,-10.03 0.5,-20.18 1.8,-30.33 2.18,-19.28 6.54,-38.3 13.11,-56.43 12.21,-33.8 32,-64.27 60.15,-86.24 25.57,-20.18 58.22,-33.29 97.94,-35.34 3.6,-0.14 7.33,-0.26 11.05,-0.26 2.31,0 4.63,0 6.94,0.26 0.47,0.01 0.93,0.03 1.38,0.04 -0.45,-0.01 -0.92,-0.03 -1.38,-0.04 -2.31,-0.26 -4.63,-0.26 -6.94,-0.26 -3.72,0 -7.45,0.12 -11.05,0.26 -39.72,2.05 -72.37,15.16 -97.94,35.34 -28.15,21.98 -47.94,52.45 -60.15,86.24 -6.57,18.13 -10.93,37.15 -13.11,56.43 -1.3,10.15 -1.8,20.3 -1.8,30.33l0 222.62c0,0.63 0,1.26 -0.02,1.9zm355.8 -224.53l0 0zm-2.83 -41.39l0 0c-6.94,-51.15 -27.5,-101.67 -66.96,-133.54 39.46,31.88 60.03,82.4 66.96,133.54z"/>
  <path class="fil8" d="M755.54 2389.48c-1.18,0 -2.34,0 -3.51,0 -0.66,-6.96 -1.3,-14.01 -1.99,-21.14 -2.53,-27.58 -4.86,-57.07 -7.02,-88.12 -2.08,-30 -3.97,-61.48 -5.61,-94.08 22.22,-1.05 46.25,-2.93 71.29,-5.98 0.71,33.78 1.22,66.36 1.52,97.42 0.1,31.05 0.19,60.53 0.29,88.15 0,7.43 -0.08,14.68 -0.15,21.76 -17.58,1.29 -35.86,2 -54.81,2z"/>
  <path class="fil8" d="M755.56 2003.89c-8.02,0 -16.14,-0.14 -24.37,-0.4 -1.31,-73.67 -1.04,-142.36 0.47,-202.7 19.25,-0.79 39.94,-2.2 61.55,-4.47 3.94,61.09 7.39,130.98 10.23,206.04 -15.43,0.99 -31.41,1.53 -47.87,1.53z"/>
  <path class="fil8" d="M755.54 1618.27c-4.27,0 -8.59,-0.03 -12.93,-0.11 4.64,-38.52 10.28,-60.36 16.39,-60.38 0.01,0 0.01,0 0.01,0 6.23,0 12.21,21.77 17.76,60.2 -6.98,0.19 -14.06,0.29 -21.24,0.29z"/>
  <path class="fil9" d="M857.82 2559.59c-7.84,0 -18.92,-1.96 -31.14,-8.36 -13.66,-6.97 -28.57,-19.13 -40.97,-37.25 -12.52,-18.39 -21.03,-41.58 -26.06,-66.82 -3.75,-18.79 -5.76,-37.92 -7.62,-57.67 1.18,0 2.34,0 3.51,0 18.95,0 37.23,-0.71 54.81,-2 -0.22,19.36 -0.48,37.22 0.43,52.75 1.16,21.29 4.8,39.57 10.55,53.82 5.9,14.51 14.03,25.9 21.81,34.02 15.6,16.46 29.92,20.63 29.39,26.12 -0.19,2.33 -4.16,4.86 -12.14,5.34 -0.81,0.04 -1.67,0.07 -2.58,0.07zm-120.41 -373.45c-1.76,-34.86 -3.24,-71.01 -4.39,-108.1 -0.79,-25.3 -1.41,-50.21 -1.83,-74.55 8.23,0.26 16.35,0.4 24.37,0.4 16.46,0 32.44,-0.55 47.87,-1.53 0.92,24 1.77,48.49 2.55,73.43 1.11,35.74 2.01,70.65 2.72,104.37 -25.04,3.05 -49.07,4.93 -71.29,5.98zm-5.76 -385.35c1.92,-76.72 5.81,-139.92 10.96,-182.62 4.34,0.08 8.66,0.11 12.93,0.11 7.17,0 14.26,-0.1 21.24,-0.29 6.05,41.87 11.59,103.52 16.42,178.33 -21.61,2.27 -42.3,3.68 -61.55,4.47z"/>
  <path class="fil3" d="M264.45 604.58c0.74,-28.88 1.23,-57.76 3.72,-86.05 2.79,0.36 5.59,0.71 8.4,1.1 -4.5,26.53 -8.46,54.88 -12.12,84.96z"/>
  <path class="fil1" d="M276.57 519.62c-2.82,-0.38 -5.61,-0.74 -8.4,-1.1 1.48,-16.71 3.65,-33.2 6.99,-49.39 3.71,-18.21 8.84,-35.68 15.56,-51.85 2.57,1.77 5.12,3.52 7.65,5.27 -8.7,29.06 -15.75,61.45 -21.8,97.07z"/>
  <path class="fil3" d="M298.37 422.56c-2.53,-1.75 -5.08,-3.5 -7.65,-5.27 1.26,-3.04 2.59,-6.05 3.97,-8.99 6.53,-14.19 14.31,-26.78 22.73,-37.72 -7.16,15.93 -13.45,33.27 -19.05,51.98z"/>
  <path class="fil8" d="M331.45 736.4c-20.51,-3.91 -43.2,-7.61 -67.39,-10.55 -0.1,-17.13 -0.19,-34.97 -0.3,-53.36 -0.03,-21.95 0.19,-44.65 0.69,-67.91 3.67,-30.07 7.62,-58.43 12.12,-84.96 19.94,2.71 40.6,6.35 61.93,11.11 -0.55,23.51 -0.47,48.82 -1.08,75.37 -0.49,23.26 -1.22,45.96 -2.18,67.88 -0.99,21.18 -1.78,41.54 -3.79,62.42z"/>
  <path class="fil9" d="M212.5 893.14c-19.5,0 -28.46,-7.69 -27.71,-11.96 0.62,-5.35 10.36,-7.85 22.84,-15.64 12.41,-7.39 28.36,-20.85 39.94,-42.56 11.19,-20.7 16.48,-51.16 16.56,-88.54 -0.01,-2.84 -0.03,-5.69 -0.05,-8.58 24.19,2.94 46.88,6.64 67.39,10.55 -0.07,0.69 -0.14,1.38 -0.22,2.08 -4.02,42.77 -16.41,85.69 -41.76,114.61 -24.29,28.17 -54.49,39.71 -75,40.02 -0.67,0.01 -1.33,0.03 -1.98,0.03zm126 -362.41c-21.33,-4.76 -41.99,-8.4 -61.93,-11.11 6.05,-35.62 13.09,-68 21.8,-97.07 16.69,11.63 32.24,23.24 46.45,34.41 -1.33,7.31 -2.42,14.94 -3.29,22.92 -1.8,15.71 -2.61,32.74 -3.04,50.84z"/>
  <path class="fil8" d="M344.82 456.97c-14.22,-11.17 -29.76,-22.78 -46.45,-34.41 5.6,-18.71 11.89,-36.06 19.05,-51.98 2.73,-3.57 5.54,-6.97 8.39,-10.18 23.11,-26.48 49.71,-40.13 68.61,-44.4 6.17,-1.37 11.49,-1.94 15.9,-1.94 9.3,0 14.53,2.58 15.19,5.71 2.39,10.39 -32.65,24.03 -58,71.04 -10.22,17.99 -17.92,39.98 -22.67,66.17z"/>
 </g>
</svg>
