<svg xmlns="http://www.w3.org/2000/svg" viewBox="0 0 78.22 195.02"><defs><style>.cls-1{isolation:isolate;}.cls-2,.cls-7{fill:#ef3781;}.cls-3{fill:#fff;}.cls-4{fill:#3f3b3c;}.cls-5{mix-blend-mode:screen;}.cls-6{fill:#fcacd4;}.cls-7{opacity:0.5;mix-blend-mode:multiply;}</style></defs><g class="cls-1"><g id="Layer_2" data-name="Layer 2"><g id="OBJECTS"><path class="cls-2" d="M73.53,155.53v15.83a52.23,52.23,0,0,1-21.42,3.19V159.84C58,159.69,66.3,158.8,73.53,155.53Z"/><path class="cls-2" d="M73.53,127.35v15.83a52.08,52.08,0,0,1-21.42,3.18V131.65C58,131.51,66.3,130.62,73.53,127.35Z"/><path class="cls-2" d="M73.53,99.17V115a52.08,52.08,0,0,1-21.42,3.18V103.47C58,103.33,66.3,102.44,73.53,99.17Z"/><path class="cls-2" d="M73.53,71V86.82A52.08,52.08,0,0,1,52.11,90V75.29C58,75.15,66.3,74.26,73.53,71Z"/><path class="cls-2" d="M26.24,39.14a16.73,16.73,0,0,0-.13,2.22V54.2c-5.33-1.15-13.49-2.33-21.41-1.11V41.36c0-1.07,0-2.12.11-3.16A51.68,51.68,0,0,1,26.24,39.14Z"/><path class="cls-3" d="M74.35,28a38.93,38.93,0,0,0-6.92-13A35.23,35.23,0,0,0,49.2,3.15a36.24,36.24,0,0,0-9.64-1.27,38.63,38.63,0,0,0-5.09.33,36.39,36.39,0,0,0-19.28,8.56A37.7,37.7,0,0,0,5.81,23.19,42,42,0,0,0,1.94,38.8c0,.84-.07,1.7-.07,2.56V57.63a13.53,13.53,0,1,0,27.05,0V41.36c0-.48,0-1,.06-1.45A15.66,15.66,0,0,1,29.49,37a12.15,12.15,0,0,1,1.85-4,9.6,9.6,0,0,1,8.22-4.11,9.49,9.49,0,0,1,1.21.07L41,29a8.11,8.11,0,0,1,5,2.4,13.19,13.19,0,0,1,3.16,7.39,20.2,20.2,0,0,1,.18,2.54V179.61a13.53,13.53,0,1,0,27.05,0V41.36A44.28,44.28,0,0,0,74.35,28ZM26.11,41.36V54.2c-5.33-1.15-13.49-2.33-21.41-1.11V41.36c0-1.07,0-2.12.11-3.16a51.68,51.68,0,0,1,21.43.94A16.73,16.73,0,0,0,26.11,41.36ZM47,28.58a11.25,11.25,0,0,0-6.95-2.45,4.1,4.1,0,0,0-.5,0l-.81,0a12.34,12.34,0,0,0-7.16,2.59A13.76,13.76,0,0,0,27.2,35c-4.28-3.6-11-8.46-18.61-11a34.46,34.46,0,0,1,9.76-12.14,52,52,0,0,1,15.28,9.25A54.89,54.89,0,0,0,34.84,5a36.58,36.58,0,0,1,4.72-.3A33.21,33.21,0,0,1,49.67,6.23,50.81,50.81,0,0,1,48.36,24,59.62,59.62,0,0,0,65.12,16.7,36.42,36.42,0,0,1,72,29.87h0A52,52,0,0,1,51.9,38.34C51.39,34.6,49.89,30.91,47,28.58ZM73.53,171.36a52.23,52.23,0,0,1-21.42,3.19V159.84c5.92-.15,14.19-1,21.42-4.31Zm0-28.18a52.08,52.08,0,0,1-21.42,3.18V131.65c5.92-.14,14.19-1,21.42-4.3Zm0-28.18a52.08,52.08,0,0,1-21.42,3.18V103.47c5.92-.14,14.19-1,21.42-4.3Zm0-28.18A52.08,52.08,0,0,1,52.11,90V75.29c5.92-.14,14.19-1,21.42-4.3Zm0-28.18a52.08,52.08,0,0,1-21.42,3.18V47.11c5.92-.14,14.19-1,21.42-4.3Z"/><path class="cls-2" d="M73.53,42.81V58.64a52.08,52.08,0,0,1-21.42,3.18V47.11C58,47,66.3,46.08,73.53,42.81Z"/><path class="cls-2" d="M72,29.87h0A52,52,0,0,1,51.9,38.34c-.51-3.74-2-7.43-4.89-9.76a11.25,11.25,0,0,0-6.95-2.45L40,25.82S54.11,24,65.12,16.7A36.42,36.42,0,0,1,72,29.87Z"/><path class="cls-2" d="M48.36,24A66.52,66.52,0,0,1,40,25.82l.07.31a4.1,4.1,0,0,0-.5,0l-.81,0a12.34,12.34,0,0,0-7.16,2.59C33.25,23.59,35.68,14.2,34.84,5a36.58,36.58,0,0,1,4.72-.3A33.21,33.21,0,0,1,49.67,6.23,50.81,50.81,0,0,1,48.36,24Z"/><path class="cls-2" d="M33.63,21.11a78.49,78.49,0,0,1-2,7.61A13.76,13.76,0,0,0,27.2,35c-4.28-3.6-11-8.46-18.61-11a34.46,34.46,0,0,1,9.76-12.14A52,52,0,0,1,33.63,21.11Z"/><path class="cls-4" d="M78.19,39.59a46.2,46.2,0,0,0-2.43-13.35,40.82,40.82,0,0,0-6.88-12.43A37.05,37.05,0,0,0,42.29.1C41.46,0,40.56,0,39.56,0A41,41,0,0,0,34,.38,38.06,38.06,0,0,0,12.53,10.62,39,39,0,0,0,3.83,23,43.77,43.77,0,0,0,0,40.08c0,.42,0,.86,0,1.28V57.63a15.4,15.4,0,1,0,30.8,0V41.36a4,4,0,0,1,0-.53A13,13,0,0,1,31,39.22a11.07,11.07,0,0,1,2.62-6,7.7,7.7,0,0,1,5-2.4c.33,0,.67-.05,1-.05a8.29,8.29,0,0,1,2.2.29,6.55,6.55,0,0,1,3.69,2.66A11.65,11.65,0,0,1,47.27,39a19.28,19.28,0,0,1,.14,2.32V179.61a15.41,15.41,0,1,0,30.81,0V41.36Q78.22,40.48,78.19,39.59Zm-4.66,140a10.71,10.71,0,0,1-21.42,0V41.36a22.12,22.12,0,0,0-.21-3c-.51-3.74-2-7.43-4.89-9.76a11.25,11.25,0,0,0-6.95-2.45,4.1,4.1,0,0,0-.5,0l-.81,0a12.34,12.34,0,0,0-7.16,2.59A13.76,13.76,0,0,0,27.2,35a18,18,0,0,0-1,4.12,16.73,16.73,0,0,0-.13,2.22V57.63a10.71,10.71,0,1,1-21.41,0V41.36c0-1.07,0-2.12.11-3.16A38.54,38.54,0,0,1,8.59,24a34.46,34.46,0,0,1,9.76-12.14A33.62,33.62,0,0,1,34.84,5a36.58,36.58,0,0,1,4.72-.3A33.21,33.21,0,0,1,49.67,6.23,32.54,32.54,0,0,1,65.12,16.7,36.42,36.42,0,0,1,72,29.87h0a41.84,41.84,0,0,1,1.57,11.48Z"/><g class="cls-5"><path class="cls-6" d="M70.81,76.54c-.75,0-1.24-4.77-1.9-12.39-.33-3.8-.72-8.33-1.22-13.34A124.09,124.09,0,0,0,65.32,34.9a40.4,40.4,0,0,0-6-14.14,28.13,28.13,0,0,0-9.17-8.24,24,24,0,0,0-8-2.69c-.5-.06-1-.12-1.36-.19s-.74-.07-1-.13c-.57-.09-.89-.23-.93-.41s.23-.4.78-.65a8.52,8.52,0,0,1,1-.39c.42-.1.92-.2,1.49-.31s1.2-.1,1.9-.15,1.46,0,2.28.12a22.72,22.72,0,0,1,5.41,1.37,28.68,28.68,0,0,1,11.5,8.7,40.34,40.34,0,0,1,7.25,15.88,92,92,0,0,1,2.08,16.78c.24,5.12.24,9.74.09,13.61C72.38,71.81,71.53,76.56,70.81,76.54Z"/></g><g class="cls-5"><path class="cls-6" d="M71.37,90.22c-1.43.28-3.06-1.87-3.21-4.85s1.22-5.28,2.68-5.16,2.5,2.3,2.64,4.88S72.83,90,71.37,90.22Z"/></g><path class="cls-7" d="M52.11,41.36V179.61a10.72,10.72,0,0,0,10.71,10.71c.31,0,.62,0,.93,0,12.59.11,10.51-17.12,9.75-25.19C53.78,153.39,58.37,53.47,57.8,40.54s-4.39-23-18.69-23S21.43,26.91,19.33,44.18c-1.76,14.38-1.42,21.91-12.6,19.71a10.7,10.7,0,0,0,19.38-6.26V41.36a16.73,16.73,0,0,1,.13-2.22,18,18,0,0,1,1-4.12,13.76,13.76,0,0,1,4.39-6.3,12.34,12.34,0,0,1,7.16-2.59l.81,0a4.1,4.1,0,0,1,.5,0A11.25,11.25,0,0,1,47,28.58c2.88,2.33,4.38,6,4.89,9.76A22.12,22.12,0,0,1,52.11,41.36Z"/><g class="cls-5"><path class="cls-6" d="M63.77,186.67c0,.17-.31.35-.89.39a4.8,4.8,0,0,1-2.46-.61,8.16,8.16,0,0,1-3-2.72,13.46,13.46,0,0,1-1.9-4.88,57.41,57.41,0,0,1-.7-5.76q-.28-3-.52-6.44c-.31-4.54-.57-9.53-.73-14.78-.66-21,.44-38,1.9-38s2.78,17,3.43,37.86c.17,5.23.27,10.21.31,14.74,0,2.27,0,4.43,0,6.45s-.07,3.89,0,5.44a12.59,12.59,0,0,0,.78,3.93,7.75,7.75,0,0,0,1.59,2.49C62.76,186,63.81,186.27,63.77,186.67Z"/></g><g class="cls-5"><path class="cls-6" d="M13.5,64.4c.05-.39.76-.57,1.67-1.14a8,8,0,0,0,2.92-3.11,14.06,14.06,0,0,0,1.21-6.48c0-1.44,0-3,0-4.52s0-3.27,0-5a55.56,55.56,0,0,1,.78-9.89,19.48,19.48,0,0,1,1.43-4.45,14.28,14.28,0,0,1,2.27-3.5,10,10,0,0,1,5-3.25c1.41-.31,2.21-.06,2.28.28.17.76-2.39,1.75-4.24,5.19A16.71,16.71,0,0,0,25,35.07c-.3,2.64-.22,5.79-.3,9.23,0,1.7-.09,3.35-.16,5s-.13,3.13-.29,4.71c-.3,3.13-1.2,6.26-3.05,8.38a7.88,7.88,0,0,1-5.48,2.92C14.15,65.31,13.45,64.72,13.5,64.4Z"/></g></g></g></g></svg>