<svg xmlns="http://www.w3.org/2000/svg" viewBox="0 0 191.88 211.42"><defs><style>.cls-1{isolation:isolate;}.cls-2{fill:#ef3781;}.cls-3{fill:#3f3b3c;}.cls-4{fill:#fff;}.cls-5,.cls-9{fill:#f26daa;}.cls-6{fill:#fcacd4;}.cls-7,.cls-8{fill:#ece0ea;}.cls-8{mix-blend-mode:multiply;}.cls-9{mix-blend-mode:screen;}.cls-10{fill:#bc2469;}</style></defs><g class="cls-1"><g id="Layer_2" data-name="Layer 2"><g id="OBJECTS"><path class="cls-2" d="M39.67,37A26.76,26.76,0,0,1,56.29,19.91C68.21,15.75,80,23.23,84.22,35.26c4.85,13.93-.6,34.32-24.68,58.77-34.06-4.19-51-16.77-55.85-30.71-4.2-12,.42-25.23,12.33-29.38A26.8,26.8,0,0,1,39.67,37Z"/><path class="cls-3" d="M60.34,96.31l-1.06-.13C17.07,91,5.05,73.81,1.65,64A27.43,27.43,0,0,1,1.8,44.88a22.24,22.24,0,0,1,13.51-13,28.77,28.77,0,0,1,23.23,1.86,28.83,28.83,0,0,1,17-15.89,22.23,22.23,0,0,1,18.65,1.77,27.43,27.43,0,0,1,12,14.91c3.41,9.77,4.66,30.69-25.18,61ZM16.74,36c-10.32,3.59-15,15-11,26.63,3,8.75,14,24.09,53,29.14C86.18,63.54,85.22,44.72,82.18,36,78.14,24.38,67.32,18.35,57,22A24.36,24.36,0,0,0,41.76,37.54l-.83,3.09-2.56-1.91A24.39,24.39,0,0,0,16.74,36Z"/><path class="cls-4" d="M96.5,206.64c1.72.49,3.29-.81,4-1.57l-39-111.85-4.08,1.42Z"/><path class="cls-3" d="M99.2,209.11a5.52,5.52,0,0,1-4.36-.22l-.51-.25L54,93l9.18-3.2,40.36,115.81-.43.58A8.88,8.88,0,0,1,99.2,209.11Zm-2.7-2.47c1.72.49,3.29-.81,4-1.57l-39-111.85-4.08,1.42Z"/><path class="cls-2" d="M86.11,58.44C82.15,67.81,75,78.32,63.76,89.7,29.7,85.51,12.76,72.92,7.9,59c-3.54-10.17-.8-21.16,7.33-26.83a35.72,35.72,0,0,0,1.94,9.68c7.32,21,32.57,31.31,56.4,23A50.91,50.91,0,0,0,86.11,58.44Z"/><path class="cls-5" d="M88.43,30.93c2.6,7.44,2.24,16.73-2.32,27.51a50.91,50.91,0,0,1-12.54,6.4c-23.83,8.31-49.08-2-56.4-23a35.72,35.72,0,0,1-1.94-9.68,20.36,20.36,0,0,1,5-2.55,26.77,26.77,0,0,1,23.64,3A26.79,26.79,0,0,1,60.51,15.58C72.43,11.42,84.24,18.89,88.43,30.93Z"/><path class="cls-3" d="M64.45,91.69l-.92-.11c-42.07-5.18-54-22.25-57.41-32a27.13,27.13,0,0,1,.15-19A22,22,0,0,1,19.62,27.82a28.57,28.57,0,0,1,23.27,2,28.51,28.51,0,0,1,17-16,22,22,0,0,1,18.43,1.75A27.24,27.24,0,0,1,90.22,30.31C93.61,40,94.84,60.82,65.11,91ZM20.86,31.39C10.4,35,5.6,46.64,9.69,58.37c3.07,8.82,14.09,24.28,53.37,29.34C90.7,59.33,89.72,40.37,86.65,31.55,82.56,19.82,71.59,13.72,61.13,17.36A24.93,24.93,0,0,0,45.71,33.14L45,35.86l-2.25-1.68A24.66,24.66,0,0,0,20.86,31.39Z"/><path class="cls-6" d="M78.32,28.44c-.57.13-1.28-1.57-3.56-2.88A13.37,13.37,0,0,0,70.44,24a18.87,18.87,0,0,0-5.75-.14,17,17,0,0,0-5.46,1.65,17.49,17.49,0,0,0-3.88,2.71c-2,1.87-3,3.5-3.52,3.31-.25-.09-.36-.63-.2-1.55a9.87,9.87,0,0,1,1.55-3.57,14.55,14.55,0,0,1,4.2-4.09,16.58,16.58,0,0,1,6.79-2.43,17.7,17.7,0,0,1,7.15.53,12.47,12.47,0,0,1,5.21,2.93,7,7,0,0,1,2.06,3.53C78.77,27.84,78.57,28.39,78.32,28.44Z"/><path class="cls-6" d="M82.84,41.18c-1.11-.08-1.87-1.93-2.17-4.09s0-4.15,1-4.52,2.59,1.37,2.94,4S83.93,41.27,82.84,41.18Z"/><path class="cls-6" d="M40.9,78.47c-.22.5-1.92.32-4.5-.47a45,45,0,0,1-9.58-4.36A39.47,39.47,0,0,1,22,70.21a26.57,26.57,0,0,1-3.4-3.43c-1.74-2.16-2.38-3.8-2-4.13s1.82.58,3.91,2.07,5,3.47,8.32,5.5,6.47,3.78,8.69,5.21S41.12,78,40.9,78.47Z"/><path class="cls-6" d="M54.84,82.33c-.08,1.09-2.46,1.81-5.26,1.21s-4.68-2.22-4.3-3.25,2.64-1.19,5.14-.66S54.92,81.22,54.84,82.33Z"/><path class="cls-7" d="M94.54,89.84v-.6A44.91,44.91,0,0,1,60.6,27.88a41.49,41.49,0,0,0,33.94,62Z"/><path class="cls-8" d="M94.54,89.84v-.6A44.91,44.91,0,0,1,60.6,27.88a41.49,41.49,0,0,0,33.94,62Z"/><path class="cls-7" d="M60.64,45A41.54,41.54,0,1,0,102.17,3.41,41.58,41.58,0,0,0,60.64,45Z"/><path class="cls-3" d="M147.12,45A44.92,44.92,0,0,0,75.75,8.61,44.94,44.94,0,0,0,94.54,93.26V209.1l.45.45a6.28,6.28,0,0,0,4.58,1.87,10,10,0,0,0,5.33-1.69l.67-.45V92.43a44.76,44.76,0,0,0,17.56-7.74A45,45,0,0,0,147.12,45ZM102.17,3.41A41.54,41.54,0,1,1,60.64,45,41.59,41.59,0,0,1,102.17,3.41ZM57.22,45A45,45,0,0,0,94.54,89.24v.6a41.49,41.49,0,0,1-33.94-62A44.72,44.72,0,0,0,57.22,45ZM97.6,207.76V90.41h4.91V207.58C101.42,208.13,99.27,208.94,97.6,207.76Z"/><path class="cls-4" d="M102.51,90.41H97.6V207.76c1.67,1.18,3.82.37,4.91-.18Z"/><path class="cls-2" d="M100.05,82.2c14.82,0,26.28-6.41,32.28-18,6.07-11.8,5-27.43-2.51-38A27.22,27.22,0,0,0,103,14.82,25.26,25.26,0,0,0,84.33,26.9a25.57,25.57,0,0,0-2.09,21.49c3,7.84,11.53,10.9,18.49,9.87C108,57.18,113,52.11,113.47,45.35a6.13,6.13,0,0,0-5.72-6.52c-7.35-.48-4.53,6.66-8.82,7.3-7.67,1.13-6.63-8.61-4-13,1.4-2.37,4.24-5.37,9.82-6.18,8-1.16,12.61,2.79,15.13,6.31,4.91,6.88,5.58,17.51,1.58,25.26-2.67,5.21-8.56,11.41-21.37,11.41-16.91,0-27.8-8.74-30.74-24.72-3.31-18,9.44-33.12,15-37.75A41.51,41.51,0,0,0,72.73,74.22C80.05,79.4,89.47,82.2,100.05,82.2Z"/><circle class="cls-9" cx="110.71" cy="31.37" r="25.63"/><path class="cls-10" d="M67,72.87a44.78,44.78,0,0,1-6.39-45,41.39,41.39,0,0,0,1.18,42.93A17,17,0,0,0,67,72.87Z"/><path class="cls-8" d="M108.1,69.62A39,39,0,0,1,71.54,16.93a41.52,41.52,0,1,0,72.12,29.71A39,39,0,0,1,108.1,69.62Z"/><path class="cls-6" d="M75.67,67.78c-.49.51-2.26-.19-4.44-2.2a22.66,22.66,0,0,1-3.33-3.95,27.51,27.51,0,0,1-4.38-11.84,22.45,22.45,0,0,1,0-5.17c.35-2.94,1.24-4.62,1.94-4.55s1.22,1.79,1.83,4.36c.29,1.29.66,2.8,1.1,4.44s1,3.41,1.67,5.24,1.43,3.53,2.14,5.08,1.44,2.91,2.06,4.08C75.43,65.62,76.2,67.23,75.67,67.78Z"/><path class="cls-6" d="M83.44,76.71c-.92,1.14-3.36.7-5.31-1.13s-2.53-4.25-1.45-5.24S80,70,81.79,71.69,84.38,75.57,83.44,76.71Z"/><path class="cls-10" d="M184.6,76.61A32.34,32.34,0,1,1,143.24,32.8c-.34.73-.65,1.46-.94,2.22a32.34,32.34,0,0,0,42.3,41.59Z"/><path class="cls-2" d="M185.55,74.39c-.29.76-.61,1.5-1,2.22A32.34,32.34,0,0,1,142.3,35c.29-.76.6-1.49.94-2.22a32.34,32.34,0,0,1,42.31,41.59Z"/><path class="cls-3" d="M143.27,94.25a33.71,33.71,0,1,1,43.56-19.36A33.75,33.75,0,0,1,143.27,94.25Zm23.22-60.37a31,31,0,1,0,17.78,40A31,31,0,0,0,166.49,33.88Z"/><path class="cls-2" d="M133.68,48.13,125,44.7l.62-1.61C125.3,43.81,128.53,45.7,133.68,48.13Z"/><path class="cls-2" d="M190.68,68.13l-4.37,11.36a5.07,5.07,0,0,1-3.85,3.18,1.13,1.13,0,0,1,.1-.13c-35.86-11-46.34-31.71-47.26-33.65C153.24,57.12,189.77,70.49,190.68,68.13Z"/><path class="cls-10" d="M182.56,82.54a1.13,1.13,0,0,0-.1.13,5,5,0,0,1-1.34.06C168,81.57,133.4,68.26,122.89,60.33a5.09,5.09,0,0,1-1.69-5.88L125,44.7l8.72,3.43,1.62.76C136.22,50.83,146.7,71.55,182.56,82.54Z"/><path class="cls-10" d="M135.3,48.89l-1.62-.76,1.56.61Z"/><path class="cls-3" d="M150.53,75.37c-11.71-4.5-23.08-9.87-28.47-13.94A6.51,6.51,0,0,1,119.92,54l4.18-10.85c.84-2.2,4.31,0,4.37.32,1.6,1.61,11.14,6.31,29.24,13.27s28.33,9.87,30.6,9.75c.26-.2,4.3.49,3.46,2.68L187.59,80A6.48,6.48,0,0,1,181,84.1C174.27,83.51,162.23,79.87,150.53,75.37ZM126.07,45.63l-3.58,9.31a3.73,3.73,0,0,0,1.23,4.3c10.28,7.76,44.69,21,57.52,22.12A3.71,3.71,0,0,0,185,79l3.58-9.31c-.45-.07-.93-.16-1.4-.25-1.87-.39-4.49-1.1-7.79-2.13-6.08-1.9-14.14-4.76-22.7-8.05S140.27,52.69,134.49,50c-3.14-1.45-5.57-2.68-7.21-3.65C126.86,46.14,126.45,45.89,126.07,45.63Z"/><path class="cls-4" d="M98,205.87c1,1.52,3.08,1.54,4.16,1.43L145.34,95l-4.1-1.58Z"/><path class="cls-3" d="M98.45,209.56a5.61,5.61,0,0,1-3.23-3L95,206,139.67,89.84l9.22,3.55L104.15,209.71l-.71.16A9,9,0,0,1,98.45,209.56ZM98,205.87c1,1.52,3.08,1.54,4.16,1.43L145.34,95l-4.1-1.58Z"/><path class="cls-6" d="M179.16,52.48c-.17.05-.46-.23-.81-.75-.18-.26-.35-.59-.59-.95s-.53-.76-.81-1.21a27.43,27.43,0,0,0-2.36-2.88,29.73,29.73,0,0,0-3.42-3A45.59,45.59,0,0,0,164,39.31c-2-1-3.2-1.47-3.18-1.84s1.57-.52,3.83.07a23.64,23.64,0,0,1,8.18,4,20.63,20.63,0,0,1,3.67,3.53,16.18,16.18,0,0,1,2.15,3.59c.22.56.39,1.07.53,1.52a8.52,8.52,0,0,1,.2,1.2C179.4,52.06,179.34,52.43,179.16,52.48Z"/><path class="cls-6" d="M181.63,60.08c-.74,0-1.38-.94-1.77-2.08s-.44-2.31.17-2.73,1.85.34,2.36,1.89S182.36,60.06,181.63,60.08Z"/><path class="cls-6" d="M175.87,68.61c-.21.7-5.62-.31-12-2.66s-11.1-5.1-10.8-5.76,5.48,1,11.72,3.26S176.08,67.9,175.87,68.61Z"/><path class="cls-6" d="M184.63,71.58c0,.73-1.58,1.23-3.35.7s-2.78-1.78-2.42-2.41,1.73-.57,3.18-.15S184.68,70.84,184.63,71.58Z"/><path class="cls-6" d="M147,89.42c-.07.17-.48.18-1.18,0-.35-.07-.77-.17-1.25-.3s-1-.36-1.59-.58a25.58,25.58,0,0,1-8.22-5.42,20.83,20.83,0,0,1-5.32-8.38c-.79-2.44-.66-4.06-.34-4.12s.93,1.34,2.08,3.39a30.55,30.55,0,0,0,5.45,7.21,44,44,0,0,0,7.23,5.64l1.35.91c.4.25.75.49,1,.7C146.81,88.93,147.09,89.25,147,89.42Z"/><path class="cls-6" d="M154.94,91c.16.71-1,1.57-2.63,1.39s-2.57-1.28-2.26-1.94,1.42-.83,2.56-.71S154.79,90.26,154.94,91Z"/></g></g></g></svg>