<?xml version="1.0" encoding="UTF-8"?>
<!DOCTYPE svg PUBLIC "-//W3C//DTD SVG 1.1//EN" "http://www.w3.org/Graphics/SVG/1.1/DTD/svg11.dtd">
<!-- Creator: CorelDRAW -->
<svg xmlns="http://www.w3.org/2000/svg" xml:space="preserve" width="71px" height="47px" version="1.1" style="shape-rendering:geometricPrecision; text-rendering:geometricPrecision; image-rendering:optimizeQuality; fill-rule:evenodd; clip-rule:evenodd"
viewBox="0 0 1.53 1.02"
 xmlns:xlink="http://www.w3.org/1999/xlink">
 <defs>
  <style type="text/css">
   <![CDATA[
    .fil10 {fill:none;fill-rule:nonzero}
    .fil22 {fill:#FFFFFC;fill-rule:nonzero}
    .fil1 {fill:#FDDFAF;fill-rule:nonzero}
    .fil15 {fill:#F9C25C;fill-rule:nonzero}
    .fil14 {fill:#FCDD73;fill-rule:nonzero}
    .fil27 {fill:#F6DEC8;fill-rule:nonzero}
    .fil5 {fill:#EBB063;fill-rule:nonzero}
    .fil3 {fill:#ECC497;fill-rule:nonzero}
    .fil17 {fill:#E4AA6C;fill-rule:nonzero}
    .fil19 {fill:#DC8F44;fill-rule:nonzero}
    .fil8 {fill:#D9A87E;fill-rule:nonzero}
    .fil26 {fill:#C48D60;fill-rule:nonzero}
    .fil23 {fill:#854227;fill-rule:nonzero}
    .fil24 {fill:#723825;fill-rule:nonzero}
    .fil25 {fill:#623525;fill-rule:nonzero}
    .fil21 {fill:url(#id0)}
    .fil0 {fill:url(#id1)}
    .fil6 {fill:url(#id2)}
    .fil7 {fill:url(#id3)}
    .fil2 {fill:url(#id4)}
    .fil16 {fill:url(#id5)}
    .fil18 {fill:url(#id6)}
    .fil9 {fill:url(#id7)}
    .fil4 {fill:url(#id8)}
    .fil11 {fill:url(#id9)}
    .fil13 {fill:url(#id10)}
    .fil12 {fill:url(#id11)}
    .fil20 {fill:url(#id12)}
   ]]>
  </style>
  <linearGradient id="id0" gradientUnits="userSpaceOnUse" x1="0" y1="0.58" x2="0.61" y2="0.58">
   <stop offset="0" style="stop-opacity:1; stop-color:#D97925"/>
   <stop offset="0.921569" style="stop-opacity:1; stop-color:#DD7F2A"/>
   <stop offset="1" style="stop-opacity:1; stop-color:#DD7F2A"/>
  </linearGradient>
  <linearGradient id="id1" gradientUnits="userSpaceOnUse" x1="0.88" y1="1.05" x2="0.84" y2="0.02">
   <stop offset="0" style="stop-opacity:1; stop-color:#FDD660"/>
   <stop offset="0.560784" style="stop-opacity:1; stop-color:#FDD660"/>
   <stop offset="0.960784" style="stop-opacity:1; stop-color:#F49F45"/>
   <stop offset="1" style="stop-opacity:1; stop-color:#F49F45"/>
  </linearGradient>
  <linearGradient id="id2" gradientUnits="userSpaceOnUse" x1="0.87" y1="1.05" x2="0.86" y2="0.02">
   <stop offset="0" style="stop-opacity:1; stop-color:#EB9E2A"/>
   <stop offset="0.560784" style="stop-opacity:1; stop-color:#EB9E2A"/>
   <stop offset="0.960784" style="stop-opacity:1; stop-color:#E88822"/>
   <stop offset="1" style="stop-opacity:1; stop-color:#E88822"/>
  </linearGradient>
  <linearGradient id="id3" gradientUnits="userSpaceOnUse" x1="1.2" y1="0.88" x2="0.71" y2="0.19">
   <stop offset="0" style="stop-opacity:1; stop-color:#BD602B"/>
   <stop offset="0.129412" style="stop-opacity:1; stop-color:#BD602B"/>
   <stop offset="0.741176" style="stop-opacity:1; stop-color:#EE9843"/>
   <stop offset="1" style="stop-opacity:1; stop-color:#EE9843"/>
  </linearGradient>
  <linearGradient id="id4" gradientUnits="userSpaceOnUse" x1="0.87" y1="1.05" x2="0.86" y2="0.02">
   <stop offset="0" style="stop-opacity:1; stop-color:#F9BF3D"/>
   <stop offset="0.560784" style="stop-opacity:1; stop-color:#F9BF3D"/>
   <stop offset="0.960784" style="stop-opacity:1; stop-color:#F39A31"/>
   <stop offset="1" style="stop-opacity:1; stop-color:#F39A31"/>
  </linearGradient>
  <linearGradient id="id5" gradientUnits="userSpaceOnUse" x1="0.03" y1="0.58" x2="0.61" y2="0.58">
   <stop offset="0" style="stop-opacity:1; stop-color:#DE822C"/>
   <stop offset="0.921569" style="stop-opacity:1; stop-color:#EE9843"/>
   <stop offset="1" style="stop-opacity:1; stop-color:#EE9843"/>
  </linearGradient>
  <linearGradient id="id6" gradientUnits="userSpaceOnUse" x1="0.89" y1="1.05" x2="0.84" y2="0.02">
   <stop offset="0" style="stop-opacity:1; stop-color:#E39832"/>
   <stop offset="0.560784" style="stop-opacity:1; stop-color:#E39832"/>
   <stop offset="0.960784" style="stop-opacity:1; stop-color:#E2832B"/>
   <stop offset="1" style="stop-opacity:1; stop-color:#E2832B"/>
  </linearGradient>
  <linearGradient id="id7" gradientUnits="userSpaceOnUse" x1="0.87" y1="1.05" x2="0.86" y2="0.01">
   <stop offset="0" style="stop-opacity:1; stop-color:#D69231"/>
   <stop offset="0.560784" style="stop-opacity:1; stop-color:#D69231"/>
   <stop offset="0.960784" style="stop-opacity:1; stop-color:#D67626"/>
   <stop offset="1" style="stop-opacity:1; stop-color:#D67626"/>
  </linearGradient>
  <linearGradient id="id8" gradientUnits="userSpaceOnUse" x1="0.87" y1="1.05" x2="0.86" y2="0.02">
   <stop offset="0" style="stop-opacity:1; stop-color:#EBAB3D"/>
   <stop offset="0.560784" style="stop-opacity:1; stop-color:#EBAB3D"/>
   <stop offset="0.960784" style="stop-opacity:1; stop-color:#E88B30"/>
   <stop offset="1" style="stop-opacity:1; stop-color:#E88B30"/>
  </linearGradient>
  <linearGradient id="id9" gradientUnits="userSpaceOnUse" xlink:href="#id7" x1="0.95" y1="0.57" x2="0.95" y2="0.16">
  </linearGradient>
  <linearGradient id="id10" gradientUnits="userSpaceOnUse" x1="1.24" y1="0.86" x2="0.67" y2="0.21">
   <stop offset="0" style="stop-opacity:1; stop-color:#B95C2B"/>
   <stop offset="0.129412" style="stop-opacity:1; stop-color:#B95C2B"/>
   <stop offset="0.741176" style="stop-opacity:1; stop-color:#D17427"/>
   <stop offset="1" style="stop-opacity:1; stop-color:#D17427"/>
  </linearGradient>
  <linearGradient id="id11" gradientUnits="userSpaceOnUse" x1="0.87" y1="1.05" x2="0.86" y2="0.02">
   <stop offset="0" style="stop-opacity:1; stop-color:#D78524"/>
   <stop offset="0.560784" style="stop-opacity:1; stop-color:#D78524"/>
   <stop offset="0.960784" style="stop-opacity:1; stop-color:#D67626"/>
   <stop offset="1" style="stop-opacity:1; stop-color:#D67626"/>
  </linearGradient>
  <linearGradient id="id12" gradientUnits="userSpaceOnUse" x1="0.9" y1="1.05" x2="0.83" y2="0.02">
   <stop offset="0" style="stop-opacity:1; stop-color:#DC852A"/>
   <stop offset="0.560784" style="stop-opacity:1; stop-color:#DC852A"/>
   <stop offset="0.960784" style="stop-opacity:1; stop-color:#DB7B25"/>
   <stop offset="1" style="stop-opacity:1; stop-color:#DB7B25"/>
  </linearGradient>
 </defs>
 <g id="Layer_x0020_1">
  <metadata id="CorelCorpID_0Corel-Layer"/>
  <path class="fil0" d="M0.76 0.95c0,0 0,0 0,0 0.15,-0.06 0.31,-0.13 0.45,-0.2 0,0 0.01,0 0.01,0 -0.14,0.06 -0.31,0.14 -0.46,0.2zm-0.14 -0.24c0,0 -0.01,-0.01 -0.02,-0.02 0,-0.05 0,-0.11 0.01,-0.16 0,0.04 0.01,0.11 0.01,0.18zm0.91 -0.15c0,0 0,0 0,0 0,0 0,0 0,0zm0 0c0,0 0,0 0,0 0,-0.09 -0.08,-0.31 -0.13,-0.4 0.05,0.09 0.14,0.32 0.13,0.4zm-0.93 -0.08c-0.01,-0.03 -0.02,-0.06 -0.04,-0.08 -0.08,-0.05 -0.17,-0.09 -0.25,-0.15 0,0 0,0 0,0 -0.04,-0.02 -0.07,-0.04 -0.1,-0.07 0.08,-0.01 0.18,-0.03 0.28,-0.05 0.04,0.01 0.08,0.01 0.12,0.02 0.11,0.03 0.22,0.05 0.32,0.08 0.03,0.01 0.06,0.02 0.08,0.03 0,0 0,0 0,0 0,0 0,0 0,0 -0.12,0.03 -0.23,0.07 -0.35,0.1 -0.04,0.05 -0.06,0.07 -0.06,0.12zm0.5 -0.25c0.02,-0.01 0.04,-0.01 0.06,-0.02 -0.02,0.01 -0.04,0.01 -0.06,0.02zm0.29 -0.09c0,0 -0.01,-0.01 -0.01,-0.01 0,0 0.01,0.01 0.01,0.01 0,0 0,0 0,0zm-1.21 0c0,0 0,0 0,0 0.3,-0.06 0.68,-0.12 0.82,-0.14 0,0 0.01,0 0.01,0 0.07,0 0.33,0.09 0.37,0.13 -0.04,-0.04 -0.3,-0.13 -0.37,-0.13 0,0 -0.01,0 -0.01,0 -0.1,0.01 -0.33,0.05 -0.56,0.09 -0.03,0 -0.05,0.01 -0.08,0.01l0 0c-0.06,0.01 -0.12,0.03 -0.18,0.04 0,0 0,0 0,0z"/>
  <path class="fil1" d="M1.38 0.13c0,0 0,0 0,0 0,0 0,0 0,0 0,0 0,0 0,0z"/>
  <path class="fil2" d="M1.01 0.26c-0.02,-0.01 -0.05,-0.02 -0.08,-0.03 -0.1,-0.03 -0.21,-0.05 -0.32,-0.08 -0.04,-0.01 -0.08,-0.01 -0.12,-0.02 0.24,-0.05 0.46,-0.1 0.51,-0.1 0,0 0.01,0 0.01,0 0.18,0.01 0.35,0.11 0.37,0.11 0,0 0,0 0,0 0,-0.01 0,-0.01 0,-0.01 0,0 0,0 0,0 0,0 0.01,0.01 0.01,0.01 -0.08,0.03 -0.15,0.05 -0.23,0.07 -0.02,0.01 -0.04,0.01 -0.06,0.02 -0.03,0.01 -0.06,0.02 -0.09,0.03zm-0.65 -0.16l0 0c0.03,0 0.05,-0.01 0.08,-0.01 -0.03,0 -0.05,0.01 -0.08,0.01l0 0z"/>
  <path class="fil3" d="M0.18 0.16c0,0 0,0 0,0 0,-0.01 0,-0.02 0,-0.02 0,0 0,0.01 0,0.02zm1.2 -0.03c0,0 0,0 0,0 0,0 0,0 0,0z"/>
  <path class="fil4" d="M0.21 0.18c-0.01,-0.01 -0.02,-0.01 -0.03,-0.02 0,-0.01 0,-0.02 0,-0.02 0,0 0,0 0,0 0.06,-0.01 0.12,-0.03 0.18,-0.04 0.03,0.01 0.06,0.01 0.08,0.02 0.02,0 0.03,0 0.05,0.01 -0.1,0.02 -0.2,0.04 -0.28,0.05zm0.23 -0.09c0.23,-0.04 0.46,-0.08 0.56,-0.09 -0.1,0.01 -0.33,0.05 -0.56,0.09l0 0z"/>
  <path class="fil5" d="M1.38 0.13c0,0 0,0 0,0 0,0 0,0 0,0 0,0 0,0 0,0z"/>
  <path class="fil6" d="M1.01 0l0 0 0 0 0 0 0 0 0 0 0 0c-0.01,0 -0.01,0 -0.01,0 -0.1,0.01 -0.33,0.05 -0.56,0.09 -0.03,0 -0.05,0.01 -0.08,0.01 0.03,0.01 0.06,0.01 0.08,0.02 0.02,0 0.03,0 0.05,0.01 0.24,-0.05 0.46,-0.1 0.51,-0.1 0,0 0.01,0 0.01,0 0.18,0.01 0.35,0.11 0.37,0.11l0 0c0,0 0,0 0,0 0,-0.01 0,-0.01 0,-0.01 0,0 0,0 0,0 -0.04,-0.04 -0.3,-0.13 -0.37,-0.13z"/>
  <path class="fil7" d="M0.61 1.02c0,-0.01 0,-0.01 0,-0.02 0,0 0,0 0,0 0,0 0,0 0,0 0.02,-0.08 0.02,-0.19 0.01,-0.29 0,-0.07 -0.01,-0.14 -0.01,-0.18 0,-0.01 0,-0.03 0,-0.04 0,0 0,0 -0.01,-0.01 0,-0.05 0.02,-0.07 0.06,-0.12 0.12,-0.03 0.23,-0.07 0.35,-0.1 0.03,0 0.11,-0.03 0.2,-0.03 0.08,0 0.18,0.03 0.21,0.14 0.06,0.21 -0.66,0.6 -0.78,0.6 -0.01,0.01 0,0.03 0,0.03 -0.02,0.01 -0.03,0.02 -0.03,0.02zm0.06 -0.03l0.08 -0.04c0.15,-0.06 0.32,-0.13 0.46,-0.2 -0.14,0.07 -0.3,0.14 -0.45,0.2 0,0 0,0 0,0 -0.01,0 -0.05,0.02 -0.09,0.04zm0.85 -0.4c0,0 0,0 0,0 0,0 0,0 0,0zm0 0c0,0 0,0 0,0 0,0 0,0 0,0zm0 0c0,-0.01 0.01,-0.01 0.01,-0.01 0,0 -0.01,0 -0.01,0.01l0 0z"/>
  <path class="fil8" d="M0.64 1c0,0 0,0 0,0 0.01,0 0.02,-0.01 0.03,-0.01l-0.03 0.01zm0.58 -0.25c0,0 0.01,0 0.01,-0.01 0.15,-0.06 0.26,-0.12 0.29,-0.15 -0.03,0.03 -0.15,0.09 -0.3,0.16z"/>
  <path class="fil9" d="M1.21 0.75c0.01,0 0.01,0 0.02,-0.01 0,0.01 -0.01,0.01 -0.01,0.01 0,0 -0.01,0 -0.01,0z"/>
  <path class="fil8" d="M1.52 0.59c0,0 0,0 0,0 0,0 0,0 0,0zm0 0c0,0 0,0 0,0 0,0 0,0 0,0z"/>
  <line class="fil10" x1="1.39" y1="0.14" x2="1.39" y2= "0.14" />
  <path class="fil11" d="M1.01 0.26c0,0 0,0 0,0 0,0 0,0 0,0 0,0 0,0 0,0 0,0 0,0 0,0zm0.09 -0.03c0,0 0,0 0,0 0.02,-0.01 0.04,-0.01 0.06,-0.02 0,0 0,0 0,0 -0.02,0.01 -0.04,0.01 -0.06,0.02z"/>
  <path class="fil12" d="M1.01 0.26c0,0 0,0 0,0 0.03,-0.01 0.06,-0.02 0.09,-0.03 0,0 0,0 0,0 -0.03,0.01 -0.06,0.02 -0.09,0.03zm0.15 -0.05c0.08,-0.02 0.15,-0.04 0.23,-0.07 -0.08,0.03 -0.15,0.05 -0.23,0.07 0,0 0,0 0,0l0 0z"/>
  <path class="fil13" d="M1.39 0.14l0 0 0 0c-0.08,0.03 -0.15,0.05 -0.23,0.07 -0.02,0.01 -0.04,0.01 -0.06,0.02 -0.03,0.01 -0.06,0.02 -0.09,0.03 0,0 0,0 0,0 0.03,0 0.11,-0.03 0.2,-0.03 0.08,0 0.18,0.03 0.21,0.14 0.06,0.21 -0.66,0.6 -0.78,0.6 -0.01,0.01 0,0.03 0,0.03l0 0c0.01,0 0.02,-0.01 0.03,-0.01l0.08 -0.04c0.15,-0.06 0.32,-0.13 0.46,-0.2 0.01,0 0.01,0 0.02,-0.01 0.15,-0.06 0.26,-0.12 0.29,-0.15 0,0 0,0 0,0 0,0 0,0 0,0 0,0 0,0 0,0 0,0 0,0 0,0 0,-0.01 0.01,-0.01 0.01,-0.01 0,-0.01 0,-0.02 0,-0.02 0,-0.1 -0.09,-0.34 -0.14,-0.42z"/>
  <path class="fil14" d="M1.38 0.13c-0.01,-0.01 -0.43,0.13 -0.72,0.22 0,0.01 0.01,0.03 0.02,0.04 0.14,-0.05 0.28,-0.1 0.41,-0.14 0.1,-0.03 0.21,-0.07 0.31,-0.1 -0.01,-0.01 -0.02,-0.02 -0.02,-0.02z"/>
  <path class="fil15" d="M1.38 0.13c-0.1,0.04 -0.21,0.07 -0.31,0.1 -0.11,0.04 -0.22,0.09 -0.34,0.12 -0.02,0.01 -0.04,0.02 -0.06,0.02 0.01,0.01 0.01,0.01 0.01,0.02 0.14,-0.05 0.28,-0.1 0.41,-0.14 0.1,-0.03 0.21,-0.07 0.31,-0.1 -0.01,-0.01 -0.01,-0.01 -0.02,-0.02z"/>
  <path class="fil16" d="M0.58 1.02c0,0 0.01,0 0.01,0 -0.06,-0.02 -0.11,-0.06 -0.16,-0.09 -0.06,-0.04 -0.14,-0.1 -0.21,-0.16 -0.1,-0.08 -0.17,-0.17 -0.13,-0.31 0.03,-0.1 0.09,-0.19 0.21,-0.2 0,0 0,0 0.01,-0.01 0.08,0.06 0.17,0.1 0.25,0.15 0.02,0.02 0.03,0.05 0.04,0.08 0.01,0.01 0.01,0.01 0.01,0.01 0,0.01 0,0.03 0,0.04 -0.01,0.05 -0.01,0.11 -0.01,0.16 0,0.1 0,0.21 0.01,0.31 0,0 0,0 0,0 0,0 0,0 0,0 -0.01,0.01 -0.01,0.01 -0.02,0.02 0,0 -0.01,0 -0.01,0l0 0z"/>
  <path class="fil17" d="M0.58 1.02c-0.15,0 -0.54,-0.27 -0.58,-0.39 0,-0.01 0,-0.02 0,-0.03 0,0.01 0,0.02 0,0.03 0.04,0.12 0.43,0.39 0.58,0.39 0,0 0,0 0,0 0,0 0,0 0,0zm-0.4 -0.86c0,-0.01 -0.01,-0.01 -0.01,-0.01 0,0 0.01,0 0.01,0.01z"/>
  <path class="fil18" d="M0.21 0.18l0 0c0.03,0.03 0.06,0.05 0.1,0.07 0,0 0,0 0,0 -0.04,-0.02 -0.07,-0.04 -0.1,-0.07z"/>
  <path class="fil19" d="M0.18 0.16c0,0 0,0 0,0 0,0 0,0 0,0z"/>
  <path class="fil20" d="M0.21 0.18c-0.01,-0.01 -0.02,-0.01 -0.03,-0.02 0.01,0.01 0.02,0.01 0.03,0.02l0 0 0 0z"/>
  <path class="fil21" d="M0.58 1.02l0 0 0 0 0 0 0 0 0 0c0,0 0.01,0 0.01,0 -0.06,-0.02 -0.11,-0.06 -0.16,-0.09 -0.06,-0.04 -0.14,-0.1 -0.21,-0.16 -0.1,-0.08 -0.17,-0.17 -0.13,-0.31 0.03,-0.1 0.09,-0.19 0.21,-0.2 0,0 0,0 0.01,-0.01 -0.04,-0.02 -0.07,-0.04 -0.1,-0.07 -0.01,-0.01 -0.02,-0.01 -0.03,-0.02 0,0 0,0 0,0 0,-0.01 -0.01,-0.01 -0.01,-0.01l0 0c-0.01,0 -0.01,0 -0.01,0l0 0c-0.04,0.04 -0.16,0.32 -0.16,0.45 0,0.01 0,0.02 0,0.03 0.04,0.12 0.43,0.39 0.58,0.39z"/>
  <path class="fil14" d="M0.75 0.32c-0.14,0.05 -0.13,0.07 -0.28,0.01 -0.1,-0.05 -0.2,-0.12 -0.29,-0.19 -0.01,0 -0.02,0.01 -0.02,0.01l0 0c-0.01,0.01 -0.02,0.02 -0.03,0.04 0.15,0.14 0.39,0.18 0.44,0.4 0.03,0.14 0.02,0.29 0.01,0.43l0 0c0.02,0 0.04,0 0.07,-0.02 -0.02,-0.13 -0.01,-0.27 0.01,-0.41 0.01,-0.11 0.05,-0.2 0.15,-0.25 0.02,-0.01 -0.05,-0.02 -0.06,-0.02z"/>
  <path class="fil15" d="M0.81 0.33c-0.14,0.05 -0.16,0.15 -0.17,0.24 -0.02,0.1 -0.03,0.38 -0.04,0.45 0.01,0 0.03,-0.01 0.05,-0.02 -0.02,-0.14 -0.01,-0.29 0.01,-0.41 0,-0.08 0.01,-0.13 0.08,-0.2 0.02,-0.02 0.07,-0.05 0.1,-0.06 -0.01,0 -0.03,0 -0.03,0z"/>
  <path class="fil22" d="M0.6 0.39c-0.12,0 -0.16,-0.06 -0.18,-0.05 -0.03,0.03 0.06,0.03 0.11,0.08 0.05,0.05 0.03,0.08 0.07,0.08 0.03,0 0.02,-0.04 0.06,-0.08 0.02,-0.02 0.05,-0.03 0.04,-0.05 -0.01,-0.01 -0.06,0.02 -0.1,0.02z"/>
  <path class="fil22" d="M0.36 0.29l0.01 0c-0.04,0 -0.08,-0.05 -0.12,-0.07 -0.01,-0.01 -0.03,-0.03 -0.05,-0.04 -0.02,-0.01 -0.04,-0.01 -0.02,0.02 0.02,0.03 0.08,0.05 0.11,0.07 0.02,0.01 0.03,0.02 0.05,0.03 0.02,0.01 0.05,0.01 0.02,-0.01z"/>
  <path class="fil23" d="M0.25 0.34c-0.2,0.03 -0.22,0.29 -0.1,0.4 0.07,0.07 0.19,0.14 0.29,0.1 0.21,-0.09 0,-0.5 -0.19,-0.5 -0.04,0 0,0 0,0z"/>
  <path class="fil24" d="M0.44 0.64c-0.02,0.07 -0.08,0.13 -0.16,0.12 -0.03,-0.01 -0.08,-0.02 -0.1,-0.05 -0.01,-0.01 -0.02,-0.02 -0.02,-0.03 -0.01,-0.01 -0.01,-0.01 -0.02,-0.02 -0.02,-0.03 -0.03,-0.08 -0.03,-0.12 0.01,-0.02 0.01,-0.05 0.02,-0.07 0.01,-0.03 0.03,-0.05 0.05,-0.06 0.01,-0.01 0.01,-0.01 0.02,-0.01 0.02,-0.01 0.04,-0.02 0.05,-0.01 0.03,0 0.05,0 0.07,0.01l0.01 0 0 0.01c0.01,0 0.01,0 0.01,0l0.01 0c0.01,0.01 0.02,0.03 0.04,0.04 0.04,0.05 0.07,0.12 0.05,0.19zm-0.19 -0.3c-0.2,0.03 -0.22,0.29 -0.1,0.4 0.07,0.07 0.19,0.14 0.29,0.1 0.21,-0.09 0,-0.5 -0.19,-0.5z"/>
  <path class="fil25" d="M0.48 0.52c0.03,0.11 0.03,0.21 -0.09,0.25 -0.14,0.05 -0.27,-0.05 -0.31,-0.17 0.01,0.05 0.03,0.1 0.07,0.14 0.07,0.07 0.19,0.14 0.29,0.1 0.11,-0.05 0.1,-0.2 0.04,-0.32z"/>
  <path class="fil26" d="M0.19 0.44c-0.04,0.03 -0.08,0.08 -0.05,0.11 0.02,0.02 0.04,-0.02 0.05,-0.03 0.02,-0.02 0.04,-0.05 0.07,-0.04 0.05,0.01 0.11,0 0.05,-0.05 -0.04,-0.02 -0.09,-0.02 -0.12,0.01z"/>
  <path class="fil27" d="M0.18 0.43c-0.01,0.02 -0.01,0.05 0.04,0.02 0.04,-0.02 -0.01,-0.05 -0.04,-0.02z"/>
 </g>
</svg>
