<?xml version="1.0" encoding="UTF-8"?>
<!DOCTYPE svg PUBLIC "-//W3C//DTD SVG 1.1//EN" "http://www.w3.org/Graphics/SVG/1.1/DTD/svg11.dtd">
<!-- Creator: CorelDRAW -->
<svg xmlns="http://www.w3.org/2000/svg" xml:space="preserve" width="680px" height="433px" version="1.1" style="shape-rendering:geometricPrecision; text-rendering:geometricPrecision; image-rendering:optimizeQuality; fill-rule:evenodd; clip-rule:evenodd"
viewBox="0 0 17.33 11.04"
 xmlns:xlink="http://www.w3.org/1999/xlink">
 <defs>
  <style type="text/css">
   <![CDATA[
    .fil13 {fill:#733F21}
    .fil5 {fill:#805D4B}
    .fil0 {fill:#AD5F32}
    .fil14 {fill:#FFA16B}
    .fil2 {fill:#91B3FA;fill-rule:nonzero}
    .fil4 {fill:#AD5F32;fill-rule:nonzero}
    .fil3 {fill:#FFA16B;fill-rule:nonzero}
    .fil1 {fill:white;fill-rule:nonzero}
    .fil7 {fill:url(#id0)}
    .fil8 {fill:url(#id1)}
    .fil6 {fill:url(#id2)}
    .fil9 {fill:url(#id3)}
    .fil15 {fill:url(#id4)}
    .fil16 {fill:url(#id5)}
    .fil11 {fill:url(#id6)}
    .fil10 {fill:url(#id7)}
    .fil12 {fill:url(#id8)}
    .fil17 {fill:url(#id9)}
   ]]>
  </style>
  <linearGradient id="id0" gradientUnits="userSpaceOnUse" x1="9.19" y1="5.08" x2="10.05" y2="15.82">
   <stop offset="0" style="stop-opacity:1; stop-color:#523130"/>
   <stop offset="1" style="stop-opacity:1; stop-color:white"/>
  </linearGradient>
  <linearGradient id="id1" gradientUnits="userSpaceOnUse" xlink:href="#id0" x1="11.69" y1="4.88" x2="12.55" y2="15.62">
  </linearGradient>
  <linearGradient id="id2" gradientUnits="userSpaceOnUse" x1="10.19" y1="3.28" x2="7.56" y2="10.48">
   <stop offset="0" style="stop-opacity:1; stop-color:white"/>
   <stop offset="1" style="stop-opacity:1; stop-color:white"/>
  </linearGradient>
  <linearGradient id="id3" gradientUnits="userSpaceOnUse" xlink:href="#id0" x1="6.54" y1="5.3" x2="7.4" y2="16.04">
  </linearGradient>
  <linearGradient id="id4" gradientUnits="userSpaceOnUse" x1="9.35" y1="-11.17" x2="8.36" y2="-8.76">
   <stop offset="0" style="stop-opacity:1; stop-color:#09005D"/>
   <stop offset="1" style="stop-opacity:1; stop-color:white"/>
  </linearGradient>
  <linearGradient id="id5" gradientUnits="userSpaceOnUse" xlink:href="#id4" x1="10.65" y1="-10.65" x2="9.68" y2="-8.25">
  </linearGradient>
  <linearGradient id="id6" gradientUnits="userSpaceOnUse" x1="10.55" y1="5.66" x2="6.31" y2="12.81">
   <stop offset="0" style="stop-opacity:1; stop-color:#8C4724"/>
   <stop offset="1" style="stop-opacity:1; stop-color:#783917"/>
  </linearGradient>
  <linearGradient id="id7" gradientUnits="userSpaceOnUse" xlink:href="#id6" x1="8.06" y1="5.66" x2="3.82" y2="12.81">
  </linearGradient>
  <linearGradient id="id8" gradientUnits="userSpaceOnUse" xlink:href="#id6" x1="12.92" y1="5.66" x2="8.68" y2="12.81">
  </linearGradient>
  <linearGradient id="id9" gradientUnits="userSpaceOnUse" xlink:href="#id4" x1="11.84" y1="-10.23" x2="10.86" y2="-7.84">
  </linearGradient>
 </defs>
 <g id="Layer_x0020_1">
  <metadata id="CorelCorpID_0Corel-Layer"/>
  <path class="fil0" d="M4.09 10.8c-0.45,-0.07 -0.89,-0.17 -1.32,-0.31 -0.56,-0.19 -1.19,-0.56 -1.2,-1.15 -0.01,-0.27 0.11,-0.5 0.26,-0.73 0.04,0.16 0.08,0.33 0.13,0.51 0.29,1.05 1.28,1.49 2.13,1.68zm9.97 -0.77c-0.06,0 -0.12,0 -0.18,0 -0.09,-0.01 -0.18,-0.01 -0.28,-0.03 0.4,-1.63 0.71,-3.56 0.89,-4.85 0.29,0.29 0.7,0.48 1.14,0.48 0.02,0 0.03,0 0.05,0 0.12,0.32 0.44,0.55 0.81,0.55 0.24,0 0.47,-0.1 0.63,-0.27 0.35,0.85 0.26,1.9 -0.26,2.68 -0.6,0.91 -1.7,1.44 -2.8,1.44zm-9.6 -0.27c-0.72,-0.55 -0.49,-1.76 -0.59,-3.21 -0.11,-1.47 -1.14,-2.76 -2.28,-2.76 -0.12,0 -0.24,0.02 -0.36,0.05 -0.35,0.09 -0.63,0.25 -0.84,0.45 -0.2,-0.41 -0.29,-0.87 -0.28,-1.32 0.02,-0.57 0.49,-1.02 1.05,-1.02 0.05,0 0.09,0 0.14,0.01 0.28,0.03 0.56,0.13 0.81,0.24 0.65,0.31 1.23,0.77 1.94,0.89 0.12,0.02 0.24,0.03 0.37,0.03 0.58,0 1.16,-0.22 1.66,-0.51 0.62,-0.36 1.16,-0.83 1.75,-1.23 1.21,-0.8 2.62,-1.28 4.07,-1.37 0.14,-0.01 0.28,-0.01 0.42,-0.01 0.56,0 1.12,0.07 1.64,0.29 0.64,0.27 1.2,0.78 1.42,1.44 0.07,0.23 0.11,0.48 0.12,0.72 -0.69,0.06 -1.26,0.55 -1.41,1.21 -0.03,0 -0.05,-0.01 -0.07,-0.01 -0.1,0 -0.2,0 -0.31,0 -0.16,-0.41 -0.55,-0.7 -1.02,-0.7 -0.01,0 -0.02,0 -0.02,0 -0.01,-0.16 -0.02,-0.31 -0.03,-0.46 0.23,0.27 0.58,0.44 0.97,0.44 0.71,0 1.29,-0.58 1.29,-1.29 0,-0.71 -0.58,-1.29 -1.29,-1.29 -0.6,0 -1.09,0.39 -1.25,0.94 -0.13,-0.41 -0.29,-0.75 -0.42,-1.01 -0.06,-0.12 -0.21,-0.19 -0.36,-0.19 -0.1,0 -0.2,0.03 -0.26,0.1 -0.98,1 -1.68,2.32 -2.17,3.53 -2.02,0.07 -3.91,0.18 -4.85,0.23 -0.34,0.02 -0.6,0.32 -0.56,0.66 0.14,1.52 0.49,3.75 0.72,5.15l0 0z"/>
  <path class="fil1" d="M5.46 10.92c0,0 -2.95,0.16 -3.5,-1.8 -0.54,-1.96 -0.51,-2.81 -1.44,-3.24 -0.93,-0.42 -0.57,-1.72 0.71,-2.04 1.27,-0.32 2.52,1.09 2.64,2.71 0.12,1.63 -0.19,2.94 0.89,3.38 1.08,0.44 -0.12,-0.41 -0.39,-1.27 -0.26,-0.87 -0.52,-2.16 0.36,-2.82 0.88,-0.66 0.99,0.67 1.14,2.02 0.15,1.36 0.62,2.19 0.62,2.19l-1.03 0.87z"/>
  <path class="fil1" d="M8.15 7.2c0,0 0.71,-4.49 3.17,-7.01 0.16,-0.17 0.52,-0.11 0.62,0.09 0.71,1.4 2.29,5.66 -3.79,6.92z"/>
  <path class="fil2" d="M8.68 6.89c-0.02,0.01 0.01,0.03 0.02,0.02 0.53,-0.35 2.53,-2.07 2.88,-5.36 0,-0.01 -0.02,-0.02 -0.02,0 -0.17,0.76 -0.91,3.59 -2.88,5.34z"/>
  <path class="fil3" d="M16.84 4c0,0.71 -0.58,1.29 -1.29,1.29 -0.71,0 -1.29,-0.58 -1.29,-1.29 0,-0.71 0.58,-1.28 1.29,-1.28 0.71,0 1.29,0.57 1.29,1.28z"/>
  <path class="fil4" d="M4.3 3.95c1.74,-0.1 6.72,-0.36 9.72,-0.3 0.36,0.01 0.63,0.33 0.59,0.69 -0.17,1.28 -0.59,4.14 -1.16,6.26 -0.07,0.26 -0.31,0.44 -0.58,0.44l-7.69 0c-0.29,0 -0.54,-0.21 -0.59,-0.5 -0.2,-1.17 -0.67,-4.08 -0.85,-5.93 -0.04,-0.34 0.22,-0.64 0.56,-0.66z"/>
  <path class="fil5" d="M12.81 10.95l-7.5 0c-0.29,0 -0.53,-0.21 -0.58,-0.49 -0.19,-1.14 -0.66,-3.99 -0.83,-5.79 -0.04,-0.33 0.21,-0.63 0.55,-0.65 1.3,-0.07 4.47,-0.24 7.19,-0.28 -0.01,0.04 -0.02,0.07 -0.02,0.11 -0.85,0.02 -1.55,0.03 -1.56,0.03 0,0 -0.01,0.01 -0.01,0.01 0,0.01 0.01,0.01 0.01,0.01 0,0 0,0 0,0 0.01,0 0.71,-0.02 1.55,-0.03 0,0.05 -0.01,0.11 -0.01,0.17 0,0.13 0.02,0.25 0.06,0.36l-7.01 0.19c-0.23,0.01 -0.41,0.21 -0.36,0.43 0.2,1.13 0.69,4.2 0.85,5.18 0.03,0.18 0.19,0.32 0.37,0.32l7.06 0c0.19,0 0.35,-0.13 0.38,-0.31l0.88 -5.43c0.02,-0.13 -0.03,-0.25 -0.12,-0.33 0.05,-0.13 0.07,-0.27 0.07,-0.41 0,-0.06 0,-0.13 -0.01,-0.19 0.01,0 0.02,0 0.03,0 0.17,0 0.32,0.07 0.43,0.2 0.11,0.12 0.15,0.29 0.13,0.45 -0.08,0.53 -0.19,1.27 -0.29,1.85 0,0.01 0.01,0.01 0.01,0.01l0 0c0.01,0 0.01,0 0.01,-0.01 0.1,-0.58 0.21,-1.32 0.29,-1.85 0.02,-0.16 -0.03,-0.33 -0.14,-0.46 -0.11,-0.13 -0.27,-0.2 -0.44,-0.2 -0.01,0 -0.02,0 -0.03,0 -0.01,-0.04 -0.02,-0.07 -0.03,-0.11 0.07,0 0.13,0 0.19,0.01 0.36,0 0.62,0.32 0.58,0.66 -0.17,1.25 -0.58,4.05 -1.13,6.11 -0.07,0.26 -0.3,0.44 -0.57,0.44zm1.22 -4.32c0,0 -0.01,0 -0.01,0 -0.02,0.15 -0.05,0.27 -0.07,0.36 0,0 0.01,0 0.01,0.01l0 0c0.01,0 0.01,-0.01 0.01,-0.01 0.02,-0.09 0.04,-0.21 0.07,-0.35 0,-0.01 0,-0.01 -0.01,-0.01 0,0 0,0 0,0l0 0z"/>
  <path class="fil6" d="M5.51 10.52l7.06 0c0.19,0 0.35,-0.13 0.38,-0.31l0.88 -5.43c0.02,-0.13 -0.03,-0.25 -0.12,-0.33 -0.04,0.08 -0.08,0.16 -0.13,0.23 0.07,0.07 0.11,0.18 0.09,0.29l-0.85 5.12c-0.03,0.17 -0.18,0.3 -0.36,0.3l-6.79 0c-0.18,0 -0.34,-0.13 -0.36,-0.3 -0.15,-0.93 -0.63,-3.83 -0.82,-4.89 -0.04,-0.21 0.12,-0.4 0.35,-0.41l6.92 -0.18c-0.04,-0.07 -0.07,-0.14 -0.1,-0.21l-7.01 0.19c-0.23,0.01 -0.41,0.21 -0.36,0.43 0.2,1.13 0.69,4.2 0.85,5.18 0.03,0.18 0.19,0.32 0.37,0.32z"/>
  <path class="fil4" d="M4.49 5.2c0.19,1.06 0.67,3.96 0.82,4.89 0.02,0.17 0.18,0.3 0.36,0.3l6.79 0c0.18,0 0.33,-0.13 0.36,-0.3l0.85 -5.12c0.04,-0.22 -0.14,-0.41 -0.37,-0.4l-8.46 0.22c-0.23,0.01 -0.39,0.2 -0.35,0.41z"/>
  <path class="fil7" d="M8.69 9.85l1.41 0c0.24,0 0.43,-0.19 0.43,-0.43l0 -3.49c0,-0.24 -0.19,-0.43 -0.43,-0.43l-1.55 0.02c-0.12,0 -0.22,0.05 -0.31,0.13 -0.08,0.09 -0.12,0.2 -0.11,0.32l0.13 3.47c0.01,0.23 0.2,0.41 0.43,0.41z"/>
  <path class="fil1" d="M10.38 9.42l0 -3.49c0,-0.16 -0.13,-0.28 -0.28,-0.28l-1.55 0.02c-0.15,0.01 -0.28,0.13 -0.27,0.29l0.13 3.47c0.01,0.15 0.13,0.27 0.28,0.27l1.41 0c0.15,0 0.28,-0.13 0.28,-0.28z"/>
  <path class="fil8" d="M11.09 9.85l1.02 0c0.2,0 0.38,-0.15 0.42,-0.35l0.64 -3.53c0.02,-0.13 -0.01,-0.26 -0.09,-0.35 -0.08,-0.1 -0.2,-0.16 -0.33,-0.16l-1.67 0.02c-0.23,0.01 -0.42,0.2 -0.42,0.43l0 3.51c0,0.24 0.19,0.43 0.43,0.43z"/>
  <path class="fil1" d="M10.81 5.91l0 3.51c0,0.15 0.13,0.28 0.28,0.28l1.02 0c0.13,0 0.24,-0.1 0.27,-0.23l0.64 -3.53c0.03,-0.17 -0.1,-0.33 -0.28,-0.33l-1.66 0.03c-0.15,0 -0.27,0.12 -0.27,0.27z"/>
  <path class="fil9" d="M6.28 9.85l1.42 0c0.12,0 0.23,-0.05 0.31,-0.13 0.09,-0.09 0.13,-0.2 0.12,-0.32l-0.13 -3.45c-0.01,-0.24 -0.2,-0.42 -0.43,-0.42l-1.98 0.03c-0.13,0 -0.25,0.06 -0.33,0.16 -0.08,0.1 -0.11,0.23 -0.08,0.35l0.68 3.43c0.04,0.21 0.21,0.35 0.42,0.35z"/>
  <path class="fil1" d="M7.57 5.69l-1.98 0.02c-0.17,0.01 -0.3,0.16 -0.26,0.33l0.68 3.43c0.02,0.13 0.14,0.23 0.27,0.23l1.42 0c0.16,0 0.29,-0.13 0.28,-0.29l-0.13 -3.46c-0.01,-0.15 -0.13,-0.27 -0.28,-0.26z"/>
  <path class="fil10" d="M6.92 6.41l-0.11 0c-0.05,0 -0.1,0.05 -0.1,0.11l0 0.18c-0.36,0.06 -0.57,0.27 -0.57,0.56 0,0.31 0.26,0.47 0.62,0.57 0.25,0.06 0.35,0.13 0.35,0.24 0,0.13 -0.13,0.19 -0.32,0.19 -0.17,0 -0.33,-0.04 -0.46,-0.1 -0.06,-0.02 -0.13,0.01 -0.14,0.07l-0.05 0.17c-0.01,0.05 0.01,0.1 0.06,0.12 0.13,0.06 0.32,0.1 0.5,0.11l0 0.18 0 0c0,0.06 0.05,0.11 0.11,0.11l0.1 0c0.06,0 0.11,-0.05 0.11,-0.11l0 -0.2c0.39,-0.06 0.59,-0.31 0.59,-0.58 0,-0.3 -0.16,-0.46 -0.56,-0.58 -0.28,-0.09 -0.41,-0.15 -0.41,-0.25 0,-0.08 0.06,-0.17 0.28,-0.17 0.17,0 0.3,0.04 0.39,0.07 0.06,0.02 0.12,-0.01 0.14,-0.07l0.04 -0.15c0.01,-0.05 -0.01,-0.11 -0.07,-0.13 -0.1,-0.03 -0.22,-0.06 -0.4,-0.07l0 -0.16c0,-0.06 -0.04,-0.11 -0.1,-0.11z"/>
  <path class="fil11" d="M9.41 6.41l-0.1 0c-0.06,0 -0.11,0.05 -0.11,0.11l0 0.18c-0.36,0.06 -0.57,0.27 -0.57,0.56 0,0.31 0.26,0.47 0.62,0.57 0.25,0.06 0.35,0.13 0.35,0.24 0,0.13 -0.13,0.19 -0.31,0.19 -0.18,0 -0.34,-0.04 -0.47,-0.1 -0.06,-0.02 -0.12,0.01 -0.14,0.07l-0.05 0.17c-0.01,0.05 0.01,0.1 0.06,0.12 0.13,0.06 0.32,0.1 0.51,0.11l0 0.18 0 0c0,0.06 0.04,0.11 0.1,0.11l0.11 0c0.05,0 0.1,-0.05 0.1,-0.11l0 -0.2c0.39,-0.06 0.59,-0.31 0.59,-0.58 0,-0.3 -0.16,-0.46 -0.56,-0.58 -0.28,-0.09 -0.41,-0.15 -0.41,-0.25 0,-0.08 0.07,-0.17 0.28,-0.17 0.17,0 0.3,0.04 0.39,0.07 0.06,0.02 0.12,-0.01 0.14,-0.07l0.04 -0.15c0.02,-0.05 -0.01,-0.11 -0.06,-0.13 -0.1,-0.03 -0.23,-0.06 -0.4,-0.07l0 -0.16c0,-0.06 -0.05,-0.11 -0.11,-0.11z"/>
  <path class="fil12" d="M11.78 6.41l-0.11 0c-0.05,0 -0.1,0.05 -0.1,0.11l0 0.18c-0.36,0.06 -0.57,0.27 -0.57,0.56 0,0.31 0.26,0.47 0.62,0.57 0.25,0.06 0.35,0.13 0.35,0.24 0,0.13 -0.13,0.19 -0.31,0.19 -0.18,0 -0.34,-0.04 -0.47,-0.1 -0.06,-0.02 -0.13,0.01 -0.14,0.07l-0.05 0.17c-0.01,0.05 0.01,0.1 0.06,0.12 0.13,0.06 0.32,0.1 0.5,0.11l0 0.18 0 0c0,0.06 0.05,0.11 0.11,0.11l0.1 0c0.06,0 0.11,-0.05 0.11,-0.11l0 -0.2c0.39,-0.06 0.59,-0.31 0.59,-0.58 0,-0.3 -0.16,-0.46 -0.56,-0.58 -0.28,-0.09 -0.41,-0.15 -0.41,-0.25 0,-0.08 0.06,-0.17 0.28,-0.17 0.17,0 0.3,0.04 0.39,0.07 0.06,0.02 0.12,-0.01 0.14,-0.07l0.04 -0.15c0.01,-0.05 -0.01,-0.11 -0.07,-0.13 -0.1,-0.03 -0.22,-0.06 -0.4,-0.07l0 -0.16c0,-0.06 -0.04,-0.11 -0.1,-0.11z"/>
  <path class="fil13" d="M2.06 1.23l0.6 2.71c0.08,0.25 0.35,0.39 0.61,0.31 0.76,-0.23 2.38,-0.55 4.15,0.19 0.06,0.03 0.08,0.1 0.03,0.14l-0.3 0.33c-0.06,0.06 -0.02,0.17 0.07,0.17l1.7 0c0.05,0 0.1,-0.04 0.1,-0.1l0.17 -1.93c0,-0.1 -0.11,-0.15 -0.18,-0.09l-0.53 0.48c-0.05,0.04 -0.12,0.02 -0.15,-0.03 -0.28,-0.66 -1.73,-4.2 -5.96,-2.77 -0.25,0.08 -0.39,0.34 -0.31,0.59l0 0z"/>
  <path class="fil14" d="M2.52 1.04l0.46 2.64c0.03,0.1 0.13,0.15 0.23,0.13 0.59,-0.11 2.53,-0.37 4.52,0.57 0.05,0.02 0.06,0.08 0.02,0.12l-0.23 0.22c-0.05,0.04 -0.02,0.11 0.04,0.11l1.23 0.05c0.04,0 0.07,-0.02 0.07,-0.06l0.14 -1.4c0.01,-0.06 -0.07,-0.09 -0.12,-0.05l-0.42 0.39c-0.04,0.04 -0.11,0.03 -0.13,-0.02 -0.28,-0.55 -1.36,-3.87 -5.66,-2.93 -0.11,0.03 -0.18,0.13 -0.15,0.23l0 0z"/>
  <path class="fil15" d="M4.39 3.27c-0.09,0 -0.17,0.01 -0.26,0.01 -0.03,0.01 -0.06,-0.02 -0.06,-0.06 0.01,-0.46 0.01,-0.91 0.02,-1.36 -0.01,0 -0.01,0 -0.01,0 -0.16,0.44 -0.31,0.91 -0.47,1.41 -0.01,0.04 -0.05,0.08 -0.08,0.08 -0.08,0.02 -0.16,0.03 -0.24,0.05 -0.04,0 -0.06,-0.02 -0.06,-0.07 -0.01,-0.69 -0.01,-1.39 -0.02,-2.1 0,-0.05 0.05,-0.11 0.09,-0.1 0.07,0 0.13,0.01 0.2,0.01 0.03,0 0.06,0.04 0.06,0.08 -0.01,0.49 -0.03,0.99 -0.04,1.48 0,0 0,0 0,0 0.15,-0.51 0.31,-0.98 0.46,-1.43 0.01,-0.04 0.05,-0.06 0.08,-0.06 0.09,0.02 0.19,0.04 0.28,0.05 0.04,0.01 0.06,0.04 0.06,0.08 -0.01,0.45 -0.02,0.89 -0.03,1.34 0,0 0,0 0,0 0.16,-0.44 0.32,-0.85 0.48,-1.23 0.01,-0.04 0.05,-0.05 0.09,-0.04 0.07,0.02 0.14,0.04 0.21,0.06 0.04,0.01 0.07,0.07 0.05,0.11 -0.24,0.47 -0.49,1.02 -0.73,1.63 -0.01,0.03 -0.05,0.06 -0.08,0.06l0 0z"/>
  <path class="fil16" d="M4.99 3.2c0.11,-0.56 0.23,-1.09 0.34,-1.6 0.01,-0.04 0.05,-0.05 0.09,-0.04 0.08,0.02 0.15,0.05 0.22,0.08 0.05,0.01 0.07,0.05 0.06,0.09 -0.11,0.47 -0.22,0.97 -0.34,1.5 -0.01,0.04 -0.05,0.06 -0.09,0.06 -0.07,-0.01 -0.15,-0.01 -0.22,-0.01 -0.04,-0.01 -0.07,-0.04 -0.06,-0.08l0 0z"/>
  <path class="fil17" d="M6.46 1.99c0.03,0.02 0.05,0.04 0.06,0.07 0.1,0.36 0.19,0.7 0.29,1.04 0,0 0,0 0,0 0.08,-0.26 0.15,-0.51 0.23,-0.75 0,-0.02 0.04,-0.02 0.08,0 0.07,0.04 0.14,0.09 0.21,0.13 0.04,0.03 0.06,0.06 0.06,0.09 -0.11,0.32 -0.22,0.66 -0.33,1.03 -0.01,0.03 -0.05,0.04 -0.09,0.03 -0.08,-0.03 -0.17,-0.06 -0.26,-0.08 -0.03,-0.01 -0.05,-0.03 -0.06,-0.05 -0.12,-0.41 -0.25,-0.84 -0.38,-1.3 0,0 0,0 0,0 -0.1,0.35 -0.19,0.73 -0.28,1.12 -0.01,0.03 -0.05,0.05 -0.09,0.05 -0.08,-0.01 -0.15,-0.03 -0.22,-0.04 -0.04,0 -0.07,-0.03 -0.06,-0.07 0.11,-0.51 0.23,-0.98 0.34,-1.43 0.01,-0.03 0.05,-0.05 0.09,-0.03 0.14,0.06 0.28,0.12 0.41,0.19l0 0z"/>
  <path class="fil1" d="M9.61 5.13l0.01 -0.04 0 0c0.01,-0.01 0.01,-0.01 0.02,-0.01 0,0 0,0.01 0,0.01l0 0 -0.02 0.04c0,0.01 -0.01,0.01 -0.01,0.01 0,0 0,-0.01 0,-0.01l0 0z"/>
  <path class="fil1" d="M9.66 4.98l0.01 -0.04 0 0c0.01,-0.01 0.01,-0.01 0.02,-0.01 0.01,0 0.01,0.01 0.01,0.02l0 0 -0.02 0.04c0,0.01 -0.01,0.01 -0.01,0.01 -0.01,0 -0.01,-0.01 -0.01,-0.02l0 0z"/>
  <path class="fil1" d="M9.71 4.84l0.01 -0.05 0 0c0,-0.01 0.01,-0.01 0.02,-0.01 0,0 0.01,0.01 0,0.02l0 0 -0.01 0.04c0,0.01 -0.01,0.01 -0.02,0.01 0,0 -0.01,-0.01 0,-0.01l0 0z"/>
  <path class="fil1" d="M9.74 4.69l0.01 -0.05 0 0c0.01,-0.01 0.01,-0.01 0.02,-0.01 0.01,0 0.02,0.01 0.01,0.02l0 0 -0.01 0.04c0,0.01 -0.01,0.02 -0.01,0.02 -0.01,-0.01 -0.02,-0.01 -0.02,-0.02l0 0z"/>
  <path class="fil1" d="M9.77 4.54l0.01 -0.05 0 0c0,-0.01 0.01,-0.01 0.02,-0.01 0.01,0 0.02,0.01 0.02,0.02l0 0 -0.01 0.04c0,0.01 -0.01,0.02 -0.02,0.02 -0.01,-0.01 -0.02,-0.01 -0.02,-0.02l0 0z"/>
  <path class="fil1" d="M9.8 4.38l0 -0.04 0 0c0,-0.01 0.01,-0.02 0.02,-0.02 0.01,0 0.02,0.01 0.02,0.02l0 0 -0.01 0.05c0,0.01 -0.01,0.02 -0.02,0.01 -0.01,0 -0.01,-0.01 -0.01,-0.02l0 0z"/>
  <path class="fil1" d="M9.81 4.23l0 -0.04 0 -0.01c0,-0.01 0.01,-0.01 0.02,-0.01 0.02,0 0.02,0.01 0.02,0.02l0 0 0 0.04c0,0.01 -0.01,0.02 -0.02,0.02 -0.01,0 -0.02,-0.01 -0.02,-0.02l0 0z"/>
  <path class="fil1" d="M9.82 4.08l0 -0.05 0 0c0,-0.01 0.01,-0.02 0.02,-0.02 0.01,0 0.02,0.01 0.02,0.02l0 0 0 0.05c0,0.01 -0.01,0.02 -0.02,0.02 -0.01,0 -0.02,-0.01 -0.02,-0.02l0 0z"/>
  <path class="fil1" d="M9.82 3.92l-0.01 -0.04 0 0c0,-0.01 0.01,-0.02 0.03,-0.02 0.01,0 0.02,0 0.02,0.02l0 0 0 0.04c0,0.01 -0.01,0.02 -0.02,0.02 -0.01,0 -0.02,0 -0.02,-0.02l0 0z"/>
  <path class="fil1" d="M9.81 3.77l-0.01 -0.05 0 0c0,-0.01 0.01,-0.02 0.02,-0.02 0.01,0 0.03,0.01 0.03,0.02l0 0 0 0.05c0,0.01 -0.01,0.02 -0.02,0.02 -0.01,0 -0.02,-0.01 -0.02,-0.02l0 0z"/>
  <path class="fil1" d="M9.79 3.62l-0.01 -0.05 0 0c0,-0.01 0.01,-0.02 0.02,-0.02 0.01,0 0.03,0 0.03,0.02l0 0 0 0.04c0.01,0.01 0,0.02 -0.01,0.03 -0.02,0 -0.03,-0.01 -0.03,-0.02l0 0z"/>
  <path class="fil1" d="M9.77 3.47l-0.01 -0.05 0 0c-0.01,-0.01 0,-0.02 0.01,-0.03 0.02,0 0.03,0.01 0.03,0.02l0 0 0.01 0.05c0,0.01 -0.01,0.02 -0.02,0.02 -0.01,0.01 -0.02,0 -0.02,-0.01l0 0z"/>
  <path class="fil1" d="M9.73 3.32l-0.01 -0.05 0 0c0,-0.01 0.01,-0.02 0.02,-0.03 0.01,0 0.02,0.01 0.02,0.02l0.02 0.05c0,0.01 -0.01,0.02 -0.02,0.02 -0.01,0.01 -0.02,0 -0.03,-0.01l0 0 0 0z"/>
  <path class="fil1" d="M9.69 3.17l-0.01 -0.05 0 0c-0.01,-0.01 0,-0.02 0.01,-0.02 0.01,-0.01 0.03,0 0.03,0.01l0.01 0.05c0.01,0.01 0,0.02 -0.01,0.02 -0.01,0.01 -0.02,0 -0.03,-0.01l0 0 0 0z"/>
  <path class="fil1" d="M9.64 3.02l-0.01 -0.04 0 0c-0.01,-0.01 0,-0.02 0.01,-0.03 0.01,0 0.02,0 0.03,0.01l0.01 0.05c0.01,0.01 0,0.02 -0.01,0.03 -0.01,0 -0.02,-0.01 -0.03,-0.02l0 0 0 0z"/>
  <path class="fil1" d="M9.59 2.88l-0.02 -0.04 0 0c-0.01,-0.01 0,-0.03 0.01,-0.03 0.01,-0.01 0.02,0 0.03,0.01l0.02 0.04c0,0.01 0,0.03 -0.02,0.03 -0.01,0.01 -0.02,0 -0.02,-0.01l0 0 0 0z"/>
  <path class="fil1" d="M9.52 2.74l-0.02 -0.04 0 0c0,-0.01 0,-0.02 0.01,-0.03 0.01,0 0.02,0 0.03,0.01l0.02 0.04c0,0.01 0,0.02 -0.01,0.03 -0.01,0.01 -0.02,0 -0.03,-0.01l0 0 0 0z"/>
  <path class="fil1" d="M9.45 2.6l-0.02 -0.03 0 -0.01c-0.01,-0.01 -0.01,-0.02 0,-0.02 0.01,-0.01 0.03,-0.01 0.03,0l0.03 0.04c0,0.01 0,0.03 -0.01,0.03 -0.01,0.01 -0.02,0.01 -0.03,0l0 0 0 -0.01z"/>
  <path class="fil1" d="M9.37 2.47l-0.03 -0.04 0 0c0,0 0,-0.02 0.01,-0.02 0.01,-0.01 0.02,-0.01 0.03,0l0.02 0.04c0.01,0.01 0.01,0.02 0,0.03 -0.01,0.01 -0.02,0 -0.03,-0.01l0 0 0 0z"/>
  <path class="fil1" d="M9.28 2.35l-0.02 -0.04 0 0c-0.01,-0.01 -0.01,-0.02 0,-0.03 0.01,-0.01 0.02,0 0.03,0.01l0.03 0.03c0,0.01 0,0.02 -0.01,0.03 -0.01,0.01 -0.02,0.01 -0.03,0l0 0 0 0z"/>
  <path class="fil1" d="M9.19 2.22l-0.03 -0.03 0 0c0,-0.01 0,-0.02 0,-0.03 0.01,-0.01 0.02,0 0.03,0l0.03 0.04c0.01,0.01 0.01,0.02 0,0.03 -0.01,0 -0.02,0 -0.03,-0.01l0 0 0 0z"/>
  <path class="fil1" d="M9.09 2.11l-0.03 -0.04 0 0c-0.01,-0.01 0,-0.02 0,-0.02 0.01,-0.01 0.02,-0.01 0.03,0l0.03 0.03c0.01,0.01 0.01,0.02 0,0.03 -0.01,0 -0.02,0 -0.03,0l0 0 0 0z"/>
  <path class="fil1" d="M8.99 1.99l-0.04 -0.03 0 0c0,-0.01 0,-0.02 0,-0.02 0.01,-0.01 0.02,-0.01 0.03,0l0.03 0.03c0.01,0.01 0.01,0.02 0,0.02 0,0.01 -0.02,0.01 -0.02,0l0 0 0 0z"/>
  <path class="fil1" d="M8.88 1.89l-0.04 -0.04 0 0c0,0 -0.01,-0.01 0,-0.02 0.01,0 0.02,0 0.02,0l0.04 0.03c0,0.01 0.01,0.02 0,0.02 -0.01,0.01 -0.02,0.01 -0.02,0.01l0 0 0 0z"/>
  <path class="fil1" d="M8.76 1.78l-0.04 -0.02 0 0c0,-0.01 0,-0.02 0,-0.02 0.01,-0.01 0.02,-0.01 0.02,-0.01l0.04 0.03c0.01,0.01 0.01,0.02 0,0.02 0,0.01 -0.01,0.01 -0.02,0.01l0 -0.01 0 0z"/>
  <path class="fil1" d="M8.64 1.69l-0.04 -0.03 0 0c0,0 -0.01,-0.01 0,-0.02 0,0 0.01,0 0.02,0l0.03 0.03c0.01,0 0.01,0.01 0.01,0.02 -0.01,0 -0.01,0 -0.02,0l0 0 0 0z"/>
  <path class="fil1" d="M8.51 1.6l-0.04 -0.02 0 0c0,-0.01 0,-0.01 0,-0.02 0,0 0.01,-0.01 0.02,0l0.04 0.02c0,0 0,0.01 0,0.02 0,0 -0.01,0 -0.02,0l0 0 0 0z"/>
  <path class="fil1" d="M8.38 1.52l-0.04 -0.02 0 0c0,-0.01 0,-0.01 0,-0.02 0,0 0.01,0 0.01,0l0.04 0.02c0.01,0 0.01,0.01 0.01,0.02 -0.01,0 -0.01,0 -0.02,0l0 0 0 0z"/>
  <path class="fil1" d="M8.25 1.44l-0.01 0c0,0 -0.01,-0.01 0,-0.01 0,0 0,0 0.01,0l0 0c0.01,0 0.01,0.01 0.01,0.01 0,0.01 -0.01,0.01 -0.01,0l0 0z"/>
  <path class="fil1" d="M10.05 5.12l0.02 -0.04c0,-0.01 0,-0.01 0.01,-0.01 0,0 0,0.01 0,0.01l0 0 -0.01 0.05c0,0 -0.01,0 -0.01,0 -0.01,0 -0.01,0 -0.01,-0.01z"/>
  <path class="fil1" d="M10.09 4.97l0.01 -0.04c0.01,-0.01 0.01,-0.01 0.02,-0.01 0.01,0 0.01,0.01 0.01,0.01l0 0 -0.01 0.05c-0.01,0 -0.01,0.01 -0.02,0.01 -0.01,-0.01 -0.01,-0.01 -0.01,-0.02z"/>
  <path class="fil1" d="M10.13 4.82l0.01 -0.04c0,-0.01 0.01,-0.02 0.02,-0.02 0.01,0.01 0.02,0.02 0.01,0.02l0 0.01 -0.01 0.04c0,0.01 -0.01,0.01 -0.02,0.01 -0.01,0 -0.01,-0.01 -0.01,-0.02z"/>
  <path class="fil1" d="M10.17 4.67l0.01 -0.04c0,-0.01 0.01,-0.02 0.02,-0.02 0.01,0 0.02,0.02 0.02,0.03l0 0 -0.02 0.04c0,0.01 -0.01,0.02 -0.02,0.01 -0.01,0 -0.01,-0.01 -0.01,-0.02z"/>
  <path class="fil1" d="M10.2 4.52l0.01 -0.04c0.01,-0.02 0.02,-0.02 0.03,-0.02 0.01,0 0.02,0.01 0.02,0.03l0 0 -0.01 0.04c-0.01,0.01 -0.02,0.02 -0.03,0.02 -0.01,-0.01 -0.02,-0.02 -0.02,-0.03z"/>
  <path class="fil1" d="M10.24 4.37l0.01 -0.04 0 0c0,-0.02 0.01,-0.03 0.03,-0.02 0.01,0 0.02,0.01 0.02,0.03l0 0 -0.02 0.04c0,0.01 -0.01,0.02 -0.02,0.02 -0.02,0 -0.02,-0.02 -0.02,-0.03l0 0z"/>
  <path class="fil1" d="M10.27 4.22l0.01 -0.05 0 0c0,-0.01 0.02,-0.02 0.03,-0.02 0.02,0.01 0.03,0.02 0.02,0.04l0 0 -0.01 0.04c0,0.01 -0.02,0.02 -0.03,0.02 -0.01,0 -0.02,-0.02 -0.02,-0.03l0 0z"/>
  <path class="fil1" d="M10.3 4.07l0.01 -0.05 0 0c0.01,-0.01 0.02,-0.02 0.04,-0.02 0.01,0 0.02,0.02 0.02,0.03l0 0 -0.01 0.05c-0.01,0.01 -0.02,0.02 -0.04,0.02 -0.01,0 -0.02,-0.02 -0.02,-0.03l0 0z"/>
  <path class="fil1" d="M10.33 3.92l0.01 -0.05 0 0c0.01,-0.01 0.02,-0.02 0.04,-0.02 0.01,0 0.02,0.02 0.02,0.03l0 0 -0.01 0.05c0,0.01 -0.02,0.02 -0.03,0.02 -0.02,0 -0.03,-0.02 -0.03,-0.03l0 0z"/>
  <path class="fil1" d="M10.36 3.77l0.01 -0.05 0 0c0,-0.02 0.02,-0.03 0.04,-0.02 0.01,0 0.02,0.01 0.02,0.03l0 0 -0.01 0.05c0,0.01 -0.02,0.02 -0.03,0.02 -0.02,0 -0.03,-0.02 -0.03,-0.03l0 0z"/>
  <path class="fil1" d="M10.39 3.61l0.01 -0.04 0 0c0,-0.02 0.02,-0.03 0.03,-0.03 0.02,0.01 0.03,0.02 0.03,0.04l0 0 -0.01 0.04c0,0.02 -0.02,0.03 -0.04,0.03 -0.01,0 -0.02,-0.02 -0.02,-0.04l0 0z"/>
  <path class="fil1" d="M10.42 3.46l0 -0.04 0 0c0.01,-0.02 0.02,-0.03 0.04,-0.03 0.02,0 0.03,0.02 0.02,0.04l0 0 0 0.04c-0.01,0.02 -0.02,0.03 -0.04,0.03 -0.02,-0.01 -0.03,-0.02 -0.02,-0.04l0 0z"/>
  <path class="fil1" d="M10.44 3.31l0.01 -0.05 0 0c0,-0.01 0.01,-0.03 0.03,-0.02 0.02,0 0.03,0.01 0.03,0.03l0 0 -0.01 0.05c0,0.01 -0.02,0.03 -0.03,0.02 -0.02,0 -0.03,-0.01 -0.03,-0.03l0 0z"/>
  <path class="fil1" d="M10.46 3.16l0.01 -0.05 0 0c0,-0.02 0.02,-0.03 0.03,-0.03 0.02,0.01 0.03,0.02 0.03,0.04l-0.01 0.04c0,0.02 -0.01,0.03 -0.03,0.03 -0.02,0 -0.03,-0.02 -0.03,-0.03l0 0z"/>
  <path class="fil1" d="M10.48 3l0.01 -0.04 0 0c0,-0.02 0.02,-0.03 0.03,-0.03 0.02,0 0.03,0.02 0.03,0.03l-0.01 0.05c0,0.02 -0.01,0.03 -0.03,0.03 -0.02,0 -0.03,-0.02 -0.03,-0.04l0 0z"/>
  <path class="fil1" d="M10.5 2.85l0.01 -0.05 0 0c0,-0.01 0.02,-0.03 0.03,-0.02 0.02,0 0.03,0.01 0.03,0.03l-0.01 0.05c0,0.01 -0.01,0.03 -0.03,0.02 -0.02,0 -0.03,-0.01 -0.03,-0.03l0 0 0 0z"/>
  <path class="fil1" d="M10.52 2.7l0.01 -0.05 0 0c0,-0.02 0.01,-0.03 0.03,-0.03 0.02,0.01 0.03,0.02 0.03,0.04l-0.01 0.04c0,0.02 -0.02,0.03 -0.03,0.03 -0.02,0 -0.03,-0.02 -0.03,-0.03l0 0 0 0z"/>
  <path class="fil1" d="M10.54 2.54l0 -0.04 0 0c0,-0.02 0.02,-0.03 0.03,-0.03 0.02,0 0.03,0.02 0.03,0.03l0 0.05c-0.01,0.01 -0.02,0.03 -0.04,0.02 -0.01,0 -0.02,-0.01 -0.02,-0.03l0 0 0 0z"/>
  <path class="fil1" d="M10.55 2.39l0.01 -0.05 0 0c0,-0.01 0.01,-0.02 0.03,-0.02 0.01,0 0.02,0.01 0.02,0.03l0 0.04c0,0.02 -0.02,0.03 -0.03,0.03 -0.02,0 -0.03,-0.02 -0.03,-0.03l0 0 0 0z"/>
  <path class="fil1" d="M10.57 2.23l0 -0.04 0 0c0,-0.02 0.02,-0.03 0.03,-0.02 0.01,0 0.02,0.01 0.02,0.02l0 0.05c0,0.01 -0.01,0.02 -0.03,0.02 -0.01,0 -0.02,-0.01 -0.02,-0.02l0 -0.01z"/>
  <path class="fil1" d="M10.58 2.08l0 -0.05 0 0c0,-0.01 0.02,-0.02 0.03,-0.02 0.01,0 0.02,0.01 0.02,0.03l0 0.04c0,0.02 -0.01,0.03 -0.03,0.03 -0.01,0 -0.02,-0.02 -0.02,-0.03l0 0 0 0z"/>
  <path class="fil1" d="M10.59 1.93l0 -0.05c0,-0.01 0.01,-0.02 0.03,-0.02 0.01,0 0.02,0.01 0.02,0.02l0 0.05c-0.01,0.01 -0.02,0.02 -0.03,0.02 -0.01,0 -0.02,-0.01 -0.02,-0.02l0 0z"/>
  <path class="fil1" d="M10.6 1.77l0 -0.04c0,-0.01 0.01,-0.02 0.02,-0.02 0.01,0 0.02,0.01 0.02,0.02l0 0.04c0,0.02 -0.01,0.02 -0.02,0.02 -0.01,0 -0.02,-0.01 -0.02,-0.02l0 0z"/>
  <path class="fil1" d="M10.61 1.62l0 -0.05c0,-0.01 0.01,-0.01 0.02,-0.01 0.01,0 0.01,0 0.01,0.01l0 0.05c0,0.01 0,0.02 -0.01,0.02 -0.01,0 -0.02,-0.01 -0.02,-0.02l0 0z"/>
  <path class="fil1" d="M10.61 1.46l0.01 -0.04c0,-0.01 0,-0.02 0.01,-0.02 0.01,0 0.01,0.01 0.01,0.02l0 0.04c0,0.01 0,0.02 -0.01,0.02 -0.01,0 -0.02,-0.01 -0.02,-0.02l0 0z"/>
  <path class="fil1" d="M10.62 1.31l0 -0.05c0,0 0.01,-0.01 0.01,-0.01 0.01,0 0.01,0.01 0.01,0.01l0 0.05c0,0.01 0,0.01 -0.01,0.01 0,0 -0.01,0 -0.01,-0.01l0 0z"/>
  <path class="fil1" d="M10.41 5.31l0.01 -0.05c0,0 0.01,0 0.01,0 0.01,0 0.01,0 0.01,0.01l0 0 -0.01 0.04c0,0.01 -0.01,0.01 -0.01,0.01 -0.01,0 -0.01,-0.01 -0.01,-0.01z"/>
  <path class="fil1" d="M10.45 5.16l0.01 -0.05c0,0 0.01,-0.01 0.01,-0.01 0.01,0.01 0.01,0.01 0.01,0.02l0 0 -0.01 0.04c0,0.01 -0.01,0.01 -0.02,0.01 0,0 -0.01,-0.01 0,-0.01z"/>
  <path class="fil1" d="M10.48 5.01l0.01 -0.05c0.01,-0.01 0.01,-0.01 0.02,-0.01 0.01,0 0.02,0.01 0.01,0.02l0 0 -0.01 0.05c0,0 -0.01,0.01 -0.02,0.01 0,-0.01 -0.01,-0.01 -0.01,-0.02z"/>
  <path class="fil1" d="M10.52 4.86l0.01 -0.05c0,-0.01 0.02,-0.01 0.03,-0.01 0.01,0 0.01,0.01 0.01,0.02l0 0 0 0 -0.01 0.05c-0.01,0.01 -0.02,0.01 -0.03,0.01 -0.01,0 -0.01,-0.01 -0.01,-0.02z"/>
  <path class="fil1" d="M10.56 4.71l0.01 -0.05c0.01,-0.01 0.02,-0.01 0.03,-0.01 0.01,0 0.02,0.01 0.01,0.02l0 0.01 0 0 -0.01 0.04 0 0c0,0.01 -0.01,0.02 -0.03,0.01 -0.01,0 -0.01,-0.01 -0.01,-0.02z"/>
  <path class="fil1" d="M10.6 4.56l0.02 -0.05c0,-0.01 0.02,-0.01 0.03,-0.01 0.01,0 0.02,0.02 0.01,0.03l0 0 0 0 -0.01 0.04 0 0c-0.01,0.01 -0.02,0.02 -0.03,0.02 -0.01,-0.01 -0.02,-0.02 -0.02,-0.03z"/>
  <path class="fil1" d="M10.65 4.41l0.02 -0.04c0,-0.02 0.02,-0.02 0.03,-0.02 0.01,0.01 0.02,0.02 0.01,0.03l0 0 0 0 -0.01 0.05 0 0c-0.01,0.01 -0.02,0.02 -0.03,0.01 -0.02,0 -0.02,-0.02 -0.02,-0.03z"/>
  <path class="fil1" d="M10.7 4.26l0.02 -0.04c0,-0.01 0.02,-0.02 0.03,-0.02 0.02,0.01 0.02,0.03 0.02,0.04l0 0 0 0 -0.02 0.04 0 0c0,0.02 -0.02,0.02 -0.03,0.02 -0.02,-0.01 -0.02,-0.02 -0.02,-0.04z"/>
  <path class="fil1" d="M10.76 4.12l0.02 -0.04c0,-0.02 0.02,-0.02 0.03,-0.02 0.02,0.01 0.02,0.02 0.02,0.04l0 0 0 0 -0.02 0.04 0 0c-0.01,0.01 -0.02,0.02 -0.04,0.01 -0.01,0 -0.02,-0.02 -0.01,-0.03z"/>
  <path class="fil1" d="M10.82 3.98l0.02 -0.05c0.01,-0.01 0.03,-0.02 0.04,-0.01 0.01,0.01 0.02,0.02 0.01,0.04l0 0 0 0 -0.02 0.04 0 0c0,0.01 -0.02,0.02 -0.03,0.01 -0.02,0 -0.02,-0.02 -0.02,-0.03z"/>
  <path class="fil1" d="M10.89 3.84l0.02 -0.05c0.01,-0.01 0.03,-0.02 0.04,-0.01 0.02,0.01 0.02,0.03 0.01,0.04l0 0 0 0 -0.02 0.04 0 0c-0.01,0.02 -0.02,0.02 -0.04,0.01 -0.01,0 -0.02,-0.02 -0.01,-0.03z"/>
  <path class="fil1" d="M10.96 3.7l0.03 -0.04c0.01,-0.02 0.02,-0.02 0.04,-0.01 0.01,0.01 0.02,0.02 0.01,0.04l0 0 0 0 -0.02 0.04 0 0c-0.01,0.01 -0.03,0.02 -0.04,0.01 -0.02,-0.01 -0.02,-0.03 -0.02,-0.04z"/>
  <path class="fil1" d="M11.05 3.57l0.02 -0.04c0.01,-0.02 0.03,-0.02 0.04,-0.01 0.02,0.01 0.02,0.02 0.01,0.04l0 0 0 0 -0.02 0.04 0 0c-0.01,0.01 -0.03,0.02 -0.05,0.01 -0.01,-0.01 -0.01,-0.03 0,-0.04z"/>
  <path class="fil1" d="M11.13 3.44l0.03 -0.04c0.01,-0.02 0.03,-0.02 0.04,-0.01 0.01,0.01 0.02,0.03 0.01,0.04l0 0 -0.03 0.04 0 0c-0.01,0.01 -0.03,0.02 -0.04,0.01 -0.01,-0.01 -0.02,-0.03 -0.01,-0.04l0 0z"/>
  <path class="fil1" d="M11.22 3.31l0.03 -0.04c0.01,-0.01 0.03,-0.01 0.04,0 0.01,0 0.02,0.02 0.01,0.04l0 0 -0.03 0.03 0 0c-0.01,0.02 -0.03,0.02 -0.04,0.01 -0.01,-0.01 -0.02,-0.03 -0.01,-0.04l0 0z"/>
  <path class="fil1" d="M11.32 3.18l0.03 -0.03c0.01,-0.01 0.02,-0.02 0.04,-0.01 0.01,0.01 0.01,0.03 0,0.04l0 0 -0.03 0.04 0 0c-0.01,0.01 -0.03,0.02 -0.04,0.01 -0.01,-0.01 -0.01,-0.03 0,-0.05l0 0z"/>
  <path class="fil1" d="M11.41 3.06l0.03 -0.03c0.01,-0.01 0.03,-0.02 0.05,-0.01 0.01,0.01 0.01,0.03 0,0.05l0 0 -0.03 0.03 0 0c-0.01,0.01 -0.03,0.02 -0.04,0 -0.01,-0.01 -0.02,-0.02 -0.01,-0.04l0 0z"/>
  <path class="fil1" d="M11.52 2.95l0.03 -0.04c0.01,-0.01 0.02,-0.01 0.04,0 0.01,0.01 0.01,0.03 0,0.04l0 0 -0.03 0.03 0 0c-0.01,0.01 -0.03,0.02 -0.04,0.01 -0.01,-0.01 -0.01,-0.03 0,-0.04l0 0z"/>
  <path class="fil1" d="M11.62 2.83l0.03 -0.03c0.01,-0.02 0.03,-0.02 0.04,-0.01 0.01,0.01 0.01,0.03 0,0.04l0 0 -0.03 0.04 0 0c-0.01,0.01 -0.03,0.01 -0.04,0 -0.01,-0.01 -0.01,-0.03 0,-0.04l0 0z"/>
  <path class="fil3" d="M13.99 3.74c0,0.7 -0.57,1.27 -1.27,1.27 -0.7,0 -1.26,-0.57 -1.26,-1.27 0,-0.7 0.56,-1.26 1.26,-1.26 0.7,0 1.27,0.56 1.27,1.26z"/>
  <path class="fil3" d="M17.05 5.32c0,0.31 -0.25,0.56 -0.56,0.56 -0.32,0 -0.57,-0.25 -0.57,-0.56 0,-0.32 0.25,-0.57 0.57,-0.57 0.31,0 0.56,0.25 0.56,0.57z"/>
  <path class="fil3" d="M14.58 1.63c0,0.54 -0.44,0.98 -0.98,0.98 -0.54,0 -0.98,-0.44 -0.98,-0.98 0,-0.54 0.44,-0.98 0.98,-0.98 0.54,0 0.98,0.44 0.98,0.98z"/>
 </g>
</svg>
