<svg xmlns="http://www.w3.org/2000/svg" viewBox="0 0 72.67 120.34"><defs><style>.cls-1{fill:#e5cccc;}.cls-2{fill:#bf9d9d;}.cls-3{fill:#d1b4b4;}.cls-4{fill:#543838;}.cls-5{fill:#e2e2e2;}.cls-6{fill:#f2875c;}.cls-7{fill:#ffa488;}.cls-8{fill:#fff;}.cls-9{fill:#492e2e;}.cls-10{fill:#f4e9e9;}</style></defs><g id="Layer_2" data-name="Layer 2"><g id="Layer_1-2" data-name="Layer 1"><path class="cls-1" d="M71.58,98.37c0-.28,0-45.4,0-45.4H1.09s0,45.11,0,45.38v.05h0c.81,10.56,16.27,19,35.24,19s34.44-8.43,35.25-19h0Z"/><ellipse class="cls-2" cx="36.33" cy="52.42" rx="36.33" ry="20.95"/><path class="cls-2" d="M71.59,72c0,1.87,0,3,0,3v0h0C70.77,85.6,55.3,94,36.33,94S1.9,85.6,1.09,75h0v0s0-1.16,0-3a12.24,12.24,0,0,0-1.08,5C0,88.23,16.27,97.39,36.33,97.39s36.34-9.16,36.34-20.45A12.24,12.24,0,0,0,71.59,72Z"/><path class="cls-2" d="M71.59,94.94c0,1.86,0,3,0,3v0h0c-.81,10.57-16.28,19-35.25,19S1.9,108.56,1.09,98h0v0s0-1.16,0-3a12.16,12.16,0,0,0-1.08,5c0,11.3,16.27,20.45,36.33,20.45s36.34-9.15,36.34-20.45A12.16,12.16,0,0,0,71.59,94.94Z"/><path class="cls-3" d="M36.27,43.7c15.12,0,27.87,5.68,31.9,13.46a11.32,11.32,0,0,0,1.33-5.24c0-10.33-14.88-18.7-33.23-18.7S3,41.59,3,51.92a11.32,11.32,0,0,0,1.33,5.24C8.4,49.38,21.15,43.7,36.27,43.7Z"/><path class="cls-4" d="M36.27,70.62c13.94,0,25.86-4.83,30.8-11.68a14.49,14.49,0,0,0,1.1-1.78c-4-7.78-16.78-13.46-31.9-13.46S8.4,49.38,4.37,57.16a14.49,14.49,0,0,0,1.1,1.78C10.41,65.79,22.33,70.62,36.27,70.62Z"/><polygon class="cls-1" points="11.35 5.14 11.35 27.87 9.72 29.86 8.88 29.29 8.88 6.56 11.35 5.14"/><polygon class="cls-2" points="12.18 5.71 12.18 28.44 9.72 29.86 9.72 7.13 12.18 5.71"/><path class="cls-3" d="M12.82,32.49l2.67-5.68L12.7,25.2h0a1.33,1.33,0,0,0-1.35.1,4.93,4.93,0,0,0-2,3.92A1.83,1.83,0,0,0,10,30.86h0l.07,0h0Z"/><ellipse class="cls-5" cx="14.13" cy="29.63" rx="3.15" ry="1.78" transform="translate(-18.67 31.04) rotate(-66.95)"/><path class="cls-2" d="M17,38.4l5.18-11-5.41-3.11h0a2.51,2.51,0,0,0-2.6.2c-2.19,1.26-4,4.66-4,7.58a3.58,3.58,0,0,0,1.31,3.16h0l.13.08h0Z"/><path class="cls-1" d="M23.47,30.59c0,2.92-1.78,6.31-4,7.58s-4-.08-4-3,1.78-6.31,4-7.57S23.47,27.68,23.47,30.59Z"/><path class="cls-6" d="M46.27,65.94,58.8,38.71,28.94,21.52h0c-1.71-1-3.95-.93-6.41.49-5.4,3.11-9.78,11.48-9.78,18.67,0,3.84,1.25,6.55,3.23,7.79v0l.32.18,0,0Z"/><ellipse class="cls-7" cx="52.73" cy="52.42" rx="15.01" ry="8.49" transform="translate(-16.16 80.41) rotate(-66.95)"/><path class="cls-8" d="M59.73,49.27c0,4.47-2.71,9.66-6.06,11.59s-6.07-.12-6.07-4.58,2.72-9.66,6.07-11.59S59.73,44.8,59.73,49.27Z"/><path class="cls-2" d="M57.34,61.65l5.17-11-5.4-3.11h0a2.53,2.53,0,0,0-2.61.2c-2.19,1.26-4,4.66-4,7.58a3.56,3.56,0,0,0,1.31,3.16h0l.13.08h0Z"/><path class="cls-1" d="M63.84,53.84c0,2.92-1.77,6.31-4,7.58s-4-.08-4-3,1.77-6.31,4-7.57S63.84,50.93,63.84,53.84Z"/><path class="cls-2" d="M62.83,54.86a5.7,5.7,0,0,1-2.38,4.54c-1.31.76-2.38,0-2.38-1.8a5.7,5.7,0,0,1,2.38-4.54C61.76,52.3,62.83,53.11,62.83,54.86Z"/><path class="cls-3" d="M62.28,60.93,65,55.25l-2.79-1.61h0a1.29,1.29,0,0,0-1.34.1,4.93,4.93,0,0,0-2,3.92,1.85,1.85,0,0,0,.67,1.63h0l.07,0h0Z"/><path class="cls-5" d="M65.65,56.89A4.9,4.9,0,0,1,63.6,60.8c-1.13.66-2.05,0-2.05-1.55a4.91,4.91,0,0,1,2.05-3.91C64.73,54.69,65.65,55.38,65.65,56.89Z"/><path class="cls-9" d="M22,28.17c-2.2,1.93-5.38,4.2-6.09,10.33-.8,6.93,1.07,7.71.08,10s-.14,4,1.34,2.82,1.9.22,1.45,1.43-2,3.67,2.78,2.68c2.42-.5,4.6-.34,3.94.84s.39,1.8,2.16,1c.93-.41.82,2,.15,5.18s4.21,1,5.2.3c1.88-1.44,4.3-.9,4.05,1.52-.15,1.43,1.08,2,2.58,1.92S43,64,43,64a14.8,14.8,0,0,1-3.23-10.32A27.1,27.1,0,0,1,44.8,39.87c1.5-2,.12-2.83-3.38-.33-1.93,1.38-4.08,4.63-5.33,7.92-.53,1.38-.94,2.78-1.62,3.21s-1.75-.16-1.84-1.86c-.07-1.39.17-4.35,2.5-9.1.74-1.51,2.88-4.63,2.17-5.25s-1.7.47-2,.86c-1,1.33-2.88,4.52-3.55,4s.88-4,.05-4.66-3,1.8-3.83,2.8-3.68,4.72-5,3.48-.84-5.14.67-8.15c.75-1.49,2.55-3.92,1.6-5.11C24.54,26.84,22.91,27.34,22,28.17Z"/><polygon class="cls-1" points="64.97 35.57 64.97 58.3 63.35 60.29 62.51 59.72 62.51 36.99 64.97 35.57"/><polygon class="cls-2" points="65.81 36.14 65.81 58.87 63.35 60.29 63.35 37.56 65.81 36.14"/><polygon class="cls-10" points="64.64 33.8 8.05 1.44 10.55 0 67.14 32.36 64.64 33.8"/><polygon class="cls-1" points="8.05 6.51 64.64 38.52 64.64 33.8 8.05 1.44 8.05 6.51"/><polygon class="cls-2" points="67.14 32.36 67.14 37.08 64.64 38.52 64.64 33.8 67.14 32.36"/></g></g></svg>