<svg id="Layer_1" data-name="Layer 1" xmlns="http://www.w3.org/2000/svg" viewBox="0 0 313.6 369.44"><defs><style>.cls-1{fill:#fff;}.cls-2{fill:#c1272d;}.cls-3{fill:#1a1a1a;}.cls-4{fill:#ed1c24;}.cls-5{fill:#d3e8f3;}.cls-6{fill:#754c24;}.cls-7{fill:#42210b;}.cls-8{fill:#603813;}.cls-9{fill:#8c6239;}.cls-10{fill:#92b8de;}.cls-11{fill:#b9d7ed;}.cls-12{fill:#347a5f;}.cls-13{fill:#256648;}.cls-14{fill:#3c886b;}.cls-15{fill:#fdd5a4;}.cls-16{fill:#30193c;}.cls-17{fill:#fd95a4;}.cls-18{fill:#c75d77;}.cls-19{fill:#295a6e;}.cls-20{fill:#3b2b5b;}.cls-21{fill:#d5eaf5;}</style></defs><polygon class="cls-1" points="107.59 168.14 105.55 160.64 107.35 168.32 107.59 168.14"/><circle class="cls-1" cx="105.57" cy="160.67" r="0.26"/><polygon class="cls-1" points="101.61 169.28 97.99 162.38 101.42 169.5 101.61 169.28"/><path class="cls-2" d="M-835.76,197.2s-.37-1.16,0-1.62a2.37,2.37,0,0,1,1.47-1.05c.81-.19,2.57-.64,2.75-.65a1.65,1.65,0,0,1,1,.68,24.63,24.63,0,0,1,1,2.38l-.27,0-.59-1.42-.64-1-.57-.17-1.17.18a13.4,13.4,0,0,0-1.81.53,3.09,3.09,0,0,0-.92.76A6.55,6.55,0,0,0-835.76,197.2Z" transform="translate(936.98 -28.47)"/><path d="M-835.59,197.4s-.37-1.16,0-1.62a2.79,2.79,0,0,1,1.47-1.05,25.41,25.41,0,0,1,2.75-.65,1.77,1.77,0,0,1,1,.68,23.21,23.21,0,0,1,1,2.39l-.26,0-.6-1.42-.64-1-.56-.17-1.18.19a13.83,13.83,0,0,0-1.81.53,3.09,3.09,0,0,0-.92.76A6.49,6.49,0,0,0-835.59,197.4Z" transform="translate(936.98 -28.47)"/><ellipse class="cls-3" cx="-835.12" cy="197.82" rx="0.3" ry="1.72" transform="translate(829.6 -285.57) rotate(-18.68)"/><ellipse class="cls-4" cx="-835.25" cy="197.86" rx="0.33" ry="1.58" transform="translate(829.58 -285.61) rotate(-18.68)"/><ellipse cx="-835.45" cy="197.89" rx="0.43" ry="1.19" transform="translate(829.56 -285.67) rotate(-18.68)"/><ellipse class="cls-4" cx="-835.54" cy="197.92" rx="0.43" ry="1.19" transform="translate(829.54 -285.7) rotate(-18.68)"/><circle class="cls-1" cx="98.02" cy="162.41" r="0.26"/><polygon class="cls-1" points="179.12 39.87 175.2 33.15 179.41 39.83 179.12 39.87"/><circle class="cls-1" cx="175.21" cy="33.19" r="0.26"/><polygon class="cls-1" points="184.12 36.4 181.75 28.99 184.42 36.42 184.12 36.4"/><path class="cls-2" d="M-753,64.21s-.56-1.08-1.16-1.13a2.75,2.75,0,0,0-1.78.32,22,22,0,0,0-2.39,1.5,1.78,1.78,0,0,0-.22,1.18,24.64,24.64,0,0,0,1,2.39l.17-.22-.59-1.42-.3-1.18.28-.52,1-.72a13.8,13.8,0,0,1,1.65-.91,3,3,0,0,1,1.18-.12A6.11,6.11,0,0,1-753,64.21Z" transform="translate(936.98 -28.47)"/><path d="M-752.95,64.47s-.57-1.07-1.16-1.12a2.77,2.77,0,0,0-1.79.31,23.88,23.88,0,0,0-2.38,1.5,1.75,1.75,0,0,0-.22,1.19,25.77,25.77,0,0,0,1,2.39l.16-.22-.59-1.42-.29-1.19.27-.52,1-.71a13.63,13.63,0,0,1,1.65-.92,3,3,0,0,1,1.18-.11A5.74,5.74,0,0,1-752.95,64.47Z" transform="translate(936.98 -28.47)"/><ellipse class="cls-3" cx="-752.98" cy="65.1" rx="0.3" ry="1.72" transform="translate(826.96 -360.62) rotate(-26.77)"/><ellipse class="cls-4" cx="-752.86" cy="65.04" rx="0.33" ry="1.58" transform="translate(827 -360.58) rotate(-26.77)"/><ellipse cx="-752.7" cy="64.91" rx="0.43" ry="1.19" transform="translate(827.08 -360.52) rotate(-26.77)"/><ellipse class="cls-4" cx="-752.61" cy="64.87" rx="0.43" ry="1.19" transform="translate(827.11 -360.48) rotate(-26.77)"/><circle class="cls-1" cx="181.74" cy="29.03" r="0.26"/><ellipse class="cls-5" cx="196.11" cy="333.54" rx="117.49" ry="20.79"/><ellipse class="cls-5" cx="108.16" cy="357.69" rx="50.78" ry="11.75"/><rect class="cls-6" x="-805.6" y="222.21" width="41.01" height="48.08" transform="translate(800.58 -288.39) rotate(-20.55)"/><polygon class="cls-7" points="159.2 195.65 171.94 229.64 144.56 239.9 141.12 247.48 179.52 233.09 177.45 227.57 162.64 188.07 159.2 195.65"/><rect class="cls-8" x="-803.25" y="231.62" width="36.3" height="29.24" transform="translate(658.04 866.48) rotate(69.45)"/><rect class="cls-9" x="-767.2" y="207.81" width="41.01" height="48.08" transform="translate(808.08 -275.83) rotate(-20.55)"/><polygon class="cls-7" points="197.6 181.25 210.34 215.25 182.96 225.51 179.52 233.09 217.92 218.69 215.85 213.18 201.04 173.67 197.6 181.25"/><rect class="cls-8" x="-764.85" y="217.23" width="36.3" height="29.24" transform="translate(669.49 821.18) rotate(69.45)"/><rect class="cls-6" x="-728.8" y="193.41" width="41.01" height="48.08" transform="translate(815.57 -263.26) rotate(-20.55)"/><polygon class="cls-7" points="236 166.86 248.74 200.85 221.37 211.11 217.92 218.69 256.32 204.29 254.25 198.78 239.44 159.28 236 166.86"/><rect class="cls-8" x="-726.45" y="202.83" width="36.3" height="29.24" transform="translate(680.93 775.88) rotate(69.45)"/><rect class="cls-6" x="-822.71" y="177.28" width="41.01" height="48.08" transform="translate(815.26 -297.25) rotate(-20.55)"/><polygon class="cls-7" points="142.09 150.72 154.83 184.72 127.46 194.98 124.01 202.56 162.41 188.16 160.34 182.65 145.53 143.15 142.09 150.72"/><rect class="cls-8" x="-820.36" y="186.7" width="36.3" height="29.24" transform="translate(604.88 853.34) rotate(69.45)"/><rect class="cls-9" x="-784.31" y="162.89" width="41.01" height="48.08" transform="translate(822.76 -284.69) rotate(-20.55)"/><polygon class="cls-7" points="180.49 136.33 193.23 170.32 165.86 180.59 162.41 188.16 200.81 173.77 198.75 168.26 183.94 128.75 180.49 136.33"/><rect class="cls-8" x="-781.96" y="172.31" width="36.3" height="29.24" transform="translate(616.32 808.04) rotate(69.45)"/><rect class="cls-6" x="-745.91" y="148.49" width="41.01" height="48.08" transform="translate(830.25 -272.13) rotate(-20.55)"/><polygon class="cls-7" points="218.89 121.93 231.63 155.93 204.26 166.19 200.81 173.77 239.21 159.37 237.15 153.86 222.34 114.36 218.89 121.93"/><rect class="cls-8" x="-743.56" y="157.91" width="36.3" height="29.24" transform="translate(627.76 762.74) rotate(69.45)"/><rect class="cls-6" x="-839.68" y="132.01" width="41.01" height="48.08" transform="translate(830.07 -306.09) rotate(-20.55)"/><polygon class="cls-7" points="125.11 105.45 137.86 139.44 110.48 149.7 107.04 157.28 145.44 142.89 143.37 137.38 128.56 97.87 125.11 105.45"/><rect class="cls-8" x="-837.33" y="141.43" width="36.3" height="29.24" transform="translate(551.47 839.85) rotate(69.45)"/><rect class="cls-9" x="-801.28" y="117.61" width="41.01" height="48.08" transform="translate(837.57 -293.53) rotate(-20.55)"/><polygon class="cls-7" points="163.52 91.05 176.26 125.05 148.88 135.31 145.44 142.89 183.84 128.49 181.77 122.98 166.96 83.47 163.52 91.05"/><rect class="cls-8" x="-798.93" y="127.03" width="36.3" height="29.24" transform="translate(562.91 794.55) rotate(69.45)"/><rect class="cls-6" x="-762.88" y="103.21" width="41.01" height="48.08" transform="translate(845.07 -280.97) rotate(-20.55)"/><polygon class="cls-7" points="201.92 76.66 214.66 110.65 187.28 120.91 183.84 128.49 222.24 114.09 220.17 108.58 205.36 69.08 201.92 76.66"/><rect class="cls-8" x="-760.53" y="112.63" width="36.3" height="29.24" transform="translate(574.35 749.25) rotate(69.45)"/><rect class="cls-5" x="-788.73" y="267.22" width="41.01" height="48.08" transform="translate(785.85 -279.6) rotate(-20.55)"/><polygon class="cls-10" points="176.07 240.66 188.82 274.66 161.44 284.92 157.99 292.5 196.4 278.1 194.33 272.59 179.52 233.09 176.07 240.66"/><rect class="cls-11" x="-786.37" y="276.64" width="36.3" height="29.24" transform="translate(711.15 879.89) rotate(69.45)"/><rect class="cls-5" x="-750.33" y="252.83" width="41.01" height="48.08" transform="translate(793.35 -267.04) rotate(-20.55)"/><polygon class="cls-10" points="214.47 226.27 227.22 260.26 199.84 270.53 196.4 278.1 234.79 263.71 232.73 258.2 217.92 218.69 214.47 226.27"/><rect class="cls-11" x="-747.97" y="262.25" width="36.3" height="29.24" transform="translate(722.59 834.59) rotate(69.45)"/><rect class="cls-5" x="-711.93" y="238.43" width="41.01" height="48.08" transform="translate(800.84 -254.47) rotate(-20.55)"/><polygon class="cls-10" points="252.87 211.87 265.62 245.87 238.24 256.13 234.79 263.71 273.19 249.31 271.13 243.8 256.32 204.29 252.87 211.87"/><rect class="cls-11" x="-709.57" y="247.85" width="36.3" height="29.24" transform="translate(734.03 789.29) rotate(69.45)"/><rect class="cls-5" x="-771.85" y="312.24" width="41.01" height="48.08" transform="translate(771.12 -270.81) rotate(-20.55)"/><polygon class="cls-10" points="192.95 285.68 205.69 319.68 178.32 329.94 174.87 337.52 213.27 323.12 211.21 317.61 196.4 278.1 192.95 285.68"/><rect class="cls-11" x="-769.5" y="321.66" width="36.3" height="29.24" transform="translate(764.25 893.3) rotate(69.45)"/><rect class="cls-5" x="-733.45" y="297.84" width="41.01" height="48.08" transform="translate(778.62 -258.25) rotate(-20.55)"/><polygon class="cls-10" points="231.35 271.29 244.09 305.28 216.72 315.54 213.27 323.12 251.67 308.73 249.6 303.21 234.79 263.71 231.35 271.29"/><rect class="cls-11" x="-731.1" y="307.26" width="36.3" height="29.24" transform="translate(775.7 848) rotate(69.45)"/><rect class="cls-5" x="-695.05" y="283.45" width="41.01" height="48.08" transform="translate(786.12 -245.68) rotate(-20.55)"/><polygon class="cls-10" points="269.75 256.89 282.49 290.88 255.12 301.15 251.67 308.73 290.07 294.33 288 288.82 273.19 249.31 269.75 256.89"/><rect class="cls-11" x="-692.7" y="292.87" width="36.3" height="29.24" transform="translate(787.14 802.7) rotate(69.45)"/><rect class="cls-12" x="-786.78" y="229.91" width="123.1" height="118.23" transform="translate(789.37 -264.65) rotate(-20.55)"/><rect class="cls-13" x="-676.36" y="209.89" width="9.06" height="118.23" transform="translate(799.8 -247.18) rotate(-20.55)"/><rect class="cls-14" x="-783.15" y="249.92" width="9.06" height="118.23" transform="translate(778.95 -282.12) rotate(-20.55)"/><polygon class="cls-13" points="287.2 285.73 290.38 294.21 174.87 337.52 180.18 325.85 287.2 285.73"/><polygon class="cls-13" points="133.37 226.81 232.6 244.88 248.64 183.6 133.37 226.81"/><polygon class="cls-15" points="248.64 183.6 226.72 236.87 133.37 226.81 248.64 183.6"/><path class="cls-16" d="M-785.76,118.65c-.85-1.42,1.25-2.19,2.33-3-.24.34-.5.8.06.73a4,4,0,0,0,2.59-1.78,3.74,3.74,0,0,1,.79,1.23C-779.78,116.36-785.52,119-785.76,118.65Z" transform="translate(936.98 -28.47)"/><path class="cls-17" d="M-783.37,116.42c-.56.07-.87-.21-.15-.67a6.55,6.55,0,0,0,1.19-1,5.54,5.54,0,0,0,.33-1.83l.8-.14a15.71,15.71,0,0,0,.42,1.87A4,4,0,0,1-783.37,116.42Z" transform="translate(936.98 -28.47)"/><path class="cls-16" d="M-765.54,155.3c-.9-1.39,1.18-2.24,2.22-3-.22.35-.47.82.09.72a4,4,0,0,0,2.53-1.86,3.76,3.76,0,0,1,.83,1.2C-759.65,152.8-765.29,155.68-765.54,155.3Z" transform="translate(936.98 -28.47)"/><path class="cls-17" d="M-763.23,153c-.56.1-.87-.18-.18-.66a6.43,6.43,0,0,0,1.16-1,1.19,1.19,0,0,0,.13-.86l.6-.3s.71.91.82,1A4,4,0,0,1-763.23,153Z" transform="translate(936.98 -28.47)"/><path d="M-746.53,91.42s-11.16-2.31-11.39-2.28c-.75,1-3.65,7.29-3.65,7.29s-15.07-13.23-20.76-8.71c-5.48,4.37-1.12,24.13.08,26.19.45.76,2.68-1.13,2.68-1.13.41-3,1.8-15.86,1.8-15.86s9.88,11.33,20.72,12.42C-754.49,109.6-746.53,91.42-746.53,91.42Z" transform="translate(936.98 -28.47)"/><path d="M-751.34,89.67h7.05c8.44,20,3.12,21.41.29,23.49-1.85,1.36-14.35,10.69-14.35,10.69s-1.58,26.39-2.5,26.47-1.93.53-2.63.28c-.08,0-7.19-29.16-2.23-34.75l10.51-11.79Z" transform="translate(936.98 -28.47)"/><path class="cls-2" d="M-743.27,91.11c.27-4.31.81-6,.5-12.18-.08-1.57-2-7.55-4.43-8.15-1.25-.3-8.42-.5-12.22,1.8-1.68,1-2,16-.58,20.54C-759.43,94.89-743.52,95-743.27,91.11Z" transform="translate(936.98 -28.47)"/><path class="cls-4" d="M-749.12,70.61s3.77-.25,6.3,1.13c1.2.66,2.41,2.61,3.37,4.36a102.75,102.75,0,0,1,5.63,14.65c.6,2.77-2,1.23-4.89,1.25l-.82-1.85a54.86,54.86,0,0,1-3.58-9.06C-744,78.84-749.12,70.61-749.12,70.61Z" transform="translate(936.98 -28.47)"/><path class="cls-2" d="M-757.69,73.3s0-2.26-2.14-.29A56.82,56.82,0,0,0-765,80.15c-1.63,2.8-4.8,7.63-4.72,10,.1,2.83,4.15,1.4,4.15,1.4s5.26-7.08,6.59-11.91C-758.34,77.32-757.69,73.3-757.69,73.3Z" transform="translate(936.98 -28.47)"/><path class="cls-2" d="M-765.51,106.09c.62-.67,0-14.48-.18-15.62a2.26,2.26,0,0,0-3.74-1.07c-.65.56-1.13,6.06-1.55,8.56C-771.68,102.23-770.55,111.57-765.51,106.09Z" transform="translate(936.98 -28.47)"/><path class="cls-4" d="M-742.78,78.93c.32,6.14-.22,7.88-.49,12.18-.13,2.13-4.86,3.06-9.25,3.18a126.76,126.76,0,0,0,.13-23.58,21.69,21.69,0,0,1,5.19.08C-744.72,71.38-742.86,77.36-742.78,78.93Z" transform="translate(936.98 -28.47)"/><path class="cls-17" d="M-754.52,69.19s.51,2.57.86,2.72a1.29,1.29,0,0,0,1.63-.69c.25-.81-1.13-2.64-1.13-2.64Z" transform="translate(936.98 -28.47)"/><path class="cls-18" d="M-754.08,71c.61,0,1.24-.68,1.65-1.35-.17-.43-.18-.28-.39-.61l-1.58.7C-754.32,70.14-754.2,70.61-754.08,71Z" transform="translate(936.98 -28.47)"/><path class="cls-17" d="M-752,67.08c0-.13.06-.32-.2-.45-.46-.23-.66-.59-1.25-1.83a6.24,6.24,0,0,1-.35-1.07,1.44,1.44,0,0,0-1.56,0,11,11,0,0,0-3,2c-.44.69,0,1.6.24,2.28a5.38,5.38,0,0,0,1.69,2.17,3.45,3.45,0,0,0,2.49,0C-752.1,69.25-751.79,68.54-752,67.08Z" transform="translate(936.98 -28.47)"/><path class="cls-19" d="M-768.55,116.9l-1.87-.77,5.43-13.19a1,1,0,0,1,1.32-.55h0a1,1,0,0,1,.54,1.32Z" transform="translate(936.98 -28.47)"/><path class="cls-15" d="M-763,103.33a1,1,0,0,1-.07.38l-2.38,5.78-1.87-.76,2.38-5.79a1,1,0,0,1,1.31-.54A1,1,0,0,1-763,103.33Z" transform="translate(936.98 -28.47)"/><path class="cls-17" d="M-768.61,106.2a.87.87,0,0,0-.26.61,8,8,0,0,0,.65,1.83c.22.36.6,1.06,1.18,1.22,0,0,.19-.08,0-.37,0,0,.63.66.89.56s.08-.5.08-.5a.23.23,0,0,0,.3-.16,10.51,10.51,0,0,0-1-2.07l.14-.36a3.33,3.33,0,0,0-.73-.55,4.19,4.19,0,0,1-.57-.44C-768,105.85-768.4,106-768.61,106.2Z" transform="translate(936.98 -28.47)"/><path class="cls-19" d="M-758.12,101.45l1.7-1.19,6.53,9.32a1,1,0,0,1-.25,1.45h0a1,1,0,0,1-1.45-.26Z" transform="translate(936.98 -28.47)"/><rect class="cls-15" x="-756.75" y="100.36" width="2.08" height="5.43" transform="matrix(0.82, -0.57, 0.57, 0.82, 741.01, -443.48)"/><path class="cls-10" d="M-753.82,98.81c0,.06,0,.16-.06.16a3,3,0,0,0-2.54,1.29l-1.71,1.2s-.55-.38-.92-.13-.19.91-.19.91l-.56.39a.4.4,0,0,1-.55-.1l-1-1.4a.4.4,0,0,1,.1-.55l.59-.41a1.14,1.14,0,0,0,.81,0c.33-.16.23-.78.23-.78l1.16-.81C-757.24,97.78-754.67,97.6-753.82,98.81Z" transform="translate(936.98 -28.47)"/><path class="cls-17" d="M-751.6,102.28a.38.38,0,0,1,.18.45c-.17.39-.07.55-.38,1.3,0,0-1.51,2-2.63,2.2a1,1,0,0,1-.65-.08c-.11-.05.61-1.13.61-1.13s-1,1-1.08.77a5.06,5.06,0,0,1,1.36-2.33l-.24-.38a4.56,4.56,0,0,1,1.12-.66,7.47,7.47,0,0,0,.91-.52C-752.25,101.78-751.91,102.07-751.6,102.28Z" transform="translate(936.98 -28.47)"/><path class="cls-4" d="M-753.84,100.73c-.14-.4,16.09-10.9,17.35-11.58s3,.38,2.85,3.24c-.06,1.07-5.05,5-7.21,7.28C-744.54,103.57-750.86,109.49-753.84,100.73Z" transform="translate(936.98 -28.47)"/><path class="cls-2" d="M-828.07,176.16a1.08,1.08,0,0,1-.19,1.28c-2.48,2.44-11.6,12.13-14.31,13.44-1.35.65-5,3.05-4.91-.46a28.35,28.35,0,0,1,3.09-9.26C-841.12,175-832.83,167.05-828.07,176.16Z" transform="translate(936.98 -28.47)"/><path class="cls-17" d="M-830,174.83a.62.62,0,0,1-.19-.71c.26-.64.74-1.7,1.33-2.87a6.2,6.2,0,0,1,1.42-1.73,4.06,4.06,0,0,1,1.64-.76c.67-.13.52.38.52.38a.41.41,0,0,1,.53.28c.12.42-1,2.61-1.82,3.37,0,0,.88-.79,1-.45s-1.49,2-2.22,2.14a7,7,0,0,0-1,.74C-829,175.43-829.59,175.14-830,174.83Z" transform="translate(936.98 -28.47)"/><path class="cls-4" d="M-823.81,177a1.07,1.07,0,0,0-.33,1.22c1.25,3.2,6.45,16.81,7.59,18.18s2.38,4.36,4.36.55c.86-1.65.83-7.13.56-9.26C-812.51,180.89-815.88,170.71-823.81,177Z" transform="translate(936.98 -28.47)"/><path class="cls-17" d="M-820.66,176.82a.62.62,0,0,0,.39-.62c-.05-.7-.19-1.85-.4-3.14a6.46,6.46,0,0,0-.84-2.08,3.86,3.86,0,0,0-1.33-1.21c-.61-.33-.62.2-.62.2a.41.41,0,0,0-.59.11c-.24.36.22,2.81.73,3.76,0,0-.6-1-.85-.74s.82,2.35,1.47,2.71a6.78,6.78,0,0,1,.77,1C-821.79,177.09-821.11,177-820.66,176.82Z" transform="translate(936.98 -28.47)"/><path class="cls-4" d="M-816.85,196a15.33,15.33,0,0,1-4.81,5.39,7.71,7.71,0,0,1-4.75,1.39c-3.55-.14-10.15-.54-13.36-.77a2.43,2.43,0,0,1-2.2-2v0c-.76-4-1.19-8.77-1.19-8.77l-4-2.57s-1.89,5,.58,12.72a24.94,24.94,0,0,0,2.69,5.7c.26.44,1.26,5.21,1.59,6.95.52,2.74,1.52,6.21,1.92,7.7,4.39,2.11,14.34.88,16.38.38,0-.14.61-3.64.94-6.65.3-2.76.94-5,1.24-6.85a3.57,3.57,0,0,1,.9-1.62,10.27,10.27,0,0,1,1.79-1.42c6.67-4.62,7.39-10,7.39-10Z" transform="translate(936.98 -28.47)"/><path class="cls-2" d="M-835.67,202.23l-.57,0-3.53-.23a2.43,2.43,0,0,1-2.2-2v0c-.76-4-1.19-8.77-1.19-8.77l-4-2.57s-1.89,5,.58,12.72a24.94,24.94,0,0,0,2.69,5.7c.26.44,1.26,5.21,1.59,6.95.52,2.74,1.52,6.21,1.92,7.7a17.45,17.45,0,0,0,6.59,1.18h.75A52.07,52.07,0,0,1-836,210.83,34.79,34.79,0,0,1-835.67,202.23Z" transform="translate(936.98 -28.47)"/><path class="cls-17" d="M-831.17,199.26s.73,3.25.4,3.61a1.63,1.63,0,0,1-2.25,0c-.72-.82-.05-3.65-.05-3.65Z" transform="translate(936.98 -28.47)"/><path class="cls-18" d="M-830.75,201.63a4,4,0,0,1-2.6.13,9.66,9.66,0,0,1,.14-1.76H-831C-830.93,200.47-830.82,201.09-830.75,201.63Z" transform="translate(936.98 -28.47)"/><path class="cls-17" d="M-834.39,200.05a2.64,2.64,0,0,1-.26-.52c-.08-.18.27.19.09-.87a10.68,10.68,0,0,0-.39-1.26c0-.08-.15-.34-.17-.42-.11-.31-.49-.52-.42-.82a1.42,1.42,0,0,1,1.12-1.12,11.85,11.85,0,0,1,3.67-.75c.84.2,1.21,1.17,1.51,1.88a5.59,5.59,0,0,1,.35,2.86,3.57,3.57,0,0,1-1.83,1.86C-832.71,201.59-833.46,201.29-834.39,200.05Z" transform="translate(936.98 -28.47)"/><path class="cls-19" d="M-834,301.43l23.66-.55c2.09-.05.8,2.47-.83,2.5l-23.66.55c-2.09.05-.8-2.47.83-2.5Z" transform="translate(936.98 -28.47)"/><path class="cls-19" d="M-838.41,286l25.34-.59c1.52,0,2.57,3,.9,3l-25.33.58c-1.53,0-2.58-3-.91-3Z" transform="translate(936.98 -28.47)"/><path class="cls-19" d="M-829.7,331.14l24.27-.57c1.56,0,1.15,3.15-.47,3.18l-24.27.57c-1.55,0-1.14-3.15.47-3.18Z" transform="translate(936.98 -28.47)"/><path class="cls-19" d="M-832.83,316.36l24.26-.57c1.68,0,2.53,2.56.44,2.61l-24.25.56c-1.68,0-2.54-2.56-.45-2.6Z" transform="translate(936.98 -28.47)"/><path class="cls-19" d="M-823.2,361.63l23.2-.54c2,0,1.92,2.37-.07,2.41l-23.19.54c-2,0-1.93-2.36.06-2.41Z" transform="translate(936.98 -28.47)"/><path class="cls-19" d="M-826.7,346.39l23.7-.55c1.56,0,2.64,2.73.63,2.77l-23.69.55c-1.56,0-2.64-2.72-.64-2.77Z" transform="translate(936.98 -28.47)"/><path class="cls-19" d="M-840.62,262.09q3.71,20.9,7.42,41.79l11.76,66.26q1.35,7.65,2.71,15.31c.37,2.07-2.16,1.61-2.47-.16q-3.7-20.9-7.42-41.79l-11.76-66.26q-1.35-7.65-2.71-15.31c-.37-2.07,2.16-1.61,2.47.16Z" transform="translate(936.98 -28.47)"/><path class="cls-19" d="M-816,262l7.41,41.79,11.76,66.27q1.37,7.65,2.72,15.3c.36,2.06-2.33,1.22-2.61-.39q-3.7-20.89-7.42-41.79L-815.89,277q-1.35-7.65-2.71-15.3c-.37-2.06,2.32-1.22,2.61.39Z" transform="translate(936.98 -28.47)"/><path class="cls-12" d="M-824.37,303.41l-23.54-.54c-1.56,0-2.6-2.83-.6-2.78l23.54.55c1.56,0,2.6,2.82.6,2.77Z" transform="translate(936.98 -28.47)"/><path class="cls-12" d="M-821.77,288.17l-24-.55c-1.8-.05-2.57-2.49-.46-2.44l24,.56c1.81,0,2.58,2.48.46,2.43Z" transform="translate(936.98 -28.47)"/><path class="cls-12" d="M-829.63,333.62l-24-.55c-1.51,0-2.65-3-.81-2.92l24,.55c1.51,0,2.65,3,.81,2.92Z" transform="translate(936.98 -28.47)"/><path class="cls-12" d="M-827,318.48l-23.8-.55c-1.56,0-2.65-2.82-.65-2.77l23.8.55c1.56,0,2.65,2.81.65,2.77Z" transform="translate(936.98 -28.47)"/><path class="cls-12" d="M-835.47,363.51l-24.11-.56c-2-.05-1.78-2.45.21-2.4l24.1.55c2,0,1.79,2.45-.2,2.41Z" transform="translate(936.98 -28.47)"/><path class="cls-12" d="M-832.91,348.45l-23.75-.55c-2.11,0-1.4-2.48.42-2.43l23.76.55c2.11,0,1.4,2.48-.43,2.43Z" transform="translate(936.98 -28.47)"/><path class="cls-12" d="M-815.92,261.88q-3.71,20.89-7.42,41.79-5.88,33.13-11.75,66.26-1.36,7.65-2.72,15.3c-.28,1.57-3.39.77-3.11-.82q3.72-20.9,7.42-41.79l11.76-66.27q1.35-7.65,2.71-15.3c.28-1.56,3.39-.76,3.11.83Z" transform="translate(936.98 -28.47)"/><path class="cls-12" d="M-840.83,261.41q-3.7,20.89-7.42,41.79L-860,369.46q-1.35,7.65-2.71,15.31c-.35,1.94-2.76,1.77-2.4-.22l7.41-41.8,11.76-66.26q1.37-7.65,2.72-15.3c.34-1.94,2.75-1.77,2.4.22Z" transform="translate(936.98 -28.47)"/><path class="cls-20" d="M-838.45,302.07c0-1.51-2.2-1.3-3.66-1.71.44.26.87.64.2.85-1,.31-3.18.05-3.84-.65a4.58,4.58,0,0,0-.26,1.8C-846,303-838.48,303.34-838.45,302.07Z" transform="translate(936.98 -28.47)"/><path class="cls-17" d="M-841.91,301.21c.67-.21.24-.59-.2-.85-.91-.25-1.67-.42-1.84-.49a1.06,1.06,0,0,1-.57-.59l-.46-.08s-.71,1.2-.77,1.36C-845.09,301.26-842.9,301.52-841.91,301.21Z" transform="translate(936.98 -28.47)"/><path class="cls-20" d="M-826.55,302.07c.14-1.47-2.21-1.3-3.66-1.71.43.26.87.64.2.85-1,.31-3.18.05-3.85-.65a4.56,4.56,0,0,0-.25,1.8C-834.08,303-826.67,303.33-826.55,302.07Z" transform="translate(936.98 -28.47)"/><path class="cls-17" d="M-830,301.21c.67-.21.23-.59-.2-.85-.91-.25-1.67-.42-1.84-.49a1.06,1.06,0,0,1-.57-.59l-.46-.08s-.71,1.2-.78,1.36C-833.19,301.26-831,301.52-830,301.21Z" transform="translate(936.98 -28.47)"/><path class="cls-3" d="M-840.41,221.71c0,.21-5,5.23-6.22,10.87-2.82,12.54.08,58.67.56,65.91a1,1,0,0,0,1,1l.84,0a.82.82,0,0,0,.84-.68l10.49-58.69,2.44,18.42-3.28,40.81,1.64.16s12.6-33.74,13.39-42.81c2.11-23.92-4.72-33.8-5.31-35.24C-825.88,222.37-836.71,223.35-840.41,221.71Z" transform="translate(936.98 -28.47)"/><path class="cls-3" d="M-840.41,221.71c0,.21-5,5.23-6.22,10.87-2.82,12.54.08,58.67.56,65.91a1,1,0,0,0,1,1l.84,0a.82.82,0,0,0,.84-.68l10.49-58.69a81,81,0,0,1-1-9.53,32.42,32.42,0,0,1,.84-8h-.55A19,19,0,0,1-840.41,221.71Z" transform="translate(936.98 -28.47)"/><path class="cls-21" d="M-834.81,68.16c2.06-4-1.54-9-7.42-10.26s-12.87,1.47-14.41,5.61c0-3.24,0-6.62-2.13-9.51a11.89,11.89,0,0,0-11.36-4.2c-5.79,1.2-7.26,6.34-7.7,10.54,1-8.24-1.43-16.65-6.82-24-2.62-3.57-7.11-7.32-12.84-6.91-5.36.38-8.68,4.18-10.69,7.66a46.21,46.21,0,0,0-6,30.59c3.15-5.23-4.29-11.9-12.36-11.08s-12.44,8.7-7.27,13.08Z" transform="translate(936.98 -28.47)"/><path class="cls-21" d="M-834.51,68.33c2.45-5.16-2.51-9.7-7.21-10.88-5.24-1.3-13.1.27-15.49,5.73l1.22.33c0-3.67-.18-7.57-2.68-10.51a12.63,12.63,0,0,0-9.48-4.14c-6.85,0-9.88,5.34-10.59,11.48h1.83a35,35,0,0,0-5.91-23c-3.65-5.48-9.49-10.05-16.46-8.6s-10.57,8.64-13,14.65A46.94,46.94,0,0,0-915,67.9a.92.92,0,0,0,1.66.22c3.72-7-5.41-12.28-11.27-12.5S-939,60.3-936.53,67.31c.47,1.32,1.5,3,2.93,3.25a10.71,10.71,0,0,0,2,0l9.49-.14,68.07-1,19.27-.29a.9.9,0,0,0,0-1.8l-42.76.65-53.74.81a7.81,7.81,0,0,1-2.21,0c-.55-.18.3.21-.25-.33a5.05,5.05,0,0,1-.8-5.71c2-4.48,7.79-6,12.23-5,3.91.86,9.94,4.74,7.41,9.47l1.66.22a44.92,44.92,0,0,1,2-21.45c2-5.79,5.25-13.43,11.75-15.29,7.06-2,12.75,3.58,16.07,9.1a33.22,33.22,0,0,1,4.71,20.56c-.12,1.17,1.7,1.15,1.83,0,.57-5,3-9.85,8.76-10a11.13,11.13,0,0,1,8.27,3.41c2.42,2.71,2.55,6.31,2.59,9.76,0,.6.95,1,1.21.33,1.85-4.36,7.71-6,12.06-5.62,4.59.39,11.26,4.23,8.92,9.77C-835.27,68.38-834.7,68.74-834.51,68.33Z" transform="translate(936.98 -28.47)"/></svg>