<?xml version="1.0" encoding="UTF-8"?>
<!DOCTYPE svg PUBLIC "-//W3C//DTD SVG 1.1//EN" "http://www.w3.org/Graphics/SVG/1.1/DTD/svg11.dtd">
<!-- Creator: CorelDRAW -->
<svg xmlns="http://www.w3.org/2000/svg" xml:space="preserve" width="26.5998mm" height="12.7251mm" version="1.1" style="shape-rendering:geometricPrecision; text-rendering:geometricPrecision; image-rendering:optimizeQuality; fill-rule:evenodd; clip-rule:evenodd"
viewBox="0 0 391.84 187.45"
 xmlns:xlink="http://www.w3.org/1999/xlink">
 <defs>
  <style type="text/css">
   <![CDATA[
    .fil8 {fill:white}
    .fil1 {fill:black}
    .fil0 {fill:#734015}
    .fil5 {fill:#8C5D2B}
    .fil7 {fill:#B8B8D9}
    .fil4 {fill:#E2E2FB}
    .fil3 {fill:#EF2424}
    .fil6 {fill:#F89191}
    .fil2 {fill:#FA7B7B}
    .fil10 {fill:white}
    .fil9 {fill:#734015;fill-rule:nonzero}
   ]]>
  </style>
 </defs>
 <g id="Layer_x0020_1">
  <metadata id="CorelCorpID_0Corel-Layer"/>
  <g id="_105553433408480">
   <g>
    <path class="fil0" d="M75.88 76.69l0.16 -0.43 1.21 -0.08c-0.61,-2.71 3.13,-2.66 9.41,-7.15 2.73,-1.95 6.88,-6.25 10.72,-6.99 -6.21,-8.91 -10.27,-22.59 -14.67,-26.72 -2.53,2.86 -4.55,5.57 -7.55,7.32 -4.44,2.58 -8.75,0.51 -8.79,-4.16l1.05 -0.37c0.21,-0.98 0.36,-1.2 0.39,-2.42 -0.83,-0.4 -2.02,-0.51 -3.01,-0.78 -2.86,6.48 -9.94,2.66 -10.48,-4.18 -0.17,-2.19 0.42,-1.84 -1.63,-3.03 -1.48,-0.86 -1.59,-0.72 -2.36,-2.73 -0.51,-1.31 -0.9,-2.58 -0.78,-3.93 0.05,-0.5 0.31,-1.88 0.49,-2.27 0.86,-1.87 0.06,-0.79 1.31,-1.29 -0.15,-1.45 -0.35,-1.1 -1.18,-2 -2.57,1.69 -3.6,-1.86 -11.25,-0.78 -6.04,0.85 -13.82,5.67 -18.62,9.53 -1.2,0.97 -2.81,2.03 -4.12,2.94 -1.08,0.76 -3.57,2.24 -4.21,2.88 -1.76,9.41 1.16,20.52 5.18,28.47 2.98,5.9 5.54,11.39 8.99,16.88 1.06,1.69 2.26,4.29 3.44,5.57 5.06,0.28 7.72,0.26 12.57,-0.75 3.02,-0.63 7.61,-1.93 10.69,-0.53l1.25 0.66c2.74,-1.83 18.22,-5.11 21.79,-3.65z"/>
    <path class="fil1" d="M82.04 179.9l0.52 0.52c0,0 0.9,0.97 2.02,0.97 1.12,0 6.28,-2.69 6.28,-2.69l3.93 -2.37 19.91 -14.59c1.97,-1.6 4.12,-3.02 6.17,-4.41 6.83,-4.61 11.14,-7.71 18.26,-11.92l1.49 -0.96c0.05,-0.04 0.16,-0.12 0.24,-0.19l-5.8 -9.23c-3.8,-6.62 -8.81,-20.53 -12.83,-28.32l-1.45 -2.6c-0.62,-2.06 -11.24,-21.48 -13.76,-24.95 -1.79,0.36 -2.7,1.31 -4.94,1.82 -2.55,0.57 -3.97,3.71 -6.93,7.12 -1.37,1.57 -1.93,2.3 -3.25,3.8l-5.98 7.74c-5.6,7.6 -5.82,7.66 -11.29,16.53 -0.58,0.95 -0.79,1.51 -1.26,2.26 -0.54,0.85 -0.87,1.22 -1.42,2.1l-12.37 18.99c-1.17,1.71 -0.3,1.36 -1.99,1.55 -0.49,-0.94 -0.34,0.05 -0.2,-1.49 1.75,-1.88 15.76,-26.72 18.55,-30.74l20.13 -26.13c0.87,-0.96 0.96,-0.51 1.13,-1.81 -11.37,-0.24 -13.21,-5.64 -21.63,7.97 -5.9,9.54 -12.86,8.74 -23.79,7.99 -2.77,-0.19 -9.35,1.43 -12.15,3.87 -1.23,1.07 -1.13,1.72 -2.31,3.02 0.07,0.07 0.19,0.07 0.22,0.2l0.6 0.63c0.41,0.52 0.28,0.36 0.61,0.97 5.69,10.41 11.59,23.18 17.7,34.46l8.72 15.14c1.16,1.95 8.02,13.1 9.55,14.64 2.35,3.83 4.77,7.13 7.36,10.1zm14.37 0.21c-2.39,1.76 -13.48,6.89 -13.58,7.33 -5.41,0.45 -13.8,-8.37 -17.46,-12.53l-14.94 -23.47c-0.79,-1.46 -1.46,-2.63 -2.23,-4.04 -5.11,-9.33 -8.67,-14.93 -12.75,-25.66l-3.3 -9.24 -12.39 3.13c2.22,-2.29 9.26,-2.4 12.2,-6.48 2.26,-3.15 1.52,-6.68 5.76,-10.69 0.06,-0.06 0.14,-0.13 0.2,-0.19 5.19,-4.87 6.27,0.66 19.03,-11.93l5.33 -4.43c-7.9,-1.43 -8.91,0.55 -13.25,2.34 0.82,-1.45 1.36,-0.86 1.85,-2.12 -2.03,0.47 -4.15,0.71 -6.36,1.18 -2.46,0.53 -4.23,1.04 -6.87,1.04 -5.81,-0 -8.33,-0.98 -14.87,-0.32 0.14,1.6 0.44,1.11 0.76,2.54 -1.19,-0.51 -1.65,-1.22 -2.43,-2.13l-2.26 0.94c0.4,-1.31 0.48,-0.76 1.26,-1.89 -0.85,-1.16 -1.33,-1.9 -2.22,-2.93 -4.41,10.22 2.19,12.89 -2.63,17.38 -4.45,4.14 1.09,10.01 0.59,18.86l-1.33 0.78c-0.75,-1.56 -1.08,-4.03 -1.56,-5.88 -1.45,-5.49 -4.55,-10.54 -0.36,-14.85 0.06,-0.06 0.14,-0.14 0.2,-0.19 4.14,-4.29 -2.62,-7.03 0.14,-12.4 3.98,-7.74 3.45,-5.72 1.46,-9.27l-3.6 -7.38c-0.49,-1.04 -0.62,-1.48 -1.04,-2.49l-4.24 -9.88c-0.96,-1.7 -1.53,-3.33 -2.37,-5.07 -0.77,-1.59 -1.4,-3.2 -2.01,-5.04 -0.67,-2.02 -1.04,-2.54 -1.12,-4.83l0 -3.08c0.09,-1.51 0.49,-2.55 2.15,-2.73 1.25,2.08 -0.24,5.95 3.36,13.69 4.53,9.75 5.59,14.19 10.18,23.51l5.86 10.96c2.76,-0.65 1.37,-0.87 6.55,-1.6l-6.73 -10.72c-4.85,-7.97 -8.17,-14.8 -11.4,-23.88 -2.19,-6.13 -2.36,-8.39 -0.96,-14.5 -2.2,0.72 -4.06,2.23 -6.27,2.19 0.66,-1.36 0.11,-0.61 1.05,-1.36l9.77 -6.69c6.64,-5.05 15.2,-12.37 23.38,-14.25 3.32,-0.76 4.38,-1.09 7.91,-0.26 2.29,0.54 4.85,1.44 5.32,3.86 -2.57,1.69 -3.6,-1.86 -11.25,-0.78 -6.04,0.85 -13.82,5.67 -18.62,9.53 -1.2,0.97 -2.81,2.03 -4.12,2.94 -1.08,0.76 -3.57,2.24 -4.21,2.88 -1.76,9.41 1.16,20.52 5.18,28.47 2.98,5.9 5.54,11.39 8.99,16.88 1.06,1.69 2.26,4.29 3.44,5.57 5.06,0.28 7.72,0.26 12.57,-0.75 3.02,-0.63 7.61,-1.93 10.69,-0.53l1.25 0.66c2.74,-1.83 18.22,-5.11 21.79,-3.65 -0.69,1.76 -1.37,1.78 -2.59,2.61 -5.72,1.42 -3.4,2.28 -5.99,3.3 -2.42,0.95 -4.19,1.89 -5.81,3.21 -1.56,1.28 -7.79,8.03 -8.62,9.48l7.43 -0.85c0.48,-0.06 0.84,-0.07 1.32,-0.22 1.08,-0.34 0.43,-0.03 1.17,-0.59 5.23,0.02 10.18,-4.67 13.06,-8.37 4.06,-5.2 3.5,-7.88 13.51,-7.92 7.57,-0.03 12.29,0.86 18.39,-2.5 4.48,-2.47 4.85,-4.6 12.19,-6.99l1.7 -0.72c0.06,-0.04 0.18,-0.1 0.26,-0.17 -3.51,-2.96 -1.56,-8.77 -7.62,-9.49 -3.84,-0.46 -12.54,-1.05 -15.76,0.33 -0.03,1.71 0.86,2.42 0.83,4.63l-9.89 8.62c-1.55,1.22 -9.84,7.15 -12.22,5.12 -0.61,-2.71 3.13,-2.66 9.41,-7.15 2.73,-1.95 6.88,-6.25 10.72,-6.99 -6.21,-8.91 -10.27,-22.59 -14.67,-26.72 -2.53,2.86 -4.55,5.57 -7.55,7.32 -4.44,2.58 -8.75,0.51 -8.79,-4.16l1.05 -0.37c1.75,1.07 1.65,6.78 9.7,-1.34 0.71,-0.71 1.57,-1.45 2.12,-2.19 0,0 3.32,-5.75 4.15,-1.95 0.59,2.71 -1.34,0.5 0.5,3.02 3.01,4.12 3.93,4.35 7.27,10 1.19,2.01 1.86,3.54 3.14,5.48 1.23,1.87 2.13,3.59 3.3,5.33 1.2,-0.28 2.18,-0.84 3.41,-1.29 2.94,-1.07 8.28,-1.14 11.51,-0.69 7.83,1.1 9.12,3.61 11.52,10.87 0.5,1.5 0.5,1.75 -0.06,2.95 -0.76,1.62 -0.88,1.34 -2.5,1.85 -1.68,0.53 -1.56,0.46 -2.94,1.37l-5.36 3.66c-1.33,1 -4.22,2.59 -4.98,3.64l12.12 16.1c2.81,4.68 8.75,16.58 11.32,21.99 3.76,7.9 7.79,15.44 11.33,23.56 0.34,0.78 0.67,1.24 0.92,1.84 0.18,0.44 0.31,0.69 0.36,0.95l0 0.69c-0.04,0.23 -0.11,0.51 -0.21,0.89 -0.88,3.21 0.14,2.39 -1.22,3.87l-41.51 28.28c-0.74,0.5 -0.77,0.61 -1.58,1.17 -0.95,0.65 -2.4,1.54 -3.3,1.99l-0.01 0zm-36.98 -30.62l11.86 19.86c-1.49,-0.15 -4.13,-0.47 -5.48,-0.79 -1.85,-0.45 -1.95,-1.64 -2.97,-3.3 -1.73,-2.83 -13.17,-22.22 -13.61,-23.82 2.85,0.98 3.01,1.61 6.28,1 1.53,2.02 2.53,4.66 3.91,7.05zm-26.73 -37.92c3.96,-0.9 2.65,-3.42 4.53,-6.02l8.31 17.06c2.69,5.93 6.1,11.51 8.47,17.03l-5.94 0.52c-0.8,-2.7 -13.9,-24.3 -15.36,-28.58z"/>
    <path class="fil2" d="M57.36 139.58c-0.65,0.25 -0.39,-0.05 -0.96,0.44l8.72 15.15c1.16,1.95 8.02,13.1 9.55,14.64l0.82 -0.81 37.79 -57.67c1.18,-1.52 1.87,-2.33 2.95,-3.7 2.16,-2.74 1.93,-3.5 3.74,-2.69l0.8 -0.82c-0.62,-2.06 -11.24,-21.48 -13.76,-24.95 -1.79,0.36 -2.7,1.31 -4.94,1.82 -2.55,0.57 -3.97,3.71 -6.93,7.12 -1.37,1.57 -1.93,2.3 -3.25,3.8l-5.98 7.74c-5.6,7.6 -5.82,7.66 -11.29,16.53 -0.58,0.95 -0.79,1.51 -1.26,2.26 -0.54,0.85 -0.87,1.22 -1.42,2.1l-12.37 18.99c-1.17,1.71 -0.3,1.36 -1.99,1.55 -0.49,-0.94 -0.34,0.05 -0.2,-1.49z"/>
    <path class="fil3" d="M119.96 104.93c0.58,1.8 -1.21,3.33 -1.98,4.46 -4.62,6.85 -8.46,13.56 -13.76,20.72l-14.53 19.96c-1.95,2.73 -13.78,19.11 -14.21,18.92l-0.82 0.81c2.38,3.88 4.84,7.23 7.48,10.23 0.84,0.76 1.12,4.36 10.37,-2.05l22.17 -16.24c1.97,-1.6 4.12,-3.02 6.17,-4.41 6.83,-4.61 11.14,-7.71 18.26,-11.92l1.49 -0.96c0.05,-0.04 0.16,-0.12 0.24,-0.19l-5.8 -9.23c-3.8,-6.62 -8.81,-20.53 -12.83,-28.32l-1.45 -2.6 -0.8 0.82z"/>
    <path class="fil3" d="M56.4 140.02c0.57,-0.48 0.31,-0.18 0.96,-0.44 1.75,-1.88 15.76,-26.72 18.55,-30.74l20.13 -26.13c0.87,-0.96 0.96,-0.51 1.13,-1.81 -11.37,-0.24 -13.21,-5.64 -21.63,7.97 -5.9,9.54 -12.86,8.74 -23.79,7.99 -2.77,-0.19 -9.35,1.43 -12.15,3.87 -1.23,1.07 -1.13,1.72 -2.31,3.02 0.07,0.07 0.19,0.07 0.22,0.2l0.6 0.63c0.41,0.52 0.28,0.36 0.61,0.97 5.69,10.42 11.59,23.18 17.7,34.46z"/>
    <path class="fil4" d="M15.83 116.81c0.59,-0.36 3.03,-1 3.91,-1.18 2.22,-2.29 9.26,-2.4 12.2,-6.48 2.26,-3.15 1.52,-6.68 5.76,-10.69 0.06,-0.06 0.14,-0.13 0.2,-0.19 5.19,-4.87 6.27,0.66 19.03,-11.93l5.33 -4.43c-7.9,-1.43 -8.91,0.55 -13.25,2.34 0.82,-1.45 1.36,-0.86 1.85,-2.12 -2.03,0.47 -4.15,0.71 -6.36,1.18 -2.46,0.53 -4.23,1.04 -6.87,1.04 -5.81,-0 -8.33,-0.98 -14.87,-0.32 0.14,1.6 0.44,1.11 0.76,2.54 -1.19,-0.51 -1.65,-1.22 -2.43,-2.13l-2.26 0.94c0.4,-1.31 0.48,-0.76 1.26,-1.89 -0.85,-1.16 -1.33,-1.9 -2.22,-2.93 -4.41,10.22 2.19,12.89 -2.63,17.38 -4.45,4.14 1.09,10.01 0.59,18.86z"/>
    <path class="fil4" d="M77.24 76.18l-1.21 0.08 -0.16 0.43c-0.69,1.76 -1.37,1.78 -2.59,2.61 -2.27,4.36 -1.6,2.65 -3.58,5.31 -0.63,0.85 -0.83,1.22 -1.48,2.07l-4.34 5.47c-2.11,1.88 -1.89,0.62 -1.1,1.48 5.23,0.02 10.18,-4.67 13.06,-8.37 4.06,-5.2 3.5,-7.88 13.51,-7.92 7.57,-0.03 12.29,0.86 18.39,-2.5 4.48,-2.47 4.85,-4.6 12.19,-6.99l1.7 -0.72c0.06,-0.04 0.18,-0.1 0.26,-0.17 -3.51,-2.96 -1.56,-8.77 -7.62,-9.49 -3.84,-0.46 -12.54,-1.05 -15.76,0.33 -0.03,1.71 0.86,2.42 0.83,4.63l-9.89 8.62c-1.55,1.22 -9.84,7.15 -12.22,5.12z"/>
    <path class="fil5" d="M2.74 34.17l-0.59 0.33c1.25,2.08 -0.24,5.94 3.36,13.69 4.53,9.75 5.59,14.19 10.18,23.51l5.86 10.96c2.76,-0.65 1.37,-0.87 6.55,-1.6l-6.73 -10.72c-4.85,-7.97 -8.17,-14.8 -11.4,-23.88 -2.18,-6.13 -2.36,-8.39 -0.96,-14.5 -2.2,0.72 -4.06,2.23 -6.27,2.19z"/>
    <path class="fil3" d="M32.71 111.58c1.46,4.29 14.57,25.88 15.36,28.58l5.94 -0.52c-2.37,-5.52 -5.78,-11.09 -8.47,-17.03l-8.31 -17.06c-1.88,2.6 -0.57,5.12 -4.53,6.02z"/>
    <path class="fil6" d="M71.3 169.35l-11.86 -19.86c-1.38,-2.39 -2.38,-5.03 -3.91,-7.05 -3.27,0.61 -3.44,-0.02 -6.28,-1 0.44,1.6 11.88,20.98 13.61,23.82 1.01,1.66 1.12,2.85 2.97,3.3 1.35,0.33 3.99,0.65 5.48,0.79z"/>
    <path class="fil1" d="M75.49 168.99c0.42,0.19 12.25,-16.19 14.21,-18.92l14.53 -19.96c5.3,-7.16 9.14,-13.87 13.76,-20.72 0.77,-1.13 2.56,-2.66 1.98,-4.46 -1.81,-0.81 -1.58,-0.05 -3.74,2.69 -1.09,1.38 -1.78,2.18 -2.95,3.7l-37.79 57.67z"/>
    <path class="fil7" d="M62.78 93.63c-0.79,-0.86 -1,0.41 1.1,-1.48l4.34 -5.47c0.66,-0.85 0.85,-1.22 1.48,-2.07 1.98,-2.66 1.31,-0.95 3.58,-5.31 -5.72,1.42 -3.4,2.28 -5.99,3.3 -2.42,0.95 -4.19,1.89 -5.81,3.21 -1.56,1.28 -7.79,8.03 -8.62,9.48l7.43 -0.85c0.48,-0.06 0.84,-0.07 1.32,-0.22 1.08,-0.34 0.43,-0.03 1.17,-0.59z"/>
    <path class="fil1" d="M64.79 34.9c-1.83,-2.35 -2.88,1.81 -6.01,0.03 -2.44,-1.39 -1.85,-5.19 -1.81,-6.5 0.08,-2.59 -2.38,-1.83 -4.05,-3.73 -1.94,-2.2 -0.32,-4.65 -1.58,-7.23 -1.25,0.5 -0.44,-0.58 -1.31,1.29 -0.18,0.39 -0.44,1.77 -0.49,2.27 -0.12,1.35 0.27,2.62 0.78,3.93 0.78,2.01 0.88,1.87 2.36,2.73 2.04,1.19 1.46,0.84 1.63,3.03 0.54,6.84 7.62,10.66 10.48,4.18z"/>
    <path class="fil1" d="M79.73 23.31c1.46,0 12.93,-0.75 12.93,-3.53 0,-3.33 -6.79,-0.44 -8.94,0.08 -2.76,0.67 -4.7,0.44 -4,3.45z"/>
    <path class="fil1" d="M72.21 16.27c4.21,-2.82 10.97,-4.55 10.97,-7.05 0,-0.76 -0.7,-1.57 -1.18,-1.57 -2.2,0 -3.84,2.55 -5.21,3.8 -1.32,1.21 -4.23,3.49 -4.58,4.82z"/>
    <path class="fil1" d="M67.13 13.19c1.11,-4.95 4.81,-10.86 3.09,-12.68 -0.52,-0.55 -1.59,-0.65 -1.93,-0.33 -1.6,1.52 -1.03,4.5 -1.16,6.35 -0.13,1.79 -0.66,5.45 0,6.65z"/>
   </g>
   <g>
    <g>
     <path class="fil5" d="M196.74 91.24c-3.64,6.31 -14.31,6.94 -20.94,6.94 -4.91,0 -11.57,-0.34 -15.99,-3.31 -4.44,2.9 -10.9,3.31 -15.82,3.31 -6.89,0 -18.02,-0.66 -21.76,-7.25 -1.93,1.34 -4.35,1.97 -6.67,2.42 -0.86,0.15 -2.13,0.76 -2.93,1.15 -5.49,2.64 -11.33,4.01 -17.43,4.01 -6.43,0 -12.62,-1.49 -18.46,-4.13 -7.27,-3.28 -13.07,-8.39 -17.3,-15.14 -3.97,-6.34 -6.21,-13.32 -6.21,-20.82 0,-8.55 2.72,-16.34 7.86,-23.16 4.56,-6.05 10.5,-10.54 17.43,-13.56 5.39,-2.35 11.09,-3.57 16.97,-3.57 5.64,0 11.06,1.25 16.16,3.65 0.43,0.2 1.02,0.5 1.53,0.69 0.3,-0.06 0.63,-0.14 0.89,-0.2 0.94,-0.21 1.9,-0.3 2.86,-0.3 3.66,0 6.81,1.62 9.2,4.28 0.1,-0.08 0.21,-0.15 0.32,-0.22 2.94,-1.95 7.02,-3.11 10.42,-4.04 4.88,-1.34 10.21,-2.6 15.28,-2.6 5.54,0 9.79,3.87 9.56,9.51l-0.3 9.86c2.81,-1.35 5.91,-2.04 9.24,-2.04 6.4,0 12.31,1.99 16.83,6.64 2.11,2.16 3.61,4.76 4.46,7.65 0.05,0.16 0.1,0.33 0.14,0.49 1.46,-2.07 3.22,-4 5.28,-5.76 7.26,-6.23 15.95,-9.07 25.46,-9.07 6.84,0 13.3,1.77 18.96,5.67 3.23,2.22 5.94,4.98 8.09,8.19 1.45,-2.01 3.16,-3.84 5.08,-5.49 6.65,-5.7 14.6,-8.32 23.3,-8.32 6.64,0 12.95,1.65 18.52,5.32 2.52,1.65 4.69,3.68 6.29,6.1 0.79,-0.84 1.63,-1.63 2.51,-2.38 7.26,-6.23 15.95,-9.07 25.46,-9.07 6.84,0 13.3,1.77 18.96,5.67 4.03,2.78 7.26,6.39 9.61,10.69 2.45,4.49 3.76,9.35 3.76,14.47 0,9.51 -4.62,17.13 -12.05,22.8 -7.22,5.51 -15.53,8.22 -24.59,8.22 -8.5,0 -16.48,-2.37 -22.82,-8.19 -0.95,-0.87 -1.83,-1.79 -2.64,-2.76 -0.09,0.12 -0.18,0.24 -0.27,0.37 -1.76,2.35 -3.97,4.27 -6.46,5.81 -5.46,3.37 -11.64,4.78 -18.02,4.78 -7.73,0 -14.84,-2.26 -20.84,-7.19 -2.5,-2.05 -4.67,-4.39 -6.42,-7.02 -1.78,2.25 -3.87,4.24 -6.18,6 -7.22,5.51 -15.53,8.22 -24.59,8.22 -8.03,0 -15.59,-2.11 -21.76,-7.26zm-69.65 -26.81c0.04,-2.29 0.03,-4.58 0.03,-6.85 -0.45,0.39 -0.94,0.75 -1.45,1.1 -2.57,1.73 -5.51,2.59 -8.6,2.59 -2.78,0 -5.48,-0.65 -7.8,-2.23 -2.22,-1.52 -3.82,-3.74 -5.1,-6.08 -0.78,-1.43 -1.63,-3.06 -2.64,-4.34 -0.47,-0.6 -1.02,-1.12 -1.64,-1.57 -1.65,-1.17 -3.45,-1.9 -5.49,-1.9 -0.96,0 -1.65,0.15 -2.27,0.92 -1.06,1.31 -1.28,3.36 -1.28,4.98 0,4 0.95,7.71 3.05,11.12 2.36,3.84 5.39,5.63 9.91,5.63 1.8,0 3.57,-0.31 5.27,-0.89 1.05,-0.36 2.41,-0.93 3.22,-1.71 2.13,-2.04 4.69,-3.62 7.72,-3.62 2.72,0 5.16,1.05 7.07,2.85z"/>
    </g>
    <path class="fil8" d="M302.2 54.96c1.46,-2.4 3.35,-4.6 5.66,-6.59 6.61,-5.67 14.5,-8.23 23.19,-8.23 6.14,0 11.91,1.56 16.98,5.05 3.58,2.47 6.44,5.67 8.52,9.49 2.17,3.98 3.33,8.26 3.33,12.79 0,8.39 -4.1,15 -10.68,20.02 -6.61,5.04 -14.17,7.5 -22.47,7.5 -7.62,0 -14.77,-2.05 -20.46,-7.27 -2.51,-2.3 -4.38,-4.91 -5.66,-7.78 -0.16,2.16 -1.11,4.13 -2.41,5.87 -1.49,2 -3.37,3.62 -5.49,4.93 -4.91,3.03 -10.46,4.26 -16.18,4.26 -6.93,0 -13.25,-1.98 -18.62,-6.39 -3.92,-3.22 -6.73,-7.03 -8.35,-11.39 -1.83,3.98 -4.8,7.4 -8.59,10.29 -6.61,5.04 -14.17,7.5 -22.47,7.5 -7.62,0 -14.77,-2.05 -20.46,-7.27 -5.4,-4.96 -7.85,-11.36 -7.85,-18.65 0,-8.29 3.14,-15.3 9.44,-20.7 6.61,-5.67 14.5,-8.23 23.19,-8.23 6.14,0 11.91,1.56 16.98,5.05 3.58,2.47 6.44,5.67 8.52,9.49 0.56,1.03 1.05,2.07 1.47,3.14 1.54,-3.83 4.03,-7.23 7.44,-10.15 6,-5.15 13.14,-7.48 21.03,-7.48 5.96,0 11.61,1.45 16.6,4.74 3.77,2.48 6.51,5.8 7.34,10.03zm-3.7 11.89c-2.42,2.18 -5.36,3.27 -8.62,3.27 -3.54,0 -6.64,-1.34 -8.68,-4.28 -0.96,-1.38 -1.73,-3.87 -2.24,-5.47 -0.29,-0.89 -0.54,-1.54 -1.53,-1.54 -0.73,0 -1.17,0.36 -1.61,0.92 -0.77,1 -1.04,2.17 -1.04,3.42 0,2.98 1.09,5.46 3.11,7.63 1.56,1.68 3.42,2.4 5.71,2.4 0.99,0 2.14,-0.04 3.11,-0.28 1.15,-0.29 2.45,-0.89 3.52,-1.4 0.92,-0.44 1.92,-0.66 2.94,-0.66 2.23,0 4.09,1.06 5.48,2.77 0.05,0.06 0.1,0.13 0.15,0.2 -0.25,-1.54 -0.37,-3.13 -0.37,-4.77 0,-0.75 0.03,-1.49 0.08,-2.22zm-172.78 -35.26c0.64,-1.04 1.54,-1.94 2.64,-2.68 2.49,-1.65 6.54,-2.79 9.41,-3.58 4.47,-1.23 9.7,-2.47 14.36,-2.47 3.58,0 6.22,2.23 6.07,5.9l-0.53 17.02c3.37,-3.61 7.72,-5.59 12.96,-5.59 5.46,0 10.48,1.62 14.33,5.58 1.71,1.76 2.92,3.85 3.62,6.21 0.8,2.72 0.98,5.98 1.05,8.81l0.42 16.92c0.01,0.41 0.05,1.35 0.17,1.67 0.27,0.44 1.22,1.2 1.62,1.52 1.67,1.32 2.67,3.13 2.67,5.28 0,8.31 -13.05,8.51 -18.71,8.51 -4.43,0 -12.92,-0.23 -15.94,-4.53 -3.19,4.18 -11.29,4.53 -15.88,4.53 -5.93,0 -19.54,-0.24 -19.54,-8.93 0,-1.43 0.32,-2.83 1.18,-3.99 0.79,-1.07 2.22,-2.08 3.18,-2.74 0.61,-0.72 1.05,-3.62 1.16,-4.53 0.7,-5.73 0.65,-12.19 0.65,-17.96 0,-4.26 0.06,-9.27 -0.53,-13.48 -0.02,-0.15 -0.06,-0.39 -0.11,-0.59 -0.19,-0.13 -0.43,-0.26 -0.59,-0.34 -0.13,-0.07 -0.26,-0.14 -0.38,-0.21 0.08,0.9 0.12,1.81 0.12,2.73 0,4.52 -1.58,8.57 -5.41,11.14 -1.99,1.34 -4.25,1.99 -6.65,1.99 -2.07,0 -4.1,-0.44 -5.83,-1.62 -1.73,-1.18 -3.01,-3.04 -4,-4.86 -0.85,-1.56 -1.86,-3.42 -2.96,-4.83 -0.68,-0.87 -1.47,-1.62 -2.37,-2.26 -2.25,-1.6 -4.74,-2.55 -7.52,-2.55 -2.03,0 -3.68,0.61 -4.98,2.21 -1.62,2 -2.06,4.68 -2.06,7.18 0,4.64 1.13,8.98 3.57,12.95 3,4.88 7.15,7.3 12.89,7.3 2.19,0 4.33,-0.37 6.4,-1.08 1.57,-0.54 3.3,-1.33 4.51,-2.5 1.43,-1.38 3.23,-2.64 5.3,-2.64 2.25,0 4.16,1.09 5.53,2.85 1.31,1.68 1.89,3.68 1.89,5.79 0,2.64 -0.85,5.24 -1.99,7.6 -1.18,2.43 -2.74,4.69 -4.87,6.47 -1.47,1.19 -3.75,1.75 -5.64,2.12 -1.21,0.21 -2.73,0.91 -3.83,1.44 -5.02,2.41 -10.34,3.66 -15.91,3.66 -5.93,0 -11.63,-1.38 -17.02,-3.82 -6.65,-3 -11.91,-7.64 -15.78,-13.81 -3.63,-5.79 -5.67,-12.12 -5.67,-18.97 0,-7.79 2.46,-14.84 7.15,-21.05 4.2,-5.57 9.65,-9.67 16.03,-12.46 4.96,-2.16 10.17,-3.28 15.58,-3.28 5.12,0 10.03,1.13 14.67,3.32 0.64,0.3 2.12,1 2.71,1.08 0.53,-0 1.43,-0.22 1.96,-0.34 0.69,-0.15 1.4,-0.22 2.1,-0.22 2.83,0 5.17,1.36 6.93,3.52 0.7,0.85 1.32,1.73 1.87,2.64zm34.5 50.8c0.38,-0.52 0.79,-1.04 1.13,-1.47 1.13,-1.51 1.25,-8.92 1.25,-10.78 0,-2.18 -0.09,-5.75 -0.91,-7.79 -0.48,-1.2 -1.03,-1.73 -2.34,-1.73 -0.55,0 -1.02,0.04 -1.31,0.49 -0.38,0.69 -0.43,2.96 -0.43,3.73l0 8.95c0.1,1.79 0.13,4.36 0.31,5.61 0.3,0.56 1.1,1.45 1.53,1.92 0.3,0.33 0.56,0.68 0.78,1.05zm58.81 -24.54c-0.27,0 -0.42,0.04 -0.61,0.27 -0.38,0.47 -0.46,1.28 -0.46,1.85 0,2.21 0.51,4.77 0.98,6.93 0.59,2.74 1.35,5.47 2.36,8.09 0.28,0.72 0.63,1.63 1.52,1.63 0.11,0 0.35,0.02 0.46,-0.03 0.25,-0.31 0.27,-1.44 0.27,-1.81 0,-2.74 -0.42,-5.55 -0.98,-8.23 -0.51,-2.43 -1.2,-5.12 -2.29,-7.36 -0.25,-0.53 -0.66,-1.31 -1.24,-1.34zm108.23 0c-0.27,0 -0.42,0.04 -0.61,0.27 -0.38,0.47 -0.46,1.28 -0.46,1.85 0,2.21 0.51,4.77 0.98,6.93 0.6,2.74 1.35,5.47 2.36,8.09 0.28,0.72 0.63,1.63 1.52,1.63 0.11,0 0.35,0.02 0.46,-0.03 0.25,-0.31 0.27,-1.44 0.27,-1.81 0,-2.74 -0.42,-5.55 -0.98,-8.23 -0.51,-2.43 -1.2,-5.12 -2.29,-7.36 -0.25,-0.53 -0.66,-1.31 -1.24,-1.34z"/>
    <path class="fil9" d="M95.48 25.05c4.55,0 8.95,0.99 13.2,2.99 2,0.94 3.39,1.41 4.17,1.41 0.56,0 1.45,-0.14 2.7,-0.42 0.42,-0.1 0.86,-0.14 1.36,-0.14 1.63,0 3.05,0.75 4.27,2.25 2.99,3.63 4.49,8.12 4.49,13.49 0,3.77 -1.29,6.54 -3.88,8.28 -1.41,0.94 -2.99,1.41 -4.73,1.41 -1.58,0 -2.88,-0.34 -3.89,-1.02 -1.01,-0.69 -1.97,-1.92 -2.91,-3.66 -1.34,-2.46 -2.43,-4.24 -3.28,-5.31 -0.85,-1.09 -1.87,-2.06 -3.08,-2.94 -3.02,-2.13 -6.2,-3.18 -9.51,-3.18 -3.21,0 -5.77,1.17 -7.66,3.49 -1.89,2.33 -2.83,5.45 -2.83,9.35 0,5.37 1.36,10.29 4.08,14.75 3.69,5.96 8.97,8.94 15.83,8.94 2.52,0 5.04,-0.42 7.51,-1.26 2.48,-0.85 4.41,-1.93 5.79,-3.28 1.18,-1.12 2.16,-1.68 2.91,-1.68 1.09,0 2.03,0.51 2.81,1.52 0.79,1.01 1.17,2.24 1.17,3.68 0,1.81 -0.54,3.84 -1.65,6.09 -1.09,2.26 -2.4,4.01 -3.93,5.29 -0.66,0.53 -2.02,1.01 -4.08,1.41 -1.18,0.21 -2.77,0.78 -4.73,1.73 -4.62,2.22 -9.42,3.32 -14.42,3.32 -5.21,0 -10.41,-1.17 -15.6,-3.52 -6.03,-2.72 -10.77,-6.89 -14.28,-12.5 -3.44,-5.47 -5.15,-11.17 -5.15,-17.14 0,-6.94 2.16,-13.27 6.46,-18.98 3.74,-4.96 8.63,-8.74 14.66,-11.38 4.59,-2 9.32,-2.99 14.2,-2.99zm59.28 3.61l-0.61 19.62c-0.06,2.35 0.66,3.52 2.16,3.52 0.75,0 1.49,-0.51 2.21,-1.55 3.02,-4.4 7.07,-6.6 12.12,-6.6 4.97,0 8.92,1.52 11.86,4.54 1.31,1.34 2.24,2.94 2.78,4.78 0.55,1.84 0.85,4.48 0.91,7.91l0.42 16.92c0.03,1.45 0.23,2.54 0.59,3.23 0.37,0.69 1.2,1.53 2.51,2.57 0.91,0.72 1.36,1.57 1.36,2.57 0,3.37 -5.08,5.07 -15.27,5.07 -9.06,0 -13.59,-1.58 -13.59,-4.73 0,-0.53 0.08,-0.94 0.24,-1.22 0.14,-0.29 0.69,-1.04 1.63,-2.26 1.31,-1.71 1.97,-6.01 1.97,-12.88 0,-4.14 -0.38,-7.18 -1.17,-9.08 -1.04,-2.59 -2.88,-3.88 -5.53,-3.88 -1.9,0 -3.29,0.69 -4.2,2.06 -0.66,0.99 -0.99,2.86 -0.99,5.61l0 9.05c0.22,4 0.42,6.25 0.56,6.78 0.16,0.53 0.88,1.52 2.16,2.96 0.59,0.66 0.89,1.42 0.89,2.3 0,3.53 -4.59,5.29 -13.78,5.29 -10.73,0 -16.1,-1.82 -16.1,-5.48 0,-0.85 0.18,-1.49 0.51,-1.95 0.34,-0.45 1.18,-1.14 2.52,-2.08 1.18,-0.85 2,-3.12 2.46,-6.81 0.45,-3.71 0.67,-9.83 0.67,-18.39 0,-6.72 -0.19,-11.37 -0.56,-13.96 -0.13,-0.98 -0.35,-1.68 -0.67,-2.14 -0.34,-0.45 -0.94,-0.91 -1.85,-1.37 -1.94,-1.01 -2.91,-2.16 -2.91,-3.47 0,-1.55 0.74,-2.81 2.21,-3.79 1.47,-0.98 4.29,-2.01 8.42,-3.13 5.63,-1.57 10.1,-2.35 13.44,-2.35 1.81,0 2.69,0.78 2.62,2.35zm68.06 14.93c5.71,0 10.73,1.49 15.03,4.44 3.08,2.13 5.58,4.89 7.45,8.3 1.93,3.56 2.91,7.27 2.91,11.14 0,6.78 -3.1,12.53 -9.32,17.28 -5.93,4.52 -12.73,6.79 -20.38,6.79 -7.47,0 -13.51,-2.13 -18.13,-6.36 -4.49,-4.12 -6.73,-9.5 -6.73,-16.12 0,-7.37 2.75,-13.4 8.23,-18.08 5.74,-4.94 12.72,-7.4 20.94,-7.4zm-3.76 10.82c-1.36,0 -2.46,0.51 -3.29,1.52 -0.83,1.01 -1.25,2.37 -1.25,4.05 0,1.87 0.35,4.43 1.05,7.66 0.7,3.25 1.53,6.11 2.51,8.6 0.98,2.56 2.54,3.84 4.73,3.84 2.78,0 4.17,-1.76 4.17,-5.29 0,-2.62 -0.35,-5.6 -1.05,-8.94 -0.7,-3.34 -1.55,-6.06 -2.56,-8.15 -1.04,-2.13 -2.48,-3.21 -4.32,-3.28zm59.2 -10.77c5.56,0 10.47,1.39 14.71,4.17 4.03,2.65 6.04,5.95 6.04,9.88 0,2.72 -0.94,4.92 -2.81,6.6 -1.74,1.58 -3.85,2.38 -6.32,2.38 -2.59,0 -4.54,-0.93 -5.85,-2.8 -0.4,-0.59 -1.01,-2.11 -1.79,-4.56 -0.85,-2.62 -2.45,-3.93 -4.81,-3.93 -1.73,0 -3.17,0.75 -4.33,2.25 -1.17,1.5 -1.76,3.34 -1.76,5.53 0,3.74 1.34,7.06 4.03,9.97 2.19,2.33 4.92,3.5 8.23,3.5 1.57,0 2.88,-0.13 3.93,-0.38 1.07,-0.27 2.46,-0.82 4.17,-1.63 0.43,-0.21 0.93,-0.32 1.46,-0.32 1.07,0 2,0.49 2.81,1.5 0.82,0.99 1.22,2.16 1.22,3.5 0,1.41 -0.58,2.88 -1.74,4.43 -1.15,1.55 -2.67,2.89 -4.54,4.06 -4.06,2.49 -8.86,3.74 -14.37,3.74 -6.44,0 -11.91,-1.87 -16.43,-5.61 -5.8,-4.75 -8.71,-10.79 -8.71,-18.13 0,-7.05 2.7,-12.9 8.09,-17.52 5.16,-4.43 11.41,-6.65 18.78,-6.65zm52.79 -0.05c5.71,0 10.73,1.49 15.03,4.44 3.08,2.13 5.58,4.89 7.45,8.3 1.93,3.56 2.91,7.27 2.91,11.14 0,6.78 -3.1,12.53 -9.32,17.28 -5.93,4.52 -12.73,6.79 -20.38,6.79 -7.47,0 -13.51,-2.13 -18.13,-6.36 -4.49,-4.12 -6.73,-9.5 -6.73,-16.12 0,-7.37 2.75,-13.4 8.23,-18.08 5.74,-4.94 12.72,-7.4 20.94,-7.4zm-3.76 10.82c-1.36,0 -2.46,0.51 -3.29,1.52 -0.83,1.01 -1.25,2.37 -1.25,4.05 0,1.87 0.35,4.43 1.05,7.66 0.7,3.25 1.53,6.11 2.51,8.6 0.98,2.56 2.54,3.84 4.73,3.84 2.78,0 4.17,-1.76 4.17,-5.29 0,-2.62 -0.35,-5.6 -1.05,-8.94 -0.7,-3.34 -1.55,-6.06 -2.56,-8.15 -1.04,-2.13 -2.48,-3.21 -4.32,-3.28z"/>
    <g>
     <path class="fil5" d="M336.13 125.54c-0.62,0.88 -1.32,1.69 -2.1,2.4 -3,2.85 -6.77,4.29 -10.89,4.29 -1.31,0 -2.62,-0.14 -3.88,-0.47 0.01,0.36 0.03,0.71 0.06,1.06 4.05,1.65 6.95,4.96 6.95,9.64 0,2.82 -1.06,5.42 -3.01,7.45 -1.78,1.86 -4.04,3.02 -6.55,3.54 -4.12,0.85 -8.53,0.95 -12.72,0.95 -4.23,0 -8.97,-0.23 -13,-1.61 -3.09,-1.06 -5.55,-3.04 -6.83,-5.76 -0.18,0.14 -0.36,0.29 -0.55,0.43 -6.33,4.83 -13.63,7.22 -21.58,7.22 -7.48,0 -14.51,-2.1 -20.1,-7.23 -0.08,-0.07 -0.15,-0.14 -0.23,-0.21 -0.35,0.35 -0.71,0.68 -1.09,0.99 -5.19,4.39 -11.4,6.44 -18.16,6.44 -5.55,0 -10.78,-1.59 -14.89,-5.43 -1.74,-1.62 -3.08,-3.46 -4.05,-5.46 -0.31,0.52 -0.64,1.02 -1.01,1.51 -1.56,2.09 -3.52,3.8 -5.74,5.17 -4.81,2.97 -10.25,4.21 -15.86,4.21 -6.81,0 -13.08,-1.99 -18.37,-6.34 -0.67,-0.55 -1.32,-1.13 -1.95,-1.74 -0.03,0.04 -0.05,0.07 -0.08,0.11 -1.61,2.19 -3.67,3.95 -6.02,5.31 -2.97,1.72 -6.21,2.67 -9.65,2.67 -3.28,0 -6.33,-0.86 -8.93,-2.68 -3.26,1.8 -6.86,2.68 -10.66,2.68 -4.37,0 -8.69,-0.92 -12.33,-3.44 -2.33,-1.62 -4.16,-3.75 -5.48,-6.27 -1.32,-2.52 -2.01,-5.24 -2.01,-8.08 0,-0.51 0.02,-1.01 0.07,-1.5 -1.49,1.4 -3.32,2.32 -5.37,2.67 0.68,1.38 1.04,2.9 1.04,4.48 0,5.41 -3.58,9.19 -8.69,10.42 -5.22,1.26 -10.94,1.44 -16.29,1.44 -4.21,0 -9.39,-0.03 -13.41,-1.27 -2.27,-0.7 -4.2,-2.05 -5.63,-3.95 -1.44,-1.91 -2.23,-4.16 -2.23,-6.56 0,-3.15 1.3,-5.95 3.77,-8.02 0.76,-0.61 1.67,-1.07 2.59,-1.47 0.89,-6.81 0.59,-14.31 0.59,-21.17 0,-2.08 0.13,-5.21 -0.19,-7.48 -1.36,-0.66 -2.67,-1.47 -3.71,-2.56 -1.68,-1.77 -2.44,-4.06 -2.44,-6.47 0,-3.49 1.76,-6.47 4.61,-8.43 2.38,-1.63 5.16,-2.34 8.02,-2.34 1.75,0 3.49,0.13 5.24,0.27 5.07,0.4 10.16,0.5 15.24,0.5 6.11,0 12.81,0.2 18.95,-0.76 0.61,-0.08 1.23,-0.13 1.85,-0.13 3.22,0 5.93,1.65 7.88,4.12 3.17,4.01 4.91,8.67 4.98,13.78 4.23,-1.55 8.67,-2.35 13.26,-2.35 5.71,0 11.16,1.43 15.81,4.83 2.53,1.85 4.6,4.21 5.82,7.12 0.05,0.12 0.1,0.24 0.15,0.37 1.27,-1.78 2.8,-3.44 4.56,-4.95 5.84,-5.01 12.84,-7.33 20.5,-7.33 5.33,0 10.42,1.21 14.99,3.87 0.26,-0.21 0.54,-0.41 0.83,-0.59l18.75 -11.79 0.27 -0.13c1.46,-0.74 3.07,-1.08 4.7,-1.08l3.28 0c2.59,0 5.05,0.96 6.57,3.02 1.34,1.72 1.74,3.75 1.74,5.89l0 0.78 2.87 0c2.73,0 5.3,0.81 7.07,2.99 0.88,1.08 1.39,2.31 1.65,3.59 6.01,-4.5 13.03,-6.59 20.63,-6.59 6.02,0 11.72,1.57 16.7,5 1.35,0.93 2.6,1.97 3.75,3.11 0.64,-0.73 1.38,-1.39 2.19,-1.96 2.48,-1.74 5.65,-2.84 8.54,-3.7 3.99,-1.18 8.23,-2.13 12.41,-2.16 2.52,-0.02 5.04,0.46 6.87,2.08 2.36,-1.35 5,-2.04 7.84,-2.04 3.45,0 6.65,1 9.3,3.07 2.06,-1.1 4.4,-1.76 6.64,-2.17 3.96,-0.72 8.01,-0.95 12.04,-0.95 2.99,0 6.14,0.25 8.97,1.27 1.22,0.44 2.38,1.03 3.42,1.8 0.7,-0.48 1.44,-0.89 2.22,-1.23 3.12,-1.38 6.64,-1.79 10.03,-1.79 6.86,0 15.17,2.26 15.17,10.72 0,2.61 -0.88,5.07 -2.7,6.98 -1.52,1.59 -3.55,2.6 -5.57,3.31 -1.39,2.13 -2.45,5.05 -3.32,7.43l-5.32 14.67c-1.24,3.42 -2.65,6.82 -4.48,9.97 -1.56,2.69 -3.45,5.18 -5.7,7.33 -4.76,4.55 -10.63,6.83 -17.2,6.83 -5.12,0 -9.99,-1.36 -13.95,-4.7 -3.4,-2.87 -5.21,-6.78 -5.21,-11.23 0,-3.69 1.26,-7.07 3.79,-9.77 2.58,-2.74 5.94,-4.2 9.7,-4.2l-5.75 -12.24zm-226.02 -0.08c0.14,-0.15 0.29,-0.3 0.43,-0.45 -0.11,-0.12 -0.21,-0.24 -0.31,-0.36 -0.04,0.27 -0.08,0.54 -0.13,0.81zm124.64 -3.45l-1.23 0 0 6.58c0.16,-0.06 0.31,-0.11 0.47,-0.16 0.02,-2.18 0.26,-4.33 0.76,-6.42z"/>
    </g>
    <path class="fil10" d="M333.02 107.4c2.03,-1.69 4.94,-2.57 7.52,-3.04 3.77,-0.68 7.67,-0.9 11.49,-0.9 2.6,0 5.48,0.21 7.94,1.09 1.83,0.66 3.36,1.71 4.37,3.13 0.88,-1.14 2.13,-2.02 3.54,-2.64 2.7,-1.2 5.85,-1.53 8.79,-1.53 5.04,0 12.11,1.2 12.11,7.66 0,1.83 -0.58,3.53 -1.85,4.87 -1.2,1.26 -2.95,2.04 -4.5,2.58 -0.58,0.22 -1.01,0.54 -1.35,1.06 -1.52,2.29 -2.77,5.59 -3.7,8.17l-5.32 14.67c-1.17,3.22 -2.53,6.51 -4.25,9.48 -1.42,2.44 -3.12,4.71 -5.17,6.66 -4.19,4 -9.3,5.99 -15.09,5.99 -4.39,0 -8.58,-1.11 -11.98,-3.98 -2.71,-2.29 -4.13,-5.34 -4.13,-8.89 0,-2.92 0.96,-5.54 2.96,-7.67 2.01,-2.13 4.57,-3.24 7.49,-3.24 2.04,0 3.94,0.52 5.54,1.57l-8.94 -19.04c-0.38,-0.8 -1.13,-2.47 -1.61,-3.06 -0.26,-0.22 -0.74,-0.49 -1.22,-0.72 -0.18,0.58 -0.39,1.15 -0.64,1.71 -0.75,1.69 -1.79,3.22 -3.1,4.42 -2.43,2.31 -5.44,3.44 -8.79,3.44 -1.76,0 -3.53,-0.31 -5.1,-1.13 -0.63,-0.33 -1.25,-0.74 -1.85,-1.2 0,0.34 0,0.66 0,0.9 0,2.15 -0.05,5.19 0.33,7.37 0.19,0.06 0.38,0.12 0.52,0.16 3.46,1.03 6.18,3.39 6.18,7.21 0,2.03 -0.75,3.87 -2.16,5.34 -1.35,1.41 -3.06,2.27 -4.96,2.66 -3.82,0.79 -8.22,0.89 -12.1,0.89 -3.81,0 -8.38,-0.2 -12.01,-1.45 -3.35,-1.15 -5.71,-3.61 -5.71,-7.27 0,-0.84 0.14,-1.63 0.4,-2.36 -1.38,1.74 -3.03,3.33 -4.91,4.77 -5.8,4.43 -12.44,6.59 -19.73,6.59 -6.72,0 -13.02,-1.82 -18.03,-6.42 -0.92,-0.84 -1.75,-1.74 -2.47,-2.67 -0.72,1.27 -1.73,2.4 -2.88,3.37 -4.63,3.92 -10.14,5.72 -16.19,5.72 -4.78,0 -9.27,-1.31 -12.8,-4.61 -3.48,-3.25 -5.04,-7.5 -5.04,-12.23l0 -16.48 -0.78 0c0.01,0.19 0.01,0.38 0.01,0.57 0,3.25 -1.18,6.14 -3.6,8.33 -1.31,1.18 -2.79,2.01 -4.4,2.49 1.84,0.17 3.39,1.12 4.58,2.57 1.23,1.51 1.85,3.32 1.85,5.26 0,2.21 -0.91,4.2 -2.21,5.94 -1.33,1.78 -3.01,3.23 -4.89,4.4 -4.32,2.67 -9.21,3.75 -14.26,3.75 -6.11,0 -11.69,-1.76 -16.42,-5.65 -1.77,-1.46 -3.29,-3.05 -4.54,-4.77 -0.39,1.32 -1.06,2.56 -1.89,3.69 -1.37,1.85 -3.1,3.33 -5.09,4.48 -2.5,1.45 -5.22,2.26 -8.12,2.26 -3.33,0 -6.32,-1.05 -8.68,-3.38 -3.24,2.28 -6.93,3.38 -10.91,3.38 -3.73,0 -7.48,-0.74 -10.58,-2.89 -1.93,-1.34 -3.43,-3.09 -4.51,-5.17 -1.09,-2.08 -1.66,-4.31 -1.66,-6.66 0,-3.93 1.67,-7.29 4.48,-9.99 0.77,-0.74 1.59,-1.4 2.45,-1.98 -0.75,-0.34 -1.46,-0.81 -2.09,-1.41 -1.59,-1.5 -2.37,-3.47 -2.37,-5.64 0,-2.29 0.93,-4.35 2.34,-6.11 0.05,-0.06 0.1,-0.12 0.15,-0.18 -0.64,0.17 -1.31,0.26 -2.01,0.26 -1.54,0 -3.07,-0.35 -4.31,-1.31 -0.16,-0.13 -0.32,-0.26 -0.49,-0.41 0.77,2.82 0.92,5.96 0.92,8.35 0,4.16 -0.44,9.2 -2.65,12.83 -1.46,2.4 -3.75,3.84 -6.59,3.84 -3.78,0 -5.9,-2.83 -6.27,-6.37 -0.06,-0.56 -0.14,-1.55 -0.31,-2.04 -0.04,-0.07 -0.14,-0.17 -0.25,-0.26 -0.17,-0.16 -0.57,-0.23 -0.93,-0.27 -0.01,1.1 -0.04,2.2 -0.04,3.3 -0,1.14 0.05,4.73 0.54,6.06 0.51,0.1 1.07,0.17 1.52,0.23 1.65,0.24 3.04,1.11 4.06,2.42 0.97,1.25 1.48,2.74 1.48,4.33 0,3.98 -2.61,6.54 -6.35,7.45 -4.88,1.18 -10.57,1.35 -15.57,1.35 -3.7,0 -8.96,-0.04 -12.51,-1.14 -1.66,-0.51 -3.05,-1.48 -4.09,-2.87 -1.04,-1.38 -1.61,-2.98 -1.61,-4.72 0,-2.21 0.87,-4.16 2.63,-5.64 0.8,-0.64 2.17,-1.17 3.13,-1.55 0.32,-0.13 0.46,-1.04 0.5,-1.31 0.94,-6.66 0.7,-15.41 0.7,-22.17 0,-2.41 0.1,-6.77 -0.43,-9.1 -0.08,-0.37 -0.18,-0.54 -0.52,-0.69 -1.3,-0.57 -2.8,-1.32 -3.79,-2.36 -1.14,-1.19 -1.6,-2.74 -1.6,-4.36 0,-2.48 1.26,-4.52 3.28,-5.9 1.87,-1.28 4.05,-1.81 6.29,-1.81 1.65,0 3.35,0.13 5,0.26 5.13,0.41 10.33,0.51 15.48,0.51 5.88,0 13.4,0.15 19.32,-0.79 0.49,-0.06 0.98,-0.11 1.48,-0.11 2.27,0 4.12,1.23 5.48,2.96 2.82,3.56 4.32,7.67 4.32,12.22 0,1.73 -0.32,3.43 -1.11,4.93 0.16,-0.09 0.33,-0.18 0.49,-0.27 5.28,-2.83 10.95,-4.29 16.93,-4.29 5.06,0 9.89,1.23 14,4.24 2.08,1.52 3.8,3.44 4.8,5.83 1.04,2.48 1.3,5.43 1.3,8.15l-0.08 5.96c0,1.17 0.02,4.67 0.41,6.18 0.01,0 0.03,0 0.05,0.01 0.12,0.02 0.24,0.04 0.36,0.07 -0.48,-1.9 -0.72,-3.9 -0.72,-6.01 0,-7.14 2.8,-13.16 8.21,-17.8 5.28,-4.53 11.57,-6.59 18.51,-6.59 5.25,0 10.23,1.29 14.63,4.18 0.32,0.21 0.62,0.42 0.92,0.64 0.43,-0.81 1.07,-1.5 1.9,-2.02l18.63 -11.72 0.14 -0.07c1.03,-0.53 2.17,-0.75 3.32,-0.75l3.28 0c1.65,0 3.2,0.55 4.15,1.84 0.9,1.16 1.09,2.59 1.09,4.01l0 3.84 5.93 0c1.77,0 3.53,0.42 4.7,1.86 1.04,1.27 1.23,2.97 1.23,4.55l0 2.38c0,0.55 -0.03,1.1 -0.1,1.65 0.93,-1.13 1.98,-2.21 3.16,-3.21 5.81,-4.98 12.74,-7.24 20.37,-7.24 5.41,0 10.5,1.38 14.97,4.46 2.4,1.65 4.43,3.68 6.08,6.03 0.38,-2.01 1.62,-3.68 3.36,-4.9 2.15,-1.51 5.16,-2.52 7.66,-3.27 3.68,-1.09 7.71,-2.01 11.56,-2.03 1.99,-0.01 4.17,0.31 5.4,1.95 0.3,0.38 0.54,0.84 0.74,1.34 2.31,-2.06 5.16,-3.25 8.55,-3.25 3.28,0 6.24,1.08 8.55,3.44 0.14,0.15 0.28,0.3 0.42,0.45zm-42.77 13.44c0.61,2.09 0.93,4.25 0.93,6.48 0,3.65 -0.88,6.93 -2.46,9.85 0.47,-0.46 1,-0.89 1.57,-1.27 0.21,-0.13 0.57,-0.37 0.59,-0.34 0.03,-0.08 0.06,-0.23 0.08,-0.4 0.68,-3.87 0.58,-9.07 0.58,-13.01 0,-0.17 -0,-0.43 -0.02,-0.67 -0.44,-0.19 -0.87,-0.4 -1.27,-0.63zm-50.98 -2.56c-0.94,0.48 -2.03,0.68 -3.13,0.68l-5.69 0 0 12.04c0,0.58 0.08,1.31 0.45,1.79 0.03,0.04 0.09,0.12 0.23,0.15 0.56,-0.01 1.85,-0.68 2.38,-0.97 0.91,-0.54 1.93,-0.85 3,-0.85 0.22,0 0.43,0.01 0.64,0.04 -0.07,-0.81 -0.11,-1.63 -0.11,-2.46 0,-3.79 0.75,-7.28 2.23,-10.42zm-148.02 -14.54c-0.19,0.8 -0.33,1.88 -0.41,2.46 -0.19,1.36 -0.33,2.74 -0.38,4.14 0.39,0.02 0.79,0.03 1.04,0.03 0.08,0 0.2,-0 0.32,-0.01 0.57,-2.73 1.87,-5.25 4.12,-6.47 -1.54,-0.1 -3.07,-0.13 -4.27,-0.17 -0.1,0 -0.26,0 -0.42,0.01zm36.69 17.18c1.1,-0.09 2.21,-0.13 3.32,-0.14 -0.03,-1.09 -0.13,-2.51 -0.44,-3.47 -0.5,0.46 -1.1,1.29 -1.41,1.71 -0.46,0.65 -0.95,1.29 -1.47,1.9zm64.77 9.26c-0.1,0 -0.2,0 -0.3,0 -3.24,0 -6.09,-1.24 -7.96,-3.94 -0.86,-1.25 -1.54,-3.42 -2.01,-4.87 -0.16,-0.5 -0.23,-0.93 -0.77,-0.93 -0.44,0 -0.67,0.23 -0.93,0.57 -0.59,0.76 -0.77,1.65 -0.77,2.59 0,2.42 0.88,4.42 2.52,6.18 1.24,1.33 2.69,1.89 4.5,1.89 0.8,0 1.75,-0.03 2.54,-0.23 0.95,-0.24 2.04,-0.74 2.92,-1.17 0.09,-0.04 0.17,-0.08 0.26,-0.12zm171.74 -14.45c-0.11,0.18 -0.23,0.36 -0.35,0.54 -0.09,0.14 -0.26,0.4 -0.29,0.32 0,0.22 0.08,0.46 0.16,0.66 0.33,0.8 0.77,1.64 1.2,2.43 0.24,-0.63 0.39,-1.3 0.39,-1.96 0,-0.2 -0.01,-0.56 -0.15,-0.73 -0.34,-0.4 -0.67,-0.82 -0.96,-1.26zm-98.74 18.91c0.07,-0.33 0.08,-0.8 0.08,-1.01 0,-2.32 -0.36,-4.71 -0.83,-6.98 -0.43,-2.05 -1.01,-4.32 -1.93,-6.21 -0.08,-0.16 -0.39,-0.73 -0.58,-0.82 -0.01,0 -0.04,0.01 -0.05,0.02 -0.22,0.27 -0.26,0.9 -0.26,1.23 0,1.86 0.44,4.04 0.83,5.85 0.51,2.33 1.15,4.66 2.01,6.89 0.08,0.2 0.39,0.91 0.6,1.02 0.03,0.01 0.09,0.01 0.13,0.02z"/>
    <path class="fil9" d="M91.66 100.17c-1.86,0 -3.01,0.47 -3.43,1.42 -0.33,0.7 -0.63,2.07 -0.91,4.12 -0.29,2.05 -0.43,3.9 -0.43,5.57 0,1.01 0.32,1.69 0.96,2.07 0.65,0.37 1.86,0.57 3.64,0.57 1.19,0 2.05,-0.22 2.62,-0.65 0.57,-0.43 0.96,-1.16 1.17,-2.18 0.62,-2.94 1.89,-4.41 3.8,-4.41 3.28,0 4.92,3.93 4.92,11.8 0,4.98 -0.72,8.64 -2.14,10.99 -0.87,1.42 -2.05,2.14 -3.56,2.14 -1.59,0 -2.51,-1.06 -2.74,-3.2 -0.14,-1.36 -0.3,-2.34 -0.51,-2.91 -0.21,-0.57 -0.58,-1.1 -1.14,-1.61 -0.9,-0.84 -2.19,-1.25 -3.89,-1.25 -1.2,0 -2.03,0.22 -2.45,0.65 -0.43,0.43 -0.62,1.26 -0.57,2.47 0,0.21 -0.01,1.46 -0.04,3.75 0,4.66 0.48,7.5 1.45,8.53 0.32,0.4 0.65,0.66 0.99,0.79 0.34,0.12 1.23,0.29 2.65,0.5 0.7,0.11 1.29,0.47 1.78,1.09 0.48,0.62 0.73,1.34 0.73,2.15 0,2.07 -1.21,3.4 -3.64,4 -3.5,0.84 -8.41,1.25 -14.74,1.25 -5.56,0 -9.37,-0.33 -11.47,-0.98 -0.95,-0.29 -1.71,-0.83 -2.3,-1.61 -0.59,-0.79 -0.9,-1.64 -0.9,-2.58 0,-1.19 0.43,-2.14 1.3,-2.87 0.21,-0.17 0.95,-0.51 2.22,-1.02 1.5,-0.59 2.41,-1.96 2.7,-4.11 0.48,-3.32 0.73,-10.88 0.73,-22.66 0,-5.09 -0.18,-8.39 -0.52,-9.9 -0.34,-1.5 -1.2,-2.55 -2.55,-3.14 -1.34,-0.59 -2.22,-1.12 -2.65,-1.56 -0.41,-0.44 -0.62,-1.08 -0.62,-1.92 0,-1.18 0.58,-2.18 1.74,-2.98 1.16,-0.79 2.59,-1.19 4.29,-1.19 1.08,0 2.65,0.08 4.71,0.25 4.4,0.34 9.65,0.52 15.76,0.52 9.77,0 16.35,-0.28 19.75,-0.81 0.46,-0.05 0.8,-0.08 1.05,-0.08 0.94,0 1.83,0.54 2.7,1.61 2.37,3.02 3.56,6.35 3.56,10.02 0,1.67 -0.39,3.01 -1.17,4 -0.79,0.99 -1.81,1.49 -3.07,1.49 -0.94,0 -1.65,-0.19 -2.14,-0.57 -0.48,-0.37 -1.72,-1.7 -3.72,-3.96 -1.2,-1.39 -2.66,-2.32 -4.37,-2.74 -1.72,-0.43 -4.91,-0.72 -9.55,-0.86zm43.89 6.55c4.69,0 8.66,1.19 11.91,3.56 1.72,1.27 2.94,2.72 3.63,4.34 0.68,1.63 1.02,3.87 1.02,6.73l-0.08 6.01c0,4.18 0.3,6.88 0.9,8.12 0.29,0.59 0.58,0.96 0.84,1.13 0.28,0.16 0.84,0.32 1.71,0.44 0.85,0.14 1.28,0.7 1.28,1.7 0,1.3 -0.52,2.65 -1.56,4.04 -1.03,1.41 -2.37,2.58 -4.01,3.51 -2.03,1.19 -4.14,1.78 -6.34,1.78 -2.83,0 -5.06,-0.96 -6.7,-2.91 -0.57,-0.7 -1.1,-1.05 -1.59,-1.05 -0.54,0 -1.24,0.33 -2.14,1.01 -2.69,1.97 -5.75,2.95 -9.17,2.95 -3.53,0 -6.38,-0.76 -8.56,-2.26 -1.42,-0.99 -2.55,-2.29 -3.39,-3.9 -0.84,-1.6 -1.26,-3.27 -1.26,-5.02 0,-2.8 1.13,-5.28 3.39,-7.43 3.53,-3.4 8.81,-5.11 15.84,-5.14 1.56,0 2.55,-0.15 2.95,-0.46 0.4,-0.32 0.59,-1.03 0.59,-2.16 0,-2.85 -0.29,-4.92 -0.88,-6.2 -0.59,-1.28 -1.56,-1.92 -2.91,-1.92 -0.81,0 -1.53,0.25 -2.16,0.73 -0.63,0.48 -1.42,1.38 -2.36,2.66 -2.4,3.42 -4.91,5.13 -7.51,5.13 -1.32,0 -2.4,-0.39 -3.22,-1.17 -0.84,-0.79 -1.26,-1.81 -1.26,-3.06 0,-1.29 0.52,-2.59 1.56,-3.89 1.03,-1.28 2.44,-2.41 4.22,-3.39 4.87,-2.58 9.95,-3.87 15.26,-3.87zm-2.7 23.38c-1.18,0 -2.22,0.48 -3.09,1.46 -0.87,0.96 -1.31,2.12 -1.31,3.47 0,1.28 0.3,2.33 0.92,3.13 0.62,0.79 1.43,1.19 2.47,1.19 2.15,0 3.23,-1.82 3.23,-5.44 0,-1.47 -0.15,-2.48 -0.47,-2.99 -0.3,-0.51 -0.88,-0.79 -1.75,-0.81zm49.54 -23.34c4.8,0 9.03,1.2 12.68,3.6 3.47,2.29 5.21,5.13 5.21,8.52 0,2.34 -0.81,4.25 -2.43,5.69 -1.5,1.36 -3.32,2.05 -5.44,2.05 -2.23,0 -3.91,-0.8 -5.05,-2.41 -0.34,-0.51 -0.87,-1.82 -1.54,-3.93 -0.73,-2.26 -2.11,-3.39 -4.15,-3.39 -1.49,0 -2.73,0.65 -3.74,1.94 -1.01,1.3 -1.52,2.88 -1.52,4.77 0,3.23 1.16,6.09 3.47,8.6 1.89,2.01 4.25,3.02 7.1,3.02 1.35,0 2.48,-0.11 3.39,-0.33 0.92,-0.23 2.12,-0.7 3.6,-1.41 0.37,-0.18 0.8,-0.28 1.25,-0.28 0.92,0 1.72,0.43 2.43,1.3 0.7,0.85 1.05,1.86 1.05,3.02 0,1.21 -0.49,2.48 -1.5,3.82 -0.99,1.34 -2.3,2.5 -3.92,3.5 -3.5,2.15 -7.64,3.22 -12.39,3.22 -5.56,0 -10.27,-1.61 -14.17,-4.84 -5,-4.09 -7.51,-9.3 -7.51,-15.63 0,-6.08 2.33,-11.12 6.98,-15.11 4.45,-3.82 9.84,-5.73 16.2,-5.73zm44.51 10.59l0 13.65c0,1.61 0.4,2.94 1.19,3.96 0.79,1.02 1.8,1.53 3.04,1.53 1.05,0 2.44,-0.48 4.16,-1.45 0.4,-0.25 0.81,-0.37 1.21,-0.37 0.65,0 1.24,0.39 1.78,1.17 0.54,0.79 0.8,1.63 0.8,2.55 0,1.67 -0.91,3.28 -2.74,4.81 -3.82,3.25 -8.45,4.88 -13.9,4.88 -4.3,0 -7.76,-1.21 -10.38,-3.65 -2.6,-2.44 -3.91,-5.65 -3.91,-9.64l0 -18.65c0,-0.62 -0.07,-1.01 -0.22,-1.16 -0.15,-0.15 -0.52,-0.22 -1.14,-0.22l-4.16 0c-0.79,0 -1.28,-0.13 -1.5,-0.39 -0.21,-0.26 -0.32,-0.86 -0.32,-1.79l0 -1.78c0.03,-0.81 0.33,-1.41 0.92,-1.78l18.5 -11.63c0.46,-0.23 1.02,-0.36 1.7,-0.36l3.28 0c0.67,0 1.12,0.15 1.35,0.47 0.23,0.3 0.34,0.91 0.34,1.83l0 5.44c0,0.81 0.12,1.34 0.37,1.59 0.26,0.23 0.8,0.36 1.64,0.36l7.47 0c0.99,0 1.64,0.18 1.94,0.55 0.29,0.36 0.44,1.13 0.44,2.32l0 2.38c0,1.3 -0.19,2.19 -0.56,2.69 -0.37,0.5 -1.06,0.74 -2.07,0.74l-7.31 0c-0.76,0 -1.27,0.14 -1.53,0.4 -0.26,0.28 -0.4,0.79 -0.4,1.54zm38.84 -10.63c4.92,0 9.25,1.28 12.96,3.83 2.66,1.83 4.81,4.22 6.42,7.15 1.67,3.07 2.51,6.27 2.51,9.61 0,5.85 -2.67,10.81 -8.04,14.9 -5.11,3.9 -10.97,5.86 -17.58,5.86 -6.44,0 -11.65,-1.83 -15.63,-5.49 -3.87,-3.56 -5.8,-8.19 -5.8,-13.89 0,-6.35 2.37,-11.55 7.1,-15.59 4.95,-4.26 10.97,-6.38 18.06,-6.38zm-3.24 9.33c-1.17,0 -2.12,0.44 -2.84,1.31 -0.72,0.87 -1.08,2.04 -1.08,3.49 0,1.61 0.3,3.82 0.91,6.6 0.61,2.8 1.32,5.26 2.16,7.42 0.84,2.21 2.19,3.31 4.08,3.31 2.4,0 3.6,-1.52 3.6,-4.56 0,-2.26 -0.3,-4.82 -0.91,-7.7 -0.61,-2.88 -1.34,-5.23 -2.21,-7.03 -0.9,-1.83 -2.14,-2.77 -3.72,-2.83zm46.88 -9.04c1.43,0 2.3,0.21 2.61,0.61 0.32,0.4 0.59,1.68 0.84,3.87 0.12,1.19 0.54,1.78 1.24,1.78 0.54,0 1.06,-0.39 1.54,-1.17 2.15,-3.36 4.96,-5.05 8.44,-5.05 2.45,0 4.45,0.79 6.01,2.37 0.76,0.79 1.38,1.79 1.86,3.02 0.48,1.23 0.73,2.4 0.73,3.53 0,1.27 -0.29,2.56 -0.88,3.9 -0.59,1.34 -1.37,2.43 -2.3,3.28 -1.72,1.64 -3.85,2.47 -6.34,2.47 -1.38,0 -2.54,-0.25 -3.46,-0.73 -0.92,-0.48 -2.15,-1.46 -3.65,-2.94 -0.56,-0.57 -1.09,-0.85 -1.57,-0.85 -0.76,0 -1.24,0.43 -1.48,1.27 -0.23,0.85 -0.34,2.65 -0.34,5.36 0,4.07 0.15,6.84 0.44,8.31 0.19,0.81 0.46,1.37 0.79,1.68 0.34,0.3 1.06,0.62 2.16,0.94 2.43,0.73 3.64,2 3.64,3.8 0,1.1 -0.39,2.07 -1.17,2.88 -0.79,0.83 -1.82,1.38 -3.11,1.64 -2.58,0.54 -6.38,0.81 -11.39,0.81 -4.77,0 -8.39,-0.41 -10.86,-1.25 -2.21,-0.76 -3.31,-2.05 -3.31,-3.92 0,-1.41 0.8,-2.66 2.41,-3.76 0.79,-0.51 1.32,-0.98 1.63,-1.39 0.29,-0.41 0.5,-0.98 0.61,-1.71 0.43,-2.45 0.63,-6.99 0.63,-13.62 0,-1.21 -0.14,-2.08 -0.4,-2.6 -0.26,-0.52 -0.8,-0.95 -1.61,-1.27 -1.92,-0.76 -2.87,-1.85 -2.87,-3.27 0,-1.3 0.66,-2.41 1.97,-3.34 1.32,-0.92 3.53,-1.85 6.63,-2.77 4.15,-1.23 7.66,-1.86 10.57,-1.89zm64.65 19.61l-5.32 14.67c-1.32,3.63 -2.65,6.6 -3.98,8.9 -1.34,2.3 -2.85,4.26 -4.55,5.87 -3.49,3.34 -7.71,5 -12.64,5 -3.98,0 -7.21,-1.05 -9.69,-3.14 -1.92,-1.61 -2.87,-3.68 -2.87,-6.18 0,-2.08 0.66,-3.82 2,-5.24 1.34,-1.42 2.96,-2.12 4.91,-2.12 1.94,0 3.5,0.65 4.69,1.94 0.56,0.59 0.95,1.12 1.13,1.57 0.19,0.46 0.48,1.47 0.85,3.03 0.29,1.18 0.96,1.78 2.01,1.78 0.84,0 1.54,-0.36 2.11,-1.09 0.56,-0.73 0.84,-1.63 0.84,-2.7 0,-1.27 -0.7,-3.38 -2.1,-6.34l-9.73 -20.72c-1.03,-2.16 -1.79,-3.5 -2.3,-4.04 -0.51,-0.54 -1.64,-1.2 -3.39,-1.98 -0.54,-0.21 -1.01,-0.63 -1.41,-1.27 -0.39,-0.63 -0.58,-1.24 -0.58,-1.83 0,-2.4 2.38,-4.02 7.15,-4.89 3.17,-0.57 6.8,-0.84 10.86,-0.84 2.85,0 5.1,0.29 6.74,0.88 2.21,0.79 3.31,2.11 3.31,4 0,0.68 -0.3,1.46 -0.92,2.38 -0.59,0.87 -0.9,1.63 -0.9,2.3 0,0.65 0.14,1.31 0.43,2.01 0.29,0.7 0.88,1.89 1.79,3.56 1.03,1.89 1.93,2.83 2.71,2.83 0.84,0 1.7,-0.83 2.58,-2.48 0.9,-1.65 1.34,-3.25 1.34,-4.78 0,-1.24 -0.33,-2.25 -1.01,-3.03 -1.03,-1.21 -1.54,-2.25 -1.54,-3.1 0,-1.38 0.92,-2.48 2.76,-3.29 1.83,-0.81 4.27,-1.23 7.35,-1.23 5.71,0 8.56,1.36 8.56,4.11 0,1.01 -0.29,1.81 -0.87,2.41 -0.58,0.61 -1.64,1.17 -3.17,1.71 -1.3,0.48 -2.32,1.3 -3.07,2.43 -1.19,1.81 -2.55,4.77 -4.08,8.92z"/>
   </g>
  </g>
 </g>
</svg>
