<?xml version="1.0" encoding="UTF-8"?>
<!DOCTYPE svg PUBLIC "-//W3C//DTD SVG 1.1//EN" "http://www.w3.org/Graphics/SVG/1.1/DTD/svg11.dtd">
<!-- Creator: CorelDRAW -->
<svg xmlns="http://www.w3.org/2000/svg" xml:space="preserve" width="24.2975mm" height="12.7249mm" version="1.1" style="shape-rendering:geometricPrecision; text-rendering:geometricPrecision; image-rendering:optimizeQuality; fill-rule:evenodd; clip-rule:evenodd"
viewBox="0 0 1003.3 525.44"
 xmlns:xlink="http://www.w3.org/1999/xlink">
 <defs>
  <style type="text/css">
   <![CDATA[
    .fil9 {fill:white}
    .fil8 {fill:#64534C}
    .fil1 {fill:black}
    .fil0 {fill:#734015}
    .fil5 {fill:#8C5D2B}
    .fil7 {fill:#B8B8D9}
    .fil4 {fill:#E2E2FB}
    .fil3 {fill:#EF2424}
    .fil6 {fill:#F89191}
    .fil2 {fill:#FA7B7B}
    .fil10 {fill:#734015;fill-rule:nonzero}
   ]]>
  </style>
 </defs>
 <g id="Layer_x0020_1">
  <metadata id="CorelCorpID_0Corel-Layer"/>
  <g id="_105553621681696">
   <path class="fil0" d="M212.69 214.97l0.44 -1.2 3.39 -0.23c-1.7,-7.59 8.77,-7.47 26.38,-20.04 7.65,-5.47 19.29,-17.53 30.05,-19.59 -17.4,-24.97 -28.78,-63.31 -41.14,-74.91 -7.08,8.01 -12.75,15.62 -21.15,20.51 -12.46,7.24 -24.52,1.42 -24.65,-11.66l2.96 -1.03c0.59,-2.74 1.02,-3.37 1.1,-6.79 -2.33,-1.12 -5.67,-1.43 -8.44,-2.2 -8.01,18.15 -27.87,7.46 -29.38,-11.72 -0.48,-6.14 1.16,-5.15 -4.57,-8.49 -4.16,-2.42 -4.44,-2.03 -6.63,-7.66 -1.43,-3.67 -2.52,-7.23 -2.18,-11.01 0.13,-1.4 0.87,-5.27 1.38,-6.37 2.42,-5.24 0.16,-2.21 3.67,-3.6 -0.42,-4.08 -0.99,-3.09 -3.3,-5.6 -7.21,4.73 -10.09,-5.21 -31.55,-2.18 -16.93,2.39 -38.74,15.89 -52.2,26.72 -3.36,2.71 -7.89,5.68 -11.54,8.25 -3.02,2.13 -10.01,6.29 -11.79,8.07 -4.94,26.37 3.24,57.52 14.51,79.8 8.37,16.54 15.54,31.92 25.19,47.32 2.96,4.73 6.33,12.04 9.65,15.6 14.18,0.8 21.64,0.74 35.24,-2.09 8.48,-1.76 21.34,-5.4 29.97,-1.5l3.51 1.86c7.67,-5.13 51.07,-14.33 61.08,-10.23z"/>
   <path class="fil1" d="M229.95 504.27l1.45 1.45c0,0 2.51,2.72 5.65,2.72 3.14,0 17.59,-7.54 17.59,-7.54l11.01 -6.63 55.82 -40.9c5.52,-4.48 11.55,-8.48 17.29,-12.36 19.14,-12.93 31.21,-21.6 51.18,-33.41l4.18 -2.7c0.15,-0.12 0.46,-0.34 0.67,-0.55l-16.25 -25.87c-10.66,-18.56 -24.7,-57.56 -35.97,-79.37l-4.08 -7.28c-1.73,-5.77 -31.51,-60.22 -38.58,-69.93 -5.03,1.01 -7.56,3.68 -13.86,5.1 -7.14,1.61 -11.12,10.41 -19.41,19.95 -3.84,4.41 -5.42,6.44 -9.11,10.66l-16.77 21.69c-15.69,21.31 -16.33,21.46 -31.65,46.35 -1.64,2.65 -2.21,4.24 -3.54,6.34 -1.51,2.39 -2.43,3.41 -3.98,5.9l-34.66 53.23c-3.29,4.79 -0.85,3.82 -5.57,4.33 -1.36,-2.63 -0.95,0.14 -0.57,-4.18 4.89,-5.26 44.17,-74.9 51.99,-86.16l56.43 -73.24c2.44,-2.69 2.69,-1.44 3.15,-5.08 -31.88,-0.66 -37.03,-15.81 -60.64,22.35 -16.55,26.74 -36.04,24.5 -66.7,22.4 -7.77,-0.53 -26.22,4.02 -34.07,10.85 -3.45,3 -3.15,4.84 -6.48,8.46 0.19,0.21 0.52,0.2 0.61,0.57l1.69 1.78c1.15,1.46 0.79,1.02 1.72,2.71 15.96,29.19 32.48,64.97 49.61,96.58l24.44 42.45c3.25,5.46 22.49,36.73 26.77,41.04 6.58,10.73 13.36,19.99 20.64,28.3zm40.29 0.59c-6.71,4.94 -37.79,19.31 -38.07,20.53 -15.15,1.26 -38.69,-23.46 -48.96,-35.11l-41.88 -65.79c-2.22,-4.1 -4.09,-7.36 -6.26,-11.32 -14.31,-26.15 -24.3,-41.85 -35.74,-71.93l-9.25 -25.9 -34.74 8.79c6.22,-6.41 25.97,-6.72 34.19,-18.16 6.33,-8.82 4.27,-18.72 16.14,-29.98 0.16,-0.16 0.4,-0.38 0.56,-0.53 14.56,-13.66 17.57,1.85 53.35,-33.45l14.95 -12.4c-22.14,-4.01 -24.97,1.55 -37.15,6.57 2.3,-4.07 3.82,-2.42 5.17,-5.94 -5.69,1.33 -11.64,1.98 -17.83,3.32 -6.9,1.49 -11.85,2.92 -19.25,2.91 -16.29,-0 -23.34,-2.75 -41.69,-0.9 0.4,4.47 1.25,3.1 2.13,7.13 -3.34,-1.42 -4.62,-3.41 -6.8,-5.98l-6.34 2.63c1.12,-3.66 1.35,-2.12 3.54,-5.29 -2.38,-3.25 -3.74,-5.33 -6.22,-8.21 -12.38,28.64 6.14,36.12 -7.38,48.72 -12.47,11.61 3.06,28.06 1.66,52.87l-3.72 2.2c-2.1,-4.36 -3.01,-11.29 -4.38,-16.49 -4.05,-15.38 -12.74,-29.53 -1.02,-41.64 0.16,-0.16 0.4,-0.38 0.56,-0.54 11.61,-12.02 -7.35,-19.7 0.4,-34.75 11.17,-21.71 9.66,-16.04 4.1,-25.98l-10.08 -20.68c-1.38,-2.93 -1.74,-4.14 -2.9,-6.98l-11.87 -27.68c-2.69,-4.76 -4.29,-9.33 -6.66,-14.21 -2.17,-4.46 -3.92,-8.98 -5.64,-14.13 -1.89,-5.67 -2.91,-7.12 -3.15,-13.54l0 -8.63c0.25,-4.23 1.36,-7.14 6.03,-7.64 3.49,5.83 -0.68,16.67 9.42,38.38 12.71,27.32 15.66,39.77 28.55,65.91l16.43 30.73c7.73,-1.81 3.84,-2.44 18.35,-4.48l-18.85 -30.04c-13.6,-22.33 -22.89,-41.5 -31.95,-66.93 -6.13,-17.18 -6.61,-23.51 -2.7,-40.64 -6.16,2.01 -11.39,6.24 -17.57,6.14 1.85,-3.82 0.31,-1.72 2.95,-3.82l27.37 -18.76c18.61,-14.15 42.61,-34.67 65.52,-39.94 9.32,-2.14 12.26,-3.06 22.17,-0.74 6.42,1.5 13.59,4.03 14.91,10.82 -7.21,4.73 -10.09,-5.21 -31.55,-2.18 -16.93,2.39 -38.74,15.89 -52.2,26.72 -3.36,2.71 -7.89,5.68 -11.54,8.25 -3.02,2.13 -10.01,6.29 -11.79,8.07 -4.94,26.37 3.24,57.52 14.51,79.8 8.37,16.54 15.54,31.92 25.19,47.32 2.96,4.73 6.33,12.04 9.65,15.6 14.18,0.8 21.64,0.74 35.24,-2.09 8.48,-1.76 21.34,-5.4 29.97,-1.5l3.51 1.86c7.67,-5.13 51.07,-14.33 61.08,-10.23 -1.92,4.93 -3.83,4.99 -7.25,7.3 -16.04,3.98 -9.53,6.39 -16.79,9.26 -6.78,2.68 -11.76,5.29 -16.28,9 -4.37,3.6 -21.84,22.52 -24.16,26.58l20.82 -2.39c1.35,-0.17 2.35,-0.19 3.7,-0.63 3.01,-0.97 1.21,-0.09 3.27,-1.65 14.65,0.06 28.53,-13.09 36.61,-23.45 11.37,-14.59 9.81,-22.1 37.86,-22.19 21.21,-0.07 34.44,2.42 51.55,-7.01 12.55,-6.92 13.59,-12.88 34.18,-19.59l4.75 -2.01c0.17,-0.1 0.52,-0.29 0.74,-0.48 -9.84,-8.3 -4.36,-24.58 -21.36,-26.59 -10.78,-1.28 -35.14,-2.95 -44.17,0.93 -0.07,4.79 2.42,6.8 2.33,12.98l-27.71 24.16c-4.36,3.41 -27.59,20.03 -34.26,14.36 -1.7,-7.59 8.77,-7.47 26.38,-20.05 7.65,-5.47 19.29,-17.53 30.05,-19.59 -17.4,-24.97 -28.78,-63.31 -41.14,-74.91 -7.08,8.01 -12.75,15.62 -21.15,20.51 -12.46,7.24 -24.52,1.42 -24.65,-11.66l2.96 -1.03c4.92,3.01 4.61,19.01 27.2,-3.76 1.98,-1.99 4.4,-4.06 5.94,-6.15 0,0 9.3,-16.11 11.62,-5.47 1.66,7.6 -3.75,1.4 1.41,8.47 8.43,11.56 11.01,12.18 20.38,28.04 3.33,5.63 5.22,9.91 8.8,15.37 3.44,5.24 5.97,10.06 9.24,14.94 3.37,-0.79 6.1,-2.36 9.56,-3.62 8.25,-3 23.22,-3.21 32.25,-1.94 21.96,3.09 25.55,10.11 32.28,30.46 1.4,4.21 1.39,4.91 -0.18,8.27 -2.13,4.55 -2.47,3.75 -7.02,5.17 -4.72,1.47 -4.37,1.3 -8.25,3.83l-15.02 10.25c-3.74,2.81 -11.82,7.26 -13.97,10.2l33.98 45.13c7.89,13.13 24.53,46.48 31.74,61.64 10.53,22.14 21.83,43.27 31.75,66.03 0.95,2.18 1.89,3.47 2.59,5.17 0.5,1.22 0.86,1.94 1.02,2.65l0 1.92c-0.11,0.64 -0.3,1.43 -0.59,2.5 -2.46,8.99 0.4,6.7 -3.42,10.84l-116.35 79.26c-2.09,1.39 -2.15,1.71 -4.42,3.27 -2.66,1.82 -6.73,4.31 -9.25,5.58l-0.02 0zm-103.65 -85.82l33.26 55.67c-4.17,-0.42 -11.59,-1.3 -15.36,-2.23 -5.17,-1.26 -5.48,-4.6 -8.32,-9.24 -4.86,-7.94 -36.93,-62.29 -38.15,-66.76 7.98,2.75 8.44,4.51 17.61,2.79 4.28,5.67 7.09,13.06 10.96,19.76zm-74.92 -106.28c11.1,-2.51 7.42,-9.58 12.69,-16.88l23.29 47.82c7.54,16.63 17.1,32.26 23.75,47.73l-16.66 1.45c-2.23,-7.57 -38.96,-68.1 -43.07,-80.12z"/>
   <path class="fil2" d="M160.79 391.25c-1.82,0.71 -1.1,-0.14 -2.69,1.22l24.44 42.46c3.25,5.45 22.49,36.73 26.77,41.04l2.29 -2.27 105.92 -161.66c3.3,-4.27 5.23,-6.52 8.27,-10.38 6.05,-7.67 5.41,-9.81 10.48,-7.54l2.23 -2.31c-1.73,-5.77 -31.51,-60.22 -38.58,-69.93 -5.03,1.01 -7.56,3.68 -13.86,5.1 -7.14,1.61 -11.12,10.41 -19.41,19.95 -3.84,4.41 -5.42,6.44 -9.11,10.66l-16.77 21.7c-15.69,21.31 -16.33,21.46 -31.65,46.35 -1.64,2.65 -2.21,4.24 -3.54,6.34 -1.51,2.39 -2.43,3.41 -3.98,5.9l-34.66 53.23c-3.29,4.79 -0.85,3.82 -5.57,4.33 -1.36,-2.63 -0.95,0.14 -0.57,-4.18z"/>
   <path class="fil3" d="M336.27 294.12c1.63,5.06 -3.39,9.34 -5.54,12.52 -12.96,19.19 -23.73,38 -38.58,58.08l-40.73 55.96c-5.47,7.66 -38.64,53.57 -39.82,53.04l-2.29 2.27c6.68,10.89 13.56,20.26 20.96,28.67 2.36,2.13 3.14,12.22 29.07,-5.75l62.13 -45.53c5.52,-4.48 11.55,-8.48 17.29,-12.36 19.14,-12.93 31.21,-21.6 51.18,-33.41l4.18 -2.7c0.15,-0.12 0.46,-0.34 0.67,-0.55l-16.25 -25.87c-10.66,-18.56 -24.7,-57.56 -35.97,-79.37l-4.08 -7.28 -2.23 2.31z"/>
   <path class="fil3" d="M158.1 392.47c1.59,-1.36 0.87,-0.51 2.69,-1.22 4.89,-5.26 44.17,-74.9 51.99,-86.16l56.43 -73.24c2.44,-2.69 2.69,-1.44 3.15,-5.08 -31.88,-0.66 -37.03,-15.81 -60.64,22.35 -16.55,26.74 -36.04,24.5 -66.7,22.4 -7.77,-0.53 -26.22,4.02 -34.07,10.85 -3.45,3 -3.15,4.84 -6.48,8.46 0.19,0.21 0.52,0.2 0.61,0.57l1.69 1.78c1.15,1.46 0.79,1.02 1.72,2.71 15.96,29.2 32.48,64.98 49.61,96.59z"/>
   <path class="fil4" d="M44.37 327.43c1.65,-1.02 8.48,-2.8 10.97,-3.3 6.22,-6.41 25.97,-6.72 34.19,-18.16 6.33,-8.82 4.27,-18.72 16.14,-29.98 0.16,-0.16 0.4,-0.38 0.56,-0.53 14.56,-13.66 17.57,1.85 53.35,-33.45l14.95 -12.4c-22.14,-4.01 -24.97,1.55 -37.15,6.57 2.3,-4.07 3.82,-2.42 5.17,-5.94 -5.69,1.33 -11.64,1.98 -17.83,3.31 -6.9,1.49 -11.85,2.92 -19.25,2.92 -16.29,-0.01 -23.34,-2.76 -41.69,-0.9 0.4,4.47 1.25,3.1 2.13,7.13 -3.34,-1.42 -4.61,-3.41 -6.8,-5.98l-6.34 2.63c1.12,-3.66 1.35,-2.12 3.54,-5.29 -2.38,-3.25 -3.74,-5.33 -6.22,-8.21 -12.38,28.64 6.14,36.12 -7.38,48.72 -12.47,11.61 3.06,28.06 1.66,52.87z"/>
   <path class="fil4" d="M216.52 213.53l-3.39 0.23 -0.44 1.2c-1.92,4.93 -3.83,4.99 -7.25,7.3 -6.36,12.23 -4.49,7.44 -10.04,14.89 -1.77,2.37 -2.32,3.43 -4.16,5.8l-12.16 15.34c-5.9,5.28 -5.3,1.73 -3.09,4.14 14.65,0.06 28.53,-13.09 36.61,-23.45 11.37,-14.59 9.81,-22.1 37.86,-22.19 21.21,-0.07 34.44,2.42 51.55,-7.01 12.55,-6.92 13.59,-12.88 34.18,-19.59l4.75 -2.01c0.17,-0.1 0.52,-0.29 0.74,-0.48 -9.84,-8.3 -4.36,-24.58 -21.36,-26.59 -10.78,-1.28 -35.14,-2.95 -44.17,0.93 -0.07,4.79 2.42,6.8 2.33,12.98l-27.71 24.16c-4.35,3.41 -27.59,20.03 -34.26,14.35z"/>
   <path class="fil5" d="M7.69 95.79l-1.66 0.93c3.49,5.83 -0.68,16.66 9.42,38.38 12.71,27.32 15.66,39.77 28.55,65.91l16.43 30.73c7.73,-1.81 3.84,-2.44 18.35,-4.48l-18.85 -30.04c-13.6,-22.33 -22.89,-41.5 -31.95,-66.93 -6.12,-17.18 -6.61,-23.51 -2.7,-40.64 -6.16,2.01 -11.39,6.24 -17.57,6.14z"/>
   <path class="fil3" d="M91.68 312.76c4.1,12.02 40.84,72.55 43.07,80.12l16.66 -1.45c-6.65,-15.47 -16.21,-31.1 -23.75,-47.73l-23.29 -47.82c-5.26,7.29 -1.59,14.37 -12.69,16.88z"/>
   <path class="fil6" d="M199.85 474.71l-33.26 -55.67c-3.87,-6.71 -6.68,-14.09 -10.96,-19.76 -9.18,1.72 -9.63,-0.05 -17.61,-2.8 1.22,4.47 33.29,58.82 38.15,66.77 2.84,4.64 3.14,7.98 8.32,9.24 3.77,0.92 11.19,1.81 15.36,2.23z"/>
   <path class="fil1" d="M211.6 473.7c1.18,0.53 34.35,-45.38 39.82,-53.04l40.73 -55.96c14.86,-20.08 25.63,-38.88 38.58,-58.07 2.15,-3.18 7.17,-7.46 5.54,-12.52 -5.07,-2.27 -4.43,-0.13 -10.48,7.54 -3.04,3.86 -4.98,6.11 -8.27,10.38l-105.92 161.66z"/>
   <path class="fil7" d="M175.99 262.44c-2.21,-2.4 -2.82,1.14 3.09,-4.14l12.16 -15.34c1.84,-2.37 2.39,-3.43 4.16,-5.8 5.55,-7.45 3.68,-2.66 10.04,-14.89 -16.04,3.98 -9.53,6.39 -16.79,9.26 -6.78,2.68 -11.76,5.29 -16.28,9 -4.37,3.6 -21.84,22.52 -24.16,26.58l20.82 -2.39c1.35,-0.17 2.35,-0.19 3.7,-0.63 3.01,-0.97 1.21,-0.09 3.27,-1.65z"/>
   <path class="fil1" d="M181.62 97.82c-5.12,-6.59 -8.08,5.08 -16.84,0.07 -6.84,-3.91 -5.19,-14.56 -5.09,-18.21 0.21,-7.27 -6.67,-5.13 -11.36,-10.45 -5.44,-6.17 -0.9,-13.04 -4.42,-20.27 -3.51,1.4 -1.24,-1.64 -3.67,3.6 -0.51,1.1 -1.24,4.97 -1.38,6.37 -0.35,3.79 0.75,7.34 2.18,11.01 2.18,5.63 2.47,5.24 6.63,7.66 5.73,3.34 4.09,2.35 4.57,8.49 1.5,19.18 21.37,29.87 29.38,11.72z"/>
   <path class="fil1" d="M223.48 65.33c4.1,0 36.25,-2.11 36.25,-9.89 0,-9.33 -19.03,-1.25 -25.05,0.22 -7.74,1.88 -13.17,1.24 -11.2,9.67z"/>
   <path class="fil1" d="M202.4 45.61c11.81,-7.91 30.76,-12.76 30.76,-19.77 0,-2.12 -1.96,-4.39 -3.3,-4.39 -6.18,0 -10.77,7.14 -14.61,10.65 -3.71,3.38 -11.85,9.79 -12.85,13.52z"/>
   <path class="fil1" d="M188.16 36.96c3.1,-13.87 13.49,-30.44 8.65,-35.53 -1.46,-1.54 -4.45,-1.83 -5.42,-0.91 -4.48,4.26 -2.88,12.61 -3.25,17.79 -0.36,5.01 -1.84,15.27 0.01,18.65z"/>
  </g>
  <path class="fil8" d="M652.6 251.24c-4.28,4.83 -9.09,9.2 -14.26,13.15 -20.2,15.43 -43.5,23.03 -68.88,23.03 -21.26,0 -41.37,-5.31 -58.12,-17.98 -12.13,15.1 -39.22,17.12 -57.59,17.12 -13.58,0 -30.82,-1.01 -43.37,-8.32 -12.5,7.12 -29.32,8.32 -42.84,8.32 -19.18,0 -47.8,-2.19 -60.13,-18.35 -4.96,2.65 -10.58,4.12 -16.05,5.15 -2.14,0.4 -5.26,1.9 -7.22,2.84 -15.37,7.4 -31.75,11.24 -48.82,11.24 -17.93,0 -35.23,-4.16 -51.55,-11.53 -20.34,-9.19 -36.65,-23.53 -48.49,-42.44 -11.12,-17.76 -17.38,-37.34 -17.38,-58.38 0,-23.98 7.63,-45.86 22.04,-64.97 12.75,-16.9 29.33,-29.47 48.69,-37.92 15.07,-6.58 31.03,-9.98 47.47,-9.98 15.82,0 31.06,3.51 45.36,10.25 0.9,0.42 1.91,0.93 2.91,1.37 0.45,-0.1 0.89,-0.21 1.29,-0.3 2.8,-0.62 5.67,-0.92 8.53,-0.92 9.88,0 18.6,3.92 25.47,10.54 8.14,-4.88 18.58,-7.87 27.57,-10.34 13.56,-3.73 28.3,-7.17 42.41,-7.17 17.09,0 30.3,12.2 29.59,29.56l-0.65 20.99c6.64,-2.4 13.75,-3.6 21.18,-3.6 18.35,0 35.3,5.8 48.26,19.11 4.81,4.93 8.54,10.65 11.13,16.95 3.19,-3.8 6.74,-7.37 10.62,-10.7 20.34,-17.45 44.75,-25.48 71.4,-25.48 19.28,0 37.53,5.03 53.47,16 7.71,5.31 14.39,11.71 19.96,19.05 3.39,-4.14 7.16,-7.97 11.27,-11.49 18.68,-16.02 41.07,-23.44 65.55,-23.44 18.71,0 36.52,4.69 52.22,15.01 5.91,3.89 11.2,8.52 15.47,13.93 1.28,-1.23 2.61,-2.43 3.96,-3.6 20.34,-17.45 44.75,-25.48 71.4,-25.48 19.28,0 37.53,5.03 53.48,16.01 11.41,7.85 20.55,18.09 27.18,30.23 6.93,12.7 10.63,26.49 10.63,40.98 0,26.94 -13.04,48.64 -34.11,64.71 -20.2,15.42 -43.5,23.03 -68.88,23.03 -23.96,0 -46.45,-6.75 -64.33,-23.16 -1.55,-1.42 -3.04,-2.9 -4.47,-4.43 -4.66,5.58 -10.25,10.27 -16.46,14.1 -15.38,9.5 -32.79,13.49 -50.76,13.49 -21.8,0 -41.89,-6.41 -58.82,-20.33 -5.75,-4.72 -10.91,-10 -15.3,-15.85zm-334.46 -71.21c-1.31,0.8 -2.66,1.52 -4.03,2.17 1.38,0.55 2.73,1.2 4.01,1.94 0.01,-1.37 0.01,-2.74 0.01,-4.11zm-32.71 5.62c-4.98,-0.99 -9.74,-2.87 -14.06,-5.81 -6.54,-4.46 -11.24,-10.89 -14.97,-17.76 -2.01,-3.69 -4.23,-7.95 -6.82,-11.25 -1.06,-1.35 -2.28,-2.51 -3.68,-3.51 -3.85,-2.73 -8,-4.48 -12.77,-4.48 -1.41,0 -2.38,0.01 -3.28,1.11 -2.24,2.77 -2.64,7.78 -2.64,11.18 0,10.15 2.38,19.53 7.71,28.2 5.73,9.32 12.74,13.51 23.73,13.51 4.47,0 8.85,-0.76 13.07,-2.21 2.23,-0.77 5.64,-2.13 7.37,-3.8 1.99,-1.91 4.1,-3.67 6.33,-5.19z"/>
  <path class="fil9" d="M796.92 161.92c3.72,-5.47 8.29,-10.53 13.7,-15.17 18.21,-15.61 39.93,-22.68 63.84,-22.68 16.95,0 32.9,4.33 46.9,13.96 9.91,6.82 17.81,15.67 23.57,26.24 6.01,11 9.21,22.87 9.21,35.41 0,23.23 -11.32,41.58 -29.54,55.48 -18.17,13.87 -38.98,20.65 -61.84,20.65 -21.05,0 -40.78,-5.7 -56.48,-20.11 -5.67,-5.21 -10.17,-10.99 -13.58,-17.27 -1.14,4.29 -3.3,8.25 -6,11.87 -4.16,5.57 -9.4,10.11 -15.3,13.75 -13.54,8.36 -28.86,11.76 -44.66,11.76 -19.14,0 -36.62,-5.5 -51.45,-17.69 -9.86,-8.1 -17.18,-17.55 -21.79,-28.28 -5.12,9.68 -12.72,18.1 -22.18,25.32 -18.17,13.87 -38.98,20.65 -61.84,20.65 -21.05,0 -40.79,-5.7 -56.49,-20.11 -2.61,-2.39 -4.97,-4.91 -7.09,-7.54 0.08,0.71 0.12,1.43 0.12,2.16 0,23.81 -35.85,24.62 -52.26,24.62 -12.18,0 -33.9,-0.73 -43.24,-11.33 -9.67,10.3 -30.42,11.33 -42.98,11.33 -17.14,0 -54.51,-0.9 -54.51,-25.75 0,-0.63 0.02,-1.26 0.07,-1.89 -2.28,3.14 -4.9,6.02 -7.92,8.51 -4.24,3.5 -10.65,5.12 -15.96,6.11 -3.24,0.61 -7.16,2.37 -10.11,3.79 -13.82,6.64 -28.46,10.09 -43.79,10.09 -16.29,0 -31.95,-3.81 -46.76,-10.5 -18.28,-8.25 -32.79,-21.03 -43.43,-38.02 -9.98,-15.94 -15.61,-33.38 -15.61,-52.22 0,-21.44 6.79,-40.86 19.7,-57.97 11.54,-15.3 26.51,-26.6 44.06,-34.27 13.62,-5.95 27.97,-9.01 42.83,-9.01 14.12,0 27.64,3.13 40.42,9.14 1.71,0.81 5.31,2.51 6.65,2.77 1.42,-0.03 3.61,-0.57 5,-0.87 1.98,-0.44 4,-0.64 6.03,-0.64 8.13,0 14.9,3.88 19.99,10.09 1.42,1.73 2.73,3.51 3.93,5.33 1.68,-2.18 3.79,-4.1 6.25,-5.73 6.92,-4.59 17.97,-7.72 25.96,-9.91 12.27,-3.37 26.55,-6.76 39.33,-6.76 10.59,0 18.42,6.76 17.98,17.59l-1.31 42.23c8.99,-8.34 20.22,-12.87 33.45,-12.87 15.22,0 29.2,4.57 39.94,15.6 4.81,4.94 8.23,10.85 10.18,17.46 2.22,7.52 2.72,16.45 2.91,24.26l0.14 5.58c3.32,-15.66 11.45,-29.24 24.4,-40.35 18.21,-15.61 39.93,-22.68 63.84,-22.68 16.94,0 32.9,4.33 46.89,13.96 9.91,6.82 17.81,15.67 23.57,26.24 0.96,1.75 1.85,3.53 2.66,5.33 4.31,-9.25 10.71,-17.53 19.13,-24.75 16.55,-14.19 36.25,-20.65 57.99,-20.65 16.46,0 32.05,4.03 45.84,13.1 9.48,6.24 16.64,14.42 19.68,24.62zm-12.38 39.48c-3.84,2.85 -8.08,4.83 -12.62,5.94 5,0.04 9.39,1.9 12.99,5.04 -0.27,-2.74 -0.41,-5.53 -0.41,-8.37 0,-0.88 0.01,-1.75 0.04,-2.61zm-290.71 23.12l0.07 2.83c0.02,1.04 0.1,3.18 0.22,3.71 0.58,0.85 1.99,2.08 3.11,2.99 -1.38,-3.08 -2.51,-6.26 -3.4,-9.53zm-165.03 -86.84c0,0.03 0,0.06 0,0.09 0,12.78 -4.53,24.21 -15.34,31.48 -5.66,3.8 -12.09,5.66 -18.89,5.66 -5.92,0 -11.71,-1.29 -16.66,-4.66 -4.92,-3.35 -8.51,-8.56 -11.31,-13.71 -2.26,-4.16 -4.96,-9.14 -7.88,-12.87 -1.75,-2.23 -3.77,-4.17 -6.09,-5.81 -5.84,-4.14 -12.28,-6.62 -19.48,-6.62 -5.04,0 -9.07,1.44 -12.3,5.41 -4.15,5.12 -5.24,12.09 -5.24,18.49 0,12.31 2.97,23.78 9.43,34.28 7.86,12.77 18.6,19.04 33.62,19.04 5.76,0 11.39,-0.97 16.83,-2.84 4.04,-1.38 8.55,-3.43 11.66,-6.42 4.19,-4.03 9.39,-7.59 15.44,-7.59 6.58,0 12.21,3.16 16.22,8.32 3.75,4.82 5.46,10.57 5.46,16.64 0,5.71 -1.4,11.33 -3.51,16.63 1.58,-1.29 3.19,-2.4 4.42,-3.21 1.47,-1.98 2.53,-9.1 2.83,-11.5 1.9,-15.45 1.74,-32.92 1.74,-48.49 0,-10.13 0.13,-21.89 -0.93,-32.32zm82.79 99.79c0.61,-0.79 1.2,-1.54 1.72,-2.22 2.8,-4.27 3.11,-23.25 3.11,-28.34 0,-5.63 -0.22,-15.23 -2.36,-20.51 -1.07,-2.65 -2.02,-3.74 -4.91,-3.74 -0.82,0 -1.82,-0.04 -2.19,0.5 -0.89,1.85 -1.01,7.38 -1.01,9.41l0 24.22c0.24,4.51 0.36,10.59 1.06,15.16 0.95,1.41 2.56,3.18 3.54,4.27 0.36,0.4 0.7,0.82 1.03,1.24zm353.95 -29.16c-0.87,0.06 -1.75,0.09 -2.65,0.09 -10.1,0 -18.97,-3.87 -24.8,-12.26 -2.7,-3.89 -4.82,-10.69 -6.27,-15.22 -0.54,-1.68 -0.83,-3.11 -2.68,-3.11 -1.47,0 -2.26,0.77 -3.15,1.9 -1.88,2.42 -2.47,5.29 -2.47,8.31 0,7.68 2.8,14.02 8,19.62 3.95,4.24 8.57,6.02 14.34,6.02 2.56,0 5.55,-0.1 8.04,-0.72 3.02,-0.75 6.43,-2.34 9.23,-3.68 0.78,-0.37 1.58,-0.69 2.4,-0.95zm-184.29 14.62c0.26,-1.07 0.32,-2.73 0.32,-3.46 0,-7.32 -1.12,-14.82 -2.62,-21.98 -1.36,-6.46 -3.19,-13.63 -6.08,-19.58 -0.33,-0.68 -1.29,-2.72 -1.9,-2.75 -0.12,0 -0.35,0 -0.52,0.16 -0.76,0.92 -0.9,2.92 -0.9,4.03 0,5.86 1.37,12.73 2.61,18.45 1.59,7.34 3.61,14.68 6.32,21.69 0.45,1.17 1.17,3.43 2.67,3.43 0.03,0 0.06,0 0.1,0zm293.3 0c0.26,-1.07 0.32,-2.73 0.32,-3.46 0,-7.32 -1.12,-14.82 -2.63,-21.98 -1.36,-6.46 -3.19,-13.63 -6.08,-19.58 -0.33,-0.68 -1.29,-2.72 -1.9,-2.75 -0.12,0 -0.35,0 -0.52,0.16 -0.76,0.92 -0.9,2.92 -0.9,4.03 0,5.87 1.37,12.73 2.61,18.45 1.59,7.34 3.61,14.68 6.32,21.69 0.45,1.17 1.17,3.43 2.67,3.43 0.03,0 0.07,0 0.1,0z"/>
  <path class="fil10" d="M236.09 84.69c12.35,0 24.26,2.69 35.78,8.11 5.42,2.56 9.18,3.81 11.31,3.81 1.52,0 3.94,-0.39 7.32,-1.13 1.12,-0.26 2.34,-0.39 3.68,-0.39 4.42,0 8.27,2.04 11.57,6.11 8.1,9.83 12.17,22.01 12.17,36.56 0,10.22 -3.51,17.72 -10.53,22.44 -3.81,2.55 -8.1,3.81 -12.82,3.81 -4.29,0 -7.8,-0.91 -10.53,-2.77 -2.73,-1.86 -5.33,-5.2 -7.88,-9.92 -3.64,-6.67 -6.59,-11.48 -8.88,-14.38 -2.3,-2.95 -5.07,-5.59 -8.36,-7.97 -8.19,-5.76 -16.81,-8.62 -25.78,-8.62 -8.7,0 -15.64,3.16 -20.75,9.44 -5.11,6.33 -7.67,14.77 -7.67,25.35 0,14.56 3.68,27.9 11.05,39.99 10.01,16.16 24.3,24.22 42.89,24.22 6.85,0 13.65,-1.12 20.36,-3.42 6.71,-2.3 11.96,-5.24 15.68,-8.88 3.21,-3.03 5.85,-4.55 7.89,-4.55 2.94,0 5.5,1.39 7.62,4.11 2.12,2.73 3.17,6.07 3.17,9.96 0,4.9 -1.47,10.4 -4.46,16.51 -2.95,6.11 -6.5,10.88 -10.66,14.34 -1.78,1.43 -5.45,2.73 -11.05,3.81 -3.2,0.57 -7.49,2.12 -12.82,4.68 -12.52,6.02 -25.52,9.01 -39.08,9.01 -14.12,0 -28.2,-3.16 -42.28,-9.53 -16.33,-7.36 -29.2,-18.67 -38.69,-33.88 -9.32,-14.82 -13.95,-30.28 -13.95,-46.44 0,-18.8 5.85,-35.96 17.5,-51.42 10.14,-13.43 23.4,-23.7 39.73,-30.85 12.43,-5.42 25.26,-8.11 38.47,-8.11zm160.64 9.79l-1.65 53.16c-0.17,6.37 1.78,9.53 5.85,9.53 2.04,0 4.03,-1.39 5.98,-4.2 8.19,-11.92 19.15,-17.9 32.84,-17.9 13.47,0 24.18,4.12 32.15,12.31 3.55,3.64 6.07,7.97 7.54,12.95 1.47,4.98 2.3,12.13 2.47,21.44l1.12 45.84c0.09,3.94 0.61,6.89 1.61,8.75 1,1.86 3.25,4.16 6.8,6.98 2.47,1.95 3.68,4.24 3.68,6.97 0,9.14 -13.78,13.73 -41.37,13.73 -24.56,0 -36.82,-4.29 -36.82,-12.83 0,-1.43 0.22,-2.56 0.65,-3.29 0.39,-0.78 1.87,-2.82 4.42,-6.11 3.55,-4.63 5.33,-16.29 5.33,-34.92 0,-11.22 -1.04,-19.45 -3.16,-24.61 -2.82,-7.02 -7.8,-10.53 -14.99,-10.53 -5.15,0 -8.92,1.86 -11.39,5.59 -1.78,2.69 -2.69,7.76 -2.69,15.21l0 24.52c0.61,10.83 1.13,16.94 1.52,18.37 0.43,1.43 2.38,4.12 5.85,8.01 1.6,1.78 2.43,3.86 2.43,6.24 0,9.57 -12.44,14.34 -37.35,14.34 -29.07,0 -43.63,-4.94 -43.63,-14.86 0,-2.3 0.48,-4.03 1.39,-5.29 0.91,-1.21 3.21,-3.08 6.84,-5.63 3.21,-2.3 5.42,-8.45 6.67,-18.46 1.21,-10.05 1.82,-26.64 1.82,-49.82 0,-18.19 -0.52,-30.8 -1.52,-37.82 -0.35,-2.64 -0.95,-4.55 -1.82,-5.81 -0.91,-1.21 -2.56,-2.47 -5.03,-3.73 -5.24,-2.73 -7.88,-5.85 -7.88,-9.4 0,-4.2 1.99,-7.63 5.97,-10.27 3.99,-2.64 11.62,-5.46 22.83,-8.49 15.25,-4.25 27.39,-6.37 36.44,-6.37 4.89,0 7.28,2.12 7.1,6.37zm184.43 40.46c15.46,0 29.07,4.03 40.72,12.04 8.36,5.76 15.12,13.26 20.19,22.49 5.24,9.66 7.88,19.71 7.88,30.2 0,18.37 -8.4,33.96 -25.25,46.83 -16.07,12.26 -34.48,18.41 -55.24,18.41 -20.23,0 -36.61,-5.76 -49.13,-17.24 -12.17,-11.18 -18.24,-25.73 -18.24,-43.67 0,-19.97 7.45,-36.3 22.31,-49 15.55,-13.39 34.48,-20.06 56.75,-20.06zm-10.18 29.33c-3.68,0 -6.67,1.38 -8.92,4.12 -2.25,2.73 -3.38,6.41 -3.38,10.96 0,5.07 0.95,12 2.86,20.75 1.9,8.8 4.16,16.55 6.8,23.31 2.64,6.93 6.89,10.4 12.83,10.4 7.54,0 11.31,-4.77 11.31,-14.34 0,-7.1 -0.95,-15.16 -2.86,-24.22 -1.91,-9.05 -4.2,-16.42 -6.93,-22.09 -2.82,-5.76 -6.72,-8.71 -11.7,-8.88zm160.43 -29.2c15.08,0 28.38,3.77 39.86,11.31 10.92,7.19 16.38,16.12 16.38,26.77 0,7.37 -2.56,13.34 -7.63,17.89 -4.72,4.29 -10.44,6.45 -17.11,6.45 -7.02,0 -12.31,-2.51 -15.86,-7.58 -1.08,-1.6 -2.73,-5.72 -4.85,-12.35 -2.3,-7.11 -6.63,-10.66 -13.04,-10.66 -4.68,0 -8.58,2.04 -11.74,6.11 -3.17,4.07 -4.77,9.06 -4.77,14.99 0,10.13 3.63,19.15 10.91,27.03 5.94,6.33 13.35,9.49 22.31,9.49 4.24,0 7.8,-0.35 10.66,-1.04 2.9,-0.74 6.67,-2.21 11.31,-4.42 1.17,-0.56 2.51,-0.86 3.94,-0.86 2.9,0 5.41,1.34 7.62,4.07 2.21,2.68 3.3,5.85 3.3,9.48 0,3.81 -1.56,7.8 -4.72,12 -3.12,4.2 -7.23,7.84 -12.31,11.01 -11,6.76 -24,10.14 -38.94,10.14 -17.46,0 -32.28,-5.07 -44.54,-15.21 -15.73,-12.87 -23.61,-29.24 -23.61,-49.13 0,-19.11 7.32,-34.96 21.92,-47.48 13.99,-12 30.93,-18.02 50.91,-18.02zm143.05 -0.13c15.47,0 29.07,4.03 40.73,12.04 8.36,5.76 15.12,13.26 20.19,22.49 5.24,9.66 7.88,19.71 7.88,30.2 0,18.37 -8.4,33.96 -25.26,46.83 -16.07,12.26 -34.48,18.41 -55.24,18.41 -20.23,0 -36.61,-5.76 -49.13,-17.24 -12.17,-11.18 -18.24,-25.73 -18.24,-43.67 0,-19.97 7.45,-36.3 22.31,-49 15.55,-13.39 34.49,-20.06 56.75,-20.06zm-10.18 29.33c-3.68,0 -6.67,1.38 -8.92,4.12 -2.25,2.73 -3.38,6.41 -3.38,10.96 0,5.07 0.95,12 2.86,20.75 1.91,8.8 4.16,16.55 6.8,23.31 2.64,6.93 6.89,10.4 12.82,10.4 7.54,0 11.31,-4.77 11.31,-14.34 0,-7.1 -0.95,-15.16 -2.86,-24.22 -1.9,-9.05 -4.2,-16.42 -6.93,-22.09 -2.81,-5.76 -6.71,-8.71 -11.69,-8.88z"/>
  <g id="_105553621737504">
   <path class="fil8" d="M798.61 276.68c1.2,-2.26 2.71,-4.37 4.53,-6.32 4.68,-5.02 10.91,-8.68 17.11,-11.51 17.57,-7.99 39.51,-16.51 58.97,-16.71 6.47,-0.06 13.71,0.37 19.33,4.25 1.26,0.92 2.37,1.96 3.32,3.11 4.11,-2.06 8.47,-3.66 12.87,-4.95 6.68,-1.95 13.63,-3.25 20.6,-3.25 15.47,0 29.24,5.54 40.8,15.73 8.91,7.85 15.51,17.57 20.03,28.53 4.77,11.57 7.11,23.79 7.11,36.3 0,26.07 -8.82,49.04 -27.71,67.25 -14.13,13.63 -31.2,21.48 -51,21.48 -1.32,0 -2.63,-0.04 -3.95,-0.12 2.7,3.96 3.68,8.61 3.68,13.42 0,12 -7.07,21.04 -17.59,26.14 -9.8,4.75 -21.5,5.96 -32.27,5.96 -20.46,0 -40.54,-3.92 -58.7,-13.59 -10.93,-5.81 -19.27,-15.16 -19.27,-28.15 0,-5.67 1.44,-11.13 5.04,-15.61 3.12,-3.89 7.42,-6.45 11.95,-8.56 0.13,-0.23 0.14,-0.68 0.19,-0.94 0.52,-2.85 0.9,-5.81 1.19,-8.84 -1.15,2.21 -2.51,4.34 -4.01,6.37 -4.85,6.57 -11.02,11.83 -18.07,15.92 -8.89,5.15 -18.58,8.01 -28.89,8.01 -11.21,0 -21.35,-3.37 -29.51,-10.51 -10.92,7.07 -23.23,10.51 -36.39,10.51 -13.19,0 -26.4,-2.67 -37.39,-10.29 -6.9,-4.79 -12.28,-11.1 -16.18,-18.52 -3.9,-7.44 -5.94,-15.46 -5.94,-23.87 0,-14.11 5.97,-26.2 16.05,-35.88 1.49,-1.43 3.04,-2.79 4.65,-4.07 -1.2,-0.83 -2.35,-1.76 -3.45,-2.79 -5.08,-4.79 -7.99,-10.88 -8.75,-17.62 -0.23,0.17 -0.44,0.36 -0.65,0.59 -2.01,2.18 -4.2,6.65 -5.58,9.32l-33.95 65.76c-7.69,14.91 -20.68,36.96 -39.79,36.96 -8.67,0 -15.92,-4.77 -21.71,-10.84 -6.47,-6.77 -11.84,-15.1 -16.78,-23.03l-11.61 -18.64 -19.32 33.3c-6,10.36 -15.09,18.83 -27.74,18.83 -6.99,0 -13.4,-2.48 -18.79,-6.89 -5.13,-4.21 -9.14,-10.05 -12.45,-15.67l-40.64 -67.6c-3.07,-4.93 -8.3,-13.73 -12.46,-17.55 -0.71,-0.36 -1.84,-0.74 -2.96,-1.07 -1.24,2.45 -2.78,4.75 -4.62,6.86 -3.13,3.58 -6.84,6.33 -10.98,8.09 14.08,12.34 22.5,28.79 22.5,49.7 0,24.33 -10.34,44.37 -29.48,59.22 -20.84,16.17 -46.45,21.91 -72.41,21.91 -13.4,0 -26.77,-1.65 -39.85,-4.46 -10.91,-2.35 -23.6,-5.71 -32.99,-11.88 -8.93,-5.87 -14.16,-16.68 -17.65,-26.45 -3.85,-10.79 -6.12,-22.07 -6.12,-33.55 0,-6.96 1.59,-13.82 5.95,-19.38 3.46,-4.41 7.92,-7.54 13.03,-9.07 -8.84,-11.76 -14.07,-25.49 -14.07,-41.12 0,-10.48 2.49,-20.57 7.11,-29.97 4.72,-9.61 11.45,-17.76 19.68,-24.58 18.8,-15.6 41.05,-22.63 65.33,-22.63 13.49,0 27.76,3.54 40.65,7.44 1.18,-0.39 2.41,-0.9 3.41,-1.26 3.12,-1.12 6.43,-1.68 9.74,-1.68 13.78,0 24.13,10.25 31.53,20.79 0.91,1.29 1.79,2.61 2.63,3.95 4.42,-2.9 9.51,-4.86 14.56,-6.15 12.82,-3.27 26.1,-4.5 39.3,-4.5 14.52,0 35.81,0.98 48.38,10.77 6.87,-4.97 15.93,-7.34 23.99,-8.56 10.98,-1.66 22.14,-2.21 33.23,-2.21 11.09,0 24.51,0.47 34.92,4.4 4.91,1.85 9.16,4.61 12.38,8.17 2.54,-3.08 5.88,-5.58 9.91,-7.31 9.76,-4.19 21.49,-5.12 32.02,-5.12 7.85,0 15.75,0.52 23.46,2.05 6.22,1.23 11.8,4.11 16.25,8.65 1.83,1.87 3.36,3.92 4.55,6.14 1.71,-1.12 3.48,-2.16 5.29,-3.13 18.19,-9.73 37.81,-14.82 58.45,-14.82 17.68,0 34.57,4.34 48.97,14.87 7.32,5.36 13.38,12.13 17,20.49zm4.75 32.91l-0.22 16.23c0,3.49 0.05,12.87 0.89,18.13 5.08,1.3 9.08,4.27 11.67,8.29 0.01,-3.2 0.02,-6.32 0.09,-9.33 -0.25,-8.54 0,-18.01 -0.85,-26.71 -4.39,-1.21 -8.32,-3.44 -11.59,-6.61zm-219.89 -20.77c-0.06,-0.08 -0.13,-0.17 -0.19,-0.24 -0.42,0.52 -0.85,1.02 -1.29,1.52 0.12,0.27 0.26,0.55 0.39,0.83 0.37,-0.69 0.75,-1.4 1.09,-2.11zm-326.99 86.78c1.99,1.58 4.33,2.85 6.44,3.81 4.85,2.22 9.91,3.47 15.22,3.62 -0.59,-0.19 -1.14,-0.36 -1.61,-0.51 -6.7,-2.1 -13.46,-4.32 -20.05,-6.92zm457.34 -74.99c0.37,-0.01 0.74,-0.02 1.11,-0.03 -0.03,-0.46 -0.06,-0.92 -0.1,-1.38 -0.09,0.13 -0.19,0.25 -0.26,0.36 -0.25,0.36 -0.5,0.71 -0.75,1.06zm192.24 42.34c1.7,-3.76 1.7,-12.29 1.7,-13.98 0,-1.92 -0.1,-5.01 -0.49,-8.13l-1.21 22.12z"/>
  </g>
  <path class="fil9" d="M665.11 270.85c3.66,-3.45 7.84,-6.33 12.28,-8.71 17.22,-9.22 35.72,-14.01 55.24,-14.01 16.24,0 31.73,3.89 44.95,13.56 6.44,4.71 11.83,10.66 14.94,18.08 3.3,7.86 4.08,17.39 4.08,25.94l-0.28 20.11c0,4.85 0.1,19.39 2.2,23.73 0.05,0.1 0.1,0.21 0.17,0.33 0.74,0.16 1.61,0.28 2.28,0.38 7.17,1.16 11.26,6.76 11.26,13.86 0,6.84 -2.86,13.09 -6.85,18.5 -4.3,5.81 -9.76,10.45 -16,14.07 -7.87,4.55 -16.37,7.09 -25.48,7.09 -11.26,0 -21.21,-3.85 -28.71,-12.55 -0.56,0.37 -1.11,0.76 -1.45,1.02 -10.56,7.79 -22.64,11.54 -35.75,11.54 -11.76,0 -23.69,-2.27 -33.51,-9.08 -6,-4.15 -10.64,-9.62 -14.02,-16.08 -3.39,-6.47 -5.16,-13.4 -5.16,-20.71 0,-12.22 5.2,-22.56 13.95,-30.96 4.59,-4.41 9.72,-7.9 15.21,-10.65 -5.26,-0.45 -10.1,-2.37 -14.05,-6.09 -4.6,-4.34 -6.81,-10 -6.81,-16.31 0,-2.32 0.33,-4.57 0.92,-6.72 -2.85,1.27 -6.26,2.4 -8.18,3.09 -1.94,0.7 -3.61,1.73 -5.02,3.25 -2.43,2.64 -4.98,7.63 -6.62,10.81l-33.95 65.76c-6.16,11.93 -18.06,33.27 -33.73,33.27 -6.69,0 -12.35,-4.09 -16.78,-8.73 -5.97,-6.25 -11.37,-14.61 -15.93,-21.93l-13.87 -22.26c-1.03,-1.57 -2.34,-3.74 -3.64,-5.61 -0.98,1.24 -1.99,2.87 -2.42,3.62l-22.68 39.1c-4.72,8.14 -11.77,15.43 -21.85,15.43 -5.41,0 -10.29,-1.93 -14.47,-5.35 -4.44,-3.64 -8.08,-9.07 -10.93,-13.92l-40.69 -67.69c-3.44,-5.52 -9.39,-15.23 -14.11,-19.39 -1.35,-1.08 -5.27,-2.21 -7.26,-2.77 -1.36,-0.44 -2.63,-1.03 -3.8,-1.76 -0.98,4.13 -2.88,7.94 -5.79,11.27 -4.5,5.16 -10.44,8.07 -17.31,8.07 -3.7,0 -7.4,-0.6 -10.75,-2.11 22.93,11.57 37.89,29.75 37.89,56.31 0,22.2 -9.35,40.26 -26.84,53.83 -19.62,15.22 -43.83,20.47 -68.24,20.47 -12.91,0 -25.81,-1.6 -38.42,-4.31 -9.85,-2.11 -22.19,-5.33 -30.68,-10.91 -7.5,-4.93 -12.06,-14.88 -14.98,-23.05 -3.59,-10.05 -5.72,-20.56 -5.72,-31.25 0,-5.39 1.1,-10.84 4.5,-15.17 3.75,-4.77 8.91,-7.52 15.03,-7.52 3.76,0 7.13,1.1 10.09,2.92 -0.16,-0.14 -0.32,-0.28 -0.48,-0.43 -14.76,-13.02 -24.22,-29.41 -24.22,-49.37 0,-9.44 2.25,-18.49 6.41,-26.97 4.29,-8.75 10.42,-16.12 17.91,-22.33 17.58,-14.58 38.29,-21.06 60.98,-21.06 12.76,0 26.94,3.58 39.08,7.27 0.55,0.17 1.43,0.44 1.04,0.55 1.84,-0.36 4.46,-1.4 6.24,-2.04 2.38,-0.85 4.91,-1.28 7.44,-1.28 11.26,0 19.97,9.37 25.96,17.89 2.38,3.39 4.55,6.97 6.35,10.7 4.23,-5.23 11.07,-8.42 18.1,-10.22 12.25,-3.12 24.99,-4.29 37.61,-4.29 13.11,0 38.93,0.69 48.2,13.42 5.55,-7.06 16.47,-9.97 25.18,-11.29 10.6,-1.61 21.5,-2.13 32.21,-2.13 9.95,0 23.13,0.42 32.51,3.96 8.47,3.2 14.48,9.58 14.48,18.95 0,3.22 -0.61,6.43 -2.15,9.01 -1.4,2.53 -4,5.32 -6.13,7.52 0.84,3.05 3.97,8.92 5.14,11.14 0.5,0.94 1.65,3.01 2.76,4.56 1.91,-2.3 4.14,-6.1 4.98,-7.6 1,-1.8 3.44,-6.21 4.21,-8.74 -0.6,-1.09 -1.74,-2.54 -2.32,-3.26 -3.15,-3.91 -4.98,-8.43 -4.98,-13.48 0,-7.96 4.08,-14.23 11.4,-17.38 8.78,-3.77 19.87,-4.57 29.33,-4.57 7.38,0 14.89,0.49 22.14,1.92 4.87,0.96 9.22,3.18 12.7,6.73 3.49,3.56 5.52,7.99 5.65,12.96zm-321.75 37.82c-0.39,-0.21 -0.76,-0.43 -1.14,-0.67 -5.21,-3.3 -11.63,-9.65 -16.16,-13.89 -7.09,-6.63 -16.29,-12.98 -26.4,-12.98 -2.29,0 -5.15,0.32 -7,1.82 -1.11,0.9 -1.48,1.79 -1.48,3.22 0,5.26 11.17,8.8 14.87,9.88 11.4,3.32 26.63,7.42 37.29,12.6 0,0 0.01,0.01 0.02,0.01zm-111.04 46.03c0.32,0.33 0.63,0.66 0.93,1.01 4.81,5.05 10.44,14.37 14.32,20.26 2.9,4.41 7.79,7.49 12.5,9.64 6.09,2.79 12.49,4.26 19.18,4.26 3.94,0 8.65,-0.49 12.11,-2.55 0.86,-0.51 2.22,-1.35 2.22,-2.5 0,-1.3 -0.88,-2.17 -1.85,-2.94 -3.21,-2.59 -9.29,-4.65 -13.18,-5.86 -10.26,-3.21 -21.17,-6.91 -30.81,-11.71 -5.45,-2.71 -10.6,-5.93 -15.43,-9.6zm244.41 -68.84c1.14,3.12 3.89,8.09 5.07,10.29 0.76,1.43 2.79,5.08 4.6,7.44 0.46,-0.61 0.87,-1.21 1.13,-1.59 0.82,-1.2 3.11,-4.82 3.15,-6.33 0,-0.33 -0.04,-1.26 -0.21,-1.54 -1.51,-1.87 -6.03,-5.02 -8.02,-6.44 -1.66,-1.19 -3.13,-2.54 -4.34,-4.05 -0.45,0.77 -0.91,1.51 -1.38,2.23zm219.75 23.34c7.16,-1.3 14.51,-1.83 21.74,-1.85 0.85,-0 2.34,-0.01 3.68,-0.1 0,-0.17 0,-0.32 0,-0.45 0,-4.68 -0.21,-13.08 -2.21,-17.4 -0.59,-1.27 -0.91,-1.65 -2.29,-1.65 -0.9,0 -1.56,0.23 -2.28,0.77 -2.12,1.62 -4.69,5.1 -6.17,7.12 -3.49,4.98 -7.65,9.82 -12.5,13.56zm202.7 -50.24c0.09,-0.06 0.19,-0.12 0.28,-0.19 5.19,-3.51 11.2,-5.92 17.2,-7.68 6.04,-1.76 12.39,-2.97 18.69,-2.97 13.81,0 25.98,4.94 36.3,14.03 8.13,7.16 14.11,16.01 18.23,26.01 4.43,10.76 6.6,22.07 6.6,33.71 0,24.22 -8.07,45.42 -25.62,62.34 -12.89,12.43 -28.28,19.57 -46.27,19.57 -8.08,0 -15.94,-1.7 -23.41,-4.6 0.25,2.6 1.09,5.02 3.43,6.58 2.96,1.98 7.52,4.96 9.77,7.7 2.42,2.96 3.13,6.71 3.13,10.43 0,9.34 -5.57,16.04 -13.75,20.01 -8.78,4.25 -19.66,5.28 -29.3,5.28 -19.34,0 -38.32,-3.65 -55.5,-12.79 -8.67,-4.61 -15.65,-11.79 -15.65,-22.14 0,-4.09 0.93,-8.09 3.54,-11.34 2.4,-2.99 6.1,-5.12 9.54,-6.72 2.5,-1.16 3.5,-3.17 3.98,-5.82 2.39,-13.06 1.95,-34.31 2.23,-47.59 -0.21,-7 -0.16,-23.64 -1.5,-32.28 -0.85,-0.17 -1.71,-0.31 -2.47,-0.45 -4.7,-0.88 -8.79,-3.16 -11.88,-6.82 -3.13,-3.69 -4.65,-8.16 -4.65,-12.99 0,-5.8 2.07,-11 6.02,-15.24 4.03,-4.32 9.63,-7.53 14.95,-9.95 16.41,-7.47 37.95,-15.91 56.21,-16.1 4.68,-0.05 11.14,0.11 15.27,2.96 2.48,1.79 3.87,4.29 4.62,7.04zm-176.63 84.43c-1.29,0.25 -2.28,1 -3.23,2.07 -1.61,1.8 -2.31,3.76 -2.31,6.18 0,1.75 0.23,4 1.35,5.43 0.53,0.68 0.92,0.82 1.79,0.82 0.15,0 0.55,-0.01 0.69,-0.08 1.58,-1.1 1.9,-8.33 1.9,-9.97 0,-0.97 -0.02,-2.92 -0.2,-4.45zm178.52 -34.38l-2.04 37.38c-0.07,1.33 -0.13,2.67 0.01,4.05 1.32,0.92 3.5,1.11 5.05,1.11 10.33,0 10.47,-15.4 10.47,-22.58 0,-6.5 -0.71,-17.4 -5.56,-22.4 -1.62,-1.68 -3.37,-2.49 -5.7,-2.49 -0.22,0 -0.87,0.02 -1.07,0.14 -0.76,0.64 -1.11,3.92 -1.16,4.79z"/>
  <path class="fil10" d="M287.98 238.78c9.32,0 21.52,2.32 36.68,6.91 1.81,0.56 3.25,0.83 4.31,0.83 0.93,0 3.67,-0.83 8.16,-2.46 1.44,-0.51 3.02,-0.79 4.64,-0.79 6.07,0 12.47,4.78 19.2,14.38 6.77,9.6 10.16,18.78 10.16,27.46 0,5.05 -1.53,9.37 -4.55,12.85 -3.06,3.48 -6.77,5.24 -11.08,5.24 -3.62,0 -6.59,-0.74 -8.86,-2.18 -2.27,-1.44 -7.24,-5.75 -14.94,-12.94 -10.85,-10.15 -21.52,-15.21 -32.04,-15.21 -5.06,0 -9.14,1.2 -12.2,3.66 -3.01,2.46 -4.55,5.66 -4.55,9.65 0,7.88 6.96,13.82 20.82,17.81 18.73,5.52 30.75,9.56 35.99,12.1 23.1,11.22 34.64,27.74 34.64,49.58 0,19.29 -7.88,35.06 -23.65,47.3 -16.1,12.48 -37.15,18.74 -63.17,18.74 -11.59,0 -23.84,-1.39 -36.68,-4.13 -12.85,-2.79 -22.17,-6.03 -27.87,-9.74 -4.31,-2.87 -8.25,-9.18 -11.74,-18.92 -3.48,-9.74 -5.24,-19.25 -5.24,-28.48 0,-4.45 0.92,-7.79 2.73,-10.06 2.27,-2.92 5.1,-4.36 8.53,-4.36 3.48,0 6.78,1.76 9.93,5.33 1.9,1.99 6.4,8.35 13.45,19.16 3.39,5.05 8.68,9.27 15.96,12.61 7.28,3.34 14.84,5.01 22.63,5.01 6.73,0 12.15,-1.25 16.33,-3.71 4.17,-2.51 6.26,-5.71 6.26,-9.6 0,-3.62 -1.62,-6.72 -4.91,-9.37 -3.25,-2.64 -8.54,-5.05 -15.91,-7.33 -12.94,-4.08 -22.82,-7.84 -29.59,-11.22 -6.82,-3.39 -13.17,-7.7 -19.06,-12.85 -14.29,-12.66 -21.43,-27.09 -21.43,-43.18 0,-7.98 1.85,-15.77 5.56,-23.33 3.71,-7.56 8.95,-14.1 15.77,-19.62 15.21,-12.76 33.76,-19.16 55.7,-19.16zm253.36 129.57l-13.96 -22.41c-3.3,-5.05 -5.38,-8.11 -6.35,-9.13 -0.93,-0.97 -2.18,-1.48 -3.71,-1.48 -3.3,0 -6.64,3.01 -10.07,9l-22.68 39.1c-4.36,7.56 -9.27,11.31 -14.7,11.31 -3.34,0 -6.4,-1.16 -9.23,-3.48 -2.83,-2.32 -5.84,-6.26 -9.09,-11.78l-40.76 -67.81c-6.82,-10.94 -12.1,-18.08 -15.91,-21.42 -1.81,-1.44 -5.1,-2.88 -9.93,-4.22 -1.99,-0.65 -3.62,-1.9 -4.96,-3.76 -1.3,-1.85 -1.95,-3.89 -1.95,-6.16 0,-7.01 5.38,-11.88 16.18,-14.7 10.86,-2.69 22.73,-4.03 35.57,-4.03 28.89,0 43.36,5.38 43.36,16.14 0,1.99 -1.39,5.05 -4.22,9.14 -0.56,0.79 -0.83,1.67 -0.83,2.55 0,1.99 2.13,6.95 6.4,14.84 4.69,8.95 8.77,13.44 12.24,13.44 1.99,0 4.5,-2.27 7.61,-6.82 3.06,-4.5 4.59,-8.16 4.59,-10.99 0,-2.83 -0.69,-5.05 -2.04,-6.73 -1.35,-1.67 -4.55,-4.31 -9.65,-7.97 -3.06,-2.18 -4.59,-4.73 -4.59,-7.75 0,-7.05 7.23,-11.64 21.75,-13.82 8.77,-1.34 19.11,-2.04 30.98,-2.04 13.68,0 23.52,1.16 29.59,3.43 6.07,2.32 9.13,6.07 9.13,11.22 0,2.09 -0.37,3.76 -1.11,5.01 -0.69,1.25 -2.64,3.52 -5.84,6.82 -0.97,1.07 -1.48,2.5 -1.48,4.22 0,2.46 2.09,7.61 6.26,15.49 3.62,6.86 6.91,10.3 9.93,10.3 3.24,0 7.37,-4.41 12.33,-13.17 3.62,-6.63 5.43,-10.99 5.43,-13.17 0,-1.72 -1.44,-4.41 -4.32,-8.02 -2.09,-2.55 -3.15,-5.29 -3.15,-8.3 0,-4.69 2.13,-7.98 6.4,-9.79 5.98,-2.6 14.65,-3.9 26.06,-3.9 7.7,0 14.56,0.6 20.54,1.76 3.44,0.7 6.21,2.18 8.39,4.41 2.18,2.23 3.29,4.78 3.29,7.66 0,2.92 -1.25,5.38 -3.8,7.37 -0.46,0.42 -3.62,1.72 -9.51,3.8 -3.39,1.25 -6.12,3.06 -8.3,5.43 -2.18,2.37 -4.78,6.54 -7.89,12.61l-33.95 65.76c-9.97,19.2 -18.78,28.8 -26.39,28.8 -3.25,0 -6.87,-2.04 -10.81,-6.17 -3.94,-4.13 -8.91,-10.99 -14.89,-20.59zm191.3 -111.96c15.77,0 29.13,3.99 40.07,11.97 5.8,4.27 9.88,9.13 12.2,14.61 2.27,5.48 3.43,13.03 3.43,22.64l-0.28 20.22c0,14.06 1.02,23.14 3.01,27.32 0.97,1.99 1.94,3.24 2.83,3.8 0.92,0.56 2.83,1.07 5.75,1.49 2.87,0.46 4.31,2.37 4.31,5.7 0,4.36 -1.76,8.91 -5.24,13.59 -3.48,4.73 -7.98,8.67 -13.49,11.83 -6.82,3.99 -13.91,5.98 -21.34,5.98 -9.51,0 -17.02,-3.25 -22.54,-9.79 -1.9,-2.37 -3.71,-3.52 -5.33,-3.52 -1.81,0 -4.17,1.11 -7.19,3.39 -9.04,6.63 -19.34,9.92 -30.84,9.92 -11.88,0 -21.48,-2.55 -28.8,-7.61 -4.78,-3.34 -8.58,-7.7 -11.41,-13.13 -2.83,-5.38 -4.22,-10.99 -4.22,-16.88 0,-9.41 3.8,-17.77 11.41,-25 11.87,-11.46 29.64,-17.21 53.28,-17.3 5.24,0 8.58,-0.51 9.93,-1.53 1.35,-1.07 1.99,-3.48 1.99,-7.28 0,-9.6 -0.97,-16.55 -2.97,-20.87 -1.99,-4.31 -5.24,-6.45 -9.79,-6.45 -2.73,0 -5.15,0.83 -7.28,2.46 -2.13,1.63 -4.78,4.64 -7.93,8.95 -8.07,11.5 -16.51,17.25 -25.28,17.25 -4.45,0 -8.07,-1.3 -10.85,-3.94 -2.83,-2.64 -4.22,-6.07 -4.22,-10.29 0,-4.36 1.76,-8.72 5.24,-13.08 3.48,-4.32 8.21,-8.12 14.19,-11.41 16.37,-8.67 33.48,-13.03 51.34,-13.03zm-9.09 78.65c-3.99,0 -7.47,1.62 -10.39,4.92 -2.92,3.25 -4.41,7.14 -4.41,11.69 0,4.32 1.02,7.84 3.11,10.53 2.09,2.65 4.82,3.99 8.3,3.99 7.23,0 10.85,-6.12 10.85,-18.32 0,-4.96 -0.51,-8.35 -1.57,-10.06 -1.02,-1.72 -2.97,-2.64 -5.89,-2.74zm155.82 -77.82c5.52,0 9,0.46 10.34,1.39 1.35,0.97 1.99,3.34 1.99,7.14 0,3.39 1.11,5.05 3.3,5.05 0.88,0 3.94,-1.72 9.09,-5.19 3.89,-2.65 8.86,-4.82 14.89,-6.59 6.03,-1.76 11.5,-2.64 16.37,-2.64 11.5,0 21.79,3.99 30.84,11.97 6.91,6.07 12.25,13.73 16.05,22.95 3.99,9.69 5.98,19.89 5.98,30.56 0,22.82 -7.7,41.6 -23.09,56.4 -11.87,11.5 -25.37,17.25 -40.53,17.25 -7.7,0 -15.63,-1.81 -23.75,-5.43 -1.62,-0.74 -2.97,-1.11 -3.94,-1.11 -2.74,0 -4.08,2.74 -4.08,8.16 0,7.19 2.41,12.33 7.19,15.49 4.45,3.01 7.09,5 7.97,6.07 0.83,1.02 1.25,2.73 1.25,5.19 0,5.43 -3.01,9.65 -9.09,12.57 -6.07,2.97 -14.61,4.45 -25.69,4.45 -19.62,0 -36.82,-3.94 -51.62,-11.82 -7.52,-3.99 -11.27,-8.96 -11.27,-14.84 0,-2.69 0.56,-4.73 1.72,-6.16 1.11,-1.39 3.3,-2.88 6.59,-4.41 4.68,-2.18 7.56,-6.12 8.63,-11.83 1.02,-5.71 1.81,-22.12 2.37,-49.21 -0.65,-22.26 -1.49,-34.74 -2.46,-37.47 -0.33,-0.88 -0.83,-1.48 -1.53,-1.76 -0.7,-0.28 -2.92,-0.79 -6.73,-1.49 -2.92,-0.56 -5.29,-1.9 -7.09,-4.03 -1.81,-2.13 -2.69,-4.68 -2.69,-7.65 0,-3.67 1.25,-6.86 3.8,-9.6 2.55,-2.73 6.63,-5.43 12.33,-8.07 22.22,-10.07 39.84,-15.17 52.87,-15.35zm13.45 51.34l-2.04 37.38c-0.09,1.54 -0.14,3.02 -0.14,4.46 0,2.83 1.21,5.1 3.66,6.82 2.46,1.72 5.71,2.6 9.79,2.6 12.47,0 18.73,-10.29 18.73,-30.84 0,-13.31 -2.64,-22.72 -7.88,-28.15 -3.25,-3.34 -7.14,-5.01 -11.64,-5.01 -6.45,0 -9.97,4.26 -10.48,12.75z"/>
 </g>
</svg>
