<?xml version="1.0" encoding="UTF-8"?>
<!DOCTYPE svg PUBLIC "-//W3C//DTD SVG 1.1//EN" "http://www.w3.org/Graphics/SVG/1.1/DTD/svg11.dtd">
<!-- Creator: CorelDRAW -->
<svg xmlns="http://www.w3.org/2000/svg" xml:space="preserve" width="84.4021mm" height="18.1239mm" version="1.1" style="shape-rendering:geometricPrecision; text-rendering:geometricPrecision; image-rendering:optimizeQuality; fill-rule:evenodd; clip-rule:evenodd"
viewBox="0 0 9969.29 2140.73"
 xmlns:xlink="http://www.w3.org/1999/xlink">
 <defs>
  <style type="text/css">
   <![CDATA[
    .fil14 {fill:none}
    .fil0 {fill:#F0861B}
    .fil3 {fill:white;fill-rule:nonzero}
    .fil8 {fill:#FDF3F7;fill-rule:nonzero}
    .fil5 {fill:#F4B3CF;fill-rule:nonzero}
    .fil9 {fill:#EF93BB;fill-rule:nonzero}
    .fil4 {fill:#EA6BA3;fill-rule:nonzero}
    .fil1 {fill:#E73A7E;fill-rule:nonzero}
    .fil10 {fill:#EA95BD;fill-rule:nonzero}
    .fil6 {fill:#F3E9F0;fill-rule:nonzero}
    .fil13 {fill:#DC3273;fill-rule:nonzero}
    .fil7 {fill:#E2CFDE;fill-rule:nonzero}
    .fil11 {fill:#C02A68;fill-rule:nonzero}
    .fil2 {fill:#4A4646;fill-rule:nonzero}
    .fil12 {fill:#464042;fill-rule:nonzero}
   ]]>
  </style>
   <clipPath id="id0">
    <path d="M1070.36 0l7828.57 0c588.7,0 1070.36,481.66 1070.36,1070.37l0 0c0,588.7 -481.66,1070.36 -1070.36,1070.36l-7828.57 0c-588.7,0 -1070.36,-481.66 -1070.36,-1070.36l0 0c0,-588.72 481.66,-1070.37 1070.36,-1070.37z"/>
   </clipPath>
 </defs>
 <g id="Layer_x0020_1">
  <metadata id="CorelCorpID_0Corel-Layer"/>
  <path class="fil0" d="M1070.36 0l7828.57 0c588.7,0 1070.36,481.66 1070.36,1070.37l0 0c0,588.7 -481.66,1070.36 -1070.36,1070.36l-7828.57 0c-588.7,0 -1070.36,-481.66 -1070.36,-1070.36l0 0c0,-588.72 481.66,-1070.37 1070.36,-1070.37z"/>
  <g style="clip-path:url(#id0)">
   <g id="_105553357532992">
    <g>
     <path id="1" class="fil1" d="M7327.03 633.36c0,0 38.66,-147.43 197.29,-202.71 141.44,-49.29 281.65,39.39 331.44,182.21 57.61,165.3 -7.11,407.22 -292.83,697.43 -404.19,-49.8 -605.23,-199.1 -662.85,-364.41 -49.76,-142.81 4.97,-299.43 146.42,-348.72 158.63,-55.28 280.54,36.2 280.54,36.2z"/>
     <path class="fil2" d="M7054.94 621.4c-122.39,42.64 -178.55,178.51 -130.63,316.04 36.17,103.77 166.04,285.78 629.2,345.8 325.54,-334.85 314.17,-558.16 278,-661.94 -47.92,-137.52 -176.35,-209.08 -298.74,-166.43 -143.12,49.87 -179.45,179.57 -180.93,185.08l-9.85 36.63 -30.29 -22.64c-4.69,-3.47 -113.72,-82.4 -256.76,-32.54zm517.4 715.9l-12.54 -1.54c-500.93,-61.73 -643.52,-265.47 -683.93,-381.43 -26.68,-76.55 -26.02,-157.31 1.89,-227.37 29.25,-73.49 86.18,-128.2 160.3,-154.04 124.77,-43.48 227.75,-3.58 275.65,22.17 21.52,-49.94 77.41,-145.2 202.18,-188.67 74.12,-25.83 152.71,-18.37 221.3,21.04 65.41,37.57 116.12,100.41 142.79,176.95 40.42,115.97 55.34,364.21 -298.75,723.89l-8.88 9z"/>
     <path class="fil3" d="M8001.43 2646.59c20.48,5.83 39.04,-9.59 47.81,-18.69l-462.51 -1327.23 -48.44 16.88 463.14 1329.04z"/>
     <path class="fil2" d="M8001.43 2646.59c20.48,5.83 39.04,-9.59 47.81,-18.69l-462.51 -1327.23 -48.44 16.88 463.14 1329.04zm32.05 29.33c-15.56,5.42 -33.34,6.22 -51.74,-2.66l-5.98 -2.88 -478.3 -1372.56 109.01 -37.99 478.92 1374.32 -5.09 6.82c-8.71,11.72 -25.7,27.59 -46.82,34.95z"/>
     <path class="fil1" d="M7878.2 887.89c-47.03,111.25 -132.14,235.88 -265.24,371 -404.16,-49.77 -605.23,-199.12 -662.85,-364.46 -42.05,-120.68 -9.53,-251.12 86.92,-318.38 2.33,38.52 9.85,77.02 23.02,114.83 86.89,249.32 386.51,371.56 669.3,273.03 54.46,-18.98 104.42,-44.79 148.85,-76.02z"/>
     <path class="fil4" d="M7905.74 561.43c30.78,88.3 26.59,198.58 -27.54,326.46 -44.44,31.23 -94.39,57.04 -148.85,76.02 -282.78,98.53 -582.41,-23.71 -669.3,-273.03 -13.17,-37.81 -20.69,-76.32 -23.02,-114.83 17.68,-12.39 37.57,-22.62 59.51,-30.26 158.67,-55.29 280.53,36.2 280.53,36.2 0,0 38.62,-147.42 197.29,-202.71 141.49,-49.3 281.64,39.33 331.39,182.15z"/>
     <path class="fil2" d="M7103.9 566.97c-124.11,43.25 -181.12,180.88 -132.6,320.13 36.45,104.6 167.24,288.12 633.4,348.13 327.9,-336.73 316.3,-561.79 279.87,-666.37 -48.53,-139.26 -178.71,-211.65 -302.83,-168.41 -145.67,50.77 -182.61,185.86 -182.96,187.21l-8.48 32.32 -26.67 -20.01c-4.62,-3.44 -114.89,-83.47 -259.73,-33zm517.28 715.56l-10.97 -1.36c-499.22,-61.49 -641.13,-264.04 -681.3,-379.3 -26.43,-75.81 -25.77,-155.78 1.83,-225.13 28.91,-72.63 85.15,-126.67 158.38,-152.19 126.46,-44.06 230.24,-1.72 276.16,23.62 20.22,-48.39 75.23,-146.06 201.67,-190.13 73.23,-25.5 150.87,-18.13 218.66,20.8 64.74,37.18 114.93,99.42 141.36,175.24 40.16,115.25 54.85,362.12 -298.02,720.57l-7.77 7.88z"/>
     <path class="fil5" d="M7785.8 531.91c-6.89,1.57 -15.31,-18.69 -42.24,-34.15 -13.28,-7.85 -30.9,-14.8 -51.29,-18.59 -20.32,-3.71 -44.39,-4.69 -68.31,-1.62 -24.07,3.17 -46.24,10.15 -64.76,19.61 -18.65,9.44 -34.03,21.12 -46.07,32.15 -24.07,22.22 -35.2,41.57 -41.77,39.23 -2.98,-1.04 -4.3,-7.5 -2.36,-18.33 1.93,-10.78 7.45,-25.88 18.37,-42.42 10.94,-16.42 27.45,-34.08 49.88,-48.48 22.36,-14.49 50.4,-24.9 80.6,-28.84 30.36,-3.8 59.13,-1.22 84.87,6.22 25.67,7.57 46.99,20.28 61.74,34.81 14.81,14.58 22.49,30.47 24.47,41.84 2.11,11.43 -0.21,17.92 -3.14,18.57z"/>
     <path class="fil5" d="M7839.37 683.14c-13.15,-1.02 -22.19,-22.9 -25.73,-48.6 -3.3,-25.73 -0.25,-49.23 12.18,-53.64 12.25,-4.42 30.78,16.23 34.88,47.4 4.17,31.16 -8.36,55.92 -21.33,54.84z"/>
     <path class="fil5" d="M7341.64 1125.64c-2.62,5.93 -22.81,3.72 -53.33,-5.65 -30.46,-9.43 -71.48,-26.22 -113.73,-51.75 -21.06,-12.84 -40.23,-26.77 -56.71,-40.66 -16.32,-14.09 -30.08,-27.93 -40.33,-40.77 -20.66,-25.54 -28.3,-44.98 -23.46,-48.92 5.27,-4.37 21.64,6.89 46.49,24.52 24.83,17.79 58.99,41.23 98.65,65.27 39.69,23.98 76.83,44.87 103.22,61.87 26.39,16.91 41.86,30.03 39.19,36.08z"/>
     <path class="fil5" d="M7507.09 1171.43c-0.93,12.96 -29.21,21.51 -62.38,14.36 -33.19,-7.05 -55.51,-26.41 -51.06,-38.61 4.48,-12.44 31.29,-14.07 60.98,-7.81 29.65,6.41 53.46,18.88 52.46,32.06z"/>
     <path class="fil6" d="M7978.19 1260.54l0 -7.18c-251.1,-43.16 -442.81,-262.31 -442.81,-525.55 0,-71.68 14.3,-140.05 40.07,-202.57 -40.88,71.8 -64.36,154.71 -64.36,243.06 0,263.14 207.26,478.77 467.1,492.24z"/>
     <path class="fil7" d="M7978.19 1260.54c-94.79,-4.91 -182.57,-36.72 -255.85,-87.93 -12.28,-8.59 -24.17,-17.72 -35.61,-27.36 -48.77,-41.13 -89.47,-91.49 -119.39,-148.41 -35.91,-68.34 -56.25,-146.11 -56.25,-228.54 0,-88.35 23.48,-171.26 64.36,-243.06 -25.76,62.52 -40.07,130.88 -40.07,202.57 0,263.23 191.7,482.39 442.81,525.55l0 7.18z"/>
     <path class="fil6" d="M7575.87 727.81c0,271.8 221.13,492.9 492.91,492.9 271.79,0 492.9,-221.1 492.9,-492.9 0,-271.79 -221.11,-492.89 -492.9,-492.89 -271.79,0 -492.91,221.1 -492.91,492.89z"/>
     <path class="fil2" d="M8014.55 2659.9l0 -1392.67 58.18 0 0 1390.52c-12.83,6.52 -38.39,16.1 -58.18,2.15zm-479.18 -1932.09c0,263.23 191.7,482.39 442.81,525.55l0 7.18c-259.84,-13.47 -467.1,-229.1 -467.1,-492.24 0,-88.35 23.48,-171.26 64.36,-243.06 -25.76,62.52 -40.07,130.88 -40.07,202.57zm533.4 -492.89c271.79,0 492.9,221.1 492.9,492.89 0,271.8 -221.11,492.9 -492.9,492.9 -271.79,0 -492.91,-221.1 -492.91,-492.9 0,-271.79 221.13,-492.89 492.91,-492.89zm533.39 492.89c0,-294.11 -239.29,-533.39 -533.39,-533.39 -117.1,0 -225.41,38.01 -313.48,102.22 -169.15,89.54 -284.72,267.33 -284.72,471.66 0,285.49 225.43,519.25 507.61,532.76l0 1374.74 5.33 5.32c16.37,16.37 35.73,22.15 54.42,22.15 25.36,0 49.49,-10.65 63.2,-19.95l7.98 -5.42 0 -1386.63c76.66,-15.39 147.36,-47.32 208.37,-91.79 169.13,-89.54 284.68,-267.31 284.68,-471.66z"/>
     <path class="fil3" d="M8072.74 1267.24l-58.18 0 0 1392.67c19.8,13.96 45.36,4.37 58.18,-2.15l0 -1390.52z"/>
     <path class="fil1" d="M8043.66 1169.89c175.84,0 311.86,-76.08 382.98,-214.25 72.07,-139.97 59.8,-325.42 -29.8,-450.97 -74.3,-104.06 -190.52,-153.04 -318.87,-134.36 -96.15,14.01 -174.61,64.92 -220.91,143.38 -45.51,77.11 -55.03,174.84 -24.84,255 35.01,93.04 136.91,129.28 219.41,117.11 86.59,-12.86 145.94,-73 151.22,-153.23 2.63,-40.09 -27.75,-74.72 -67.85,-77.37 -87.24,-5.72 -53.75,79.09 -104.72,86.65 -91.01,13.42 -78.63,-102.15 -47.9,-154.21 16.6,-28.12 50.29,-63.69 116.55,-73.33 94.32,-13.71 149.65,33.14 179.45,74.9 58.31,81.69 66.25,207.78 18.88,299.83 -31.8,61.74 -101.59,135.34 -253.61,135.34 -200.68,0 -329.97,-103.68 -364.87,-293.34 -39.27,-213.52 112.01,-393.08 177.59,-447.93 -165.75,79.48 -280.5,248.94 -280.5,444.71 0,135.37 54.89,258.17 143.55,347.35 86.89,61.46 198.64,94.73 324.24,94.73z"/>
     <path class="fil8" d="M8170.15 870.94c-18.95,0 -37.49,-1.74 -55.47,-5.04 51.39,-26.52 84.31,-74.53 88.17,-133.33 2.63,-40.09 -27.75,-74.72 -67.85,-77.37 -2.83,-0.18 -5.56,-0.27 -8.15,-0.27 -77,0 -47.27,79.61 -96.57,86.92 -4.95,0.72 -9.57,1.07 -13.91,1.07 -75.71,0 -63.05,-106.03 -33.98,-155.29 16.6,-28.12 50.29,-63.69 116.55,-73.33 11.42,-1.67 22.29,-2.43 32.59,-2.43 74.77,0 120.68,40.63 146.87,77.33 47.03,65.87 61.29,160.63 40.21,243.1 -43.9,24.6 -94.54,38.64 -148.45,38.64zm291.82 -218.01c-12.17,-53.72 -33.97,-104.63 -65.13,-148.27 -63.89,-89.5 -158.82,-138.26 -265.79,-138.26 -17.4,0 -35.12,1.29 -53.08,3.9 -83.21,12.12 -153.2,51.9 -200.53,113.26 36.17,-127.59 153.53,-221.04 292.7,-221.04 40.79,0 79.69,8.02 115.25,22.58 31.95,15.71 61.99,34.76 89.62,56.73 61.04,55.64 99.34,135.79 99.34,224.89 0,29.94 -4.31,58.86 -12.38,86.2z"/>
     <path class="fil9" d="M8375.01 341.84c-27.63,-21.97 -57.66,-41.02 -89.62,-56.73 33.21,13.61 63.5,32.94 89.62,56.73z"/>
     <path class="fil10" d="M8114.68 865.9c-141.53,-26.08 -248.74,-150.1 -248.74,-299.17 0,-28.84 4,-56.74 11.5,-83.17 47.33,-61.36 117.31,-101.14 200.53,-113.26 17.97,-2.61 35.68,-3.9 53.08,-3.9 106.97,0 201.9,48.76 265.79,138.26 31.16,43.64 52.96,94.55 65.13,148.27 -22.65,76.81 -74.83,140.98 -143.37,179.37 21.08,-82.47 6.83,-177.22 -40.21,-243.1 -26.19,-36.7 -72.1,-77.33 -146.87,-77.33 -10.3,0 -21.17,0.77 -32.59,2.43 -66.25,9.64 -99.95,45.2 -116.55,73.33 -29.07,49.25 -41.73,155.29 33.98,155.29 4.35,0 8.97,-0.35 13.91,-1.07 49.3,-7.31 19.57,-86.92 96.57,-86.92 2.59,0 5.32,0.09 8.15,0.27 40.1,2.65 70.48,37.28 67.85,77.37 -3.86,58.8 -36.78,106.81 -88.17,133.33z"/>
     <path class="fil11" d="M7651.27 1059.21c-72.48,-91.06 -115.9,-206.21 -115.9,-331.4 0,-71.68 14.3,-140.05 40.05,-202.57 -40.87,71.8 -64.35,154.71 -64.35,243.06 0,98.07 28.81,189.52 78.38,266.39 21.71,13.13 43.36,20.46 61.81,24.52z"/>
     <path class="fil7" d="M8068.78 1220.71c-270.74,0 -491.18,-219.39 -492.89,-489.72 0.84,134.12 55.55,255.69 143.52,344.17 86.89,61.46 198.64,94.73 324.24,94.73 175.84,0 311.86,-76.08 382.98,-214.25 9.11,-17.68 16.87,-36.1 23.29,-55.03 46.8,-42.45 84.87,-94.34 111.24,-152.65 -10.3,254.75 -214.83,460.37 -469.19,472.23 -0.02,0 -0.04,0 -0.05,0 -0.24,0.01 -0.46,0.02 -0.71,0.04 -0.02,0 -0.05,0 -0.07,0 -0.22,0.01 -0.44,0.02 -0.65,0.04 -0.06,0 -0.09,0 -0.14,0 -0.21,0.01 -0.41,0.02 -0.61,0.02 -0.05,0 -0.12,0.01 -0.17,0.01 -0.2,0.01 -0.39,0.01 -0.59,0.02 -0.07,0 -0.13,0 -0.2,0.01 -0.2,0 -0.38,0.01 -0.58,0.01 -0.05,0.01 -0.14,0.01 -0.19,0.01 -0.19,0.01 -0.37,0.01 -0.56,0.02 -0.07,0 -0.17,0 -0.24,0.01 -0.18,0 -0.37,0.01 -0.53,0.01 -0.08,0.01 -0.15,0.01 -0.24,0.01 -0.19,0.01 -0.37,0.01 -0.53,0.02 -0.09,0 -0.19,0 -0.27,0 -0.17,0.01 -0.33,0.01 -0.51,0.02 -0.08,0 -0.18,0 -0.26,0 -0.15,0.01 -0.34,0.01 -0.51,0.02 -0.09,0 -0.18,0 -0.28,0.01 -0.15,0 -0.32,0 -0.48,0.01 -0.11,0 -0.2,0 -0.3,0.01 -0.17,0 -0.32,0 -0.48,0.01 -0.12,0 -0.19,0 -0.31,0 -0.14,0.01 -0.32,0.01 -0.47,0.01 -0.09,0.01 -0.2,0.01 -0.31,0.01 -0.14,0 -0.31,0.01 -0.45,0.01 -0.11,0 -0.25,0.01 -0.34,0.01 -0.15,0 -0.31,0 -0.45,0.01 -0.11,0 -0.24,0 -0.33,0 -0.17,0.01 -0.28,0.01 -0.45,0.01 -0.11,0 -0.22,0.01 -0.34,0.01 -0.14,0 -0.28,0 -0.43,0.01 -0.13,0 -0.24,0 -0.35,0 -0.14,0 -0.3,0.01 -0.44,0.01 -0.12,0 -0.25,0 -0.35,0 -0.15,0.01 -0.28,0.01 -0.43,0.01 -0.13,0 -0.22,0 -0.35,0.01 -0.14,0 -0.28,0 -0.43,0 -0.12,0 -0.24,0.01 -0.37,0.01 -0.12,0 -0.3,0 -0.43,0 -0.12,0 -0.24,0 -0.34,0.01 -0.15,0 -0.28,0 -0.44,0 -0.11,0 -0.26,0 -0.37,0 -0.15,0.01 -0.26,0.01 -0.4,0.01 -0.12,0 -0.27,0 -0.39,0 -0.13,0 -0.27,0 -0.4,0 -0.14,0.01 -0.27,0.01 -0.41,0.01 -0.12,0 -0.24,0 -0.37,0 -0.14,0 -0.27,0 -0.4,0 -0.13,0 -0.26,0 -0.39,0.01 -0.13,0 -0.26,0 -0.39,0 -0.13,0 -0.26,0 -0.4,0 -0.12,0 -0.27,0 -0.43,0 -0.12,0 -0.22,0 -0.35,0 -0.17,0 -0.32,0 -0.48,0 -0.09,0 -0.2,0 -0.3,0 -0.26,0 -0.52,0 -0.78,0z"/>
     <path class="fil12" d="M8068.78 1220.71c-270.74,0 -491.18,-219.39 -492.89,-489.72 1.71,270.33 222.15,489.72 492.89,489.72 0.26,0 0.52,0 0.78,0 -0.26,0 -0.52,0 -0.78,0zm1.07 0c0.17,0 0.32,0 0.48,0 -0.17,0 -0.32,0 -0.48,0zm0.84 0c0.15,0 0.31,0 0.43,0 -0.13,0 -0.27,0 -0.43,0zm0.83 0c0.13,0 0.26,0 0.39,0 -0.13,0 -0.26,0 -0.39,0zm0.78 -0.01c0.13,0 0.26,0 0.4,0 -0.13,0 -0.27,0 -0.4,0zm0.77 0c0.14,0 0.27,0 0.41,-0.01 -0.12,0.01 -0.28,0.01 -0.41,0.01zm0.82 -0.01c0.12,0 0.27,0 0.39,0 -0.13,0 -0.26,0 -0.39,0zm0.79 -0.01c0.11,0 0.26,0 0.37,0 -0.11,0 -0.26,0 -0.37,0zm0.8 0c0.11,-0.01 0.22,-0.01 0.34,-0.01 -0.13,0 -0.22,0 -0.34,0.01zm0.77 -0.01c0.13,0 0.25,-0.01 0.37,-0.01 -0.13,0 -0.22,0 -0.37,0.01zm0.79 -0.01c0.13,-0.01 0.22,-0.01 0.35,-0.01 -0.11,0 -0.24,0 -0.35,0.01zm0.78 -0.02c0.11,0 0.24,0 0.35,0 -0.12,0 -0.25,0 -0.35,0zm0.79 -0.01c0.12,0 0.22,0 0.35,0 -0.13,0 -0.24,0 -0.35,0zm0.78 -0.01c0.12,0 0.24,-0.01 0.34,-0.01 -0.11,0 -0.22,0.01 -0.34,0.01zm0.79 -0.02c0.09,0 0.22,0 0.33,0 -0.12,0 -0.22,0 -0.33,0zm0.78 -0.01c0.09,0 0.24,-0.01 0.34,-0.01 -0.13,0 -0.22,0.01 -0.34,0.01zm0.79 -0.02c0.11,0 0.21,0 0.31,-0.01 -0.11,0.01 -0.19,0.01 -0.31,0.01zm0.78 -0.02c0.12,0 0.19,0 0.31,0 -0.11,0 -0.19,0 -0.31,0zm0.79 -0.01c0.09,-0.01 0.19,-0.01 0.3,-0.01 -0.11,0 -0.2,0 -0.3,0.01zm0.78 -0.02c0.11,-0.01 0.19,-0.01 0.28,-0.01 -0.09,0 -0.18,0 -0.28,0.01zm0.79 -0.04c0.08,0 0.18,0 0.26,0 -0.09,0 -0.17,0 -0.26,0zm0.77 -0.02c0.08,0 0.18,0 0.27,0 -0.08,0 -0.19,0 -0.27,0zm0.8 -0.02c0.08,0 0.15,0 0.24,-0.01 -0.08,0.01 -0.15,0.01 -0.24,0.01zm0.77 -0.02c0.07,-0.01 0.17,-0.01 0.24,-0.01 -0.08,0 -0.15,0 -0.24,0.01zm0.79 -0.04c0.05,0 0.14,0 0.19,-0.01 -0.05,0.01 -0.14,0.01 -0.19,0.01zm0.77 -0.02c0.07,-0.01 0.13,-0.01 0.2,-0.01 -0.05,0 -0.15,0 -0.2,0.01zm0.79 -0.04c0.05,0 0.12,-0.01 0.17,-0.01 -0.05,0 -0.12,0.01 -0.17,0.01zm0.78 -0.04c0.05,0 0.08,0 0.14,0 -0.05,0 -0.09,0 -0.14,0zm0.79 -0.04c0.02,0 0.05,0 0.07,0 -0.02,0 -0.05,0 -0.07,0zm0.78 -0.04c0.01,0 0.02,0 0.05,0 -0.02,0 -0.04,0 -0.05,0z"/>
     <path class="fil7" d="M8043.66 1024.38c-200.68,0 -329.97,-103.68 -364.87,-293.34 -8.63,-47 -8.06,-92.37 -1.17,-135.11 18.69,227.5 201.79,408.39 430.25,423.59 -19.58,3.14 -40.93,4.87 -64.21,4.87z"/>
     <path class="fil7" d="M7575.89 730.83c0,-0.22 0,-0.43 0,-0.64 0,0.21 0,0.41 0,0.64z"/>
     <path class="fil7" d="M7575.87 729.87c0,-0.14 0,-0.31 0,-0.46 0,0.15 0,0.31 0,0.46z"/>
     <path class="fil7" d="M7575.87 729.17c0,-0.44 0,-0.91 0,-1.36 0,0.46 0,0.9 0,1.36z"/>
     <path class="fil7" d="M7575.87 727.1c0,-0.04 0,-0.02 0,-0.06 0,-0.02 0,-0.07 0,-0.11 0,0.05 0,0.12 0,0.17z"/>
     <path class="fil12" d="M7575.87 727.14c0,-0.04 0,-0.06 0,-0.09 0,0.04 0,0.02 0,0.06 0,0.01 0,0.02 0,0.04z"/>
     <path class="fil7" d="M7575.87 726.35c0,-0.02 0,-0.06 0,-0.07 0,-0.01 0,-0.02 0,-0.04 0,0.04 0,0.06 0,0.11z"/>
     <path class="fil12" d="M7575.87 726.44c0,-0.07 0,-0.12 0,-0.17 0,0.01 0,0.05 0,0.07 0,0.02 0,0.06 0,0.09zm0 -0.78c0,-0.04 0,-0.08 0.02,-0.12 -0.02,0.04 -0.02,0.08 -0.02,0.12z"/>
     <path class="fil7" d="M7575.89 724.75l0 -0.05c0,0.01 0,0.04 0,0.05z"/>
     <path class="fil12" d="M7575.89 724.87c0,-0.05 0,-0.09 0,-0.14l0 0.02c0,0.05 0,0.07 0,0.12zm0 -0.69c0,-0.07 0,-0.13 0,-0.2 0,0.06 0,0.14 0,0.2zm0 -0.77c0,-0.05 0,-0.09 0,-0.13 0,0.04 0,0.09 0,0.13zm0 -0.83c0,-0.02 0,-0.05 0,-0.07 0,0.02 0,0.05 0,0.07zm0.02 -0.7c0,-0.05 0,-0.09 0,-0.14 0,0.06 0,0.08 0,0.14zm0 -0.74c0,-0.05 0,-0.07 0,-0.11 0,0.05 0,0.06 0,0.11zm0.02 -1.51c0,-0.04 0,-0.09 0,-0.13 0,0.04 0,0.09 0,0.13zm0.02 -0.73c0,-0.04 0,-0.07 0,-0.11 0,0.04 0,0.07 0,0.11z"/>
     <polygon class="fil7" points="7575.99,717.36 7575.99,717.33 "/>
     <path class="fil12" d="M7575.99 717.35c0,-0.01 0,-0.02 0,-0.04 0,0.01 0,0.01 0,0.02l0 0.01z"/>
     <path class="fil7" d="M7576.01 716.63c0,-0.01 0,-0.04 0,-0.05 0,0.02 0,0.02 0,0.05z"/>
     <path class="fil13" d="M8043.66 1169.89c-125.61,0 -237.36,-33.27 -324.24,-94.73 -87.97,-88.48 -142.68,-210.05 -143.52,-344.17 0,-0.06 0,-0.11 0,-0.15 0,-0.22 0,-0.43 0,-0.64 0,-0.12 -0.02,-0.21 -0.02,-0.33 0,-0.15 0,-0.31 0,-0.46 0,-0.08 0,-0.15 0,-0.24 0,-0.46 0,-0.9 0,-1.36 0,-0.22 0,-0.45 0,-0.67 0,-0.01 0,-0.02 0,-0.04 0,-0.05 0,-0.12 0,-0.17 0,-0.17 0,-0.32 0,-0.5 0,-0.04 0,-0.07 0,-0.09 0,-0.05 0,-0.07 0,-0.11 0,-0.19 0,-0.39 0,-0.58 0,-0.04 0,-0.08 0.02,-0.12 0,-0.22 0,-0.45 0,-0.67 0,-0.05 0,-0.07 0,-0.12 0,-0.01 0,-0.04 0,-0.05 0,-0.18 0,-0.35 0,-0.52 0,-0.06 0,-0.14 0,-0.2 0,-0.2 0,-0.38 0,-0.57 0,-0.04 0,-0.09 0,-0.13 0,-0.24 0,-0.47 0,-0.7 0,-0.02 0,-0.05 0,-0.07 0.02,-0.21 0.02,-0.41 0.02,-0.63 0,-0.06 0,-0.08 0,-0.14 0,-0.2 0,-0.4 0,-0.6 0,-0.05 0,-0.06 0,-0.11 0,-0.47 0.02,-0.93 0.02,-1.41 0,-0.04 0,-0.09 0,-0.13 0,-0.2 0,-0.4 0.02,-0.6 0,-0.04 0,-0.07 0,-0.11 0,-0.48 0,-0.97 0.02,-1.44l0 -0.02c0,-0.01 0,-0.01 0,-0.02 0,-0.24 0,-0.45 0.02,-0.69 0,-0.02 0,-0.02 0,-0.05 2.78,-123.62 51.32,-236.14 129.3,-321.29 -18.9,50.48 -29.28,105.11 -29.28,162.19 0,12.93 0.53,25.77 1.58,38.45 -6.89,42.75 -7.46,88.11 1.17,135.11 34.9,189.66 164.19,293.34 364.87,293.34 23.28,0 44.62,-1.72 64.21,-4.87 10.32,0.69 20.74,1.04 31.23,1.04 119.68,0 228.69,-45.42 310.84,-119.95 -6.43,18.93 -14.19,37.35 -23.29,55.03 -71.12,138.17 -207.14,214.25 -382.98,214.25z"/>
     <path class="fil5" d="M7754.27 998.72c-5.79,6.02 -26.79,-2.27 -52.63,-26.08 -12.96,-11.79 -26.54,-27.72 -39.57,-46.93 -12.72,-19.34 -24.75,-42.05 -34.16,-67.17 -9.2,-25.21 -14.86,-50.27 -17.76,-73.26 -2.6,-23.06 -2.66,-43.99 -0.5,-61.37 4.15,-34.89 14.68,-54.85 23.01,-54.06 9.02,0.83 14.53,21.28 21.69,51.82 3.47,15.32 7.91,33.18 13.09,52.68 5.5,19.44 11.94,40.49 19.84,62.24 8.15,21.65 16.95,41.83 25.42,60.19 8.76,18.17 17.01,34.62 24.34,48.5 14.42,27.85 23.56,46.95 17.23,53.45z"/>
     <path class="fil5" d="M7846.53 1104.78c-10.95,13.5 -39.9,8.27 -62.99,-13.52 -23.13,-21.76 -30.08,-50.33 -17.25,-62.07 12.95,-11.87 39.38,-3.99 60.64,15.99 21.24,20.04 30.69,45.96 19.6,59.6z"/>
     <path class="fil11" d="M9046.97 1103.55c-85,180.12 -295.81,266.7 -484.66,194.08 -197.83,-76.1 -296.54,-298.09 -220.45,-495.94 39.73,-103.29 119.19,-179.5 214.32,-218.01 -4.06,8.56 -7.78,17.34 -11.23,26.28 -76.09,197.83 22.58,419.88 220.36,495.96 94.54,36.36 194.66,32.82 281.66,-2.37z"/>
     <path class="fil1" d="M9058.22 1077.24c-3.46,8.99 -7.18,17.78 -11.24,26.32 -87,35.2 -187.12,38.73 -281.66,2.37 -197.77,-76.08 -296.45,-298.13 -220.36,-495.96 3.45,-8.94 7.17,-17.72 11.23,-26.28 87.02,-35.23 187.12,-38.78 281.67,-2.41 197.82,76.09 296.45,298.13 220.36,495.96z"/>
     <path class="fil2" d="M8831.99 596.5c-189.1,-72.72 -402.14,21.93 -474.88,211.06 -72.74,189.1 21.93,402.14 211.04,474.88 189.12,72.72 402.15,-21.93 474.88,-211.05 72.75,-189.12 -21.92,-402.14 -211.04,-474.89zm-275.53 716.35c-205.9,-79.2 -308.96,-311.12 -229.77,-517 79.19,-205.89 311.12,-308.96 517.01,-229.78 205.89,79.21 308.96,311.13 229.76,517.02 -79.2,205.87 -311.11,308.96 -517,229.76z"/>
     <path class="fil1" d="M8442.64 765.6l-103.47 -40.79 7.35 -19.09c-3.31,8.62 35.02,30.98 96.12,59.87z"/>
     <path class="fil1" d="M9119.14 1002.9l-51.88 134.87c-7.7,20.01 -25.23,34.01 -45.7,37.66l1.13 -1.51c-425.49,-130.42 -549.9,-376.33 -560.76,-399.35 212.92,97.74 646.42,256.38 657.2,228.34z"/>
     <path class="fil11" d="M9022.7 1173.91l-1.13 1.51c-5.19,0.94 -10.52,1.2 -15.92,0.73 -155.64,-13.71 -566.27,-171.66 -690.97,-265.79 -21.5,-16.22 -29.67,-44.73 -20.02,-69.78l44.52 -115.78 103.47 40.79c6.21,2.87 12.66,5.91 19.3,8.97 10.85,23.02 135.27,268.93 560.76,399.35z"/>
     <path class="fil11" d="M8461.94 774.56c-6.64,-3.06 -13.09,-6.09 -19.3,-8.97l18.5 7.25c0,0 0.27,0.59 0.8,1.71z"/>
     <path class="fil2" d="M8352.38 735.89l-42.51 110.52c-7,18.23 -1,39.17 14.59,50.96 122.01,92.11 530.33,249.14 682.63,262.56 19.48,1.71 37.96,-9.82 44.98,-28.04l42.51 -110.51c-5.42,-0.76 -11.03,-1.82 -16.64,-2.95 -22.22,-4.56 -53.35,-13.08 -92.49,-25.28 -72.15,-22.51 -167.77,-56.41 -269.29,-95.46 -101.52,-39.04 -195.22,-77.98 -263.85,-109.61 -37.24,-17.17 -66.04,-31.71 -85.59,-43.22 -4.94,-2.91 -9.83,-5.89 -14.34,-8.97zm290.25 352.93c-138.89,-53.42 -273.84,-117.16 -337.79,-165.45 -27.14,-20.49 -37.58,-56.94 -25.38,-88.66l49.51 -128.77c10.04,-26.09 51.14,0.01 51.85,3.87 19,19.11 132.18,74.8 347.03,157.44 214.84,82.65 336.17,117.15 363.09,115.71 3.12,-2.4 51.1,5.79 41.07,31.86l-49.53 128.77c-12.2,31.71 -44.39,51.78 -78.25,48.81 -79.84,-7.03 -222.71,-50.15 -361.6,-103.58z"/>
     <path class="fil3" d="M8019.03 2637.48c12.05,17.99 36.57,18.19 49.35,16.9l512.71 -1332.97 -48.65 -18.71 -513.41 1334.78z"/>
     <path class="fil2" d="M8019.03 2637.48c12.05,17.99 36.57,18.19 49.35,16.9l512.71 -1332.97 -48.65 -18.71 -513.41 1334.78zm5.58 43.79c-15.62,-6.01 -29.94,-17.07 -38.36,-36.03l-2.74 -6.17 530.23 -1378.49 109.48 42.11 -530.9 1380.25 -8.42 1.96c-14.45,3.35 -38.05,4.52 -59.28,-3.64z"/>
     <path class="fil5" d="M8982.45 817.23c-2.09,0.57 -5.48,-2.74 -9.64,-8.93 -2.17,-3.05 -4.22,-6.98 -6.98,-11.29 -3.02,-4.19 -6.27,-8.99 -9.69,-14.3 -7.34,-10.36 -16.64,-22.06 -27.92,-34.23 -11.76,-11.73 -24.98,-24.37 -40.67,-35.79 -30.7,-23.59 -62.57,-39.98 -85.62,-51.83 -23.32,-11.75 -37.97,-17.42 -37.76,-21.75 0.13,-4.45 18.66,-6.25 45.5,0.74 26.67,7.09 62.89,21.47 97,47.59 17.29,12.61 31.68,27.57 43.59,41.94 11.5,14.85 20.03,29.59 25.55,42.62 2.52,6.65 4.61,12.7 6.27,18 1.43,5.43 1.9,10.34 2.36,14.24 0.77,7.91 0.12,12.39 -1.98,12.98z"/>
     <path class="fil5" d="M9011.71 907.38c-8.8,0.34 -16.41,-11.1 -21.04,-24.71 -4.43,-13.65 -5.17,-27.4 2.08,-32.38 7.09,-5 21.88,4.06 27.96,22.41 6.09,18.32 -0.33,34.44 -9,34.68z"/>
     <path class="fil5" d="M8943.32 1008.61c-2.47,8.26 -66.71,-3.67 -141.79,-31.55 -75.12,-27.77 -131.65,-60.55 -128.14,-68.41 3.59,-8.11 65.03,11.37 139.14,38.74 74.05,27.5 133.35,52.75 130.79,61.22z"/>
     <path class="fil5" d="M9047.27 1043.86c-0.5,8.62 -18.76,14.53 -39.7,8.28 -20.95,-6.2 -33.03,-21.11 -28.73,-28.6 4.32,-7.72 20.55,-6.76 37.74,-1.74 17.16,5.17 31.27,13.23 30.69,22.05z"/>
     <path class="fil5" d="M8600.98 1255.54c-0.82,2.02 -5.72,2.14 -13.97,0.58 -4.13,-0.79 -9.11,-2 -14.81,-3.58 -5.65,-1.78 -11.92,-4.19 -18.88,-6.9 -27.36,-11.32 -64.7,-31.31 -97.59,-64.27 -33.47,-32.3 -54.14,-70.54 -63.13,-99.37 -9.31,-29.03 -7.87,-48.27 -3.97,-48.96 4.64,-0.97 10.96,15.87 24.57,40.21 13.41,24.38 34.44,56.31 64.76,85.59 29.69,29.86 62.2,51.2 85.73,66.97 5.99,3.82 11.3,7.5 16.03,10.72 4.83,3.02 8.92,5.81 12.21,8.29 6.56,4.96 9.87,8.68 9.05,10.71z"/>
     <path class="fil5" d="M8695.01 1274.18c1.93,8.41 -12.11,18.66 -31.24,16.5 -19.13,-2.15 -30.54,-15.24 -26.81,-23.01 3.72,-8.02 16.82,-9.84 30.33,-8.45 13.51,1.64 25.87,6.32 27.72,14.95z"/>
    </g>
   </g>
  </g>
  <path class="fil14" d="M1070.36 0l7828.57 0c588.7,0 1070.36,481.66 1070.36,1070.37l0 0c0,588.7 -481.66,1070.36 -1070.36,1070.36l-7828.57 0c-588.7,0 -1070.36,-481.66 -1070.36,-1070.36l0 0c0,-588.72 481.66,-1070.37 1070.36,-1070.37z"/>
 </g>
</svg>
