<?xml version="1.0" encoding="UTF-8"?>
<!DOCTYPE svg PUBLIC "-//W3C//DTD SVG 1.1//EN" "http://www.w3.org/Graphics/SVG/1.1/DTD/svg11.dtd">
<!-- Creator: CorelDRAW -->
<svg xmlns="http://www.w3.org/2000/svg" xml:space="preserve" width="21.4473mm" height="33.732mm" version="1.1" style="shape-rendering:geometricPrecision; text-rendering:geometricPrecision; image-rendering:optimizeQuality; fill-rule:evenodd; clip-rule:evenodd"
viewBox="0 0 451.69 710.42"
 xmlns:xlink="http://www.w3.org/1999/xlink">
 <defs>
  <style type="text/css">
   <![CDATA[
    .fil14 {fill:white}
    .fil15 {fill:#E6232A}
    .fil17 {fill:#767575;fill-rule:nonzero}
    .fil10 {fill:#5F5E5E;fill-rule:nonzero}
    .fil18 {fill:#484443;fill-rule:nonzero}
    .fil8 {fill:#760153;fill-rule:nonzero}
    .fil3 {fill:#8C3B4B;fill-rule:nonzero}
    .fil11 {fill:#913475;fill-rule:nonzero}
    .fil1 {fill:#955447;fill-rule:nonzero}
    .fil4 {fill:#A35E5D;fill-rule:nonzero}
    .fil9 {fill:#B47D91;fill-rule:nonzero}
    .fil2 {fill:#B68662;fill-rule:nonzero}
    .fil12 {fill:#BF8C9A;fill-rule:nonzero}
    .fil13 {fill:#D49F7B;fill-rule:nonzero}
    .fil7 {fill:#DEC8B8;fill-rule:nonzero}
    .fil5 {fill:#ED2957;fill-rule:nonzero}
    .fil6 {fill:#F79EB3;fill-rule:nonzero}
    .fil0 {fill:#FBC100;fill-rule:nonzero}
    .fil16 {fill:#C91D56;fill-rule:nonzero;fill-opacity:0.501961}
   ]]>
  </style>
 </defs>
 <g id="Layer_x0020_1">
  <metadata id="CorelCorpID_0Corel-Layer"/>
  <path class="fil0" d="M425.43 396.71c45.16,12.57 14.07,-89.75 -36.2,-112.56l10.37 72.15 25.83 40.42z"/>
  <path class="fil1" d="M397.98 562.63c-0.59,13.54 -11.26,24.5 -24.78,25.56l-241.6 18.85c-10.85,0.83 -21.72,-0.69 -31.9,-4.46 -0.01,0 -0.03,-0.01 -0.06,-0.01 -0.85,-0.32 -1.7,-0.64 -2.53,-1l-31.52 -13.02c-8.46,-3.51 -13.89,-11.88 -13.6,-21.03 5.8,-180.41 -14.74,-348.52 -44.59,-484.6 -1.7,-7.77 0.92,-15.84 6.85,-21.14l26.98 -24.06 0.03 -0.01 2.81 -2.52c7.54,-6.72 17.05,-10.77 27.11,-11.57l3.86 -0.31 104.1 -8.12 33.55 -2.62 95.52 -7.45 8.15 -0.63c13.06,-1.01 24.94,7.52 28.16,20.21 41.83,164.6 61.05,361.9 53.44,537.94z"/>
  <path class="fil2" d="M280.98 280.23c3.18,29.36 5.78,57.67 8.27,88.67l-24.56 11.62c-0.79,-18.35 -0.4,-8.01 -1.71,-26.42 -5.41,-76.47 -15.16,-152.89 -28.94,-225.43l25.18 -1.99 0.23 1.19 76.41 -7.36 2.72 -0.22 0.5 -0.04 0.19 1.2 11.78 0 8.06 6.88 -16.13 15.98 -75.1 5.27c-2.43,0.17 -4.17,2.39 -3.78,4.79 3.66,21.87 6.98,44.42 10.01,67.57l-20.67 27.67 23.95 -1.35c0.04,0.32 0.07,0.64 0.12,0.97l69.51 -6.19 10.64 -0.59 0.86 -0.05 7.26 -0.39 14.39 8.39 -19.57 17.2 -74.64 6.57c-3.07,0.26 -5.31,3.02 -4.99,6.08z"/>
  <path class="fil2" d="M231.59 133.53l-21.08 21.87 -82.17 6.91c-6.92,0.57 -11.84,6.94 -10.7,13.79 3.13,18.96 5.99,38.09 8.55,57.32l-24.99 28.6c-9.4,-75.95 -23.03,-150.08 -40.58,-218.48 -1.9,-7.39 -10,-10.77 -16.42,-7.79l13.67 -8.96c2.08,-1.86 13.04,-2.82 17.27,-3l-0.1 -0.5 78.31 -6.1 5.12 -0.31 0.04 -0.01 0.04 0.01 20.7 -1.27 13.07 -0.79 7.85 5.9 -14.18 19.31 -87.22 5.97c-3.91,0.26 -6.63,3.98 -5.71,7.79 4.8,19.97 9.28,40.37 13.44,61.13l-23.92 25.47 32.1 -2.39 -0.73 -2.08 91.6 -7.45 0.42 2.3 0.01 0 24.64 -2.44c0.32,1.73 0.64,3.47 0.96,5.21z"/>
  <path class="fil2" d="M133.09 291.28c10.08,97.35 13.1,196.23 8.63,289.89 -0.38,7.99 -19.12,13.17 -26.51,10.12l-0.64 0.42c5.01,-105.39 0.31,-218.7 -13.18,-328.23l28.19 -3.25c0.04,0.35 0.09,0.72 0.13,1.07l90.34 -8.05 5.02 -0.45 24.15 0c0.06,0.51 0.12,1.02 0.18,1.55l-21.49 22.58 -88.42 6.66c-3.94,0.29 -6.82,3.78 -6.41,7.69z"/>
  <path class="fil3" d="M367.92 348.09c-1.9,-26.89 -4.34,-53.78 -7.31,-80.5l16.28 -14.31c2.6,2.73 4.55,6.14 5.54,10.02 0.09,0.35 0.22,0.68 0.38,0.99 0.72,6.43 1.4,12.87 2.06,19.32 -0.08,0.66 -0.01,1.32 0.2,1.93 1.82,17.99 3.39,36.07 4.73,54.16 -5.73,2.58 -13.14,5.58 -21.89,8.39zm-111.4 -102.54c-0,-0.02 -0,-0.04 -0.01,-0.06l17.6 -23.56 0.35 -0.47 72.59 -5.53c3.84,-0.29 6.65,-3.76 6.11,-7.58 -3.05,-21.56 -6.44,-42.95 -10.17,-64.04l14.58 -14.44c3.54,2.95 6.19,7 7.4,11.76 0.08,0.31 0.19,0.6 0.32,0.87 5.93,33.43 11.02,67.59 15.23,102.18 -5.47,-4.52 -12.46,-7.15 -19.91,-7.15 -0.81,0 -1.62,0.03 -2.44,0.09l-101.64 7.93zm-18.89 -121.56l17.13 -20.29 -0.04 -0.22 71.85 -5.78c3.94,-0.32 6.7,-4.03 5.9,-7.89 -4.36,-20.74 -9.05,-41.13 -14.08,-61.03l13.57 -15.52c4,3 7.01,7.33 8.32,12.5 7.87,30.96 14.94,63.08 21.2,96.01 -5.21,-3.77 -11.57,-5.92 -18.32,-5.92 -0.81,0 -1.63,0.03 -2.44,0.09l-103.08 8.04z"/>
  <path class="fil3" d="M274.12 221.93l0 0c-0.02,-0.15 -0.04,-0.29 -0.06,-0.44l0.41 -0.03 -0.35 0.47z"/>
  <path class="fil4" d="M274.12 221.93l-0.06 -0.44c0.02,0.15 0.04,0.29 0.06,0.44z"/>
  <path class="fil2" d="M240.16 40.66l0.01 0.06c5.28,20.04 10.13,41 14.55,62.76l0.04 0.22 -20.78 24.62c-6.21,-32.64 -13.23,-64.51 -21.03,-95.23 -3,-11.86 -13.57,-20.09 -25.6,-20.28l33.34 -0.99c0,0 0.07,0.03 0.21,0.09l87.33 -6.81 0.41 0.21 -16.25 1.07c0.32,0 0.63,0.01 0.95,0.04 0.63,0.03 1.26,0.09 1.89,0.17 0.31,0.03 0.61,0.07 0.92,0.13l0.01 0 23.3 -1.63 8.75 2.69c1.93,0.98 3.73,2.2 5.37,3.62l-15.19 17.37 -73.57 5.42c-3.22,0.23 -5.41,3.31 -4.67,6.46z"/>
  <path class="fil2" d="M114.55 592.07c-0.37,7.6 -7.77,12.65 -14.86,10.51 -0.01,0 -0.03,-0.01 -0.06,-0.01 -0.85,-0.32 -1.7,-0.64 -2.53,-1l-31.52 -13.02c-8.46,-3.51 -13.89,-11.88 -13.6,-21.03 5.8,-180.41 -14.74,-348.52 -44.59,-484.6 -1.7,-7.77 0.92,-15.84 6.85,-21.14l26.98 -24.06 0.03 -0.01c6.62,-5.9 17.16,-2.72 19.37,5.85 42.99,167.54 62.46,369.48 53.93,548.53z"/>
  <path class="fil5" d="M397.98 639.41c-0.59,20 -11.25,36.19 -24.78,37.74l-241.61 27.84c-4.9,0.56 -9.82,0.41 -14.67,-0.46 -6.79,-1.18 -13.45,-3.73 -19.82,-7.63l-31.51 -19.23c-8.46,-5.19 -13.89,-17.55 -13.6,-31.07 1.41,-64.5 1.26,-127.93 -0.17,-189.88 -0.41,-17.62 -0.92,-35.11 -1.54,-52.47 7.64,0.89 15.88,3.72 24.12,9.75 23.84,42.72 51.29,64.07 90.27,-16.21 0,0 2.47,-6.36 8.2,-12.56 7.57,-8.26 20.83,-16.23 41.53,-8.86 16.01,5.69 36.49,20.6 62.25,51.69 41.76,50.41 62.62,44.14 73.03,25.03 3.82,-6.96 6.22,-15.63 7.74,-23.91 2.74,-14.75 2.66,-28.15 2.66,-28.15 0,0 15.1,-25.51 38.57,35.76 0.03,1.25 0.06,2.49 0.07,3.74 0.35,16.96 0.6,33.87 0.73,50.73 0.42,50.13 -0.06,99.68 -1.48,148.14z"/>
  <path class="fil6" d="M68.39 674.35c-5.94,-3.1 -9.7,-9.42 -9.48,-16.18 1.41,-44.05 -1.27,-177.2 -2.65,-218.07 4.85,2.2 8.22,7.06 8.4,12.63 1.28,40.23 3.87,171.07 2.53,212.88 -0.09,2.74 0.34,6.25 1.21,8.74z"/>
  <path class="fil7" d="M63.38 38.65c-1.55,-2.83 -3.91,-5.13 -6.82,-6.6 4.67,-2.26 9.76,-3.66 14.96,-4.07l112.38 -8.77c0.28,0.05 0.56,0.08 0.85,0.08 0.12,0 0.25,-0 0.37,-0.01 0.6,-0.05 1.2,-0.07 1.8,-0.07 4.3,0 8.39,1.22 11.87,3.39l-0.33 0.46 -6.64 0.52 -104.1 8.12 -3.86 0.31c-7.29,0.57 -14.29,2.86 -20.47,6.64z"/>
  <path class="fil7" d="M211.25 22.07c-1.37,-1.71 -2.91,-3.25 -4.6,-4.62l110.06 -8.59c0.59,-0.05 1.19,-0.07 1.78,-0.07 4.7,0 9.15,1.46 12.83,4.02 -0.06,-0 -0.12,-0 -0.19,-0 -0.69,0 -1.39,0.03 -2.09,0.08l-8.15 0.63 -95.52 7.45 -14.12 1.1z"/>
  <path class="fil7" d="M52.44 286.36c-0.07,-0.02 -0.14,-0.04 -0.21,-0.06 -2.43,-0.71 -4.94,-1.89 -7.51,-3.6 -8.94,-79.4 -21.37,-147.59 -33.03,-200.74 -1.36,-6.21 0.74,-12.69 5.49,-16.92l27.02 -24.1c1.39,-1.23 3.14,-1.88 4.93,-1.88 0.74,0 1.48,0.11 2.21,0.33 2.35,0.71 4.09,2.4 4.86,4.68l-2.27 2.03 -0.03 0.01 -26.98 24.06c-5.93,5.3 -8.55,13.37 -6.85,21.14 13.04,59.46 24.3,125.02 32.36,195.04z"/>
  <path class="fil8" d="M373.21 683.16l0.01 0 -0.01 0zm-54.72 -672.95c-0.59,0 -1.18,0.03 -1.78,0.08l-245.19 22.22c-9.04,0.82 -17.76,5.13 -24.52,12.15l-29.82 30.89c-4.75,4.92 -6.85,12.44 -5.49,19.65 23.99,127.01 51.21,327.97 44.69,564.1 -0.23,8.46 4.14,16.31 10.88,19.55l31.51 15.14c10.22,4.91 21.44,6.98 32.47,5.98l241.62 -21.9c11.33,-1.02 20.24,-11.69 20.72,-24.81 7.68,-206.24 -11.75,-433.43 -53.3,-623.33 -2.56,-11.7 -11.56,-19.73 -21.79,-19.73zm-192.67 700.21c-10.4,0 -20.79,-2.38 -30.4,-6.99l-31.51 -15.14c-10.1,-4.85 -16.65,-16.63 -16.3,-29.3 2.35,-85.07 0.3,-165.56 -4.41,-239.63 -8.3,-130.61 -24.85,-241.28 -40.08,-321.96 -2.04,-10.8 1.11,-22.09 8.22,-29.45l29.82 -30.89c8.19,-8.49 18.74,-13.71 29.69,-14.7l245.19 -22.22c15.23,-1.39 29,10.1 32.76,27.31 41.76,190.82 61.28,419.09 53.57,626.28 -0.68,18.26 -13.07,33.11 -28.82,34.54l-241.62 21.89c-2.03,0.18 -4.07,0.28 -6.11,0.28z"/>
  <path class="fil8" d="M82.59 146.91c-1.75,0 -3.41,-1.06 -4.09,-2.79 -0.89,-2.26 0.23,-4.8 2.48,-5.69 4.65,-1.83 9.54,-2.95 14.53,-3.35l245.2 -19.13c15.22,-1.17 25.23,9.97 28.99,24.77 -9.06,4.87 -14.88,6.86 -1.08,3.24 -2.35,0.6 -3.06,0.01 -3.66,-2.34 -2.7,-10.65 -12.66,-17.77 -23.57,-16.92l-245.19 19.13c-4.13,0.33 -8.17,1.26 -12.02,2.77 -0.53,0.21 -1.07,0.3 -1.6,0.3z"/>
  <path class="fil8" d="M101.41 268.06c-1.8,0 -3.49,-1.12 -4.14,-2.92 -0.81,-2.28 0.38,-4.79 2.66,-5.61 4.2,-1.5 8.59,-2.44 13.04,-2.79l245.18 -19.13c15.23,-1.17 25.23,7.87 29,22.67 0.6,2.35 -0.82,4.74 -3.17,5.34 -2.35,0.6 -4.74,-0.82 -5.34,-3.17 -2.71,-10.65 -8.87,-16.93 -19.81,-16.09l-245.17 19.13c-3.68,0.29 -7.3,1.06 -10.79,2.31 -0.48,0.17 -0.99,0.25 -1.47,0.25z"/>
  <path class="fil8" d="M266.14 415.7c-2.34,0 -4.28,-1.84 -4.38,-4.2 -0.79,-18.24 -1.85,-36.77 -3.15,-55.06 -7.95,-112.3 -25.21,-223.04 -49.91,-320.25 -2.7,-10.65 -12.63,-17.77 -23.56,-16.9 -2.42,0.2 -4.53,-1.62 -4.72,-4.04 -0.19,-2.42 1.62,-4.53 4.03,-4.72 15.24,-1.19 29,8.69 32.76,23.5 24.82,97.7 42.17,208.98 50.15,321.78 1.31,18.37 2.38,36.98 3.17,55.3 0.11,2.42 -1.78,4.47 -4.2,4.58 -0.06,0 -0.13,0 -0.19,0z"/>
  <polygon class="fil8" points="158.48,16.88 158.19,16.88 158.53,16.87 "/>
  <polygon class="fil8" points="158.57,16.88 158.53,16.87 179.27,15.61 "/>
  <path class="fil8" d="M200.18 20.72l-7.85 -5.9c0,0 3.59,1.42 7.85,5.9z"/>
  <path class="fil3" d="M85.99 136.76l-0 -0 20.52 -21.85 87.78 -6.4c3.82,-0.28 6.51,-3.86 5.74,-7.6 -4.33,-20.71 -9,-41.04 -14.02,-60.89l12.46 -16.96 0.93 -0.07c4.49,3 7.89,7.61 9.3,13.19 7.23,28.45 13.82,58.06 19.73,88.52l-132.9 10.37c-3.23,0.26 -6.42,0.82 -9.52,1.68z"/>
  <path class="fil9" d="M198.46 23.07l0.33 -0.46c0.2,0.13 0.4,0.25 0.6,0.39l-0.93 0.07z"/>
  <path class="fil8" d="M86.63 140.08c-0.21,-1.11 -0.42,-2.21 -0.64,-3.32 3.11,-0.86 6.3,-1.42 9.52,-1.68l132.9 -10.37c0.24,1.25 0.48,2.5 0.72,3.76l-23.15 2.3c-0.15,-0.78 -0.29,-1.54 -0.44,-2.3l-91.6 7.45 0.73 2.08 -28.06 2.08z"/>
  <path class="fil8" d="M229.14 128.47c-0.24,-1.25 -0.48,-2.5 -0.72,-3.76 -5.91,-30.47 -12.5,-60.07 -19.73,-88.52 -1.42,-5.58 -4.81,-10.2 -9.3,-13.19 -0.2,-0.13 -0.4,-0.26 -0.6,-0.39l1.39 -1.89c4.13,4.32 8.87,11.51 11.64,23.01 7.04,26.64 13.27,54.92 18.81,84.59l-1.49 0.15z"/>
  <path class="fil3" d="M105.23 257.97c-0.02,-0.16 -0.04,-0.33 -0.06,-0.49l21.02 -24.06 82.8 -6.97c6.82,-0.57 11.72,-6.78 10.75,-13.55 -2.78,-19.35 -5.85,-38.54 -9.22,-57.5l19.83 -20.57c6.79,36.15 12.62,73.45 17.41,111.41l-134.78 10.52c-2.61,0.21 -5.2,0.61 -7.75,1.22z"/>
  <path class="fil8" d="M105.85 262.97c-0.2,-1.67 -0.41,-3.33 -0.62,-5 2.55,-0.61 5.14,-1.01 7.75,-1.22l134.78 -10.52c0.27,2.19 0.55,4.37 0.82,6.57l-23.48 0 -0.26 -1.98c-0.05,-0.41 -0.11,-0.82 -0.16,-1.22l0.16 1.22c0.08,0.66 0.16,1.32 0.24,1.98l-4.98 0 -0.03 0.28 -81.3 4.5 0.78 1.51 -9.97 1.16 -23.73 2.73z"/>
  <path class="fil8" d="M249.23 252.8l-0.66 0c-0.27,-2.19 -0.54,-4.38 -0.82,-6.57 -4.8,-37.96 -10.63,-75.25 -17.41,-111.41l1.25 -1.3c6.9,37.72 12.69,77.64 17.64,119.27z"/>
  <path class="fil3" d="M258.16 350.36c-8.65,-2.09 -16.51,-3.52 -23.75,-4.41 -1.78,-23.06 -3.94,-46.1 -6.49,-69.02l20.91 -21.98 0.01 0c3.83,31.46 6.95,63.37 9.32,95.4z"/>
  <path class="fil8" d="M248.83 254.96l0.01 -0c0,0 0,0 0,0l-0.01 0z"/>
  <path class="fil8" d="M259.12 350.59c-0.32,-0.08 -0.64,-0.16 -0.96,-0.23 -2.37,-32.03 -5.49,-63.94 -9.32,-95.4 0,-0 0,0 0,-0l0.57 -0.6c3.67,31.19 6.88,63.34 9.71,96.24z"/>
  <path class="fil10" d="M329.7 441.58c-12.57,0 -29.68,-8.62 -50.27,-25.45 -30.02,-24.54 -56.36,-37.26 -78.54,-37.95 3.9,-1.15 8.41,-1.88 13.6,-1.88 17.56,0 42.82,8.36 77.83,36.98 19.07,15.58 33.79,23.16 45.13,25.58 -0.23,0.57 -0.47,1.13 -0.72,1.68 -2.15,0.7 -4.5,1.05 -7.03,1.05z"/>
  <path class="fil8" d="M225.1 252.8l-0.01 0c-0.08,-0.66 -0.16,-1.32 -0.24,-1.98l0.26 1.98z"/>
  <path class="fil8" d="M224.84 250.82l-0.16 -1.22c0.05,0.41 0.11,0.82 0.16,1.22z"/>
  <polygon class="fil11" points="220.06,253.25 220.08,253.07 225.08,252.8 "/>
  <polygon class="fil11" points="220.08,253.07 220.1,252.8 225.08,252.8 "/>
  <path class="fil4" d="M106.59 359.51c-51.03,-3.52 -59,-50.96 -59.33,-53.05 -0,-0.04 -0.01,-0.09 -0.02,-0.13 -0.8,-7.98 -1.65,-15.86 -2.52,-23.63 2.56,1.7 5.07,2.88 7.51,3.59 0.07,0.02 0.14,0.04 0.21,0.06 1.85,0.52 3.66,0.77 5.43,0.77 17.11,0 30.16,-23.35 35.71,-50.37 1.21,8.78 2.37,17.63 3.46,26.47 -0.06,0.63 0.01,1.28 0.23,1.91 0,0.01 0,0.01 0.01,0.01 3.83,31.21 6.94,62.73 9.31,94.35z"/>
  <path class="fil12" d="M52.44 286.36c-0.07,-0.02 -0.14,-0.04 -0.21,-0.06 0.07,0.02 0.14,0.04 0.21,0.06z"/>
  <path class="fil8" d="M47.24 306.34c-0.24,-1.3 -1.04,-2.42 -2.19,-3.06 -0.66,-0.37 -1.4,-0.55 -2.13,-0.55 -0.15,0 -0.31,0.01 -0.45,0.03 -0.82,-7.94 -1.68,-15.82 -2.57,-23.64 0.19,8.73 0.98,16.6 2.28,23.68 -0,0 -0.01,0 -0.01,0 -1.31,-7.13 -2.1,-15.05 -2.28,-23.86 1.63,1.46 3.24,2.71 4.83,3.77 0.87,7.77 1.72,15.65 2.52,23.63z"/>
  <path class="fil8" d="M97.28 265.16c-0,-0 -0,-0.01 -0.01,-0.01 -0.23,-0.63 -0.29,-1.28 -0.23,-1.91 0.08,0.64 0.16,1.28 0.24,1.93z"/>
  <path class="fil8" d="M112.11 359.71c-1.9,-0.01 -3.73,-0.08 -5.52,-0.2 -2.37,-31.62 -5.48,-63.14 -9.31,-94.35 -0.08,-0.64 -0.16,-1.28 -0.24,-1.93 -1.09,-8.84 -2.25,-17.69 -3.46,-26.47 1,-4.86 1.75,-9.85 2.25,-14.83l16.28 137.78z"/>
  <path class="fil8" d="M112.63 364.1c-31.43,-2.37 -61.96,-15.11 -70.46,-61.31 0,-0 0,-0 0.01,-0 0.19,1.03 0.39,2.04 0.6,3.03 -0.11,-1.03 -0.21,-2.05 -0.31,-3.07 0.15,-0.02 0.3,-0.03 0.45,-0.03 0.74,0 1.47,0.19 2.13,0.55 1.15,0.64 1.95,1.76 2.19,3.06 0.01,0.04 0.01,0.08 0.02,0.13 0.33,2.08 8.29,49.52 59.33,53.05 1.79,0.12 3.62,0.19 5.52,0.2l0.52 4.39z"/>
  <path class="fil8" d="M42.18 302.79c-1.31,-7.08 -2.09,-14.95 -2.28,-23.68 0.89,7.82 1.75,15.7 2.57,23.64 -0.09,0.01 -0.19,0.02 -0.29,0.04z"/>
  <path class="fil8" d="M42.78 305.83c-0.21,-1 -0.41,-2.01 -0.6,-3.03 0.1,-0.02 0.19,-0.03 0.29,-0.04 0.11,1.02 0.21,2.05 0.31,3.07z"/>
  <path class="fil13" d="M336.72 440.52c0.25,-0.55 0.49,-1.11 0.72,-1.68 0.76,0.16 1.52,0.3 2.25,0.42 -0.23,0.12 -0.46,0.23 -0.69,0.35 -0.74,0.35 -1.5,0.66 -2.29,0.91z"/>
  <path class="fil8" d="M340.24 443.87l-4.45 -1.34c0.32,-0.66 0.63,-1.33 0.94,-2 0.79,-0.26 1.55,-0.56 2.29,-0.91 0.23,-0.11 0.46,-0.23 0.69,-0.35 16,-8.46 16,-37.7 15.99,-38 -0.01,-1.07 0.38,-2.12 1.09,-2.93 1.76,-2.01 6.1,-5.07 12.06,-5.07 0.72,0 1.46,0.04 2.23,0.14 10.82,1.36 21.83,12.21 32.76,32.3 4.99,-4.79 13.42,-14.68 17.25,-29.59 -0.29,2.13 1.02,4.2 3.14,4.81 -4.88,15.12 -14.04,24.92 -18.75,29.2 0.52,-1.41 0.59,-1.93 0.39,-1.93 -0.58,0 -3.36,4.42 -3.36,4.42 -14.58,-28.76 -26.3,-34.97 -33.69,-34.97 -5.61,0 -8.73,3.57 -8.73,3.57 0,0.09 0.01,2.31 -0.3,5.74 -0.32,3.52 -0.98,8.31 -2.36,13.32l-0.01 0c-0.46,1.7 -1.01,3.43 -1.65,5.15 -0.9,2.41 -2,4.79 -3.33,7.04 -0.83,1.4 -1.75,2.74 -2.77,4l0 0.01c-2.5,3.1 -5.6,5.7 -9.44,7.39zm81.08 -48.68c1.29,-5.35 1.98,-11.33 1.71,-17.94 -0.07,-1.72 0.86,-3.25 2.27,-4.02l2.12 3.84c0.22,5.52 -0.19,10.64 -1.05,15.34 -0.31,-0.07 -0.62,-0.1 -0.93,-0.1 -1.81,0 -3.48,1.12 -4.12,2.87zm-32.28 -45.45c-1.65,-1.34 -3.26,-2.34 -4.75,-2.87 13.2,-5.35 20.96,-10.05 20.96,-10.05l2.13 3.85c-1.31,0.79 -7.85,4.59 -18.33,9.07z"/>
  <path class="fil8" d="M424.23 400.93c-2.12,-0.61 -3.43,-2.68 -3.14,-4.81 0.03,-0.2 0.07,-0.39 0.12,-0.59 0.03,-0.11 0.07,-0.23 0.11,-0.34 0.64,-1.75 2.31,-2.87 4.12,-2.87 0.31,0 0.62,0.03 0.93,0.1 -0.55,3.01 -1.28,5.84 -2.14,8.51z"/>
  <path class="fil8" d="M125.8 705.32c-2.97,0 -5.94,-0.2 -8.87,-0.62 -1.32,-0.45 -2.05,-0.73 -2.05,-0.73 21.5,-1.96 42.13,-4.58 61.58,-8.1l196.41 -17.8c11.33,-1.02 20.24,-11.69 20.72,-24.81 1.92,-51.54 2.15,-104.39 0.76,-157.63 1.38,2.78 2.79,5.82 4.24,9.15 0.1,0.24 0.22,0.45 0.35,0.67 0.01,0.54 0.02,1.08 0.04,1.61 0.22,10 0.38,19.96 0.48,29.91 0.43,39.43 -0.06,78.39 -1.48,116.51 -0.59,15.73 -11.26,28.46 -24.78,29.68l-241.6 21.9c-1.93,0.17 -3.86,0.26 -5.79,0.26zm247.41 -22.16l0.01 0 -0.01 0zm-316.98 -172.66c-1.49,-0.29 -2.96,-0.52 -4.41,-0.69 -0.36,-12.1 -0.79,-24.13 -1.31,-36.08 1.46,0.15 2.93,0.35 4.42,0.62 0.51,11.91 0.95,23.96 1.3,36.15z"/>
  <path class="fil8" d="M113.44 458.32c-0.29,0 -0.58,-0.01 -0.88,-0.01 -0.34,-0.01 -0.68,-0.03 -1.02,-0.06 -14.87,-1.14 -27.79,-15.49 -40.54,-44.99 -5.43,-2.51 -10.85,-4.04 -16.08,-4.85 -1.49,-0.23 -2.96,-0.41 -4.42,-0.53 -0.07,-1.49 -0.15,-2.98 -0.23,-4.46 7.64,0.6 15.88,2.52 24.12,6.6 11.32,26.69 23.97,43.92 39.03,43.92 14.51,0 31.26,-15.98 51.24,-54.9 0,0 2.47,-4.3 8.2,-8.5 13,-3.14 25.79,-5.92 41.53,-6 16.01,3.85 36.49,13.95 62.25,35 23.83,19.47 40.85,26.46 53.02,26.46 4.04,0 7.54,-0.77 10.57,-2.1l0.01 0.01c5.4,-2.39 9.34,-6.57 12.2,-11.41 1.33,-2.24 2.42,-4.63 3.33,-7.04 0.64,-1.72 1.19,-3.45 1.66,-5.15l0.01 0c1.37,-5.01 2.03,-9.8 2.35,-13.32 0.31,-3.42 0.3,-5.65 0.3,-5.74 0,0 3.12,-3.57 8.72,-3.57 6.73,0 17.04,5.15 29.85,27.78 0.03,0.85 0.06,1.68 0.07,2.53 0.07,2.41 0.15,4.81 0.21,7.22 -0.13,-0.18 -0.25,-0.37 -0.35,-0.57 -1.46,-2.87 -2.87,-5.49 -4.24,-7.88 -11.37,-19.8 -19.88,-23.96 -24.18,-24.58 -0.46,-0.07 -0.9,-0.09 -1.31,-0.09 -1.99,0 -3.49,0.67 -4.42,1.26 -0.31,7.9 -2.73,35.16 -21.61,44.21 -3.94,1.89 -8.3,2.83 -13.06,2.83 -14.83,0 -33.55,-9.18 -55.89,-27.44 -35.05,-28.65 -59.42,-35.97 -75.17,-35.97 -2.92,0 -5.54,0.25 -7.88,0.67 -15.24,2.7 -21.66,12.49 -22.31,13.54 -17.15,33.38 -33,51.89 -48.21,56.18 -2.3,0.65 -4.6,0.98 -6.87,0.98z"/>
  <path class="fil8" d="M340.25 443.88l-0.01 -0.01c3.84,-1.69 6.94,-4.29 9.44,-7.39l0 -0.01c1.02,-1.26 1.94,-2.61 2.77,-4 -2.86,4.84 -6.79,9.02 -12.2,11.41zm15.52 -18.45c0.64,-1.72 1.19,-3.44 1.65,-5.15l0.01 0c-0.47,1.7 -1.01,3.43 -1.66,5.15zm4.01 -18.47c0.31,-3.42 0.3,-5.65 0.3,-5.74 0,0.09 0.01,2.31 -0.3,5.74zm0.3 -5.74l0 0z"/>
  <path class="fil8" d="M432.43 402.15c-2.54,0 -5.27,-0.4 -8.17,-1.21 -2.34,-0.65 -3.7,-3.07 -3.05,-5.41 0.65,-2.34 3.07,-3.7 5.41,-3.05 10.47,2.91 13.53,-1.82 14.92,-5.63 3.81,-10.47 -0.4,-31.04 -10.45,-51.17 -11.39,-22.79 -27.3,-40.12 -43.65,-47.54 -2.21,-1 -3.19,-3.61 -2.18,-5.81 1,-2.21 3.6,-3.19 5.81,-2.18 18.16,8.24 35.61,27.05 47.88,51.61 11.42,22.85 15.57,45.11 10.85,58.1 -2.92,8.04 -9.06,12.29 -17.35,12.29z"/>
  <path class="fil14" d="M149.94 573.32c-12.23,27.19 -11.18,53.78 11.19,75.38 25.61,24.72 83.84,8.92 109.53,-3.22 52.96,-25.03 132.99,-86.83 116.95,-138.75 -5.22,-16.89 -14.32,-32.88 -31.31,-39.99 -15.62,-6.55 -36.16,-10.56 -52.03,-6.2 -21.22,5.84 -44.52,14.2 -63.31,25.54 -22.8,13.76 -44.45,31.05 -64.5,48.58 -7.35,6.42 -12.82,14.97 -19.52,22.07 -2.2,2.33 -5.62,13.75 -6.98,16.58z"/>
  <path class="fil14" d="M148.86 558.21c5.11,-11.35 21.06,-25.56 30.58,-33.9 17.04,-14.93 35.38,-28.54 54.78,-40.24 17.08,-10.3 35.44,-19.42 54.73,-24.73 19.09,-5.25 39.74,-6.67 58.37,1.13 21.66,9.08 34.53,27.88 41.28,49.73 2.18,7.06 3.03,14.4 2.5,21.77 -3.7,51.2 -72.36,92.19 -113.28,113.56 -19.69,10.28 -42.56,19.98 -64.95,21.36 -18.28,1.13 -35.45,-3.6 -48.84,-16.52 -26.43,-25.51 -29.89,-59.44 -15.17,-92.17zm6.62 2.98c4.41,-9.81 20.36,-24.08 28.74,-31.42 16.68,-14.62 34.76,-28.03 53.75,-39.49 16.44,-9.92 34.33,-18.84 52.9,-23.95 17.46,-4.8 36.58,-6.32 53.64,0.83 19.63,8.22 31.05,25.44 37.15,45.18 1.92,6.21 2.66,12.62 2.19,19.11 -3.45,47.74 -71.28,87.74 -109.4,107.65 -18.65,9.74 -40.84,19.24 -62.04,20.55 -16.23,1 -31.44,-3 -43.35,-14.5 -24.22,-23.38 -27.04,-54.06 -13.59,-83.96z"/>
  <path class="fil15" d="M163.34 564.72c3.6,-8.01 19.91,-22.65 26.56,-28.48 16.2,-14.2 34.08,-27.46 52.52,-38.59 15.67,-9.45 33.04,-18.15 50.73,-23.02 15.53,-4.27 34.62,-6.81 49.84,-0.44 17.19,7.2 26.92,22.54 32.25,39.77 15.61,50.52 -68.67,98.63 -104.78,117.49 -17.35,9.06 -38.79,18.37 -58.58,19.58 -13.8,0.85 -28.52,-0.5 -38.65,-10.28 -21.65,-20.9 -21.81,-49.57 -9.9,-76.04zm5.02 2.26c8.47,-18.84 168.56,-158.34 201.62,-51.38 14.14,45.75 -65.99,92.13 -102.07,110.97 -46.97,24.53 -75.47,25.07 -90.85,10.23 -20.9,-20.17 -19.01,-46.92 -8.7,-69.82z"/>
  <polygon class="fil15" points="199.31,561.03 234.27,623.51 239.29,615.83 224.37,595.08 252.9,610.9 257.37,593.21 224.97,590.29 237.88,562.96 221.19,558.42 220.11,582.46 207.51,559.67 "/>
  <polygon class="fil15" points="238.41,571.75 241.25,578.49 251.95,566.43 271.4,596.92 279.16,593.15 255.3,564.09 266.9,558.06 260.41,549.08 252.19,558.15 "/>
  <polygon class="fil15" points="253.5,523.14 288.45,585.62 293.48,577.94 278.55,557.19 307.08,573.01 311.56,555.32 279.16,552.4 292.07,525.07 275.37,520.53 274.3,544.57 261.69,521.78 "/>
  <polygon class="fil15" points="292.59,533.85 295.44,540.6 306.14,528.54 325.59,559.03 333.35,555.26 309.49,526.2 321.08,520.17 314.59,511.19 306.38,520.26 "/>
  <path class="fil16" d="M176.46 698.39c73.28,-13.27 129.82,-39.32 152.79,-90.99 8.45,-19.02 0.55,-109.28 -16.59,-117.12 -9.84,-4.5 -21.71,-12.86 -36.05,-26.47 -3.24,-3.07 -6.39,-5.95 -9.47,-8.63 -30.15,-26.32 -52.42,-34.31 -68.36,-34.31 -24.67,0 -34.15,19.14 -34.15,19.14 -16.64,37.65 -33.98,58.71 -46.71,64.06 -3.76,6.55 -1.91,-33.35 -2.01,-46.01 15.21,-8.13 36.09,-23.34 52.61,-56.45 0.65,-1.23 6.23,-10.72 21.47,-13.85 2.34,-0.48 6.01,-0.56 8.93,-0.56 15.74,0 43.68,2 78.73,35.28 22.34,21.2 37.71,24.74 52.54,24.74 4.76,0 8.69,1.84 12.64,-0.36 18.88,-10.51 21.31,-33.79 21.61,-42.97 0.93,-0.69 2.43,-2.3 4.42,-2.3 0.41,0 2.53,-1.23 2.99,-1.15 4.3,0.72 9.45,1.36 20.82,24.36 1.39,53.24 2.84,179.44 0.92,230.97 -0.49,13.12 -9.4,23.79 -20.72,24.81l-196.41 17.8zm-65.22 -193.82c-14.49,-1.12 -25.89,-21.71 -36.88,-51.8 -6.13,-3.53 -17.28,-6.29 -23.16,-7.44 -0.36,-12.19 -2.68,-28.64 -3.19,-40.55 5.23,0.95 19.88,4.39 25.3,7.31 16.1,36.35 20.43,38.78 35.71,45.97 0.27,12.04 2.12,34.52 2.22,46.5z"/>
  <path class="fil8" d="M103.01 705.54c-2.06,0 -4.13,-0.46 -6.09,-1.4 -2.24,-1.07 -3.3,-4.06 -2.38,-6.66 0.93,-2.61 3.5,-3.84 5.74,-2.77 2.18,1.06 4.58,0.81 6.58,-0.66 1.99,-1.47 3.2,-3.88 3.31,-6.62 8.62,-210.17 -10.98,-441.83 -53.79,-635.59 -0.66,-2.97 -2.49,-5.2 -5.03,-6.1 -2.52,-0.89 -5.2,-0.21 -7.16,1.83 -1.81,1.87 -4.58,1.69 -6.2,-0.41 -1.62,-2.1 -1.46,-5.32 0.35,-7.2 4.27,-4.42 10.09,-5.91 15.57,-3.97 5.46,1.93 9.56,6.91 10.98,13.32 43.02,194.7 62.72,427.47 54.06,638.61 -0.25,6.01 -3.01,11.52 -7.38,14.75 -2.59,1.91 -5.56,2.88 -8.55,2.88z"/>
  <path class="fil17" d="M405.47 430.13l0 0.01c-1.81,1.64 -2.97,2.47 -2.97,2.47 -25.65,-50.57 -42.42,-31.4 -42.42,-31.4 0,0 0.28,33.78 -19.83,42.65 -12.18,5.36 -31.85,1.59 -63.6,-24.36 -84.17,-68.79 -111.98,-20.49 -111.98,-20.49 -40.71,79.32 -68.05,63.38 -90.27,10.98 -31,-15.37 -61.87,0 -61.87,0l20.4 -48.3 -28.54 -13.9c10.25,-28.54 38.52,-40.68 38.52,-40.68 0,0 8.64,56.95 69.7,56.98 22.42,0.01 38.8,-3.74 54.24,-7.48 26.62,-6.47 50.45,-12.93 97.66,-0.08 49.04,13.35 94.41,0.63 119.75,-9.66l0.01 0c13.2,-5.35 20.96,-10.05 20.96,-10.05l22.18 40.25c1.16,28.94 -15.09,46.84 -21.94,53.06z"/>
  <path class="fil10" d="M113.42 449.54c-0.18,0 -0.36,-0 -0.53,-0.01 -11.42,-0.42 -23.01,-14.29 -34.44,-41.23 -0.41,-0.97 -1.15,-1.75 -2.09,-2.22 -11.08,-5.5 -22.09,-7.33 -31.83,-7.33 -0.34,0 -0.67,0 -1.01,0.01 4.81,-1.04 10.5,-1.83 16.73,-1.83 3.23,0 6.6,0.21 10.07,0.71 10.95,1.58 20.41,8.49 25.39,18.38 8.27,16.43 17.29,27.58 27.43,30.74 -3.36,1.85 -6.6,2.78 -9.72,2.78zm-92.87 -47.22l16.43 -38.91c0.91,-2.15 -0.02,-4.63 -2.12,-5.65l-24.88 -12.12c7.14,-16.24 20.6,-26.34 28.48,-31.14 -6.21,5.71 -12.53,13.32 -16.81,23.02 -0.98,2.21 0.01,4.81 2.19,5.87l17.27 8.41c4.2,2.04 6.06,7.01 4.25,11.31l-15.63 37c-3.45,0.63 -6.54,1.42 -9.18,2.21z"/>
  <path class="fil8" d="M113.44 458.32c-0.29,0 -0.58,-0.01 -0.88,-0.01 -15.3,-0.56 -28.52,-14.88 -41.55,-45.05 -28.11,-13.02 -56.24,0.55 -56.53,0.69 -1.64,0.81 -3.62,0.52 -4.96,-0.74 -1.34,-1.26 -1.75,-3.21 -1.04,-4.9l18.78 -44.47 -24.8 -12.08c-2.01,-0.98 -2.97,-3.32 -2.21,-5.43 10.77,-30 39.7,-42.71 40.93,-43.23 1.25,-0.54 2.68,-0.46 3.86,0.2 1.19,0.66 2,1.83 2.21,3.18 0.34,2.16 8.91,53.22 65.37,53.25 0.04,0 0.08,0 0.13,0 22.85,0 39.27,-4 55.17,-7.87 26.07,-6.35 50.69,-12.35 97.75,0.45 71.93,19.58 136.65,-18.84 137.3,-19.23 2.08,-1.26 4.77,-0.59 6.03,1.48 1.26,2.07 0.59,4.77 -1.48,6.03 -2.77,1.67 -68.62,40.75 -144.15,20.19 -44.86,-12.21 -67.34,-6.74 -93.36,-0.4 -16.4,3.99 -33.35,8.13 -57.25,8.13 -0.04,0 -0.09,0 -0.13,0 -52.07,-0.03 -68.34,-39.68 -72.66,-54.88 -7.57,4.37 -22.37,14.71 -29.98,32.02l24.88 12.12c2.1,1.02 3.03,3.51 2.12,5.65l-16.43 38.91c12.17,-3.64 33.82,-7.14 55.8,3.76 0.94,0.47 1.68,1.25 2.09,2.22 11.43,26.94 23.02,40.82 34.44,41.23 13.71,0.47 29.75,-17.17 47.89,-52.5 0.03,-0.07 0.06,-0.13 0.1,-0.19 0.33,-0.58 8.37,-14.18 28.1,-17.81 24.44,-4.48 54.86,7.99 90.46,37.09 26.25,21.45 46.85,29.58 59.58,23.49 16.68,-7.98 16.68,-38.05 16.68,-38.35 -0.01,-1.07 0.38,-2.12 1.09,-2.93 1.97,-2.25 7.19,-5.82 14.29,-4.93 10.82,1.36 21.83,12.21 32.76,32.3 6.86,-6.59 20.22,-22.81 19.19,-48.45 -0.1,-2.42 1.79,-4.47 4.21,-4.56 2.43,-0.09 4.47,1.79 4.56,4.21 1.54,38.51 -25.58,58.46 -26.74,59.29 -1.04,0.75 -2.35,1 -3.6,0.7 -1.24,-0.31 -2.3,-1.14 -2.87,-2.28 -13.5,-26.62 -23.6,-31.76 -28.43,-32.46 -2.65,-0.37 -4.61,0.45 -5.73,1.16 -0.31,7.9 -2.73,35.16 -21.61,44.21 -16.25,7.79 -39.45,-0.49 -68.95,-24.6 -41.56,-33.97 -68.1,-37.95 -83.05,-35.3 -15.24,2.7 -21.66,12.49 -22.31,13.54 -19.75,38.44 -37.78,57.15 -55.08,57.15z"/>
  <path class="fil18" d="M339.7 439.26c-0.74,-0.12 -1.49,-0.26 -2.25,-0.42 4.4,-10.65 6.6,-23.9 6.58,-39.72 -0.01,-13.12 9.11,-21.23 20.36,-21.23 3.62,0 7.46,0.84 11.29,2.62 5.27,2.46 10.12,7.51 18.3,9.68 2.16,0.57 4.03,0.84 5.61,0.84 17.1,0 2.13,-30.99 -10.55,-41.3 10.48,-4.48 20.38,-12.89 21.69,-13.67l15.84 35.07c-1.41,0.78 -3.6,4.4 -3.53,6.12 0.26,6.6 -0.42,12.58 -1.71,17.94 -0.04,0.11 -0.08,0.23 -0.11,0.34 -0.05,0.2 -0.09,0.4 -0.12,0.59 -3.83,14.9 -12.26,24.79 -17.24,29.58 -10.94,-20.08 -21.95,-30.94 -32.77,-32.29 -0.77,-0.1 -1.51,-0.14 -2.23,-0.14 -5.96,0 -10.31,3.06 -12.06,5.07 -0.71,0.8 -1.09,1.85 -1.09,2.92 0,0.3 0,29.54 -15.99,38z"/>
  <path class="fil18" d="M432.44 393.38c-0.55,0 -1.13,-0.03 -1.75,-0.1 0.91,-5.03 1.35,-10.49 1.11,-16.39 -0.09,-2.37 -2.04,-4.21 -4.39,-4.21 -0.06,0 -0.11,0 -0.17,0 -0.71,0.03 -1.37,0.22 -1.94,0.54l-17.93 -32.55c0.06,-0.04 0.11,-0.07 0.15,-0.09 2.08,-1.26 2.74,-3.96 1.48,-6.03 -0.82,-1.36 -2.27,-2.12 -3.76,-2.12 -0.77,0 -1.56,0.21 -2.27,0.64 -0.1,0.06 -8.01,6.05 -10.96,7.58 -1.1,-14.56 -5.29,-45.87 -6.7,-60.37 13.79,8.73 36.87,32.17 46.6,51.64 10.06,20.14 13.42,44.47 9.61,54.94 -1.08,2.98 -3.19,6.53 -9.08,6.53z"/>
 </g>
</svg>
