<svg xmlns="http://www.w3.org/2000/svg" xmlns:xlink="http://www.w3.org/1999/xlink" viewBox="0 0 186.02 216.74"><defs><style>.cls-1{isolation:isolate;}.cls-2{fill:#ffce38;}.cls-10,.cls-11,.cls-12,.cls-13,.cls-14,.cls-15,.cls-16,.cls-17,.cls-18,.cls-19,.cls-2,.cls-20,.cls-25,.cls-3,.cls-4,.cls-6,.cls-7,.cls-9{fill-rule:evenodd;}.cls-17,.cls-3{fill:#fff;}.cls-3{opacity:0.7;mix-blend-mode:soft-light;}.cls-4{fill:#de5d5b;}.cls-5{fill:#ee7751;}.cls-6{fill:#feebd3;}.cls-7{fill:#900b65;}.cls-8{opacity:0.46;mix-blend-mode:screen;fill:url(#_ÂÁ_Ï_ÌÌ_È_ËÂÌÚ_24);}.cls-9{fill:#b14b81;}.cls-10{fill:#722063;}.cls-11{fill:#42badb;}.cls-12{fill:#fee1bd;}.cls-13{fill:#7f134c;}.cls-14,.cls-21{fill:#ad3c5b;}.cls-15{fill:#ff3459;}.cls-16{fill:#b61d59;}.cls-18{fill:#650b65;opacity:0.41;mix-blend-mode:multiply;}.cls-19,.cls-22{fill:#832563;}.cls-20{fill:#611343;}.cls-23{fill:#ff5495;}.cls-24,.cls-25{fill:#ca3851;}</style><radialGradient id="_ÂÁ_Ï_ÌÌ_È_ËÂÌÚ_24" cx="261.24" cy="128.29" r="9.26" gradientTransform="translate(-1045.47 -175.88) scale(4.28 1.59)" gradientUnits="userSpaceOnUse"><stop offset="0" stop-color="#ff5900"/><stop offset="1"/></radialGradient></defs><g class="cls-1"><g id="layer1"><polygon class="cls-2" points="32.2 212.17 176.26 213.53 186.02 0.75 22.18 0 32.2 212.17"/><polygon class="cls-3" points="86.49 0 93.02 212.89 155.06 213.34 184.27 32.56 186.02 0.75 86.49 0"/><polygon class="cls-4" points="22.18 0 0 27.91 12.69 211.63 32.2 212.17 22.18 0"/><polygon class="cls-5" points="120.1 213.1 119.61 213.1 122.65 0.75 123.14 0.75 120.1 213.1"/><polygon class="cls-6" points="31.69 10.13 33.06 45.62 117.75 45.62 118.53 11.77 31.69 10.13"/><polygon class="cls-7" points="34.2 43.1 32.66 12.82 118.19 12.82 117.52 44.06 34.2 43.1"/><ellipse class="cls-8" cx="73.07" cy="28.43" rx="39.63" ry="14.74"/><polygon class="cls-4" points="31.69 10.13 30.31 12.81 32.08 45.62 33.06 45.62 31.69 10.13"/><path class="cls-5" d="M301,287.86H254v-.21l6.85-184.27h50.29l0,.21Zm-46.52-.4h46L310.6,103.78H261.29Z" transform="translate(-131.32 -91.63)"/><polygon class="cls-4" points="177.12 11.95 168.13 196.03 169.44 196.03 179.53 11.95 177.12 11.95"/><polygon class="cls-9" points="131.34 84.7 171.35 85.44 169.72 103.45 131.34 103.02 131.34 84.7"/><polygon class="cls-10" points="171.35 85.44 169.72 85.44 168.92 103.45 170.13 103.45 171.35 85.44"/><polygon class="cls-11" points="134.37 101.79 134.37 99.31 166.65 100.05 166.65 101.79 134.37 101.79"/><polygon class="cls-12" points="60.83 166.85 112.15 166.85 113.65 70.94 57.95 70.64 60.83 166.85"/><polygon class="cls-4" points="57.95 70.64 57.05 70.94 60.3 166.85 60.83 166.85 57.95 70.64"/><polygon class="cls-13" points="128.04 171.44 166.23 172.38 169.44 120.17 128.98 121.4 128.04 171.44"/><polygon class="cls-14" points="128.96 122.48 159.47 122.01 157.67 172.17 128.04 171.44 128.96 122.48"/><polygon class="cls-9" points="131.34 82.97 132.85 25.01 173.64 25.01 171.35 82.97 131.34 82.97"/><polygon class="cls-10" points="173.64 25.01 171.35 82.97 170.13 82.97 172.17 25.01 173.64 25.01"/><polygon class="cls-15" points="135.67 125.72 135.67 111.24 165.45 110.66 164.84 125.72 135.67 125.72"/><polygon class="cls-16" points="135.67 111.24 133.75 112.24 134.49 125.72 135.67 125.72 135.67 111.24"/><polygon class="cls-17" points="147.18 113.68 152.65 113.68 151.24 119.38 152.13 119.38 149.78 122.01 147.51 119.28 148.54 119.26 147.18 113.68"/><polygon class="cls-18" points="173.64 25.01 171.89 27.12 132.78 27.88 132.85 25.01 173.64 25.01"/><polygon class="cls-18" points="171.35 85.44 169.63 87.26 131.34 86.35 131.34 84.7 171.35 85.44"/><polygon class="cls-12" points="136.17 37.24 135.2 71.08 169.3 71.08 169.98 37.24 136.17 37.24"/><polygon class="cls-4" points="136.17 37.24 134.88 38.03 134.51 71.08 135.2 71.08 136.17 37.24"/><polygon class="cls-5" points="113.2 123.54 58.76 120.97 58.76 120.49 113.2 123.05 113.2 123.54"/><polygon class="cls-19" points="174.29 213.59 173.91 216.74 146.25 216.74 143.98 214.25 61.78 213.59 59.74 215.99 13.25 215.99 12.69 211.74 174.29 213.59"/><polygon class="cls-20" points="36.2 211.9 36.2 215.7 13.45 215.7 12.77 211.35 36.2 211.9"/><polygon class="cls-5" points="152.6 71.08 152.11 71.08 152.67 37.23 153.16 37.24 152.6 71.08"/><polygon class="cls-21" points="11.22 209.33 11.22 204.65 112.77 203.83 112.77 210.42 11.22 209.33"/><polygon class="cls-22" points="40.53 204.65 119.61 203.83 119.31 210.39 40.53 209.33 40.53 204.65"/><polygon class="cls-21" points="126.06 209.96 126.06 203.83 169.44 203.83 168.95 210.39 126.06 209.96"/><polygon class="cls-22" points="126.06 203.83 167.49 203.83 166.73 210.37 126.06 209.96 126.06 203.83"/><path class="cls-23" d="M197.42,168.5c0,.24,0,.58,0,1s0,.79,0,1c0,.49,0,1.12,0,1.9s.05,1.4.05,1.9v.41h-.82v-.41c0-.49,0-1.12,0-1.9s-.05-1.4-.05-1.9c0-.22,0-.5,0-.83s0-.71,0-.81l-.06.05-.36.21-.43-.71.35-.21a6.66,6.66,0,0,1,1-.38l.07.22h.22Z" transform="translate(-131.32 -91.63)"/><path class="cls-23" d="M276.18,144c0,.2,0,.49,0,.87s0,.68,0,.88c0,.42,0,1,0,1.61s0,1.2,0,1.62v.35h-.7v-.35c0-.42,0-.95,0-1.61s0-1.2,0-1.62c0-.19,0-.43,0-.71s0-.61,0-.69l-.05,0-.31.19-.36-.61.3-.18a6.31,6.31,0,0,1,.87-.33l.06.19h.19Z" transform="translate(-131.32 -91.63)"/><path class="cls-23" d="M198.18,223h.28l.26,0h.73v.83h-1l-.3,0a3.58,3.58,0,0,1-.63-.08h-.15v0l-.05,0,.05-.37c0-.1,0-.22,0-.38a3.28,3.28,0,0,1,0-.39,6.07,6.07,0,0,1,.31-1.79c.2-.51.4-1,.6-1.53a4,4,0,0,0,.31-1.33.8.8,0,0,0-.4-.3.72.72,0,0,0-.09.4c0,.06,0,.29,0,.69a5.18,5.18,0,0,1,0,.7l-.84-.06.05-.42a2.46,2.46,0,0,0,0-.46,3.68,3.68,0,0,1,0-.45,1.56,1.56,0,0,1,.2-.8.75.75,0,0,1,.68-.41,1.45,1.45,0,0,1,.76.29,1,1,0,0,1,.52.8,4.5,4.5,0,0,1-.32,1.47c-.2.51-.4,1-.59,1.53a5,5,0,0,0-.32,1.67C198.15,222.66,198.16,222.8,198.18,223Z" transform="translate(-131.32 -91.63)"/><path class="cls-23" d="M291.3,149.09h1.08v.7h-.85l-.26,0a3.22,3.22,0,0,1-.53-.07h-.13v0h0l0-.32c0-.08,0-.19,0-.33a2.06,2.06,0,0,1,0-.33,5.16,5.16,0,0,1,.26-1.52l.51-1.3a3.38,3.38,0,0,0,.27-1.14.74.74,0,0,0-.35-.25.62.62,0,0,0-.07.34c0,.05,0,.25,0,.59a5.44,5.44,0,0,1,0,.59l-.72-.05,0-.35a2,2,0,0,0,0-.4c0-.19,0-.31,0-.38a1.38,1.38,0,0,1,.17-.69.67.67,0,0,1,.59-.35,1.21,1.21,0,0,1,.64.26.81.81,0,0,1,.44.68,3.76,3.76,0,0,1-.27,1.25l-.51,1.3a4.46,4.46,0,0,0-.27,1.42A3.15,3.15,0,0,0,291.3,149.09Z" transform="translate(-131.32 -91.63)"/><polygon class="cls-5" points="24.49 58.6 24.49 58.11 122.24 56.92 122.25 57.4 24.49 58.6"/><path class="cls-24" d="M146.39,300.36v-.19L133.72,122.35,151.59,101l9,199.07ZM134.14,122.48,146.77,300l13.36-.29L151.23,102Z" transform="translate(-131.32 -91.63)"/><polygon class="cls-25" points="15.26 208.53 2.61 30.78 20.09 9.87 20.17 11.75 3.8 31.23 15.81 208.51 15.26 208.53"/></g></g></svg>