<?xml version="1.0" encoding="UTF-8"?>
<!DOCTYPE svg PUBLIC "-//W3C//DTD SVG 1.1//EN" "http://www.w3.org/Graphics/SVG/1.1/DTD/svg11.dtd">
<!-- Creator: CorelDRAW -->
<svg xmlns="http://www.w3.org/2000/svg" xml:space="preserve" width="28.1544mm" height="22.2265mm" version="1.1" style="shape-rendering:geometricPrecision; text-rendering:geometricPrecision; image-rendering:optimizeQuality; fill-rule:evenodd; clip-rule:evenodd"
viewBox="0 0 1525.36 1204.2"
 xmlns:xlink="http://www.w3.org/1999/xlink">
 <defs>
  <style type="text/css">
   <![CDATA[
    .str1 {stroke:#332D2B;stroke-width:10.84;stroke-miterlimit:22.9256;stroke-opacity:0.149020}
    .str0 {stroke:#332D2B;stroke-width:10.84;stroke-miterlimit:22.9256;stroke-opacity:0.250980}
    .fil2 {fill:none}
    .fil7 {fill:#EFEFEF}
    .fil9 {fill:#DDDEDE}
    .fil8 {fill:#CACACB}
    .fil3 {fill:#FFF100}
    .fil0 {fill:#7B4630}
    .fil4 {fill:#B9662F}
    .fil5 {fill:white;fill-rule:nonzero}
    .fil6 {fill:#332D2B;fill-opacity:0.149020}
    .fil1 {fill:#332D2B;fill-opacity:0.250980}
   ]]>
  </style>
   <clipPath id="id0">
    <path d="M862.52 22.57c396.17,72.79 690.29,329.43 656.92,573.22 -33.37,243.79 -381.59,382.41 -777.77,309.61 -396.17,-72.79 -690.28,-329.43 -656.91,-573.22 33.37,-243.79 381.59,-382.41 777.76,-309.61zm45.52 111.24c258.84,65.05 446.24,206.98 418.59,317.03 -27.66,110.04 -259.9,146.52 -518.73,81.47 -258.83,-65.04 -446.24,-206.98 -418.59,-317.02 27.66,-110.04 259.9,-146.52 518.73,-81.47z"/>
   </clipPath>
   <clipPath id="id1">
    <path d="M1522.66 607.55c-30.13,333.77 -358.97,596.65 -760.2,596.65 -421.09,0 -762.46,-289.55 -762.46,-646.72 0,-140.66 52.97,-270.81 142.88,-376.94l35.77 119.24 31.83 -2.89 10.13 54.25 67.63 51.18 75.23 83.92 79.58 47.75 85.36 23.15 86.09 60.04 19.53 68 128.77 -66.55 41.96 56.42 54.25 29.66 97.66 26.04 41.98 1.8 141.79 30.02 62.58 -28.57 96.22 -6.52 82.47 -41.24 12.3 -23.15 113.57 -32.55 15.1 -23z"/>
   </clipPath>
   <clipPath id="id2">
    <path d="M1506.4 584.52l-21.99 35.18 -101.28 31.82 -17.36 28.94 -78.13 37.62 -89.7 8.68 -60.77 20.25 -138.89 -31.83 -43.41 -2.89c-106.33,-32.22 -124.44,-19.39 -182.29,-112.85l-130.21 57.87 -8.68 -43.41 -92.6 -63.65c0,0 -60.76,-26.04 -83.91,-31.83 -23.15,-5.79 -78.13,-43.41 -78.13,-43.41l-72.34 -75.23 -72.34 -60.76 -14.47 -57.87 -34.72 2.89 -23.15 -96.94c84.09,-62.47 158.53,-122.04 370.22,-158.26 161.67,-14.01 356.25,-3.15 508.19,55.52 78.89,30.46 140.46,55.44 211.01,102.57 138.33,92.39 259.87,214.98 254.93,397.58zm-368.25 -481.1c-147.58,-61.83 -258.61,-86.77 -323.18,-93.76 -156.34,-15.44 -185.36,-9.95 -276.59,-0.26 -185.33,16.2 -281.63,77.47 -399.52,173.19l36.9 122.98 31.83 -2.89 10.13 54.25 67.63 51.18 75.23 83.91 79.58 47.75 85.36 26.04 86.08 57.15 19.53 68 128.77 -66.55 41.96 56.43 54.25 29.66 97.66 26.04 41.97 1.8 141.79 30.02 62.58 -28.57 96.22 -6.52 82.47 -41.24 12.3 -23.15 113.57 -32.56 18.08 -20.25c22.2,-184.61 -100.41,-340.87 -247.29,-441.24 -46.02,-31.44 -86.11,-49.97 -137.31,-71.43z"/>
   </clipPath>
   <clipPath id="id3">
    <path d="M914.72 126.65c270.91,68.08 467.06,216.64 438.11,331.82 -28.95,115.17 -272.02,153.35 -542.93,85.27 -270.9,-68.08 -467.05,-216.64 -438.11,-331.82 28.94,-115.17 272.02,-153.35 542.93,-85.27z"/>
   </clipPath>
 </defs>
 <g id="Layer_x0020_1">
  <metadata id="CorelCorpID_0Corel-Layer"/>
  <path class="fil0" d="M862.52 22.57c396.17,72.79 690.29,329.43 656.92,573.22 -33.37,243.79 -381.59,382.41 -777.77,309.61 -396.17,-72.79 -690.28,-329.43 -656.91,-573.22 33.37,-243.79 381.59,-382.41 777.76,-309.61zm45.52 111.24c258.84,65.05 446.24,206.98 418.59,317.03 -27.66,110.04 -259.9,146.52 -518.73,81.47 -258.83,-65.04 -446.24,-206.98 -418.59,-317.02 27.66,-110.04 259.9,-146.52 518.73,-81.47z"/>
  <g style="clip-path:url(#id0)">
   <g id="_105553371485280">
    <path id="1" class="fil1 str0" d="M1226.72 319.58c29.71,49.41 185.01,324.59 -71.03,460.43 -256.05,135.84 -234.1,115.69 -234.1,115.69l816.86 155.12 451.78 -423.84 -353.95 -420.94 -1122.19 -246.94c137.19,79.69 430.27,223.52 512.64,360.48z"/>
   </g>
  </g>
  <path class="fil2" d="M862.52 22.57c396.17,72.79 690.29,329.43 656.92,573.22 -33.37,243.79 -381.59,382.41 -777.77,309.61 -396.17,-72.79 -690.28,-329.43 -656.91,-573.22 33.37,-243.79 381.59,-382.41 777.76,-309.61zm45.52 111.24c258.84,65.05 446.24,206.98 418.59,317.03 -27.66,110.04 -259.9,146.52 -518.73,81.47 -258.83,-65.04 -446.24,-206.98 -418.59,-317.02 27.66,-110.04 259.9,-146.52 518.73,-81.47z"/>
  <path class="fil3" d="M1522.66 607.55c-30.13,333.77 -358.97,596.65 -760.2,596.65 -421.09,0 -762.46,-289.55 -762.46,-646.72 0,-140.66 52.97,-270.81 142.88,-376.94l35.77 119.24 31.83 -2.89 10.13 54.25 67.63 51.18 75.23 83.92 79.58 47.75 85.36 23.15 86.09 60.04 19.53 68 128.77 -66.55 41.96 56.42 54.25 29.66 97.66 26.04 41.98 1.8 141.79 30.02 62.58 -28.57 96.22 -6.52 82.47 -41.24 12.3 -23.15 113.57 -32.55 15.1 -23z"/>
  <g style="clip-path:url(#id1)">
   <g id="_105553371485472">
    <g>
     <path id="1" class="fil4" d="M877.91 870.05c2.44,0.56 5.78,0.83 8.09,1.1 3.43,0.4 6.78,1.42 9.88,2.95 13.78,6.84 18.75,23.57 20.91,37.63 2.4,15.62 1.87,32.05 -5.27,46.45 -4.13,8.33 -10.53,14.81 -19.16,18.38 -8.64,3.58 -17.67,3.54 -26.08,-0.63 -4.02,-1.99 -7.75,-4.56 -10.77,-7.82 20.24,27.69 27.02,58.51 11.18,90.46 -13.46,27.15 -35.84,43.55 -65.46,49.54 -33.2,6.71 -65.97,-1.53 -95.8,-16.32 -15.78,-7.82 -30.57,-17.6 -44.34,-28.55 -10.75,-8.55 -23.89,-19.96 -30.88,-31.94 -6.19,-10.58 -5.74,-25.5 -4.35,-37.27 1.71,-14.46 5.47,-28.6 11.95,-41.67 3.27,-6.6 7.94,-12.61 14.73,-15.84 7.49,-3.57 15.47,-3.8 22.97,-0.08 4.39,2.17 7.74,5.38 10.24,9.22 -0.04,-0.09 -0.07,-0.18 -0.11,-0.27 -10.14,-24.87 -11.78,-50.64 0.32,-75.05 5.72,-11.55 13.97,-21.25 24.19,-29.09 10.55,-8.09 22.52,-13.4 35.44,-16.45 30.32,-7.16 59.56,-2.53 87.29,11.22 15.59,7.73 30.75,20.71 43.36,32.56 0.44,0.42 1.09,1.03 1.67,1.47zm-25.7 93.72c-0.03,-0.04 -0.05,-0.09 -0.08,-0.14 -4.37,-7.18 -8.36,-18.85 -11.33,-26.77 -4.64,-12.39 -12.03,-25.7 -24.36,-31.81 -2.79,-1.39 -6.45,-2.71 -9.61,-2.01 -1.9,0.42 -2.85,1.27 -3.71,3.01 -3.16,6.38 8.33,17.46 12.17,21 11.52,10.61 26.98,24.27 36.92,36.72zm-162.29 -8.96c0.12,0.38 0.22,0.76 0.33,1.15 2.78,9.11 4.03,23.84 5.19,33.33 0.87,7.12 4.98,13.84 9.41,19.31 5.74,7.09 12.67,12.75 20.84,16.81 4.79,2.38 10.84,4.62 16.29,4.21 1.33,-0.1 3.49,-0.29 4.17,-1.67 0.77,-1.56 0.22,-3.15 -0.47,-4.65 -2.35,-5.1 -8.53,-11.3 -12.54,-15.13 -10.59,-10.14 -21.69,-21.28 -30.55,-32.98 -4.84,-6.4 -9.08,-13.21 -12.68,-20.37z"/>
     <path class="fil5" d="M815.98 840.29c11.39,5.65 24.88,15.87 40.63,30.67 1.87,1.78 3.46,2.99 4.76,3.64 1.13,0.56 4.98,1.2 11.46,1.94 2.06,0.25 4.16,0.86 6.14,1.85 7.42,3.68 12.35,13.39 14.75,29.2 2.45,15.83 1.03,29.1 -4.22,39.69 -3.07,6.18 -7.55,10.52 -13.34,12.94 -5.85,2.39 -11.44,2.3 -16.71,-0.31 -4.42,-2.19 -7.6,-4.9 -9.5,-8.03 -1.9,-3.14 -5.35,-11.41 -10.4,-24.86 -7.11,-18.98 -17.08,-31.62 -29.94,-38 -6.18,-3.06 -11.89,-4.06 -17.12,-2.91 -5.17,1.18 -8.98,4.16 -11.39,9.03 -4.78,9.63 0.12,21.1 14.65,34.38 19.54,18.09 31.78,30.3 36.64,36.59 21.42,27.7 25.52,54.87 12.29,81.55 -11.69,23.57 -30.88,38.07 -57.55,43.47 -27.22,5.49 -56.74,0.39 -88.52,-15.37 -14.16,-7.02 -28.28,-16.15 -42.31,-27.27 -14.01,-11.18 -23.43,-20.79 -28.16,-28.78 -3.53,-6.13 -4.52,-16.22 -2.87,-30.23 1.65,-14.01 5.26,-26.69 10.85,-37.96 2.7,-5.44 5.86,-8.96 9.44,-10.64 4.54,-2.19 8.87,-2.24 13.06,-0.16 4.25,2.11 7.21,6.26 8.9,12.53 1.12,3.59 2.76,14.08 4.83,31.55 1.07,8.22 4.98,16.58 11.85,25.07 6.87,8.49 15.09,15.11 24.61,19.83 8.21,4.07 15.6,5.83 22.19,5.35 6.62,-0.53 11.1,-3.17 13.46,-7.93 2.19,-4.42 2.09,-9.2 -0.33,-14.42 -2.37,-5.2 -7.36,-11.34 -15,-18.59 -13.34,-12.82 -23.13,-23.39 -29.35,-31.63 -6.28,-8.26 -11.43,-17.38 -15.51,-27.24 -9.78,-24.13 -9.77,-46.07 -0.02,-65.73 4.83,-9.74 11.82,-18.14 20.93,-25.13 9.11,-6.99 19.48,-11.8 31.15,-14.41 26.31,-6.37 52.85,-2.95 79.65,10.34z"/>
     <path class="fil4" d="M379.91 802.65c-7.62,4.52 -16.32,11.94 -22.97,17.43l-42.08 34.76c-5.14,4.16 -11.82,9.56 -17.81,12.33 -5.59,2.59 -11.74,3.1 -17.36,0.31 -5.11,-2.54 -8.4,-7.02 -9.93,-12.46 -1.48,-5.31 -1.42,-15.57 -1.52,-21.14 -0.17,-9.45 -0.15,-18.93 0.25,-28.37l2.44 -57.15c-5.21,9.33 -10.25,18.77 -14.99,28.34 -2.83,5.72 -7.85,15.57 -9.06,21.48 -0.08,0.43 -0.2,1.27 -0.3,1.2 1.28,2.73 4.51,6.89 6.32,9.33 5.12,6.92 5.32,14.97 1.56,22.57 -12.83,25.88 -51.76,8.39 -69.84,-0.58 -17.78,-8.81 -47.5,-26.89 -35.52,-51.03 2.38,-4.81 5.82,-8.9 10.92,-10.51 4.69,-1.69 12.13,-1.52 17.32,-1.46 1.34,0.04 3.12,-0.05 4.21,-0.94 2.87,-2.36 7.48,-9.69 9.5,-12.86 8.55,-13.37 16.42,-27.63 24.06,-41.53 9.21,-16.77 18.31,-33.67 26.8,-50.8 4.04,-8.15 12.55,-25.67 13.02,-34.81 0.03,-0.56 0.05,-1.73 -0.09,-2.19 -0.85,-1.9 -2.61,-4.24 -3.87,-5.88 -6.91,-8.96 -10.91,-19.87 -5.54,-30.7 3.12,-6.28 8.28,-10.65 14.77,-13.21 6.62,-2.62 13.63,-2.87 20.36,-1.51 7.64,1.37 15.4,3.79 22.74,6.28 7.65,2.61 15.37,5.55 22.61,9.15 9.98,4.95 23.65,12.22 31.02,20.44 3.2,3.41 5.66,7.44 6.87,11.98 1.35,5.07 1.5,12.02 1.7,17.27l3.04 80.57c0.14,3.64 0.17,10.87 0.5,13.36 0.04,0.04 0.1,0.07 0.12,0.09 0.06,-0.01 0.1,-0.02 0.07,-0.01 2.18,-0.7 5.98,-3.47 7.82,-4.83l45.85 -33.93c3.76,-2.86 7.5,-5.76 11.25,-8.64 8.81,-6.75 20.33,-14.27 31.52,-15.96 14.71,-2.23 33.18,5.61 46.08,12.01 19.98,9.91 54.23,30.36 40.68,57.68 -2.14,4.31 -5.07,8.16 -9.18,10.76 -4.12,2.61 -9.71,3.85 -14.27,4.64 -5.13,1 -8.87,3.97 -11.92,8.15 -11.75,16.14 -21.68,34.51 -30.54,52.37 -12.03,24.26 -23.4,49.35 -32.3,74.93 -0.56,1.59 -1.9,5.69 -1.83,7.04 0.59,2.63 3.98,8.39 5.35,10.75 4.2,7.25 4.8,15.2 1.05,22.76 -6.6,13.32 -20.1,16.2 -33.63,14.06 -7.05,-0.98 -13.96,-2.81 -20.61,-5.34 -9.53,-3.64 -19.13,-8.38 -28.26,-12.91 -13.84,-6.86 -30.68,-15.79 -42.08,-26.3 -9.84,-9.07 -16.24,-21.24 -9.8,-34.25 2.12,-4.29 5.33,-7.86 9.66,-9.99 4.67,-2.29 11.98,-3.86 17.07,-5.03 2.06,-0.47 5.65,-5.08 6.79,-6.67 6.56,-9.15 12.55,-21.6 17.55,-31.69 1.01,-2.04 2.95,-5.85 4.46,-9.35z"/>
     <path class="fil5" d="M372.09 823.16l-42.02 34.7c-7.18,5.81 -12.39,9.5 -15.77,11.06 -3.39,1.57 -6.4,1.68 -8.95,0.42 -2.43,-1.2 -4.05,-3.34 -4.88,-6.36 -0.54,-1.9 -0.96,-8.16 -1.16,-18.69 -0.17,-10.58 -0.09,-19.85 0.25,-27.78l2.56 -60.03c0.4,-8.33 -1,-13.33 -4.34,-14.98 -3.56,-1.77 -6.95,0.22 -10.2,5.94 -7.18,12.64 -13.56,24.49 -19.02,35.52 -5.69,11.48 -9,19.57 -9.95,24.17 -0.47,2.79 -0.35,5.11 0.42,6.83 0.77,1.72 3.21,5.47 7.37,11.13 2.75,3.69 2.96,7.81 0.67,12.45 -6.14,12.39 -25.06,10.76 -56.8,-4.97 -26.75,-13.27 -37.1,-25.94 -31.13,-37.98 1.54,-3.11 3.31,-4.98 5.4,-5.64 2.06,-0.74 6.63,-1.01 13.77,-0.92 4.44,0.15 7.99,-0.9 10.72,-3.14 2.74,-2.24 6.58,-7.3 11.53,-15.14 5.42,-8.38 13.57,-22.38 24.39,-42.09 10.86,-19.78 19.87,-36.8 26.99,-51.17 8.92,-17.99 13.62,-30.88 14.02,-38.64 0.13,-2.68 -0.16,-4.95 -0.93,-6.66 -0.77,-1.72 -2.41,-4.37 -5.05,-7.86 -5.99,-7.69 -7.47,-14.49 -4.53,-20.43 1.93,-3.9 5.15,-6.67 9.63,-8.47 4.54,-1.77 9.56,-2.09 15.07,-0.98 5.57,1 12.69,2.98 21.31,5.92 8.62,2.94 15.77,5.85 21.43,8.65 14.14,7.01 23.57,13.16 28.24,18.37 2.35,2.51 3.85,5.16 4.57,7.83 0.72,2.68 1.15,7.76 1.38,15.13l3.03 80.57c0.29,8.8 0.76,14.4 1.41,16.62 0.66,2.23 2.3,4.03 4.85,5.29 2.21,1.09 4.55,1.2 7.11,0.43 2.51,-0.81 6.09,-2.9 10.66,-6.28l45.96 -34c5.78,-4.4 9.55,-7.32 11.27,-8.65 10.9,-8.34 19.92,-13.02 27.05,-14.06 9.09,-1.41 22.48,2.27 40.3,11.1 31.28,15.51 43.35,30.38 36.29,44.63 -1.6,3.22 -3.48,5.46 -5.66,6.85 -2.14,1.33 -5.78,2.42 -10.94,3.31 -7.03,1.38 -13,5.32 -17.92,11.98 -10.09,13.95 -20.53,31.88 -31.39,53.77 -13.97,28.17 -24.92,53.53 -32.78,76.06 -1.9,5.54 -2.62,9.55 -2.19,12.09 0.49,2.56 2.65,7.16 6.49,13.78 2.69,4.65 2.94,9.13 0.75,13.55 -3.84,7.75 -11.68,10.62 -23.57,8.74 -6.13,-0.85 -12.32,-2.44 -18.48,-4.79 -6.11,-2.32 -15.24,-6.5 -27.4,-12.53 -18.66,-9.25 -31.91,-17.52 -39.8,-24.74 -8.64,-8.02 -11.24,-15.58 -7.67,-22.76 1.32,-2.65 3.09,-4.52 5.23,-5.58 2.14,-1.05 7.14,-2.45 14.95,-4.28 4.04,-0.89 8.18,-4.4 12.53,-10.49 4.36,-6.08 10.47,-17.14 18.35,-33.03 4.38,-8.83 6.84,-14.79 7.37,-17.98 0.53,-3.2 -0.55,-5.42 -3.21,-6.74 -3.12,-1.54 -7.09,-0.9 -12.08,1.91 -4.99,2.81 -13.5,9.16 -25.51,19.05z"/>
     <path class="fil4" d="M596.57 863.31c1.83,-0.96 4.23,-2.71 5.44,-3.61l41.01 -30.33c3.36,-2.56 6.7,-5.15 10.06,-7.73 8.04,-6.16 18.46,-12.94 28.66,-14.48 13.42,-2.03 30.06,5.01 41.83,10.84 18.48,9.17 49.31,27.84 36.85,52.96 -1.99,4.03 -4.74,7.61 -8.57,10.03 -3.83,2.41 -8.91,3.55 -13.12,4.29 -4.33,0.85 -7.47,3.36 -10.04,6.89 -10.47,14.39 -19.33,30.77 -27.22,46.7 -10.74,21.66 -20.9,44.06 -28.85,66.92 -0.48,1.39 -1.59,4.74 -1.6,5.73 0.57,2.36 3.44,7.21 4.68,9.35 3.93,6.78 4.48,14.24 0.97,21.31 -6.12,12.33 -18.6,15.13 -31.15,13.14 -6.38,-0.89 -12.63,-2.54 -18.65,-4.83 -8.55,-3.26 -17.17,-7.52 -25.37,-11.58 -12.47,-6.18 -27.6,-14.22 -37.88,-23.7 -9.15,-8.44 -14.96,-19.77 -8.98,-31.83 2,-4.04 5.03,-7.4 9.11,-9.4 4.27,-2.1 10.83,-3.51 15.47,-4.58 1.58,-0.44 4.59,-4.32 5.49,-5.57 5.82,-8.14 11.17,-19.24 15.61,-28.22 0.6,-1.2 1.58,-3.15 2.57,-5.26 -6.02,4.01 -12.49,9.51 -17.58,13.72l-37.65 31.1c-4.67,3.78 -10.69,8.64 -16.15,11.17 -5.28,2.44 -11.1,2.9 -16.41,0.27 -4.83,-2.39 -7.97,-6.64 -9.41,-11.79 -1.36,-4.87 -1.31,-14.06 -1.4,-19.16 -0.16,-8.47 -0.14,-16.98 0.23,-25.45l2 -46.83c-3.91,7.11 -7.7,14.29 -11.3,21.55 -2.49,5.02 -6.95,13.71 -8.03,19.01 -0.05,0.34 -0.13,0.82 -0.34,0.4 1.18,2.44 3.93,5.99 5.56,8.18 4.81,6.5 5.02,14.11 1.49,21.24 -11.84,23.88 -47.04,8.27 -63.84,-0.06 -16.52,-8.19 -43.3,-24.71 -32.24,-47.02 2.26,-4.56 5.53,-8.39 10.35,-9.9 4.35,-1.56 11.03,-1.42 15.85,-1.36 0.89,0.03 2.35,-0.01 3.09,-0.61 2.44,-2 6.56,-8.57 8.28,-11.26 7.64,-11.95 14.67,-24.68 21.49,-37.1 8.23,-14.99 16.36,-30.09 23.96,-45.41 3.53,-7.12 11.13,-22.76 11.54,-30.75 0.02,-0.43 0.04,-1.26 0.01,-1.49 -0.73,-1.62 -2.27,-3.67 -3.34,-5.07 -6.43,-8.33 -10.05,-18.48 -5.07,-28.53 2.9,-5.84 7.72,-9.93 13.76,-12.31 6.11,-2.41 12.57,-2.65 18.77,-1.4 6.88,1.24 13.87,3.41 20.48,5.66 6.89,2.35 13.83,5 20.35,8.23 9.07,4.5 21.36,11.05 28.04,18.5 2.98,3.17 5.26,6.92 6.39,11.14 1.23,4.62 1.37,10.89 1.55,15.68l2.71 72.08c0.1,2.68 0.13,7.23 0.55,10.54z"/>
     <path class="fil5" d="M579.21 932.4l-34.39 28.4c-5.87,4.76 -10.14,7.77 -12.91,9.05 -2.77,1.28 -5.24,1.38 -7.32,0.35 -1.99,-0.99 -3.32,-2.74 -3.99,-5.21 -0.44,-1.55 -0.79,-6.67 -0.95,-15.3 -0.14,-8.66 -0.08,-16.24 0.2,-22.74l2.1 -49.13c0.33,-6.82 -0.82,-10.91 -3.55,-12.26 -2.91,-1.45 -5.68,0.18 -8.35,4.86 -5.88,10.35 -11.1,20.05 -15.57,29.08 -4.66,9.39 -7.36,16.02 -8.14,19.79 -0.38,2.29 -0.29,4.18 0.34,5.59 0.63,1.41 2.63,4.48 6.04,9.11 2.25,3.02 2.43,6.39 0.55,10.19 -5.03,10.14 -20.52,8.81 -46.49,-4.07 -21.9,-10.86 -30.37,-21.23 -25.48,-31.09 1.26,-2.55 2.71,-4.07 4.42,-4.61 1.68,-0.61 5.43,-0.83 11.27,-0.75 3.63,0.12 6.54,-0.74 8.77,-2.58 2.24,-1.83 5.39,-5.98 9.44,-12.39 4.44,-6.85 11.1,-18.32 19.96,-34.45 8.89,-16.18 16.26,-30.12 22.09,-41.88 7.3,-14.72 11.14,-25.27 11.47,-31.63 0.11,-2.19 -0.12,-4.05 -0.76,-5.45 -0.63,-1.41 -1.97,-3.58 -4.13,-6.44 -4.9,-6.3 -6.12,-11.85 -3.71,-16.72 1.58,-3.19 4.21,-5.46 7.88,-6.93 3.72,-1.45 7.83,-1.71 12.34,-0.8 4.56,0.82 10.39,2.44 17.45,4.84 7.05,2.4 12.91,4.78 17.54,7.08 11.57,5.74 19.29,10.77 23.11,15.03 1.93,2.05 3.16,4.22 3.74,6.41 0.59,2.19 0.94,6.36 1.13,12.39l2.48 65.95c0.24,7.21 0.62,11.78 1.16,13.61 0.54,1.82 1.88,3.29 3.97,4.33 1.81,0.89 3.72,0.98 5.82,0.35 2.05,-0.66 4.98,-2.38 8.72,-5.14l37.62 -27.83c4.72,-3.6 7.81,-5.99 9.22,-7.08 8.92,-6.83 16.3,-10.66 22.14,-11.51 7.44,-1.16 18.4,1.86 32.99,9.09 25.6,12.69 35.49,24.86 29.7,36.53 -1.31,2.64 -2.85,4.47 -4.63,5.61 -1.75,1.09 -4.73,1.98 -8.96,2.71 -5.75,1.13 -10.64,4.36 -14.67,9.8 -8.26,11.42 -16.81,26.1 -25.69,44.01 -11.43,23.06 -20.39,43.81 -26.83,62.26 -1.55,4.53 -2.15,7.82 -1.79,9.9 0.4,2.1 2.17,5.86 5.31,11.28 2.21,3.81 2.41,7.48 0.61,11.09 -3.14,6.34 -9.56,8.7 -19.29,7.16 -5.02,-0.7 -10.08,-2 -15.13,-3.92 -5,-1.9 -12.48,-5.32 -22.43,-10.26 -15.27,-7.57 -26.11,-14.34 -32.58,-20.25 -7.07,-6.56 -9.19,-12.75 -6.28,-18.63 1.08,-2.18 2.53,-3.71 4.29,-4.57 1.76,-0.86 5.84,-2 12.24,-3.51 3.3,-0.73 6.69,-3.61 10.25,-8.59 3.56,-4.98 8.58,-14.03 15.02,-27.04 3.58,-7.22 5.6,-12.11 6.03,-14.71 0.43,-2.62 -0.46,-4.44 -2.63,-5.52 -2.55,-1.26 -5.8,-0.74 -9.88,1.55 -4.08,2.3 -11.04,7.5 -20.88,15.6z"/>
    </g>
    <path class="fil6 str1" d="M75.24 207.64c-382.48,418.82 -244.63,758.17 56.01,996.78 223.2,177.14 869.8,-109.28 1046.19,-453.06 72.66,-141.61 234.15,-253.39 234.15,-253.39l231.84 109.2 186.52 554.93 -747.14 593.21 -1058.75 -9.75 -508.37 -591.08 207.19 -934.99 352.36 -11.85z"/>
   </g>
  </g>
  <path class="fil2" d="M1522.66 607.55c-30.13,333.77 -358.97,596.65 -760.2,596.65 -421.09,0 -762.46,-289.55 -762.46,-646.72 0,-140.66 52.97,-270.81 142.88,-376.94l35.77 119.24 31.83 -2.89 10.13 54.25 67.63 51.18 75.23 83.92 79.58 47.75 85.36 23.15 86.09 60.04 19.53 68 128.77 -66.55 41.96 56.42 54.25 29.66 97.66 26.04 41.98 1.8 141.79 30.02 62.58 -28.57 96.22 -6.52 82.47 -41.24 12.3 -23.15 113.57 -32.55 15.1 -23z"/>
  <path class="fil7" d="M1506.4 584.52l-21.99 35.18 -101.28 31.82 -17.36 28.94 -78.13 37.62 -89.7 8.68 -60.77 20.25 -138.89 -31.83 -43.41 -2.89c-106.33,-32.22 -124.44,-19.39 -182.29,-112.85l-130.21 57.87 -8.68 -43.41 -92.6 -63.65c0,0 -60.76,-26.04 -83.91,-31.83 -23.15,-5.79 -78.13,-43.41 -78.13,-43.41l-72.34 -75.23 -72.34 -60.76 -14.47 -57.87 -34.72 2.89 -23.15 -96.94c84.09,-62.47 158.53,-122.04 370.22,-158.26 161.67,-14.01 356.25,-3.15 508.19,55.52 78.89,30.46 140.46,55.44 211.01,102.57 138.33,92.39 259.87,214.98 254.93,397.58zm-368.25 -481.1c-147.58,-61.83 -258.61,-86.77 -323.18,-93.76 -156.34,-15.44 -185.36,-9.95 -276.59,-0.26 -185.33,16.2 -281.63,77.47 -399.52,173.19l36.9 122.98 31.83 -2.89 10.13 54.25 67.63 51.18 75.23 83.91 79.58 47.75 85.36 26.04 86.08 57.15 19.53 68 128.77 -66.55 41.96 56.43 54.25 29.66 97.66 26.04 41.97 1.8 141.79 30.02 62.58 -28.57 96.22 -6.52 82.47 -41.24 12.3 -23.15 113.57 -32.56 18.08 -20.25c22.2,-184.61 -100.41,-340.87 -247.29,-441.24 -46.02,-31.44 -86.11,-49.97 -137.31,-71.43z"/>
  <g style="clip-path:url(#id2)">
   <g id="_105553371485152">
    <path id="1" class="fil8" d="M758.12 662.19l23.15 -89.7c0,0 30.38,59.31 41.96,72.34 11.57,13.02 20.26,15.91 20.26,15.91l54.98 92.6 -140.34 -91.15z"/>
    <polygon class="fil8" points="643.82,610.11 601.14,623.13 622.12,709.94 655.4,633.25 "/>
    <polygon class="fil8" points="1137.9,736.7 1149.48,785.89 1203.01,755.51 1194.33,701.98 "/>
    <polygon class="fil8" points="1378.07,631.09 1401.22,709.21 1341.9,665.81 "/>
    <polygon class="fil9" points="125.88,184.02 171.45,186.92 237.28,142.07 172.17,140.62 128.77,181.86 "/>
    <polygon class="fil9" points="196.77,316.41 227.87,269.39 240.17,330.15 202.56,372.11 "/>
    <polygon class="fil9" points="390.64,455.3 342.9,513.17 430.43,547.17 482.51,508.83 "/>
   </g>
  </g>
  <path class="fil2" d="M1506.4 584.52l-21.99 35.18 -101.28 31.82 -17.36 28.94 -78.13 37.62 -89.7 8.68 -60.77 20.25 -138.89 -31.83 -43.41 -2.89c-106.33,-32.22 -124.44,-19.39 -182.29,-112.85l-130.21 57.87 -8.68 -43.41 -92.6 -63.65c0,0 -60.76,-26.04 -83.91,-31.83 -23.15,-5.79 -78.13,-43.41 -78.13,-43.41l-72.34 -75.23 -72.34 -60.76 -14.47 -57.87 -34.72 2.89 -23.15 -96.94c84.09,-62.47 158.53,-122.04 370.22,-158.26 161.67,-14.01 356.25,-3.15 508.19,55.52 78.89,30.46 140.46,55.44 211.01,102.57 138.33,92.39 259.87,214.98 254.93,397.58zm-368.25 -481.1c-147.58,-61.83 -258.61,-86.77 -323.18,-93.76 -156.34,-15.44 -185.36,-9.95 -276.59,-0.26 -185.33,16.2 -281.63,77.47 -399.52,173.19l36.9 122.98 31.83 -2.89 10.13 54.25 67.63 51.18 75.23 83.91 79.58 47.75 85.36 26.04 86.08 57.15 19.53 68 128.77 -66.55 41.96 56.43 54.25 29.66 97.66 26.04 41.97 1.8 141.79 30.02 62.58 -28.57 96.22 -6.52 82.47 -41.24 12.3 -23.15 113.57 -32.56 18.08 -20.25c22.2,-184.61 -100.41,-340.87 -247.29,-441.24 -46.02,-31.44 -86.11,-49.97 -137.31,-71.43z"/>
  <path class="fil4" d="M914.72 126.65c270.91,68.08 467.06,216.64 438.11,331.82 -28.95,115.17 -272.02,153.35 -542.93,85.27 -270.9,-68.08 -467.05,-216.64 -438.11,-331.82 28.94,-115.17 272.02,-153.35 542.93,-85.27z"/>
  <g style="clip-path:url(#id3)">
   <g id="_105553371485664">
    <path id="1" class="fil1 str0" d="M1226.72 319.58c29.71,49.41 185.01,324.59 -71.03,460.43 -256.05,135.84 -234.1,115.69 -234.1,115.69l816.86 155.12 451.78 -423.84 -353.95 -420.94 -1122.19 -246.94c137.19,79.69 430.27,223.52 512.64,360.48z"/>
   </g>
  </g>
  <path class="fil2" d="M914.72 126.65c270.91,68.08 467.06,216.64 438.11,331.82 -28.95,115.17 -272.02,153.35 -542.93,85.27 -270.9,-68.08 -467.05,-216.64 -438.11,-331.82 28.94,-115.17 272.02,-153.35 542.93,-85.27z"/>
 </g>
</svg>
