<?xml version="1.0" encoding="UTF-8"?>
<!DOCTYPE svg PUBLIC "-//W3C//DTD SVG 1.1//EN" "http://www.w3.org/Graphics/SVG/1.1/DTD/svg11.dtd">
<!-- Creator: CorelDRAW -->
<svg xmlns="http://www.w3.org/2000/svg" xml:space="preserve" width="1348px" height="935px" version="1.1" style="shape-rendering:geometricPrecision; text-rendering:geometricPrecision; image-rendering:optimizeQuality; fill-rule:evenodd; clip-rule:evenodd"
viewBox="0 0 307.68 213.43"
 xmlns:xlink="http://www.w3.org/1999/xlink">
 <defs>
  <style type="text/css">
   <![CDATA[
    .fil2 {fill:#0D1B59}
    .fil1 {fill:#7480DB}
    .fil3 {fill:white;fill-rule:nonzero}
    .fil4 {fill:url(#id0)}
    .fil0 {fill:url(#id1)}
   ]]>
  </style>
  <linearGradient id="id0" gradientUnits="userSpaceOnUse" x1="153.28" y1="200.97" x2="154.31" y2="224.46">
   <stop offset="0" style="stop-opacity:1; stop-color:#2B3582"/>
   <stop offset="1" style="stop-opacity:1; stop-color:#150E42"/>
  </linearGradient>
  <linearGradient id="id1" gradientUnits="userSpaceOnUse" xlink:href="#id0" x1="107.52" y1="251.74" x2="176.77" y2="168.73">
  </linearGradient>
 </defs>
 <g id="Layer_x0020_1">
  <metadata id="CorelCorpID_0Corel-Layer"/>
  <polygon class="fil0" points="140.28,209.78 167.41,209.78 167.41,182.65 140.28,182.65 "/>
  <path class="fil1" d="M9.37 187.96l290.52 0c2.96,0 5.38,-2.42 5.38,-5.37l2.41 -166.96c0,-2.84 -3.23,-8.3 -9.17,-8.3 -0.23,0 -0.45,0.01 -0.68,0.02l-25.56 -0.66 -219.99 -5.69 -28.21 -0.73 -1.7 -0.05 -8.47 -0.22c-0.12,0 -0.24,0 -0.35,0 -3.59,0 -7.03,1.42 -9.57,3.95 -2.63,2.62 -4.06,6.2 -3.98,9.9l3.99 168.74c0,2.95 2.42,5.37 5.38,5.37zm5.38 -181.81c-2.51,0 -4.93,0.98 -6.71,2.73 -1.85,1.81 -2.85,4.29 -2.79,6.85l4.05 158.64c0,2.75 2.29,5 5.08,5l278.51 0c2.79,0 5.08,-2.25 5.08,-5l2.28 -149.03c-0.26,-8.73 -7.83,-12.01 -12.7,-12.01 -0.14,0 -0.28,0 -0.41,0l-272.14 -7.18c-0.08,0 -0.17,0 -0.25,0l0 0z"/>
  <path class="fil2" d="M14.38 179.37l278.51 0c2.79,0 5.08,-2.25 5.08,-5l2.28 -149.03c-0.26,-8.73 -7.83,-12.01 -12.7,-12.01 -0.14,0 -0.28,0 -0.41,0l-272.14 -7.18c-0.08,0 -0.17,0 -0.25,0 -2.51,0 -4.93,0.98 -6.71,2.73 -1.85,1.81 -2.85,4.29 -2.79,6.85l4.05 158.64c0,2.75 2.29,5 5.08,5z"/>
  <path class="fil3" d="M295.4 75.26l-0.01 0c-0.38,0 -0.68,-0.32 -0.68,-0.7l0.7 -47.08c-0.02,-2.81 -0.87,-5.06 -2.55,-6.66 -3.11,-2.99 -8.06,-2.83 -8.27,-2.82l-86.97 -2.34c-0.38,-0.01 -0.68,-0.32 -0.67,-0.7 0.01,-0.38 0.31,-0.67 0.69,-0.67l0.01 0 86.93 2.33c0.54,-0.03 5.76,-0.12 9.24,3.21 1.95,1.87 2.95,4.45 2.96,7.66l-0.69 47.09c0,0.38 -0.31,0.68 -0.69,0.68z"/>
  <path class="fil4" d="M218.68 205.08l-128.98 0c-2.55,0 -4.61,1.98 -4.61,4.52 0,2.17 1.75,3.83 3.92,3.83l129.67 0c2.16,0 3.51,-1.74 3.51,-3.9l0 -0.69c0,-2.16 -1.35,-3.76 -3.51,-3.76z"/>
 </g>
</svg>
