<?xml version="1.0" encoding="UTF-8"?>
<!DOCTYPE svg PUBLIC "-//W3C//DTD SVG 1.1//EN" "http://www.w3.org/Graphics/SVG/1.1/DTD/svg11.dtd">
<!-- Creator: CorelDRAW -->
<svg xmlns="http://www.w3.org/2000/svg" xml:space="preserve" width="274px" height="274px" version="1.1" style="shape-rendering:geometricPrecision; text-rendering:geometricPrecision; image-rendering:optimizeQuality; fill-rule:evenodd; clip-rule:evenodd"
viewBox="0 0 23.01 23.01"
 xmlns:xlink="http://www.w3.org/1999/xlink">
 <defs>
  <style type="text/css">
   <![CDATA[
    .fil3 {fill:none}
    .fil2 {fill:#FFF100}
    .fil1 {fill:#F08F95}
    .fil0 {fill:white}
   ]]>
  </style>
   <clipPath id="id0">
    <path d="M19.19 16.91c0.71,-1.02 1.86,-1.46 3.04,-1.18 0.38,-1.12 0.66,-2.31 0.78,-3.46 -0.44,-0.17 -0.78,-0.28 -1.15,-0.54 0,0 0,0 0,0 -1.29,-0.91 -1.6,-2.64 -0.68,-3.94 0.26,-0.37 0.61,-0.67 0.9,-0.89 -0.51,-1.05 -1.11,-2.16 -1.91,-3 -1.02,0.67 -2.33,0.57 -3.26,-0.08 -1.02,-0.71 -1.46,-1.86 -1.18,-3.04 -1.05,-0.47 -2.31,-0.66 -3.46,-0.78 -0.11,0.34 -0.28,0.78 -0.54,1.15 -0.91,1.29 -2.64,1.6 -3.94,0.68 0,0 0,0 0,0 -0.09,-0.06 -0.09,-0.06 -0.09,-0.06 -0.28,-0.2 -0.58,-0.55 -0.8,-0.84 -1.05,0.51 -2.16,1.11 -3,1.91 0.67,1.02 0.64,2.24 -0.08,3.26 -0.71,1.02 -1.86,1.46 -3.04,1.18 -0.38,1.12 -0.66,2.31 -0.78,3.46 0.44,0.17 0.78,0.28 1.15,0.54 1.29,0.91 1.6,2.64 0.68,3.94 -0.26,0.37 -0.54,0.58 -0.9,0.89 0.51,1.05 1.18,2.07 1.91,3 1.02,-0.67 2.24,-0.64 3.26,0.08 0.93,0.65 1.46,1.86 1.18,3.04 1.12,0.38 2.31,0.66 3.46,0.78 0.11,-0.34 0.28,-0.78 0.54,-1.15 0.91,-1.29 2.64,-1.6 3.94,-0.68 0.37,0.26 0.58,0.54 0.89,0.9 1.05,-0.51 2.07,-1.18 3,-1.91 -0.67,-1.02 -0.57,-2.33 0.08,-3.26l0 0zm-10.36 -1.61c-2.03,-1.43 -2.62,-4.34 -1.12,-6.47 1.5,-2.12 4.43,-2.55 6.47,-1.12 2.12,1.5 2.71,4.4 1.21,6.53 0,0 0,0 0,0 -1.5,2.13 -4.43,2.56 -6.56,1.06 0,0 0,0 0,0l0 0z"/>
   </clipPath>
 </defs>
 <g id="Layer_x0020_1">
  <metadata id="CorelCorpID_0Corel-Layer"/>
  <path id="Icon_ionic-ios-settings" class="fil0" d="M19.19 16.91c0.71,-1.02 1.86,-1.46 3.04,-1.18 0.38,-1.12 0.66,-2.31 0.78,-3.46 -0.44,-0.17 -0.78,-0.28 -1.15,-0.54 0,0 0,0 0,0 -1.29,-0.91 -1.6,-2.64 -0.68,-3.94 0.26,-0.37 0.61,-0.67 0.9,-0.89 -0.51,-1.05 -1.11,-2.16 -1.91,-3 -1.02,0.67 -2.33,0.57 -3.26,-0.08 -1.02,-0.71 -1.46,-1.86 -1.18,-3.04 -1.05,-0.47 -2.31,-0.66 -3.46,-0.78 -0.11,0.34 -0.28,0.78 -0.54,1.15 -0.91,1.29 -2.64,1.6 -3.94,0.68 0,0 0,0 0,0 -0.09,-0.06 -0.09,-0.06 -0.09,-0.06 -0.28,-0.2 -0.58,-0.55 -0.8,-0.84 -1.05,0.51 -2.16,1.11 -3,1.91 0.67,1.02 0.64,2.24 -0.08,3.26 -0.71,1.02 -1.86,1.46 -3.04,1.18 -0.38,1.12 -0.66,2.31 -0.78,3.46 0.44,0.17 0.78,0.28 1.15,0.54 1.29,0.91 1.6,2.64 0.68,3.94 -0.26,0.37 -0.54,0.58 -0.9,0.89 0.51,1.05 1.18,2.07 1.91,3 1.02,-0.67 2.24,-0.64 3.26,0.08 0.93,0.65 1.46,1.86 1.18,3.04 1.12,0.38 2.31,0.66 3.46,0.78 0.11,-0.34 0.28,-0.78 0.54,-1.15 0.91,-1.29 2.64,-1.6 3.94,-0.68 0.37,0.26 0.58,0.54 0.89,0.9 1.05,-0.51 2.07,-1.18 3,-1.91 -0.67,-1.02 -0.57,-2.33 0.08,-3.26l0 0zm-10.36 -1.61c-2.03,-1.43 -2.62,-4.34 -1.12,-6.47 1.5,-2.12 4.43,-2.55 6.47,-1.12 2.12,1.5 2.71,4.4 1.21,6.53 0,0 0,0 0,0 -1.5,2.13 -4.43,2.56 -6.56,1.06 0,0 0,0 0,0l0 0z" data-name="Icon ionic-ios-settings"/>
  <g style="clip-path:url(#id0)">
   <g id="_105553490243232">
    <rect class="fil1" transform="matrix(-4.37138E-001 -3.07562E-001 -5.84359E-001 0.830549 10.3163 -4.19313E+000)" width="3.74" height="26.8"/>
    <rect class="fil1" transform="matrix(-4.37138E-001 -3.07562E-001 -5.84359E-001 0.830549 13.5892 -1.89037E+000)" width="3.74" height="26.8"/>
    <rect class="fil2" transform="matrix(0.437138 0.307562 -5.84359E-001 0.830549 10.3162 -4.19316E+000)" width="3.74" height="26.8"/>
    <rect class="fil1" transform="matrix(-4.37138E-001 -3.07562E-001 -5.84359E-001 0.830549 20.135 2.71515)" width="3.74" height="26.8"/>
    <rect class="fil2" transform="matrix(0.437138 0.307562 -5.84359E-001 0.830549 16.862 0.412358)" width="3.74" height="26.8"/>
    <rect class="fil2" transform="matrix(0.437138 0.307562 -5.84359E-001 0.830549 13.5891 -1.8904E+000)" width="3.74" height="26.8"/>
    <rect class="fil1" transform="matrix(-4.37138E-001 -3.07562E-001 -5.84359E-001 0.830549 16.8621 0.412389)" width="3.74" height="26.8"/>
    <rect class="fil2" transform="matrix(0.437138 0.307562 -5.84359E-001 0.830549 26.6808 7.32063)" width="3.74" height="26.8"/>
    <rect class="fil2" transform="matrix(0.437138 0.307562 -5.84359E-001 0.830549 20.1349 2.71512)" width="3.74" height="26.8"/>
    <rect class="fil1" transform="matrix(-4.37138E-001 -3.07562E-001 -5.84359E-001 0.830549 23.4079 5.0179)" width="3.74" height="26.8"/>
    <rect class="fil1" transform="matrix(-4.37138E-001 -3.07562E-001 -5.84359E-001 0.830549 26.6808 7.32066)" width="3.74" height="26.8"/>
    <rect class="fil2" transform="matrix(0.437138 0.307562 -5.84359E-001 0.830549 23.4078 5.01787)" width="3.74" height="26.8"/>
   </g>
  </g>
  <path class="fil3" d="M19.19 16.91c0.71,-1.02 1.86,-1.46 3.04,-1.18 0.38,-1.12 0.66,-2.31 0.78,-3.46 -0.44,-0.17 -0.78,-0.28 -1.15,-0.54 0,0 0,0 0,0 -1.29,-0.91 -1.6,-2.64 -0.68,-3.94 0.26,-0.37 0.61,-0.67 0.9,-0.89 -0.51,-1.05 -1.11,-2.16 -1.91,-3 -1.02,0.67 -2.33,0.57 -3.26,-0.08 -1.02,-0.71 -1.46,-1.86 -1.18,-3.04 -1.05,-0.47 -2.31,-0.66 -3.46,-0.78 -0.11,0.34 -0.28,0.78 -0.54,1.15 -0.91,1.29 -2.64,1.6 -3.94,0.68 0,0 0,0 0,0 -0.09,-0.06 -0.09,-0.06 -0.09,-0.06 -0.28,-0.2 -0.58,-0.55 -0.8,-0.84 -1.05,0.51 -2.16,1.11 -3,1.91 0.67,1.02 0.64,2.24 -0.08,3.26 -0.71,1.02 -1.86,1.46 -3.04,1.18 -0.38,1.12 -0.66,2.31 -0.78,3.46 0.44,0.17 0.78,0.28 1.15,0.54 1.29,0.91 1.6,2.64 0.68,3.94 -0.26,0.37 -0.54,0.58 -0.9,0.89 0.51,1.05 1.18,2.07 1.91,3 1.02,-0.67 2.24,-0.64 3.26,0.08 0.93,0.65 1.46,1.86 1.18,3.04 1.12,0.38 2.31,0.66 3.46,0.78 0.11,-0.34 0.28,-0.78 0.54,-1.15 0.91,-1.29 2.64,-1.6 3.94,-0.68 0.37,0.26 0.58,0.54 0.89,0.9 1.05,-0.51 2.07,-1.18 3,-1.91 -0.67,-1.02 -0.57,-2.33 0.08,-3.26l0 0zm-10.36 -1.61c-2.03,-1.43 -2.62,-4.34 -1.12,-6.47 1.5,-2.12 4.43,-2.55 6.47,-1.12 2.12,1.5 2.71,4.4 1.21,6.53 0,0 0,0 0,0 -1.5,2.13 -4.43,2.56 -6.56,1.06 0,0 0,0 0,0l0 0z"/>
 </g>
</svg>
