<?xml version="1.0" encoding="UTF-8"?>
<!DOCTYPE svg PUBLIC "-//W3C//DTD SVG 1.1//EN" "http://www.w3.org/Graphics/SVG/1.1/DTD/svg11.dtd">
<!-- Creator: CorelDRAW -->
<svg xmlns="http://www.w3.org/2000/svg" xml:space="preserve" width="90.6281mm" height="178.859mm" version="1.1" style="shape-rendering:geometricPrecision; text-rendering:geometricPrecision; image-rendering:optimizeQuality; fill-rule:evenodd; clip-rule:evenodd"
viewBox="0 0 10554.99 20830.77"
 xmlns:xlink="http://www.w3.org/1999/xlink">
 <defs>
  <style type="text/css">
   <![CDATA[
    .fil48 {fill:white}
    .fil49 {fill:#E6232A}
    .fil28 {fill:black}
    .fil30 {fill:#231F20}
    .fil1 {fill:#333A4F}
    .fil4 {fill:#7C4228}
    .fil20 {fill:#865634}
    .fil2 {fill:#874B2D}
    .fil10 {fill:#89171A}
    .fil21 {fill:#8E562F}
    .fil5 {fill:#905533}
    .fil15 {fill:#995221}
    .fil11 {fill:#9E1C20}
    .fil25 {fill:#A5602C}
    .fil33 {fill:#BE2026}
    .fil31 {fill:#BF2025}
    .fil3 {fill:#C82127}
    .fil13 {fill:#D38753}
    .fil18 {fill:#D69356}
    .fil8 {fill:#E0C2B8}
    .fil24 {fill:#E1A26A}
    .fil9 {fill:#E2A36A}
    .fil12 {fill:#E7CCC1}
    .fil6 {fill:#ED1E24}
    .fil32 {fill:#ED2224}
    .fil29 {fill:#EE2424}
    .fil14 {fill:#EE2924}
    .fil26 {fill:#F3BD83}
    .fil17 {fill:#F4BE84}
    .fil7 {fill:#F4E2D4}
    .fil22 {fill:#F8E7C9}
    .fil27 {fill:#FDE2DF}
    .fil0 {fill:#FDE9E9}
    .fil19 {fill:#FFE4CB}
    .fil51 {fill:#767575;fill-rule:nonzero}
    .fil44 {fill:#5F5E5E;fill-rule:nonzero}
    .fil52 {fill:#484443;fill-rule:nonzero}
    .fil42 {fill:#760153;fill-rule:nonzero}
    .fil37 {fill:#8C3B4B;fill-rule:nonzero}
    .fil45 {fill:#913475;fill-rule:nonzero}
    .fil35 {fill:#955447;fill-rule:nonzero}
    .fil38 {fill:#A35E5D;fill-rule:nonzero}
    .fil43 {fill:#B47D91;fill-rule:nonzero}
    .fil36 {fill:#B68662;fill-rule:nonzero}
    .fil46 {fill:#BF8C9A;fill-rule:nonzero}
    .fil47 {fill:#D49F7B;fill-rule:nonzero}
    .fil41 {fill:#DEC8B8;fill-rule:nonzero}
    .fil39 {fill:#ED2957;fill-rule:nonzero}
    .fil40 {fill:#F79EB3;fill-rule:nonzero}
    .fil34 {fill:#FBC100;fill-rule:nonzero}
    .fil16 {fill:#995221;fill-opacity:0.149020}
    .fil50 {fill:#C91D56;fill-rule:nonzero;fill-opacity:0.501961}
    .fil23 {fill:#994239;fill-opacity:0.501961}
   ]]>
  </style>
 </defs>
 <g id="Layer_x0020_1">
  <metadata id="CorelCorpID_0Corel-Layer"/>
  <g id="_105553362633696">
   <path class="fil0" d="M2053.73 1436.89c-46.32,-77.18 -154.29,-108.03 -231.46,-61.71 -77.17,46.31 -108.03,154.28 -61.71,231.45 46.32,77.17 138.88,108.03 216,77.17l2376.01 4428.05 169.75 -46.32 -2545.76 -4381.74c0,0 0,0 15.47,0 77.17,-46.36 108.02,-154.34 61.71,-246.91z"/>
   <path class="fil1" d="M1374.87 20306.15c0,0 -15.45,108.02 -108.03,216 -92.57,108.03 -416.61,154.29 -524.57,169.75 -108.03,15.45 -77.18,138.88 -77.18,138.88l925.78 -0.06 108.03 -524.57 -324.03 0z"/>
   <path class="fil1" d="M4152.02 20306.15c0,0 15.45,108.02 -61.71,216 -77.17,108.03 -293.18,154.29 -401.14,169.75 -108.03,15.45 -30.86,138.88 -30.86,138.88l833.16 0 -15.47 -524.57 -323.97 -0.06z"/>
   <path class="fil2" d="M1575.47 14921.52c0,0 -154.28,3270.87 -354.89,5384.63l617.15 0c0,0 1064.61,-3147.45 1188.04,-4073.16 123.43,-925.72 -108.03,-1774.33 -108.03,-1774.33l-1342.26 462.87z"/>
   <path class="fil3" d="M3936.02 7855.2c-246.86,246.86 -401.15,1188.04 -694.32,2129.15 -354.89,1110.87 -848.61,2237.19 -509.18,2453.18 663.47,432 1897.76,-1589.18 2082.91,-2561.16 0.06,15.4 -617.09,-2268.04 -879.4,-2021.18z"/>
   <polygon class="fil4" points="4290.9,13085.53 8194.33,13116.34 5016.03,14026.65 "/>
   <path class="fil2" d="M4028.59 13193.51c0,0 1110.87,-324.03 1990.33,1743.47l-4474.3 0c0,0 46.31,-879.46 447.46,-1172.58 215.94,-154.28 1157.11,-432 2036.52,-570.89z"/>
   <path class="fil4" d="M5016.03 14026.65c0,0 -509.17,185.14 -1280.6,308.57 -771.44,123.43 -1110.87,123.43 -1188.04,262.33 -77.18,138.88 123.42,1265.15 0,1836.03 -108.03,493.72 -786.9,3162.9 -972.04,3888.02l246.98 -0.06c0,0 1064.61,-3147.44 1188.04,-4073.16 61.71,-509.17 30.86,-987.44 -15.45,-1311.46l1666.29 0 354.83 -910.27z"/>
   <path class="fil5" d="M8194.33 13116.34c0,0 -108.03,1280.6 -509.17,1805.18l-4212 0c0,0 -185.14,-848.61 169.75,-1172.58 432,-385.69 3131.99,-601.69 4551.43,-632.6z"/>
   <path class="fil5" d="M3473.16 14921.52c0,0 370.29,3270.87 524.58,5384.63l617.15 0c0,0 540.02,-3147.45 524.57,-4073.16 -30.86,-925.72 -401.14,-1774.33 -401.14,-1774.33l-1265.16 462.87z"/>
   <path class="fil6" d="M4028.59 13193.51c0,0 1049.15,-61.71 2005.72,200.6 1095.47,293.18 1897.76,1018.3 1897.76,1018.3 0,0 277.71,-833.16 308.56,-1589.19 61.71,-1373.18 -61.71,-3656.61 -462.85,-5353.76 0,0 -694.32,-277.72 -2005.72,-138.88 -1419.44,154.28 -1851.43,540.02 -1851.43,540.02 0,0 -169.75,1249.75 262.31,2422.33 277.71,617.15 447.46,1450.29 370.29,2453.18 -246.92,231.4 -524.64,447.4 -524.64,447.4z"/>
   <path class="fil7" d="M4460.59 7608.34c0,0 61.71,1373.18 1218.9,1203.43 1157.17,-169.75 1326.86,-1496.61 1326.86,-1496.61 0,0 -1080,-92.57 -2545.76,293.18z"/>
   <polygon class="fil8" points="5262.89,8086.6 5478.88,8379.77 5232.02,8318.05 5000.63,8780.92 4784.62,7963.17 "/>
   <path class="fil9" d="M9382.37 14921.52c0,0 324.03,-185.14 601.74,-200.6 108.03,-15.47 570.89,138.88 570.89,216l-1172.63 -15.4z"/>
   <path class="fil10" d="M7947.47 14412.4c0,0 277.71,-833.16 308.57,-1589.19 61.71,-1373.18 -61.71,-3656.61 -462.87,-5353.76 0,0 -262.31,-108.03 -786.88,-154.29 30.85,462.87 77.17,1512.01 123.43,2777.16 61.71,1542.86 -15.47,2715.44 -277.72,3610.3 663.47,308.63 1095.47,709.78 1095.47,709.78z"/>
   <path class="fil9" d="M7669.75 7469.45c586.3,-61.71 1095.47,1265.15 1542.87,4104.01 0,0 169.75,925.72 524.57,3317.19l-354.88 30.86c0,0 -987.44,-1141.72 -1234.3,-3008.61 0.06,0.06 -1527.4,-4335.42 -478.26,-4443.45z"/>
   <path class="fil11" d="M8286.9 12962.04c246.86,-30.85 648.01,-138.88 1110.87,-370.28 -108.03,-709.73 -169.75,-1018.3 -169.75,-1018.3 -447.46,-2838.87 -956.57,-4181.18 -1542.86,-4104.01 -1172.58,123.43 354.88,4428.04 354.88,4428.04 46.32,385.76 138.88,740.58 246.86,1064.55z"/>
   <path class="fil12" d="M4584.02 12746.11c0,0 1033.75,-15.45 1928.61,169.75 0,0 -756.03,-432 -1928.61,-385.74l0 216z"/>
   <path class="fil7" d="M7978.32 12391.21l308.57 756.03c0,0 324.03,-15.45 663.47,-108.02 339.43,-92.58 524.57,-308.57 524.57,-308.57l-138.88 -786.9c0,0 -354.89,308.57 -648,370.29 -401.15,92.64 -709.73,77.17 -709.73,77.17z"/>
   <polygon class="fil8" points="5756.6,8055.74 5478.88,8379.77 5787.46,8302.6 6173.2,8827.17 6682.33,7284.31 "/>
   <path class="fil8" d="M5139.46 13224.37c15.45,0 30.85,0 46.32,0l524.57 -447.47 0 0 0 0c77.17,-524.57 -92.57,-2206.32 -138.88,-2622.86 -46.32,-401.15 -77.17,-1789.73 -77.17,-1805.18l-30.86 0c0,15.45 30.86,1404.03 77.17,1805.18 46.32,385.74 216.01,2082.89 138.9,2607.46l-540.04 462.87z"/>
   <path class="fil9" d="M6065.18 5648.87c0,0 30.85,848.6 339.43,1635.44l-925.72 1095.46 -648 -879.46c0,0 -15.45,-123.43 -61.71,-555.43l1296.01 -1296z"/>
   <path class="fil13" d="M5201.17 6512.94l-293.18 802.28c0,0 339.44,354.89 1033.75,509.18l462.85 -555.43c-231.46,-570.89 -308.57,-1203.44 -339.43,-1481.15l-108.03 -61.71 -755.97 786.84z"/>
   <polygon class="fil14" points="5756.6,8055.74 6157.74,8626.63 6682.33,7284.31 6327.49,7083.77 "/>
   <polygon class="fil14" points="5262.89,8086.6 5000.63,8564.91 4645.74,7546.62 4861.75,7238.05 "/>
   <g>
    <path class="fil15" d="M3334.33 3874.6c0,0 -15.45,586.3 308.57,1126.32l308.57 -894.86 -617.15 -231.46z"/>
    <path class="fil16" d="M3334.33 3874.6c0,0 -15.45,586.3 308.57,1126.32l308.57 -894.86 -617.15 -231.46z"/>
    <path class="fil15" d="M5880.03 6188.9c-354.89,30.86 -864.01,-1419.43 -956.57,-2206.32 -30.86,-308.57 431.99,-786.88 817.75,-925.72 1218.83,-432 956.57,3070.33 138.83,3132.04z"/>
    <path class="fil17" d="M6080.63 5278.64c324.03,1758.86 -802.29,2005.72 -1172.58,2036.58 -586.28,61.71 -894.86,-385.74 -1049.14,-1542.86 -200.61,-956.58 -756.04,-1635.44 462.85,-2021.19 1080,-246.85 1512.01,246.86 1758.86,1527.47z"/>
    <path class="fil9" d="M4676.6 3704.87c540.02,138.88 786.88,740.58 1018.29,1650.89 370.29,1542.87 -262.31,1758.86 -709.73,1959.46 416.61,-61.71 1404.04,-370.29 1095.47,-2036.58 -216,-1126.32 -586.28,-1650.9 -1404.03,-1573.78z"/>
    <path class="fil9" d="M6466.32 5324.9c61.71,169.74 -46.32,339.43 -216,401.14 -169.75,61.71 -354.89,-30.86 -416.61,-185.14 -61.71,-154.28 46.32,-339.43 216,-401.14 169.75,-61.71 354.89,30.85 416.61,185.14z"/>
    <path class="fil15" d="M4599.48 3704.87c0,0 601.75,-123.43 894.87,570.89 246.86,617.15 370.29,1157.17 370.29,1157.17l108.02 -15.45c0,0 -46.31,-185.14 123.43,-308.57 -61.77,-617.15 -185.2,-1897.75 -1496.61,-1404.03z"/>
    <path class="fil15" d="M5432.63 4815.78c-61.71,-46.31 -385.76,-169.74 -694.32,-92.57l-30.86 -169.75c0,0 354.89,-123.43 709.71,154.29l15.47 108.02z"/>
    <path class="fil15" d="M3735.48 5309.44c15.45,-123.43 200.6,-308.57 401.14,-370.29l-92.58 -154.28c0,0 -339.43,123.43 -370.28,447.46l61.71 77.11z"/>
    <path class="fil18" d="M6204.06 5247.72c-46.32,0 -77.17,0 -123.43,15.47 15.45,0 15.45,0 30.85,0 108.03,15.45 169.75,108.02 154.29,216 -15.45,61.71 -46.32,108.03 -108.03,123.43 92.58,0 185.14,-61.71 185.14,-154.28 30.86,-92.58 -46.26,-185.14 -138.83,-200.61z"/>
    <path class="fil18" d="M4383.48 5139.76c169.75,200.6 200.6,462.85 -15.45,570.89 -138.9,77.17 -185.14,123.43 -169.75,216 30.85,77.17 92.57,123.43 200.6,138.88 108.03,0 246.86,-30.85 246.86,-46.31 0,0 -324.03,61.71 -354.89,-108.03 -15.45,-77.17 92.58,-92.58 185.14,-185.14 216.07,-200.6 77.18,-493.72 -92.51,-586.28z"/>
    <g>
     <path class="fil19" d="M4861.75 5062.58c0,0 -15.47,339.44 231.45,308.57 185.14,-46.31 246.86,-262.31 246.86,-262.31 -169.75,-77.11 -324.03,-92.51 -478.31,-46.26z"/>
     <path class="fil20" d="M4846.34 5139.76c216.01,-77.18 324.03,-46.32 540.04,30.85l0 -30.85c0,0 -200.6,-185.14 -555.43,-92.58l15.4 92.58z"/>
     <path class="fil20" d="M5216.63 5232.33c0,92.58 -77.17,154.29 -154.28,154.29 -92.58,0 -154.29,-77.18 -154.29,-154.29 0,-92.57 77.18,-154.28 154.29,-154.28 77.11,-15.47 154.28,61.71 154.28,154.28z"/>
    </g>
    <g>
     <path class="fil19" d="M3874.31 5494.58c0,0 61.71,200.6 262.31,123.43 200.6,-77.17 77.17,-354.88 77.17,-354.88 -30.91,-61.66 -339.48,92.62 -339.48,231.45z"/>
     <path class="fil20" d="M3858.91 5525.44c46.31,-154.29 277.71,-246.86 385.74,-246.86l-30.86 -77.17c0,0 -324.03,61.71 -370.29,293.17l15.41 30.86z"/>
     <path class="fil20" d="M4198.34 5479.18c0,77.17 -61.71,154.28 -154.29,154.28 -77.17,0 -154.28,-61.7 -154.28,-154.28 0,-77.17 61.71,-154.28 154.28,-154.28 92.58,0 154.29,61.71 154.29,154.28z"/>
    </g>
    <g>
     <path class="fil21" d="M4352.62 6451.17l879.46 -370.29c0,0 15.47,447.46 -277.71,586.28 -293.18,108.03 -601.75,-216 -601.75,-216z"/>
     <path class="fil22" d="M4491.46 6435.76l694.32 -293.17c0,0 15.45,138.88 -601.75,370.29l-92.57 -77.12z"/>
     <path class="fil23" d="M5201.17 6312.33c-30.86,123.43 -108.03,277.72 -246.86,339.44 -61.71,30.85 -123.43,30.85 -185.14,30.85 61.71,-293.17 324.03,-354.88 432,-370.29z"/>
     <path class="fil21" d="M5216.63 6050.07c0,15.45 -15.45,30.86 0,30.86 0,0 30.86,-15.47 30.86,-15.47 0,-15.45 0,-15.45 0,-30.85 -15.47,15.45 -15.47,15.45 -30.86,15.45z"/>
     <path class="fil21" d="M4352.62 6466.62c15.47,0 30.86,0 30.86,-15.45 0,0 -15.45,-15.47 -30.86,-15.47 -15.45,0 -15.45,0 -15.45,15.47 0,0 0,15.45 15.45,15.45z"/>
    </g>
    <path class="fil24" d="M4846.34 6867.76c15.47,46.32 92.58,77.17 169.75,46.32 77.17,-15.45 123.43,-77.17 108.03,-138.88 -15.45,-46.32 -77.17,-15.47 -154.29,15.45 -77.23,15.4 -138.94,15.4 -123.49,77.11z"/>
    <path class="fil15" d="M6111.48 3874.6c0,0 77.18,-1434.89 -1141.72,-1342.32 -1218.89,77.17 -2252.58,1064.61 -1882.29,2175.47 0,0 216.01,-447.46 509.17,-401.15 0,0 92.58,-462.85 1095.47,-586.28l786.88 -77.17 632.49 231.45z"/>
    <path class="fil25" d="M3102.87 4260.3c0,0 -46.31,-879.47 956.58,-1419.44 1018.29,-524.57 1542.86,-15.45 1434.89,216 -138.9,324.04 -740.58,154.29 -1404.04,416.61 -447.4,169.69 -925.72,617.15 -987.44,786.84z"/>
    <path class="fil25" d="M3673.77 3596.89c0,0 -231.46,293.18 -169.75,617.15 0,0 216,-509.17 925.72,-632.6 709.71,-138.9 879.46,-46.32 879.46,-339.44 -15.47,0 -894.87,-185.14 -1635.44,354.89z"/>
    <path class="fil25" d="M5417.17 3812.89c-108.02,-324.03 570.9,-941.18 894.87,-462.85 324.03,509.11 -709.73,1018.29 -894.87,462.85z"/>
    <path class="fil16" d="M5957.2 5432.92l-108.03 15.47c0,0 -185.14,-756.04 -370.29,-1157.18 0,0 879.46,-77.17 1018.3,-632.6 0,0 216,617.15 -30.86,1681.75 -46.32,-169.75 -246.86,-246.86 -401.14,-200.6 0,0 -123.43,77.11 -107.97,293.17z"/>
    <path class="fil16" d="M6142.35 5756.9c0,0 15.45,200.61 0,293.18 0,0 138.88,-138.88 216,-370.29 0,-0.06 -108.02,77.11 -216,77.11z"/>
    <path class="fil15" d="M6018.92 3041.46c0,0 77.17,-586.28 -432,-632.6 0,0 339.44,246.86 370.29,632.6l61.71 0z"/>
   </g>
   <path class="fil2" d="M5139.46 16248.38c-15.45,-509.17 -123.43,-987.44 -231.46,-1311.46l2792.62 0.06c138.88,-185.14 231.46,-447.46 308.57,-709.71l-1157.13 -524.58c0,0 -108.02,540.04 -324.03,663.47 -216,123.43 -2113.76,108.03 -2221.72,200.6 -92.58,92.58 308.57,1049.15 385.74,1743.47 77.17,694.32 -354.89,4011.45 -354.89,4011.45l0 0 262.31 -0.12c15.41,0 555.43,-3147.44 539.98,-4073.16z"/>
   <path class="fil2" d="M5617.78 13286.08c0,0 1234.28,216 2391.47,925.71l-61.71 185.14c-0.06,15.47 -1141.78,-740.57 -2329.75,-1110.85z"/>
   <path class="fil9" d="M865.75 9691.17c0,0 -216.01,-478.31 -725.18,-709.71 -123.43,-46.32 -108.03,447.46 -61.71,540.04 77.17,154.28 555.43,231.45 555.43,231.45l231.46 -61.77z"/>
   <path class="fil26" d="M634.29 9752.89c0,0 -200.6,-15.45 -385.74,-108.03 0,0 293.18,-154.28 462.85,30.86l-77.11 77.17z"/>
   <path class="fil17" d="M865.75 9691.17c0,0 -123.43,-385.74 -185.14,-462.85 -61.71,-92.58 -231.46,-185.14 -308.57,-262.31 -77.17,-77.18 -123.43,-108.03 -123.43,-61.71 -15.45,46.31 0,154.28 123.43,262.31 30.85,30.85 123.43,92.57 138.88,138.88 0,123.43 30.86,324.03 169.75,385.74 262.2,138.83 185.09,-0.06 185.09,-0.06z"/>
   <path class="fil26" d="M3180.05 12452.93c0,0 -1110.87,678.86 -2545.76,-2684.59 0,0 154.28,-169.74 185.14,-216 756.03,678.86 3317.19,2283.43 2360.62,2900.58z"/>
   <path class="fil3" d="M2578.3 10971.79l-740.58 879.46c802.29,941.18 1357.72,601.74 1357.72,601.74 416.61,-277.77 108.03,-894.92 -617.15,-1481.2z"/>
   <path class="fil7" d="M1729.76 11774.08c0,0 339.43,-185.14 478.31,-370.29 200.6,-246.86 293.18,-570.9 293.18,-570.9l354.89 293.18c0,0 -30.86,416.61 -216.01,678.86 -154.28,231.46 -478.32,416.61 -478.32,416.61 0,0 -339.48,-246.86 -432.05,-447.46z"/>
   <g>
    <polygon class="fil27" points="4522.31,9305.49 6605.2,9305.49 5988.07,10292.92 5849.17,10076.92 5694.89,10323.78 5540.6,10061.46 5417.17,10292.92 5262.89,10061.46 5124.06,10277.47 "/>
    <g>
     <g>
      <g>
       <g>
        <polygon class="fil28" points="4584.02,9336.35 5124.06,10200.35 5664.03,9336.35 "/>
       </g>
       <g>
        <polygon class="fil28" points="4584.02,9336.35 5124.06,10200.35 5664.03,9336.35 "/>
       </g>
       <polygon class="fil29" points="4738.32,9320.88 5232.02,10107.78 5725.74,9320.88 "/>
      </g>
      <g>
       <g>
        <polygon class="fil28" points="4877.2,9336.35 5417.17,10200.35 5957.2,9336.35 "/>
       </g>
       <g>
        <polygon class="fil28" points="4877.2,9336.35 5417.17,10200.35 5957.2,9336.35 "/>
       </g>
       <polygon class="fil29" points="5031.48,9320.88 5525.2,10107.78 6018.92,9320.88 "/>
      </g>
     </g>
     <g>
      <g>
       <g>
        <polygon class="fil28" points="5154.91,9336.35 5694.89,10200.35 6234.91,9336.35 "/>
       </g>
       <g>
        <polygon class="fil28" points="5154.91,9336.35 5694.89,10200.35 6234.91,9336.35 "/>
       </g>
       <polygon class="fil29" points="5309.2,9320.88 5802.92,10107.78 6312.04,9320.88 "/>
      </g>
      <g>
       <g>
        <polygon class="fil28" points="5448.03,9336.35 5988.07,10200.35 6528.03,9336.35 "/>
       </g>
       <g>
        <polygon class="fil28" points="5448.03,9336.35 5988.07,10200.35 6528.03,9336.35 "/>
       </g>
       <polygon class="fil29" points="5602.31,9320.88 6096.03,10107.78 6605.2,9320.88 "/>
      </g>
     </g>
    </g>
   </g>
   <ellipse class="fil30" cx="6157.75" cy="5247.73" rx="493.72" ry="833.15"/>
   <ellipse class="fil31" cx="6173.2" cy="5263.18" rx="432" ry="740.57"/>
   <ellipse class="fil32" cx="6219.46" cy="5263.18" rx="354.83" ry="617.15"/>
   <path class="fil33" d="M6204.06 5186.01c0,0 -46.32,-447.46 -61.71,-648 -30.86,-200.6 -185.14,-663.47 -324.03,-802.29 -138.88,-138.83 -401.15,-370.29 -756.03,-462.85 -339.44,-92.58 -725.18,-138.88 -1095.47,-61.71 -555.43,123.43 -756.03,339.43 -756.03,339.43 0,0 169.75,-262.31 231.46,-324.03 61.71,-77.17 524.57,-231.46 524.57,-231.46 0,0 540.04,-92.57 987.44,15.47 524.57,138.88 756.03,277.71 972.03,509.17 216.01,231.45 370.29,663.45 401.15,879.46 15.45,216 46.32,802.29 46.32,802.29l-169.69 -15.47z"/>
   <path class="fil30" d="M6173.2 5232.33c0,0 -46.31,-432 -61.71,-648 -15.45,-200.6 -185.13,-663.47 -324.03,-802.29 -138.88,-138.88 -401.14,-370.29 -771.43,-462.85 -339.43,-92.58 -725.18,-138.9 -1080,-77.18 -555.43,123.43 -771.44,339.44 -771.44,339.44 0,0 169.75,-246.86 231.46,-324.03 77.17,-61.71 540.04,-231.46 540.04,-231.46 0,0 540.02,-92.58 987.44,30.85 524.57,138.9 756.03,277.72 972.03,509.17 200.6,231.46 370.29,663.47 385.74,879.47 30.86,200.6 46.32,802.28 46.32,802.28l-154.41 -15.4z"/>
   <path class="fil0" d="M7052.6 187.14c15.47,-92.58 -61.7,-185.14 -154.28,-185.14 -92.57,-15.47 -185.14,61.71 -185.14,154.28 -15.45,92.58 46.32,169.75 138.88,185.14l-648 4983.49 169.75 61.71 493.72 -5045.2c0,0 0,0 15.45,0 77.05,15.45 169.62,-46.26 169.62,-154.28z"/>
   <ellipse class="fil33" cx="6312.03" cy="5263.18" rx="262.26" ry="462.86"/>
   <g>
    <path class="fil34" d="M912.98 8984.01c93.43,25.99 29.12,-185.66 -74.89,-232.85l21.46 149.24 53.42 83.61z"/>
    <path class="fil35" d="M856.19 9327.23c-1.21,28.01 -23.28,50.69 -51.26,52.86l-499.79 39c-22.44,1.72 -44.93,-1.42 -65.98,-9.24 -0.03,0 -0.06,-0.02 -0.13,-0.02 -1.75,-0.68 -3.51,-1.34 -5.23,-2.07l-65.2 -26.94c-17.5,-7.27 -28.73,-24.59 -28.13,-43.51 11.98,-373.19 -30.49,-720.94 -92.23,-1002.45 -3.52,-16.07 1.91,-32.76 14.17,-43.72l55.8 -49.78 0.06 -0.03 5.81 -5.21c15.59,-13.89 35.28,-22.28 56.08,-23.92l8 -0.63 215.34 -16.81 69.39 -5.43 197.61 -15.41 16.86 -1.3c27.01,-2.08 51.59,15.57 58.26,41.82 86.53,340.49 126.29,748.61 110.55,1112.78z"/>
    <path class="fil36" d="M614.18 8743.07c6.57,60.74 11.96,119.3 17.11,183.42l-50.81 24.05c-1.63,-37.98 -0.82,-16.56 -3.54,-54.66 -11.2,-158.18 -31.38,-316.26 -59.86,-466.33l52.08 -4.12 0.48 2.46 158.05 -15.23 5.64 -0.45 1.02 -0.09 0.4 2.49 24.38 0 16.69 14.23 -33.38 33.06 -155.35 10.9c-5.03,0.35 -8.63,4.93 -7.81,9.9 7.57,45.23 14.44,91.89 20.71,139.76l-42.75 57.23 49.54 -2.78c0.08,0.66 0.15,1.33 0.23,2l143.8 -12.81 22.01 -1.21 1.79 -0.09 15.01 -0.82 29.77 17.35 -40.48 35.57 -154.4 13.6c-6.36,0.54 -10.99,6.23 -10.32,12.57z"/>
    <path class="fil36" d="M512.01 8439.61l-43.6 45.23 -169.98 14.29c-14.33,1.19 -24.5,14.36 -22.14,28.52 6.48,39.21 12.38,78.79 17.68,118.57l-51.69 59.16c-19.44,-157.11 -47.62,-310.45 -83.92,-451.94 -3.94,-15.29 -20.68,-22.28 -33.97,-16.11l28.28 -18.53c4.3,-3.84 26.97,-5.85 35.73,-6.21l-0.21 -1.02 161.99 -12.64 10.6 -0.63 0.08 -0.03 0.09 0.03 42.81 -2.63 27.04 -1.64 16.24 12.21 -29.35 39.94 -180.43 12.36c-8.08,0.55 -13.72,8.23 -11.81,16.11 9.93,41.3 19.19,83.52 27.8,126.45l-49.47 52.69 66.4 -4.94 -1.51 -4.3 189.49 -15.41 0.87 4.75 0.03 0 50.95 -5.05c0.66,3.56 1.34,7.17 2,10.77z"/>
    <path class="fil36" d="M308.24 8765.93c20.86,201.38 27.1,405.92 17.87,599.67 -0.79,16.54 -39.55,27.25 -54.83,20.93l-1.34 0.87c10.35,-218.01 0.64,-452.4 -27.25,-678.98l58.33 -6.72c0.08,0.73 0.17,1.49 0.27,2.21l186.88 -16.65 10.39 -0.93 49.96 0c0.12,1.06 0.23,2.11 0.36,3.2l-44.45 46.71 -182.91 13.79c-8.15,0.61 -14.12,7.8 -13.27,15.9z"/>
    <path class="fil37" d="M794.01 8883.43c-3.94,-55.64 -8.99,-111.26 -15.12,-166.53l33.67 -29.59c5.38,5.65 9.41,12.71 11.45,20.73 0.19,0.73 0.45,1.41 0.8,2.05 1.48,13.3 2.9,26.62 4.26,39.97 -0.16,1.36 -0.01,2.73 0.41,3.99 3.76,37.22 7.02,74.61 9.79,112.03 -11.86,5.32 -27.18,11.53 -45.27,17.35zm-230.44 -212.11c0,-0.05 -0.01,-0.08 -0.01,-0.13l36.41 -48.74 0.73 -0.97 150.15 -11.44c7.93,-0.61 13.75,-7.79 12.62,-15.69 -6.29,-44.61 -13.32,-88.84 -21.05,-132.47l30.15 -29.88c7.33,6.11 12.81,14.49 15.3,24.33 0.16,0.64 0.4,1.23 0.68,1.81 12.28,69.16 22.79,139.82 31.5,211.36 -11.32,-9.34 -25.77,-14.79 -41.18,-14.79 -1.68,0 -3.37,0.07 -5.05,0.2l-210.25 16.41zm-39.07 -251.45l35.44 -41.97 -0.08 -0.45 148.63 -11.96c8.14,-0.66 13.87,-8.34 12.21,-16.33 -9.03,-42.91 -18.72,-85.08 -29.13,-126.22l28.06 -32.1c8.28,6.2 14.5,15.16 17.23,25.86 16.27,64.06 30.91,130.49 43.84,198.6 -10.77,-7.78 -23.93,-12.24 -37.9,-12.24 -1.68,0 -3.37,0.06 -5.05,0.19l-213.24 16.64z"/>
    <path class="fil37" d="M599.97 8622.46l0 0c-0.03,-0.3 -0.07,-0.59 -0.12,-0.9l0.85 -0.07 -0.73 0.97z"/>
    <path class="fil38" d="M599.97 8622.46l-0.12 -0.9c0.05,0.3 0.08,0.59 0.12,0.9z"/>
    <path class="fil36" d="M529.73 8247.49l0.02 0.13c10.94,41.45 20.95,84.81 30.11,129.84l0.08 0.45 -42.99 50.93c-12.85,-67.53 -27.38,-133.45 -43.51,-197 -6.21,-24.53 -28.07,-41.54 -52.97,-41.94l68.98 -2.06c0,0 0.15,0.07 0.42,0.19l180.65 -14.08 0.85 0.42 -33.61 2.21c0.66,0 1.3,0.03 1.97,0.09 1.3,0.06 2.6,0.19 3.9,0.36 0.64,0.06 1.27,0.15 1.91,0.28l0.03 0 48.2 -3.37 18.1 5.57c3.99,2.04 7.72,4.54 11.11,7.49l-31.42 35.94 -152.18 11.2c-6.66,0.48 -11.2,6.84 -9.65,13.35z"/>
    <path class="fil36" d="M269.91 9388.12c-0.76,15.72 -16.08,26.17 -30.74,21.74 -0.03,0 -0.06,-0.02 -0.13,-0.02 -1.75,-0.68 -3.51,-1.34 -5.23,-2.07l-65.2 -26.94c-17.5,-7.27 -28.73,-24.59 -28.13,-43.51 11.98,-373.19 -30.49,-720.94 -92.23,-1002.45 -3.52,-16.07 1.91,-32.76 14.17,-43.72l55.8 -49.78 0.06 -0.03c13.68,-12.19 35.49,-5.63 40.06,12.11 88.92,346.58 129.19,764.3 111.55,1134.67z"/>
    <path class="fil39" d="M856.19 9486.06c-1.21,41.36 -23.28,74.85 -51.26,78.07l-499.79 57.6c-10.14,1.16 -20.32,0.85 -30.34,-0.96 -14.06,-2.45 -27.82,-7.72 -41.01,-15.78l-65.19 -39.78c-17.49,-10.74 -28.73,-36.31 -28.13,-64.27 2.9,-133.43 2.6,-264.63 -0.36,-392.79 -0.85,-36.44 -1.91,-72.63 -3.18,-108.53 15.8,1.84 32.84,7.69 49.89,20.17 49.32,88.37 106.1,132.53 186.73,-33.54 0,0 5.12,-13.15 16.96,-25.98 15.65,-17.09 43.09,-33.58 85.9,-18.33 33.12,11.76 75.48,42.61 128.78,106.91 86.38,104.28 129.53,91.32 151.05,51.79 7.91,-14.41 12.88,-32.34 16.03,-49.46 5.66,-30.5 5.51,-58.22 5.51,-58.22 0,0 31.25,-52.77 79.79,73.97 0.06,2.59 0.12,5.14 0.15,7.73 0.72,35.09 1.23,70.05 1.51,104.95 0.87,103.7 -0.13,206.19 -3.06,306.45z"/>
    <path class="fil40" d="M174.39 9558.33c-12.28,-6.41 -20.06,-19.48 -19.61,-33.47 2.92,-91.12 -2.63,-366.55 -5.49,-451.09 10.04,4.55 17,14.6 17.38,26.12 2.66,83.23 8,353.87 5.23,440.35 -0.17,5.67 0.7,12.93 2.49,18.09z"/>
    <path class="fil41" d="M164.05 8243.35c-3.21,-5.86 -8.09,-10.61 -14.1,-13.65 9.67,-4.68 20.2,-7.58 30.94,-8.42l232.48 -18.15c0.57,0.12 1.15,0.17 1.76,0.17 0.26,0 0.51,-0.01 0.77,-0.03 1.23,-0.09 2.48,-0.14 3.72,-0.14 8.9,0 17.35,2.53 24.55,7.02l-0.7 0.94 -13.73 1.07 -215.34 16.81 -7.99 0.64c-15.08,1.19 -29.57,5.92 -42.35,13.73z"/>
    <path class="fil41" d="M469.92 8209.04c-2.84,-3.53 -6.02,-6.73 -9.5,-9.57l227.67 -17.76c1.23,-0.09 2.46,-0.15 3.68,-0.15 9.74,0 18.93,3.03 26.53,8.33 -0.12,0 -0.24,0 -0.37,0 -1.44,0 -2.88,0.05 -4.33,0.16l-16.86 1.3 -197.59 15.41 -29.21 2.28z"/>
    <path class="fil41" d="M141.41 8755.74c-0.15,-0.03 -0.29,-0.08 -0.44,-0.12 -5.02,-1.48 -10.21,-3.92 -15.52,-7.45 -18.49,-164.24 -44.2,-305.3 -68.31,-415.24 -2.82,-12.83 1.53,-26.24 11.34,-35l55.89 -49.85c2.88,-2.55 6.5,-3.9 10.21,-3.9 1.51,0 3.05,0.22 4.55,0.69 4.86,1.47 8.47,4.96 10.06,9.68l-4.69 4.2 -0.07 0.02 -55.8 49.79c-12.26,10.96 -17.68,27.64 -14.17,43.72 26.98,122.99 50.27,258.61 66.94,403.46z"/>
    <path class="fil42" d="M804.95 9576.56l0.02 0 -0.02 0zm-113.18 -1392.07c-1.22,0 -2.45,0.06 -3.68,0.17l-507.19 45.96c-18.7,1.7 -36.73,10.62 -50.73,25.13l-61.68 63.89c-9.82,10.18 -14.16,25.75 -11.34,40.66 49.61,262.72 105.92,678.44 92.44,1166.9 -0.48,17.49 8.57,33.75 22.51,40.45l65.19 31.32c21.14,10.16 44.36,14.44 67.15,12.37l499.81 -45.3c23.43,-2.11 41.86,-24.18 42.87,-51.31 15.89,-426.63 -24.31,-896.61 -110.26,-1289.42 -5.3,-24.2 -23.92,-40.81 -45.08,-40.81zm-398.55 1448.45c-21.51,0 -43.01,-4.93 -62.88,-14.46l-65.19 -31.33c-20.89,-10.03 -34.44,-34.39 -33.73,-60.62 4.87,-175.98 0.62,-342.48 -9.11,-495.7 -17.17,-270.18 -51.41,-499.1 -82.92,-666 -4.22,-22.34 2.29,-45.69 17,-60.91l61.68 -63.9c16.95,-17.56 38.76,-28.37 61.41,-30.42l507.19 -45.96c31.5,-2.89 59.99,20.89 67.77,56.47 86.38,394.72 126.77,866.93 110.8,1295.52 -1.4,37.78 -27.03,68.5 -59.61,71.45l-499.8 45.29c-4.2,0.38 -8.42,0.57 -12.64,0.57z"/>
    <path class="fil42" d="M203.78 8467.28c-3.63,0 -7.06,-2.18 -8.46,-5.77 -1.84,-4.66 0.47,-9.93 5.14,-11.77 9.61,-3.77 19.73,-6.1 30.06,-6.93l507.22 -39.57c31.48,-2.42 52.19,20.63 59.97,51.24 -18.76,10.07 -30.77,14.19 -2.25,6.7 -4.87,1.25 -6.32,0.02 -7.57,-4.83 -5.59,-22.02 -26.17,-36.76 -48.74,-34.99l-507.19 39.56c-8.54,0.69 -16.91,2.61 -24.87,5.73 -1.08,0.43 -2.21,0.63 -3.31,0.63z"/>
    <path class="fil42" d="M242.71 8717.9c-3.73,0 -7.23,-2.32 -8.56,-6.03 -1.68,-4.73 0.78,-9.92 5.51,-11.6 8.7,-3.11 17.77,-5.05 26.98,-5.78l507.18 -39.57c31.49,-2.42 52.19,16.29 59.99,46.9 1.23,4.86 -1.69,9.81 -6.56,11.04 -4.86,1.25 -9.81,-1.69 -11.05,-6.56 -5.6,-22.04 -18.33,-35.02 -40.97,-33.27l-507.17 39.57c-7.61,0.61 -15.11,2.2 -22.3,4.78 -1,0.36 -2.04,0.52 -3.05,0.52z"/>
    <path class="fil42" d="M583.47 9023.29c-4.83,0 -8.86,-3.82 -9.07,-8.7 -1.62,-37.73 -3.82,-76.05 -6.52,-113.89 -16.46,-232.3 -52.15,-461.38 -103.23,-662.45 -5.59,-22.05 -26.12,-36.76 -48.74,-34.97 -5,0.43 -9.38,-3.34 -9.77,-8.34 -0.4,-5.01 3.34,-9.38 8.35,-9.77 31.53,-2.47 59.99,17.97 67.77,48.61 51.34,202.1 87.22,432.28 103.75,665.64 2.71,37.99 4.91,76.48 6.56,114.39 0.22,5.02 -3.68,9.26 -8.69,9.47 -0.13,0.01 -0.27,0.01 -0.4,0.01z"/>
    <polygon class="fil42" points="360.77,8198.31 360.17,8198.31 360.85,8198.28 "/>
    <polygon class="fil42" points="360.95,8198.31 360.85,8198.28 403.76,8195.68 "/>
    <path class="fil42" d="M447.04 8206.25l-16.24 -12.21c0,0 7.42,2.93 16.24,12.21z"/>
    <path class="fil37" d="M210.81 8446.29l0 -0.01 42.44 -45.19 181.58 -13.23c7.9,-0.57 13.47,-7.99 11.87,-15.71 -8.97,-42.85 -18.62,-84.9 -29.01,-125.97l25.77 -35.08 1.93 -0.15c9.28,6.21 16.31,15.75 19.24,27.3 14.94,58.85 28.58,120.09 40.8,183.11l-274.92 21.45c-6.69,0.54 -13.28,1.7 -19.71,3.48z"/>
    <path class="fil43" d="M443.46 8211.1l0.7 -0.94c0.41,0.26 0.83,0.52 1.23,0.79l-1.93 0.15z"/>
    <path class="fil42" d="M212.14 8453.15c-0.44,-2.29 -0.89,-4.58 -1.33,-6.86 6.43,-1.78 13.02,-2.95 19.71,-3.48l274.92 -21.45c0.5,2.6 1,5.18 1.5,7.78l-47.88 4.75c-0.3,-1.61 -0.61,-3.18 -0.91,-4.75l-189.49 15.41 1.51 4.3 -58.03 4.31z"/>
    <path class="fil42" d="M506.94 8429.14c-0.5,-2.6 -1,-5.18 -1.5,-7.78 -12.22,-63.02 -25.86,-124.26 -40.8,-183.11 -2.93,-11.55 -9.96,-21.09 -19.24,-27.3 -0.41,-0.27 -0.83,-0.54 -1.23,-0.79l2.88 -3.91c8.54,8.93 18.34,23.81 24.06,47.6 14.57,55.11 27.46,113.61 38.91,174.99l-3.07 0.3z"/>
    <path class="fil37" d="M250.61 8697.02c-0.03,-0.33 -0.08,-0.68 -0.12,-1.01l43.48 -49.78 171.3 -14.41c14.1,-1.19 24.25,-14.02 22.22,-28.04 -5.75,-40.03 -12.11,-79.72 -19.08,-118.93l41.02 -42.56c14.05,74.78 26.1,151.94 36.02,230.45l-278.81 21.76c-5.4,0.43 -10.76,1.27 -16.04,2.53z"/>
    <path class="fil42" d="M251.9 8707.36c-0.42,-3.45 -0.85,-6.89 -1.29,-10.34 5.28,-1.26 10.63,-2.1 16.04,-2.53l278.81 -21.76c0.56,4.53 1.13,9.05 1.69,13.59l-48.58 0 -0.54 -4.1c-0.1,-0.85 -0.22,-1.7 -0.34,-2.54l0.34 2.54c0.17,1.36 0.34,2.73 0.51,4.1l-10.3 0 -0.06 0.56 -168.18 9.31 1.61 3.12 -20.61 2.39 -49.1 5.66z"/>
    <path class="fil42" d="M548.5 8686.33l-1.36 0c-0.56,-4.54 -1.13,-9.06 -1.69,-13.59 -9.92,-78.51 -21.98,-155.67 -36.02,-230.45l2.59 -2.68c14.26,78.03 26.25,160.61 36.49,246.72z"/>
    <path class="fil37" d="M566.96 8888.14c-17.9,-4.33 -34.16,-7.28 -49.14,-9.13 -3.67,-47.69 -8.14,-95.35 -13.42,-142.76l43.26 -45.46 0.01 0c7.93,65.08 14.4,131.08 19.29,197.35z"/>
    <path class="fil42" d="M547.66 8690.79l0.01 -0.01c0,0.01 0,0 0,0.01l-0.01 0z"/>
    <path class="fil42" d="M568.94 8888.63c-0.66,-0.16 -1.32,-0.34 -1.98,-0.49 -4.89,-66.27 -11.36,-132.27 -19.29,-197.35 0,-0.01 0,0 0,-0.01l1.19 -1.25c7.59,64.53 14.23,131.02 20.08,199.1z"/>
    <path class="fil44" d="M714.94 9076.82c-25.99,0 -61.4,-17.84 -103.98,-52.65 -62.11,-50.76 -116.59,-77.08 -162.47,-78.5 8.06,-2.39 17.4,-3.89 28.13,-3.89 36.33,0 88.57,17.28 160.99,76.48 39.45,32.24 69.89,47.91 93.36,52.91 -0.48,1.18 -0.98,2.34 -1.49,3.47 -4.45,1.46 -9.31,2.18 -14.53,2.18z"/>
    <path class="fil42" d="M498.56 8686.33l-0.02 0c-0.17,-1.37 -0.34,-2.74 -0.51,-4.1l0.54 4.1z"/>
    <path class="fil42" d="M498.03 8682.23l-0.34 -2.54c0.12,0.84 0.23,1.69 0.34,2.54z"/>
    <polygon class="fil45" points="488.15,8687.26 488.19,8686.88 498.54,8686.33 "/>
    <polygon class="fil45" points="488.19,8686.88 488.24,8686.33 498.54,8686.33 "/>
    <path class="fil38" d="M253.43 8907.06c-105.58,-7.29 -122.06,-105.42 -122.72,-109.73 -0.01,-0.09 -0.02,-0.17 -0.05,-0.26 -1.67,-16.5 -3.4,-32.82 -5.22,-48.88 5.31,3.52 10.49,5.95 15.52,7.43 0.15,0.03 0.3,0.08 0.44,0.12 3.83,1.07 7.57,1.6 11.23,1.6 35.41,0 62.4,-48.3 73.87,-104.19 2.5,18.17 4.9,36.47 7.16,54.76 -0.13,1.29 0.01,2.64 0.48,3.96 0.01,0.01 0.01,0.01 0.01,0.02 7.93,64.57 14.36,129.77 19.26,195.17z"/>
    <path class="fil46" d="M141.41 8755.74c-0.14,-0.03 -0.29,-0.08 -0.44,-0.12 0.15,0.03 0.29,0.08 0.44,0.12z"/>
    <path class="fil42" d="M130.66 8797.07c-0.49,-2.68 -2.14,-5 -4.52,-6.32 -1.36,-0.76 -2.89,-1.14 -4.43,-1.14 -0.31,0 -0.63,0.01 -0.93,0.05 -1.69,-16.41 -3.47,-32.73 -5.32,-48.89 0.4,18.05 2.03,34.33 4.72,48.97 0,0 -0.01,0 -0.01,0.01 -2.71,-14.76 -4.33,-31.14 -4.72,-49.36 3.38,3.03 6.71,5.61 9.99,7.8 1.82,16.06 3.55,32.38 5.22,48.88z"/>
    <path class="fil42" d="M234.16 8711.89c0,-0.01 0,-0.01 -0.01,-0.02 -0.47,-1.32 -0.61,-2.67 -0.48,-3.96 0.16,1.33 0.33,2.66 0.49,3.98z"/>
    <path class="fil42" d="M264.84 8907.48c-3.92,-0.02 -7.72,-0.16 -11.41,-0.42 -4.9,-65.41 -11.33,-130.6 -19.26,-195.17 -0.16,-1.33 -0.33,-2.66 -0.49,-3.98 -2.26,-18.3 -4.66,-36.59 -7.16,-54.76 2.07,-10.05 3.63,-20.37 4.66,-30.69l33.67 285.02z"/>
    <path class="fil42" d="M265.91 8916.57c-65.01,-4.91 -128.18,-31.26 -145.74,-126.82 0,-0.01 0.01,-0.01 0.01,-0.01 0.4,2.13 0.82,4.22 1.26,6.28 -0.22,-2.12 -0.43,-4.24 -0.65,-6.36 0.3,-0.03 0.62,-0.05 0.93,-0.05 1.54,0 3.06,0.38 4.43,1.14 2.38,1.33 4.03,3.65 4.52,6.32 0.02,0.08 0.03,0.16 0.05,0.26 0.66,4.31 17.14,102.44 122.72,109.73 3.69,0.26 7.49,0.4 11.41,0.42l1.07 9.08z"/>
    <path class="fil42" d="M120.18 8789.73c-2.69,-14.64 -4.32,-30.92 -4.72,-48.97 1.85,16.17 3.63,32.48 5.32,48.89 -0.2,0.02 -0.4,0.05 -0.61,0.08z"/>
    <path class="fil42" d="M121.44 8796.01c-0.44,-2.06 -0.86,-4.15 -1.26,-6.28 0.21,-0.03 0.41,-0.06 0.61,-0.08 0.22,2.12 0.43,4.24 0.65,6.36z"/>
    <path class="fil47" d="M729.48 9074.64c0.51,-1.13 1.01,-2.29 1.49,-3.47 1.58,0.34 3.14,0.63 4.67,0.87 -0.47,0.24 -0.96,0.48 -1.43,0.71 -1.53,0.73 -3.1,1.36 -4.73,1.89z"/>
    <path class="fil42" d="M736.75 9081.57l-9.21 -2.77c0.68,-1.36 1.32,-2.75 1.94,-4.16 1.63,-0.52 3.2,-1.15 4.73,-1.89 0.48,-0.23 0.97,-0.47 1.43,-0.71 33.09,-17.5 33.09,-78 33.08,-78.61 -0.01,-2.22 0.79,-4.38 2.25,-6.06 3.63,-4.16 12.62,-10.48 24.96,-10.48 1.49,0 3.02,0.09 4.61,0.29 22.37,2.81 45.15,25.26 67.77,66.8 10.32,-9.91 27.75,-30.36 35.67,-61.19 -0.59,4.4 2.12,8.69 6.51,9.95 -10.11,31.27 -29.05,51.55 -38.79,60.4 1.08,-2.91 1.21,-3.99 0.8,-3.99 -1.2,0 -6.95,9.14 -6.95,9.14 -30.16,-59.49 -54.4,-72.32 -69.69,-72.32 -11.6,0 -18.05,7.38 -18.05,7.38 0,0.17 0.02,4.79 -0.62,11.87 -0.66,7.28 -2.04,17.18 -4.88,27.56l-0.01 0c-0.96,3.52 -2.08,7.09 -3.41,10.64 -1.86,4.98 -4.13,9.92 -6.87,14.56 -1.72,2.89 -3.62,5.67 -5.73,8.28l0 0.03c-5.17,6.41 -11.59,11.79 -19.53,15.28zm167.72 -100.71c2.66,-11.06 4.09,-23.44 3.54,-37.11 -0.14,-3.55 1.78,-6.71 4.69,-8.33l4.38 7.95c0.45,11.41 -0.38,22 -2.17,31.75 -0.64,-0.14 -1.29,-0.21 -1.93,-0.21 -3.74,0 -7.19,2.32 -8.51,5.94zm-66.78 -94.02c-3.41,-2.77 -6.74,-4.83 -9.83,-5.93 27.31,-11.08 43.36,-20.79 43.36,-20.79l4.39 7.97c-2.71,1.62 -16.25,9.49 -37.92,18.75z"/>
    <path class="fil42" d="M910.49 8992.74c-4.39,-1.26 -7.1,-5.54 -6.51,-9.95 0.06,-0.41 0.14,-0.82 0.26,-1.22 0.07,-0.24 0.14,-0.48 0.23,-0.71 1.33,-3.62 4.78,-5.94 8.51,-5.94 0.64,0 1.29,0.07 1.93,0.21 -1.14,6.21 -2.64,12.08 -4.43,17.61z"/>
    <path class="fil42" d="M293.17 9622.4c-6.15,0 -12.29,-0.42 -18.35,-1.28 -2.73,-0.94 -4.24,-1.5 -4.24,-1.5 44.48,-4.05 87.15,-9.47 127.39,-16.76l406.28 -36.83c23.43,-2.11 41.86,-24.18 42.87,-51.31 3.97,-106.61 4.44,-215.94 1.56,-326.07 2.85,5.74 5.78,12.04 8.78,18.93 0.21,0.49 0.45,0.94 0.73,1.39 0.02,1.11 0.05,2.22 0.07,3.34 0.45,20.67 0.78,41.29 1,61.85 0.87,81.56 -0.13,162.17 -3.06,241.01 -1.21,32.53 -23.28,58.87 -51.26,61.4l-499.79 45.29c-3.99,0.36 -8,0.54 -11.98,0.54zm511.78 -45.84l0.02 0 -0.02 0zm-655.7 -357.17c-3.07,-0.61 -6.11,-1.07 -9.12,-1.42 -0.75,-25.04 -1.64,-49.92 -2.71,-74.64 3.02,0.3 6.06,0.73 9.14,1.29 1.05,24.64 1.96,49.56 2.69,74.77z"/>
    <path class="fil42" d="M267.59 9111.46c-0.61,0 -1.21,-0.01 -1.82,-0.02 -0.7,-0.02 -1.4,-0.07 -2.1,-0.13 -30.75,-2.36 -57.49,-32.05 -83.84,-93.07 -11.23,-5.19 -22.45,-8.35 -33.27,-10.04 -3.09,-0.49 -6.13,-0.85 -9.14,-1.11 -0.15,-3.09 -0.3,-6.16 -0.47,-9.24 15.8,1.25 32.85,5.21 49.89,13.66 23.41,55.2 49.58,90.85 80.75,90.85 30.01,0 64.67,-33.06 105.98,-113.56 0,0 5.12,-8.9 16.96,-17.6 26.89,-6.49 53.35,-12.24 85.9,-12.42 33.12,7.97 75.48,28.86 128.78,72.41 49.3,40.27 84.51,54.73 109.68,54.73 8.34,0 15.58,-1.6 21.86,-4.36l0.02 0.01c11.18,-4.94 19.31,-13.59 25.24,-23.61 2.75,-4.64 5.01,-9.56 6.87,-14.56 1.34,-3.55 2.47,-7.13 3.42,-10.64l0.02 0c2.82,-10.38 4.19,-20.28 4.86,-27.56 0.64,-7.08 0.62,-11.69 0.62,-11.87 0,0 6.45,-7.38 18.05,-7.38 13.92,0 35.25,10.64 61.74,57.46 0.06,1.75 0.12,3.48 0.15,5.24 0.15,4.97 0.3,9.95 0.44,14.92 -0.28,-0.37 -0.52,-0.77 -0.73,-1.18 -3,-5.94 -5.93,-11.36 -8.78,-16.31 -23.51,-40.95 -41.11,-49.56 -50.02,-50.85 -0.94,-0.13 -1.85,-0.19 -2.71,-0.19 -4.11,0 -7.21,1.37 -9.13,2.6 -0.63,16.34 -5.65,72.73 -44.71,91.46 -8.16,3.91 -17.17,5.86 -27.01,5.86 -30.68,0 -69.41,-18.98 -115.61,-56.75 -72.51,-59.27 -122.93,-74.4 -155.49,-74.4 -6.04,0 -11.46,0.52 -16.31,1.37 -31.53,5.58 -44.8,25.84 -46.14,28.02 -35.48,69.05 -68.27,107.33 -99.73,116.21 -4.76,1.35 -9.5,2.01 -14.21,2.01z"/>
    <path class="fil42" d="M736.77 9081.58l-0.02 -0.01c7.94,-3.49 14.36,-8.87 19.53,-15.28l0 -0.03c2.11,-2.61 4.01,-5.39 5.73,-8.28 -5.93,10.02 -14.06,18.67 -25.24,23.61zm32.11 -38.17c1.33,-3.55 2.46,-7.13 3.41,-10.64l0.01 0c-0.96,3.52 -2.08,7.09 -3.42,10.64zm8.3 -38.2c0.64,-7.08 0.62,-11.69 0.62,-11.87 0,0.17 0.02,4.79 -0.62,11.87zm0.62 -11.87l0 0z"/>
    <path class="fil42" d="M927.46 8995.26c-5.24,0 -10.9,-0.83 -16.91,-2.5 -4.83,-1.35 -7.65,-6.35 -6.31,-11.18 1.34,-4.83 6.35,-7.65 11.18,-6.31 21.66,6.02 27.99,-3.76 30.86,-11.63 7.87,-21.67 -0.83,-64.21 -21.63,-105.85 -23.55,-47.14 -56.46,-82.99 -90.31,-98.34 -4.57,-2.07 -6.59,-7.45 -4.51,-12.03 2.06,-4.57 7.44,-6.59 12.02,-4.51 37.56,17.04 73.66,55.96 99.04,106.76 23.62,47.26 32.21,93.31 22.44,120.18 -6.04,16.62 -18.74,25.41 -35.88,25.42z"/>
    <path class="fil48" d="M343.09 9349.34c-25.31,56.25 -23.13,111.26 23.14,155.92 52.97,51.14 173.44,18.46 226.57,-6.65 109.55,-51.77 275.1,-179.61 241.91,-287 -10.8,-34.94 -29.63,-68 -64.77,-82.73 -32.33,-13.54 -74.79,-21.85 -107.64,-12.82 -43.9,12.09 -92.1,29.37 -130.95,52.83 -47.17,28.46 -91.95,64.24 -133.43,100.51 -15.2,13.29 -26.52,30.97 -40.38,45.65 -4.57,4.82 -11.63,28.45 -14.45,34.29z"/>
    <path class="fil48" d="M340.86 9318.09c10.58,-23.49 43.57,-52.88 63.25,-70.14 35.24,-30.89 73.2,-59.02 113.33,-83.25 35.32,-21.31 73.3,-40.18 113.2,-51.15 39.48,-10.87 82.21,-13.79 120.74,2.34 44.82,18.77 71.43,57.67 85.4,102.87 4.51,14.6 6.25,29.79 5.16,45.05 -7.65,105.9 -149.68,190.7 -234.33,234.91 -40.74,21.28 -88.05,41.33 -134.35,44.19 -37.82,2.33 -73.34,-7.44 -101.03,-34.17 -54.67,-52.78 -61.83,-122.96 -31.38,-190.65zm13.7 6.16c9.13,-20.29 42.13,-49.81 59.46,-65 34.5,-30.25 71.91,-57.98 111.19,-81.69 34.02,-20.52 71.02,-38.97 109.43,-49.53 36.12,-9.95 75.66,-13.07 110.96,1.71 40.61,17.02 64.23,52.62 76.86,93.46 3.97,12.85 5.5,26.11 4.53,39.53 -7.14,98.75 -147.44,181.5 -226.3,222.69 -38.57,20.14 -84.5,39.8 -128.33,42.5 -33.55,2.07 -65.03,-6.21 -89.67,-29.98 -50.11,-48.38 -55.95,-111.84 -28.11,-173.7z"/>
    <path class="fil49" d="M370.81 9331.56c7.45,-16.56 41.19,-46.85 54.95,-58.91 33.52,-29.38 70.5,-56.8 108.65,-79.83 32.41,-19.55 68.35,-37.55 104.95,-47.61 32.13,-8.84 71.63,-14.09 103.09,-0.91 35.56,14.9 55.68,46.62 66.7,82.27 32.3,104.52 -142.05,204.02 -216.74,243.04 -35.88,18.74 -80.24,37.99 -121.17,40.51 -28.55,1.76 -58.99,-1.04 -79.94,-21.27 -44.78,-43.22 -45.13,-102.52 -20.49,-157.3zm10.39 4.68c17.54,-38.97 348.7,-327.56 417.07,-106.3 29.24,94.64 -136.51,190.59 -211.14,229.56 -97.16,50.74 -156.12,51.86 -187.93,21.16 -43.22,-41.73 -39.32,-97.06 -18.01,-144.43z"/>
    <polygon class="fil49" points="445.22,9323.92 517.54,9453.17 527.94,9437.29 497.06,9394.36 556.07,9427.08 565.33,9390.5 498.31,9384.45 525.01,9327.92 490.48,9318.52 488.27,9368.25 462.18,9321.11 "/>
    <polygon class="fil49" points="526.11,9346.09 531.99,9360.04 554.13,9335.1 594.36,9398.16 610.42,9390.37 561.06,9330.25 585.04,9317.79 571.61,9299.21 554.63,9317.97 "/>
    <polygon class="fil49" points="557.32,9245.54 629.62,9374.78 640.02,9358.91 609.15,9315.98 668.16,9348.7 677.42,9312.11 610.39,9306.07 637.11,9249.54 602.57,9240.14 600.35,9289.87 574.27,9242.72 "/>
    <polygon class="fil49" points="638.19,9267.71 644.07,9281.66 666.21,9256.72 706.44,9319.78 722.5,9311.99 673.14,9251.87 697.12,9239.41 683.71,9220.83 666.72,9239.59 "/>
    <path class="fil50" d="M397.96 9608.06c151.59,-27.45 268.53,-81.34 316.05,-188.22 17.48,-39.34 1.13,-226.06 -34.32,-242.27 -20.35,-9.31 -44.91,-26.6 -74.57,-54.75 -6.7,-6.36 -13.22,-12.31 -19.58,-17.85 -62.36,-54.45 -108.44,-70.97 -141.41,-70.97 -51.02,0 -70.65,39.59 -70.65,39.59 -34.4,77.88 -70.27,121.45 -96.62,132.51 -7.78,13.54 -3.95,-68.97 -4.17,-95.18 31.46,-16.82 74.65,-48.26 108.82,-116.77 1.35,-2.53 12.9,-22.16 44.42,-28.64 4.84,-0.99 12.43,-1.16 18.47,-1.16 32.58,0 90.35,4.15 162.86,72.98 46.2,43.86 78,51.19 108.69,51.19 9.84,0 17.97,3.8 26.13,-0.76 39.06,-21.73 44.08,-69.89 44.71,-88.87 1.91,-1.42 5.02,-4.75 9.13,-4.75 0.86,0 5.24,-2.54 6.18,-2.39 8.91,1.5 19.57,2.82 43.08,50.38 2.88,110.14 5.88,371.19 1.91,477.79 -1.01,27.15 -19.44,49.21 -42.87,51.33l-406.28 36.83zm-134.91 -400.94c-29.98,-2.32 -53.56,-44.9 -76.3,-107.16 -12.67,-7.3 -35.74,-13.01 -47.9,-15.39 -0.73,-25.21 -5.54,-59.23 -6.6,-83.88 10.82,1.97 41.12,9.1 52.35,15.13 33.3,75.21 42.25,80.22 73.87,95.09 0.55,24.91 4.39,71.4 4.58,96.2z"/>
    <path class="fil42" d="M246.03 9622.87c-4.27,0 -8.55,-0.97 -12.6,-2.91 -4.64,-2.22 -6.84,-8.4 -4.93,-13.78 1.92,-5.39 7.23,-7.94 11.87,-5.72 4.52,2.18 9.47,1.68 13.6,-1.37 4.12,-3.04 6.62,-8.02 6.85,-13.7 17.84,-434.74 -22.71,-913.96 -111.27,-1314.76 -1.36,-6.15 -5.16,-10.75 -10.41,-12.61 -5.21,-1.84 -10.75,-0.43 -14.8,3.77 -3.75,3.88 -9.48,3.51 -12.82,-0.85 -3.34,-4.34 -3.02,-11.01 0.72,-14.9 8.84,-9.14 20.87,-12.22 32.2,-8.21 11.29,3.99 19.78,14.29 22.71,27.54 88.99,402.77 129.75,884.26 111.82,1321.03 -0.5,12.43 -6.22,23.83 -15.26,30.5 -5.36,3.95 -11.51,5.96 -17.68,5.96z"/>
    <path class="fil51" d="M871.69 9053.14l0 0.03c-3.75,3.39 -6.15,5.11 -6.15,5.11 -53.05,-104.61 -87.74,-64.94 -87.74,-64.94 0,0 0.57,69.88 -41.03,88.23 -25.19,11.08 -65.88,3.3 -131.56,-50.38 -174.1,-142.32 -231.64,-42.39 -231.64,-42.39 -84.2,164.08 -140.76,131.1 -186.73,22.71 -64.13,-31.79 -127.98,0 -127.98,0l42.21 -99.93 -59.05 -28.77c21.2,-59.04 79.7,-84.13 79.7,-84.13 0,0 17.87,117.8 144.18,117.87 46.38,0.02 80.26,-7.73 112.19,-15.49 55.08,-13.37 104.36,-26.75 202.02,-0.16 101.43,27.61 195.3,1.29 247.71,-20l0.03 0c27.31,-11.08 43.36,-20.79 43.36,-20.79l45.86 83.26c2.4,59.86 -31.21,96.9 -45.39,109.76z"/>
    <path class="fil44" d="M267.54 9093.29c-0.36,0 -0.73,0 -1.11,-0.01 -23.62,-0.87 -47.59,-29.56 -71.24,-85.3 -0.85,-2 -2.38,-3.62 -4.32,-4.59 -22.93,-11.38 -45.69,-15.16 -65.84,-15.16 -0.7,0 -1.4,0 -2.08,0.01 9.93,-2.15 21.72,-3.79 34.61,-3.79 6.69,0 13.66,0.44 20.84,1.47 22.65,3.27 42.23,17.57 52.51,38.01 17.11,34 35.75,57.04 56.74,63.6 -6.94,3.83 -13.65,5.75 -20.11,5.75zm-192.11 -97.67l34 -80.49c1.89,-4.44 -0.05,-9.59 -4.39,-11.69l-51.45 -25.07c14.76,-33.59 42.6,-54.47 58.92,-64.42 -12.85,11.82 -25.93,27.56 -34.76,47.62 -2.01,4.58 0.02,9.96 4.52,12.15l35.73 17.4c8.68,4.24 12.53,14.51 8.78,23.4l-32.33 76.54c-7.13,1.3 -13.53,2.92 -19.01,4.57z"/>
    <path class="fil42" d="M267.59 9111.46c-0.61,0 -1.21,-0.01 -1.82,-0.02 -31.63,-1.16 -58.99,-30.79 -85.94,-93.2 -58.15,-26.93 -116.35,1.13 -116.94,1.42 -3.39,1.68 -7.49,1.08 -10.25,-1.53 -2.76,-2.61 -3.62,-6.65 -2.14,-10.14l38.85 -92 -51.3 -24.99c-4.17,-2.03 -6.14,-6.87 -4.57,-11.23 22.27,-62.05 82.12,-88.34 84.66,-89.43 2.59,-1.11 5.54,-0.96 8,0.41 2.46,1.36 4.15,3.8 4.57,6.58 0.69,4.47 18.42,110.08 135.2,110.15 0.09,0 0.17,0 0.27,0 47.26,0 81.25,-8.28 114.12,-16.28 53.92,-13.15 104.87,-25.56 202.19,0.93 148.81,40.51 282.68,-38.97 284.02,-39.77 4.3,-2.6 9.88,-1.22 12.47,3.07 2.6,4.29 1.22,9.88 -3.07,12.47 -5.72,3.46 -141.95,84.29 -298.2,41.75 -92.8,-25.26 -139.29,-13.93 -193.12,-0.82 -33.93,8.26 -68.99,16.81 -118.42,16.81 -0.09,0 -0.17,0 -0.28,0 -107.72,-0.07 -141.37,-82.07 -150.31,-113.53 -15.65,9.05 -46.27,30.43 -62.01,66.25l51.45 25.07c4.34,2.11 6.28,7.26 4.39,11.69l-34 80.49c25.18,-7.52 69.97,-14.78 115.44,7.77 1.94,0.97 3.47,2.59 4.32,4.59 23.65,55.74 47.62,84.43 71.24,85.3 28.37,0.97 61.55,-35.51 99.07,-108.6 0.06,-0.14 0.13,-0.27 0.2,-0.4 0.7,-1.19 17.32,-29.34 58.14,-36.84 50.55,-9.27 113.48,16.55 187.12,76.73 54.3,44.38 96.91,61.19 123.24,48.59 34.52,-16.5 34.52,-78.71 34.51,-79.32 -0.01,-2.22 0.79,-4.38 2.25,-6.06 4.06,-4.65 14.87,-12.04 29.57,-10.19 22.37,2.81 45.15,25.26 67.77,66.8 14.19,-13.63 41.82,-47.18 39.7,-100.23 -0.2,-5.01 3.7,-9.24 8.71,-9.43 5.02,-0.2 9.25,3.69 9.45,8.7 3.18,79.67 -52.92,120.94 -55.31,122.65 -2.15,1.55 -4.87,2.08 -7.45,1.46 -2.57,-0.64 -4.75,-2.36 -5.95,-4.72 -27.92,-55.08 -48.82,-65.71 -58.8,-67.15 -5.49,-0.77 -9.53,0.94 -11.84,2.41 -0.63,16.34 -5.65,72.73 -44.71,91.46 -33.61,16.11 -81.61,-1.01 -142.62,-50.9 -85.96,-70.26 -140.86,-78.49 -171.8,-73.02 -31.53,5.58 -44.8,25.84 -46.14,28.02 -40.86,79.52 -78.15,118.22 -113.94,118.22z"/>
    <path class="fil52" d="M735.64 9072.05c-1.53,-0.24 -3.09,-0.54 -4.67,-0.86 9.1,-22.05 13.65,-49.44 13.61,-82.17 -0.02,-27.15 18.84,-43.91 42.11,-43.91 7.49,0 15.43,1.72 23.35,5.42 10.9,5.09 20.94,15.54 37.85,20.02 4.47,1.19 8.33,1.74 11.61,1.74 35.37,0 4.4,-64.09 -21.83,-85.44 21.67,-9.26 42.15,-26.67 44.86,-28.29l32.76 72.55c-2.92,1.62 -7.44,9.1 -7.3,12.67 0.55,13.66 -0.87,26.03 -3.54,37.09 -0.09,0.23 -0.17,0.47 -0.23,0.71 -0.12,0.41 -0.2,0.82 -0.26,1.21 -7.92,30.84 -25.35,51.29 -35.67,61.2 -22.62,-41.53 -45.4,-63.99 -67.77,-66.8 -1.6,-0.2 -3.12,-0.29 -4.61,-0.29 -12.33,0 -21.32,6.32 -24.96,10.48 -1.46,1.67 -2.26,3.83 -2.25,6.06 0.01,0.61 0.01,61.11 -33.08,78.61z"/>
    <path class="fil52" d="M927.48 8977.13c-1.14,0 -2.34,-0.07 -3.62,-0.2 1.89,-10.39 2.8,-21.7 2.31,-33.9 -0.2,-4.88 -4.23,-8.71 -9.08,-8.71 -0.12,0 -0.23,0 -0.36,0.01 -1.46,0.05 -2.82,0.44 -4.01,1.11l-37.11 -67.34c0.13,-0.07 0.23,-0.14 0.31,-0.19 4.3,-2.6 5.67,-8.19 3.07,-12.49 -1.71,-2.82 -4.71,-4.38 -7.78,-4.38 -1.61,0 -3.23,0.43 -4.69,1.32 -0.21,0.13 -16.58,12.53 -22.66,15.68 -2.28,-30.13 -10.96,-94.88 -13.87,-124.89 28.52,18.05 76.27,66.55 96.4,106.82 20.8,41.65 27.77,91.98 19.88,113.66 -2.24,6.17 -6.6,13.5 -18.79,13.5z"/>
   </g>
   <path class="fil17" d="M248.61 9475.18c-108.03,-30.86 -185.14,-61.71 -200.6,0 -15.47,61.71 61.71,92.57 169.74,108.03 108.03,30.85 185.14,15.45 185.14,-15.47 15.41,-30.85 -61.71,-61.71 -154.28,-92.57z"/>
   <path class="fil17" d="M233.15 9320.88c-123.43,-30.85 -200.61,-61.71 -216.01,0 -15.45,61.71 77.17,92.58 185.14,123.43 123.43,30.86 216.01,30.86 231.46,-15.45 15.4,-30.79 -92.58,-77.11 -200.6,-107.97z"/>
   <path class="fil17" d="M233.15 9182.06c-123.43,-30.85 -216.01,-61.71 -231.46,15.45 -15.45,77.18 77.17,92.58 200.6,123.43 123.43,30.86 231.46,30.86 246.86,0 15.45,-61.77 -92.57,-108.02 -216,-138.88z"/>
   <path class="fil17" d="M233.15 9027.78c-108.03,-46.32 -185.14,-77.18 -216.01,0 -30.85,77.17 61.71,77.17 169.75,123.43 108.03,46.31 200.6,61.71 231.46,30.85 15.4,-46.32 -77.18,-108.03 -185.2,-154.28z"/>
  </g>
 </g>
</svg>
