<?xml version="1.0" encoding="UTF-8"?>
<!DOCTYPE svg PUBLIC "-//W3C//DTD SVG 1.1//EN" "http://www.w3.org/Graphics/SVG/1.1/DTD/svg11.dtd">
<!-- Creator: CorelDRAW -->
<svg xmlns="http://www.w3.org/2000/svg" xml:space="preserve" width="200px" height="693px" version="1.1" style="shape-rendering:geometricPrecision; text-rendering:geometricPrecision; image-rendering:optimizeQuality; fill-rule:evenodd; clip-rule:evenodd"
viewBox="0 0 207.15 717.3"
 xmlns:xlink="http://www.w3.org/1999/xlink">
 <defs>
  <style type="text/css">
   <![CDATA[
    .fil12 {fill:none}
    .fil22 {fill:white}
    .fil15 {fill:black}
    .fil1 {fill:#231F20}
    .fil3 {fill:#3A2323}
    .fil5 {fill:#492E2E}
    .fil10 {fill:#721011}
    .fil14 {fill:#734015}
    .fil19 {fill:#8C5D2B}
    .fil0 {fill:#997373}
    .fil9 {fill:#A91E22}
    .fil21 {fill:#B8B8D9}
    .fil13 {fill:#BD2226}
    .fil11 {fill:#DD1F26}
    .fil18 {fill:#E2E2FB}
    .fil7 {fill:#ED2024}
    .fil17 {fill:#EF2424}
    .fil8 {fill:#F4E6E6}
    .fil20 {fill:#F89191}
    .fil16 {fill:#FA7B7B}
    .fil4 {fill:#FBFEFF}
    .fil2 {fill:#FFC4B2}
    .fil6 {fill:white}
    .fil23 {fill:#734015;fill-rule:nonzero}
   ]]>
  </style>
   <clipPath id="id0">
    <path d="M105.48 148.23c1.32,-8.66 3.19,-17.33 5.48,-25.79 2.92,-7.42 0.88,-8.83 10.25,-16.78 5.85,-5.53 13.04,-9.49 20.84,-11.49 2.59,-0.57 5.25,-0.86 7.9,-0.86 2.66,0 5.32,0.29 7.91,0.86 2.12,1.06 5.74,3.18 5.74,3.18l3.53 2.38c-2.28,-0.71 -4.67,-1.07 -7.07,-1.07 -0.26,0 -0.53,0.01 -0.79,0.01 -5.38,0.02 -10.71,1.05 -15.72,3.01 -5.5,2.36 -10.77,5.34 -15.64,8.83 -5.75,4.6 -9.73,11.08 -11.22,18.29 -2.03,7.86 -4.33,21.55 -4.33,21.55l-6.89 -2.12 0.01 0z"/>
   </clipPath>
 </defs>
 <g id="Layer_x0020_1">
  <metadata id="CorelCorpID_0Corel-Layer"/>
  <path class="fil0" d="M207.15 664.83c0,28.97 -41.69,52.47 -93.19,52.47 -51.51,0 -93.29,-23.5 -93.29,-52.47 0,-28.98 41.79,-52.47 93.29,-52.47 51.5,0 93.19,23.67 93.19,52.47z"/>
  <path class="fil1" d="M97.17 637.89l0 -5.39 19.88 14.22 37.54 14.58 10.87 -3.36 0.79 9.36c-2.74,2.07 -6.02,3.3 -9.45,3.54 -9.52,-0.89 -18.81,-3.54 -27.39,-7.78 -9.9,-4.99 -19.37,-10.93 -28.18,-17.65 -1.88,-2.19 -3.27,-4.75 -4.06,-7.52l0 0 0 0z"/>
  <path class="fil1" d="M53 661.12l0 -5.3 19.88 14.13 37.54 14.67 10.87 -3.45 0.79 9.37c-2.73,2.07 -6.02,3.3 -9.45,3.53 -9.53,-0.8 -18.83,-3.42 -27.38,-7.69 -9.87,-5.02 -19.35,-10.97 -28.18,-17.66 -1.9,-2.2 -3.29,-4.8 -4.07,-7.6l0 0 0 0z"/>
  <path class="fil2" d="M133.74 647.52c-8.83,-4.6 -17.66,-10.25 -15.19,-15.46 1.67,-2.29 4.25,-3.74 7.07,-3.98 4.35,1.29 8.65,2.92 12.8,4.77 4.15,1.84 -0.97,-93.99 -4.59,-114.31 -1.15,-6.71 31.1,-6.98 31.1,-6.98 1.14,4.77 2.21,90.64 0,115.9 -0.35,2.92 -0.53,5.89 -0.53,8.84 0,2.94 0.18,5.91 0.53,8.83 -2.21,0.97 -6.71,2.92 -10.07,4.51 -2.65,0.89 -5.43,1.35 -8.23,1.35 -4.52,0 -8.98,-1.2 -12.89,-3.48l0 0.01 0 0z"/>
  <path class="fil3" d="M166.78 658.38c-3.09,7.33 -10.16,6.63 -24.56,1.41 -11.54,-3.83 -22.5,-9.39 -32.42,-16.42 -8.84,-6.72 -8.84,-7.69 -10.34,-12.19 -1.68,-6.36 7.6,-9.9 36.57,-0.62l4.24 1.32c-2.91,0.71 -2.29,5.39 -2.29,5.39 0.9,3.56 3.38,6.52 6.72,8.04 2.41,1.24 5.09,1.89 7.81,1.89 2.29,0 4.57,-0.47 6.67,-1.36l7.07 -3.1c1.06,8.31 2.39,11.49 0.53,15.64l0 0z"/>
  <path class="fil2" d="M88.87 673.57c-9.28,-4.59 -17.67,-10.24 -15.2,-15.45 1.54,-2.12 3.94,-3.45 6.54,-3.63 8.84,2.83 13.25,4.42 13.25,4.42 0,0 -2.38,-121.9 -6,-142.4 -1.15,-6.8 31.18,3.36 31.18,3.36 1.15,4.77 3.53,108.39 1.41,133.65 -0.35,2.92 -0.53,5.89 -0.53,8.84 0,2.94 0.18,5.91 0.53,8.83l-10.16 4.51c-2.63,0.89 -5.4,1.35 -8.19,1.35 -4.51,0 -8.94,-1.2 -12.83,-3.48l0 0.01 0 -0.01z"/>
  <path class="fil3" d="M120.76 685.15c-3.09,7.33 -10.16,6.62 -24.56,1.41 -11.54,-3.85 -22.47,-9.4 -32.42,-16.43 -8.83,-6.71 -8.83,-7.68 -10.33,-12.19 -1.68,-6.36 7.6,-9.89 36.57,-0.53l4.24 1.33c-2.91,0.7 -2.3,5.3 -2.3,5.3 0.96,3.55 3.41,6.51 6.71,8.12 2.44,1.2 5.12,1.83 7.84,1.83 2.28,0 4.54,-0.44 6.65,-1.3l7.07 -3.18c1.06,8.31 2.38,11.49 0.53,15.64l0 0z"/>
  <polygon class="fil4" points="151.32,139.84 170.49,0 172.61,0.44 152.21,140.1 "/>
  <polygon class="fil5" points="84.01,276.32 30.21,306.8 0,211.92 53.71,181.45 "/>
  <polygon class="fil6" points="77.74,267.4 31.98,293.28 6.27,212.54 51.94,186.57 "/>
  <path class="fil2" d="M68.64 228.53l3.36 10.78c-2.69,1.41 -5.26,3.04 -7.69,4.85 -2.21,1.86 0,3.71 2.3,3.71 1.64,0.14 3.3,0.2 4.94,0.2 1.65,0 3.31,-0.06 4.95,-0.19l4.68 -1.5 6.45 -11.05c-5.35,-4.39 -12.07,-6.8 -18.99,-6.8l0 0 0 0z"/>
  <path class="fil2" d="M17.67 272.43c3.19,-1.4 6.6,-2.3 10.07,-2.65 3.09,0 3.62,1.15 2.83,2.65 -0.76,1.33 -1.95,2.36 -3.36,2.92 -2.43,2.26 -4.63,4.79 -6.54,7.5 -1.92,2.3 -3.18,5.09 -3.62,8.05 -0.44,2.96 3,13.25 -3.36,7.33 -7.86,-6.72 -13.69,-22 -9.63,-29.06 2.18,-4.2 5.19,-7.94 8.84,-10.96l4.77 14.22 0 0z"/>
  <path class="fil2" d="M122.61 111.22c-3.79,2.65 -17.66,5.92 -21.99,37.28 -3.54,27.82 2.56,35.33 8.21,37.36 4.28,0.88 8.66,1.34 13.03,1.34 0.39,0 0.8,-0.01 1.19,-0.01l0 23.41c4.33,1.57 8.91,2.38 13.52,2.38 4.61,0 9.19,-0.81 13.52,-2.38l13.16 -5.39c-2.91,-6.31 -4.42,-13.19 -4.42,-20.13 0,-1.39 0.06,-2.79 0.18,-4.16 1.06,-19.08 7.86,-46.29 3.09,-56.36 -4.14,-10.37 -14.18,-17.18 -25.35,-17.18 -3.41,0 -6.81,0.65 -9.98,1.9 -1.45,0.48 -2.85,1.14 -4.16,1.94l0 0z"/>
  <path class="fil7" d="M181.53 243.19c-5.74,-45.93 -18.55,-48.05 -18.55,-48.05 0,0 -35.33,8.83 -44.78,12.37 -9.46,3.53 -17.14,7.68 -26.51,26.5 -9.36,18.81 2.65,46.64 2.65,46.64 1.15,17.67 -4.5,33.39 -6.71,50.62 -2.83,20.93 -5.21,36.83 -9.89,63.34 -11.4,43.1 -14.32,70.05 -20.76,125.52 0,0 12.54,19.08 54.77,21.91 28.88,1.94 77.91,-27.83 77.91,-27.83 0,0 -4.15,-91.6 -4.15,-172.43 0,-73.32 -1.06,-75.97 -3.98,-98.59l0 0z"/>
  <path class="fil8" d="M99.56 142.14c-3.56,-7.01 -5.43,-14.77 -5.43,-22.63 0,-1.82 0.11,-3.66 0.3,-5.47 1.5,-17.13 19.44,-31.71 47.71,-25.08 22.36,4.49 39.93,21.86 44.69,44.17 5.65,19.43 3.45,38.07 -12.45,42.84 -15.9,4.77 -41.87,7.51 -50.71,-5.92 -6.8,-10.27 -14.93,-19.68 -24.11,-27.92l0 0.01 0 0z"/>
  <path class="fil6" d="M120.67 92.84c-11.22,0 -15.72,5.66 -14.75,10.6 0.97,4.95 6.8,6.81 13.69,10.69 10.08,7.79 16.98,19.02 19.35,31.54 2.25,13.15 12.83,23.29 26.06,25 10.68,0 16.87,-1.68 19.08,-11.84 2.2,-10.16 1.23,-17.67 -4.95,-13.87 -13.07,7.6 -27.12,8.84 -30.57,-7.77 -3.44,-16.61 -13.25,-21.02 -20.75,-28.53 -7.51,-7.51 5.65,-15.82 -7.16,-15.82l0 0z"/>
  <path class="fil9" d="M94.71 227.77c-6.63,8.12 -31.46,52.35 -34.73,53.76 -3.27,1.42 -3.97,-2.91 -9.54,0 -1.89,1.2 -4.09,1.84 -6.34,1.84 -1.88,0 -3.74,-0.45 -5.41,-1.31 -5.45,-1.13 -11.05,-1.95 -16.6,-2.46 -6.26,2.13 -10.46,8.01 -10.46,14.62 0,1.69 0.28,3.38 0.82,4.98 0.39,1.04 0.86,2.05 1.42,3 7.42,2.74 22.26,9.72 38.43,15.02 4.25,2.09 8.94,3.18 13.69,3.18 4.74,0 9.54,-0.89 13.69,-3.18 21.01,-11.56 54.04,-81.54 15.03,-89.46l0 0.01z"/>
  <ellipse class="fil9" transform="matrix(0.0867142 -5.57565E-001 0.557565 0.0867142 109.173 150.386)" rx="33.5" ry="22.7"/>
  <ellipse class="fil10" transform="matrix(0.0867142 -5.57565E-001 0.557565 0.0867142 108.719 152.14)" rx="28.49" ry="19.26"/>
  <ellipse class="fil1" transform="matrix(0.0846401 -5.58625E-001 0.558625 0.0846401 108.875 150.227)" rx="24.27" ry="16.59"/>
  <path class="fil1" d="M105.48 148.23c1.32,-8.66 3.19,-17.33 5.48,-25.79 2.92,-7.42 0.88,-8.83 10.25,-16.78 5.85,-5.53 13.04,-9.49 20.84,-11.49 2.59,-0.57 5.25,-0.86 7.9,-0.86 2.66,0 5.32,0.29 7.91,0.86 2.12,1.06 5.74,3.18 5.74,3.18l3.53 2.38c-2.28,-0.71 -4.67,-1.07 -7.07,-1.07 -0.26,0 -0.53,0.01 -0.79,0.01 -5.38,0.02 -10.71,1.05 -15.72,3.01 -5.5,2.36 -10.77,5.34 -15.64,8.83 -5.75,4.6 -9.73,11.08 -11.22,18.29 -2.03,7.86 -4.33,21.55 -4.33,21.55l-6.89 -2.12 0.01 0z"/>
  <g id="_105553433963008">
  </g>
  <g>
  </g>
  <g style="clip-path:url(#id0)">
   <g>
    <path class="fil11" d="M108.48 148.23c0,0 3.62,-21.11 5.48,-25.79 3,-7.42 0.88,-8.84 10.24,-16.79 5.9,-5.48 13.07,-9.43 20.85,-11.48 2.61,-0.57 5.28,-0.86 7.95,-0.86 2.67,0 5.34,0.29 7.95,0.86l5.74 3.18 3.45 2.38c-2.26,-0.71 -4.62,-1.07 -7,-1.07 -0.25,0 -0.52,0.01 -0.78,0.02 -5.38,0.01 -10.71,1.04 -15.72,3 -5.51,2.4 -10.81,5.37 -15.72,8.84 -5.76,4.59 -9.73,11.07 -11.22,18.28 -2.04,7.86 -4.33,21.55 -4.33,21.55l-6.89 -2.12 0 0z"/>
   </g>
  </g>
  <path class="fil12" d="M105.48 148.23c1.32,-8.66 3.19,-17.33 5.48,-25.79 2.92,-7.42 0.88,-8.83 10.25,-16.78 5.85,-5.53 13.04,-9.49 20.84,-11.49 2.59,-0.57 5.25,-0.86 7.9,-0.86 2.66,0 5.32,0.29 7.91,0.86 2.12,1.06 5.74,3.18 5.74,3.18l3.53 2.38c-2.28,-0.71 -4.67,-1.07 -7.07,-1.07 -0.26,0 -0.53,0.01 -0.79,0.01 -5.38,0.02 -10.71,1.05 -15.72,3.01 -5.5,2.36 -10.77,5.34 -15.64,8.83 -5.75,4.6 -9.73,11.08 -11.22,18.29 -2.03,7.86 -4.33,21.55 -4.33,21.55l-6.89 -2.12 0.01 0z"/>
  <path class="fil12" d="M105.48 148.23c1.32,-8.66 3.19,-17.33 5.48,-25.79 2.92,-7.42 0.88,-8.83 10.25,-16.78 5.85,-5.53 13.04,-9.49 20.84,-11.49 2.59,-0.57 5.25,-0.86 7.9,-0.86 2.66,0 5.32,0.29 7.91,0.86 2.12,1.06 5.74,3.18 5.74,3.18l3.53 2.38c-2.28,-0.71 -4.67,-1.07 -7.07,-1.07 -0.26,0 -0.53,0.01 -0.79,0.01 -5.38,0.02 -10.71,1.05 -15.72,3.01 -5.5,2.36 -10.77,5.34 -15.64,8.83 -5.75,4.6 -9.73,11.08 -11.22,18.29 -2.03,7.86 -4.33,21.55 -4.33,21.55l-6.89 -2.12 0.01 0z"/>
  <polygon class="fil4" points="107.95,154.06 97.35,13.34 99.56,13.34 108.92,154.15 "/>
  <ellipse class="fil13" transform="matrix(0.0846401 -5.58625E-001 0.558625 0.0846401 108.521 149.609)" rx="19.1" ry="12.99"/>
  <g>
   <g id="_105553433947648">
    <path class="fil14" d="M126.63 236.7l0.01 -0.07 0.18 -0.05c-0.18,-0.38 0.37,-0.5 1.14,-1.37 0.33,-0.37 0.8,-1.15 1.33,-1.38 -1.21,-1.1 -2.27,-2.97 -3.05,-3.43 -0.28,0.5 -0.48,0.97 -0.86,1.33 -0.57,0.53 -1.27,0.37 -1.43,-0.32l0.14 -0.09c0,-0.15 0.01,-0.18 -0.03,-0.36 -0.13,-0.03 -0.31,-0.01 -0.46,-0.02 -0.21,1.05 -1.37,0.73 -1.68,-0.26 -0.1,-0.31 -0.01,-0.28 -0.35,-0.39 -0.24,-0.07 -0.25,-0.05 -0.44,-0.32 -0.11,-0.17 -0.21,-0.35 -0.24,-0.55 -0.01,-0.07 -0.02,-0.29 -0.01,-0.35 0.07,-0.3 -0.02,-0.12 0.15,-0.23 -0.07,-0.21 -0.09,-0.15 -0.24,-0.26 -0.32,0.34 -0.59,-0.15 -1.68,0.27 -0.85,0.33 -1.83,1.3 -2.41,2.03 -0.14,0.18 -0.34,0.39 -0.5,0.57 -0.14,0.15 -0.45,0.45 -0.52,0.56 0.06,1.44 0.86,2.98 1.72,4.01 0.64,0.76 1.2,1.48 1.89,2.17 0.21,0.21 0.47,0.56 0.69,0.7 0.75,-0.13 1.14,-0.22 1.82,-0.53 0.42,-0.2 1.05,-0.54 1.55,-0.44l0.21 0.05c0.34,-0.36 2.5,-1.36 3.07,-1.27z"/>
    <path class="fil15" d="M131.02 251.64l0.1 0.06c0,0 0.16,0.11 0.32,0.08 0.17,-0.04 0.83,-0.61 0.83,-0.61l0.5 -0.48 2.43 -2.81c0.24,-0.31 0.51,-0.59 0.76,-0.86 0.85,-0.91 1.37,-1.51 2.28,-2.37l0.18 -0.19c0.01,-0.01 0.02,-0.02 0.03,-0.03l-1.16 -1.16c-0.78,-0.85 -1.99,-2.72 -2.84,-3.73l-0.3 -0.33c-0.16,-0.28 -2.38,-2.77 -2.87,-3.2 -0.25,0.12 -0.35,0.29 -0.66,0.44 -0.35,0.17 -0.46,0.68 -0.78,1.28 -0.14,0.27 -0.2,0.4 -0.34,0.66l-0.62 1.34c-0.57,1.31 -0.6,1.32 -1.1,2.81 -0.05,0.16 -0.07,0.25 -0.11,0.38 -0.05,0.14 -0.09,0.2 -0.14,0.35l-1.17 3.21c-0.11,0.29 0,0.21 -0.24,0.29 -0.1,-0.12 -0.05,0.02 -0.08,-0.21 0.19,-0.34 1.41,-4.46 1.68,-5.14l2.08 -4.51c0.09,-0.17 0.12,-0.11 0.1,-0.31 -1.68,0.35 -2.13,-0.38 -2.91,1.9 -0.54,1.6 -1.59,1.72 -3.22,1.98 -0.41,0.07 -1.32,0.53 -1.65,0.98 -0.15,0.2 -0.11,0.29 -0.24,0.52 0.01,0.01 0.03,0 0.04,0.02l0.11 0.07c0.08,0.07 0.05,0.05 0.12,0.13 1.19,1.33 2.49,3.01 3.76,4.46l1.79 1.92c0.24,0.25 1.63,1.66 1.9,1.83 0.47,0.48 0.94,0.89 1.42,1.23zm2.12 -0.45c-0.29,0.34 -1.75,1.47 -1.75,1.53 -0.77,0.25 -2.31,-0.76 -2.98,-1.25l-2.99 -2.94c-0.16,-0.18 -0.3,-0.33 -0.46,-0.51 -1.07,-1.2 -1.78,-1.9 -2.74,-3.34l-0.8 -1.24 -1.71 0.88c0.25,-0.42 1.28,-0.67 1.57,-1.37 0.23,-0.54 0,-1.03 0.48,-1.76 0.01,-0.01 0.02,-0.03 0.03,-0.04 0.6,-0.89 0.94,-0.11 2.39,-2.39l0.63 -0.83c-1.21,0.06 -1.29,0.38 -1.86,0.79 0.07,-0.24 0.17,-0.17 0.19,-0.37 -0.28,0.14 -0.58,0.24 -0.89,0.39 -0.34,0.16 -0.58,0.29 -0.97,0.38 -0.86,0.2 -1.26,0.14 -2.2,0.46 0.08,0.22 0.11,0.14 0.2,0.34 -0.19,-0.03 -0.28,-0.12 -0.43,-0.23l-0.3 0.22c0.02,-0.21 0.05,-0.13 0.12,-0.32 -0.16,-0.15 -0.26,-0.24 -0.42,-0.36 -0.3,1.65 0.76,1.82 0.2,2.64 -0.51,0.76 0.5,1.43 0.72,2.75l-0.16 0.16c-0.17,-0.2 -0.3,-0.56 -0.43,-0.81 -0.4,-0.76 -1.03,-1.39 -0.56,-2.17 0.01,-0.01 0.02,-0.02 0.03,-0.03 0.46,-0.77 -0.63,-0.95 -0.4,-1.83 0.32,-1.27 0.31,-0.95 -0.1,-1.41l-0.78 -0.96c-0.11,-0.14 -0.14,-0.2 -0.23,-0.33l-0.96 -1.31c-0.2,-0.21 -0.34,-0.43 -0.52,-0.66 -0.17,-0.21 -0.31,-0.42 -0.46,-0.67 -0.17,-0.28 -0.24,-0.34 -0.33,-0.68l-0.11 -0.45c-0.03,-0.22 -0.01,-0.39 0.23,-0.47 0.25,0.26 0.16,0.88 0.95,1.9 1,1.27 1.3,1.89 2.29,3.1l1.23 1.42c0.39,-0.19 0.17,-0.18 0.91,-0.46l-1.35 -1.35c-0.98,-1 -1.7,-1.89 -2.48,-3.12 -0.53,-0.82 -0.63,-1.15 -0.63,-2.09 -0.3,0.18 -0.52,0.46 -0.85,0.53 0.05,-0.22 0,-0.09 0.11,-0.23l1.21 -1.32c0.8,-0.96 1.81,-2.32 2.95,-2.88 0.46,-0.22 0.6,-0.31 1.15,-0.3 0.35,0 0.76,0.04 0.91,0.38 -0.32,0.34 -0.59,-0.15 -1.68,0.27 -0.85,0.33 -1.83,1.3 -2.41,2.03 -0.14,0.18 -0.34,0.39 -0.5,0.57 -0.14,0.15 -0.45,0.45 -0.52,0.56 0.06,1.44 0.86,2.98 1.72,4.01 0.64,0.76 1.2,1.48 1.89,2.17 0.21,0.21 0.47,0.56 0.69,0.7 0.75,-0.13 1.14,-0.22 1.82,-0.53 0.42,-0.2 1.05,-0.54 1.55,-0.44l0.21 0.05c0.34,-0.36 2.5,-1.36 3.07,-1.27 -0.04,0.28 -0.14,0.31 -0.29,0.47 -0.79,0.4 -0.42,0.45 -0.77,0.69 -0.32,0.22 -0.55,0.42 -0.74,0.67 -0.19,0.24 -0.87,1.44 -0.94,1.68l1.06 -0.38c0.07,-0.02 0.12,-0.03 0.18,-0.07 0.15,-0.09 0.06,-0.02 0.15,-0.13 0.77,-0.17 1.34,-1.03 1.64,-1.67 0.42,-0.9 0.25,-1.27 1.71,-1.62 1.11,-0.26 1.84,-0.29 2.62,-0.99 0.57,-0.51 0.55,-0.83 1.55,-1.43l0.23 -0.17c0,0 0.02,-0.02 0.03,-0.03 -0.62,-0.32 -0.52,-1.23 -1.44,-1.13 -0.58,0.06 -1.87,0.26 -2.3,0.58 0.05,0.25 0.21,0.32 0.28,0.65l-1.16 1.6c-0.19,0.23 -1.21,1.38 -1.62,1.16 -0.18,-0.38 0.37,-0.5 1.14,-1.37 0.33,-0.37 0.8,-1.15 1.33,-1.38 -1.21,-1.1 -2.27,-2.97 -3.05,-3.43 -0.28,0.5 -0.48,0.97 -0.86,1.33 -0.57,0.53 -1.27,0.37 -1.43,-0.32l0.14 -0.09c0.29,0.1 0.47,0.94 1.38,-0.52 0.08,-0.13 0.18,-0.27 0.23,-0.39 0,0 0.3,-0.96 0.55,-0.43 0.17,0.38 -0.18,0.12 0.17,0.43 0.58,0.5 0.73,0.5 1.41,1.22 0.24,0.25 0.39,0.46 0.64,0.7 0.25,0.23 0.44,0.45 0.67,0.67 0.16,-0.08 0.29,-0.2 0.45,-0.31 0.4,-0.25 1.18,-0.44 1.67,-0.49 1.19,-0.1 1.46,0.23 2.06,1.21 0.12,0.2 0.13,0.24 0.09,0.43 -0.06,0.27 -0.09,0.23 -0.31,0.36 -0.23,0.13 -0.21,0.12 -0.38,0.3l-0.67 0.72c-0.16,0.19 -0.53,0.52 -0.6,0.7l2.32 1.95c0.57,0.6 1.84,2.14 2.4,2.85 0.82,1.03 1.67,2 2.46,3.08 0.08,0.1 0.14,0.15 0.2,0.23 0.04,0.06 0.07,0.1 0.08,0.13l0.03 0.1c0,0.04 0,0.08 0,0.14 -0.02,0.5 0.1,0.35 -0.05,0.61l-5.14 5.55c-0.09,0.1 -0.09,0.12 -0.19,0.23 -0.12,0.12 -0.3,0.3 -0.42,0.4l0 0zm-6.46 -3.25l2.41 2.52c-0.22,0.03 -0.62,0.07 -0.83,0.07 -0.29,-0.01 -0.34,-0.18 -0.55,-0.39 -0.35,-0.35 -2.68,-2.81 -2.8,-3.03 0.45,0.05 0.5,0.13 0.96,-0.07 0.29,0.25 0.52,0.6 0.81,0.9zm-5.21 -4.66c0.56,-0.26 0.28,-0.59 0.47,-1.04l1.79 2.23c0.6,0.78 1.29,1.48 1.82,2.21l-0.85 0.28c-0.21,-0.37 -2.87,-3.1 -3.23,-3.68z"/>
    <path class="fil16" d="M126.04 246.56c-0.09,0.06 -0.06,0.01 -0.13,0.1l1.8 1.92c0.23,0.25 1.62,1.66 1.89,1.83l0.09 -0.15 3.6 -9.74c0.12,-0.26 0.2,-0.4 0.31,-0.64 0.22,-0.48 0.17,-0.58 0.46,-0.52l0.09 -0.15c-0.16,-0.28 -2.38,-2.77 -2.87,-3.2 -0.25,0.12 -0.35,0.29 -0.66,0.44 -0.35,0.17 -0.46,0.68 -0.78,1.28 -0.14,0.27 -0.2,0.4 -0.34,0.66l-0.62 1.34c-0.57,1.31 -0.6,1.32 -1.1,2.81 -0.05,0.16 -0.07,0.25 -0.11,0.38 -0.05,0.14 -0.09,0.2 -0.14,0.35l-1.17 3.21c-0.11,0.29 0,0.21 -0.24,0.29 -0.1,-0.12 -0.05,0.02 -0.08,-0.21z"/>
    <path class="fil17" d="M134.06 239.36c0.14,0.24 -0.07,0.53 -0.14,0.72 -0.45,1.16 -0.79,2.28 -1.32,3.51l-1.46 3.42c-0.19,0.46 -1.38,3.27 -1.45,3.25l-0.09 0.15c0.48,0.49 0.96,0.9 1.44,1.25 0.15,0.08 0.32,0.6 1.46,-0.65l2.7 -3.13c0.24,-0.31 0.51,-0.59 0.76,-0.86 0.85,-0.91 1.37,-1.51 2.28,-2.37l0.18 -0.19c0.01,-0.01 0.02,-0.02 0.03,-0.03l-1.16 -1.16c-0.78,-0.85 -1.99,-2.72 -2.84,-3.73l-0.3 -0.33 -0.09 0.15z"/>
    <path class="fil17" d="M125.91 246.66c0.07,-0.09 0.04,-0.04 0.13,-0.1 0.19,-0.34 1.41,-4.46 1.68,-5.14l2.08 -4.51c0.09,-0.17 0.12,-0.11 0.1,-0.31 -1.68,0.35 -2.13,-0.38 -2.91,1.9 -0.54,1.6 -1.59,1.72 -3.22,1.98 -0.41,0.07 -1.32,0.53 -1.65,0.98 -0.15,0.2 -0.11,0.29 -0.24,0.52 0.01,0.01 0.03,0 0.04,0.02l0.11 0.07c0.08,0.07 0.05,0.05 0.12,0.13 1.19,1.33 2.49,3.01 3.76,4.46z"/>
    <path class="fil18" d="M119.17 244.62c0.08,-0.07 0.41,-0.25 0.54,-0.3 0.25,-0.42 1.28,-0.67 1.57,-1.37 0.23,-0.54 0,-1.03 0.48,-1.76 0.01,-0.01 0.02,-0.03 0.03,-0.04 0.6,-0.89 0.94,-0.11 2.39,-2.39l0.63 -0.83c-1.21,0.06 -1.29,0.38 -1.86,0.79 0.07,-0.24 0.17,-0.17 0.19,-0.37 -0.28,0.14 -0.58,0.24 -0.89,0.39 -0.34,0.16 -0.58,0.29 -0.97,0.38 -0.86,0.2 -1.26,0.14 -2.2,0.46 0.08,0.22 0.11,0.14 0.2,0.34 -0.19,-0.03 -0.28,-0.12 -0.43,-0.23l-0.3 0.22c0.02,-0.21 0.05,-0.13 0.12,-0.32 -0.16,-0.15 -0.26,-0.24 -0.42,-0.36 -0.3,1.65 0.76,1.82 0.2,2.64 -0.51,0.76 0.5,1.43 0.72,2.75z"/>
    <path class="fil18" d="M126.82 236.58l-0.18 0.05 -0.01 0.07c-0.04,0.28 -0.14,0.31 -0.29,0.47 -0.18,0.72 -0.14,0.45 -0.34,0.9 -0.07,0.15 -0.08,0.21 -0.15,0.36l-0.45 0.95c-0.25,0.34 -0.26,0.15 -0.12,0.25 0.77,-0.17 1.34,-1.03 1.64,-1.67 0.42,-0.9 0.25,-1.27 1.71,-1.62 1.11,-0.26 1.84,-0.29 2.62,-0.99 0.57,-0.51 0.55,-0.83 1.55,-1.43l0.23 -0.17c0,0 0.02,-0.02 0.03,-0.03 -0.62,-0.32 -0.52,-1.23 -1.44,-1.13 -0.58,0.06 -1.87,0.26 -2.3,0.58 0.05,0.25 0.21,0.32 0.28,0.65l-1.16 1.6c-0.19,0.23 -1.21,1.38 -1.62,1.16z"/>
    <path class="fil19" d="M114.46 232.93l-0.07 0.07c0.25,0.26 0.16,0.88 0.95,1.9 1,1.27 1.3,1.89 2.29,3.1l1.23 1.42c0.39,-0.19 0.17,-0.18 0.91,-0.46l-1.35 -1.35c-0.98,-1 -1.7,-1.89 -2.48,-3.12 -0.53,-0.82 -0.63,-1.15 -0.63,-2.09 -0.3,0.18 -0.52,0.46 -0.85,0.53z"/>
    <path class="fil17" d="M121.47 243.28c0.36,0.58 3.02,3.31 3.23,3.68l0.85 -0.28c-0.53,-0.73 -1.22,-1.43 -1.82,-2.21l-1.79 -2.23c-0.19,0.45 0.09,0.78 -0.47,1.04z"/>
    <path class="fil20" d="M129.09 250.46l-2.41 -2.52c-0.29,-0.3 -0.52,-0.65 -0.81,-0.9 -0.46,0.2 -0.51,0.12 -0.96,0.07 0.12,0.22 2.45,2.68 2.8,3.03 0.21,0.21 0.26,0.38 0.55,0.39 0.21,0 0.61,-0.04 0.83,-0.07z"/>
    <path class="fil15" d="M129.69 250.26c0.07,0.02 1.26,-2.79 1.45,-3.25l1.46 -3.42c0.53,-1.23 0.87,-2.35 1.32,-3.51 0.07,-0.19 0.28,-0.48 0.14,-0.72 -0.29,-0.06 -0.24,0.04 -0.46,0.52 -0.11,0.24 -0.19,0.38 -0.31,0.64l-3.6 9.74z"/>
    <path class="fil21" d="M125.28 239.63c-0.14,-0.1 -0.13,0.09 0.12,-0.25l0.45 -0.95c0.07,-0.15 0.08,-0.21 0.15,-0.36 0.2,-0.45 0.16,-0.18 0.34,-0.9 -0.79,0.4 -0.42,0.45 -0.77,0.69 -0.32,0.22 -0.55,0.42 -0.74,0.67 -0.19,0.24 -0.87,1.44 -0.94,1.68l1.06 -0.38c0.07,-0.02 0.12,-0.03 0.18,-0.07 0.15,-0.09 0.06,-0.02 0.15,-0.13z"/>
    <path class="fil15" d="M123.6 230.94c-0.35,-0.28 -0.37,0.37 -0.89,0.21 -0.4,-0.12 -0.44,-0.7 -0.48,-0.89 -0.08,-0.39 -0.41,-0.19 -0.72,-0.41 -0.36,-0.26 -0.21,-0.68 -0.48,-1.01 -0.17,0.11 -0.08,-0.07 -0.15,0.23 -0.01,0.06 0,0.28 0.01,0.35 0.03,0.2 0.13,0.38 0.24,0.55 0.19,0.27 0.2,0.25 0.44,0.32 0.34,0.11 0.25,0.08 0.35,0.39 0.31,0.99 1.47,1.31 1.68,0.26z"/>
    <path class="fil15" d="M125.4 228.74c0.21,-0.05 1.87,-0.55 1.77,-0.96 -0.11,-0.49 -1.01,0.17 -1.3,0.32 -0.39,0.19 -0.68,0.22 -0.47,0.64z"/>
    <path class="fil15" d="M124.05 227.96c0.53,-0.56 1.46,-1.04 1.38,-1.41 -0.03,-0.11 -0.16,-0.2 -0.23,-0.19 -0.32,0.08 -0.48,0.51 -0.64,0.74 -0.15,0.22 -0.5,0.65 -0.51,0.86z"/>
    <path class="fil15" d="M123.2 227.68c0,-0.77 0.34,-1.76 0.03,-1.97 -0.1,-0.06 -0.26,-0.04 -0.3,0.02 -0.18,0.28 0.01,0.69 0.05,0.97 0.04,0.27 0.09,0.82 0.22,0.98z"/>
   </g>
   <g id="_105553433965184">
    <g>
     <path class="fil19" d="M144.87 234.76c-0.33,1.05 -1.87,1.5 -2.84,1.72 -0.72,0.17 -1.71,0.34 -2.46,0.06 -0.56,0.57 -1.49,0.85 -2.21,1.02 -1.01,0.23 -2.67,0.51 -3.44,-0.33 -0.24,0.26 -0.57,0.43 -0.9,0.58 -0.12,0.05 -0.29,0.18 -0.39,0.26 -0.72,0.58 -1.53,0.97 -2.42,1.18 -0.95,0.22 -1.91,0.21 -2.85,0.02 -1.18,-0.24 -2.21,-0.79 -3.05,-1.64 -0.8,-0.8 -1.37,-1.75 -1.62,-2.85 -0.29,-1.25 -0.15,-2.49 0.37,-3.66 0.47,-1.04 1.19,-1.9 2.1,-2.58 0.71,-0.53 1.51,-0.9 2.37,-1.1 0.83,-0.19 1.67,-0.19 2.5,-0.01 0.07,0.02 0.17,0.04 0.25,0.05 0.04,-0.02 0.08,-0.04 0.12,-0.06 0.13,-0.06 0.27,-0.11 0.41,-0.14 0.54,-0.12 1.05,0.01 1.49,0.32 0.02,-0.02 0.03,-0.03 0.04,-0.04 0.37,-0.39 0.93,-0.7 1.4,-0.95 0.67,-0.36 1.41,-0.73 2.15,-0.9 0.81,-0.18 1.57,0.24 1.73,1.08l0.28 1.45c0.37,-0.29 0.8,-0.5 1.29,-0.61 0.94,-0.21 1.88,-0.12 2.7,0.41 0.38,0.24 0.69,0.57 0.91,0.97 0.01,0.02 0.03,0.05 0.04,0.07 0.14,-0.36 0.34,-0.7 0.58,-1.03 0.85,-1.15 2.03,-1.87 3.43,-2.19 1,-0.23 2.01,-0.19 2.97,0.19 0.55,0.22 1.04,0.53 1.47,0.93 0.15,-0.34 0.33,-0.67 0.56,-0.97 0.78,-1.07 1.86,-1.72 3.14,-2.01 0.97,-0.23 1.96,-0.2 2.9,0.15 0.42,0.16 0.81,0.38 1.13,0.68 0.09,-0.15 0.18,-0.29 0.29,-0.43 0.85,-1.16 2.03,-1.87 3.43,-2.19 1,-0.23 2.01,-0.19 2.97,0.19 0.69,0.27 1.28,0.69 1.77,1.24 0.51,0.58 0.87,1.25 1.04,2 0.32,1.4 -0.1,2.67 -1,3.75 -0.87,1.06 -2,1.73 -3.33,2.04 -1.25,0.29 -2.5,0.21 -3.62,-0.43 -0.17,-0.1 -0.33,-0.2 -0.49,-0.32 0,0.02 -0.01,0.04 -0.02,0.07 -0.18,0.4 -0.44,0.76 -0.75,1.07 -0.69,0.68 -1.55,1.09 -2.49,1.31 -1.13,0.26 -2.25,0.17 -3.3,-0.36 -0.43,-0.21 -0.83,-0.48 -1.18,-0.81 -0.18,0.39 -0.42,0.75 -0.7,1.09 -0.88,1.05 -2,1.73 -3.33,2.04 -1.18,0.27 -2.37,0.21 -3.44,-0.33zm-11.13 -1.59c-0.07,-0.34 -0.15,-0.67 -0.23,-1 -0.05,0.07 -0.11,0.14 -0.18,0.21 -0.31,0.34 -0.72,0.56 -1.17,0.67 -0.41,0.09 -0.83,0.09 -1.22,-0.07 -0.38,-0.15 -0.69,-0.42 -0.95,-0.72 -0.17,-0.18 -0.35,-0.39 -0.54,-0.55 -0.09,-0.07 -0.19,-0.13 -0.29,-0.17 -0.29,-0.12 -0.57,-0.16 -0.87,-0.09 -0.14,0.03 -0.24,0.07 -0.31,0.21 -0.11,0.23 -0.07,0.53 -0.01,0.77 0.13,0.59 0.4,1.1 0.82,1.53 0.47,0.49 0.98,0.65 1.64,0.49 0.27,-0.06 0.52,-0.16 0.75,-0.31 0.14,-0.08 0.32,-0.21 0.41,-0.35 0.24,-0.38 0.57,-0.69 1.01,-0.8 0.4,-0.09 0.8,-0.02 1.14,0.18z"/>
    </g>
    <path class="fil22" d="M159.12 225.87c0.13,-0.4 0.34,-0.79 0.61,-1.16 0.78,-1.05 1.85,-1.7 3.13,-1.99 0.9,-0.21 1.8,-0.17 2.66,0.17 0.61,0.24 1.13,0.61 1.57,1.1 0.45,0.51 0.77,1.1 0.92,1.77 0.28,1.23 -0.09,2.34 -0.89,3.3 -0.8,0.96 -1.83,1.58 -3.05,1.86 -1.12,0.26 -2.23,0.2 -3.25,-0.38 -0.44,-0.25 -0.8,-0.57 -1.09,-0.95 0.05,0.32 -0.02,0.65 -0.15,0.94 -0.16,0.35 -0.38,0.65 -0.64,0.91 -0.62,0.61 -1.39,0.98 -2.23,1.17 -1.02,0.24 -2.02,0.16 -2.95,-0.31 -0.69,-0.34 -1.23,-0.8 -1.61,-1.39 -0.14,0.65 -0.46,1.25 -0.92,1.8 -0.8,0.97 -1.82,1.58 -3.04,1.86 -1.12,0.26 -2.24,0.2 -3.25,-0.37 -0.96,-0.55 -1.54,-1.41 -1.78,-2.48 -0.28,-1.21 -0.06,-2.35 0.68,-3.35 0.78,-1.06 1.85,-1.7 3.13,-1.99 0.9,-0.21 1.8,-0.18 2.66,0.16 0.61,0.24 1.14,0.62 1.57,1.11 0.12,0.13 0.23,0.27 0.33,0.41 0.09,-0.61 0.34,-1.2 0.74,-1.74 0.71,-0.96 1.68,-1.54 2.84,-1.81 0.87,-0.2 1.75,-0.18 2.59,0.14 0.64,0.23 1.16,0.63 1.42,1.22zm-0.14 1.87c-0.28,0.4 -0.68,0.66 -1.16,0.77 -0.51,0.12 -1.01,0.03 -1.41,-0.33 -0.19,-0.17 -0.39,-0.51 -0.52,-0.73 -0.07,-0.12 -0.13,-0.21 -0.27,-0.18 -0.11,0.03 -0.16,0.1 -0.21,0.19 -0.08,0.18 -0.08,0.36 -0.04,0.54 0.1,0.44 0.35,0.77 0.72,1.02 0.28,0.19 0.58,0.23 0.92,0.16 0.14,-0.04 0.31,-0.08 0.44,-0.15 0.16,-0.08 0.33,-0.21 0.47,-0.32 0.12,-0.1 0.26,-0.17 0.41,-0.2 0.33,-0.08 0.64,0.02 0.9,0.22 0.01,0.01 0.02,0.02 0.03,0.03 -0.09,-0.22 -0.16,-0.45 -0.22,-0.69 -0.02,-0.11 -0.04,-0.22 -0.06,-0.33zm-26.55 0.66c0.06,-0.17 0.16,-0.34 0.29,-0.48 0.32,-0.33 0.87,-0.63 1.27,-0.85 0.61,-0.33 1.34,-0.69 2.02,-0.84 0.53,-0.13 0.99,0.11 1.09,0.66l0.5 2.51c0.37,-0.64 0.94,-1.08 1.71,-1.25 0.8,-0.19 1.59,-0.12 2.29,0.33 0.31,0.2 0.56,0.47 0.74,0.79 0.21,0.37 0.35,0.84 0.45,1.26l0.64 2.47c0.01,0.05 0.05,0.19 0.08,0.23 0.05,0.06 0.22,0.14 0.29,0.17 0.29,0.14 0.5,0.37 0.57,0.69 0.28,1.22 -1.63,1.69 -2.46,1.88 -0.65,0.15 -1.91,0.4 -2.49,-0.13 -0.33,0.72 -1.51,1.05 -2.18,1.2 -0.87,0.2 -2.88,0.63 -3.17,-0.65 -0.05,-0.21 -0.05,-0.42 0.04,-0.62 0.08,-0.19 0.25,-0.38 0.37,-0.51 0.07,-0.13 0.03,-0.57 0.02,-0.71 -0.09,-0.86 -0.32,-1.81 -0.51,-2.66 -0.15,-0.62 -0.31,-1.36 -0.54,-1.96 0,-0.02 -0.02,-0.05 -0.03,-0.08 -0.03,-0.01 -0.07,-0.02 -0.1,-0.03 -0.02,-0.01 -0.04,-0.01 -0.06,-0.02 0.04,0.13 0.08,0.26 0.11,0.4 0.15,0.66 0.06,1.31 -0.42,1.82 -0.25,0.26 -0.56,0.43 -0.91,0.51 -0.3,0.07 -0.62,0.08 -0.91,-0.04 -0.29,-0.11 -0.54,-0.34 -0.75,-0.58 -0.18,-0.2 -0.39,-0.44 -0.6,-0.6 -0.13,-0.11 -0.27,-0.19 -0.42,-0.26 -0.39,-0.15 -0.78,-0.21 -1.19,-0.12 -0.3,0.07 -0.52,0.22 -0.66,0.5 -0.17,0.34 -0.14,0.75 -0.06,1.12 0.16,0.68 0.47,1.28 0.96,1.78 0.61,0.62 1.3,0.83 2.14,0.64 0.32,-0.08 0.62,-0.2 0.9,-0.38 0.22,-0.13 0.44,-0.3 0.58,-0.52 0.17,-0.25 0.39,-0.49 0.69,-0.56 0.33,-0.08 0.65,0.01 0.91,0.23 0.25,0.2 0.4,0.47 0.47,0.78 0.09,0.39 0.06,0.8 -0.03,1.19 -0.09,0.39 -0.25,0.78 -0.5,1.11 -0.18,0.22 -0.49,0.38 -0.76,0.5 -0.17,0.07 -0.37,0.23 -0.51,0.34 -0.66,0.53 -1.39,0.89 -2.21,1.08 -0.87,0.2 -1.76,0.19 -2.63,0.01 -1.08,-0.21 -2.01,-0.72 -2.78,-1.49 -0.73,-0.73 -1.24,-1.59 -1.48,-2.6 -0.26,-1.14 -0.14,-2.26 0.34,-3.33 0.43,-0.96 1.09,-1.74 1.94,-2.37 0.65,-0.48 1.38,-0.82 2.17,-1.01 0.75,-0.17 1.51,-0.17 2.27,0 0.1,0.02 0.34,0.07 0.43,0.06 0.08,-0.02 0.2,-0.08 0.28,-0.11 0.09,-0.05 0.19,-0.08 0.3,-0.11 0.41,-0.09 0.8,0.03 1.13,0.29 0.13,0.1 0.26,0.21 0.37,0.32zm6.78 6.29c0.04,-0.09 0.08,-0.18 0.11,-0.25 0.12,-0.26 -0.11,-1.35 -0.18,-1.63 -0.07,-0.32 -0.2,-0.84 -0.39,-1.11 -0.12,-0.16 -0.21,-0.22 -0.41,-0.17 -0.08,0.01 -0.14,0.04 -0.17,0.11 -0.03,0.12 0.03,0.45 0.06,0.57l0.3 1.31c0.08,0.26 0.17,0.63 0.24,0.81 0.06,0.08 0.21,0.18 0.29,0.23 0.05,0.04 0.1,0.08 0.15,0.13zm7.8 -5.59c-0.04,0.01 -0.06,0.02 -0.08,0.06 -0.04,0.08 -0.02,0.21 0,0.29 0.07,0.32 0.23,0.68 0.37,0.98 0.18,0.39 0.39,0.76 0.62,1.11 0.07,0.1 0.15,0.22 0.28,0.19 0.02,0 0.05,-0.01 0.07,-0.02 0.02,-0.05 -0.01,-0.22 -0.03,-0.27 -0.09,-0.41 -0.24,-0.8 -0.42,-1.18 -0.15,-0.34 -0.35,-0.71 -0.58,-1 -0.06,-0.07 -0.14,-0.17 -0.23,-0.16zm15.89 -3.65c-0.04,0.01 -0.06,0.02 -0.08,0.06 -0.04,0.08 -0.03,0.2 -0.01,0.29 0.08,0.32 0.24,0.68 0.38,0.98 0.18,0.38 0.38,0.76 0.62,1.11 0.06,0.09 0.15,0.22 0.28,0.19 0.01,-0.01 0.05,-0.01 0.06,-0.02 0.03,-0.06 -0.01,-0.23 -0.02,-0.28 -0.09,-0.4 -0.25,-0.8 -0.42,-1.17 -0.16,-0.34 -0.35,-0.71 -0.58,-1.01 -0.06,-0.07 -0.15,-0.17 -0.23,-0.15z"/>
    <path class="fil23" d="M127.77 228.46c0.67,-0.15 1.34,-0.16 2.04,-0.01 0.32,0.07 0.54,0.09 0.66,0.07 0.08,-0.02 0.21,-0.07 0.38,-0.15 0.06,-0.03 0.12,-0.05 0.19,-0.07 0.24,-0.06 0.48,0.01 0.71,0.19 0.56,0.43 0.93,1.04 1.11,1.82 0.13,0.56 0.03,1.01 -0.29,1.35 -0.17,0.19 -0.39,0.31 -0.65,0.37 -0.23,0.05 -0.43,0.05 -0.6,-0.02 -0.17,-0.07 -0.35,-0.22 -0.55,-0.44 -0.28,-0.32 -0.5,-0.54 -0.66,-0.67 -0.16,-0.13 -0.35,-0.24 -0.55,-0.33 -0.52,-0.21 -1.02,-0.25 -1.51,-0.14 -0.47,0.11 -0.81,0.36 -1,0.77 -0.2,0.4 -0.24,0.89 -0.1,1.47 0.18,0.79 0.54,1.46 1.09,2.02 0.75,0.76 1.62,1.01 2.63,0.78 0.37,-0.08 0.72,-0.23 1.06,-0.44 0.33,-0.21 0.58,-0.43 0.74,-0.67 0.13,-0.21 0.26,-0.32 0.37,-0.35 0.16,-0.03 0.31,0.01 0.46,0.13 0.15,0.12 0.25,0.29 0.3,0.5 0.06,0.27 0.05,0.58 -0.04,0.95 -0.08,0.37 -0.22,0.67 -0.4,0.91 -0.08,0.1 -0.26,0.21 -0.55,0.34 -0.17,0.07 -0.38,0.21 -0.63,0.42 -0.61,0.48 -1.27,0.8 -2.01,0.97 -0.76,0.18 -1.57,0.18 -2.41,0.01 -0.97,-0.19 -1.81,-0.65 -2.52,-1.35 -0.69,-0.69 -1.13,-1.47 -1.33,-2.34 -0.23,-1.02 -0.13,-2.02 0.31,-3.01 0.38,-0.85 0.97,-1.57 1.76,-2.16 0.61,-0.45 1.27,-0.76 1.99,-0.92zm8.82 -1.47l0.57 2.9c0.07,0.35 0.22,0.49 0.44,0.44 0.11,-0.02 0.2,-0.12 0.27,-0.3 0.3,-0.75 0.82,-1.21 1.56,-1.38 0.73,-0.17 1.36,-0.08 1.89,0.27 0.24,0.15 0.43,0.35 0.57,0.6 0.14,0.26 0.28,0.63 0.4,1.13l0.63 2.47c0.06,0.22 0.12,0.37 0.2,0.46 0.08,0.09 0.23,0.18 0.46,0.29 0.15,0.08 0.25,0.19 0.28,0.33 0.12,0.5 -0.57,0.92 -2.07,1.26 -1.33,0.31 -2.05,0.23 -2.15,-0.23 -0.02,-0.08 -0.02,-0.14 -0.01,-0.19 0.01,-0.05 0.07,-0.18 0.16,-0.39 0.14,-0.29 0.09,-0.94 -0.14,-1.95 -0.14,-0.61 -0.3,-1.04 -0.48,-1.3 -0.24,-0.34 -0.55,-0.47 -0.94,-0.38 -0.28,0.06 -0.46,0.21 -0.55,0.44 -0.06,0.17 -0.05,0.46 0.04,0.86l0.31 1.33c0.17,0.58 0.27,0.9 0.31,0.98 0.04,0.07 0.18,0.19 0.42,0.36 0.11,0.07 0.18,0.18 0.21,0.3 0.12,0.52 -0.5,0.94 -1.85,1.25 -1.57,0.36 -2.42,0.27 -2.55,-0.26 -0.02,-0.13 -0.02,-0.23 0.01,-0.31 0.04,-0.07 0.14,-0.2 0.3,-0.39 0.15,-0.16 0.19,-0.52 0.14,-1.08 -0.06,-0.56 -0.24,-1.47 -0.53,-2.72 -0.22,-0.99 -0.41,-1.66 -0.55,-2.03 -0.05,-0.14 -0.11,-0.24 -0.17,-0.29 -0.07,-0.06 -0.17,-0.11 -0.32,-0.14 -0.32,-0.09 -0.5,-0.22 -0.54,-0.41 -0.06,-0.23 0.01,-0.44 0.19,-0.63 0.18,-0.2 0.56,-0.45 1.13,-0.75 0.78,-0.42 1.41,-0.69 1.9,-0.8 0.26,-0.06 0.42,0.03 0.46,0.26zm10.49 -0.11c0.84,-0.19 1.63,-0.14 2.36,0.15 0.53,0.2 0.98,0.53 1.37,0.96 0.41,0.46 0.68,0.97 0.81,1.54 0.23,0.99 -0.03,1.94 -0.79,2.85 -0.71,0.87 -1.64,1.43 -2.76,1.69 -1.1,0.25 -2.05,0.14 -2.88,-0.32 -0.79,-0.46 -1.3,-1.17 -1.53,-2.14 -0.25,-1.08 -0.05,-2.06 0.6,-2.93 0.68,-0.92 1.62,-1.52 2.82,-1.8zm-0.18 1.72c-0.2,0.04 -0.35,0.16 -0.43,0.33 -0.09,0.18 -0.11,0.39 -0.05,0.64 0.06,0.27 0.2,0.64 0.41,1.09 0.22,0.45 0.43,0.84 0.66,1.17 0.23,0.35 0.51,0.48 0.83,0.41 0.4,-0.1 0.55,-0.4 0.43,-0.92 -0.09,-0.39 -0.24,-0.81 -0.46,-1.28 -0.21,-0.46 -0.43,-0.83 -0.65,-1.11 -0.22,-0.27 -0.47,-0.39 -0.74,-0.33zm8.32 -3.58c0.82,-0.19 1.59,-0.15 2.3,0.11 0.69,0.26 1.09,0.67 1.22,1.25 0.1,0.4 0.03,0.75 -0.19,1.06 -0.2,0.29 -0.48,0.48 -0.84,0.57 -0.38,0.08 -0.7,0.01 -0.96,-0.22 -0.07,-0.07 -0.21,-0.27 -0.41,-0.61 -0.21,-0.35 -0.49,-0.49 -0.84,-0.41 -0.25,0.06 -0.44,0.22 -0.56,0.48 -0.12,0.26 -0.15,0.55 -0.07,0.87 0.12,0.55 0.43,0.99 0.93,1.33 0.4,0.26 0.84,0.34 1.32,0.23 0.23,-0.05 0.42,-0.11 0.57,-0.19 0.15,-0.07 0.33,-0.2 0.55,-0.38 0.06,-0.04 0.13,-0.08 0.21,-0.09 0.15,-0.04 0.31,0 0.46,0.12 0.15,0.12 0.25,0.28 0.3,0.47 0.05,0.21 0.01,0.45 -0.11,0.71 -0.12,0.27 -0.29,0.52 -0.53,0.75 -0.51,0.51 -1.17,0.85 -1.98,1.04 -0.95,0.21 -1.81,0.12 -2.6,-0.27 -1.02,-0.5 -1.65,-1.29 -1.89,-2.37 -0.24,-1.03 -0.04,-1.98 0.59,-2.84 0.61,-0.83 1.45,-1.37 2.53,-1.61zm7.75 -1.79c0.84,-0.2 1.63,-0.15 2.36,0.14 0.52,0.21 0.98,0.53 1.37,0.97 0.41,0.46 0.67,0.97 0.8,1.53 0.23,1 -0.03,1.95 -0.78,2.86 -0.72,0.86 -1.64,1.42 -2.76,1.68 -1.1,0.25 -2.06,0.15 -2.88,-0.32 -0.8,-0.45 -1.31,-1.17 -1.53,-2.14 -0.25,-1.08 -0.05,-2.06 0.6,-2.93 0.67,-0.92 1.61,-1.52 2.82,-1.79zm-0.18 1.71c-0.2,0.05 -0.35,0.16 -0.44,0.34 -0.08,0.17 -0.1,0.39 -0.04,0.63 0.06,0.28 0.2,0.64 0.41,1.09 0.21,0.45 0.43,0.85 0.66,1.18 0.23,0.34 0.5,0.48 0.82,0.4 0.41,-0.09 0.56,-0.4 0.44,-0.92 -0.09,-0.38 -0.24,-0.81 -0.46,-1.27 -0.22,-0.47 -0.43,-0.84 -0.65,-1.11 -0.22,-0.28 -0.47,-0.39 -0.74,-0.34z"/>
    <g>
     <path class="fil19" d="M166.48 235.08c-0.06,0.15 -0.13,0.3 -0.22,0.43 -0.35,0.52 -0.85,0.85 -1.46,0.99 -0.19,0.05 -0.39,0.07 -0.58,0.07 0.01,0.05 0.03,0.1 0.04,0.15 0.65,0.11 1.19,0.49 1.35,1.18 0.09,0.41 0.03,0.83 -0.19,1.2 -0.2,0.33 -0.49,0.58 -0.84,0.74 -0.58,0.26 -1.22,0.42 -1.84,0.57 -0.62,0.14 -1.32,0.26 -1.96,0.2 -0.49,-0.05 -0.92,-0.26 -1.2,-0.62 -0.02,0.03 -0.04,0.06 -0.06,0.09 -0.77,0.92 -1.76,1.52 -2.93,1.78 -1.1,0.26 -2.2,0.19 -3.19,-0.38 -0.02,-0.01 -0.03,-0.01 -0.04,-0.02 -0.04,0.06 -0.08,0.12 -0.13,0.18 -0.61,0.82 -1.45,1.33 -2.45,1.56 -0.81,0.19 -1.63,0.13 -2.37,-0.29 -0.31,-0.18 -0.57,-0.41 -0.78,-0.67 -0.02,0.09 -0.06,0.17 -0.09,0.26 -0.16,0.36 -0.39,0.67 -0.67,0.95 -0.61,0.6 -1.36,0.96 -2.19,1.15 -1,0.23 -1.98,0.15 -2.91,-0.31 -0.11,-0.06 -0.23,-0.12 -0.34,-0.19 0,0.01 -0.01,0.02 -0.01,0.02 -0.16,0.38 -0.4,0.71 -0.7,0.98 -0.38,0.36 -0.82,0.61 -1.33,0.72 -0.48,0.11 -0.96,0.09 -1.4,-0.09 -0.42,0.37 -0.92,0.62 -1.47,0.75 -0.65,0.15 -1.31,0.16 -1.93,-0.09 -0.4,-0.15 -0.74,-0.41 -1.02,-0.73 -0.27,-0.33 -0.47,-0.7 -0.56,-1.12 -0.02,-0.07 -0.03,-0.15 -0.04,-0.22 -0.18,0.25 -0.41,0.45 -0.7,0.57 0.14,0.18 0.25,0.39 0.3,0.62 0.18,0.8 -0.21,1.47 -0.92,1.83 -0.73,0.36 -1.56,0.58 -2.34,0.76 -0.62,0.14 -1.38,0.31 -2.02,0.27 -0.35,-0.03 -0.68,-0.16 -0.96,-0.39 -0.27,-0.24 -0.46,-0.54 -0.55,-0.89 -0.1,-0.46 -0.01,-0.92 0.29,-1.31 0.09,-0.11 0.21,-0.21 0.33,-0.3 -0.1,-1.03 -0.4,-2.12 -0.63,-3.13 -0.07,-0.3 -0.16,-0.76 -0.28,-1.09 -0.22,-0.05 -0.44,-0.12 -0.63,-0.25 -0.31,-0.2 -0.5,-0.51 -0.58,-0.87 -0.12,-0.51 0.04,-1.01 0.39,-1.39 0.3,-0.32 0.68,-0.52 1.1,-0.61 0.26,-0.06 0.52,-0.1 0.78,-0.14 0.76,-0.11 1.51,-0.27 2.25,-0.44 0.9,-0.21 1.89,-0.4 2.76,-0.75 0.09,-0.04 0.17,-0.06 0.26,-0.09 0.48,-0.1 0.93,0.05 1.3,0.34 0.6,0.49 1.01,1.11 1.2,1.86 0.57,-0.37 1.19,-0.64 1.86,-0.79 0.84,-0.2 1.69,-0.17 2.49,0.17 0.43,0.19 0.82,0.46 1.09,0.85 0.01,0.01 0.03,0.03 0.04,0.05 0.12,-0.31 0.29,-0.6 0.5,-0.88 0.69,-0.94 1.64,-1.51 2.76,-1.77 0.78,-0.18 1.57,-0.18 2.33,0.06 0.03,-0.04 0.07,-0.08 0.1,-0.11l2.36 -2.37 0.03 -0.03c0.19,-0.15 0.42,-0.26 0.66,-0.31l0.48 -0.12c0.38,-0.08 0.77,-0.02 1.06,0.23 0.26,0.2 0.38,0.49 0.46,0.8l0.02 0.12 0.42 -0.1c0.41,-0.09 0.81,-0.06 1.14,0.2 0.17,0.13 0.29,0.29 0.37,0.47 0.73,-0.86 1.69,-1.41 2.8,-1.66 0.89,-0.21 1.78,-0.17 2.63,0.17 0.22,0.09 0.44,0.2 0.65,0.33 0.07,-0.13 0.16,-0.25 0.26,-0.36 0.3,-0.34 0.73,-0.61 1.13,-0.84 0.54,-0.3 1.13,-0.59 1.74,-0.73 0.37,-0.09 0.76,-0.1 1.08,0.07 0.3,-0.28 0.67,-0.47 1.08,-0.56 0.51,-0.12 1.01,-0.08 1.47,0.13 0.27,-0.23 0.59,-0.4 0.91,-0.54 0.55,-0.24 1.14,-0.41 1.73,-0.54 0.44,-0.1 0.91,-0.17 1.36,-0.12 0.19,0.02 0.39,0.07 0.56,0.15 0.09,-0.1 0.18,-0.18 0.29,-0.26 0.41,-0.31 0.91,-0.49 1.41,-0.6 1,-0.23 2.3,-0.18 2.59,1.06 0.08,0.38 0.04,0.78 -0.16,1.12 -0.17,0.28 -0.44,0.5 -0.71,0.67 -0.13,0.36 -0.19,0.82 -0.24,1.2l-0.28 2.34c-0.07,0.54 -0.16,1.09 -0.32,1.61 -0.14,0.45 -0.33,0.88 -0.59,1.27 -0.55,0.83 -1.33,1.36 -2.3,1.58 -0.75,0.18 -1.51,0.14 -2.2,-0.22 -0.6,-0.3 -1,-0.81 -1.15,-1.47 -0.12,-0.54 -0.05,-1.08 0.23,-1.56 0.29,-0.49 0.73,-0.82 1.28,-0.94l-1.26 -1.61zm-33.17 7.63c0.01,-0.03 0.03,-0.06 0.04,-0.08 -0.02,-0.02 -0.03,-0.03 -0.05,-0.05 0,0.04 0,0.08 0.01,0.13zm18.17 -4.72l-0.18 0.04 0.22 0.97c0.03,-0.02 0.05,-0.03 0.07,-0.04 -0.07,-0.32 -0.11,-0.65 -0.11,-0.97z"/>
    </g>
    <path class="fil6" d="M165.42 232.52c0.24,-0.31 0.63,-0.54 1,-0.69 0.53,-0.23 1.09,-0.4 1.65,-0.52 0.39,-0.09 0.81,-0.16 1.21,-0.11 0.29,0.03 0.55,0.13 0.74,0.31 0.09,-0.2 0.25,-0.37 0.43,-0.51 0.36,-0.27 0.81,-0.42 1.24,-0.52 0.74,-0.17 1.82,-0.23 2.04,0.71 0.06,0.27 0.03,0.54 -0.11,0.78 -0.13,0.23 -0.36,0.4 -0.57,0.53 -0.08,0.05 -0.13,0.12 -0.17,0.2 -0.14,0.39 -0.21,0.92 -0.26,1.33l-0.29 2.33c-0.06,0.51 -0.15,1.04 -0.3,1.53 -0.13,0.41 -0.3,0.8 -0.54,1.16 -0.48,0.73 -1.16,1.19 -2.01,1.38 -0.64,0.15 -1.3,0.13 -1.89,-0.18 -0.48,-0.24 -0.79,-0.64 -0.91,-1.16 -0.1,-0.43 -0.05,-0.85 0.18,-1.23 0.22,-0.38 0.56,-0.63 0.99,-0.72 0.3,-0.07 0.59,-0.06 0.86,0.04l-1.95 -2.49c-0.08,-0.11 -0.25,-0.33 -0.34,-0.4 -0.05,-0.02 -0.13,-0.04 -0.21,-0.06 0,0.09 -0.01,0.18 -0.03,0.27 -0.05,0.27 -0.16,0.53 -0.31,0.75 -0.28,0.42 -0.68,0.69 -1.17,0.8 -0.26,0.06 -0.53,0.08 -0.79,0.01 -0.1,-0.03 -0.21,-0.07 -0.31,-0.11 0.01,0.05 0.02,0.09 0.03,0.13 0.07,0.31 0.17,0.76 0.3,1.07 0.03,0 0.06,0 0.08,0 0.54,0.04 1.02,0.29 1.15,0.85 0.07,0.3 0.02,0.6 -0.14,0.86 -0.15,0.25 -0.37,0.44 -0.64,0.56 -0.53,0.24 -1.17,0.41 -1.74,0.54 -0.56,0.13 -1.24,0.25 -1.81,0.19 -0.53,-0.05 -0.96,-0.34 -1.09,-0.87 -0.03,-0.13 -0.03,-0.25 -0.02,-0.36 -0.14,0.3 -0.33,0.59 -0.56,0.86 -0.7,0.85 -1.6,1.39 -2.67,1.63 -0.99,0.23 -1.97,0.18 -2.87,-0.33 -0.16,-0.09 -0.31,-0.2 -0.45,-0.31 -0.06,0.21 -0.17,0.41 -0.31,0.59 -0.55,0.74 -1.29,1.19 -2.18,1.39 -0.7,0.16 -1.41,0.12 -2.04,-0.24 -0.62,-0.36 -0.99,-0.93 -1.15,-1.63l-0.56 -2.42 -0.11 0.03c0.01,0.03 0.01,0.06 0.02,0.08 0.11,0.48 0.04,0.94 -0.25,1.35 -0.15,0.22 -0.34,0.39 -0.56,0.51 0.28,-0.04 0.54,0.05 0.76,0.22 0.23,0.18 0.38,0.43 0.45,0.71 0.07,0.33 0.01,0.65 -0.12,0.95 -0.14,0.31 -0.34,0.58 -0.57,0.81 -0.55,0.54 -1.23,0.86 -1.97,1.03 -0.9,0.21 -1.77,0.14 -2.6,-0.27 -0.31,-0.15 -0.59,-0.34 -0.83,-0.55 -0.01,0.21 -0.07,0.41 -0.15,0.61 -0.14,0.32 -0.34,0.59 -0.6,0.83 -0.32,0.29 -0.69,0.5 -1.11,0.6 -0.49,0.11 -0.97,0.06 -1.39,-0.2 -0.4,0.44 -0.9,0.73 -1.49,0.86 -0.54,0.13 -1.12,0.15 -1.65,-0.06 -0.33,-0.14 -0.61,-0.34 -0.84,-0.61 -0.23,-0.27 -0.38,-0.58 -0.46,-0.92 -0.14,-0.58 -0.01,-1.13 0.32,-1.62 0.08,-0.13 0.18,-0.26 0.29,-0.37 -0.12,-0.03 -0.24,-0.07 -0.36,-0.14 -0.28,-0.17 -0.46,-0.43 -0.53,-0.75 -0.08,-0.33 -0.02,-0.67 0.13,-0.97 0.01,-0.01 0.01,-0.02 0.02,-0.04 -0.09,0.05 -0.19,0.09 -0.29,0.11 -0.22,0.05 -0.46,0.05 -0.67,-0.05 -0.03,-0.01 -0.06,-0.02 -0.09,-0.04 0.21,0.39 0.34,0.84 0.42,1.2 0.14,0.61 0.24,1.36 0.04,1.97 -0.13,0.4 -0.42,0.69 -0.84,0.79 -0.55,0.12 -0.96,-0.22 -1.13,-0.73 -0.03,-0.08 -0.08,-0.22 -0.12,-0.29 0,-0.01 -0.02,-0.02 -0.04,-0.03 -0.03,-0.02 -0.09,-0.01 -0.15,-0.01 0.04,0.17 0.07,0.33 0.11,0.49 0.04,0.17 0.16,0.69 0.28,0.87 0.08,0 0.16,-0.01 0.23,-0.02 0.25,-0.02 0.49,0.06 0.68,0.22 0.18,0.15 0.31,0.35 0.36,0.59 0.14,0.58 -0.16,1.05 -0.68,1.31 -0.67,0.33 -1.5,0.55 -2.24,0.72 -0.54,0.13 -1.31,0.3 -1.87,0.26 -0.26,-0.02 -0.5,-0.12 -0.7,-0.29 -0.2,-0.16 -0.34,-0.38 -0.4,-0.63 -0.07,-0.33 -0.01,-0.64 0.2,-0.92 0.09,-0.12 0.28,-0.25 0.41,-0.33 0.04,-0.03 0.03,-0.17 0.02,-0.21 -0.08,-1.01 -0.41,-2.29 -0.64,-3.28 -0.08,-0.35 -0.22,-1 -0.37,-1.32 -0.03,-0.05 -0.05,-0.07 -0.1,-0.08 -0.21,-0.04 -0.46,-0.1 -0.64,-0.22 -0.21,-0.14 -0.33,-0.35 -0.38,-0.59 -0.08,-0.36 0.03,-0.7 0.28,-0.98 0.23,-0.25 0.53,-0.4 0.86,-0.47 0.25,-0.06 0.5,-0.1 0.75,-0.13 0.76,-0.12 1.53,-0.28 2.29,-0.45 0.86,-0.2 1.97,-0.43 2.81,-0.77 0.06,-0.03 0.14,-0.05 0.21,-0.07 0.33,-0.07 0.64,0.05 0.9,0.25 0.54,0.43 0.9,0.98 1.05,1.65 0.06,0.25 0.07,0.51 0,0.76 0.02,-0.02 0.05,-0.04 0.07,-0.05 0.68,-0.6 1.46,-1 2.34,-1.21 0.74,-0.17 1.49,-0.15 2.2,0.15 0.35,0.16 0.67,0.38 0.9,0.7 0.23,0.33 0.37,0.75 0.46,1.15l0.19 0.88c0.04,0.17 0.16,0.68 0.27,0.89 0,0 0.01,0 0.01,0 0.02,0 0.04,0 0.05,0 -0.13,-0.26 -0.23,-0.55 -0.3,-0.86 -0.25,-1.05 -0.04,-2.03 0.6,-2.89 0.62,-0.84 1.48,-1.36 2.49,-1.59 0.78,-0.18 1.55,-0.16 2.29,0.12 0.06,0.02 0.11,0.04 0.16,0.06 0.04,-0.13 0.11,-0.26 0.21,-0.36l2.34 -2.35 0.02 -0.01c0.13,-0.12 0.29,-0.19 0.46,-0.23l0.48 -0.11c0.24,-0.05 0.49,-0.02 0.67,0.13 0.17,0.14 0.25,0.35 0.3,0.56l0.13 0.56 0.87 -0.2c0.26,-0.06 0.53,-0.06 0.75,0.11 0.2,0.16 0.28,0.4 0.34,0.63l0.08 0.35c0.01,0.08 0.03,0.16 0.04,0.25 0.1,-0.2 0.21,-0.39 0.35,-0.58 0.69,-0.93 1.63,-1.5 2.75,-1.75 0.79,-0.19 1.59,-0.15 2.35,0.15 0.4,0.16 0.77,0.39 1.09,0.68 -0.01,-0.31 0.11,-0.6 0.33,-0.84 0.26,-0.29 0.67,-0.54 1.01,-0.73 0.5,-0.29 1.07,-0.56 1.63,-0.69 0.29,-0.07 0.62,-0.1 0.86,0.1 0.06,0.05 0.11,0.1 0.15,0.17 0.27,-0.38 0.65,-0.65 1.15,-0.76 0.48,-0.11 0.95,-0.06 1.37,0.21 0.02,0.02 0.05,0.04 0.08,0.05zm-5.83 3.42c0.16,0.29 0.28,0.59 0.36,0.92 0.12,0.54 0.1,1.05 -0.03,1.53 0.05,-0.08 0.12,-0.16 0.19,-0.24 0.02,-0.03 0.07,-0.07 0.07,-0.07 0,-0.01 0,-0.03 0,-0.06 -0.03,-0.59 -0.22,-1.35 -0.35,-1.93 -0.01,-0.02 -0.02,-0.06 -0.03,-0.1 -0.07,-0.01 -0.14,-0.03 -0.21,-0.05zm-7.57 1.35c-0.12,0.1 -0.27,0.17 -0.44,0.2l-0.83 0.2 0.41 1.76c0.02,0.09 0.05,0.19 0.12,0.25 0.01,0.01 0.02,0.01 0.04,0.01 0.08,-0.02 0.25,-0.16 0.32,-0.22 0.11,-0.11 0.25,-0.19 0.41,-0.22 0.03,-0.01 0.06,-0.02 0.1,-0.02 -0.04,-0.12 -0.08,-0.24 -0.1,-0.36 -0.13,-0.55 -0.14,-1.09 -0.03,-1.6zm-22.22 2.86c0,0.13 0.02,0.29 0.03,0.38 0.01,0.2 0.04,0.41 0.08,0.62 0.06,-0.01 0.12,-0.02 0.15,-0.03 0.02,0 0.03,-0.01 0.05,-0.01 -0.01,-0.42 0.1,-0.84 0.39,-1.09 -0.23,0.04 -0.46,0.08 -0.64,0.12 -0.01,0 -0.03,0.01 -0.06,0.01zm5.97 1.28c0.16,-0.05 0.32,-0.09 0.48,-0.13 -0.04,-0.16 -0.1,-0.36 -0.18,-0.49 -0.06,0.08 -0.12,0.23 -0.15,0.3 -0.04,0.11 -0.09,0.22 -0.15,0.32zm9.82 -0.82c-0.02,0 -0.03,0 -0.04,0.01 -0.48,0.11 -0.94,0.02 -1.31,-0.31 -0.17,-0.16 -0.34,-0.45 -0.45,-0.65 -0.05,-0.07 -0.07,-0.13 -0.15,-0.11 -0.06,0.02 -0.09,0.06 -0.12,0.12 -0.06,0.13 -0.05,0.26 -0.02,0.4 0.08,0.36 0.28,0.62 0.58,0.83 0.22,0.15 0.46,0.18 0.72,0.12 0.12,-0.03 0.26,-0.06 0.37,-0.12 0.13,-0.07 0.27,-0.18 0.39,-0.27 0.01,-0.01 0.02,-0.02 0.03,-0.02zm24.72 -7.92c-0.01,0.03 -0.02,0.06 -0.03,0.09 -0.01,0.02 -0.03,0.06 -0.03,0.05 0,0.04 0.02,0.07 0.04,0.09 0.08,0.11 0.17,0.22 0.26,0.32 0.01,-0.1 0.01,-0.2 -0.01,-0.3 -0.01,-0.03 -0.02,-0.08 -0.05,-0.1 -0.06,-0.05 -0.12,-0.1 -0.18,-0.15zm-13.86 6.11c0,-0.06 -0.01,-0.12 -0.02,-0.16 -0.08,-0.34 -0.21,-0.67 -0.35,-0.99 -0.14,-0.29 -0.3,-0.6 -0.5,-0.85 -0.01,-0.02 -0.08,-0.09 -0.11,-0.1 0,0 -0.01,0 -0.01,0 -0.02,0.05 -0.01,0.15 0.01,0.19 0.06,0.28 0.2,0.58 0.32,0.83 0.15,0.33 0.32,0.65 0.52,0.95 0.02,0.02 0.09,0.12 0.12,0.13 0.01,0 0.02,0 0.02,0z"/>
    <path class="fil23" d="M129.74 239.62c-0.27,0.06 -0.42,0.17 -0.45,0.32 -0.03,0.12 -0.03,0.33 0,0.64 0.03,0.31 0.07,0.58 0.13,0.83 0.03,0.15 0.1,0.24 0.21,0.27 0.11,0.03 0.29,0.02 0.55,-0.04 0.18,-0.04 0.3,-0.1 0.37,-0.18 0.07,-0.09 0.1,-0.21 0.09,-0.36 0,-0.46 0.13,-0.71 0.41,-0.78 0.49,-0.11 0.86,0.41 1.13,1.57 0.16,0.73 0.18,1.29 0.05,1.68 -0.08,0.24 -0.23,0.38 -0.45,0.43 -0.23,0.06 -0.4,-0.07 -0.51,-0.37 -0.06,-0.2 -0.12,-0.34 -0.17,-0.41 -0.05,-0.08 -0.12,-0.14 -0.22,-0.2 -0.16,-0.09 -0.37,-0.11 -0.62,-0.05 -0.17,0.04 -0.29,0.1 -0.33,0.17 -0.05,0.08 -0.05,0.21 0,0.39 0,0.03 0.04,0.21 0.12,0.55 0.15,0.68 0.32,1.08 0.5,1.2 0.06,0.05 0.11,0.08 0.17,0.08 0.05,0.01 0.19,0 0.4,-0.01 0.11,-0.01 0.21,0.02 0.3,0.1 0.09,0.07 0.15,0.17 0.18,0.29 0.07,0.3 -0.06,0.54 -0.4,0.71 -0.48,0.24 -1.19,0.47 -2.12,0.68 -0.81,0.19 -1.38,0.27 -1.71,0.24 -0.15,-0.01 -0.28,-0.06 -0.4,-0.16 -0.11,-0.09 -0.18,-0.21 -0.22,-0.34 -0.04,-0.18 0,-0.33 0.1,-0.47 0.02,-0.03 0.12,-0.11 0.29,-0.22 0.2,-0.14 0.29,-0.37 0.26,-0.7 -0.04,-0.5 -0.26,-1.62 -0.66,-3.35 -0.17,-0.75 -0.31,-1.22 -0.41,-1.43 -0.1,-0.21 -0.26,-0.34 -0.48,-0.38 -0.22,-0.04 -0.37,-0.09 -0.44,-0.14 -0.08,-0.05 -0.13,-0.14 -0.16,-0.26 -0.04,-0.17 0.01,-0.34 0.16,-0.49 0.14,-0.16 0.34,-0.27 0.58,-0.32 0.16,-0.04 0.4,-0.08 0.7,-0.13 0.66,-0.09 1.44,-0.24 2.34,-0.45 1.43,-0.33 2.39,-0.59 2.87,-0.79 0.06,-0.02 0.11,-0.04 0.15,-0.05 0.14,-0.03 0.29,0.02 0.45,0.15 0.45,0.36 0.74,0.81 0.86,1.35 0.06,0.25 0.04,0.46 -0.04,0.63 -0.08,0.17 -0.21,0.28 -0.4,0.32 -0.14,0.03 -0.25,0.03 -0.33,-0.01 -0.08,-0.04 -0.31,-0.19 -0.68,-0.46 -0.22,-0.16 -0.47,-0.25 -0.74,-0.25 -0.26,-0.01 -0.74,0.06 -1.43,0.2zm6.67 -0.52c0.69,-0.16 1.31,-0.12 1.87,0.11 0.29,0.13 0.52,0.3 0.67,0.52 0.16,0.22 0.28,0.53 0.38,0.95l0.19 0.89c0.14,0.61 0.28,1 0.41,1.16 0.06,0.08 0.12,0.12 0.16,0.14 0.05,0.01 0.13,0.01 0.27,0 0.13,-0.01 0.21,0.06 0.24,0.21 0.04,0.19 0.01,0.41 -0.09,0.64 -0.11,0.25 -0.26,0.46 -0.47,0.66 -0.26,0.24 -0.55,0.4 -0.87,0.47 -0.42,0.1 -0.78,0.03 -1.08,-0.2 -0.11,-0.08 -0.2,-0.12 -0.27,-0.1 -0.08,0.02 -0.17,0.09 -0.28,0.22 -0.33,0.38 -0.75,0.63 -1.25,0.74 -0.52,0.12 -0.96,0.11 -1.33,-0.04 -0.24,-0.1 -0.45,-0.25 -0.63,-0.46 -0.18,-0.2 -0.29,-0.44 -0.35,-0.69 -0.1,-0.41 -0.02,-0.82 0.24,-1.21 0.41,-0.62 1.12,-1.05 2.15,-1.29 0.23,-0.05 0.37,-0.11 0.42,-0.16 0.05,-0.06 0.05,-0.17 0.02,-0.34 -0.1,-0.42 -0.21,-0.71 -0.34,-0.88 -0.13,-0.17 -0.3,-0.23 -0.49,-0.18 -0.12,0.02 -0.22,0.08 -0.3,0.18 -0.07,0.09 -0.16,0.25 -0.25,0.47 -0.24,0.58 -0.55,0.91 -0.93,1 -0.2,0.05 -0.37,0.03 -0.52,-0.06 -0.15,-0.09 -0.24,-0.22 -0.28,-0.41 -0.05,-0.19 -0.01,-0.4 0.09,-0.62 0.11,-0.22 0.28,-0.44 0.51,-0.64 0.63,-0.54 1.33,-0.91 2.11,-1.08zm0.39 3.52c-0.17,0.04 -0.31,0.14 -0.4,0.32 -0.1,0.17 -0.12,0.35 -0.08,0.55 0.04,0.19 0.12,0.33 0.24,0.43 0.12,0.09 0.25,0.12 0.4,0.09 0.32,-0.07 0.42,-0.38 0.29,-0.91 -0.05,-0.22 -0.1,-0.36 -0.17,-0.42 -0.06,-0.07 -0.15,-0.09 -0.28,-0.06zm6.48 -5.1c0.71,-0.16 1.37,-0.13 1.99,0.1 0.58,0.22 0.93,0.58 1.05,1.07 0.08,0.35 0.02,0.65 -0.16,0.92 -0.18,0.25 -0.42,0.41 -0.73,0.49 -0.33,0.07 -0.61,0.01 -0.83,-0.19 -0.06,-0.06 -0.19,-0.24 -0.36,-0.52 -0.18,-0.31 -0.42,-0.43 -0.72,-0.36 -0.22,0.05 -0.38,0.19 -0.48,0.41 -0.11,0.23 -0.13,0.48 -0.06,0.75 0.11,0.48 0.37,0.86 0.8,1.15 0.34,0.23 0.72,0.3 1.14,0.2 0.2,-0.04 0.36,-0.1 0.49,-0.16 0.13,-0.07 0.29,-0.18 0.48,-0.33 0.05,-0.04 0.11,-0.07 0.17,-0.08 0.14,-0.03 0.27,0 0.4,0.11 0.14,0.1 0.22,0.23 0.26,0.4 0.04,0.18 0.01,0.39 -0.09,0.62 -0.1,0.23 -0.26,0.44 -0.46,0.64 -0.44,0.44 -1.01,0.73 -1.71,0.89 -0.81,0.19 -1.56,0.11 -2.24,-0.23 -0.88,-0.43 -1.42,-1.11 -1.63,-2.04 -0.21,-0.89 -0.04,-1.71 0.51,-2.45 0.53,-0.71 1.25,-1.18 2.18,-1.39zm6.89 0.05l0.47 2c0.05,0.24 0.15,0.42 0.3,0.54 0.15,0.13 0.32,0.17 0.5,0.13 0.16,-0.04 0.34,-0.16 0.56,-0.36 0.05,-0.05 0.11,-0.08 0.17,-0.09 0.1,-0.03 0.19,0.01 0.3,0.11 0.11,0.1 0.17,0.21 0.2,0.35 0.06,0.24 -0.02,0.51 -0.24,0.79 -0.45,0.61 -1.07,1.01 -1.87,1.19 -0.63,0.15 -1.18,0.08 -1.65,-0.19 -0.46,-0.27 -0.76,-0.69 -0.9,-1.28l-0.63 -2.74c-0.02,-0.09 -0.04,-0.14 -0.07,-0.16 -0.03,-0.01 -0.08,-0.01 -0.17,0.01l-0.62 0.14c-0.11,0.03 -0.19,0.02 -0.23,-0.01 -0.04,-0.03 -0.07,-0.11 -0.11,-0.25l-0.06 -0.26c-0.02,-0.12 0,-0.22 0.08,-0.29l2.32 -2.33c0.06,-0.05 0.14,-0.09 0.24,-0.11l0.48 -0.12c0.1,-0.02 0.17,-0.01 0.21,0.03 0.05,0.03 0.09,0.12 0.12,0.26l0.18 0.79c0.03,0.12 0.06,0.2 0.11,0.22 0.04,0.03 0.13,0.03 0.25,0l1.1 -0.25c0.14,-0.03 0.24,-0.03 0.3,0.02 0.06,0.04 0.1,0.15 0.14,0.32l0.09 0.35c0.04,0.19 0.04,0.33 0,0.41 -0.03,0.09 -0.13,0.15 -0.28,0.18l-1.07 0.25c-0.11,0.03 -0.18,0.06 -0.21,0.11 -0.03,0.05 -0.03,0.13 -0.01,0.24zm5.35 -2.87c0.72,-0.17 1.4,-0.13 2.03,0.12 0.45,0.18 0.85,0.46 1.18,0.84 0.35,0.39 0.58,0.83 0.7,1.32 0.19,0.86 -0.03,1.68 -0.68,2.46 -0.62,0.75 -1.41,1.23 -2.38,1.45 -0.95,0.22 -1.77,0.13 -2.48,-0.27 -0.69,-0.39 -1.13,-1.01 -1.32,-1.85 -0.22,-0.93 -0.05,-1.77 0.51,-2.53 0.59,-0.79 1.4,-1.3 2.44,-1.54zm-0.16 1.48c-0.17,0.04 -0.3,0.13 -0.38,0.29 -0.07,0.15 -0.08,0.33 -0.04,0.54 0.06,0.24 0.18,0.55 0.36,0.94 0.18,0.39 0.37,0.73 0.57,1.02 0.2,0.29 0.43,0.41 0.71,0.35 0.35,-0.09 0.48,-0.35 0.37,-0.8 -0.07,-0.33 -0.2,-0.69 -0.39,-1.1 -0.19,-0.4 -0.37,-0.72 -0.56,-0.95 -0.19,-0.24 -0.41,-0.34 -0.64,-0.29zm6.57 -2.91c0.21,-0.05 0.35,-0.05 0.41,0 0.06,0.05 0.14,0.22 0.25,0.54 0.06,0.17 0.14,0.24 0.24,0.22 0.08,-0.02 0.15,-0.1 0.19,-0.23 0.2,-0.56 0.56,-0.91 1.07,-1.02 0.36,-0.09 0.68,-0.04 0.96,0.14 0.14,0.09 0.26,0.22 0.37,0.38 0.12,0.17 0.19,0.33 0.23,0.5 0.04,0.18 0.05,0.38 0,0.6 -0.04,0.21 -0.12,0.4 -0.22,0.56 -0.2,0.3 -0.48,0.49 -0.85,0.57 -0.2,0.05 -0.38,0.05 -0.53,0.01 -0.16,-0.04 -0.37,-0.14 -0.64,-0.3 -0.1,-0.07 -0.19,-0.09 -0.26,-0.08 -0.11,0.03 -0.17,0.11 -0.17,0.24 -0.01,0.13 0.04,0.4 0.13,0.8 0.14,0.6 0.25,1 0.34,1.2 0.06,0.12 0.12,0.19 0.18,0.22 0.06,0.04 0.17,0.06 0.35,0.07 0.38,0.02 0.6,0.17 0.66,0.43 0.04,0.17 0.01,0.32 -0.08,0.47 -0.08,0.14 -0.22,0.26 -0.4,0.34 -0.36,0.17 -0.91,0.34 -1.64,0.51 -0.7,0.16 -1.25,0.22 -1.64,0.18 -0.35,-0.04 -0.55,-0.19 -0.62,-0.46 -0.04,-0.21 0.03,-0.42 0.23,-0.64 0.1,-0.1 0.16,-0.19 0.19,-0.26 0.03,-0.07 0.04,-0.16 0.03,-0.27 -0.02,-0.37 -0.14,-1.05 -0.36,-2.02 -0.04,-0.18 -0.09,-0.3 -0.15,-0.37 -0.06,-0.07 -0.15,-0.11 -0.28,-0.13 -0.31,-0.05 -0.48,-0.17 -0.53,-0.38 -0.05,-0.19 0.01,-0.38 0.18,-0.56 0.16,-0.18 0.45,-0.39 0.87,-0.63 0.57,-0.32 1.07,-0.53 1.49,-0.63zm10.15 0.69l-0.28 2.33c-0.07,0.58 -0.17,1.06 -0.28,1.45 -0.12,0.38 -0.28,0.72 -0.47,1.01 -0.4,0.61 -0.97,1 -1.69,1.16 -0.59,0.14 -1.09,0.09 -1.53,-0.13 -0.33,-0.17 -0.54,-0.44 -0.63,-0.81 -0.07,-0.31 -0.03,-0.58 0.12,-0.84 0.15,-0.25 0.36,-0.41 0.65,-0.47 0.28,-0.07 0.53,-0.03 0.75,0.12 0.1,0.07 0.18,0.13 0.22,0.2 0.04,0.06 0.12,0.2 0.23,0.41 0.08,0.17 0.2,0.23 0.35,0.2 0.13,-0.03 0.22,-0.11 0.28,-0.24 0.05,-0.12 0.06,-0.26 0.03,-0.42 -0.04,-0.19 -0.22,-0.47 -0.52,-0.86l-2.13 -2.71c-0.23,-0.29 -0.38,-0.46 -0.48,-0.52 -0.09,-0.06 -0.28,-0.12 -0.56,-0.18 -0.09,-0.01 -0.17,-0.05 -0.25,-0.13 -0.08,-0.08 -0.13,-0.17 -0.15,-0.25 -0.08,-0.36 0.22,-0.68 0.89,-0.96 0.44,-0.19 0.97,-0.36 1.56,-0.49 0.42,-0.1 0.76,-0.13 1.02,-0.1 0.35,0.04 0.56,0.2 0.62,0.47 0.03,0.1 0.01,0.23 -0.05,0.38 -0.06,0.15 -0.08,0.27 -0.06,0.37 0.03,0.1 0.07,0.19 0.13,0.28 0.07,0.1 0.2,0.25 0.39,0.47 0.21,0.24 0.38,0.34 0.49,0.32 0.13,-0.03 0.22,-0.18 0.3,-0.45 0.07,-0.28 0.08,-0.53 0.03,-0.75 -0.04,-0.18 -0.12,-0.32 -0.25,-0.41 -0.19,-0.14 -0.3,-0.28 -0.33,-0.4 -0.05,-0.21 0.05,-0.4 0.29,-0.58 0.25,-0.18 0.59,-0.33 1.04,-0.43 0.84,-0.19 1.3,-0.09 1.4,0.31 0.03,0.15 0.01,0.28 -0.05,0.39 -0.06,0.11 -0.2,0.23 -0.41,0.36 -0.17,0.11 -0.29,0.26 -0.37,0.46 -0.11,0.3 -0.21,0.78 -0.3,1.44z"/>
   </g>
  </g>
  <g>
  </g>
 </g>
</svg>
