<svg xmlns="http://www.w3.org/2000/svg" xmlns:xlink="http://www.w3.org/1999/xlink" viewBox="0 0 23.45 81.2"><defs><style>.cls-1{fill:none;}.cls-2{fill:#997373;}.cls-3{fill:#231f20;}.cls-4{fill:#ffc4b2;}.cls-5{fill:#3a2323;}.cls-6{fill:#fbfeff;}.cls-7{fill:#492e2e;}.cls-8{fill:#fff;}.cls-9{fill:#ed2024;}.cls-10{fill:#f4e6e6;}.cls-11{fill:#a91e22;}.cls-12{fill:#721011;}.cls-13{clip-path:url(#clip-path);}.cls-14{fill:#dd1f26;}.cls-15{fill:#bd2226;}</style><clipPath id="clip-path"><path class="cls-1" d="M11.94,16.78a26.6,26.6,0,0,1,.62-2.92c.33-.84.1-1,1.16-1.9a5.39,5.39,0,0,1,2.36-1.3,4.16,4.16,0,0,1,1.79,0c.24.12.65.36.65.36l.4.27a2.7,2.7,0,0,0-.89-.12,4.94,4.94,0,0,0-1.78.34,9.36,9.36,0,0,0-1.77,1,3.58,3.58,0,0,0-1.27,2.07c-.23.89-.49,2.44-.49,2.44Z"/></clipPath></defs><g id="Layer_2" data-name="Layer 2"><g id="Layer_1-2" data-name="Layer 1"><path class="cls-2" d="M23.45,75.26c0,3.28-4.72,5.94-10.55,5.94S2.34,78.54,2.34,75.26s4.73-5.94,10.56-5.94S23.45,72,23.45,75.26Z"/><path class="cls-3" d="M11,72.21V71.6l2.25,1.61,4.25,1.65,1.23-.38.09,1.06a2,2,0,0,1-1.07.4,8.87,8.87,0,0,1-3.1-.88,20.57,20.57,0,0,1-3.19-2A2.22,2.22,0,0,1,11,72.21Z"/><path class="cls-3" d="M6,74.84v-.6l2.25,1.6,4.25,1.66,1.23-.39.09,1.06a2,2,0,0,1-1.07.4,8.56,8.56,0,0,1-3.1-.87,21.39,21.39,0,0,1-3.19-2A2.23,2.23,0,0,1,6,74.84Z"/><path class="cls-4" d="M15.14,73.3c-1-.52-2-1.16-1.72-1.75a1.11,1.11,0,0,1,.8-.45,12.06,12.06,0,0,1,1.45.54S15.56,61,15.15,58.7c-.13-.76,3.52-.79,3.52-.79.13.54.25,10.26,0,13.12a8.36,8.36,0,0,0,0,2c-.25.11-.76.33-1.14.51A2.9,2.9,0,0,1,15.14,73.3Z"/><path class="cls-5" d="M18.88,74.53c-.35.83-1.15.75-2.78.16a13.94,13.94,0,0,1-3.67-1.86c-1-.76-1-.87-1.17-1.38-.19-.72.86-1.12,4.14-.07l.48.15c-.33.08-.26.61-.26.61a1.37,1.37,0,0,0,.76.91,1.93,1.93,0,0,0,1.64.06l.8-.35C18.94,73.7,19.09,74.06,18.88,74.53Z"/><path class="cls-4" d="M10.06,76.25c-1.05-.52-2-1.16-1.72-1.75a1,1,0,0,1,.74-.41c1,.32,1.5.5,1.5.5s-.27-13.8-.68-16.12c-.13-.77,3.53.38,3.53.38.13.54.4,12.27.16,15.13a8.36,8.36,0,0,0,0,2l-1.15.51A2.88,2.88,0,0,1,10.06,76.25Z"/><path class="cls-5" d="M13.67,77.56c-.35.83-1.15.75-2.78.16a14.1,14.1,0,0,1-3.67-1.86c-1-.76-1-.87-1.17-1.38-.19-.72.86-1.12,4.14-.06l.48.15c-.33.08-.26.6-.26.6a1.44,1.44,0,0,0,.76.92,2,2,0,0,0,1.64.06l.8-.36C13.73,76.73,13.88,77.09,13.67,77.56Z"/><polygon class="cls-6" points="17.13 15.83 19.3 0 19.54 0.05 17.23 15.86 17.13 15.83"/><polygon class="cls-7" points="9.51 31.28 3.42 34.73 0 23.99 6.08 20.54 9.51 31.28"/><polygon class="cls-8" points="8.8 30.27 3.62 33.2 0.71 24.06 5.88 21.12 8.8 30.27"/><path class="cls-4" d="M7.77,25.87l.38,1.22a6.68,6.68,0,0,0-.87.55c-.25.21,0,.42.26.42a7,7,0,0,0,1.12,0l.53-.17.73-1.25A3.39,3.39,0,0,0,7.77,25.87Z"/><path class="cls-4" d="M2,30.84a3.77,3.77,0,0,1,1.14-.3c.35,0,.41.13.32.3a.76.76,0,0,1-.38.33,5.44,5.44,0,0,0-.74.85,1.84,1.84,0,0,0-.41.91s.34,1.5-.38.83C.66,33,0,31.27.46,30.47a4,4,0,0,1,1-1.24Z"/><path class="cls-4" d="M13.88,12.59c-.43.3-2,.67-2.49,4.22-.4,3.15.29,4,.93,4.23a7.26,7.26,0,0,0,1.61.15v2.65a4.47,4.47,0,0,0,3.06,0l1.49-.61A5.44,5.44,0,0,1,18,20.48c.12-2.16.89-5.24.35-6.38a3.09,3.09,0,0,0-4-1.73A2.35,2.35,0,0,0,13.88,12.59Z"/><path class="cls-9" d="M20.55,27.53c-.65-5.2-2.1-5.44-2.1-5.44s-4,1-5.07,1.4-1.94.87-3,3,.3,5.28.3,5.28c.13,2-.51,3.78-.76,5.73-.32,2.37-.59,4.17-1.12,7.17C7.51,49.55,7.18,52.6,6.45,58.88c0,0,1.42,2.16,6.2,2.48,3.27.22,8.82-3.15,8.82-3.15S21,47.84,21,38.69C21,30.39,20.88,30.09,20.55,27.53Z"/><path class="cls-10" d="M11.27,16.09a5.65,5.65,0,0,1-.58-3.18c.17-1.94,2.2-3.59,5.4-2.84a6.48,6.48,0,0,1,5.06,5c.64,2.2.39,4.31-1.41,4.85S15,20.77,14,19.25A16.46,16.46,0,0,0,11.27,16.09Z"/><path class="cls-8" d="M13.66,10.51c-1.27,0-1.78.64-1.67,1.2s.77.77,1.55,1.21a5.9,5.9,0,0,1,2.19,3.57,3.44,3.44,0,0,0,2.95,2.83c1.21,0,1.91-.19,2.16-1.34s.14-2-.56-1.57c-1.48.86-3.07,1-3.46-.88s-1.5-2.38-2.35-3.23S15.11,10.51,13.66,10.51Z"/><path class="cls-11" d="M12.37,24.93c-.79-.32-1.46.35-2.21,1.27s-3,5.51-3.37,5.67-.45-.33-1.08,0a1.34,1.34,0,0,1-1.33.06,17,17,0,0,0-1.88-.28,1.75,1.75,0,0,0-1.09,2.22,2.11,2.11,0,0,0,.16.34c.84.31,2.52,1.1,4.35,1.7a3.52,3.52,0,0,0,3.1,0c1-.58,4.61-4.09,5-5.84S14.31,25.69,12.37,24.93Z"/><ellipse class="cls-11" cx="12.37" cy="17.03" rx="2.14" ry="1.45" transform="translate(-6.37 26.63) rotate(-81.16)"/><ellipse class="cls-12" cx="12.31" cy="17.22" rx="1.82" ry="1.23" transform="translate(-6.6 26.74) rotate(-81.16)"/><ellipse class="cls-3" cx="12.3" cy="17.02" rx="1.55" ry="1.06" transform="matrix(0.15, -0.99, 0.99, 0.15, -6.37, 26.63)"/><path class="cls-3" d="M11.94,16.78a26.6,26.6,0,0,1,.62-2.92c.33-.84.1-1,1.16-1.9a5.39,5.39,0,0,1,2.36-1.3,4.16,4.16,0,0,1,1.79,0c.24.12.65.36.65.36l.4.27a2.7,2.7,0,0,0-.89-.12,4.94,4.94,0,0,0-1.78.34,9.36,9.36,0,0,0-1.77,1,3.58,3.58,0,0,0-1.27,2.07c-.23.89-.49,2.44-.49,2.44Z"/><g class="cls-13"><path class="cls-14" d="M12.28,16.78s.41-2.39.62-2.92c.34-.84.1-1,1.16-1.9a5.55,5.55,0,0,1,2.36-1.3,4.2,4.2,0,0,1,1.8,0l.65.36.39.27a2.64,2.64,0,0,0-.88-.12,4.94,4.94,0,0,0-1.78.34,10,10,0,0,0-1.78,1,3.58,3.58,0,0,0-1.27,2.07c-.23.89-.49,2.44-.49,2.44Z"/></g><polygon class="cls-6" points="12.22 17.44 11.02 1.51 11.27 1.51 12.33 17.45 12.22 17.44"/><ellipse class="cls-15" cx="12.3" cy="17.02" rx="1.22" ry="0.83" transform="matrix(0.15, -0.99, 0.99, 0.15, -6.41, 26.56)"/></g></g></svg>