<?xml version="1.0" encoding="utf-8"?>
<!-- Generator: Adobe Illustrator 25.0.0, SVG Export Plug-In . SVG Version: 6.00 Build 0)  -->
<svg version="1.1" id="_x31_" xmlns="http://www.w3.org/2000/svg" xmlns:xlink="http://www.w3.org/1999/xlink" x="0px" y="0px"
	 viewBox="0 0 800 253" style="enable-background:new 0 0 800 253;" xml:space="preserve">
<style type="text/css">
	.st0{fill:#FDE9E9;}
	.st1{fill:#333A4F;}
	.st2{fill:#874B2D;}
	.st3{fill:#C82127;}
	.st4{fill:#7C4228;}
	.st5{fill:#905533;}
	.st6{fill:#ED1E24;}
	.st7{fill:#F4E2D4;}
	.st8{fill:#E0C2B8;}
	.st9{fill:#E2A36A;}
	.st10{fill:#89171A;}
	.st11{fill:#9E1C20;}
	.st12{fill:#E7CCC1;}
	.st13{fill:#D38753;}
	.st14{fill:#EE2924;}
	.st15{fill:#995221;}
	.st16{opacity:0.15;fill:#995221;}
	.st17{fill:#F4BE84;}
	.st18{fill:#D69356;}
	.st19{fill:#FFE4CB;}
	.st20{fill:#865634;}
	.st21{fill:#8E562F;}
	.st22{fill:#F8E7C9;}
	.st23{opacity:0.5;fill:#994239;}
	.st24{fill:#E1A26A;}
	.st25{fill:#A5602C;}
	.st26{fill:#F3BD83;}
	.st27{fill:#FDE2DF;}
	.st28{clip-path:url(#SVGID_2_);fill:#EE2424;}
	.st29{clip-path:url(#SVGID_4_);fill:#EE2424;}
	.st30{clip-path:url(#SVGID_6_);fill:#EE2424;}
	.st31{clip-path:url(#SVGID_8_);fill:#EE2424;}
	.st32{fill:#231F20;}
	.st33{fill:#BF2025;}
	.st34{fill:#ED2224;}
	.st35{fill:#BE2026;}
</style>
<path class="st0" d="M178.9,63.5c-0.3-0.5-1-0.7-1.5-0.4c-0.5,0.3-0.7,1-0.4,1.5c0.3,0.5,0.9,0.7,1.4,0.5l15.4,28.7l1.1-0.3
	l-16.5-28.4c0,0,0,0,0.1,0C179,64.8,179.2,64.1,178.9,63.5z"/>
<path class="st1" d="M174.5,185.8c0,0-0.1,0.7-0.7,1.4c-0.6,0.7-2.7,1-3.4,1.1c-0.7,0.1-0.5,0.9-0.5,0.9h6l0.7-3.4H174.5z"/>
<path class="st1" d="M192.5,185.8c0,0,0.1,0.7-0.4,1.4c-0.5,0.7-1.9,1-2.6,1.1c-0.7,0.1-0.2,0.9-0.2,0.9l5.4,0l-0.1-3.4H192.5z"/>
<path class="st2" d="M175.8,150.9c0,0-1,21.2-2.3,34.9h4c0,0,6.9-20.4,7.7-26.4c0.8-6-0.7-11.5-0.7-11.5L175.8,150.9z"/>
<path class="st3" d="M191.1,105.1c-1.6,1.6-2.6,7.7-4.5,13.8c-2.3,7.2-5.5,14.5-3.3,15.9c4.3,2.8,12.3-10.3,13.5-16.6
	C196.8,118.3,192.8,103.5,191.1,105.1z"/>
<polygon class="st4" points="193.4,139 218.7,139.2 198.1,145.1 "/>
<path class="st2" d="M191.7,139.7c0,0,7.2-2.1,12.9,11.3h-29c0,0,0.3-5.7,2.9-7.6C179.9,142.4,186,140.6,191.7,139.7z"/>
<path class="st4" d="M198.1,145.1c0,0-3.3,1.2-8.3,2c-5,0.8-7.2,0.8-7.7,1.7c-0.5,0.9,0.8,8.2,0,11.9c-0.7,3.2-5.1,20.5-6.3,25.2
	h1.6c0,0,6.9-20.4,7.7-26.4c0.4-3.3,0.2-6.4-0.1-8.5h10.8L198.1,145.1z"/>
<path class="st5" d="M218.7,139.2c0,0-0.7,8.3-3.3,11.7h-27.3c0,0-1.2-5.5,1.1-7.6C192,140.8,209.5,139.4,218.7,139.2z"/>
<path class="st5" d="M188.1,150.9c0,0,2.4,21.2,3.4,34.9h4c0,0,3.5-20.4,3.4-26.4c-0.2-6-2.6-11.5-2.6-11.5L188.1,150.9z"/>
<path class="st6" d="M191.7,139.7c0,0,6.8-0.4,13,1.3c7.1,1.9,12.3,6.6,12.3,6.6s1.8-5.4,2-10.3c0.4-8.9-0.4-23.7-3-34.7
	c0,0-4.5-1.8-13-0.9c-9.2,1-12,3.5-12,3.5s-1.1,8.1,1.7,15.7c1.8,4,2.9,9.4,2.4,15.9C193.5,138.3,191.7,139.7,191.7,139.7z"/>
<path class="st7" d="M194.5,103.5c0,0,0.4,8.9,7.9,7.8c7.5-1.1,8.6-9.7,8.6-9.7S204,101,194.5,103.5z"/>
<polygon class="st8" points="199.7,106.6 201.1,108.5 199.5,108.1 198,111.1 196.6,105.8 "/>
<path class="st9" d="M226.4,150.9c0,0,2.1-1.2,3.9-1.3c0.7-0.1,3.7,0.9,3.7,1.4L226.4,150.9z"/>
<path class="st10" d="M217.1,147.6c0,0,1.8-5.4,2-10.3c0.4-8.9-0.4-23.7-3-34.7c0,0-1.7-0.7-5.1-1c0.2,3,0.5,9.8,0.8,18
	c0.4,10-0.1,17.6-1.8,23.4C214.3,145,217.1,147.6,217.1,147.6z"/>
<path class="st9" d="M215.3,102.6c3.8-0.4,7.1,8.2,10,26.6c0,0,1.1,6,3.4,21.5l-2.3,0.2c0,0-6.4-7.4-8-19.5
	C218.4,131.4,208.5,103.3,215.3,102.6z"/>
<path class="st11" d="M219.3,138.2c1.6-0.2,4.2-0.9,7.2-2.4c-0.7-4.6-1.1-6.6-1.1-6.6c-2.9-18.4-6.2-27.1-10-26.6
	c-7.6,0.8,2.3,28.7,2.3,28.7C218,133.8,218.6,136.1,219.3,138.2z"/>
<path class="st12" d="M195.3,136.8c0,0,6.7-0.1,12.5,1.1c0,0-4.9-2.8-12.5-2.5L195.3,136.8z"/>
<path class="st7" d="M217.3,134.5l2,4.9c0,0,2.1-0.1,4.3-0.7c2.2-0.6,3.4-2,3.4-2l-0.9-5.1c0,0-2.3,2-4.2,2.4
	C219.3,134.6,217.3,134.5,217.3,134.5z"/>
<polygon class="st8" points="202.9,106.4 201.1,108.5 203.1,108 205.6,111.4 208.9,101.4 "/>
<path class="st8" d="M198.9,139.9c0.1,0,0.2,0,0.3,0l3.4-2.9l0,0l0,0c0.5-3.4-0.6-14.3-0.9-17c-0.3-2.6-0.5-11.6-0.5-11.7l-0.2,0
	c0,0.1,0.2,9.1,0.5,11.7c0.3,2.5,1.4,13.5,0.9,16.9L198.9,139.9z"/>
<path class="st9" d="M204.9,90.8c0,0,0.2,5.5,2.2,10.6l-6,7.1l-4.2-5.7c0,0-0.1-0.8-0.4-3.6L204.9,90.8z"/>
<path class="st13" d="M199.3,96.4l-1.9,5.2c0,0,2.2,2.3,6.7,3.3l3-3.6c-1.5-3.7-2-7.8-2.2-9.6l-0.7-0.4L199.3,96.4z"/>
<polygon class="st14" points="202.9,106.4 205.5,110.1 208.9,101.4 206.6,100.1 "/>
<polygon class="st14" points="199.7,106.6 198,109.7 195.7,103.1 197.1,101.1 "/>
<g>
	<path class="st15" d="M187.2,79.3c0,0-0.1,3.8,2,7.3l2-5.8L187.2,79.3z"/>
	<path class="st16" d="M187.2,79.3c0,0-0.1,3.8,2,7.3l2-5.8L187.2,79.3z"/>
	<path class="st15" d="M203.7,94.3c-2.3,0.2-5.6-9.2-6.2-14.3c-0.2-2,2.8-5.1,5.3-6C210.7,71.2,209,93.9,203.7,94.3z"/>
	<path class="st17" d="M205,88.4c2.1,11.4-5.2,13-7.6,13.2c-3.8,0.4-5.8-2.5-6.8-10c-1.3-6.2-4.9-10.6,3-13.1
		C200.6,76.9,203.4,80.1,205,88.4z"/>
	<path class="st9" d="M195.9,78.2c3.5,0.9,5.1,4.8,6.6,10.7c2.4,10-1.7,11.4-4.6,12.7c2.7-0.4,9.1-2.4,7.1-13.2
		C203.6,81.1,201.2,77.7,195.9,78.2z"/>
	<path class="st9" d="M207.5,88.7c0.4,1.1-0.3,2.2-1.4,2.6c-1.1,0.4-2.3-0.2-2.7-1.2s0.3-2.2,1.4-2.6
		C205.9,87.1,207.1,87.7,207.5,88.7z"/>
	<path class="st15" d="M195.4,78.2c0,0,3.9-0.8,5.8,3.7c1.6,4,2.4,7.5,2.4,7.5l0.7-0.1c0,0-0.3-1.2,0.8-2
		C204.7,83.3,203.9,75,195.4,78.2z"/>
	<path class="st15" d="M200.8,85.4c-0.4-0.3-2.5-1.1-4.5-0.6l-0.2-1.1c0,0,2.3-0.8,4.6,1L200.8,85.4z"/>
	<path class="st15" d="M189.8,88.6c0.1-0.8,1.3-2,2.6-2.4l-0.6-1c0,0-2.2,0.8-2.4,2.9L189.8,88.6z"/>
	<path class="st18" d="M205.8,88.2c-0.3,0-0.5,0-0.8,0.1c0.1,0,0.1,0,0.2,0c0.7,0.1,1.1,0.7,1,1.4c-0.1,0.4-0.3,0.7-0.7,0.8
		c0.6,0,1.2-0.4,1.2-1C206.9,88.9,206.4,88.3,205.8,88.2z"/>
	<path class="st18" d="M194,87.5c1.1,1.3,1.3,3-0.1,3.7c-0.9,0.5-1.2,0.8-1.1,1.4c0.2,0.5,0.6,0.8,1.3,0.9c0.7,0,1.6-0.2,1.6-0.3
		c0,0-2.1,0.4-2.3-0.7c-0.1-0.5,0.6-0.6,1.2-1.2C196,90,195.1,88.1,194,87.5z"/>
	<g>
		<path class="st19" d="M197.1,87c0,0-0.1,2.2,1.5,2c1.2-0.3,1.6-1.7,1.6-1.7C199.1,86.8,198.1,86.7,197.1,87z"/>
		<path class="st20" d="M197,87.5c1.4-0.5,2.1-0.3,3.5,0.2l0-0.2c0,0-1.3-1.2-3.6-0.6L197,87.5z"/>
		<path class="st20" d="M199.4,88.1c0,0.6-0.5,1-1,1c-0.6,0-1-0.5-1-1c0-0.6,0.5-1,1-1C198.9,87,199.4,87.5,199.4,88.1z"/>
	</g>
	<g>
		<path class="st19" d="M190.7,89.8c0,0,0.4,1.3,1.7,0.8c1.3-0.5,0.5-2.3,0.5-2.3C192.7,87.9,190.7,88.9,190.7,89.8z"/>
		<path class="st20" d="M190.6,90c0.3-1,1.8-1.6,2.5-1.6l-0.2-0.5c0,0-2.1,0.4-2.4,1.9L190.6,90z"/>
		<path class="st20" d="M192.8,89.7c0,0.5-0.4,1-1,1c-0.5,0-1-0.4-1-1c0-0.5,0.4-1,1-1S192.8,89.1,192.8,89.7z"/>
	</g>
	<g>
		<path class="st21" d="M193.8,96l5.7-2.4c0,0,0.1,2.9-1.8,3.8C195.8,98.1,193.8,96,193.8,96z"/>
		<path class="st22" d="M194.7,95.9l4.5-1.9c0,0,0.1,0.9-3.9,2.4L194.7,95.9z"/>
		<path class="st23" d="M199.3,95.1c-0.2,0.8-0.7,1.8-1.6,2.2c-0.4,0.2-0.8,0.2-1.2,0.2C196.9,95.6,198.6,95.2,199.3,95.1z"/>
		<path class="st21" d="M199.4,93.4c0,0.1-0.1,0.2,0,0.2c0,0,0.2-0.1,0.2-0.1c0-0.1,0-0.1,0-0.2C199.5,93.4,199.5,93.4,199.4,93.4z"
			/>
		<path class="st21" d="M193.8,96.1c0.1,0,0.2,0,0.2-0.1c0,0-0.1-0.1-0.2-0.1c-0.1,0-0.1,0-0.1,0.1C193.7,96,193.7,96.1,193.8,96.1z
			"/>
	</g>
	<path class="st24" d="M197,98.7c0.1,0.3,0.6,0.5,1.1,0.3c0.5-0.1,0.8-0.5,0.7-0.9c-0.1-0.3-0.5-0.1-1,0.1
		C197.3,98.3,196.9,98.3,197,98.7z"/>
	<path class="st15" d="M205.2,79.3c0,0,0.5-9.3-7.4-8.7c-7.9,0.5-14.6,6.9-12.2,14.1c0,0,1.4-2.9,3.3-2.6c0,0,0.6-3,7.1-3.8l5.1-0.5
		L205.2,79.3z"/>
	<path class="st25" d="M185.7,81.8c0,0-0.3-5.7,6.2-9.2c6.6-3.4,10-0.1,9.3,1.4c-0.9,2.1-4.8,1-9.1,2.7
		C189.2,77.8,186.1,80.7,185.7,81.8z"/>
	<path class="st25" d="M189.4,77.5c0,0-1.5,1.9-1.1,4c0,0,1.4-3.3,6-4.1c4.6-0.9,5.7-0.3,5.7-2.2C199.9,75.2,194.2,74,189.4,77.5z"
		/>
	<path class="st25" d="M200.7,78.9c-0.7-2.1,3.7-6.1,5.8-3C208.6,79.2,201.9,82.5,200.7,78.9z"/>
	<path class="st16" d="M204.2,89.4l-0.7,0.1c0,0-1.2-4.9-2.4-7.5c0,0,5.7-0.5,6.6-4.1c0,0,1.4,4-0.2,10.9c-0.3-1.1-1.6-1.6-2.6-1.3
		C204.9,87.5,204.1,88,204.2,89.4z"/>
	<path class="st16" d="M205.4,91.5c0,0,0.1,1.3,0,1.9c0,0,0.9-0.9,1.4-2.4C206.8,91,206.1,91.5,205.4,91.5z"/>
	<path class="st15" d="M204.6,73.9c0,0,0.5-3.8-2.8-4.1c0,0,2.2,1.6,2.4,4.1L204.6,73.9z"/>
</g>
<path class="st2" d="M198.9,159.5c-0.1-3.3-0.8-6.4-1.5-8.5h18.1c0.9-1.2,1.5-2.9,2-4.6L210,143c0,0-0.7,3.5-2.1,4.3
	c-1.4,0.8-13.7,0.7-14.4,1.3c-0.6,0.6,2,6.8,2.5,11.3c0.5,4.5-2.3,26-2.3,26l0,0h1.7C195.5,185.9,199,165.5,198.9,159.5z"/>
<path class="st2" d="M202,140.3c0,0,8,1.4,15.5,6l-0.4,1.2C217.1,147.6,209.7,142.7,202,140.3z"/>
<path class="st9" d="M171.2,117c0,0-1.4-3.1-4.7-4.6c-0.8-0.3-0.7,2.9-0.4,3.5c0.5,1,3.6,1.5,3.6,1.5L171.2,117z"/>
<path class="st26" d="M169.7,117.4c0,0-1.3-0.1-2.5-0.7c0,0,1.9-1,3,0.2L169.7,117.4z"/>
<path class="st17" d="M171.2,117c0,0-0.8-2.5-1.2-3c-0.4-0.6-1.5-1.2-2-1.7c-0.5-0.5-0.8-0.7-0.8-0.4c-0.1,0.3,0,1,0.8,1.7
	c0.2,0.2,0.8,0.6,0.9,0.9c0,0.8,0.2,2.1,1.1,2.5C171.7,117.9,171.2,117,171.2,117z"/>
<path class="st17" d="M167.2,115.6c-0.7-0.2-1.2-0.4-1.3,0c-0.1,0.4,0.4,0.6,1.1,0.7c0.7,0.2,1.2,0.1,1.2-0.1
	C168.3,116,167.8,115.8,167.2,115.6z"/>
<path class="st17" d="M167.1,114.6c-0.8-0.2-1.3-0.4-1.4,0c-0.1,0.4,0.5,0.6,1.2,0.8c0.8,0.2,1.4,0.2,1.5-0.1
	C168.5,115.1,167.8,114.8,167.1,114.6z"/>
<path class="st17" d="M167.1,113.7c-0.8-0.2-1.4-0.4-1.5,0.1s0.5,0.6,1.3,0.8c0.8,0.2,1.5,0.2,1.6,0
	C168.6,114.2,167.9,113.9,167.1,113.7z"/>
<path class="st17" d="M167.1,112.7c-0.7-0.3-1.2-0.5-1.4,0c-0.2,0.5,0.4,0.5,1.1,0.8c0.7,0.3,1.3,0.4,1.5,0.2
	C168.4,113.4,167.8,113,167.1,112.7z"/>
<path class="st26" d="M186.2,134.9c0,0-7.2,4.4-16.5-17.4c0,0,1-1.1,1.2-1.4C175.8,120.5,192.4,130.9,186.2,134.9z"/>
<path class="st3" d="M182.3,125.3l-4.8,5.7c5.2,6.1,8.8,3.9,8.8,3.9C189,133.1,187,129.1,182.3,125.3z"/>
<path class="st7" d="M176.8,130.5c0,0,2.2-1.2,3.1-2.4c1.3-1.6,1.9-3.7,1.9-3.7l2.3,1.9c0,0-0.2,2.7-1.4,4.4c-1,1.5-3.1,2.7-3.1,2.7
	S177.4,131.8,176.8,130.5z"/>
<g>
	<polygon class="st27" points="194.9,114.5 208.4,114.5 204.4,120.9 203.5,119.5 202.5,121.1 201.5,119.4 200.7,120.9 199.7,119.4 
		198.8,120.8 	"/>
	<g>
		<g>
			<g>
				<defs>
					<polygon id="SVGID_1_" points="195.3,114.7 198.8,120.3 202.3,114.7 					"/>
				</defs>
				<use xlink:href="#SVGID_1_"  style="overflow:visible;fill:#231F20;"/>
				<clipPath id="SVGID_2_">
					<use xlink:href="#SVGID_1_"  style="overflow:visible;"/>
				</clipPath>
				<polygon class="st28" points="196.3,114.6 199.5,119.7 202.7,114.6 				"/>
			</g>
			<g>
				<defs>
					<polygon id="SVGID_3_" points="197.2,114.7 200.7,120.3 204.2,114.7 					"/>
				</defs>
				<use xlink:href="#SVGID_3_"  style="overflow:visible;fill:#231F20;"/>
				<clipPath id="SVGID_4_">
					<use xlink:href="#SVGID_3_"  style="overflow:visible;"/>
				</clipPath>
				<polygon class="st29" points="198.2,114.6 201.4,119.7 204.6,114.6 				"/>
			</g>
		</g>
		<g>
			<g>
				<defs>
					<polygon id="SVGID_5_" points="199,114.7 202.5,120.3 206,114.7 					"/>
				</defs>
				<use xlink:href="#SVGID_5_"  style="overflow:visible;fill:#231F20;"/>
				<clipPath id="SVGID_6_">
					<use xlink:href="#SVGID_5_"  style="overflow:visible;"/>
				</clipPath>
				<polygon class="st30" points="200,114.6 203.2,119.7 206.5,114.6 				"/>
			</g>
			<g>
				<defs>
					<polygon id="SVGID_7_" points="200.9,114.7 204.4,120.3 207.9,114.7 					"/>
				</defs>
				<use xlink:href="#SVGID_7_"  style="overflow:visible;fill:#231F20;"/>
				<clipPath id="SVGID_8_">
					<use xlink:href="#SVGID_7_"  style="overflow:visible;"/>
				</clipPath>
				<polygon class="st31" points="201.9,114.6 205.1,119.7 208.4,114.6 				"/>
			</g>
		</g>
	</g>
</g>
<ellipse class="st32" cx="205.5" cy="88.2" rx="3.2" ry="5.4"/>
<ellipse class="st33" cx="205.6" cy="88.3" rx="2.8" ry="4.8"/>
<ellipse class="st34" cx="205.9" cy="88.3" rx="2.3" ry="4"/>
<path class="st35" d="M205.8,87.8c0,0-0.3-2.9-0.4-4.2c-0.2-1.3-1.2-4.3-2.1-5.2s-2.6-2.4-4.9-3c-2.2-0.6-4.7-0.9-7.1-0.4
	c-3.6,0.8-4.9,2.2-4.9,2.2s1.1-1.7,1.5-2.1c0.4-0.5,3.4-1.5,3.4-1.5s3.5-0.6,6.4,0.1c3.4,0.9,4.9,1.8,6.3,3.3s2.4,4.3,2.6,5.7
	c0.1,1.4,0.3,5.2,0.3,5.2L205.8,87.8z"/>
<path class="st32" d="M205.6,88.1c0,0-0.3-2.8-0.4-4.2c-0.1-1.3-1.2-4.3-2.1-5.2c-0.9-0.9-2.6-2.4-5-3c-2.2-0.6-4.7-0.9-7-0.5
	c-3.6,0.8-5,2.2-5,2.2s1.1-1.6,1.5-2.1c0.5-0.4,3.5-1.5,3.5-1.5s3.5-0.6,6.4,0.2c3.4,0.9,4.9,1.8,6.3,3.3c1.3,1.5,2.4,4.3,2.5,5.7
	c0.2,1.3,0.3,5.2,0.3,5.2L205.6,88.1z"/>
<path class="st0" d="M211.3,55.4c0.1-0.6-0.4-1.2-1-1.2c-0.6-0.1-1.2,0.4-1.2,1c-0.1,0.6,0.3,1.1,0.9,1.2l-4.2,32.3l1.1,0.4
	l3.2-32.7c0,0,0,0,0.1,0C210.7,56.5,211.3,56.1,211.3,55.4z"/>
<ellipse class="st35" cx="206.5" cy="88.3" rx="1.7" ry="3"/>
</svg>
