<?xml version="1.0" encoding="UTF-8"?>
<!DOCTYPE svg PUBLIC "-//W3C//DTD SVG 1.1//EN" "http://www.w3.org/Graphics/SVG/1.1/DTD/svg11.dtd">
<!-- Creator: CorelDRAW -->
<svg xmlns="http://www.w3.org/2000/svg" xml:space="preserve" width="22.7375mm" height="64.7191mm" version="1.1" style="shape-rendering:geometricPrecision; text-rendering:geometricPrecision; image-rendering:optimizeQuality; fill-rule:evenodd; clip-rule:evenodd"
viewBox="0 0 2085.95 5937.36"
 xmlns:xlink="http://www.w3.org/1999/xlink">
 <defs>
  <style type="text/css">
   <![CDATA[
    .fil7 {fill:none}
    .fil23 {fill:#231F20}
    .fil2 {fill:#232323}
    .fil8 {fill:#332D2B}
    .fil3 {fill:#53A4C7}
    .fil17 {fill:#865634}
    .fil18 {fill:#8E562F}
    .fil12 {fill:#995221}
    .fil22 {fill:#A5602C}
    .fil26 {fill:#BE2026}
    .fil24 {fill:#BF2025}
    .fil1 {fill:#D38753}
    .fil15 {fill:#D69356}
    .fil9 {fill:#E0C2B8}
    .fil21 {fill:#E1A26A}
    .fil0 {fill:#E2A36A}
    .fil6 {fill:#E6232A}
    .fil25 {fill:#ED2224}
    .fil10 {fill:#EE2924}
    .fil5 {fill:#F3BB83}
    .fil14 {fill:#F4BE84}
    .fil19 {fill:#F8E7C9}
    .fil11 {fill:#FDE9E9}
    .fil4 {fill:red}
    .fil16 {fill:#FFE4CB}
    .fil13 {fill:#995221;fill-opacity:0.149020}
    .fil20 {fill:#994239;fill-opacity:0.501961}
   ]]>
  </style>
     <clipPath id="id0">
      <path d="M568.52 2479.35l75.85 233.61 78.91 -241.22 -154.76 7.61 0 0.01z"/>
     </clipPath>
     <clipPath id="id1">
      <path d="M641.31 2476.35l75.85 233.61 78.91 -241.22 -154.76 7.61 0 0.01z"/>
     </clipPath>
     <clipPath id="id2">
      <path d="M711.11 2470.24l75.85 233.61 78.91 -241.22 -154.76 7.61 0 0.01z"/>
     </clipPath>
     <clipPath id="id3">
      <path d="M783.95 2467.23l75.85 233.61 78.91 -241.22 -154.76 7.61 0 0.01z"/>
     </clipPath>
 </defs>
 <g id="Layer_x0020_1">
  <metadata id="CorelCorpID_0Corel-Layer"/>
  <g id="_105553362008960">
   <g>
    <path class="fil0" d="M1114.73 1451.16c0,0 7.66,210.75 84.29,406.16l-229.9 272.06 -160.93 -218.42c0,0 -3.83,-30.65 -15.32,-137.94l321.86 -321.86z"/>
    <path class="fil1" d="M900.15 1665.75l-72.81 199.25c0,0 84.3,88.14 256.73,126.45l114.95 -137.94c-57.48,-141.78 -76.63,-298.87 -84.29,-367.84l-26.83 -15.32 -187.75 195.41z"/>
   </g>
   <g id="_105553604246400">
    <path class="fil2" d="M1295.71 4459.51c-30.72,23.12 -37.61,145.78 -38.58,173.76 -4.36,131.92 10.32,273.01 25.54,404.12 14.63,126.4 32.86,252.22 49.25,378.38 7.51,57.68 26.94,181.41 16.96,236.9l-5.67 31.65 -312.95 40.66 -13.23 -30.19c-38.15,-87.1 -55.64,-201.04 -66.98,-295.11 -15.22,-126.55 -22.1,-255.22 -26.81,-382.59 -4.07,-110.31 -6.16,-220.62 -8.34,-330.98 -1.74,-88.25 -3.1,-177.15 -8.05,-265.3l-16.77 -88.59 59.91 7.56c117.29,14.78 246.89,34.31 365.2,29.27 113.13,-4.8 234.48,-32.18 345.52,-54.04l9.36 -1.84 120.2 28.7 -14.44 45.13c-61.12,190.96 15.61,484.33 68.34,672.28 29.38,104.74 61.65,208.65 91.65,313.19 26.03,90.58 52.01,184.56 66.69,277.72l10.08 64.12 -63.25 -14.44c-53.12,-12.12 -125.29,-28.49 -174.63,3.78 -20.7,13.52 -39.31,30.15 -60.39,43.77 -35.04,22.63 -72.12,37.17 -112.59,47.02l-57.09 13.86 2.86 -58.7c6.2,-126.84 8.09,-257.85 -6.39,-384.2 -9.21,-80.46 -25.93,-154.17 -47.7,-231.91 -17.3,-61.84 -35.09,-122.77 -49,-185.58 -19.38,-87.63 -31.46,-176.08 -38.97,-265.45 -3.73,-44.25 -2.86,-87.72 -4.99,-131.83 -0.92,-18.71 -2.76,-49.53 -14.01,-65.34 -15.51,-21.86 -61.99,-25.25 -90.63,-25.73l-0.1 -0.02z"/>
   </g>
   <path class="fil3" d="M944.38 4383.37l6.05 32.14c17.94,315.95 -3.39,1010.1 106.78,1261.64l248.4 -32.28c23.75,-131.98 -205.5,-1161.17 -20.06,-1229.36 193.63,0 149.71,98.53 163.57,263.27 40.81,484.13 172.68,449.91 142.15,1072.96 180.88,-43.91 121.46,-150.83 367.77,-94.7 -55.15,-349.83 -333.26,-945.59 -225.13,-1283.45l-64.8 -15.46c-343.92,67.76 -365.44,70.57 -724.68,25.25l-0.06 0z"/>
   <path class="fil2" d="M307.28 1442.21c29.08,51.86 51.71,108.85 77.5,162.55 36.06,75.13 77.02,145.11 124.22,213.45 65.48,-8.87 131.11,-19.34 196.54,-28.6 112.87,25.44 -22.27,144.35 175.51,249.25 112.59,-5.62 260.39,-110.24 363.24,-148.96l-98.1 -143.22 93.45 37.47c77.06,30.93 134.25,84.81 176.61,155.38 59.66,99.41 77.3,204.77 108.67,313.63l561.05 1948.66 -380.7 173.76 -0.68 0.29c-6.01,2.38 -14.01,4.84 -19.43,8.24l-4.7 2.91 -5.43 1.06c-115.21,22.68 -239.33,50.4 -356.76,55.4 -123.06,5.24 -255.66,-14.44 -377.65,-29.81l-1.45 -0.19 -1.4 -0.34c-93.64,-21.04 -229.44,-53.46 -279.41,-145.31 -28.4,-52.2 -28.64,-118.31 -27.96,-176.27 1.02,-89.14 3.78,-174.29 -2.61,-264.58 -5.77,-137.12 3.83,-274.08 0.87,-411.19 -1.55,-71.69 -13.86,-151.45 -24.28,-222.42 -15.85,-107.84 -34.51,-215.53 -54.43,-322.69 -22.44,-120.58 -46.58,-241.31 -74.11,-360.83 -10.17,-44.15 -20.79,-88.46 -33.01,-132.12 -6.05,-21.76 -13.91,-51.42 -23.9,-71.63l-1.94 -3.93 -0.78 -4.31c-5.24,-29.42 -16.53,-86.13 -51.23,-95.96 -21.71,-6.16 -59.23,0.83 -82.54,1.7 -6.83,0.24 -13.67,0.29 -20.5,-0.1 -85.01,-4.46 -124.46,-69.5 -148.56,-143.61 -22.34,-68.82 -32.42,-147.58 -38.92,-219.41 -11.19,-123.74 -12.61,-250.29 -11.29,-374.45l0.24 -23.6 149.43 -37.32c26.03,-6.79 82.35,-29.47 98.14,4.27 7.17,15.31 2.18,22.93 -3.59,32.67l-0.09 0.16z"/>
   <path class="fil4" d="M220.47 1434.76l-126.89 31.7c-11.68,1138.43 288.14,462.7 352.55,826.16 52.59,106.14 208.45,916.56 212.91,1122.59 2.95,137.16 -6.64,273.45 -0.87,410.57 26.85,379.45 -89.91,473.13 286.19,557.61 359.28,45.32 380.76,42.5 724.68,-25.25 7.51,-4.65 17.98,-8.15 24.24,-10.66l356.08 -162.55 -553.74 -1923.36c-39.65,-138.28 -119.69,-403.8 -315.83,-482.47l-41.23 57.06c-115.11,59.66 -107.57,152.73 -249.97,162.28 -62.88,-90.32 -27.24,19.3 -90.29,-203.85 -13.96,-7.61 -251.28,49.44 -303.57,56.27 -132.02,-186.55 -162.8,-302.96 -214.71,-395.04 -27.77,-24.71 55.3,-51.14 -59.47,-21.08l-0.09 0.03z"/>
   <path class="fil5" d="M-0 1069.17c11.44,221.4 58.21,218.98 93.64,397.33l126.89 -31.7c25.98,-31.94 28.89,69.65 15.37,-78.13 -34.22,-148.84 -117.53,-339.12 -235.89,-287.46l0 -0.05z"/>
   <g id="_105553604551584">
    <polygon class="fil2" points="568.52,2479.35 644.37,2713.01 723.27,2471.79 "/>
    <g>
    </g>
    <g style="clip-path:url(#id0)">
     <g>
      <polygon id="_1" class="fil6" points="595.8,2477.84 671.65,2711.46 750.56,2470.24 "/>
     </g>
    </g>
    <polygon class="fil7" points="568.52,2479.35 644.37,2712.96 723.27,2471.74 568.52,2479.34 "/>
    <polygon class="fil7" points="568.52,2479.35 644.37,2713.01 723.27,2471.79 "/>
    <polygon class="fil2" points="641.31,2476.35 717.16,2709.96 796.07,2468.74 "/>
    <g>
    </g>
    <g style="clip-path:url(#id1)">
     <g id="_105553361967104">
      <polygon id="_1_0" class="fil6" points="668.65,2474.8 744.5,2708.45 823.4,2467.23 "/>
     </g>
    </g>
    <polygon class="fil7" points="641.31,2476.35 717.16,2709.96 796.07,2468.74 641.31,2476.34 "/>
    <polygon class="fil7" points="641.31,2476.35 717.16,2709.96 796.07,2468.74 "/>
    <polygon class="fil2" points="711.11,2470.24 786.96,2703.89 865.86,2462.68 "/>
    <g>
    </g>
    <g style="clip-path:url(#id2)">
     <g>
      <polygon id="_1_1" class="fil6" points="738.44,2468.74 814.29,2702.4 893.19,2461.18 "/>
     </g>
    </g>
    <polygon class="fil7" points="711.11,2470.24 786.96,2703.85 865.86,2462.63 711.11,2470.23 "/>
    <polygon class="fil7" points="711.11,2470.24 786.96,2703.89 865.86,2462.68 "/>
    <polygon class="fil2" points="783.95,2467.23 859.8,2700.85 938.71,2459.63 "/>
    <g>
    </g>
    <g style="clip-path:url(#id3)">
     <g>
      <polygon id="_1_2" class="fil6" points="811.23,2465.74 887.08,2699.34 965.99,2458.12 "/>
     </g>
    </g>
    <polygon class="fil7" points="783.95,2467.23 859.8,2700.84 938.71,2459.62 783.95,2467.22 "/>
    <polygon class="fil7" points="783.95,2467.23 859.8,2700.85 938.71,2459.63 "/>
   </g>
   <path class="fil8" d="M1251.61 5658.24l-267 24.28c0,0 -169.92,24.28 -206.32,66.74 -36.4,42.5 -66.74,121.36 -66.74,121.36l169.92 48.57 412.65 -18.22c0,0 54.62,-139.58 42.46,-212.38 -12.12,-72.84 -12.12,-78.91 -12.12,-78.91l-72.8 48.57 -0.05 -0.02z"/>
   <path class="fil8" d="M1876.63 5609.68l-218.44 66.74c0,0 -182.04,30.34 -218.44,72.84 -36.4,42.5 -48.57,188.1 -48.57,188.1l151.7 -18.22 412.65 -18.22c0,0 54.62,-139.58 42.46,-212.38 -12.12,-72.84 -12.12,-78.91 -12.12,-78.91l-109.24 0 0.01 0.05z"/>
   <polygon class="fil9" points="862,1925.2 917.99,2001.19 854.01,1985.2 794.03,2105.17 738.04,1893.21 "/>
   <polygon class="fil9" points="989.98,1917.2 917.99,2001.19 997.97,1981.19 1097.96,2117.16 1229.92,1717.25 "/>
   <polygon class="fil10" points="989.98,1917.2 1093.95,2065.18 1229.92,1717.25 1137.95,1665.27 "/>
   <polygon class="fil10" points="862,1925.2 794.03,2049.18 702.04,1785.24 758.03,1705.26 "/>
   <g>
    <path class="fil11" d="M263.63 190.63c-9.16,-22.02 -36.26,-34.27 -58.28,-25.13 -22.02,9.16 -34.28,36.26 -25.13,58.28 9.16,22.02 32.23,33.69 53.63,28.58l451.54 1252.49 46.28 -5.58 -497.82 -1246.91c0,0 0,0 4.05,0.61 22.02,-9.17 34.28,-36.28 25.72,-62.34z"/>
    <g>
     <path class="fil12" d="M505.02 879.08c0,0 -26.72,153.07 37.33,307.15l115.48 -222.62 -152.81 -84.53z"/>
     <path class="fil13" d="M505.02 879.08c0,0 -26.72,153.07 37.33,307.15l115.48 -222.62 -152.81 -84.53z"/>
     <path class="fil12" d="M1082.78 1584.11c-94.22,-5.63 -171.57,-405.45 -165.41,-615.28 3.84,-82.07 143.66,-189.54 250.12,-211.01 336.17,-66.1 132.01,841.73 -84.71,826.29z"/>
     <path class="fil14" d="M1170.54 1353.28c16.93,473.54 -287.84,494.68 -386.08,488.45 -156.06,-6.5 -219.64,-135.7 -215.33,-444.96 -15.59,-258.48 -134.91,-457.89 199.48,-511.86 292.62,-22.94 386.75,123.16 401.93,468.36z"/>
     <path class="fil0" d="M863.4 886.5c136.18,57.28 177.61,224.53 203.07,472.08 37.39,418.71 -136.77,450.87 -261.79,486.14 111.57,-0.06 382.32,-42.76 365.87,-491.44 -13.05,-303.57 -89.83,-455.37 -307.15,-466.78z"/>
     <path class="fil0" d="M1269.85 1380.32c9.61,46.88 -25.27,87.18 -72.13,96.8 -46.88,9.61 -91.83,-21.82 -102.03,-64.64 -10.21,-42.82 25.27,-87.17 72.13,-96.79 46.87,-9.61 91.82,21.81 102.03,64.63z"/>
     <path class="fil12" d="M843.19 883.52c0,0 162.49,-9.08 212.47,184.23 40.84,171.31 52.31,317.62 52.31,317.62l28.92 0.12c0,0 -4.98,-50.32 44.28,-76.1 7.67,-164.15 24.83,-504.57 -337.98,-425.88z"/>
     <path class="fil12" d="M1018.6 1206.91c-14.38,-14.53 -94.55,-59.41 -178.41,-51.12l-1.52 -45.68c0,0 97.8,-18.63 180.06,67.88l-0.13 28.92z"/>
     <path class="fil12" d="M554.68 1270.67c8.83,-31.75 64.51,-73.12 119.46,-81.54l-18.3 -44.02c0,0 -93.74,19.22 -114.35,102.96l13.19 22.6z"/>
     <path class="fil15" d="M1204.09 1349.95c-12.14,-1.79 -20.23,-2.98 -32.94,-0.72 4.05,0.6 4.05,0.6 8.08,1.19 27.71,8.23 40.31,34.88 32.09,62.59 -6.44,15.58 -16.32,26.52 -33.09,28.17 24.27,3.58 50.92,-9.02 54.49,-33.28 11.67,-23.06 -4.96,-50.31 -28.63,-57.94z"/>
     <path class="fil15" d="M731.09 1251.26c36.73,59.14 34.68,129.07 -26.13,149.03 -39.38,14.85 -53.3,25.19 -52.84,50.05 5.1,21.41 19.49,35.93 47.21,44.15 28.31,4.17 65.9,1.46 66.49,-2.6 0,0 -87.32,3.65 -88.84,-42.04 -1.06,-20.83 27.84,-20.68 55.69,-41.37 64.38,-44.23 39.32,-126.42 -1.58,-157.24z"/>
     <g>
      <path class="fil16" d="M859.42 1249.52c0,0 -17.17,88.36 48.73,89.82 50.32,-4.98 74.85,-59.21 74.85,-59.21 -41.51,-26.77 -81.36,-36.78 -123.58,-30.61z"/>
      <path class="fil17" d="M852.41 1269.16c59.59,-11.88 86.72,0.39 140.35,28.96l1.19 -8.08c0,0 -45.42,-56.28 -142.01,-45.74l0.46 24.86z"/>
      <path class="fil17" d="M945.88 1307.73c-3.58,24.27 -26.19,37.46 -46.4,34.48 -24.27,-3.58 -37.46,-26.19 -34.48,-46.41 3.58,-24.26 26.19,-37.45 46.4,-34.47 20.82,-1.07 38.05,22.14 34.48,46.4z"/>
     </g>
     <g>
      <path class="fil16" d="M583.91 1324.57c0,0 8.42,54.96 63.98,42.49 55.57,-12.47 33.95,-90.03 33.95,-90.03 -5.72,-17.36 -92.57,11.16 -97.93,47.54z"/>
      <path class="fil17" d="M578.68 1332.06c18.11,-38.65 82.34,-53.97 110.66,-49.79l-5.11 -21.42c0,0 -87.32,3.64 -108.39,62.52l2.84 8.69z"/>
      <path class="fil17" d="M669.44 1333.06c-2.99,20.23 -22.15,38.05 -46.41,34.47 -20.22,-2.98 -38.04,-22.14 -34.47,-46.4 2.98,-20.23 22.14,-38.05 46.4,-34.47 24.27,3.58 38.05,22.14 34.48,46.4z"/>
     </g>
     <g>
      <path class="fil18" d="M672.29 1593.79l244.83 -63.05c0,0 -13.25,117.88 -95.46,142.93 -81.03,16.98 -149.37,-79.88 -149.37,-79.88z"/>
      <path class="fil19" d="M709.27 1595.12l193.32 -50c0,0 -1.32,37 -172.04,73.79l-21.28 -23.79z"/>
      <path class="fil20" d="M900.07 1590.21c-12.86,31.16 -39.05,68.61 -77.82,79.42 -17.38,5.7 -33.55,3.31 -49.72,0.93 27.51,-74.46 98.66,-80.48 127.55,-80.35z"/>
      <path class="fil18" d="M914.26 1522.07c-0.6,4.05 -5.24,7.5 -1.19,8.09 0,0 8.69,-2.86 8.69,-2.86 0.6,-4.05 0.6,-4.05 1.19,-8.08 -4.65,3.45 -4.65,3.45 -8.69,2.85z"/>
      <path class="fil18" d="M671.7 1597.83c4.05,0.6 8.08,1.19 8.69,-2.85 0,0 -3.46,-4.65 -7.5,-5.25 -4.05,-0.6 -4.05,-0.6 -4.65,3.45 0,0 -0.6,4.05 3.46,4.65z"/>
     </g>
     <path class="fil21" d="M785.59 1722.07c2.26,12.73 21.27,23.81 42.7,18.71 20.83,-1.07 35.34,-15.46 33.69,-32.23 -2.27,-12.73 -19.63,-7.04 -41.04,-1.92 -20.84,1.06 -37.02,-1.33 -35.35,15.44z"/>
     <path class="fil12" d="M1232.93 986.48c0,0 75.71,-373.11 -247.34,-395.98 -322.47,-26.91 -631.58,191.93 -577.48,497.42 0,0 73.92,-108.93 148.97,-85.46 0,0 42.15,-117.74 309.79,-111.31l209.23 10.2 156.83 85.13z"/>
     <path class="fil22" d="M429.45 971.23c0,0 21.86,-232.31 305.61,-335.05 287.18,-98.12 404.99,55.6 367.74,112.1 -48.93,79.56 -200.08,11.81 -384.12,54.91 -123.82,27.17 -266.5,125.96 -289.23,168.05z"/>
     <path class="fil22" d="M604.73 819.42c0,0 -72,67.9 -68.36,155.2 0,0 76.31,-125.11 267.1,-130.01 191.39,-8.96 232.3,21.87 243.64,-54.96 -4.05,-0.6 -227.39,-83.13 -442.38,29.78z"/>
     <path class="fil22" d="M1053.33 943.45c-15.78,-89.11 186.03,-224.61 252.45,-86.71 65.24,145.97 -225.4,239.45 -252.45,86.71z"/>
     <path class="fil13" d="M1132.23 1388.95l-28.92 -0.13c0,0 -19.29,-205.32 -52.31,-317.61 0,0 233.5,13.78 291.36,-126.44 0,0 32.75,170.11 -73.12,439.6 -5.57,-46.28 -55.15,-74.25 -97.38,-68.09 0,0 -35.33,15.44 -39.63,72.67z"/>
     <path class="fil13" d="M1168.23 1481.02c0,0 -3.71,53.17 -11.34,76.84 0,0 41.78,-31.04 70.93,-88.7 0,-0.01 -31.29,16.04 -59.59,11.86z"/>
     <path class="fil12" d="M1240.88 764.52c0,0 42.9,-150.68 -88.77,-182.51 0,0 79.42,77.82 72.59,180.12l16.17 2.39z"/>
    </g>
    <ellipse class="fil23" transform="matrix(1.67923 0.247735 -2.47735E-001 1.67923 1191.96 1348.16)" rx="77.06" ry="130.04"/>
    <ellipse class="fil24" transform="matrix(1.67923 0.247735 -2.47735E-001 1.67923 1195.41 1352.81)" rx="67.43" ry="115.59"/>
    <ellipse class="fil25" transform="matrix(1.67923 0.247735 -2.47735E-001 1.67923 1207.53 1354.6)" rx="55.38" ry="96.33"/>
    <path class="fil26" d="M1206.48 1333.78c0,0 5.16,-119.07 8.88,-172.23 -0.33,-53.77 -22.87,-181.05 -53.91,-222.81 -31.04,-41.76 -90.82,-112.57 -180.26,-150.56 -85.38,-37.38 -184.7,-64.44 -284.73,-58.53 -150.35,10.87 -211.29,59.73 -211.29,59.73 0,0 54.63,-62.19 73.2,-75.98 19.16,-17.84 146.45,-40.38 146.45,-40.38 0,0 145.12,-3.39 258.2,42.23 132.12,56.7 187.43,102.02 235.08,171.05 47.67,69.02 71.4,188.21 71.14,246.02 -4.29,57.21 -18.88,212.08 -18.88,212.08l-43.88 -10.61z"/>
    <path class="fil23" d="M1196.6 1344.72c0,0 4.57,-115.02 8.89,-172.23 3.7,-53.17 -22.88,-181.05 -53.91,-222.81 -31.04,-41.77 -90.83,-112.57 -184.31,-151.15 -85.38,-37.38 -184.69,-64.44 -280.08,-61.98 -150.35,10.87 -215.32,59.14 -215.32,59.14 0,0 54.04,-58.15 73.2,-75.98 22.61,-13.19 150.49,-39.79 150.49,-39.79 0,0 145.12,-3.39 257.62,46.26 132.12,56.7 187.43,102.02 235.08,171.05 43.63,68.42 71.4,188.21 67.1,245.42 0.33,53.77 -18.88,212.08 -18.88,212.08l-39.88 -10.01z"/>
    <path class="fil11" d="M1622.18 56.37c7.63,-23.67 -9.02,-50.92 -33.27,-54.49 -23.67,-7.63 -50.92,9.01 -54.49,33.27 -7.63,23.67 5.57,46.28 29.24,53.9l-362.54 1281.14 42.1 22.73 324.5 -1303.27c0,0 0,0 4.05,0.61 19.6,7.03 46.25,-5.57 50.42,-33.88z"/>
    <ellipse class="fil26" transform="matrix(1.67923 0.247735 -2.47735E-001 1.67923 1231.8 1358.18)" rx="40.93" ry="72.25"/>
   </g>
   <g id="_105553604566112">
    <path class="fil2" d="M1091.52 2416.78c-145.31,19.43 -336.99,6.01 -473.52,-43.71 -35.48,-12.94 -69.93,-28.89 -102.22,-48.61 -90.78,-55.45 -172.93,-153.78 -234.73,-239.33 -57.63,-79.73 -110.07,-165.8 -155.63,-252.99 -15.31,-29.38 -64.56,-123.98 -64.56,-156.35 0,-72.03 -3.78,-145.34 -6.05,-217.46l-0.83 -26.47 233.42 -46.68 9.74 23.99c24.04,59.32 49.29,119.62 77.89,176.75 168.81,337.62 320.12,487.48 717.69,399.13 88.8,-19.72 182.72,3.69 230.21,86.57 35.52,61.99 31.16,136.72 -3.69,197.99 -46.58,81.86 -136.14,126.59 -224.98,146.61l-1.36 0.29 -1.36 0.19 -0.04 0.1z"/>
   </g>
   <path class="fil6" d="M1087.35 2385.77c0,0 -336.8,45.51 -555.23,-88.02 -218.44,-133.47 -439.93,-579.52 -439.93,-622.03 0,-42.46 -6.05,-218.43 -6.05,-218.43l182.04 -36.4c0,0 42.5,106.19 78.91,179.03 164.21,328.41 321.62,511.43 752.45,415.65 251.84,-55.98 328.46,293.32 -12.12,370.19l-0.06 0.01z"/>
  </g>
 </g>
</svg>
