<?xml version="1.0" encoding="UTF-8"?>
<!DOCTYPE svg PUBLIC "-//W3C//DTD SVG 1.1//EN" "http://www.w3.org/Graphics/SVG/1.1/DTD/svg11.dtd">
<!-- Creator: CorelDRAW -->
<svg xmlns="http://www.w3.org/2000/svg" xml:space="preserve" width="107.95mm" height="108.082mm" version="1.1" style="shape-rendering:geometricPrecision; text-rendering:geometricPrecision; image-rendering:optimizeQuality; fill-rule:evenodd; clip-rule:evenodd"
viewBox="0 0 2043.33 2045.83"
 xmlns:xlink="http://www.w3.org/1999/xlink">
 <defs>
  <style type="text/css">
   <![CDATA[
    .fil3 {fill:none}
    .fil31 {fill:white}
    .fil6 {fill:white}
    .fil2 {fill:#DDDEDE}
    .fil1 {fill:#8C8C8C}
    .fil0 {fill:#484443}
    .fil22 {fill:#332D2B}
    .fil27 {fill:#E6232A}
    .fil29 {fill:#E6232A}
    .fil23 {fill:#E66EA5}
    .fil30 {fill:#BF4F53}
    .fil4 {fill:#232323}
    .fil16 {fill:#493D37}
    .fil13 {fill:#493E37}
    .fil5 {fill:#53A4C7}
    .fil12 {fill:#5E9898}
    .fil15 {fill:#6B6662}
    .fil9 {fill:#726E6A}
    .fil10 {fill:#845636}
    .fil24 {fill:#885A3A}
    .fil8 {fill:#8DCBD1}
    .fil7 {fill:#908B87}
    .fil19 {fill:#94C7C9}
    .fil32 {fill:#A67A5B}
    .fil18 {fill:#BFB7B0}
    .fil20 {fill:#CDC2BC}
    .fil28 {fill:#CE2F13}
    .fil14 {fill:#CFE6E8}
    .fil17 {fill:#EAF4F5}
    .fil21 {fill:#F2BA85}
    .fil26 {fill:#F3BB83}
    .fil25 {fill:#FAFCFB}
    .fil11 {fill:red}
   ]]>
  </style>
   <clipPath id="id0">
    <path d="M1422.42 1208.75l45.07 85.14 -87.64 -2.5 -135.22 75.12 -107.67 50.08 -5.01 170.28 42.57 7.51 -7.51 275.45 643.55 5.01 -5.01 -575.94 -170.28 2.5 -15.03 -85.14 -197.82 -7.51z"/>
   </clipPath>
   <clipPath id="id1">
    <path d="M1700.65 966.43l9.52 4.87 -3.71 24.62c3.88,19.63 3.62,17.74 26.36,24.95l-3.91 22.99 61.18 3.69c-0.57,-17.93 1.45,-30.7 8.26,-39.48 0.18,-0.23 20.49,-4.71 31.05,-16.4 11.93,-13.2 14.38,-33.9 16.27,-35.84 1.11,-5.71 7.77,-29.7 2.61,-46.87 -4.37,-14.53 -21.94,-23.44 -27.32,-28.76 -34.67,-9.85 -51,-17.48 -81.86,0.81 -36.06,24.01 -24.14,36.29 -38.46,85.42z"/>
   </clipPath>
    <clipPath id="id2">
     <path d="M1710.3 981.07c0,0 -0.96,0 -1.62,0.16l0.02 -0.1 1.61 -0.06zm-1.77 1.13l0.2 0.12c2.19,1.25 12.83,2.82 17.84,2.82 5.01,0 0.31,7.2 0.31,7.2l-5.32 7.2 -8.76 0 -5.79 -0.86 -0.55 -2.76 2.07 -13.72z"/>
    </clipPath>
    <clipPath id="id3">
     <path d="M1700.65 966.43l9.52 4.87 -3.71 24.62c3.88,19.63 3.62,17.74 26.36,24.95l-3.91 22.99 61.18 3.69c-0.57,-17.93 1.45,-30.7 8.26,-39.48 0.18,-0.23 20.49,-4.71 31.05,-16.4 11.93,-13.2 14.38,-33.9 16.27,-35.84 1.11,-5.71 7.77,-29.7 2.61,-46.87 -4.37,-14.53 -21.94,-23.44 -27.32,-28.76 -34.67,-9.85 -51,-17.48 -81.86,0.81 -36.06,24.01 -24.14,36.29 -38.46,85.42z"/>
    </clipPath>
   <clipPath id="id4">
    <path d="M1746.44 877.45c0,0 7.51,-4.07 11.27,-5.95 3.76,-1.88 13.46,-1.57 16.59,-1.57 21.72,0 50.93,28.32 43.51,32.87l-25.04 15.34c-4.53,2.77 -1.49,-25.91 -8.93,-31.38 -15.4,-11.32 -40.35,-9.31 -37.4,-9.31z"/>
   </clipPath>
    <clipPath id="id5">
     <path d="M1653.96 1185.14l15.65 48.2 16.28 -49.77 -31.93 1.57z"/>
    </clipPath>
    <clipPath id="id6">
     <path d="M1668.98 1184.52l15.65 48.2 16.28 -49.77 -31.93 1.57z"/>
    </clipPath>
    <clipPath id="id7">
     <path d="M1683.38 1183.26l15.65 48.2 16.28 -49.77 -31.93 1.57z"/>
    </clipPath>
    <clipPath id="id8">
     <path d="M1698.41 1182.64l15.65 48.2 16.28 -49.77 -31.93 1.57z"/>
    </clipPath>
 </defs>
 <g id="Layer_x0020_1">
  <metadata id="CorelCorpID_0Corel-Layer"/>
  <polygon class="fil0" points="1422.42,1208.75 1467.5,1293.89 1379.85,1291.39 1244.63,1366.51 1136.96,1416.59 1131.95,1586.87 1174.52,1594.38 1167.01,1869.83 1810.56,1874.84 1805.55,1298.9 1635.27,1301.4 1620.25,1216.26 "/>
  <g style="clip-path:url(#id0)">
   <g id="_105553604233376">
    <g>
     <polygon id="1" class="fil1" points="1153.86,1462.91 1827.46,1467.92 1829.96,1490.46 1096.27,1480.44 1153.86,1450.39 "/>
     <polygon class="fil1" points="1376.72,1320.18 1181.41,1415.34 1181.41,1447.89 1249.02,1445.39 1239,1407.82 "/>
     <rect class="fil1" x="1181.41" y="1496.72" width="60.1" height="78.88"/>
     <rect class="fil1" x="1267.8" y="1496.72" width="60.1" height="78.88"/>
     <rect class="fil1" x="1438.07" y="1496.72" width="60.1" height="78.88"/>
     <rect class="fil1" x="1381.73" y="1496.72" width="35.06" height="78.88"/>
    </g>
    <rect class="fil2" x="1548.89" y="1652.61" width="246.65" height="8.76"/>
    <rect class="fil2" x="1548.89" y="1677.65" width="246.65" height="8.76"/>
    <rect class="fil2" x="1548.89" y="1703.95" width="246.65" height="8.76"/>
   </g>
  </g>
  <polygon class="fil3" points="1422.42,1208.75 1467.5,1293.89 1379.85,1291.39 1244.63,1366.51 1136.96,1416.59 1131.95,1586.87 1174.52,1594.38 1167.01,1869.83 1810.56,1874.84 1805.55,1298.9 1635.27,1301.4 1620.25,1216.26 "/>
  <g id="_105553604246400">
   <path class="fil4" d="M1804 1593.7c-6.34,4.77 -7.76,30.08 -7.96,35.85 -0.9,27.22 2.13,56.33 5.27,83.38 3.02,26.08 6.78,52.04 10.16,78.07 1.55,11.9 5.56,37.43 3.5,48.88l-1.17 6.53 -64.57 8.39 -2.73 -6.23c-7.87,-17.97 -11.48,-41.48 -13.82,-60.89 -3.14,-26.11 -4.56,-52.66 -5.53,-78.94 -0.84,-22.76 -1.27,-45.52 -1.72,-68.29 -0.36,-18.21 -0.64,-36.55 -1.66,-54.74l-3.46 -18.28 12.36 1.56c24.2,3.05 50.94,7.08 75.35,6.04 23.34,-0.99 48.38,-6.64 71.29,-11.15l1.93 -0.38 24.8 5.92 -2.98 9.31c-12.61,39.4 3.22,99.93 14.1,138.71 6.06,21.61 12.72,43.05 18.91,64.62 5.37,18.69 10.73,38.08 13.76,57.3l2.08 13.23 -13.05 -2.98c-10.96,-2.5 -25.85,-5.88 -36.03,0.78 -4.27,2.79 -8.11,6.22 -12.46,9.03 -7.23,4.67 -14.88,7.67 -23.23,9.7l-11.78 2.86 0.59 -12.11c1.28,-26.17 1.67,-53.2 -1.32,-79.27 -1.9,-16.6 -5.35,-31.81 -9.84,-47.85 -3.57,-12.76 -7.24,-25.33 -10.11,-38.29 -4,-18.08 -6.49,-36.33 -8.04,-54.77 -0.77,-9.13 -0.59,-18.1 -1.03,-27.2 -0.19,-3.86 -0.57,-10.22 -2.89,-13.48 -3.2,-4.51 -12.79,-5.21 -18.7,-5.31z"/>
  </g>
  <path class="fil5" d="M1731.51 1577.99l1.25 6.63c3.7,65.19 -0.7,208.41 22.03,260.31l51.25 -6.66c4.9,-27.23 -42.4,-239.58 -4.14,-253.65 39.95,0 30.89,20.33 33.75,54.32 8.42,99.89 35.63,92.83 29.33,221.38 37.32,-9.06 25.06,-31.12 75.88,-19.54 -11.38,-72.18 -68.76,-195.1 -46.45,-264.81l-13.37 -3.19c-70.96,13.98 -75.4,14.56 -149.52,5.21z"/>
  <polygon class="fil6" points="1749.51,964.92 1709.89,756.69 1714.18,755.9 1753.08,964.77 "/>
  <path class="fil7" d="M230.47 807.02c0,-63.65 42.22,-57.05 99.29,-57.05 57.23,-0 99.15,-6.56 99.17,57.05l0.01 618.52c-0.02,49.73 2.41,81.24 -63.84,81.24 -80.26,0 -134.62,12.78 -134.62,-57.68l0 -642.08zm645.31 515.07c4.56,101.14 2.49,80.86 -92.61,80.76 -198.42,-0.2 -197.64,23.54 -191.79,-80.33l284.4 -0.44zm-224.2 -160.04c47.9,-3.34 116.99,-5.41 163.3,1.69 13.29,28.86 9.69,100.28 2.46,137.05 -30.02,6.06 -138.91,6.5 -168.64,-0.35l2.88 -138.39zm-546.39 -656.08l0.91 59.53 0.08 3.92 -106.19 -0.07 0 5.89 106.12 0.36 0.24 664.91 -106.36 4.38 0 32.68c34.29,-8.2 70.89,-5.07 106.15,-4.79l-0.08 41.81 -106.07 0.14 0 31.51 106.16 0.15 -0.3 198.25c38.29,25.66 175.69,12.18 235.67,12.18 113.64,0 718.83,8.89 744.19,-8.87l1.19 190.33c10.82,-15.98 7.48,-17.73 7.45,-41.48l-1.04 -159.35c-4.5,-189.3 -0.02,-413.28 -0.08,-628.01l-44.48 1.54 0.58 -67.25 43.24 -1.79 -0.15 -278.19 -362.26 0.12c-101.59,0.01 -92.56,10.73 -93.35,-22.18l352.44 0.05c19.79,0 39.47,0.03 59.26,0.29 24.5,0.32 37.4,6.48 44.23,-11.89 -6.22,-22.08 -22.43,-14.92 -50.29,-14.46 -69.25,1.15 -386.32,4.69 -405.53,-3.23l0.94 -20.07 454.76 -0.18c-0.27,-65.86 -19.7,-51.63 -79.81,-51.32l-361.78 0.03 -0.36 -440.94 -6.02 0 0.16 440.97 -62.62 -0.55 -74.27 0.56 -0.26 -440.98 -5.96 0 -0.63 441.03 -64.32 -1 -77.62 0.29 -64.07 0.45 0.54 -440.77 -6.09 0 -1.25 440.89c-43.85,0.14 -144.84,-5.56 -178.43,6.47l-4.66 58.61z"/>
  <path class="fil8" d="M-0 1840.57l0 160.39c100.58,-3.69 201.49,4.75 300.32,0.64 50.47,-2.1 105.83,1.25 153.1,0.45 52.31,-0.88 103.99,-3.16 156.64,-0.71 -4.33,-30.99 65.87,-125.14 82.2,-161.65l-50.24 -1.39c-12.01,-2.63 -9.86,-2.49 -16.06,-6.31l-0.04 -38.48 249.85 -0.16 -0.06 46.3 -40.29 1.26c-9.5,27.26 -16.78,54.91 -25.64,81.31l-20.44 61.8c-8.57,18.01 -3.55,8.84 -12.05,18.27 -6.04,-11.32 -8.94,11.37 -4.72,-26.01l19.67 -57.31c8.09,-23.87 20.51,-54.57 25.29,-79.12l-107.45 0.15c-16.38,25.94 -30.84,57.04 -46.07,83.81 -11.57,20.34 -30.11,65.39 -50.23,77.14 120.43,-3.93 239.67,4.02 357.83,-0.38 28.17,-1.05 60.05,-0.83 88.33,-0.27l88.33 -0.04c28.51,-0.39 59.97,-0.74 88.33,0.45l182.54 1.16c27.48,0.86 58.73,-1.55 88.33,-1.53l535.86 0.24 0 -160.15c-35.04,1.03 -73.79,10.3 -102.47,0.32l4.58 46.23 -114.09 8.16 6 -27.02c-34.24,2.16 -18.58,-8.26 -35.45,21.47l-101.61 -3.48c-39.69,-17.52 37.42,-7.87 4.24,-19.95 -14.28,-2.51 -449.45,4.67 -525.09,-0.37l-0.27 -24.99 -92.04 -0.42 18.99 119.16c4.01,23.72 2.87,30.62 -4.96,43.24 -8.67,-11.09 -9.47,-9.43 -14.15,-41.38l-18.96 -120.95 -68.01 -0.71 0.38 27.14 -123.25 0.56 0.71 -77.68 -255.36 0.43 1.91 77.14 -123.5 -0.5 0.57 -27.04c-38.96,1.42 -45.95,-4.91 -65.73,23.32 -0.92,-1.25 -1.18,-3.58 -1.36,-4.46l-1.65 -7.92c-0.1,-0.69 0.01,-2.6 -0.07,-3.21 -0.06,-0.49 0.18,-2.17 0.13,-2.56 -0.66,-5 18.39,-0.24 -2.94,-4.54l-85.06 0.03 0.48 26.16 -123.31 0.85c0.07,-23.89 6.62,-63.91 -4.33,-83.2l0.76 54.98c-23.5,10.86 -16.68,9.95 -25.69,5.91l-102.55 -3.97c-19.78,3.49 -39.88,21.59 -65.01,29.62l38.32 -30.37 -63.48 0.12z"/>
  <path class="fil9" d="M147.18 1742.72l0.02 -5.77c172.46,-9.66 500.32,-0.79 700.75,-0.79l217.08 1.75c16.07,4.71 2.99,-2.18 13.96,7.01l7.93 -6.64 -1.19 -190.33c-25.36,17.75 -630.55,8.87 -744.19,8.87 -59.98,0 -197.38,13.48 -235.67,-12.18l0.51 191.07 40.82 7.01z"/>
  <path class="fil10" d="M235.66 1437.62c1.96,65.87 33.51,60.21 94.1,60.22 66.22,0 92.56,4.69 94.2,-66.08l-0.59 -466.1 -187.3 1.24 -0.41 470.72z"/>
  <g id="_105553604242560">
   <path class="fil4" d="M1600.06 971.15c6,10.7 10.67,22.46 15.99,33.54 7.44,15.5 15.89,29.94 25.63,44.04 13.51,-1.83 27.05,-3.99 40.55,-5.9 10.23,-1.45 20.49,-2.88 30.75,-4.11 4.07,-0.49 15.3,-2.38 18.94,-0.39l13.04 7.14 -14.2 4.4c-1.66,0.51 -11.57,3.44 -12.57,4.75 -0.44,0.77 -0.36,4.99 -0.35,5.89 0.05,4.21 0.08,8.32 -0.02,12.46 23.23,-1.16 54.35,-1.46 75.57,-9.45l-20.24 -29.55 19.28 7.73c15.9,6.38 27.7,17.5 36.44,32.06 12.31,20.51 15.95,42.25 22.42,64.71l115.76 402.06 -78.55 35.85 -0.14 0.06c-1.24,0.49 -2.89,1 -4.01,1.7l-0.97 0.6 -1.12 0.22c-23.77,4.68 -49.38,10.4 -73.61,11.43 -25.39,1.08 -52.75,-2.98 -77.92,-6.15l-0.3 -0.04 -0.29 -0.07c-19.32,-4.34 -47.34,-11.03 -57.65,-29.98 -5.86,-10.77 -5.91,-24.41 -5.77,-36.37 0.21,-18.39 0.78,-35.96 -0.54,-54.59 -1.19,-28.29 0.79,-56.55 0.18,-84.84 -0.32,-14.79 -2.86,-31.25 -5.01,-45.89 -3.27,-22.25 -7.12,-44.47 -11.23,-66.58 -4.63,-24.88 -9.61,-49.79 -15.29,-74.45 -2.1,-9.11 -4.29,-18.25 -6.81,-27.26 -1.25,-4.49 -2.87,-10.61 -4.93,-14.78l-0.4 -0.81 -0.16 -0.89c-1.08,-6.07 -3.41,-17.77 -10.57,-19.8 -4.48,-1.27 -12.22,0.17 -17.03,0.35 -1.41,0.05 -2.82,0.06 -4.23,-0.02 -17.54,-0.92 -25.68,-14.34 -30.65,-29.63 -4.61,-14.2 -6.69,-30.45 -8.03,-45.27 -2.31,-25.53 -2.6,-51.64 -2.33,-77.26l0.05 -4.87 30.83 -7.7c5.37,-1.4 16.99,-6.08 20.25,0.88 1.48,3.16 0.45,4.73 -0.74,6.74z"/>
  </g>
  <path class="fil11" d="M1582.15 969.61l-26.18 6.54c-2.41,234.89 59.45,95.47 72.74,170.46 10.85,21.9 43.01,189.11 43.93,231.62 0.61,28.3 -1.37,56.42 -0.18,84.71 5.54,78.29 -18.55,97.62 59.05,115.05 74.13,9.35 78.56,8.77 149.52,-5.21 1.55,-0.96 3.71,-1.68 5,-2.2l73.47 -33.54 -114.25 -396.84c-8.18,-28.53 -14.68,-76.43 -55.15,-92.66l12.78 18.66c-23.75,12.31 -62.26,11.48 -91.64,13.45 2.05,-30.53 -5.62,-28.57 17.68,-35.8 -2.88,-1.57 -79.39,10.2 -90.18,11.61 -27.24,-38.49 -33.59,-62.51 -44.3,-81.51 -5.73,-5.1 11.41,-10.55 -12.27,-4.35z"/>
  <path class="fil12" d="M-0 2045.83l2043.33 -0.16 0 -45.06 -535.86 -0.24c-29.6,-0.02 -60.85,2.38 -88.33,1.53l-182.54 -1.16c-28.36,-1.19 -59.82,-0.84 -88.33,-0.45l-88.33 0.04c-28.28,-0.56 -60.15,-0.78 -88.33,0.27 -118.16,4.39 -237.4,-3.55 -357.83,0.38l-3.73 0.38c-52.65,-2.46 -104.33,-0.17 -156.64,0.71 -47.27,0.79 -102.63,-2.55 -153.1,-0.45 -98.83,4.11 -199.73,-4.32 -300.32,-0.64l0 44.86z"/>
  <path class="fil13" d="M217.65 1784.27c10.94,19.29 4.39,59.31 4.33,83.2l123.31 -0.85 -0.48 -26.16 1.64 -49.06 154.05 0.12 0.99 48.29 -0.57 27.04 123.5 0.5 -1.91 -77.14 255.36 -0.43 -0.71 77.68 123.25 -0.56 -0.38 -27.14 0.54 -56.65 78.41 -38.17c-10.97,-9.19 2.12,-2.3 -13.96,-7.01l-217.08 -1.75c-200.43,0 -528.29,-8.88 -700.75,0.79l-0.02 5.77 70.47 41.55z"/>
  <path class="fil14" d="M236.07 966.9l187.3 -1.24 0.59 466.1c-1.64,70.77 -27.98,66.08 -94.2,66.08 -60.59,-0 -92.15,5.65 -94.1,-60.22l0.41 -470.72zm-5.6 -159.88l-0 642.08c-0,70.46 54.36,57.68 134.62,57.68 66.26,0 63.82,-31.52 63.84,-81.24l-0.01 -618.52c-0.01,-63.61 -41.94,-57.06 -99.17,-57.05 -57.07,0 -99.29,-6.59 -99.29,57.05z"/>
  <path class="fil15" d="M1093.25 909.46c63.47,8.46 190.99,1.1 261.12,0.85 37.43,-0.13 94.35,-7.55 117.94,14.58 31.91,29.94 5.4,76.02 14.79,98.18l73.34 -2.51 0 102.47 -1.86 -0.69 -2.6 -146.19c-7.3,-36.8 -16.95,-36.29 -19.32,-81.98 -9.72,-10.45 -27.32,-23.19 -35.1,-34.67 -104.1,-35.26 -286.64,-4.4 -408.96,-17.55l-43.24 1.79 -0.58 67.25 44.48 -1.54z"/>
  <polygon class="fil13" points="436.77,440.03 501.1,441.03 501.73,0 437.12,0 "/>
  <polygon class="fil13" points="359.16,440.32 358.97,0 295.63,0 295.09,440.77 "/>
  <polygon class="fil16" points="582.22,440.42 644.84,440.97 644.68,0 582.35,0 "/>
  <polygon class="fil17" points="1133.73,597.57 1287.19,597.38 1286.82,444.35 1133.65,444.51 "/>
  <polygon class="fil17" points="1494.75,597.48 1647.93,597.09 1647.85,446.35 1494.51,444.24 "/>
  <path class="fil17" d="M1133.8 774.79c25.69,8.79 126.48,8.6 152.62,0.25l0.22 -147.21 -152 -1.88 -0.84 148.84z"/>
  <polygon class="fil17" points="1494.54,778.83 1647.85,778.91 1647.58,626.63 1496.81,625.56 "/>
  <polygon class="fil17" points="1314.29,595.66 1467.36,597.51 1467.3,444.92 1314.26,444.77 "/>
  <polygon class="fil17" points="1314.23,777.47 1467.35,779.39 1466.85,625.91 1315.77,625.84 "/>
  <path class="fil18" d="M591.38 1322.53c-5.85,103.87 -6.62,80.13 191.79,80.33 95.1,0.1 97.17,20.37 92.61,-80.76l-284.4 0.44z"/>
  <polygon class="fil17" points="1136.95,1139.71 1285.39,1139.72 1285.49,990.51 1134.81,990.83 "/>
  <path class="fil17" d="M1456.53 1125.52l8.95 -4.53 -0.23 -130.59 -148.21 2.76 1.24 146.03c42.5,0.23 120.04,5.67 138.26,-13.68z"/>
  <path class="fil17" d="M1135.26 1322.05c84.09,1.16 92.69,0.69 150.41,0.89l0.37 -150.92 -151.06 -0.1 0.28 150.13z"/>
  <path class="fil19" d="M662.12 1172.49l100.74 0.34c-28.49,28.85 -78.34,72.96 -102.98,101.1l2.25 -101.44zm-10.53 -10.44l-2.88 138.39c29.73,6.84 138.62,6.4 168.64,0.35 7.23,-36.77 10.83,-108.19 -2.46,-137.05 -46.31,-7.1 -115.4,-5.03 -163.3,-1.69z"/>
  <path class="fil20" d="M1415.85 1144.52l3.93 27.63c-0.06,7.81 -1.12,22.88 -0.5,29.79 0.72,8.02 -0.13,3.37 1.49,10.7 3.42,15.43 -1.27,3.99 5.42,13.82l12.03 -4.81c1.4,-0.27 3.18,-0.67 4.82,-0.9l153.04 -0.64c37.62,5.36 12.35,-3.57 24.12,10.09 9.5,-16.02 10.95,-64.39 8.52,-82.34 -4.34,-32.03 -9.71,-23.2 -70.14,-25.52l1.86 0.69c-55.92,5.18 -67.06,20.39 -100.69,5.89 -0.7,22.21 3.4,38.57 -7.79,53.92l2.05 -50.32 -38.17 12z"/>
  <g id="_105553604566464">
   <path class="fil4" d="M1849.97 959.08c-0.48,1.21 -0.91,3.1 -1.24,4.25 -0.88,3.14 -1.79,6.26 -2.86,9.34 -2.82,8.13 -6.7,16.16 -12.51,22.58 -8.45,9.35 -20.07,13.67 -31.72,17.36 -6.36,9.45 -6.56,23.98 -6.22,34.77l0.19 5.85 -72.96 -4.4 4.13 -24.25c-18.25,-5.57 -21.23,-5.74 -25.55,-27.63l-0.18 -0.91 3.28 -21.74 -10.03 -5.13 1.24 -4.24c3.39,-11.64 5.66,-23 7.66,-34.93 1.39,-8.28 2.69,-16.97 5.99,-24.74 5.4,-12.72 15.73,-21.22 26.97,-28.7l0.24 -0.15c33.13,-19.64 51.78,-11.09 86.04,-1.36l1.32 0.37 0.97 0.96c2.3,2.28 5.98,4.64 8.62,6.62 4.44,3.33 8.75,6.89 12.4,11.1 3.39,3.91 6.16,8.32 7.65,13.3 4.92,16.37 0.65,33.28 -2.48,49.42l-0.3 1.57 -0.64 0.65z"/>
  </g>
  <path class="fil21" d="M1700.65 966.43l9.52 4.87 -3.71 24.62c3.88,19.63 3.62,17.74 26.36,24.95l-3.91 22.99 61.18 3.69c-0.57,-17.93 1.45,-30.7 8.26,-39.48 0.18,-0.23 20.49,-4.71 31.05,-16.4 11.93,-13.2 14.38,-33.9 16.27,-35.84 1.11,-5.71 7.77,-29.7 2.61,-46.87 -4.37,-14.53 -21.94,-23.44 -27.32,-28.76 -34.67,-9.85 -51,-17.48 -81.86,0.81 -36.06,24.01 -24.14,36.29 -38.46,85.42z"/>
  <g style="clip-path:url(#id1)">
   <g id="_105553604567968">
    <path id="1" class="fil22" d="M1714.14 904.64c0,0 33.18,-19.41 40.69,-10.02 7.51,9.39 1.25,30.05 1.25,30.05 0,0 20.03,-8.76 21.29,2.5 1.25,11.27 -1.88,25.67 1.88,28.17 3.76,2.5 3.76,2.5 3.76,2.5 0,0 31.58,9.59 39.44,10.64 7.86,1.05 10.95,-1.72 13.29,-3.49 24.83,3.99 30.84,-50.1 0.5,-80.11 -14.13,-13.97 -43.93,-17.89 -67.63,-15.94l-13.15 1.88 -26.92 -0.63 -14.4 34.43z"/>
    <g>
     <path class="fil4" d="M1710.42 982c3.9,1.24 13.25,2.2 16.15,2.2 5.35,0 2.81,6.17 1.07,8.7l-5.6 7.58 -9.38 -0.01 -9.13 -1.35 -3.1 -18.63 9.25 -0.33c0.2,-0.01 0.41,-0.02 0.61,-0.02l0.33 -0.01 0 0.01 0.59 0 0.03 1.84 -0.83 0.03z"/>
    </g>
    <path class="fil6" d="M1710.3 981.07c0,0 -3.76,0 -1.57,1.25 2.19,1.25 12.83,2.82 17.84,2.82 5.01,0 0.31,7.2 0.31,7.2l-5.32 7.2 -8.76 0 -8.45 -1.25 -2.82 -16.9 8.76 -0.31z"/>
   </g>
   <g style="clip-path:url(#id2)">
    <g>
     <polygon id="1" class="fil23" points="1691.52,986.7 1709.99,990.46 1724.39,995.78 1722.82,1002.35 1699.97,1005.79 "/>
    </g>
   </g>
   <g style="clip-path:url(#id3)">
    <path class="fil3" d="M1710.3 981.07c0,0 -3.76,0 -1.57,1.25 2.19,1.25 12.83,2.82 17.84,2.82 5.01,0 0.31,7.2 0.31,7.2l-5.32 7.2 -8.76 0 -8.45 -1.25 -2.82 -16.9 8.76 -0.31z"/>
   </g>
  </g>
  <path class="fil3" d="M1700.65 966.43l9.52 4.87 -3.71 24.62c3.88,19.63 3.62,17.74 26.36,24.95l-3.91 22.99 61.18 3.69c-0.57,-17.93 1.45,-30.7 8.26,-39.48 0.18,-0.23 20.49,-4.71 31.05,-16.4 11.93,-13.2 14.38,-33.9 16.27,-35.84 1.11,-5.71 7.77,-29.7 2.61,-46.87 -4.37,-14.53 -21.94,-23.44 -27.32,-28.76 -34.67,-9.85 -51,-17.48 -81.86,0.81 -36.06,24.01 -24.14,36.29 -38.46,85.42z"/>
  <path class="fil17" d="M1501.55 859.51c7.79,11.48 25.38,24.22 35.1,34.67 24.42,-10.66 41.6,28.6 48.67,59.31l0.52 7.39 61.96 -1.65 -0.51 -151.59 -151.67 0.03c-1.44,26.08 -4.15,27.9 5.93,51.84z"/>
  <path class="fil17" d="M1330.18 1322.91c27.09,-1.15 27.97,-14.35 56.66,-17.55 6.55,-6.39 -9.53,-7.29 43.62,-7.01 18.58,0.1 30.95,-0.32 49.45,-2.24 -3.06,-33.07 -32.31,-52.87 -53.73,-69.64 -6.69,-9.83 -2,1.61 -5.42,-13.82 -1.62,-7.33 -0.77,-2.68 -1.49,-10.7 -0.62,-6.9 0.44,-21.97 0.5,-29.79l-102.78 1.97 1.29 145.26 11.9 3.53z"/>
  <path class="fil24" d="M1465.47 1120.99l-46.51 -1.73 -3.12 25.27 38.17 -12 -2.05 50.32c11.19,-15.35 7.09,-31.71 7.79,-53.92 33.62,14.5 44.77,-0.72 100.69,-5.89l-0 -102.47 -73.34 2.51 2 97.83 -23.62 0.08z"/>
  <polygon class="fil13" points="-0,569.35 106.19,569.42 106.11,565.5 105.2,505.97 -0,506.03 "/>
  <path class="fil25" d="M659.87 1273.93c24.64,-28.14 74.5,-72.25 102.98,-101.1l-100.74 -0.34 -2.25 101.44z"/>
  <path class="fil26" d="M1536.66 894.18c2.36,45.68 12.01,45.18 19.32,81.98l26.18 -6.54c5.36,-6.59 5.96,14.37 3.17,-16.12 -7.06,-30.71 -24.25,-69.97 -48.67,-59.31z"/>
  <g id="_105553604566112">
   <path class="fil4" d="M1761.87 1172.23c-29.98,4.01 -69.53,1.24 -97.7,-9.02 -7.32,-2.67 -14.43,-5.96 -21.09,-10.03 -18.73,-11.44 -35.68,-31.73 -48.43,-49.38 -11.89,-16.45 -22.71,-34.21 -32.11,-52.2 -3.16,-6.06 -13.32,-25.58 -13.32,-32.26 0,-14.86 -0.78,-29.99 -1.25,-44.87l-0.17 -5.46 48.16 -9.63 2.01 4.95c4.96,12.24 10.17,24.68 16.07,36.47 34.83,69.66 66.05,100.58 148.08,82.35 18.32,-4.07 37.7,0.76 47.5,17.86 7.33,12.79 6.43,28.21 -0.76,40.85 -9.61,16.89 -28.09,26.12 -46.42,30.25l-0.28 0.06 -0.28 0.04z"/>
  </g>
  <path class="fil27" d="M1761.01 1165.83c0,0 -69.49,9.39 -114.56,-18.16 -45.07,-27.54 -90.77,-119.57 -90.77,-128.34 0,-8.76 -1.25,-45.07 -1.25,-45.07l37.56 -7.51c0,0 8.77,21.91 16.28,36.94 33.88,67.76 66.36,105.52 155.25,85.76 51.96,-11.55 67.77,60.52 -2.5,76.38z"/>
  <path class="fil28" d="M1790.09 1047.55l-61.18 -3.69c-23.3,7.22 -15.63,5.26 -17.68,35.8 29.38,-1.96 67.89,-1.14 91.64,-13.45l-12.78 -18.66z"/>
  <ellipse class="fil22" transform="matrix(0.993463 0.114156 -1.30606E-001 1.13663 1810.8 938.884)" rx="32.87" ry="35.84"/>
  <ellipse class="fil29" transform="matrix(0.927395 0.106564 -1.21921E-001 1.06104 1812.05 941.39)" rx="32.87" ry="35.84"/>
  <ellipse class="fil30" transform="matrix(0.834504 0.0958905 -1.09709E-001 0.954761 1812.68 942.328)" rx="32.87" ry="35.84"/>
  <polygon class="fil6" points="1810.92,938.19 1885.42,739.74 1889.49,741.3 1814.05,939.91 "/>
  <path class="fil22" d="M1746.44 877.45c0,0 7.51,-4.07 11.27,-5.95 3.76,-1.88 13.46,-1.57 16.59,-1.57 21.72,0 50.93,28.32 43.51,32.87l-25.04 15.34c-4.53,2.77 -1.49,-25.91 -8.93,-31.38 -15.4,-11.32 -40.35,-9.31 -37.4,-9.31z"/>
  <g style="clip-path:url(#id4)">
   <g id="_105553604566720">
    <path id="1" class="fil29" d="M1752.7 874.64c0,0 11.58,0.94 20.03,3.44 8.45,2.5 14.4,4.69 16.59,9.08 2.19,4.38 5.95,23.48 5.95,23.48l14.4 -4.07c1.43,-1.13 4.4,-0.48 4.91,-1.79 1.34,-3.44 -2.25,-9.23 -5.8,-13.41 -13.22,-15.53 -50.13,-30.93 -53.57,-23.62l-2.5 5.32 0 1.57z"/>
   </g>
  </g>
  <path class="fil3" d="M1746.44 877.45c0,0 7.51,-4.07 11.27,-5.95 3.76,-1.88 13.46,-1.57 16.59,-1.57 21.72,0 50.93,28.32 43.51,32.87l-25.04 15.34c-4.53,2.77 -1.49,-25.91 -8.93,-31.38 -15.4,-11.32 -40.35,-9.31 -37.4,-9.31z"/>
  <ellipse class="fil22" transform="matrix(0.993463 0.114156 -1.30606E-001 1.13663 1810.17 940.135)" rx="32.87" ry="35.84"/>
  <ellipse class="fil29" transform="matrix(0.927395 0.106564 -1.21921E-001 1.06104 1811.42 942.641)" rx="32.87" ry="35.84"/>
  <ellipse class="fil30" transform="matrix(0.834504 0.0958905 -1.09709E-001 0.954761 1812.05 943.58)" rx="32.87" ry="35.84"/>
  <polygon class="fil6" points="1810.29,939.44 1884.79,740.99 1888.86,742.55 1813.42,941.16 "/>
  <ellipse class="fil6" cx="1770.7" cy="872.76" rx="4.3" ry="1.33"/>
  <ellipse class="fil6" cx="1783.38" cy="877.76" rx="4.3" ry="1.33"/>
  <ellipse class="fil6" cx="1797.78" cy="888.88" rx="4.3" ry="1.33"/>
  <ellipse class="fil30" transform="matrix(0.834504 0.0958905 -1.09709E-001 0.954761 1812.05 943.58)" rx="32.87" ry="35.84"/>
  <ellipse class="fil27" transform="matrix(0.764148 0.087806 -1.00459E-001 0.874266 1812.05 943.58)" rx="32.87" ry="35.84"/>
  <ellipse class="fil6" cx="1728.23" cy="942.59" rx="6.62" ry="7.02"/>
  <path class="fil22" d="M1715.34 936.91c5.06,-1.18 24.15,-5.47 24.15,-5.47l4.93 4.71 -7.22 0.85 -21.85 -0.09z"/>
  <path class="fil4" d="M1726.8 939.66c0.26,0 0.51,0.03 0.75,0.1 -0.73,0.26 -1.25,0.98 -1.25,1.84 0,1.08 0.82,1.95 1.83,1.95 0.7,0 1.31,-0.42 1.62,-1.03l0.01 0.27c0,1.73 -1.32,3.13 -2.95,3.13 -1.63,0 -2.95,-1.4 -2.95,-3.13 0,-1.73 1.32,-3.13 2.95,-3.13z"/>
  <path class="fil22" d="M1717.03 949.07c0,0 3.08,-1.78 9.36,-1.29 6.28,0.5 13.15,-0.4 13.15,-0.4 0,0 -2.44,2.19 -4.16,2.3 -1.72,0.11 -7.19,0.46 -9.39,0.38 -2.19,-0.08 -8.96,-1 -8.96,-1z"/>
  <polygon class="fil31" points="1717.91,1179.8 1732.97,1179.06 1714.05,1236.9 1706.67,1214.16 1699.03,1237.53 1692.06,1216.06 1684.63,1238.78 1677.24,1216.04 1669.6,1239.41 1651.41,1183.39 1680.98,1181.94 1680.84,1181.51 1717.94,1179.69 "/>
  <g id="_105553604551584">
   <polygon class="fil4" points="1653.96,1185.14 1669.61,1233.35 1685.89,1183.58 "/>
   <g style="clip-path:url(#id5)">
    <g>
     <polygon id="1" class="fil29" points="1659.59,1184.83 1675.24,1233.03 1691.52,1183.26 "/>
    </g>
   </g>
   <polygon class="fil3" points="1653.96,1185.14 1669.61,1233.35 1685.89,1183.58 "/>
   <polygon class="fil4" points="1668.98,1184.52 1684.63,1232.72 1700.91,1182.95 "/>
   <g style="clip-path:url(#id6)">
    <g>
     <polygon id="1" class="fil29" points="1674.62,1184.2 1690.27,1232.41 1706.55,1182.64 "/>
    </g>
   </g>
   <polygon class="fil3" points="1668.98,1184.52 1684.63,1232.72 1700.91,1182.95 "/>
   <polygon class="fil4" points="1683.38,1183.26 1699.03,1231.47 1715.31,1181.7 "/>
   <g style="clip-path:url(#id7)">
    <g>
     <polygon id="1" class="fil29" points="1689.02,1182.95 1704.67,1231.16 1720.95,1181.39 "/>
    </g>
   </g>
   <polygon class="fil3" points="1683.38,1183.26 1699.03,1231.47 1715.31,1181.7 "/>
   <polygon class="fil4" points="1698.41,1182.64 1714.06,1230.84 1730.34,1181.07 "/>
   <g style="clip-path:url(#id8)">
    <g>
     <polygon id="1" class="fil29" points="1704.04,1182.33 1719.69,1230.53 1735.97,1180.76 "/>
    </g>
   </g>
   <polygon class="fil3" points="1698.41,1182.64 1714.06,1230.84 1730.34,1181.07 "/>
  </g>
  <path class="fil22" d="M1794.9 1841.03l-55.09 5.01c0,0 -35.06,5.01 -42.57,13.77 -7.51,8.77 -13.77,25.04 -13.77,25.04l35.06 10.02 85.14 -3.76c0,0 11.27,-28.8 8.76,-43.82 -2.5,-15.03 -2.5,-16.28 -2.5,-16.28l-15.02 10.02z"/>
  <path class="fil22" d="M1923.86 1831.01l-45.07 13.77c0,0 -37.56,6.26 -45.07,15.03 -7.51,8.77 -10.02,38.81 -10.02,38.81l31.3 -3.76 85.14 -3.76c0,0 11.27,-28.8 8.76,-43.82 -2.5,-15.03 -2.5,-16.28 -2.5,-16.28l-22.54 -0z"/>
  <ellipse class="fil32" cx="268.68" cy="1022.82" rx="4.38" ry="5.01"/>
  <ellipse class="fil32" cx="286.21" cy="1047.87" rx="4.38" ry="5.01"/>
  <ellipse class="fil32" cx="267.43" cy="1072.91" rx="4.38" ry="5.01"/>
  <ellipse class="fil32" cx="301.24" cy="1084.17" rx="15.34" ry="17.53"/>
  <ellipse class="fil32" cx="273.69" cy="1117.98" rx="13.15" ry="15.03"/>
 </g>
</svg>
