<?xml version="1.0" encoding="UTF-8"?>
<!DOCTYPE svg PUBLIC "-//W3C//DTD SVG 1.1//EN" "http://www.w3.org/Graphics/SVG/1.1/DTD/svg11.dtd">
<!-- Creator: CorelDRAW -->
<svg xmlns="http://www.w3.org/2000/svg" xml:space="preserve" width="269px" height="723px" version="1.1" style="shape-rendering:geometricPrecision; text-rendering:geometricPrecision; image-rendering:optimizeQuality; fill-rule:evenodd; clip-rule:evenodd"
viewBox="0 0 2.87 7.74"
 xmlns:xlink="http://www.w3.org/1999/xlink">
 <defs>
  <style type="text/css">
   <![CDATA[
    .fil6 {fill:none}
    .fil0 {fill:#232323}
    .fil5 {fill:#332D2B}
    .fil1 {fill:#53A4C7}
    .fil10 {fill:#BF4F53}
    .fil9 {fill:#CE2F13}
    .fil8 {fill:#E6232A}
    .fil4 {fill:#F2BA85}
    .fil7 {fill:#F3BB83}
    .fil3 {fill:red}
    .fil2 {fill:white}
   ]]>
  </style>
   <clipPath id="id0">
    <path d="M1.1 1.51l0.06 0.04 -0.03 0.16c0.03,0.13 0.03,0.12 0.18,0.17l-0.03 0.15 0.41 0.03c0,-0.12 0.01,-0.21 0.06,-0.27 0,0 0.13,-0.03 0.21,-0.11 0.07,-0.09 0.09,-0.22 0.1,-0.24 0.01,-0.03 0.06,-0.2 0.02,-0.31 -0.03,-0.1 -0.15,-0.16 -0.18,-0.19 -0.23,-0.07 -0.34,-0.12 -0.55,0 -0.24,0.16 -0.16,0.25 -0.25,0.57l0 0z"/>
   </clipPath>
   <clipPath id="id1">
    <path d="M1.4 0.92c0,0 0.05,-0.03 0.08,-0.04 0.02,-0.01 0.09,-0.01 0.11,-0.01 0.14,0 0.34,0.19 0.29,0.22l-0.17 0.1c-0.03,0.02 -0.01,-0.17 -0.06,-0.21 -0.1,-0.07 -0.27,-0.06 -0.25,-0.06z"/>
   </clipPath>
    <clipPath id="id2">
     <path d="M0.78 2.97l0.11 0.33 0.11 -0.34 -0.22 0.01 0 0z"/>
    </clipPath>
    <clipPath id="id3">
     <path d="M0.88 2.97l0.11 0.32 0.11 -0.33 -0.22 0.01 0 0z"/>
    </clipPath>
    <clipPath id="id4">
     <path d="M0.98 2.96l0.1 0.32 0.11 -0.33 -0.21 0.01 0 0z"/>
    </clipPath>
    <clipPath id="id5">
     <path d="M1.08 2.96l0.1 0.32 0.11 -0.33 -0.21 0.01 0 0z"/>
    </clipPath>
 </defs>
 <g id="Layer_x0020_1">
  <metadata id="CorelCorpID_0Corel-Layer"/>
  <g id="_105553604246400">
   <path class="fil0" d="M1.79 5.7c-0.05,0.04 -0.06,0.2 -0.06,0.24 0,0.18 0.02,0.38 0.04,0.56 0.02,0.17 0.04,0.35 0.07,0.52 0.01,0.08 0.03,0.25 0.02,0.33l-0.01 0.04 -0.43 0.06 -0.02 -0.04c-0.05,-0.12 -0.08,-0.28 -0.09,-0.41 -0.02,-0.18 -0.03,-0.35 -0.04,-0.53 0,-0.15 -0.01,-0.3 -0.01,-0.45 0,-0.13 0,-0.25 -0.01,-0.37l-0.02 -0.12 0.08 0.01c0.16,0.02 0.34,0.05 0.5,0.04 0.16,-0.01 0.33,-0.05 0.48,-0.08l0.01 0 0.17 0.04 -0.02 0.06c-0.09,0.27 0.02,0.67 0.09,0.93 0.04,0.14 0.09,0.29 0.13,0.43 0.03,0.13 0.07,0.26 0.09,0.38l0.01 0.09 -0.08 -0.02c-0.08,-0.01 -0.18,-0.04 -0.24,0.01 -0.03,0.02 -0.06,0.04 -0.09,0.06 -0.05,0.03 -0.1,0.05 -0.15,0.06l-0.08 0.02 0 -0.08c0.01,-0.17 0.01,-0.35 -0.01,-0.53 -0.01,-0.11 -0.03,-0.21 -0.06,-0.32 -0.03,-0.08 -0.05,-0.17 -0.07,-0.25 -0.03,-0.12 -0.04,-0.25 -0.05,-0.37 -0.01,-0.06 -0.01,-0.12 -0.01,-0.18 0,-0.03 0,-0.07 -0.02,-0.09 -0.02,-0.03 -0.08,-0.04 -0.12,-0.04l0 0z"/>
  </g>
  <path class="fil1" d="M1.3 5.6l0.01 0.04c0.02,0.44 -0.01,1.39 0.15,1.74l0.34 -0.04c0.03,-0.19 -0.28,-1.6 -0.03,-1.7 0.27,0 0.21,0.14 0.23,0.37 0.05,0.66 0.23,0.62 0.19,1.47 0.25,-0.06 0.17,-0.2 0.51,-0.13 -0.08,-0.48 -0.46,-1.3 -0.31,-1.77l-0.09 -0.02c-0.47,0.1 -0.5,0.1 -1,0.04l0 0z"/>
  <polygon class="fil2" points="1.42,1.5 1.16,0.11 1.19,0.11 1.45,1.5 "/>
  <g id="_105553604242560">
   <path class="fil0" d="M0.42 1.55c0.04,0.07 0.07,0.15 0.11,0.22 0.05,0.1 0.11,0.2 0.17,0.29 0.09,-0.01 0.18,-0.02 0.27,-0.04 0.07,-0.01 0.14,-0.02 0.21,-0.02 0.02,-0.01 0.1,-0.02 0.12,-0.01l0.09 0.05 -0.09 0.03c-0.01,0 -0.08,0.02 -0.09,0.03 0,0.01 0,0.04 0,0.04 0,0.03 0,0.06 0,0.09 0.16,-0.01 0.36,-0.01 0.5,-0.07l-0.13 -0.19 0.13 0.05c0.1,0.04 0.18,0.11 0.24,0.21 0.08,0.14 0.11,0.28 0.15,0.43l0.77 2.69 -0.52 0.24 0 0c-0.01,0 -0.02,0 -0.03,0.01l0 0 -0.01 0c-0.16,0.04 -0.33,0.07 -0.49,0.08 -0.17,0.01 -0.36,-0.02 -0.52,-0.04l-0.01 0 0 0c-0.13,-0.03 -0.31,-0.07 -0.38,-0.2 -0.04,-0.07 -0.04,-0.16 -0.04,-0.24 0,-0.13 0,-0.24 0,-0.37 -0.01,-0.19 0,-0.38 0,-0.56 -0.01,-0.1 -0.02,-0.21 -0.04,-0.31 -0.02,-0.15 -0.04,-0.3 -0.07,-0.45 -0.03,-0.16 -0.07,-0.33 -0.1,-0.49 -0.02,-0.06 -0.03,-0.13 -0.05,-0.19 -0.01,-0.03 -0.02,-0.07 -0.03,-0.09l-0.01 -0.01 0 -0.01c0,-0.04 -0.02,-0.11 -0.07,-0.13 -0.03,-0.01 -0.08,0 -0.11,0 -0.01,0.01 -0.02,0.01 -0.03,0 -0.12,0 -0.17,-0.09 -0.2,-0.19 -0.03,-0.1 -0.05,-0.21 -0.06,-0.31 -0.01,-0.17 -0.01,-0.34 -0.01,-0.51l0 -0.03 0.2 -0.06c0.04,0 0.12,-0.04 0.14,0.01 0.01,0.02 0,0.03 -0.01,0.05l0 0z"/>
  </g>
  <path class="fil3" d="M0.3 1.54l-0.17 0.04c-0.02,1.57 0.4,0.64 0.48,1.14 0.08,0.14 0.29,1.26 0.3,1.54 0,0.19 -0.01,0.38 0,0.57 0.03,0.52 -0.13,0.65 0.39,0.77 0.5,0.06 0.53,0.06 1,-0.04 0.01,0 0.02,-0.01 0.03,-0.01l0.49 -0.23 -0.76 -2.65c-0.05,-0.19 -0.1,-0.51 -0.37,-0.61l0.09 0.12c-0.16,0.08 -0.42,0.08 -0.61,0.09 0.01,-0.2 -0.04,-0.19 0.11,-0.24 -0.02,-0.01 -0.53,0.07 -0.6,0.08 -0.18,-0.26 -0.22,-0.42 -0.29,-0.55 -0.04,-0.03 0.07,-0.07 -0.09,-0.02l0 0z"/>
  <g id="_105553604566464">
   <path class="fil0" d="M2.09 1.46c0,0.01 0,0.03 -0.01,0.03 0,0.02 -0.01,0.05 -0.01,0.07 -0.02,0.05 -0.05,0.1 -0.09,0.15 -0.05,0.06 -0.13,0.09 -0.21,0.11 -0.04,0.07 -0.04,0.16 -0.04,0.23l0 0.04 -0.49 -0.03 0.03 -0.16c-0.12,-0.03 -0.14,-0.04 -0.17,-0.18l0 -0.01 0.02 -0.14 -0.07 -0.04 0.01 -0.03c0.02,-0.07 0.04,-0.15 0.05,-0.23 0.01,-0.05 0.02,-0.11 0.04,-0.16 0.04,-0.09 0.11,-0.15 0.18,-0.2l0 0c0.23,-0.13 0.35,-0.07 0.58,-0.01l0.01 0.01 0 0c0.02,0.02 0.04,0.03 0.06,0.05 0.03,0.02 0.06,0.04 0.08,0.07 0.03,0.03 0.05,0.06 0.06,0.09 0.03,0.11 0,0.22 -0.02,0.33l0 0.01 -0.01 0 0 0z"/>
  </g>
  <path class="fil4" d="M1.1 1.51l0.06 0.04 -0.03 0.16c0.03,0.13 0.03,0.12 0.18,0.17l-0.03 0.15 0.41 0.03c0,-0.12 0.01,-0.21 0.06,-0.27 0,0 0.13,-0.03 0.21,-0.11 0.07,-0.09 0.09,-0.22 0.1,-0.24 0.01,-0.03 0.06,-0.2 0.02,-0.31 -0.03,-0.1 -0.15,-0.16 -0.18,-0.19 -0.23,-0.07 -0.34,-0.12 -0.55,0 -0.24,0.16 -0.16,0.25 -0.25,0.57l0 0z"/>
  <g>
  </g>
  <g style="clip-path:url(#id0)">
   <g>
    <path id="_1" class="fil5" d="M1.19 1.1c0,0 0.22,-0.13 0.27,-0.07 0.05,0.07 0.01,0.21 0.01,0.21 0,0 0.13,-0.06 0.14,0.01 0.01,0.08 -0.01,0.17 0.01,0.19 0.03,0.02 0.03,0.02 0.03,0.02 0,0 0.21,0.06 0.26,0.07 0.05,0 0.07,-0.01 0.09,-0.03 0.16,0.03 0.2,-0.33 0,-0.53 -0.09,-0.09 -0.29,-0.12 -0.45,-0.11l-0.09 0.02 -0.18 -0.01 -0.09 0.23 0 0z"/>
   </g>
  </g>
  <path class="fil6" d="M1.1 1.51l0.06 0.04 -0.03 0.16c0.03,0.13 0.03,0.12 0.18,0.17l-0.03 0.15 0.41 0.03c0,-0.12 0.01,-0.21 0.06,-0.27 0,0 0.13,-0.03 0.21,-0.11 0.07,-0.09 0.09,-0.22 0.1,-0.24 0.01,-0.03 0.06,-0.2 0.02,-0.31 -0.03,-0.1 -0.15,-0.16 -0.18,-0.19 -0.23,-0.07 -0.34,-0.12 -0.55,0 -0.24,0.16 -0.16,0.25 -0.25,0.57l0 0z"/>
  <path class="fil7" d="M0 1.03c0.02,0.31 0.08,0.3 0.13,0.55l0.17 -0.04c0.04,-0.05 0.04,0.09 0.03,-0.11 -0.05,-0.21 -0.17,-0.47 -0.33,-0.4l0 0z"/>
  <g id="_105553604566112">
   <path class="fil0" d="M1.5 2.89c-0.2,0.03 -0.46,0.01 -0.65,-0.06 -0.05,-0.02 -0.09,-0.04 -0.14,-0.07 -0.12,-0.08 -0.24,-0.21 -0.32,-0.33 -0.08,-0.11 -0.15,-0.23 -0.22,-0.35 -0.02,-0.04 -0.09,-0.17 -0.09,-0.21 0,-0.1 0,-0.2 0,-0.3l-0.01 -0.04 0.33 -0.06 0.01 0.03c0.03,0.08 0.07,0.16 0.11,0.24 0.23,0.47 0.44,0.68 0.99,0.55 0.12,-0.02 0.25,0.01 0.31,0.12 0.05,0.09 0.05,0.19 0,0.28 -0.07,0.11 -0.19,0.17 -0.31,0.2l0 0 -0.01 0 0 0z"/>
  </g>
  <path class="fil8" d="M1.5 2.85c0,0 -0.47,0.06 -0.77,-0.13 -0.3,-0.18 -0.6,-0.79 -0.6,-0.85 0,-0.06 -0.01,-0.3 -0.01,-0.3l0.25 -0.05c0,0 0.06,0.14 0.11,0.24 0.22,0.46 0.44,0.71 1.04,0.58 0.34,-0.08 0.45,0.4 -0.02,0.51l0 0z"/>
  <path class="fil9" d="M1.69 2.06l-0.41 -0.03c-0.15,0.05 -0.1,0.04 -0.11,0.24 0.19,-0.01 0.45,-0.01 0.61,-0.09l-0.09 -0.12z"/>
  <ellipse class="fil5" transform="matrix(0.993462 0.114156 -1.30606E-001 1.13663 1.83088 1.33)" rx="0.22" ry="0.24"/>
  <ellipse class="fil8" transform="matrix(0.927394 0.106564 -1.21921E-001 1.06104 1.83922 1.34673)" rx="0.22" ry="0.24"/>
  <ellipse class="fil10" transform="matrix(0.834503 0.0958904 -1.09709E-001 0.95476 1.84343 1.353)" rx="0.22" ry="0.24"/>
  <polygon class="fil2" points="1.83,1.33 2.33,0 2.36,0.01 1.85,1.34 "/>
  <path class="fil5" d="M1.4 0.92c0,0 0.05,-0.03 0.08,-0.04 0.02,-0.01 0.09,-0.01 0.11,-0.01 0.14,0 0.34,0.19 0.29,0.22l-0.17 0.1c-0.03,0.02 -0.01,-0.17 -0.06,-0.21 -0.1,-0.07 -0.27,-0.06 -0.25,-0.06z"/>
  <g>
  </g>
  <g style="clip-path:url(#id1)">
   <g>
    <path id="_1_0" class="fil8" d="M1.44 0.9c0,0 0.08,0.01 0.14,0.02 0.05,0.02 0.09,0.04 0.11,0.06 0.01,0.03 0.04,0.16 0.04,0.16l0.09 -0.03c0.01,0 0.03,0 0.04,-0.01 0.01,-0.02 -0.02,-0.06 -0.04,-0.09 -0.09,-0.1 -0.34,-0.2 -0.36,-0.16l-0.02 0.04 0 0.01 0 0z"/>
   </g>
  </g>
  <path class="fil6" d="M1.4 0.92c0,0 0.05,-0.03 0.08,-0.04 0.02,-0.01 0.09,-0.01 0.11,-0.01 0.14,0 0.34,0.19 0.29,0.22l-0.17 0.1c-0.03,0.02 -0.01,-0.17 -0.06,-0.21 -0.1,-0.07 -0.27,-0.06 -0.25,-0.06z"/>
  <path class="fil6" d="M1.4 0.92c0,0 0.05,-0.03 0.08,-0.04 0.02,-0.01 0.09,-0.01 0.11,-0.01 0.14,0 0.34,0.19 0.29,0.22l-0.17 0.1c-0.03,0.02 -0.01,-0.17 -0.06,-0.21 -0.1,-0.07 -0.27,-0.06 -0.25,-0.06z"/>
  <ellipse class="fil5" transform="matrix(0.993462 0.114156 -1.30606E-001 1.13663 1.82667 1.33835)" rx="0.22" ry="0.24"/>
  <ellipse class="fil8" transform="matrix(0.927394 0.106564 -1.21921E-001 1.06104 1.83502 1.35509)" rx="0.22" ry="0.24"/>
  <ellipse class="fil10" transform="matrix(0.834503 0.0958904 -1.09709E-001 0.95476 1.83923 1.36136)" rx="0.22" ry="0.24"/>
  <polygon class="fil2" points="1.83,1.33 2.33,0.01 2.35,0.02 1.85,1.35 "/>
  <ellipse class="fil2" cx="1.56" cy="0.89" rx="0.03" ry="0.01"/>
  <ellipse class="fil2" cx="1.65" cy="0.92" rx="0.03" ry="0.01"/>
  <ellipse class="fil2" cx="1.74" cy="1" rx="0.03" ry="0.01"/>
  <ellipse class="fil10" transform="matrix(0.834503 0.0958904 -1.09709E-001 0.95476 1.83923 1.36136)" rx="0.22" ry="0.24"/>
  <ellipse class="fil8" transform="matrix(0.764147 0.0878059 -1.00459E-001 0.874265 1.83923 1.36136)" rx="0.22" ry="0.24"/>
  <polygon class="fil2" points="1.21,2.94 1.31,2.93 1.18,3.32 1.14,3.17 1.08,3.32 1.04,3.18 0.99,3.33 0.94,3.18 0.89,3.34 0.77,2.96 0.96,2.95 0.96,2.95 1.21,2.94 "/>
  <g id="_105553604551584">
   <polygon class="fil0" points="0.78,2.97 0.89,3.3 1,2.96 "/>
   <g>
   </g>
   <g style="clip-path:url(#id2)">
    <g>
     <polygon id="_1_1" class="fil8" points="0.82,2.97 0.93,3.29 1.03,2.96 "/>
    </g>
   </g>
   <polygon class="fil6" points="0.78,2.97 0.89,3.3 1,2.96 0.78,2.97 "/>
   <polygon class="fil6" points="0.78,2.97 0.89,3.3 1,2.96 "/>
   <polygon class="fil0" points="0.88,2.97 0.99,3.29 1.1,2.96 "/>
   <g>
   </g>
   <g style="clip-path:url(#id3)">
    <g>
     <polygon id="_1_2" class="fil8" points="0.92,2.97 1.03,3.29 1.13,2.96 "/>
    </g>
   </g>
   <polygon class="fil6" points="0.88,2.97 0.99,3.29 1.1,2.96 0.88,2.97 "/>
   <polygon class="fil6" points="0.88,2.97 0.99,3.29 1.1,2.96 "/>
   <polygon class="fil0" points="0.98,2.96 1.08,3.28 1.19,2.95 "/>
   <g>
   </g>
   <g style="clip-path:url(#id4)">
    <g>
     <polygon id="_1_3" class="fil8" points="1.02,2.96 1.12,3.28 1.23,2.95 "/>
    </g>
   </g>
   <polygon class="fil6" points="0.98,2.96 1.08,3.28 1.19,2.95 0.98,2.96 "/>
   <polygon class="fil6" points="0.98,2.96 1.08,3.28 1.19,2.95 "/>
   <polygon class="fil0" points="1.08,2.96 1.18,3.28 1.29,2.95 "/>
   <g>
   </g>
   <g style="clip-path:url(#id5)">
    <g>
     <polygon id="_1_4" class="fil8" points="1.12,2.96 1.22,3.28 1.33,2.95 "/>
    </g>
   </g>
   <polygon class="fil6" points="1.08,2.96 1.18,3.28 1.29,2.95 1.08,2.96 "/>
   <polygon class="fil6" points="1.08,2.96 1.18,3.28 1.29,2.95 "/>
  </g>
  <path class="fil5" d="M1.72 7.36l-0.36 0.03c0,0 -0.24,0.03 -0.29,0.09 -0.05,0.06 -0.09,0.17 -0.09,0.17l0.23 0.06 0.57 -0.02c0,0 0.08,-0.19 0.06,-0.29 -0.01,-0.1 -0.01,-0.11 -0.01,-0.11l-0.11 0.07 0 0z"/>
  <path class="fil5" d="M2.59 7.29l-0.31 0.09c0,0 -0.25,0.04 -0.3,0.1 -0.05,0.06 -0.06,0.26 -0.06,0.26l0.21 -0.03 0.56 -0.02c0,0 0.08,-0.19 0.06,-0.29 -0.01,-0.1 -0.01,-0.11 -0.01,-0.11l-0.15 0 0 0z"/>
 </g>
</svg>
