<svg xmlns="http://www.w3.org/2000/svg" viewBox="0 0 585.66 429.08"><defs><style>.cls-1{fill:#a6a8aa;}.cls-2{fill:#fff;}.cls-3{fill:#d0d1d3;}.cls-4{fill:#6b4e2f;}.cls-5{fill:#39281c;}.cls-6{fill:#583b1c;}.cls-7{fill:#cc2229;}.cls-8{fill:#e4e7ee;}.cls-9{fill:#fff3e6;}.cls-10{fill:#fdcfb7;}.cls-11{fill:#e8b39c;}.cls-12{fill:#333b8c;}.cls-13{fill:#272525;}.cls-14{fill:#e59089;}.cls-15{fill:#ffb8b0;}</style></defs><g id="Layer_2" data-name="Layer 2"><g id="OBJECT"><polygon class="cls-1" points="0 235.47 0 230.47 254.26 89.23 585.66 272.38 585.66 277.38 328.04 429.08 0 235.47"/><path class="cls-2" d="M254.25,84.24,0,230.47,328,424.08l257.62-151.7Z"/><polygon class="cls-3" points="571.13 272.49 328.04 415.64 14.43 230.55 70.58 198.25 142.62 156.82 254.28 92.6 571.13 272.49"/><polygon class="cls-4" points="544.75 274.06 330.38 400.29 40.58 229.24 251.81 107.75 544.75 274.06"/><polygon class="cls-5" points="85.94 256.02 252.39 157.21 253.06 107.75 40.58 229.24 85.94 256.02"/><polygon class="cls-6" points="252.39 157.21 499.47 300.72 544.75 274.06 253.06 107.75 252.39 157.21"/><path class="cls-7" d="M288.43,151.87h-4.36V111.54c0-2.23.25-21.9,9.15-25.62a5.93,5.93,0,0,1,5.68.33c5.19,3.24,6.1,14.57,6.24,16.81l-4.36.26C300.51,98.68,299,91.46,296.6,90a1.68,1.68,0,0,0-1.7,0c-4.72,2-6.47,14.3-6.47,21.6Z"/><path class="cls-7" d="M308.41,161.51h-4.36V121.18c0-2.23.26-21.9,9.15-25.62a6,6,0,0,1,5.69.33c5.18,3.24,6.1,14.57,6.23,16.81l-4.35.26c-.28-4.64-1.76-11.85-4.19-13.37a1.68,1.68,0,0,0-1.7,0c-4.71,2-6.47,14.3-6.47,21.6Z"/><rect class="cls-7" x="293.87" y="106.19" width="4.36" height="20.76" transform="translate(50.7 319.15) rotate(-61.04)"/><rect class="cls-7" x="293.87" y="122.09" width="4.36" height="20.76" transform="translate(36.8 327.35) rotate(-61.04)"/><rect class="cls-7" x="293.87" y="136.8" width="4.36" height="20.76" transform="translate(23.92 334.94) rotate(-61.04)"/><path class="cls-8" d="M190.8,252.11a5.26,5.26,0,0,1-.05.9,13.88,13.88,0,0,1-.41,2.67A14.78,14.78,0,0,1,170.55,266a14.86,14.86,0,0,1-9.48-13.85,12.52,12.52,0,0,1,.15-2v0a14.17,14.17,0,0,1,2.54-6.54,15.22,15.22,0,0,1,5.13-4.57,14.8,14.8,0,0,1,7.06-1.76c.22,0,.44,0,.66,0a14.9,14.9,0,0,1,14.19,14.83Z"/><path class="cls-7" d="M184.23,264.45A14.73,14.73,0,0,1,170.55,266c-3.49-4.52-3.45-14.36-1.32-18.51h3s-.13,6.91,3.76,11.89A14.12,14.12,0,0,0,184.23,264.45Z"/><path class="cls-7" d="M190.8,252.11a5.26,5.26,0,0,1-.05.9,13.88,13.88,0,0,1-.41,2.67c-5.21-8.23-16.93-9.87-16.93-9.87v-1.64c3.44-1.56,8.6-3.37,12.38-3.15A14.68,14.68,0,0,1,190.8,252.11Z"/><path class="cls-7" d="M176.61,237.28a9.34,9.34,0,0,0-4.84,6.7h-2.34a9.47,9.47,0,0,1-.54-5,14.8,14.8,0,0,1,7.06-1.76C176.17,237.26,176.39,237.26,176.61,237.28Z"/><path class="cls-7" d="M167.76,244.49v2.22a7.88,7.88,0,0,0-6.54,3.42,14.17,14.17,0,0,1,2.54-6.54A6.85,6.85,0,0,1,167.76,244.49Z"/><path class="cls-9" d="M174.11,245.65a3.18,3.18,0,1,1-3.18-3A3.09,3.09,0,0,1,174.11,245.65Z"/><path class="cls-6" d="M253.33,303s16.11,10.86,20.29,13.55l4.19,2.69s4.45,10.87,7.51,15.23,7,5.66,12.56,3.07,10.42-5.24,10.42-5.24,4.43,4.35,5.79,4.7,1.75,0,1.34-2.91-5.25-6.91-5.92-8-4.54,2-5.57,2.46-10.57,2.22-10.57,2.22l-5.65-15s13,4.86,15.75,5.56,14.33,6.21,19.09,7.95,13.64,5.28,14.85,5.87,5.47,5.67,7.2,5.93,1.41-5.41-1.53-8-2.41-4.69-4.11-5.45-3.07.9-4.27.18-8-5.36-13.37-7.26-37.18-17.05-39.16-17.58S253.7,298,253.7,298A4,4,0,0,0,253.33,303Z"/><path class="cls-6" d="M252.67,301.21s9.89,17.46,13,22.54a33.54,33.54,0,0,1,4.09,10.16l5.15.39s-3.47-10.26-5.64-16.15-7.16-11.55-7.16-11.55Z"/><path class="cls-6" d="M269.78,333.91a11.77,11.77,0,0,0,1.26,3.78c.84,1.14,1.4,1.4,1.62,1.29s-.78-1.36-1-1.88a19.45,19.45,0,0,1-.67-2.22,31.77,31.77,0,0,0,1.82,2.85,3.27,3.27,0,0,0,1.8,1.22c.3-.06-.69-1.3-1.15-1.84a4.93,4.93,0,0,1-.77-1.52s1,1.13,1.86,2,1.48,1.42,1.48.87-1.18-1.59-1.52-2a7,7,0,0,1-.77-1.48,8.37,8.37,0,0,0,1.73,1.51c.84.48,1.19.34.73-.24a5.6,5.6,0,0,1-1.24-1.93C274.6,333.34,270,333.27,269.78,333.91Z"/><path class="cls-10" d="M245.09,266.43a10.26,10.26,0,0,1-1.74-.13,4.29,4.29,0,0,1-1.62-.5c-.48-.32.22-.42,1.05-.33s1.78.17,1.42-.46a7.52,7.52,0,0,0-2.27-2.33c-1.28-.91-1.9-1.05-1.41-1.26s2.86,1.12,2.63.88a5.84,5.84,0,0,0-2.12-1.47c-1.07-.36.52-.59,1.27-.19a1.24,1.24,0,0,1,1-.06c.67.19,1.58,1,1.71,1s-1-.89-.59-.92.91.06,2,1.11a21.93,21.93,0,0,1,2,2.38S246.84,266.56,245.09,266.43Z"/><path class="cls-10" d="M259.51,287.55l.73-9.75-14.89-11.48,2.91-2.29s15.36,7.58,16.58,9.6S269,289.41,269,289.41s11.38,11.72,13.16,13.65-1.88,6.74-10.23,6.11S253.15,299,253.15,299Z"/><path class="cls-10" d="M259.27,290.75l-3,5.65-3.31-2.64s-1.14,2-2,2c-.75,0-7.08-3.52-9.07-7a3.75,3.75,0,0,1-.57-2.39c.66-4.22,3.9-7.25,6.66-6.32,0,0,4.15.72,6.14,3.63a13.88,13.88,0,0,1,2.32,4.84Z"/><path class="cls-6" d="M256.35,288.45a16.86,16.86,0,0,1-9.13.65,32.8,32.8,0,0,0-5.42-.41,3.75,3.75,0,0,1-.57-2.39c.66-4.22,3.9-7.25,6.66-6.32,0,0,4.15.72,6.14,3.63A13.88,13.88,0,0,1,256.35,288.45Z"/><path class="cls-6" d="M405.89,280.67s-5.4-3.52-8.58-3.08a37.88,37.88,0,0,0-4.69.87l-10.89-2.29s-2.26-2.29-5.75-5.15a32.39,32.39,0,0,0-6.29-4l-1.59.45s7.17,10.09,8.5,11.51,15.57,5.22,15.57,5.22-1.06.35-2.83.88l-14.16-2.44s-7.26-2.51-11.15-2.51A35.17,35.17,0,0,1,356,279l-1.77,3.54s16.82,6.55,30.89,8.76a130.87,130.87,0,0,0,27.78,1l-7.75-13"/><path class="cls-6" d="M355.66,282.57s-5.17-.07-7-.4-4.25-.13-4.65-.53.07-1.19,1.73-1.79a38.33,38.33,0,0,1,4.05-1.07c1.26-.33,2.19-1.59,3.85-1.59s2.86,2,3.54,2.1S355.66,282.57,355.66,282.57Z"/><path class="cls-6" d="M369.21,269.05,364,266.57c-1.52-.73-2-1.73-.53-1.59a5.13,5.13,0,0,1,2.86-.87c1.39.14,2.85,1.2,4,1.2s2.39.13,2.72.6a16.44,16.44,0,0,1,.6,3.45Z"/><path class="cls-11" d="M423.12,278.26a37.31,37.31,0,0,1,8.64,6.12c5,4.5,8.62,5.38,8.62,5.38l10.56,4.1-.81,3.27s-11.5-1.87-18.75-5.5S418.26,284,417,281,419.73,276.26,423.12,278.26Z"/><path class="cls-11" d="M450.94,293.86l5.44-.31c1.42-.09,3.67.91,4,1.87s-1.75-.46-2.29-.58a9.92,9.92,0,0,0-1.21-.19,8.23,8.23,0,0,1,2.67,1.77c.87,1-.17.92-1.13.34a8.54,8.54,0,0,0-2.08-.88,7.78,7.78,0,0,1,2.25,1.71c.5.79-.58.71-1.58,0a2.26,2.26,0,0,0-1.84-.46,8,8,0,0,1,2.13,1.21c.46.54-.71.58-1.6,0s-3.32-.42-4.11-.63a11.54,11.54,0,0,1-1.71-.63S450.32,293.9,450.94,293.86Z"/><path class="cls-10" d="M419.59,273.1s.42-3.66,3.1-4.65,6.07-.28,5.93,4.65-.57,8.47-2.54,8.89-5.08-2.4-5.08-2.4A12.52,12.52,0,0,1,419.59,273.1Z"/><path class="cls-12" d="M423,280a8.48,8.48,0,0,1,1.63,5.51c-.37,2.87-1.25,4.25-3.87,5.12s-2.88,1.38-7.38,1.38-11-6.13-12.12-8.5,2.75-3.75,7.37-4.38a43.29,43.29,0,0,0,7.75-1.71S422,278.18,423,280Z"/><path class="cls-10" d="M420.44,275.05l-2.82,4s.84,3,2.82,3.67,2.25-3.83,2.25-3.83Z"/><path class="cls-13" d="M428.62,269.08s.14-2.25-3.1-3.31-6.14.07-7.41,2.75-4.3.92-5.57,3.31.35,3.18-.85,4-2.89,0-4,2.61,2.89,6,8.11,3.57,5.5-4.13,6-5.82,1.69-5.93,3.74-6.49a2.35,2.35,0,0,1,2.85,1.09A7.19,7.19,0,0,0,428.62,269.08Z"/><path class="cls-10" d="M412.87,282.86a37.61,37.61,0,0,1,8.64,6.13c5,4.5,8.62,5.37,8.62,5.37l10.56,4.11-.81,3.27s-11.5-1.88-18.75-5.5-13.12-7.63-14.37-10.63S409.48,280.87,412.87,282.86Z"/><path class="cls-10" d="M440.69,298.47l5.44-.32c1.42-.08,3.67.92,4,1.88s-1.75-.46-2.29-.58a11.05,11.05,0,0,0-1.21-.2,8.33,8.33,0,0,1,2.67,1.78c.87,1-.17.92-1.13.33a8.75,8.75,0,0,0-2.08-.87,7.59,7.59,0,0,1,2.25,1.71c.5.79-.58.7-1.58,0a2.26,2.26,0,0,0-1.84-.46A7.68,7.68,0,0,1,447,303c.46.54-.71.58-1.6,0s-3.32-.42-4.11-.63a12.94,12.94,0,0,1-1.71-.63S440.07,298.5,440.69,298.47Z"/><path class="cls-14" d="M205.46,133c-.3-.38-2.26-2.43-3.31-3.53.23-5,1-22.26.78-23.76a26.54,26.54,0,0,1,0-5c.35-4.33,1.76-26.94,1.76-26.94.16-2.57,0-8.06,0-8.06l-6.83,9.8.29,54.69-.29.13.29.28v.08h.09c1.14,1.08,4.52,4.23,5.46,4.52,1.14.35.79-.27,1.36-.27s1.44-.4,1.44-.76S205.86,133.55,205.46,133Z"/><path class="cls-15" d="M204.69,71.82V65.76s-13,1-14.47.59c0,0-4.29,5.59-2.51,15s6.23,28.06,6.23,28.06a69.36,69.36,0,0,0,.24,18.84c-.21,2.43-.2,4.15-.2,4.51s1,1.21,2.25,2a10.12,10.12,0,0,0,4.09,1.41,5.89,5.89,0,0,0,1.85-.57.74.74,0,0,0,1.05-.64,57.11,57.11,0,0,0-5-4.93c0-5.3.45-53.07,1.29-53.6S204.69,71.82,204.69,71.82Z"/><path class="cls-14" d="M204.05,35.17a21,21,0,0,0,2.77-5.93c1-3.5,1.14-20,1.14-20l2.55-2.49s2.51,14.9,2,19.25S210.05,41.53,208,44.76,204.05,35.17,204.05,35.17Z"/><path class="cls-15" d="M196.06,33.64s-6.22,1.78-7.51,4.08c-2.21,3.94.44,11.34,1.9,16.65l-.23,12a21.79,21.79,0,0,0,10.43.64c4-.89,4-1.23,4-1.23s1.95-15.73,3.32-21c.57-2.17-.81-6-1.95-8.76l-5-2.07Z"/><path class="cls-15" d="M205,31c-.2,1-1,3.11-3,2.69a1.06,1.06,0,0,0-.38-.1v1.78a2.67,2.67,0,0,1-1.8.7c-1.39.14-3.6-1.84-3.6-1.84l.18-4.47v-.27l.28-6.51s1.88-2.09,4-2.17a5.72,5.72,0,0,1,4.58,2.53A32.59,32.59,0,0,1,205,31Z"/><path class="cls-6" d="M205.29,23.32s-4.09-.48-5.16.77-.37,5.29-1.76,6.51-2,.95-2,.95-1.25-6.47-.11-9S200.54,20,202,20.37,205.18,22.12,205.29,23.32Z"/><path class="cls-7" d="M199.39,77s-1-6.94-9.82-9.65l.65-1,.23-12S187,44,187.71,39.92s5.79-5.4,5.79-5.4a20,20,0,0,0,3.57,5.4c1.92,1.74,6.2.78,6.86-.3s-.73-4.8-.73-4.8L206.06,36s2.66,5.6,1.95,9.64-3.32,20.12-3.32,20.12v6.06S201.71,76.82,199.39,77Z"/><path class="cls-14" d="M201.63,33.57v1.35a4.08,4.08,0,0,1-3.49-3.34S200.41,33.43,201.63,33.57Z"/><path class="cls-14" d="M208,10A11.79,11.79,0,0,1,205.66,7c-.48-1.28-1.54-2.49-1-2.55s2.18,1.75,2.18,1.75-.9-4-.6-5S207,.46,207,.7a13.09,13.09,0,0,0,0,1.84s.12-2.26.78-2.5.43.75.43,1.11c0,0,.15-.93.67-.93s.32.81.32,1.08.24,1.75.24,1.75,0-1.24.33-1.39.36.57.33,1.09a13.45,13.45,0,0,0,.48,3,15,15,0,0,1,0,3.55Z"/><path class="cls-15" d="M193.15,36.1a21,21,0,0,1-2.77-5.93c-1-3.5-1.13-20-1.13-20L186.69,7.7s-2.51,14.9-2,19.25,2.5,15.51,4.53,18.74S193.15,36.1,193.15,36.1Z"/><path class="cls-15" d="M186.56,10a11.94,11.94,0,0,1-1-3.75c.06-1.37-.45-2.89.08-2.73S187,6,187,6s.71-4,1.37-4.82,1-.38.88-.15a14.38,14.38,0,0,0-.68,1.71s1-2,1.69-2,.09.85-.05,1.19c0,0,.51-.81,1-.6s0,.87-.13,1.12-.45,1.7-.45,1.7.45-1.15.84-1.15.11.67-.12,1.13a13.56,13.56,0,0,0-.7,2.93,15.14,15.14,0,0,1-1.38,3.28Z"/></g></g></svg>