<svg xmlns="http://www.w3.org/2000/svg" viewBox="0 0 1109.55 500"><defs><style>.cls-1{fill:#f5fef7;}.cls-2{fill:#d6dcdb;}.cls-3{fill:#e1edeb;}.cls-4{fill:#7195cb;}.cls-5{fill:#7f7269;}.cls-6{fill:#999;}.cls-7{fill:#71afcb;}.cls-8{fill:#85cecb;}.cls-9{fill:#d1e4e5;}.cls-10{fill:#58515c;}.cls-11{fill:#7dbdcb;}.cls-12{fill:#658fab;}.cls-13{fill:#52778c;}.cls-14{fill:#b5ecea;}.cls-15{fill:#f3f2d2;}.cls-16{fill:#edc7a1;}.cls-17{fill:#f3e2c2;}</style></defs><g id="BACKGROUND"><rect class="cls-1" x="609.55" width="500" height="500"/></g><g id="OBJECTS"><polygon class="cls-2" points="133.27 376.42 66.23 376.42 66.23 219.65 102.38 194.02 133.27 219.65 133.27 376.42"/><rect class="cls-3" x="122.54" y="333.44" width="33.02" height="42.1"/><polygon class="cls-3" points="184.26 377.9 152.61 377.9 152.61 278.82 184.26 266.7 184.26 377.9"/><path class="cls-4" d="M-540.88,313.64s-.82-12,2.57-20.19c0,0,6,17.09,4.83,20.94s-8.08,7-8.08,6.52S-540.88,313.64-540.88,313.64Z" transform="translate(609.55)"/><polygon class="cls-5" points="90.17 377.81 62.95 377.81 57.66 334.39 95.47 334.39 90.17 377.81"/><rect class="cls-6" x="53.38" y="334.39" width="46.37" height="4.65"/><path class="cls-7" d="M-550.74,285.22c-2.83,17.12,4.18,49.17,4.18,49.17h9.84C-536.58,298.5-550.74,285.22-550.74,285.22Z" transform="translate(609.55)"/><path class="cls-8" d="M-539.28,334.39h11.19c7.82-24.58,7.82-57.66,7.82-57.66C-539.28,297.49-539.28,334.39-539.28,334.39Z" transform="translate(609.55)"/><path class="cls-7" d="M-533,334.39h10.28c5.39-6.64,7-29.76,7-29.76C-529.17,314-533,334.39-533,334.39Z" transform="translate(609.55)"/><path class="cls-8" d="M-554.92,315.82s.2,10.59,5.43,18.57h5.42S-545.62,320.41-554.92,315.82Z" transform="translate(609.55)"/><path class="cls-8" d="M-526.11,334.59l8-.2c3.53-3,4.61-12.81,4.61-12.81C-520.14,325.1-526.11,334.59-526.11,334.59Z" transform="translate(609.55)"/><path class="cls-9" d="M-524.18,296.76l-.32-.38-1.86,1.53c1.32-4.68,2.24-7.3,2.26-7.36l-.47-.17c0,.09-1.91,5.47-4.2,14.67l-.76-5-.49.07.93,6.17c-1,4.18-2.11,9.1-3.16,14.61l-1-6.57-.5.07,1.2,8q-.54,2.94-1.05,6.09l.49.08c.83-5.13,1.74-9.85,2.65-14.11l3.83-5.89-.42-.27-3.12,4.79c1.27-5.8,2.52-10.65,3.55-14.35Z" transform="translate(609.55)"/><polygon class="cls-9" points="89.14 320.4 86.88 321.79 91 312.71 90.54 312.51 88.87 316.19 88.87 313.68 88.37 313.68 88.37 317.29 84.5 325.83 84.82 322.45 84.33 322.4 83.86 327.23 82.22 330.84 82.68 331.05 86.51 322.6 89.41 320.82 89.14 320.4"/><polygon class="cls-9" points="68.45 318.46 67.96 318.36 66.85 323.59 63.99 308.47 65.65 303.29 65.18 303.14 63.8 307.44 61.47 295.16 60.98 295.25 62.2 301.69 60.22 299.93 59.89 300.3 62.35 302.49 64.94 316.21 62.06 311.94 61.65 312.23 65.18 317.44 67.74 330.99 68.23 330.9 67.09 324.86 68.45 318.46"/><rect class="cls-9" x="-550.04" y="320.24" width="0.5" height="12.22" transform="translate(464.07 -168.93) rotate(-20.08)"/><rect class="cls-9" x="-523.22" y="329.42" width="9" height="0.5" transform="translate(197.03 -275.7) rotate(-47.61)"/><polygon class="cls-10" points="49.48 381.9 20.9 381.9 15.42 338.14 54.97 338.14 49.48 381.9"/><rect class="cls-5" x="10.41" y="338.14" width="49.58" height="3.86"/><path class="cls-7" d="M-584.8,293.51s.82-12.86,5.77-15.82a18.32,18.32,0,0,1,4.26-21.5s-2.12-16.89,9.58-14.25c10.72,2.41,2.47,24.43,2.47,24.43a51.85,51.85,0,0,1,.33,39.16c-8.41,21.42-16.48,24.55-16.48,24.55s-14-22.57-13.51-24.55S-584.8,293.51-584.8,293.51Z" transform="translate(609.55)"/><path class="cls-11" d="M-543.54,291.2s17.23-22.08,7.67-24.39-17.49,4.26-18.71,21.9c0,0-13.58,1.83-9.3,17.31,0,0-15.29,2-13.66,32.12h17.39s22.3-19.59,15.22-29.73C-544.93,308.41-535.07,292.51-543.54,291.2Z" transform="translate(609.55)"/><path class="cls-8" d="M-578.87,325.58C-574.59,311-582,307-582,307c4.28-17.84-6.42-15.7-6.42-15.7s-5.44-32.69-13-25.45,3.38,25.45,3.38,25.45c-16.55,16.39,1.4,28.59,1.4,28.59-5.44,14,6.75,18.28,6.75,18.28h12.37C-570.6,324.78-578.87,325.58-578.87,325.58Z" transform="translate(609.55)"/><path class="cls-12" d="M-584.55,332.68c-.34-2.58-.82-5.43-1.4-8.43h0c-.68-3.51-1.5-7.24-2.39-11h0c0-.12-.58-11.48,3.62-14.1l-.4-.64c-3.11,1.95-3.84,7.87-4,11.61-1.88-7.68-4-15.31-5.74-21.46h0c0-.07-.93-7.87,1-10.12l-.57-.49c-1.25,1.46-1.45,4.72-1.4,7.27-1.72-5.88-2.94-9.78-3-9.89l-.72.22c.06.2,3.31,10.55,6.74,23.28a8.05,8.05,0,0,0-7.84-1.57l.23.71a7.41,7.41,0,0,1,8,2.26c1.81,6.81,3.65,14.19,5.07,21-1.51-2.57-4.37-5.86-9-5.43l.07.75c6.72-.65,9.45,7.4,9.58,7.79.57,3,1,5.78,1.39,8.34Z" transform="translate(609.55)"/><path class="cls-13" d="M-548.44,296.47A13.85,13.85,0,0,0-553,299c6.21-14.47,11.32-25,11.41-25.19l-.68-.33c0,.12-2.41,5-5.86,12.6.64-3.45,1.09-8.2-1-8.77l-.2.72c1.88.5.83,7.27-.26,11.41h0c-1.47,3.28-3.07,6.95-4.74,10.88l0,0h0c-1.52,3.56-3.09,7.32-4.66,11.22.45-3.7.56-9.2-2.49-10.48l-.29.69c4,1.68,1.5,12.91,1.46,13.1-2.29,5.78-4.55,11.78-6.61,17.71l.71.25c1-2.81,2-5.63,3-8.44l.2.22c.07-.06,6.8-6,11-5.07l.16-.73c-3.85-.84-9.22,3.23-11,4.71,3-8,6.21-15.86,9.21-22.88.34-.44,3.31-3.14,6.12-3.62a3.65,3.65,0,0,1,2.87.57l.44-.61A4.6,4.6,0,0,0-548.44,296.47Z" transform="translate(609.55)"/><path class="cls-13" d="M-571.15,291.81c.43-2.84.81-5.7,1.14-8.5h0v-.05c.6-5.09,1.06-10,1.4-14.46.78-2.11,3.27-7.73,5.41-8.59l-.28-.7c-1.95.79-3.87,4.49-5,6.91.67-9.4.82-16,.83-16.19h-.75c0,.07,0,1.62-.15,4.24-.73-1.54-2-3.57-3.71-3.46l.06.75c1.63-.1,3.11,3.13,3.57,4.49-.25,5.53-.78,14.31-1.82,23.91-.56-2.45-1.87-5.62-5-6.84l-.27.7c4.6,1.77,4.93,8.49,5,9.22a205.93,205.93,0,0,1-4,23.33l.73.17c1-4.15,1.84-8.58,2.56-13.08,1.36-2.31,5.41-8,8-7.47l.16-.73C-566,284.83-569.49,289.36-571.15,291.81Z" transform="translate(609.55)"/><path class="cls-14" d="M-365.16,322.3a42.23,42.23,0,0,0-4.11,19.21l4.11,1.76C-362.69,338.65-365.16,322.3-365.16,322.3Z" transform="translate(609.55)"/><path class="cls-14" d="M-348.45,333.84s2.35-8.17,6.7-13.21c0,0-2.68,12.14-2.18,14.35S-348.45,333.84-348.45,333.84Z" transform="translate(609.55)"/><path class="cls-7" d="M-334.22,361.22V334s-3-10-10.83-4.09c0,0-6.65-5.3-12.13-1s-5.08,13.89-5.08,13.11-4.7-6.26-8.61-3.72c0,0-7.43-7-18.58.2s4.58,23.46,4.58,23.46v11.76h50.65Z" transform="translate(609.55)"/><path class="cls-14" d="M-349.48,361.7s-.53-12.34-4.11-22.54c0,0-5.3,17-3.53,24.1s5.88,2.94,5.88,2.94Z" transform="translate(609.55)"/><path class="cls-14" d="M-377.7,349.35c0-.59-5.88-14.37-19.8-22.08,0,0,11.76,18.75,11.37,30.7s10-.39,10-1.17S-377.7,349.35-377.7,349.35Z" transform="translate(609.55)"/><path class="cls-14" d="M-405.7,342.24s8.16,11.32,10.68,22.07l5.73-.94S-396.08,343.56-405.7,342.24Z" transform="translate(609.55)"/><polygon class="cls-14" points="254.78 361.89 249.88 345.03 248.11 359.4 254.78 361.89"/><path class="cls-8" d="M-340.94,355.75c-5.09,2.54-5.09,6.06-5.09,6.06s-5.48-7.43-10-1.37c0,0-13.11-20.34-23.28-14.28s-10.36,14.67-10.36,14.67-3.33-3.72-5.87.2a7.52,7.52,0,0,0,0,7.82s-6.45-2.31-6.26,4.91h67.55V361.22S-335.86,353.2-340.94,355.75Z" transform="translate(609.55)"/><rect class="cls-15" y="373.76" width="275.32" height="16.28"/><rect class="cls-16" x="12.84" y="351.02" width="251.53" height="4.51"/><rect class="cls-17" x="8.54" y="347.88" width="4.29" height="25.79"/><rect class="cls-17" x="40.52" y="347.88" width="4.29" height="25.79"/><rect class="cls-17" x="72.5" y="347.88" width="4.29" height="25.79"/><rect class="cls-17" x="104.48" y="347.88" width="4.29" height="25.79"/><rect class="cls-17" x="136.46" y="347.88" width="4.29" height="25.79"/><rect class="cls-17" x="168.43" y="347.88" width="4.29" height="25.79"/><rect class="cls-17" x="200.41" y="347.88" width="4.29" height="25.79"/><rect class="cls-17" x="232.39" y="347.88" width="4.29" height="25.79"/><rect class="cls-17" x="264.37" y="347.88" width="4.29" height="25.79"/></g></svg>