<?xml version="1.0" encoding="UTF-8"?>
<!DOCTYPE svg PUBLIC "-//W3C//DTD SVG 1.1//EN" "http://www.w3.org/Graphics/SVG/1.1/DTD/svg11.dtd">
<!-- Creator: CorelDRAW -->
<svg xmlns="http://www.w3.org/2000/svg" xml:space="preserve" width="84px" height="84px" version="1.1" style="shape-rendering:geometricPrecision; text-rendering:geometricPrecision; image-rendering:optimizeQuality; fill-rule:evenodd; clip-rule:evenodd"
viewBox="0 0 1.98 1.98"
 xmlns:xlink="http://www.w3.org/1999/xlink">
 <defs>
  <style type="text/css">
   <![CDATA[
    .fil54 {fill:none}
    .fil0 {fill:white}
    .fil53 {fill:white;fill-rule:nonzero}
    .fil22 {fill:#F9CAA0;fill-rule:nonzero}
    .fil47 {fill:#F3A28F;fill-rule:nonzero}
    .fil6 {fill:#E73429;fill-rule:nonzero}
    .fil46 {fill:#FDFCDF;fill-rule:nonzero}
    .fil52 {fill:#F5C7DC;fill-rule:nonzero}
    .fil25 {fill:#F6B31B;fill-rule:nonzero}
    .fil24 {fill:#E8619E;fill-rule:nonzero}
    .fil1 {fill:#FCF8AF;fill-rule:nonzero}
    .fil51 {fill:#FCF190;fill-rule:nonzero}
    .fil5 {fill:#FADC00;fill-rule:nonzero}
    .fil4 {fill:#E375AA;fill-rule:nonzero}
    .fil10 {fill:#D9302C;fill-rule:nonzero}
    .fil32 {fill:#D8302C;fill-rule:nonzero}
    .fil13 {fill:#D95C99;fill-rule:nonzero}
    .fil33 {fill:#D75C99;fill-rule:nonzero}
    .fil29 {fill:#E0D4CF;fill-rule:nonzero}
    .fil30 {fill:#DFCE84;fill-rule:nonzero}
    .fil8 {fill:#DFCD84;fill-rule:nonzero}
    .fil48 {fill:#D8C0DC;fill-rule:nonzero}
    .fil14 {fill:#DCB513;fill-rule:nonzero}
    .fil21 {fill:#C63B2D;fill-rule:nonzero}
    .fil34 {fill:#DAB614;fill-rule:nonzero}
    .fil41 {fill:#C2342D;fill-rule:nonzero}
    .fil49 {fill:#D2E396;fill-rule:nonzero}
    .fil20 {fill:#C45975;fill-rule:nonzero}
    .fil16 {fill:#CAAD60;fill-rule:nonzero}
    .fil44 {fill:#C49A25;fill-rule:nonzero}
    .fil42 {fill:#C6AB62;fill-rule:nonzero}
    .fil38 {fill:#C4A865;fill-rule:nonzero}
    .fil40 {fill:#C19726;fill-rule:nonzero}
    .fil28 {fill:#8D3528;fill-rule:nonzero}
    .fil50 {fill:#AFDBD2;fill-rule:nonzero}
    .fil26 {fill:#AB5EA1;fill-rule:nonzero}
    .fil23 {fill:#AEAE2A;fill-rule:nonzero}
    .fil19 {fill:#9B508F;fill-rule:nonzero}
    .fil12 {fill:#94569E;fill-rule:nonzero}
    .fil3 {fill:#8FC431;fill-rule:nonzero}
    .fil7 {fill:#9266A8;fill-rule:nonzero}
    .fil36 {fill:#92579E;fill-rule:nonzero}
    .fil39 {fill:#934794;fill-rule:nonzero}
    .fil18 {fill:#889835;fill-rule:nonzero}
    .fil11 {fill:#82AD37;fill-rule:nonzero}
    .fil35 {fill:#80AC38;fill-rule:nonzero}
    .fil27 {fill:#6C9491;fill-rule:nonzero}
    .fil45 {fill:#5E714F;fill-rule:nonzero}
    .fil17 {fill:#53825C;fill-rule:nonzero}
    .fil43 {fill:#4F7F5D;fill-rule:nonzero}
    .fil37 {fill:#4D7B61;fill-rule:nonzero}
    .fil2 {fill:#2CAD93;fill-rule:nonzero}
    .fil15 {fill:#429570;fill-rule:nonzero}
    .fil9 {fill:#3D9176;fill-rule:nonzero}
    .fil31 {fill:#389077;fill-rule:nonzero}
   ]]>
  </style>
   <clipPath id="id0">
    <path d="M1.82 0.99c0,-0.11 0.06,-0.2 0.16,-0.24 -0.03,-0.1 -0.07,-0.2 -0.12,-0.29 -0.04,0.01 -0.07,0.02 -0.11,0.02 0,0 0,0 0,0 -0.14,0 -0.25,-0.11 -0.25,-0.25 0,-0.04 0.01,-0.08 0.02,-0.11 -0.09,-0.05 -0.19,-0.1 -0.29,-0.12 -0.04,0.1 -0.14,0.16 -0.24,0.16 -0.11,0 -0.2,-0.06 -0.24,-0.16 -0.1,0.02 -0.2,0.07 -0.29,0.12 0.01,0.03 0.02,0.07 0.02,0.11 0,0.14 -0.11,0.25 -0.25,0.25 0,0 0,0 0,0 -0.01,0 -0.01,0 -0.01,0 -0.03,0 -0.07,-0.01 -0.1,-0.02 -0.05,0.09 -0.1,0.19 -0.12,0.29 0.1,0.04 0.16,0.13 0.16,0.24 0,0.11 -0.06,0.2 -0.16,0.24 0.03,0.1 0.07,0.2 0.12,0.29 0.04,-0.01 0.07,-0.02 0.11,-0.02 0.14,0 0.25,0.11 0.25,0.25 0,0.04 -0.01,0.07 -0.02,0.11 0.09,0.05 0.19,0.09 0.29,0.12 0.04,-0.1 0.13,-0.16 0.24,-0.16 0.1,0 0.2,0.06 0.24,0.16 0.1,-0.03 0.2,-0.07 0.29,-0.12 -0.01,-0.03 -0.02,-0.07 -0.02,-0.11 0,-0.14 0.11,-0.25 0.25,-0.25 0.04,0 0.07,0.01 0.11,0.02 0.05,-0.09 0.09,-0.19 0.12,-0.29 -0.1,-0.04 -0.16,-0.14 -0.16,-0.24l0 0zm-0.83 0.41c-0.22,0 -0.41,-0.18 -0.41,-0.41 0,-0.23 0.19,-0.41 0.41,-0.41 0.23,0 0.42,0.18 0.42,0.41 0,0 0,0 0,0 0,0.23 -0.19,0.41 -0.42,0.41 0,0 0,0 0,0l0 0z"/>
   </clipPath>
 </defs>
 <g id="Layer_x0020_1">
  <metadata id="CorelCorpID_0Corel-Layer"/>
  <path id="Icon_ionic-ios-settings" class="fil0" d="M1.82 0.99c0,-0.11 0.06,-0.2 0.16,-0.24 -0.03,-0.1 -0.07,-0.2 -0.12,-0.29 -0.04,0.01 -0.07,0.02 -0.11,0.02 0,0 0,0 0,0 -0.14,0 -0.25,-0.11 -0.25,-0.25 0,-0.04 0.01,-0.08 0.02,-0.11 -0.09,-0.05 -0.19,-0.1 -0.29,-0.12 -0.04,0.1 -0.14,0.16 -0.24,0.16 -0.11,0 -0.2,-0.06 -0.24,-0.16 -0.1,0.02 -0.2,0.07 -0.29,0.12 0.01,0.03 0.02,0.07 0.02,0.11 0,0.14 -0.11,0.25 -0.25,0.25 0,0 0,0 0,0 -0.01,0 -0.01,0 -0.01,0 -0.03,0 -0.07,-0.01 -0.1,-0.02 -0.05,0.09 -0.1,0.19 -0.12,0.29 0.1,0.04 0.16,0.13 0.16,0.24 0,0.11 -0.06,0.2 -0.16,0.24 0.03,0.1 0.07,0.2 0.12,0.29 0.04,-0.01 0.07,-0.02 0.11,-0.02 0.14,0 0.25,0.11 0.25,0.25 0,0.04 -0.01,0.07 -0.02,0.11 0.09,0.05 0.19,0.09 0.29,0.12 0.04,-0.1 0.13,-0.16 0.24,-0.16 0.1,0 0.2,0.06 0.24,0.16 0.1,-0.03 0.2,-0.07 0.29,-0.12 -0.01,-0.03 -0.02,-0.07 -0.02,-0.11 0,-0.14 0.11,-0.25 0.25,-0.25 0.04,0 0.07,0.01 0.11,0.02 0.05,-0.09 0.09,-0.19 0.12,-0.29 -0.1,-0.04 -0.16,-0.14 -0.16,-0.24l0 0zm-0.83 0.41c-0.22,0 -0.41,-0.18 -0.41,-0.41 0,-0.23 0.19,-0.41 0.41,-0.41 0.23,0 0.42,0.18 0.42,0.41 0,0 0,0 0,0 0,0.23 -0.19,0.41 -0.42,0.41 0,0 0,0 0,0l0 0z" data-name="Icon ionic-ios-settings"/>
  <g style="clip-path:url(#id0)">
   <g id="_105553427526208">
    <g>
     <path id="1" class="fil1" d="M2.11 1.32c0.16,-0.37 0.08,-0.77 -0.2,-1.04 -0.32,-0.32 -0.79,-0.49 -1.2,-0.44 -0.3,0.03 -0.55,0.19 -0.71,0.45 -0.15,0.25 -0.29,0.69 -0.16,1.11 0.06,0.19 0.2,0.46 0.54,0.66 0.05,0.02 0.09,0.04 0.14,0.07 0.14,0.06 0.31,0 0.37,-0.14 0.01,-0.03 0.02,-0.05 0.02,-0.07 0.07,0.02 0.15,0.03 0.23,0.03 0.42,0.01 0.81,-0.24 0.97,-0.63z"/>
     <path class="fil2" d="M0.48 2.08c0.01,0.01 0.01,0.02 0.02,0.03 0.01,0.01 0.01,0.01 0.02,0.02 0.14,0.06 0.31,0 0.37,-0.14 0.01,-0.02 0.02,-0.05 0.02,-0.07 -0.11,-0.03 -0.22,-0.09 -0.31,-0.15 0,-0.01 -0.01,-0.01 -0.01,-0.01 -0.1,0.09 -0.12,0.2 -0.11,0.32z"/>
     <path class="fil3" d="M1 0.99c-0.05,0.01 -0.1,0.02 -0.16,0.02 -0.01,0 -0.02,0 -0.02,-0.01l-0.01 0c0,0 0,0 -0.01,0 0.01,0.01 0.01,0.02 0.01,0.02 0.06,0.01 0.11,0.03 0.17,0.05 0.13,0.02 0.26,0.04 0.36,-0.05 0.15,-0.15 0.13,-0.28 0.09,-0.45 -0.05,-0.04 -0.1,-0.07 -0.15,-0.1 0.02,0.06 0.02,0.11 0.02,0.17 -0.02,0.08 -0.05,0.17 -0.11,0.23 -0.05,0.06 -0.12,0.1 -0.19,0.12z"/>
     <path class="fil4" d="M0.86 0.38c-0.13,0.01 -0.19,0.03 -0.19,0.03 0.12,0.06 0.21,0.18 0.21,0.31 0.01,0.07 -0.02,0.17 -0.09,0.28 0.05,0 0.15,-0.02 0.26,-0.18 0.18,-0.25 -0.01,-0.43 -0.03,-0.44 -0.03,0 -0.09,-0.01 -0.16,0z"/>
     <path class="fil5" d="M0.35 0.67c-0.01,0.01 -0.01,0.01 -0.02,0.01 -0.02,0.08 -0.05,0.15 -0.09,0.22 0,0.05 -0.01,0.09 -0.02,0.14 0.01,0.01 0.01,0.02 0.01,0.03 0,0.01 0,0.02 0,0.02 0.08,-0.1 0.2,-0.14 0.33,-0.13 0.09,0.02 0.16,0.06 0.21,0.12l0 -0.01c0.01,-0.03 0.02,-0.06 0.04,-0.09 -0.07,-0.18 -0.28,-0.4 -0.46,-0.31z"/>
     <path class="fil2" d="M0.78 1.17c-0.01,-0.02 -0.01,-0.03 -0.01,-0.05 -0.34,0.05 -0.42,0.35 -0.42,0.36 0,0 0.09,0.14 0.09,0.14 0.06,0.06 0.12,0.13 0.23,0.19 -0.02,-0.04 -0.04,-0.1 -0.05,-0.14 -0.05,-0.19 0.03,-0.35 0.2,-0.42 -0.02,-0.02 -0.04,-0.05 -0.04,-0.08z"/>
     <path class="fil5" d="M1.28 1.24c-0.16,0.03 -0.42,-0.02 -0.49,-0.24 -0.04,0.13 0,0.24 0.06,0.29 0.21,0.19 0.43,0.15 0.44,0.14 0.02,0 0.24,-0.06 0.34,-0.3 0.02,-0.06 0.02,-0.2 0.02,-0.2 0,-0.01 -0.03,-0.11 -0.06,-0.17 -0.01,-0.01 -0.02,-0.03 -0.02,-0.04 0.03,0.21 -0.08,0.48 -0.29,0.52z"/>
     <path class="fil6" d="M0.49 -0.08c-0.02,0 -0.03,-0.01 -0.05,-0.01 -0.07,0.03 -0.15,0.07 -0.21,0.12 0.16,0.09 0.26,0.27 0.28,0.46 0.05,-0.03 0.1,-0.06 0.16,-0.07 0.02,-0.08 0.04,-0.16 0.02,-0.23 -0.04,-0.11 -0.07,-0.25 -0.2,-0.27z"/>
     <path class="fil7" d="M1.37 -0.07c-0.13,-0.05 -0.26,-0.08 -0.4,-0.09 0.02,0.01 0.04,0.03 0.05,0.05 0.02,0.02 0.04,0.04 0.05,0.07 0.02,0.04 0.03,0.09 0.03,0.13 0.01,0.1 -0.01,0.21 -0.06,0.31 0.05,0 0.1,0.01 0.15,0.03 0.04,0.01 0.07,0.03 0.1,0.05 0.16,-0.14 0.28,-0.36 0.09,-0.53 0,-0.01 -0.01,-0.01 -0.01,-0.02z"/>
     <path class="fil3" d="M0.07 0.23c-0.01,0 -0.02,0.01 -0.04,0.01 -0.01,0.02 -0.02,0.03 -0.03,0.05 -0.04,0.06 -0.07,0.13 -0.1,0.21 0.08,-0.01 0.17,0 0.25,0.04 0.07,0.04 0.14,0.08 0.18,0.15 0.01,-0.02 0.02,-0.03 0.03,-0.04 0.01,-0.02 0.02,-0.04 0.03,-0.05 0.01,-0.01 0.02,-0.02 0.03,-0.03 -0.08,-0.14 -0.23,-0.4 -0.35,-0.34z"/>
     <path class="fil7" d="M0.2 1.09c-0.14,-0.05 -0.3,-0.07 -0.4,0.02 0,0 -0.01,0.01 -0.01,0.01 0.01,0.09 0.02,0.17 0.04,0.26 0.09,-0.07 0.2,-0.13 0.31,-0.13 0.05,0 0.09,0.01 0.13,0.01 -0.02,-0.04 -0.02,-0.09 -0.02,-0.14 -0.02,-0.01 -0.04,-0.02 -0.05,-0.03z"/>
     <path class="fil2" d="M1.57 0.74c0,0.01 0.01,0.03 0.02,0.04 0.02,0.04 0.04,0.08 0.04,0.13 0.15,0.1 0.37,0.09 0.45,-0.08 0.03,-0.05 0.05,-0.11 0.07,-0.16 -0.02,-0.09 -0.06,-0.17 -0.12,-0.25 -0.01,0.08 -0.06,0.16 -0.13,0.22 -0.1,0.08 -0.22,0.1 -0.33,0.1z"/>
     <path class="fil7" d="M1.53 1.88c0.07,-0.03 0.13,-0.06 0.19,-0.09 -0.2,-0.06 -0.38,-0.2 -0.4,-0.36 0,-0.01 0,-0.01 0,-0.02 -0.05,0.02 -0.1,0.04 -0.16,0.04 -0.06,0.22 0.15,0.36 0.37,0.43z"/>
     <path class="fil4" d="M0.38 1.54c-0.03,-0.04 -0.06,-0.11 -0.06,-0.11 -0.16,0 -0.31,0.04 -0.38,0.19l0 0c0.07,0.12 0.18,0.25 0.34,0.37 -0.01,-0.04 -0.01,-0.08 0,-0.12 0.02,-0.1 0.08,-0.19 0.16,-0.25 0,0 -0.05,-0.06 -0.06,-0.08z"/>
     <path class="fil6" d="M-0.16 0.68c-0.03,0.11 -0.05,0.22 -0.05,0.34 0.13,-0.06 0.29,-0.03 0.44,0.03 0,0 0,-0.08 0.01,-0.13 0,-0.03 0.02,-0.09 0.02,-0.09 -0.12,-0.12 -0.26,-0.2 -0.42,-0.15z"/>
     <path class="fil5" d="M0.79 -0.17c-0.02,0 -0.05,0 -0.08,0.01 -0.04,0 -0.08,0.01 -0.12,0.02 0.13,0.08 0.19,0.26 0.16,0.42 -0.01,0.05 -0.02,0.08 -0.04,0.12 0.01,0 0.11,-0.02 0.12,-0.02 0.04,-0.07 0.09,-0.14 0.11,-0.24 0.03,-0.13 -0.03,-0.24 -0.15,-0.31z"/>
     <path class="fil5" d="M0.91 1.92c0.07,0.02 0.15,0.03 0.23,0.03 0.09,0 0.18,-0.01 0.26,-0.03 -0.06,-0.03 -0.13,-0.07 -0.18,-0.12 -0.11,-0.1 -0.17,-0.24 -0.14,-0.37 0,-0.01 -0.07,-0.03 -0.11,-0.05 -0.04,-0.02 -0.08,-0.05 -0.08,-0.04 -0.09,0.09 -0.14,0.21 -0.1,0.36 0.02,0.1 0.12,0.24 0.12,0.22z"/>
     <path class="fil6" d="M1.8 1.58c0.05,0.01 0.11,0 0.16,-0.01 0.06,-0.08 0.11,-0.16 0.15,-0.25 0.01,-0.02 0.02,-0.05 0.03,-0.07 -0.19,0.08 -0.4,0.08 -0.54,-0.07 -0.03,0.04 -0.06,0.09 -0.1,0.13l0 0c0,0.13 0.18,0.26 0.3,0.27z"/>
     <path class="fil4" d="M1.35 0.52c0.03,0.01 0.05,0.03 0.08,0.05 0.02,0.02 0.05,0.05 0.06,0.08 0.06,-0.01 0.11,-0.02 0.16,-0.04 0.14,-0.08 0.25,-0.2 0.2,-0.36 0,-0.01 -0.01,-0.02 -0.01,-0.04 -0.06,-0.05 -0.13,-0.1 -0.21,-0.15 0.02,0.11 -0.01,0.21 -0.07,0.3 -0.06,0.09 -0.13,0.13 -0.21,0.16z"/>
     <path class="fil8" d="M0.48 1.96c-0.07,-0.01 -0.14,-0.04 -0.2,-0.08 0,0 0,-0.01 0,-0.01 0.01,-0.04 0.02,-0.08 0.04,-0.12 0.06,0.05 0.12,0.08 0.19,0.11 -0.02,0.03 -0.03,0.07 -0.03,0.1zm-0.49 -0.41c-0.04,-0.07 -0.08,-0.14 -0.1,-0.21 0.03,-0.02 0.05,-0.04 0.08,-0.05 0.03,0.07 0.07,0.13 0.11,0.19 -0.04,0.02 -0.07,0.04 -0.09,0.07zm-0.15 -0.46c-0.01,-0.03 -0.01,-0.06 -0.01,-0.09 0.02,-0.01 0.04,-0.01 0.05,-0.01 0.01,0.02 0.01,0.05 0.01,0.07 -0.02,0.01 -0.04,0.02 -0.05,0.03zm0.04 -0.42c0.02,-0.06 0.04,-0.12 0.07,-0.18 0,0 0,0 0.01,0 0,0 0,0 0,0 -0.02,0.06 -0.05,0.12 -0.06,0.18 -0.01,0 -0.01,0 -0.02,0z"/>
     <path class="fil9" d="M0.89 1.98c0,0 0,0 0.01,0 -0.01,0 -0.01,0 -0.01,0zm-0.3 0c-0.04,0 -0.07,-0.01 -0.11,-0.02 0,-0.03 0.01,-0.07 0.03,-0.1 0,0 0,0 0.01,0 0.03,0.01 0.06,0.02 0.1,0.02 0.04,0 0.09,-0.01 0.13,-0.02 0,0 0,0 0,0 0.02,0.01 0.05,0.02 0.07,0.03 0,0 0,0 0,0 0,0 0,0 0,0 -0.07,0.06 -0.15,0.09 -0.23,0.09z"/>
     <path class="fil8" d="M0.16 0.23c-0.02,-0.01 -0.03,-0.01 -0.05,-0.01 0,0 0,0 -0.01,0 0.04,-0.05 0.08,-0.1 0.11,-0.14 0.01,-0.01 0.03,-0.02 0.04,-0.03 0.02,0.01 0.05,0.03 0.07,0.05 -0.06,0.04 -0.11,0.08 -0.16,0.13zm0.42 -0.27c-0.03,-0.02 -0.06,-0.03 -0.09,-0.04 -0.01,0 -0.01,0 -0.02,0 0.04,-0.02 0.09,-0.03 0.13,-0.04 0,-0.01 0,-0.01 0.01,-0.01 0.02,0.02 0.04,0.04 0.06,0.06 -0.03,0.01 -0.06,0.02 -0.09,0.03z"/>
     <path class="fil10" d="M0.32 0.1c-0.02,-0.02 -0.05,-0.04 -0.07,-0.05 0.07,-0.06 0.14,-0.1 0.22,-0.13 0.01,0 0.01,0 0.02,0 0.03,0.01 0.06,0.02 0.09,0.04 -0.01,0.01 -0.02,0.01 -0.03,0.01 -0.08,0.04 -0.16,0.08 -0.23,0.13z"/>
     <path class="fil11" d="M-0.05 0.49c0.04,-0.1 0.1,-0.19 0.15,-0.27 0.01,0 0.01,0 0.01,0 0.02,0 0.03,0 0.05,0.01 -0.08,0.08 -0.15,0.17 -0.2,0.26 0,0 0,0 0,0 -0.01,0 -0.01,0 -0.01,0z"/>
     <path class="fil12" d="M-0.11 1.34c-0.03,-0.09 -0.05,-0.17 -0.05,-0.25 0.01,-0.01 0.03,-0.02 0.05,-0.03 0.02,0.08 0.05,0.16 0.08,0.23 -0.03,0.01 -0.05,0.03 -0.08,0.05z"/>
     <path class="fil8" d="M1.98 1.3c0.01,-0.03 0.03,-0.06 0.03,-0.08 0.06,-0.11 0.09,-0.22 0.09,-0.34 0,-0.02 -0.01,-0.04 -0.01,-0.06 0.01,-0.03 0.03,-0.06 0.04,-0.09 0.01,0.09 0.01,0.18 -0.01,0.28 -0.02,0.1 -0.05,0.19 -0.1,0.28 -0.01,0 -0.02,0.01 -0.04,0.01zm0.01 -0.77c-0.04,-0.06 -0.08,-0.12 -0.13,-0.17 0.01,-0.03 0,-0.07 -0.01,-0.11 0,0 0,-0.01 0,-0.01 0.07,0.06 0.13,0.13 0.18,0.2 -0.01,0.03 -0.02,0.06 -0.04,0.09zm-0.36 -0.36c-0.05,-0.04 -0.1,-0.07 -0.16,-0.1 0,0 0,-0.01 -0.01,-0.01 -0.01,-0.03 -0.03,-0.07 -0.07,-0.1 0.09,0.03 0.17,0.07 0.24,0.12 0.01,0.03 0.01,0.06 0,0.09zm-0.58 -0.25c-0.06,0 -0.11,-0.01 -0.16,-0.01 -0.02,-0.02 -0.04,-0.05 -0.07,-0.06 0.01,0 0.02,0 0.03,0 0.05,0 0.09,0 0.14,0 0.01,0.02 0.02,0.03 0.03,0.04 0.01,0.01 0.02,0.02 0.03,0.03z"/>
     <path class="fil12" d="M1.46 0.06c-0.12,-0.06 -0.27,-0.11 -0.41,-0.14 -0.01,-0.01 -0.02,-0.02 -0.03,-0.03 -0.01,-0.01 -0.02,-0.02 -0.03,-0.04 0.14,0.02 0.27,0.06 0.4,0.11 0.04,0.03 0.06,0.07 0.07,0.1z"/>
     <path class="fil9" d="M2.09 0.82c0,-0.01 0,-0.02 0,-0.03 -0.02,-0.09 -0.05,-0.18 -0.1,-0.26 0.02,-0.03 0.03,-0.06 0.04,-0.09 0.01,0.02 0.02,0.03 0.03,0.05 0.03,0.07 0.05,0.15 0.07,0.24 -0.01,0.03 -0.03,0.06 -0.04,0.09z"/>
     <path class="fil13" d="M0.28 1.88c-0.05,-0.03 -0.1,-0.07 -0.14,-0.12 -0.06,-0.07 -0.11,-0.14 -0.15,-0.21 0.02,-0.03 0.05,-0.05 0.09,-0.07 0.02,0.03 0.04,0.06 0.06,0.08 0.05,0.08 0.11,0.14 0.18,0.19 -0.02,0.04 -0.03,0.08 -0.04,0.12 0,0 0,0.01 0,0.01z"/>
     <path class="fil10" d="M-0.17 1c0,-0.11 0.02,-0.22 0.05,-0.33 0.01,0 0.01,0 0.02,0 -0.01,0.03 -0.01,0.06 -0.02,0.09 0,0.05 0,0.09 0,0.13l0 0.01c0,0.03 0,0.06 0,0.09 -0.01,0 -0.03,0 -0.05,0.01z"/>
     <path class="fil14" d="M0.67 -0.07c-0.02,-0.02 -0.04,-0.04 -0.06,-0.06 0.06,-0.01 0.14,-0.02 0.21,-0.02 0.03,0.01 0.05,0.04 0.07,0.06 -0.01,0 -0.01,0 -0.01,0 -0.07,0 -0.14,0.01 -0.21,0.02z"/>
     <path class="fil10" d="M1.82 1.56c0.07,-0.08 0.12,-0.17 0.16,-0.26 0.02,0 0.03,-0.01 0.04,-0.01 -0.05,0.1 -0.12,0.19 -0.2,0.27z"/>
     <path class="fil13" d="M1.86 0.36c-0.07,-0.07 -0.14,-0.14 -0.23,-0.19 0.01,-0.03 0.01,-0.06 0,-0.09 0.08,0.05 0.15,0.1 0.22,0.16 0,0 0,0.01 0,0.01 0.01,0.04 0.02,0.08 0.01,0.11z"/>
     <path class="fil15" d="M0.91 1.92c-0.03,-0.01 -0.05,-0.01 -0.08,-0.03 0.01,0.01 0.01,0.01 0.02,0.01 0.01,0 0.02,0.01 0.02,0.01 0.01,0 0.02,0 0.04,0.01 0,0 0,0 0,0zm-0.08 -0.03c0,0 0,0 -0.01,0 0,0 0,0 0,0 0.01,0 0.01,0 0.01,0z"/>
     <path class="fil16" d="M0.49 2.09c-0.03,-0.01 -0.05,-0.02 -0.07,-0.03 -0.05,-0.03 -0.1,-0.06 -0.14,-0.1 -0.01,-0.02 -0.01,-0.05 0,-0.08 0.06,0.04 0.13,0.07 0.2,0.08 -0.01,0.04 0,0.08 0,0.12 0,0.01 0,0.01 0.01,0.01zm-0.55 -0.49c-0.01,-0.03 -0.03,-0.06 -0.04,-0.09 -0.03,-0.05 -0.04,-0.09 -0.06,-0.14 0.02,-0.01 0.03,-0.02 0.05,-0.03 0.02,0.07 0.06,0.14 0.1,0.21 -0.02,0.01 -0.03,0.03 -0.05,0.05zm-0.14 -0.49c0,-0.03 0,-0.06 0,-0.1 0.01,0 0.02,-0.01 0.03,-0.01 0,0.03 0,0.06 0.01,0.09 -0.02,0 -0.03,0.01 -0.04,0.02 0,0 0,0 0,0zm0.05 -0.43c0.01,-0.06 0.04,-0.12 0.06,-0.18 0.01,0 0.02,-0.01 0.04,-0.01 -0.03,0.06 -0.05,0.12 -0.07,0.18 -0.01,0 -0.02,0.01 -0.03,0.01z"/>
     <path class="fil17" d="M0.65 2.13c-0.06,0 -0.11,-0.02 -0.16,-0.04 -0.01,0 -0.01,0 -0.01,-0.01 0,-0.04 -0.01,-0.08 0,-0.12 0.04,0.01 0.07,0.02 0.11,0.02 0.08,0 0.16,-0.03 0.23,-0.09 0,0 0,0 0,0 0.01,0 0.01,0 0.01,0 0,0 0,0 0,0 0.03,0.02 0.05,0.02 0.08,0.03 -0.05,0.14 -0.15,0.21 -0.26,0.21z"/>
     <path class="fil16" d="M0.07 0.23c0.04,-0.06 0.09,-0.11 0.14,-0.15 -0.03,0.04 -0.07,0.09 -0.11,0.14 -0.01,0 -0.02,0 -0.03,0.01z"/>
     <path class="fil18" d="M-0.09 0.5c0.04,-0.1 0.1,-0.19 0.16,-0.27 0.01,-0.01 0.02,-0.01 0.03,-0.01 -0.05,0.08 -0.11,0.17 -0.15,0.27 -0.02,0 -0.03,0.01 -0.04,0.01z"/>
     <path class="fil19" d="M-0.16 1.37c-0.02,-0.08 -0.03,-0.17 -0.04,-0.26 0,0 0,0 0,0 0.01,-0.01 0.02,-0.02 0.04,-0.02 0,0.08 0.02,0.16 0.05,0.25 -0.02,0.01 -0.03,0.02 -0.05,0.03z"/>
     <path class="fil20" d="M0.28 1.96c-0.16,-0.1 -0.26,-0.22 -0.34,-0.36 0.02,-0.02 0.03,-0.04 0.05,-0.05 0.04,0.07 0.09,0.14 0.15,0.21 0.04,0.05 0.09,0.09 0.14,0.12 -0.01,0.03 -0.01,0.06 0,0.08z"/>
     <path class="fil21" d="M-0.2 1.01c0,-0.11 0.02,-0.22 0.05,-0.33 0.01,0 0.02,-0.01 0.03,-0.01 -0.03,0.11 -0.05,0.22 -0.05,0.33 -0.01,0 -0.02,0.01 -0.03,0.01z"/>
     <path class="fil22" d="M1.56 0.93c-0.01,-0.09 -0.05,-0.17 -0.11,-0.25 0,-0.03 -0.01,-0.07 -0.02,-0.1 0.02,0.02 0.04,0.03 0.05,0.05 0.01,0.01 0.01,0.01 0.01,0.02 0,0 0,0 0.01,0 0.02,0.03 0.05,0.06 0.07,0.1 0.01,0.06 0,0.12 -0.01,0.18zm-0.26 -0.39c-0.09,-0.06 -0.16,-0.1 -0.24,-0.12 0,-0.01 -0.01,-0.01 -0.01,-0.02 0.07,0.01 0.15,0.04 0.22,0.07 0.01,0 0.01,0.01 0.01,0.01 0.01,0.02 0.01,0.04 0.02,0.06z"/>
     <path class="fil23" d="M1.45 0.68c-0.04,-0.05 -0.08,-0.09 -0.13,-0.13 -0.01,0 -0.02,-0.01 -0.02,-0.01 -0.01,-0.02 -0.01,-0.04 -0.02,-0.06 0.01,0 0.01,0 0.01,0 0,0 0,0 0,0 0.02,0.01 0.04,0.02 0.06,0.04 0,0 0,0 0,0 0,0 0,0 0.01,0 0,0 0.01,0.01 0.02,0.01 0.01,0.02 0.03,0.03 0.05,0.05 0.01,0.03 0.02,0.07 0.02,0.1z"/>
     <path class="fil24" d="M1.06 0.42c-0.06,-0.01 -0.11,-0.02 -0.16,-0.03 0.01,0 0.03,0 0.04,0 0.04,0 0.07,0.01 0.11,0.01 0,0.01 0.01,0.01 0.01,0.02z"/>
     <path class="fil25" d="M1.2 1.43c-0.08,0 -0.16,-0.03 -0.24,-0.06 -0.1,-0.05 -0.16,-0.13 -0.18,-0.19 -0.02,-0.07 0,-0.14 0.01,-0.17 0,0 0,0.01 0,0.01 0,0.02 0,0.03 0.01,0.04 0.03,0.19 0.22,0.26 0.39,0.27 0.01,0.01 0.02,0.01 0.03,0.01 0.09,0 0.18,-0.05 0.23,-0.12 0.04,-0.03 0.07,-0.08 0.08,-0.13 0.02,-0.05 0.03,-0.1 0.03,-0.16 0.01,-0.06 0.02,-0.12 0.01,-0.18 0.03,0.04 0.05,0.09 0.06,0.15 0,0 0,0.01 0,0.01 0,0 0,0 0,0 0.02,0.07 0.02,0.14 -0.01,0.21 -0.1,0.22 -0.25,0.31 -0.42,0.31z"/>
     <path class="fil26" d="M1.29 0.48c0,0 0,0 -0.01,0 0,0 0,-0.01 -0.01,-0.01 0.01,0 0.01,0.01 0.02,0.01 0,0 0,0 0,0z"/>
     <path class="fil27" d="M1.63 0.91c0,0 0,0 0,0 0,0 0,-0.01 0,-0.01 0,0 0,0.01 0,0.01z"/>
     <path class="fil24" d="M1.49 0.65c0,-0.01 0,-0.01 -0.01,-0.02 0.01,0.01 0.01,0.01 0.02,0.02 -0.01,0 -0.01,0 -0.01,0zm-0.13 -0.13c-0.01,0 -0.01,0 -0.01,0 0,0 0,0 0,0 0,0 0,0 0.01,0z"/>
     <path class="fil22" d="M0.86 1.31c0,0 0,0 0,0 0,0 0,0 0,0zm0 0c0,0 0,0 0,0 0,0 0,0 0,0zm0 0c0,0 0,0 0,0 0,0 0,0 0,0zm0 0c-0.02,-0.01 -0.04,-0.03 -0.05,-0.05 0,0 0,0 0,0 0.01,0.02 0.03,0.04 0.05,0.05zm-0.09 -0.19c0,-0.01 0,-0.03 0,-0.04 0,0 0,0 0,0 0,0.01 0,0.03 0,0.04 0,0 0,0 0,0z"/>
     <path class="fil25" d="M0.77 1.08c0,0 0,0 0,0 0,-0.03 0.01,-0.05 0.02,-0.08 0,0 0,0 0,0 -0.01,0.03 -0.02,0.05 -0.02,0.08z"/>
     <path class="fil27" d="M0.81 1.26c-0.03,-0.04 -0.04,-0.09 -0.04,-0.14 0,0 0,0 0,0 0,0.05 0.01,0.1 0.04,0.14 0,0 0,0 0,0z"/>
     <path class="fil25" d="M0.79 1c0,0 0,0 0,0 0,0 0,0 0,0 0,0 0,0 0,0z"/>
     <path class="fil24" d="M0.73 0.4l0 0c0.04,-0.01 0.07,-0.01 0.11,-0.01 0.01,0 0.02,0 0.04,0 -0.02,0 -0.03,0 -0.04,0 -0.04,0 -0.07,0 -0.11,0.01z"/>
     <path class="fil25" d="M0.73 0.4c0,0 0,0 0,0 0,0 0,0 0,0z"/>
     <path class="fil24" d="M0.88 0.39l0 0zm0 0c0,0 0,0 0,0 0,0 0,0 0,0zm0 0c0,0 0,0 0,0 0,0 0,0 0,0zm0 0c0,0 0,0 0,0 0,0 0,0 0,0zm0 0c0,0 0,0 0,0 0,0 0,0 0,0z"/>
     <path class="fil28" d="M0.96 1.37c-0.1,-0.05 -0.16,-0.13 -0.18,-0.19 -0.02,-0.08 0.01,-0.16 0.02,-0.18 -0.06,0.12 -0.05,0.27 0.14,0.37 0.2,0.11 0.37,0.09 0.52,-0.01 0.15,-0.11 0.22,-0.31 0.18,-0.5 -0.03,-0.12 -0.21,-0.37 -0.52,-0.46 -0.15,-0.05 -0.28,-0.02 -0.39,0 0.05,-0.01 0.11,-0.01 0.17,-0.01 0.16,-0.01 0.34,0.04 0.48,0.14 0.14,0.11 0.32,0.34 0.24,0.59 -0.15,0.34 -0.43,0.36 -0.66,0.25z"/>
     <path class="fil29" d="M1.16 1.95c-0.01,0 -0.02,0 -0.02,0 -0.08,0 -0.16,-0.01 -0.23,-0.03 0,0 0,0 0,0 0.07,0.02 0.15,0.03 0.23,0.03 0,0 0.01,0 0.02,0 0.42,0 0.79,-0.25 0.95,-0.63 0.04,-0.08 0.06,-0.16 0.07,-0.24 0.01,-0.05 0.01,-0.1 0.01,-0.15 0,-0.04 0,-0.09 -0.01,-0.13 0.03,0.17 0,0.35 -0.07,0.52 -0.16,0.38 -0.53,0.63 -0.95,0.63z"/>
     <path class="fil30" d="M1.16 1.95c-0.01,0 -0.02,0 -0.02,0 -0.08,0 -0.16,-0.01 -0.23,-0.03 0,0 0,0 0,0 0,0 0,0 0,0 0.07,0.02 0.15,0.03 0.23,0.03 0,0 0.01,0 0.02,0 0.42,0 0.79,-0.24 0.95,-0.63 0,0 0,0 0,0 0,0 0,0 0,0 0,0 0,0 0,0 0.04,-0.08 0.06,-0.16 0.07,-0.24 -0.01,0.08 -0.03,0.16 -0.07,0.24 -0.16,0.38 -0.53,0.63 -0.95,0.63zm-0.25 -0.03l0 0c0,0 0,0 0,0 0,0 0,0 0,0z"/>
     <path class="fil31" d="M0.91 1.92l0 0c0,0 0,0 0,0 0,0 0,0 0,0 0,0 0,0 0,0z"/>
     <path class="fil32" d="M2.11 1.32c0,0 0,0 0,0 0,0 0,0 0,0zm0 0c0,0 0,0 0,0 0,0 0,0 0,0z"/>
     <path class="fil30" d="M0.91 1.92c-0.01,0 -0.01,0 -0.02,-0.01 -0.1,-0.03 -0.2,-0.08 -0.27,-0.13 0.01,0.01 0.03,0.02 0.05,0.03 -0.02,-0.04 -0.04,-0.1 -0.05,-0.14 -0.01,-0.02 -0.01,-0.04 -0.02,-0.06 0.06,0.05 0.13,0.09 0.2,0.12 0.02,0.08 0.08,0.17 0.11,0.19zm0.44 -0.03c-0.04,-0.02 -0.08,-0.04 -0.11,-0.07 0.03,-0.01 0.07,-0.01 0.11,-0.02 0.03,0.02 0.06,0.04 0.1,0.05 -0.03,0.02 -0.07,0.03 -0.1,0.04zm-0.77 -0.13c-0.05,-0.04 -0.09,-0.09 -0.14,-0.14 0.04,0.05 0.09,0.09 0.15,0.14 0,0 -0.01,0 -0.01,0zm1.04 -0.01c-0.02,-0.01 -0.03,-0.01 -0.04,-0.02 0.08,-0.04 0.15,-0.09 0.21,-0.15 0.01,0 0.01,0 0.01,0 0,0 0,0 0,0 -0.01,0.02 -0.03,0.03 -0.04,0.04 -0.04,0.05 -0.09,0.09 -0.14,0.13zm-1.18 -0.13c0,-0.01 -0.03,-0.04 -0.05,-0.06 0,-0.01 0,-0.01 -0.01,-0.01 0,-0.01 0,-0.01 0,-0.01 0,0 0,0 0,0 -0.02,-0.03 -0.03,-0.06 -0.05,-0.09 0,-0.01 -0.01,-0.01 -0.01,-0.02 0,0 0,0 0,0l0 0c-0.03,-0.05 -0.05,-0.11 -0.06,-0.17 0,0 0.01,0 0.01,0 -0.02,-0.04 -0.02,-0.09 -0.02,-0.14 -0.01,0 -0.01,0 -0.02,-0.01 0,-0.01 0,-0.03 0,-0.05 0,0 0,0.01 0,0.01 0,0.01 0,0.02 0,0.02 0.03,-0.03 0.05,-0.06 0.09,-0.08 0,0.12 0.03,0.24 0.09,0.34 -0.04,0.07 -0.06,0.13 -0.06,0.13 0,0 0.08,0.12 0.09,0.14zm-0.2 -0.67c0,-0.01 0,-0.02 0,-0.03 0,0.01 0,0.02 0,0.03zm0 -0.06c0.01,-0.03 0.02,-0.06 0.02,-0.06 0,0 0,0 0,0 0.02,-0.06 0.04,-0.11 0.07,-0.15 0,0 0,0 0,0 0,0 0,0 0,0 -0.02,0.07 -0.05,0.15 -0.09,0.21zm0.1 -0.21c0,-0.01 0.01,-0.02 0.02,-0.03 0.01,-0.02 0.02,-0.04 0.03,-0.05 0.01,-0.01 0.02,-0.02 0.03,-0.03 0,0 0,-0.01 0,-0.01 0.03,-0.03 0.06,-0.06 0.09,-0.08 0,0.01 0,0.01 0,0.01 0.05,-0.03 0.1,-0.06 0.16,-0.07 0,-0.01 0,-0.01 0,-0.01 0.01,0 0.02,-0.01 0.03,-0.01 -0.02,0.01 -0.03,0.01 -0.03,0.01 0,0.01 0.01,0.01 0.02,0.01 -0.1,0.06 -0.19,0.14 -0.26,0.23 -0.02,0 -0.05,0.01 -0.08,0.02 0,0 -0.01,0.01 -0.01,0.01z"/>
     <path class="fil31" d="M0.89 1.91c0,0 -0.01,0 -0.02,0 0,0 0,0 0,0 -0.01,0 -0.01,-0.01 -0.02,-0.01 -0.01,0 -0.02,-0.01 -0.03,-0.01 0,0 0,0 0,0 -0.02,-0.01 -0.07,-0.03 -0.07,-0.03 -0.02,-0.01 -0.04,-0.02 -0.06,-0.03 -0.04,-0.02 -0.07,-0.05 -0.11,-0.07 0,0 0.01,0 0.01,0 0.01,0 0.02,0.01 0.03,0.02 0.07,0.05 0.17,0.1 0.27,0.13z"/>
     <path class="fil33" d="M0.69 0.42c-0.01,0 -0.02,0 -0.02,-0.01 0,0 0.01,0 0.03,-0.01 0,0 0.01,0 0.01,0 0,0 0,0 0,0 0,0 0.01,0 0.02,0 -0.02,0.01 -0.03,0.01 -0.04,0.02z"/>
     <path class="fil34" d="M0.23 1.09c0,0 0,-0.01 0,-0.02 0,0 0,-0.01 0,-0.01 0,-0.01 0,-0.01 0,-0.01 0,0 0,0 0,0 0,0 0,-0.05 0.01,-0.1 0,-0.01 0,-0.02 0,-0.03 0,0 0,0 0,0 0,-0.01 0,-0.02 0,-0.03 0.04,-0.06 0.07,-0.14 0.09,-0.21 0,0 0,0 0,0 0,0 0,0 0,0.01 0.01,-0.01 0.01,-0.01 0.01,-0.01 0,0 0.01,-0.01 0.01,-0.01 0.03,-0.01 0.06,-0.02 0.08,-0.02 -0.04,0.06 -0.08,0.13 -0.1,0.21 -0.01,0.05 -0.02,0.1 -0.01,0.15 -0.04,0.02 -0.06,0.05 -0.09,0.08z"/>
     <path class="fil31" d="M0.67 1.81c-0.02,-0.01 -0.04,-0.02 -0.05,-0.03 -0.01,-0.01 -0.02,-0.02 -0.03,-0.02 -0.06,-0.05 -0.11,-0.09 -0.15,-0.14 0,0 0,0 0,0 -0.01,-0.02 -0.09,-0.14 -0.09,-0.14 0,0 0.02,-0.06 0.06,-0.13 0.02,0.05 0.05,0.1 0.09,0.14 0.03,0.05 0.06,0.08 0.1,0.12 0.01,0.02 0.01,0.04 0.02,0.06 0.01,0.04 0.03,0.1 0.05,0.14z"/>
     <path class="fil32" d="M0.51 0.49c0,0 0,0 0,-0.01 0.05,-0.03 0.1,-0.05 0.16,-0.07 0,0 0,0 0,0.01 -0.06,0.01 -0.11,0.04 -0.16,0.07z"/>
     <path class="fil35" d="M0.33 0.69c0,-0.01 0,-0.01 0,-0.01 0,0 0,0 0,0 0,-0.02 0.01,-0.03 0.02,-0.04 0.02,-0.03 0.04,-0.06 0.07,-0.08 0,0 0,0.01 0,0.01 -0.01,0.01 -0.02,0.02 -0.03,0.03 -0.01,0.01 -0.02,0.03 -0.03,0.05 -0.01,0.01 -0.02,0.02 -0.02,0.03 0,0 0,0 -0.01,0.01z"/>
     <path class="fil36" d="M0.27 1.26c0,0 -0.01,0 -0.01,0 -0.02,-0.05 -0.02,-0.1 -0.03,-0.15 0.01,0.01 0.01,0.01 0.02,0.01 0,0.05 0,0.1 0.02,0.14z"/>
     <path class="fil36" d="M1.45 1.85c-0.04,-0.01 -0.07,-0.03 -0.1,-0.05 0.07,-0.01 0.14,-0.03 0.2,-0.06 0.01,0 0.02,-0.01 0.03,-0.01 0.01,0.01 0.02,0.01 0.04,0.02 -0.06,0.04 -0.11,0.07 -0.17,0.1z"/>
     <path class="fil33" d="M0.44 1.62c-0.01,-0.02 -0.03,-0.04 -0.05,-0.06 0.02,0.02 0.05,0.05 0.05,0.06 0,0 0,0 0,0zm-0.06 -0.07c0,-0.01 0,-0.01 0,-0.01 0,0 0,0 0,0 0,0 0,0 0,0.01zm-0.06 -0.12c0,0 0,0 0,0l0 0c0,0 0,0 0,0z"/>
     <path class="fil32" d="M0.23 1.05c0,0 0,0 0,0 0,-0.08 0.01,-0.15 0.03,-0.22 0,0 0,0 0,0 0,0 -0.01,0.03 -0.02,0.06 0,0.01 0,0.02 0,0.03 0,0 0,0 0,0 0,0.01 0,0.02 0,0.03 -0.01,0.05 -0.01,0.1 -0.01,0.1z"/>
     <path class="fil34" d="M0.71 0.4c0,0 0,0 0,0 0.01,0 0.01,0 0.02,0 0,0 0,0 0,0 -0.01,0 -0.02,0 -0.02,0z"/>
     <path class="fil34" d="M1.15 1.93c-0.08,0 -0.16,0 -0.24,-0.02 0,0 0,0 0,0.01 0,0 0,0 0,0 -0.03,-0.02 -0.09,-0.11 -0.11,-0.19 0.12,0.06 0.25,0.09 0.38,0.09 0.02,0 0.04,0 0.06,0 0.03,0.03 0.07,0.05 0.11,0.07 -0.05,0.02 -0.11,0.03 -0.16,0.04 -0.02,0 -0.03,0 -0.04,0z"/>
     <path class="fil32" d="M1.8 1.58c0,0 0,0 0,0 0,0 0,0 -0.01,0 0.01,0 0.02,-0.01 0.03,-0.02 -0.01,0.01 -0.01,0.02 -0.02,0.02z"/>
     <path class="fil37" d="M0.82 1.89c-0.02,-0.01 -0.05,-0.02 -0.07,-0.03 0,0 0.05,0.02 0.07,0.03z"/>
     <path class="fil38" d="M2.02 1.29c0.05,-0.09 0.08,-0.18 0.1,-0.28 0.02,-0.1 0.02,-0.19 0.01,-0.28 0,-0.01 0.01,-0.02 0.01,-0.03 0.04,0.16 0.04,0.37 -0.02,0.56 -0.03,0.01 -0.07,0.02 -0.1,0.03z"/>
     <path class="fil37" d="M2.13 0.73c-0.02,-0.09 -0.04,-0.17 -0.07,-0.24 0.03,0.06 0.06,0.13 0.08,0.19 0,0.01 0,0.01 0,0.02 0,0.01 -0.01,0.02 -0.01,0.03z"/>
     <path class="fil38" d="M1.38 1.91c-0.01,-0.01 -0.02,-0.01 -0.03,-0.02 0.03,-0.01 0.07,-0.02 0.1,-0.04 0.02,0.01 0.04,0.02 0.06,0.02 -0.04,0.02 -0.08,0.03 -0.13,0.04zm0.32 -0.13c-0.03,-0.01 -0.06,-0.02 -0.08,-0.03 0.05,-0.04 0.1,-0.08 0.14,-0.13 0.01,-0.01 0.03,-0.02 0.04,-0.04 0.01,0.01 0.02,0.01 0.04,0.01 0.03,0 0.07,-0.01 0.11,-0.02 -0.03,0.04 -0.07,0.08 -0.11,0.11 -0.04,0.04 -0.09,0.07 -0.14,0.1z"/>
     <path class="fil39" d="M1.51 1.87c-0.02,0 -0.04,-0.01 -0.06,-0.02 0.06,-0.03 0.11,-0.06 0.17,-0.1 0.02,0.01 0.05,0.02 0.08,0.03 -0.06,0.04 -0.12,0.07 -0.19,0.09z"/>
     <path class="fil40" d="M1.19 1.93c0.05,-0.01 0.11,-0.02 0.16,-0.04 0.01,0.01 0.02,0.01 0.03,0.02 -0.06,0.01 -0.13,0.02 -0.19,0.02z"/>
     <path class="fil41" d="M1.84 1.59c-0.02,0 -0.03,0 -0.04,-0.01 0.01,0 0.01,-0.01 0.02,-0.02 0.08,-0.08 0.15,-0.17 0.2,-0.27 0.03,-0.01 0.07,-0.02 0.1,-0.03 -0.03,0.11 -0.09,0.21 -0.17,0.31 -0.04,0.01 -0.08,0.02 -0.11,0.02z"/>
     <path class="fil42" d="M0.91 1.92c-0.01,0 -0.01,0 -0.02,-0.01 0.01,0.01 0.01,0.01 0.02,0.01 0,0 0,0 0,0 0,0 0,0 0,0z"/>
     <path class="fil43" d="M0.91 1.92c-0.02,-0.01 -0.03,-0.01 -0.04,-0.01 0,0 0,0 0,0 0.01,0 0.02,0 0.02,0 0.01,0.01 0.01,0.01 0.02,0.01 0,0 0,0 0,0z"/>
     <path class="fil44" d="M0.91 1.92c0,0 0,0 0,0 0,0 0,0 0,0z"/>
     <path class="fil43" d="M0.85 1.9c-0.01,0 -0.01,0 -0.02,-0.01 0,0 0,0 0,0 0,0 0,0 0,0 0,0 0,0 -0.01,0 0.01,0 0.02,0.01 0.03,0.01z"/>
     <path class="fil45" d="M0.83 1.89c0,0 0,0 0,0 0,0 0,0 0,0 0,0 0,0 0,0z"/>
     <path class="fil28" d="M0.66 0.43c0.02,-0.01 0.04,-0.02 0.06,-0.03 0,0 0,0 0.01,0 -0.16,0.03 -0.29,0.11 -0.38,0.24 -0.15,0.22 -0.16,0.53 -0.02,0.81 0.08,0.16 0.21,0.29 0.36,0.38 0.07,0.04 0.15,0.07 0.23,0.09l0 0c-0.06,-0.02 -0.18,-0.07 -0.27,-0.13 -0.2,-0.15 -0.35,-0.29 -0.4,-0.66 -0.02,-0.18 0.03,-0.37 0.13,-0.51 0.06,-0.08 0.18,-0.17 0.28,-0.19z"/>
     <path class="fil28" d="M0.42 2.06c-0.27,-0.16 -0.42,-0.33 -0.52,-0.55 -0.27,-0.59 0.03,-1.47 0.7,-1.63 0.57,-0.15 1.39,0.25 1.54,0.8 0.08,0.3 0.03,0.71 -0.3,1 -0.24,0.22 -0.61,0.3 -0.93,0.23 -0.06,0.25 -0.3,0.26 -0.49,0.15zm1.69 -0.74c0.16,-0.37 0.08,-0.77 -0.2,-1.04 -0.32,-0.32 -0.79,-0.49 -1.2,-0.44 -0.3,0.03 -0.55,0.19 -0.71,0.45 -0.15,0.25 -0.29,0.69 -0.16,1.1 0.06,0.2 0.2,0.47 0.54,0.67 0.05,0.02 0.09,0.04 0.14,0.07 0.14,0.06 0.31,0 0.37,-0.15 0.01,-0.02 0.02,-0.04 0.02,-0.06 0.07,0.02 0.15,0.03 0.23,0.03 0.42,0.01 0.81,-0.24 0.97,-0.63z"/>
     <path class="fil46" d="M1.72 0.73c-0.02,-0.04 -0.04,-0.08 -0.07,-0.12 0.08,-0.05 0.15,-0.1 0.19,-0.18 0.04,0.06 0.08,0.12 0.1,0.18 -0.02,0.01 -0.03,0.02 -0.04,0.03 -0.05,0.05 -0.11,0.07 -0.18,0.09zm-0.21 -0.31c-0.04,-0.03 -0.07,-0.05 -0.1,-0.07 0.05,-0.07 0.07,-0.15 0.07,-0.22 0.05,0.03 0.1,0.06 0.14,0.1 -0.01,0.04 -0.03,0.09 -0.06,0.13 -0.01,0.02 -0.03,0.05 -0.05,0.06zm-1.21 -0.08c-0.01,0 -0.01,0 -0.02,0 -0.02,-0.02 -0.03,-0.03 -0.04,-0.05 0,0 0,-0.01 0,-0.02 0.02,-0.06 0.06,-0.11 0.1,-0.15 0.05,0.05 0.09,0.11 0.12,0.18 -0.05,0.02 -0.11,0.04 -0.16,0.04zm0.4 -0.1c-0.01,-0.02 -0.01,-0.04 -0.01,-0.05 -0.03,-0.07 -0.05,-0.16 -0.1,-0.21 0.04,-0.01 0.07,-0.02 0.1,-0.02 0.05,0.07 0.08,0.17 0.07,0.27 -0.02,0 -0.04,0 -0.06,0.01zm0.4 -0.01c-0.02,-0.01 -0.03,-0.01 -0.04,-0.01 -0.04,0 -0.07,-0.01 -0.11,-0.01 -0.01,0 -0.02,0 -0.03,0 0.01,-0.02 0.02,-0.04 0.02,-0.07 0.02,-0.07 0,-0.14 -0.03,-0.2 0.05,0 0.11,0.01 0.16,0.02 0,0 0,0 0,0 0.02,0.04 0.03,0.09 0.03,0.13 0,0.04 0,0.09 0,0.14z"/>
     <path class="fil47" d="M0.46 0.3c-0.03,-0.07 -0.07,-0.13 -0.12,-0.18 0.07,-0.07 0.16,-0.11 0.25,-0.14 0.05,0.05 0.07,0.14 0.1,0.21 0,0.01 0,0.03 0.01,0.05 -0.05,0 -0.1,0.01 -0.14,0.02 -0.02,0.01 -0.06,0.02 -0.1,0.04z"/>
     <path class="fil48" d="M1.41 0.35c-0.11,-0.07 -0.21,-0.11 -0.31,-0.12 0,-0.05 0,-0.1 0,-0.14 0,-0.04 -0.01,-0.09 -0.03,-0.13 0,0 0,0 0,0 0.06,0.01 0.12,0.03 0.17,0.05 0.09,0.03 0.17,0.07 0.24,0.12 0,0.07 -0.02,0.15 -0.07,0.22z"/>
     <path class="fil49" d="M0.28 0.34c-0.02,0 -0.04,-0.02 -0.04,-0.05 0.01,0.02 0.02,0.03 0.04,0.05z"/>
     <path class="fil50" d="M1.86 0.81c-0.06,0 -0.1,-0.04 -0.14,-0.08 0.07,-0.02 0.13,-0.04 0.18,-0.09 0.01,-0.01 0.02,-0.02 0.04,-0.03 0.03,0.09 0.01,0.17 -0.06,0.2 -0.01,0 -0.01,0 -0.02,0z"/>
     <path class="fil51" d="M0.76 0.23c0.01,-0.1 -0.02,-0.2 -0.07,-0.27 0.06,-0.01 0.12,-0.02 0.18,-0.02 0.01,0 0.03,0 0.04,0 0.03,0.06 0.05,0.13 0.03,0.2 0,0.03 -0.01,0.05 -0.02,0.07 -0.05,0 -0.11,0.01 -0.16,0.02z"/>
     <path class="fil52" d="M1.65 0.61c-0.03,-0.06 -0.05,-0.11 -0.09,-0.15 -0.02,-0.01 -0.04,-0.02 -0.05,-0.04 0.02,-0.01 0.04,-0.04 0.05,-0.06 0.03,-0.04 0.05,-0.09 0.06,-0.13 0.09,0.06 0.16,0.13 0.22,0.2 -0.04,0.08 -0.11,0.13 -0.19,0.18z"/>
     <path class="fil46" d="M1.37 1.03c-0.02,0 -0.03,0 -0.04,-0.01 0,0 0.01,0 0.01,0 0.06,-0.06 0.09,-0.12 0.11,-0.18 0.01,0.08 0,0.15 -0.06,0.19 -0.01,0 -0.02,0 -0.02,0zm-0.14 -0.22c0,0 0,-0.01 0,-0.01 -0.04,-0.04 -0.08,-0.07 -0.12,-0.09 0.03,-0.09 0.02,-0.16 -0.01,-0.22 0.08,0.03 0.15,0.07 0.2,0.12 0,0.01 0,0.02 0,0.03 -0.01,0.06 -0.03,0.12 -0.07,0.17zm-0.58 -0.06c-0.04,-0.04 -0.09,-0.07 -0.13,-0.09 0.07,-0.08 0.17,-0.13 0.26,-0.16 0.05,0.05 0.09,0.11 0.1,0.18 -0.07,0.01 -0.16,0.04 -0.23,0.07z"/>
     <path class="fil49" d="M1.33 1.02c-0.05,-0.04 -0.06,-0.16 -0.1,-0.21 0.04,-0.05 0.06,-0.11 0.07,-0.17 0,-0.01 0,-0.02 0,-0.03 0.08,0.07 0.13,0.16 0.15,0.23 -0.02,0.06 -0.05,0.12 -0.11,0.18 0,0 -0.01,0 -0.01,0z"/>
     <path class="fil52" d="M1.11 0.71c-0.05,-0.03 -0.1,-0.04 -0.15,-0.04 -0.01,0 -0.01,0 -0.02,0 -0.02,0 -0.04,0.01 -0.06,0.01 -0.01,-0.07 -0.05,-0.13 -0.1,-0.18 0.07,-0.02 0.13,-0.03 0.18,-0.03 0.05,0 0.09,0 0.12,0.02 0.01,0 0.02,0 0.02,0 0.03,0.06 0.04,0.13 0.01,0.22z"/>
     <path class="fil51" d="M0.44 0.86c-0.02,0 -0.03,-0.01 -0.02,-0.05 0.02,-0.06 0.06,-0.1 0.1,-0.15 0.04,0.02 0.09,0.05 0.13,0.09 -0.01,0.01 -0.02,0.01 -0.03,0.02 -0.04,0.01 -0.14,0.09 -0.18,0.09z"/>
     <path class="fil53" d="M1.12 -0.02c-0.08,-0.02 -0.29,-0.03 -0.32,0.07 0.06,0.06 0.24,0.02 0.32,0.03 0.1,0.01 0.21,0.09 0.3,0.09 0.03,-0.06 -0.21,-0.19 -0.3,-0.19z"/>
     <path class="fil53" d="M1.03 0.51c-0.06,-0.01 -0.22,-0.01 -0.24,0.07 0.05,0.03 0.18,0.01 0.24,0.01 0.07,0 0.15,0.06 0.22,0.06 0.02,-0.05 -0.15,-0.14 -0.22,-0.14z"/>
     <path class="fil53" d="M0.65 0.04c-0.09,-0.02 -0.11,0.12 0,0.1 0.09,-0.02 0.06,-0.12 0,-0.1z"/>
     <path class="fil53" d="M0.62 0.62c-0.09,-0.01 -0.11,0.13 0,0.1 0.09,-0.01 0.06,-0.11 0,-0.1z"/>
     <path class="fil53" d="M1.7 0.37c0,-0.03 -0.03,-0.06 -0.06,-0.08 -0.01,-0.02 -0.08,-0.07 -0.09,-0.04 -0.02,0.04 0.05,0.09 0.07,0.11 0.02,0.01 0.08,0.05 0.08,0.01z"/>
     <path class="fil46" d="M1.18 1.69c-0.02,0 -0.03,0 -0.05,0 -0.03,-0.05 -0.05,-0.11 -0.06,-0.16 0.02,0 0.04,0 0.06,0 0.01,0 0.01,0 0.02,0 0,0.06 0.02,0.11 0.06,0.16 -0.01,0 -0.02,0 -0.03,0zm0.27 -0.04c-0.05,-0.05 -0.09,-0.1 -0.11,-0.16 0.01,-0.01 0.03,-0.01 0.04,-0.02 0.05,-0.02 0.1,-0.05 0.14,-0.08 0.03,0.05 0.08,0.1 0.14,0.14 -0.03,0.03 -0.06,0.05 -0.1,0.07 -0.04,0.02 -0.07,0.03 -0.11,0.05zm-0.68 -0.05c-0.06,-0.03 -0.12,-0.07 -0.16,-0.12 0.02,-0.05 0.04,-0.1 0.09,-0.15 0.03,0.03 0.07,0.06 0.12,0.09 -0.03,0.05 -0.05,0.11 -0.05,0.18zm1.06 -0.3c-0.06,-0.01 -0.11,-0.03 -0.16,-0.07 0.04,-0.05 0.09,-0.11 0.13,-0.11 0.01,0 0.01,0 0.01,0 0.08,0.02 0.05,0.11 0.02,0.18z"/>
     <path class="fil50" d="M0.61 1.48c-0.06,-0.06 -0.08,-0.12 -0.02,-0.19 0,0 0.01,0 0.02,0 0.02,0 0.05,0.02 0.09,0.04 -0.05,0.05 -0.07,0.1 -0.09,0.15z"/>
     <path class="fil48" d="M1.21 1.69c-0.04,-0.05 -0.06,-0.1 -0.06,-0.16 0.07,0 0.13,-0.02 0.19,-0.04 0.02,0.06 0.06,0.11 0.11,0.16 -0.08,0.02 -0.16,0.04 -0.24,0.04z"/>
     <path class="fil51" d="M1.13 1.69c-0.06,0 -0.12,-0.01 -0.18,-0.02 -0.04,-0.01 -0.1,-0.03 -0.18,-0.07 0,-0.07 0.02,-0.13 0.05,-0.18 0.05,0.03 0.09,0.06 0.14,0.08 0.04,0.01 0.07,0.02 0.11,0.03 0.01,0.05 0.03,0.11 0.06,0.16z"/>
     <path class="fil47" d="M1.66 1.53c-0.06,-0.04 -0.11,-0.09 -0.14,-0.14 0.03,-0.03 0.07,-0.06 0.1,-0.1 0.01,-0.01 0.03,-0.03 0.05,-0.06 0.05,0.04 0.1,0.06 0.16,0.07 -0.02,0.03 -0.03,0.06 -0.04,0.08 -0.04,0.05 -0.08,0.11 -0.13,0.15z"/>
     <path class="fil46" d="M0.12 1.46c-0.02,-0.06 -0.05,-0.13 -0.07,-0.2 0.03,0 0.06,-0.01 0.09,-0.01 0.01,0.04 0.06,0.12 0.08,0.19 -0.03,0 -0.07,0.01 -0.1,0.02zm-0.02 -0.4c-0.03,0 -0.07,-0.01 -0.1,-0.01 -0.01,-0.02 -0.01,-0.04 -0.01,-0.06 0.03,0 0.07,0.01 0.11,0.01 0,0.01 0,0.02 0,0.02 0,0.02 0,0.03 0,0.04zm0.04 -0.33c-0.03,-0.02 -0.07,-0.04 -0.11,-0.05 0,-0.01 0,-0.03 0,-0.04 0.02,-0.01 0.04,-0.02 0.06,-0.02 0.04,0 0.06,0.04 0.05,0.11z"/>
     <path class="fil48" d="M0.05 1.26c-0.03,-0.07 -0.04,-0.15 -0.05,-0.18 0,-0.01 0,-0.02 0,-0.03 0.03,0 0.07,0.01 0.1,0.01 0.01,0.07 0.03,0.13 0.04,0.19 -0.03,0 -0.06,0.01 -0.09,0.01z"/>
     <path class="fil52" d="M0.21 1.55c-0.03,0 -0.06,-0.04 -0.09,-0.09 0.03,-0.01 0.07,-0.02 0.1,-0.02 0.02,0.05 0.02,0.09 -0.01,0.11 0,0 0,0 0,0z"/>
     <path class="fil47" d="M0.1 1c-0.04,0 -0.08,-0.01 -0.11,-0.01 -0.01,-0.05 -0.01,-0.09 0,-0.14 0,-0.06 0.02,-0.12 0.04,-0.17 0.04,0.01 0.08,0.03 0.11,0.05 0,0.01 0,0.02 0,0.03 -0.01,0.07 -0.04,0.17 -0.04,0.24z"/>
     <path class="fil53" d="M0.07 0.72l-0.01 0c-0.03,0.05 -0.07,0.2 -0.01,0.24 0.03,-0.04 0.09,-0.23 0.02,-0.24z"/>
     <path class="fil53" d="M1.08 1.65c0.06,0.01 0.14,0.02 0.2,-0.01 0.1,-0.06 0.02,-0.1 -0.06,-0.08 -0.07,0.01 -0.15,-0.02 -0.22,-0.01 -0.13,0.02 0.03,0.09 0.08,0.1z"/>
    </g>
   </g>
  </g>
  <path class="fil54" d="M1.82 0.99c0,-0.11 0.06,-0.2 0.16,-0.24 -0.03,-0.1 -0.07,-0.2 -0.12,-0.29 -0.04,0.01 -0.07,0.02 -0.11,0.02 0,0 0,0 0,0 -0.14,0 -0.25,-0.11 -0.25,-0.25 0,-0.04 0.01,-0.08 0.02,-0.11 -0.09,-0.05 -0.19,-0.1 -0.29,-0.12 -0.04,0.1 -0.14,0.16 -0.24,0.16 -0.11,0 -0.2,-0.06 -0.24,-0.16 -0.1,0.02 -0.2,0.07 -0.29,0.12 0.01,0.03 0.02,0.07 0.02,0.11 0,0.14 -0.11,0.25 -0.25,0.25 0,0 0,0 0,0 -0.01,0 -0.01,0 -0.01,0 -0.03,0 -0.07,-0.01 -0.1,-0.02 -0.05,0.09 -0.1,0.19 -0.12,0.29 0.1,0.04 0.16,0.13 0.16,0.24 0,0.11 -0.06,0.2 -0.16,0.24 0.03,0.1 0.07,0.2 0.12,0.29 0.04,-0.01 0.07,-0.02 0.11,-0.02 0.14,0 0.25,0.11 0.25,0.25 0,0.04 -0.01,0.07 -0.02,0.11 0.09,0.05 0.19,0.09 0.29,0.12 0.04,-0.1 0.13,-0.16 0.24,-0.16 0.1,0 0.2,0.06 0.24,0.16 0.1,-0.03 0.2,-0.07 0.29,-0.12 -0.01,-0.03 -0.02,-0.07 -0.02,-0.11 0,-0.14 0.11,-0.25 0.25,-0.25 0.04,0 0.07,0.01 0.11,0.02 0.05,-0.09 0.09,-0.19 0.12,-0.29 -0.1,-0.04 -0.16,-0.14 -0.16,-0.24l0 0zm-0.83 0.41c-0.22,0 -0.41,-0.18 -0.41,-0.41 0,-0.23 0.19,-0.41 0.41,-0.41 0.23,0 0.42,0.18 0.42,0.41 0,0 0,0 0,0 0,0.23 -0.19,0.41 -0.42,0.41 0,0 0,0 0,0l0 0z"/>
 </g>
</svg>
