<?xml version="1.0" encoding="UTF-8"?>
<!DOCTYPE svg PUBLIC "-//W3C//DTD SVG 1.1//EN" "http://www.w3.org/Graphics/SVG/1.1/DTD/svg11.dtd">
<!-- Creator: CorelDRAW -->
<svg xmlns="http://www.w3.org/2000/svg" xml:space="preserve" width="148.519mm" height="142.152mm" version="1.1" style="shape-rendering:geometricPrecision; text-rendering:geometricPrecision; image-rendering:optimizeQuality; fill-rule:evenodd; clip-rule:evenodd"
viewBox="0 0 2775.86 2656.85"
 xmlns:xlink="http://www.w3.org/1999/xlink">
 <defs>
  <style type="text/css">
   <![CDATA[
    .str0 {stroke:#332D2B;stroke-width:3.74;stroke-miterlimit:22.9256}
    .fil31 {fill:white}
    .fil1 {fill:#484443}
    .fil30 {fill:#332D2B}
    .fil32 {fill:#00A3E9}
    .fil28 {fill:#050404}
    .fil5 {fill:#23C2EB}
    .fil3 {fill:#76463F}
    .fil14 {fill:#83443B}
    .fil9 {fill:#858585}
    .fil0 {fill:#966A5C}
    .fil7 {fill:#B0B5AF}
    .fil11 {fill:#B6F7FE}
    .fil26 {fill:#B7556F}
    .fil8 {fill:#BAF6FB}
    .fil6 {fill:#BB244D}
    .fil13 {fill:#C5F6F8}
    .fil23 {fill:#CB8E7C}
    .fil24 {fill:#CD917D}
    .fil25 {fill:#CE8D7D}
    .fil12 {fill:#DB3464}
    .fil20 {fill:#DB4163}
    .fil2 {fill:#DC3C64}
    .fil4 {fill:#DE3D66}
    .fil19 {fill:#E13B65}
    .fil21 {fill:#E34268}
    .fil16 {fill:#EED195}
    .fil29 {fill:#F1F1F1}
    .fil27 {fill:#F5E7E9}
    .fil10 {fill:#F6D59B}
    .fil15 {fill:#F6F5F6}
    .fil22 {fill:#FAFCFD}
    .fil17 {fill:#FCE5BC}
    .fil18 {fill:#FEE7B9}
   ]]>
  </style>
 </defs>
 <g id="Layer_x0020_1">
  <metadata id="CorelCorpID_0Corel-Layer"/>
  <rect class="fil0 str0" x="1159.64" y="854.96" width="1612.11" height="1800.02"/>
  <rect class="fil1" x="1584.35" y="2017.05" width="430.23" height="524.18"/>
  <path class="fil2" d="M1941.66 706.97l9.04 2.27 85.64 -0.65c12.68,-7.75 199.47,-19.25 282.9,-214.77 10.36,-24.28 3.94,-23.26 24.99,-36.64 47.35,-30.07 49.85,-91.21 40.62,-147.16 -7.38,-44.73 -46.14,-56.71 -54.65,-68.54 -1.48,-2.06 -42.24,-87.45 -42.67,-88.71 -5.91,-2.21 -34.82,-41.03 -56.03,-60.37 -178.83,-163.02 -455.33,-96.94 -551.75,93.5 -36.09,71.28 -7.42,39.94 -48.26,71.97 -23.6,18.51 -33.89,41.56 -33.77,84.3 0.36,121.51 29.89,92.79 55.47,124.43 12.22,15.11 53.89,197.26 288.47,240.36z"/>
  <path class="fil3" d="M1991.21 2313.93l-0.14 -77.25c53.39,4.18 57.54,72.29 0.14,77.25zm-743.73 -224.82l180.06 -1.9c5.89,7.08 5.4,5.48 4.91,25.2l-0.4 98.57c-0,44.66 0.06,89.3 0.15,133.95l95.64 0.06 -0.49 -159.83c0.82,-13.6 -3.58,-39.64 4.54,-50.53l256.06 0.99c-15.16,-9.09 -151.6,-2.59 -182.36,-4.04l-0.2 -114.46 384.42 0.92c1.55,53.77 0.1,109.77 0.11,163.8 0.01,49.85 -4.37,56.41 -4.68,80.14 -0.41,31.87 3.89,53.1 5.28,83.16 -7.09,21.6 9.32,38.84 -8.79,60.79 9.89,7.89 7.87,-9.03 8.19,12.7l0.2 117.91 388.93 -0.48c0.52,-13.84 0.41,-27.25 -0.27,-41.08 -0.3,-6.18 -1.39,-11.75 -0.36,-18.09 5.72,-35.39 14.93,27.54 14.91,-80.11l-14.33 -10.93 0.39 -220.37c15.6,-10.51 15.05,3.7 13.26,-74.7 -15.34,-11.92 -15.68,1.29 -13.94,-32.6 0.71,-13.85 1.94,-28.06 -0.78,-41.49 -94.48,-2.7 -192.25,-0.56 -286.93,-0.42 -94.67,0.15 -189.29,-1.48 -284.14,-1.56 -92.35,-0.08 -194.35,3.87 -284.03,-1.72 -91.06,-5.67 -183.74,-11.4 -275.01,-13.79l-0.33 89.92z"/>
  <path class="fil4" d="M123.92 2138.2c32.01,-78.81 137.36,-71.97 160.39,11.02 18.4,-7.67 45.38,-30.67 65.55,-29.82 1.15,17.26 -3.48,15.79 -4.99,27.68 -1.64,12.89 2.87,8.4 7.6,20.18 -18.64,33.79 0.61,13 -2.95,47.26 -22.95,0.95 -43.92,-22.25 -65.36,-29.4 -10.64,35.84 -35.81,65.16 -80.23,65.75 -53.69,0.72 -61.33,-29.27 -83.71,-58.19 -27.15,9.51 -43.57,32.49 -64.21,27.9 -3.37,-31.96 16.99,-11.02 -2.11,-46.04 7.29,-17.71 11.14,-3.83 6.71,-23.91 -1,-4.53 -3.86,-6.75 -4.33,-13.43 -2.05,-29.24 40.15,7.27 60.29,16.06l7.35 -15.08zm-123.92 381.98l61.93 0.42c2.81,3.53 1.89,1.28 4.47,7.18 0.33,0.74 1.73,5.65 2.09,6.81 -5,-69.55 21.12,-102.29 60.99,-130.69 3.73,-3.73 -0.45,-1.87 9.07,-7.51 5.38,-3.18 5.55,-2.73 10.64,-4.46 8.97,-3.04 17.16,-5.4 25.99,-6.96 61.91,-13.06 122.98,22.8 142.75,60.24 1.44,1.88 2.92,3.23 5.34,7.03 5.04,7.88 2.24,3.23 5.5,10.14 5.84,17.78 11.37,37.11 10.62,59.4 28.02,-4.07 73.77,3.75 93.55,-9.02 24.96,-16.12 19.21,-49.19 20.23,-84.88 -1.61,-21.12 0.3,-42.63 -0.29,-63.91 -0.6,-21.55 -5.37,-33.88 -4.99,-58.29l4.71 -167.57c0.62,-47.09 -1.73,-27.45 -4.39,-58.28 -2.04,-23.63 1.49,-37.29 4,-58.29 2.01,-16.79 0.38,-41.82 0.31,-59.61l-452.52 -0 0 558.25z"/>
  <polygon class="fil5" points="1206.32,947.62 2775.86,947.59 2775.86,852.55 2029.12,852.63 1956.2,852.73 1155.87,852.37 1155.04,945.98 "/>
  <path class="fil6" d="M453.04 1948.27l-453.04 1.81 0 11.83 452.52 0c0.07,17.8 1.7,42.82 -0.31,59.61 -2.51,20.99 -6.04,34.66 -4,58.29 2.66,30.84 5.01,11.19 4.39,58.28l-4.71 167.57c-0.38,24.41 4.39,36.73 4.99,58.29 0.59,21.28 -1.32,42.78 0.29,63.91l167.87 9.6 17.53 0.24c0.28,-16.37 2.65,-31.09 1.78,-44.65 -1.22,-18.9 1.72,-36.6 -0.47,-51.35l0 -404.53 -186.86 11.09z"/>
  <path class="fil7" d="M1206.61 2616.88c1.03,-0.64 3.66,-2.41 4.33,-2.68l67.61 -0.39c0.8,0.19 1.76,0.67 2.55,0.84l13.27 -0.06c5.72,-1.22 4.74,-2.73 16.89,-3.15l83.48 2.17c3.29,0.89 -6.34,3.63 18.2,2.73l109.76 -1.53c222.95,3.9 473.26,0.32 699.43,0.32 69.95,0 298.31,-3.6 348.77,0.32 -6.92,-9.4 -82.82,-2.24 -101.06,-6.33 -5.72,-12.53 -0.77,-5.53 -2.64,-17.82 -1.85,-12.17 -4.7,-2.36 -2.5,-14.19 -29.89,-3.46 -34.48,-0.75 -69.63,-1.25l-1.46 -22.65c-17.11,-2.06 -13.57,-0.35 -15.95,-10.75 -129.55,0 -259.11,0 -388.67,0l-190.44 -2.22c-52.3,6.83 -37.14,-5.86 -75.49,0.48 -24.87,4.11 -95.38,5.74 -117.35,-1.7 -24.48,-9.27 -181.79,6.32 -222.42,6.61l76.26 1.34 -0.98 52.09 -109.15 -0.16 0.27 -46.16 -7.64 -2.31 2.16 50.32 -112.91 0 0 -47.34c0.88,-0.81 2.16,-1.67 2.8,-2.25l4.7 -4.16c5.14,-5.57 3.42,5.29 3.29,-8.18l-36.3 0 -0.13 -54.61 36.54 0c0.11,-11.59 1.1,-0.26 -1.76,-3.15l-3.3 -52.85c10.03,-9.22 1.36,6.02 5.08,-5.96l-36.83 -0.05 3.38 -16.07c0.15,50.75 6.06,167.37 -2.17,210.76z"/>
  <path class="fil8" d="M2508.59 1646.2c-26.31,23.59 -44.29,19.73 -65.48,-3.9 -19.05,5.85 -16.59,17.44 -42.58,17.08 -33.65,-0.47 -11.63,-15.54 -39.52,-16.23 -10.65,17.13 -16.25,15.85 -40.51,19.46 -15.63,5.52 -6.22,79.5 -6.76,96.65 -0.9,28.59 -4.17,80.62 3.11,98.17 38.92,4.09 293.29,5.63 323.7,-0.82 1.44,-24.24 2.69,-182.22 -3.95,-194.11 -26.08,-3.99 -42.11,-5.46 -44.95,-29.54l-4.46 1.05c-8.48,17.36 -10.21,24.84 -33.35,25.39 -28.77,0.69 -25.67,-9.15 -45.25,-13.21z"/>
  <path class="fil9" d="M1206.61 2616.88l-55 -1.05 -0.43 39.57 1624.68 0 0 -43.73c-18.15,0 -40.5,-1.2 -58.1,-0.11 -24.38,1.5 2.63,7.67 -31.96,1.18 -30.46,-5.72 -111.48,3.13 -114.88,2.7 -50.46,-3.92 -278.82,-0.32 -348.77,-0.32 -226.16,0 -476.48,3.58 -699.43,-0.32l-109.76 1.53c-24.54,0.9 -14.91,-1.84 -18.2,-2.73l-83.48 -2.17c-12.16,0.42 -11.18,1.93 -16.89,3.15l-13.27 0.06c-0.8,-0.17 -1.75,-0.64 -2.55,-0.84l-67.61 0.39c-0.67,0.27 -3.3,2.03 -4.33,2.68z"/>
  <path class="fil10" d="M755.82 2341.79c55.16,-1.16 110.47,-0.16 165.82,-0.26 27.93,-0.05 55.86,-0.12 83.79,0.04 24.97,0.14 63.46,1.65 85.87,-0.63l1.18 -206.31 -336.96 1.81 0.3 205.35z"/>
  <path class="fil3" d="M1342.05 2550.42c3.31,-2.89 -3.07,-0.72 6.68,-2.84 1.93,-0.42 7.51,-1.08 9.47,-1.24 8.03,-0.63 17.03,-0.63 25.1,-0.73 40.62,-0.29 197.94,-15.87 222.42,-6.61l0.21 -3.09 1.65 -130.67c-11.26,-5.3 -322.23,-5.53 -360.36,-2.01l0.49 148.66 94.35 -1.47z"/>
  <path class="fil10" d="M1191.23 2340.83l238.07 0.74 -1.76 -254.38 -180.06 1.9c-16.11,-1.36 -8.64,-5.62 -25.3,-3.5 -8.61,1.1 -21.02,2.95 -27.07,5.27 -10.57,61.76 -2.76,178.82 -3.89,249.97z"/>
  <path class="fil11" d="M2327.77 1381.3c44.05,3.94 276.25,5.61 313.1,-1.43l-0.5 -191.54c-3.01,-0.16 -13.82,-0.46 -14.08,-0.51 -4.36,-0.84 -6.95,1.04 -14.17,-6.33 -11.64,-2.75 -9.62,-5.05 -18.57,-10.06 -12.84,3.89 -14.87,14.57 -32.8,18.21 -17.63,3.58 -24.99,-4.45 -43.54,-2.32l-18.72 21.66c-0.52,0.56 -1.23,1.36 -1.75,1.9l-132.35 130.34c-0.54,0.56 -1.27,1.35 -1.8,1.9l-13.56 14.38c-4.06,4.59 -2.96,3.9 -6.66,7.79 -16.13,16.93 -12.5,4.99 -14.61,16.01z"/>
  <path class="fil11" d="M1564.86 1184.49c-14.94,0.54 -15.96,4.79 -27.65,13.96l-175.12 177.25c-8.9,11.6 2.18,-13.68 -3.32,5.74l310.9 0.34 0.59 -190.81c-1.27,-0.49 -2.84,-1.69 -3.4,-0.78l-9.49 -2.22c-27.2,-8.48 19.89,9.43 -6.36,-2.05 -11.58,-5.06 0.91,5.12 -8.66,-5.44l-13.45 -4.6c-3.91,-1.62 -8.26,-3.27 -11.47,-5.3 -12.67,5.44 -12.86,10.67 -24.05,13.77 -11.16,3.09 -21.46,0.11 -28.52,0.14z"/>
  <path class="fil11" d="M1843.27 1858.32l310.98 0.25 0.19 -195.43c-5.86,0.27 -13.84,1.33 -18.77,0.34 -5.32,-1.07 -2.57,2.59 -12.81,-7.18l-3.37 2.63 -20.01 -6.14c-0.85,-1.82 -2.41,-1.57 -3.71,-2.17 -18.7,31.2 -42.15,2.69 -60.2,14.15l-64.4 62.71c-13.88,15.1 -11.46,5.92 -28.92,28.43 -11.31,14.57 -13.67,12.34 -23.32,20.86 -0.53,0.47 -1.31,1.2 -1.82,1.68l-6.87 7.53c-0.5,0.54 -1.24,1.34 -1.73,1.88l-65.24 70.45z"/>
  <path class="fil11" d="M1606.48 1656.06c-0.92,1.28 -2.04,1.78 -2.45,4.04l-4.84 8.08c-60.31,0 -37.59,-18.19 -58.79,5.78l-152.93 150.12c-5.18,5.05 -20.45,18.28 -21.43,34.55l303.9 -0.07 -6.21 -192.54c-0.89,-0.28 -5.16,-1.45 -6.34,-1.87 -1.05,-0.37 -2.04,-0.53 -3.09,-0.94 -15.44,-6.06 -1.04,5.44 -10.58,-5.93 -11.56,-1.16 -15.7,-7.96 -21.47,-14.63 -10.11,2.38 -11.27,0.94 -15.77,13.41z"/>
  <path class="fil11" d="M1843.27 1381.16l310.71 0.7 -6.09 -192.53 -18.26 -6.48c-16.39,-3.99 -8.72,-7.9 -20.23,-10.12 -27.74,0.79 0.67,12.83 -32.28,17.99 -17.05,2.67 -33.21,-1.5 -44.39,-7.06 -1.97,3.57 -1.55,3.4 -3.65,6.67 -0.34,0.53 -0.97,1.5 -1.35,2.05 -0.4,0.58 -1.04,1.53 -1.48,2.12l-81.82 83.57c-2.3,1.93 -3.19,2.31 -5.47,4.75l-89.49 89.21c-11.72,12.01 -1.98,-4.92 -6.19,9.12z"/>
  <path class="fil12" d="M-0 1950.09l453.04 -1.81c-0.62,-46.59 3.47,-87.82 -44.83,-91.53 -40.48,-3.11 -93.21,-0.36 -135,-0.36 -91.07,0 -182.14,0 -273.21,0l0 93.71z"/>
  <path class="fil10" d="M1735.84 2278.38c4.97,-3.97 0.97,-8.89 18.72,-4.31 4.91,1.27 12.21,6.74 14.63,10.99 33.52,58.79 -93.46,41.37 -33.36,-6.68zm52.84 62.93l-0.72 -205.69 -256.06 -0.99 -0.11 207.1 256.89 -0.42z"/>
  <path class="fil13" d="M1878.43 1643.23c-5,13.22 -3.72,12.98 -17.89,17.43 -14.15,4.45 -18.18,3.54 -31.95,0.4l-0.91 43.57 1.57 152.22 14.01 1.47 65.24 -70.45c0.5,-0.54 1.23,-1.34 1.73,-1.88l6.87 -7.53c0.51,-0.49 1.29,-1.22 1.82,-1.68 9.65,-8.52 12.01,-6.29 23.32,-20.86 17.46,-22.5 15.03,-13.32 28.92,-28.43l64.4 -62.71c18.04,-11.46 41.49,17.05 60.2,-14.15 1.3,0.6 2.86,0.35 3.71,2.17l20.01 6.14 -13.32 -17.26 -11.28 -2.26c-11.45,42.94 -53.24,5.61 -69.45,4.25 -23.6,25.17 -63.47,24.19 -68.54,-11.05l-2.94 0.88c-11.74,11.98 -9.07,23.53 -34.16,25.55 -13.16,1.06 -16.64,0.15 -24.74,-5.97 -9.84,-7.44 -2.5,-11.15 -16.62,-9.84z"/>
  <path class="fil13" d="M1855.34 1182.58l-25.41 5.04c-3.25,55.32 0.39,58.11 -0.87,94.42 -0.61,17.74 1.1,33.9 0.36,51.23l0.06 46.59 13.8 1.31c4.2,-14.03 -5.53,2.89 6.19,-9.12l89.49 -89.21c2.28,-2.44 3.17,-2.82 5.47,-4.75l81.82 -83.57c0.44,-0.6 1.08,-1.54 1.48,-2.12 0.38,-0.55 1.01,-1.52 1.35,-2.05 2.1,-3.27 1.68,-3.1 3.65,-6.67 11.18,5.56 27.34,9.73 44.39,7.06 32.95,-5.16 4.53,-17.2 32.28,-17.99l-3.51 -7.84c-20.85,-1.17 -4.23,19.17 -40.47,17.42 -32.53,-1.58 -6.96,-11.69 -40.21,-15.46 -9.03,9.61 -14.76,19.39 -36.14,17.88 -19.8,-1.4 -23.05,-11.11 -31.7,-20.5 -22.49,4.33 -1.02,18.44 -55.78,17.26 -5.7,-7.32 -4.51,-18.67 -22.95,-17.18 -9.43,9.17 -6.21,14.41 -23.28,18.26z"/>
  <path class="fil13" d="M2339.48 1182.84c-0.85,0.59 -2.27,0.16 -2.79,1.37 -0.52,1.21 -2.11,1.03 -2.85,1.24l-19.44 2.43 -0.02 191.68 13.38 1.74c2.11,-11.02 -1.52,0.92 14.61,-16.01 3.71,-3.89 2.6,-3.2 6.66,-7.79l13.56 -14.38c0.53,-0.56 1.26,-1.34 1.8,-1.9l132.35 -130.34c0.52,-0.54 1.23,-1.35 1.75,-1.9l18.72 -21.66c18.55,-2.14 25.9,5.89 43.54,2.32 17.93,-3.64 19.96,-14.32 32.8,-18.21l-3.04 -6.95c-21.01,0.61 -9.66,18.69 -40.46,17.71 -8.51,-0.27 -15.37,-3.54 -23.11,-7.96 -16.1,-9.19 -1.77,-5.81 -16.82,-8.35 -18.49,27.37 -44.05,24.51 -65.41,2.95 -20.06,-1.27 -40.7,31.34 -66.6,4.77l-7.02 -8.25c-16.59,-18.71 0.58,14.47 -3.7,-4.03 -0.28,-1.23 -1.38,-1.24 -1.88,-2.02l-2.33 0c-2.91,14.2 -9.53,20.59 -23.71,23.55z"/>
  <path class="fil13" d="M1377.59 1654.87c-9.13,14.77 -16.95,7.91 -32.05,9.67l-2.1 192.92 22.61 1.16c0.98,-16.27 16.25,-29.5 21.43,-34.55l152.93 -150.12c21.19,-23.97 -1.52,-5.78 58.79,-5.78l4.84 -8.08c0.41,-2.26 1.53,-2.76 2.45,-4.04 -33.91,4.65 -43.48,8.07 -56.29,-15.38l-9.33 2.87c-21.11,21.54 -48.07,27.54 -66.07,-1.1 -19.78,1 -7.57,1.91 -25.23,11.2 -13.6,7.15 -16.42,4.62 -33.93,4.58 -5.72,-9.46 -10.81,-15.16 -21,-19.53 -10.37,9.34 -1.01,12.54 -17.04,16.17z"/>
  <path class="fil13" d="M1390.51 1166.46c-4.38,10.29 -7.95,13.61 -20.74,15.72l-24.71 5.05 -1.85 189.54c5.15,4.82 7.52,3.83 15.56,4.69 5.5,-19.42 -5.58,5.86 3.32,-5.74l175.12 -177.25c11.69,-9.17 12.71,-13.42 27.65,-13.96 -0.76,-0.8 -1.74,-1.79 -2.3,-2.39 -18.79,-20.1 -9.03,-15.02 -21.93,-14.32 -27.86,24.59 -44.97,25.86 -68.34,-3.95 -18.52,0.86 -2.24,2.19 -20.52,14.33 -9.38,6.22 -17.35,5.29 -31.05,5.59 -10.37,-10.04 -13.69,-13.6 -22.32,-26.28 -6.34,18.59 1.59,1.18 -7.89,9z"/>
  <polygon class="fil14" points="1324.82,1430.04 1689.32,1430.01 1689.9,1382.08 1324.33,1382.66 "/>
  <path class="fil14" d="M2660.25 1429.49l0.11 -46.48 -366.24 0.35c-0.09,21.01 3.63,27.11 15.11,37.37 15.12,13.51 19.38,8.76 44.06,9.04 72.42,0.81 252.32,3.1 306.96,-0.27z"/>
  <path class="fil14" d="M1810.14 1906.46c102.7,0.41 257.94,2.73 364.93,-0.4l0.17 -45.05 -366.06 -0.55 0.96 45.99z"/>
  <path class="fil14" d="M1810.03 1429.95l208.44 -0.64c12.91,-2.78 28.74,-22.14 37.06,-32.3 -7.34,2.06 -23.55,17.93 -29.13,32.95l149.05 -0.06 -0.16 -45.65 -366 -0.8 0.74 46.5z"/>
  <path class="fil14" d="M1325.11 1906.4l226.98 -1.1c39.73,-0.12 98.2,5.19 138.25,0.04l-0.54 -45.09 -365.51 0.03 0.82 46.12z"/>
  <path class="fil14" d="M2294.44 1906.29c10.43,0.29 27.53,-0.67 34.17,-1.03l331.32 1.13 0.09 -46.23 -365.79 0.15 0.21 45.99z"/>
  <path class="fil15" d="M182.13 2096.4c44.79,-12.9 83.91,17.1 92.16,51.62 10.48,43.86 -17.24,80.86 -50.37,89.97 -96.55,26.53 -136.21,-114.4 -41.79,-141.6zm-65.56 56.87c-20.14,-8.79 -62.34,-45.31 -60.29,-16.06 0.47,6.67 3.33,8.9 4.33,13.43 4.43,20.07 0.58,6.2 -6.71,23.91 19.1,35.02 -1.26,14.08 2.11,46.04 20.64,4.58 37.06,-18.39 64.21,-27.9 22.37,28.92 30.01,58.9 83.71,58.19 44.43,-0.59 69.6,-29.91 80.23,-65.75 21.44,7.15 42.41,30.35 65.36,29.4 3.56,-34.26 -15.69,-13.46 2.95,-47.26 -4.73,-11.78 -9.24,-7.29 -7.6,-20.18 1.51,-11.89 6.15,-10.42 4.99,-27.68 -20.17,-0.86 -47.15,22.15 -65.55,29.82 -23.02,-82.99 -128.38,-89.83 -160.39,-11.02l-7.35 15.08z"/>
  <path class="fil16" d="M1956.2 852.73l72.92 -0.1c8.25,-32.4 1.98,-104.3 7.22,-144.05l-85.64 0.65c-1.43,26.85 2.51,44.83 4.28,70.09 1.76,25.14 -1.8,48.4 1.22,73.4z"/>
  <path class="fil17" d="M1542.64 1076.21c3.47,22.12 2.93,71.71 -2.01,91.57 12.9,-0.71 3.14,-5.78 21.93,14.32 0.56,0.6 1.54,1.59 2.3,2.39 7.06,-0.02 17.36,2.95 28.52,-0.14 11.2,-3.1 11.39,-8.33 24.05,-13.77 3.21,2.03 7.56,3.67 11.47,5.3l-6.76 -13.92c-14.47,-18.2 -0.24,-65.87 -8.35,-90.02 -22.38,-0.75 -55.76,-3.8 -71.15,4.27z"/>
  <path class="fil17" d="M2365.53 1159.29c0.49,0.78 1.59,0.78 1.88,2.02 4.28,18.5 -12.89,-14.69 3.7,4.03l7.02 8.25c25.9,26.58 46.54,-6.03 66.6,-4.77l-0.67 -10.63c-8.16,-8.85 -4.96,0.03 -6.27,-17.99l0.64 -68.22 -72.42 -0.43 -0.48 87.74z"/>
  <path class="fil17" d="M2025.19 1166.85c33.25,3.77 7.68,13.88 40.21,15.46 36.23,1.76 19.61,-18.58 40.47,-17.42l-0.35 -8.1 -2.54 -6.35c-3.86,-15.57 -2.6,-63.47 -0.84,-78.28 -23.75,-0.98 -52.23,-4.12 -74.32,3.14 2.9,23.07 3.41,71.73 -2.63,91.56z"/>
  <path class="fil17" d="M2512.31 1630.03l-3.72 16.18c19.58,4.06 16.47,13.89 45.25,13.21 23.14,-0.56 24.87,-8.03 33.35,-25.39l-0.29 -81.96c-20.82,-6.58 -48.74,-3.43 -71.53,-2.99 0.38,18.88 4.71,68.92 -3.06,80.95z"/>
  <path class="fil17" d="M1540.86 1643.55l9.33 -2.87c12.8,23.44 22.38,20.02 56.29,15.38 4.51,-12.47 5.66,-11.03 15.77,-13.41l-1.67 -7.26c-1.44,-2.64 -2.53,-4.08 -3.83,-10.66 -3.36,-17.11 2.3,-45.06 -2.26,-72.4 -0.14,-0.86 -0.38,-2.18 -0.71,-3.22 -22.86,-0.36 -49.06,-3.5 -70.35,3.29 2.69,27.54 3.04,66.17 -2.57,91.17z"/>
  <path class="fil18" d="M1394.15 1631.87l0.49 6.83c10.19,4.37 15.29,10.07 21,19.53 17.51,0.04 20.33,2.58 33.93,-4.58 17.66,-9.29 5.45,-10.2 25.23,-11.2 -9.57,-20.28 -5.79,-63.61 -4.69,-90.34 -22.33,-5.76 -48.62,-3.35 -72.21,-2.71l-3.74 82.46z"/>
  <path class="fil17" d="M2363.7 1632.42l-2.69 10.73c27.88,0.69 5.87,15.76 39.52,16.23 25.99,0.36 23.53,-11.23 42.58,-17.08l-0.26 -8.32c-12.42,-12.76 -4.98,-63.9 -4.56,-84.75l-71.4 -0.31c0.2,13.22 2.85,72.35 -3.18,83.51z"/>
  <path class="fil18" d="M1398.4 1157.46c8.63,12.69 11.95,16.24 22.32,26.28 13.7,-0.3 21.67,0.63 31.05,-5.59 18.29,-12.13 2,-13.47 20.52,-14.33 -4.52,-24.76 -3.98,-62.21 -2.18,-88.8 -22.3,-6.22 -48.91,-3.32 -72.59,-2.99l0.88 85.42z"/>
  <path class="fil18" d="M2027.06 1630.36l-1.62 13.31c16.21,1.36 58,38.68 69.45,-4.25l11.28 2.26 -0.57 -7.52c-7.72,-14.13 -4.87,-69.26 -3.88,-84.89l-71.26 -0.37c0.33,13.51 4.11,70.98 -3.4,81.48z"/>
  <path class="fil4" d="M1474.8 1642.45c18,28.64 44.96,22.64 66.07,1.1 5.61,-25 5.26,-63.63 2.57,-91.17 -17.7,5.62 -56.73,6.43 -73.34,-0.27 -1.1,26.72 -4.87,70.06 4.69,90.34z"/>
  <path class="fil4" d="M1472.29 1163.83c23.37,29.81 40.48,28.54 68.34,3.95 4.94,-19.86 5.48,-69.45 2.01,-91.57 -15.77,6.49 -58.2,4.66 -72.53,-1.18 -1.8,26.59 -2.34,64.04 2.18,88.8z"/>
  <path class="fil17" d="M1878.82 1636.38l-0.39 6.85c14.13,-1.31 6.78,2.4 16.62,9.84 8.1,6.12 11.57,7.03 24.74,5.97 25.09,-2.02 22.42,-13.57 34.16,-25.55l-0.54 -84.1c-23.55,-1.05 -59.18,3.85 -71.07,-0.49 0.68,18.33 2.73,73.43 -3.52,87.48z"/>
  <path class="fil18" d="M1879.04 1154.84l-0.42 9.47c18.44,-1.49 17.25,9.86 22.95,17.18 54.76,1.18 33.29,-12.93 55.78,-17.26l-0.91 -13.21c-8.25,-16.91 -3.69,-57.2 -2.22,-79.16l-72.39 -0.2c1.43,15.85 5.38,69.55 -2.8,83.18z"/>
  <path class="fil18" d="M2512.22 1153.19l-2.09 12.68c15.05,2.55 0.72,-0.84 16.82,8.35 7.74,4.42 14.6,7.69 23.11,7.96 30.8,0.97 19.45,-17.1 40.46,-17.71l-0.63 -6.74c-8.57,-16.16 -5.3,-68.71 -3.4,-85.59l-70.83 -0.16c-0.02,21.15 6.72,66.96 -3.44,81.21z"/>
  <path class="fil4" d="M2589.88 1157.73l0.63 6.74 3.04 6.95c8.95,5.01 6.94,7.32 18.57,10.06 26.01,1.71 44.88,-3.7 49.92,-24.15 2.22,-8.99 1.36,-66.79 0.9,-79.57l-73.11 -0.62 0.05 80.59z"/>
  <path class="fil19" d="M1369.77 1182.18c12.78,-2.1 16.36,-5.43 20.74,-15.72 5.91,-27.48 4.54,-59.19 3.15,-88.05l-72.02 -1.16c-1.67,61.65 -14.55,106.42 48.14,104.93z"/>
  <path class="fil4" d="M1855.34 1182.58c17.07,-3.85 13.86,-9.1 23.28,-18.26l0.42 -9.47 -0.1 -76.78 -72.56 -0.82c-0.28,16.05 -1.55,64.49 0.4,77.22 3.42,22.32 22.82,27.78 48.56,28.11z"/>
  <path class="fil19" d="M1377.59 1654.87c16.03,-3.63 6.68,-6.84 17.04,-16.17l-0.49 -6.83 0.02 -76.8 -72.94 -1.29c0.44,51.01 -14.21,122.34 56.36,101.08z"/>
  <path class="fil4" d="M2320.51 1662.61c24.25,-3.61 29.86,-2.33 40.51,-19.46l2.69 -10.73 -0.53 -77.11 -72.29 -1.53c0.07,22.68 0.84,45.36 1.49,67.39 0.5,17.11 -0.14,21.13 16.24,33.36l11.9 8.09z"/>
  <path class="fil4" d="M2105.6 1634.15l0.57 7.52 13.32 17.26 3.37 -2.63c11.73,2.06 24.31,4.69 35.58,-0.64 1.86,-0.88 2.83,-1.71 4.47,-2.93l5.48 -5.41c5.98,-6.99 5.87,-5.49 7.98,-15.52 2.5,-11.86 0.74,-62.92 0.18,-77.79l-71.05 -0.19 0.1 80.32z"/>
  <path class="fil4" d="M2105.52 1156.79l0.35 8.1 3.51 7.84c11.51,2.22 3.84,6.13 20.23,10.12 28.11,-0.46 31.89,-5.24 47.7,-21.03l0.46 -83.26 -72.11 -1.42 -0.16 79.65z"/>
  <path class="fil4" d="M1956.45 1151.02l0.91 13.21c8.65,9.39 11.91,19.1 31.7,20.5 21.37,1.51 27.11,-8.26 36.14,-17.88 6.04,-19.82 5.53,-68.49 2.63,-91.56 -19.11,6.41 -46.54,2.73 -67.98,2.73l-3.39 73z"/>
  <path class="fil20" d="M2339.48 1182.84c14.18,-2.96 20.81,-9.35 23.71,-23.55l-0.21 -80.67 -72.06 -1.77 3.29 92.3c24.87,11.43 8.76,13.06 45.27,13.69z"/>
  <path class="fil19" d="M1620.59 1635.38l1.67 7.26c5.77,6.67 9.91,13.47 21.47,14.63l22.39 0c12.95,-3.29 3.32,0.8 10.87,-5.5 16.55,-16.66 15.31,-9.24 14.98,-41.8 -0.19,-18.75 0.56,-37.09 0.38,-55.92l-71.99 -0.14 0.23 81.48z"/>
  <path class="fil4" d="M1622.14 1161.97l6.76 13.92 13.45 4.6c23.86,4.32 45.5,-2.29 48.8,-23.87 2.32,-15.12 2.85,-61.78 2.19,-78.17l-72.08 -1.01 0.87 84.53z"/>
  <path class="fil4" d="M2444.05 1158.18l0.67 10.63c21.36,21.56 46.92,24.42 65.41,-2.95l2.09 -12.68 -1.11 -75.17 -66.75 0.01c-5.11,14.68 -2.98,62.7 -0.31,80.16z"/>
  <path class="fil21" d="M2442.85 1633.98l0.26 8.32c21.19,23.64 39.17,27.49 65.48,3.9l3.72 -16.18 -0.85 -74.78 -67.19 -0.21c-5.21,15.06 -2.73,60.8 -1.43,78.94z"/>
  <path class="fil19" d="M1956.89 1632.62c5.07,35.24 44.94,36.22 68.54,11.05l1.62 -13.31 -1.01 -75.13 -66.21 -0.21 -2.94 77.59z"/>
  <path class="fil22" d="M188.79 2125.73c-54.91,17.03 -29.47,100.63 27.9,83.01 48.18,-14.79 32.16,-101.64 -27.9,-83.01z"/>
  <path class="fil23" d="M1383.3 2545.62c-8.07,0.1 -17.08,0.1 -25.1,0.73 -1.96,0.15 -7.54,0.82 -9.47,1.24 -9.74,2.12 -3.37,-0.05 -6.68,2.84l7.64 2.31 -0.27 46.16 109.15 0.16 0.98 -52.09 -76.26 -1.34z"/>
  <path class="fil4" d="M2591.65 1632.97c2.84,24.08 18.87,25.55 44.95,29.54 0.76,-0.75 1.91,-2.92 2.3,-2.21 0.38,0.69 1.73,-1.69 2.25,-2.15l13.24 -9.06c16.76,-30.46 0.57,-37.09 -14.4,-52.63 -24.75,-25.7 -14.24,-21.41 -50.03,-13.35l1.69 49.87z"/>
  <path class="fil24" d="M2547.9 2076.17c0,44.4 -12.07,44.54 25.22,43.84 25.47,-0.48 51.29,-0.09 76.81,-0.09l0 -43.75 -102.04 -0z"/>
  <path class="fil24" d="M2411.55 2076.17c0,44.4 -12.07,44.54 25.22,43.84 25.47,-0.48 51.29,-0.09 76.81,-0.09l0 -43.75 -102.04 -0z"/>
  <path class="fil24" d="M2411.55 2312.95c0,53.94 -27.47,43.75 102.03,43.75l-3.64 -40.11c-5.44,-7.3 -84.42,-3.64 -98.39,-3.64z"/>
  <path class="fil25" d="M2586.41 2491.45c0,38.56 -10.31,44.34 25.16,43.92 25.61,-0.3 51.24,-0.17 76.87,-0.17l0 -43.75 -102.04 -0z"/>
  <path class="fil24" d="M2178.41 1289.35l3.18 -1.49c30.56,4.37 64.05,1.48 95.21,1.48l-0 -43.75c-125.04,0 -98.39,-9.39 -98.39,43.75z"/>
  <path class="fil26" d="M138.88 2178.18c-12.36,-86.12 111.27,-102.22 126.24,-24.46 17.13,89 -114.84,103.9 -126.24,24.46zm43.25 -81.79c-94.42,27.19 -54.76,168.13 41.79,141.6 33.14,-9.11 60.86,-46.11 50.37,-89.97 -8.25,-34.53 -47.38,-64.52 -92.16,-51.62z"/>
  <path class="fil24" d="M2531.77 2553.38c-5.29,3.95 -5.26,22.91 -4.26,32.58 1.37,13.16 8.12,7.95 25.84,7.62 25.47,-0.48 51.29,-0.09 76.81,-0.09l0 -43.75 -98.39 3.64z"/>
  <path class="fil27" d="M191.31 2113.68c73.83,-14.03 86.11,94.46 22.01,106.92 -72.34,14.06 -89.61,-94.07 -22.01,-106.92zm-52.44 64.51c11.4,79.44 143.37,64.54 126.24,-24.46 -14.97,-77.76 -138.6,-61.66 -126.24,24.46z"/>
  <path class="fil26" d="M188.79 2125.73c60.05,-18.63 76.07,68.22 27.9,83.01 -57.37,17.62 -82.81,-65.98 -27.9,-83.01zm2.53 -12.06c-67.6,12.85 -50.34,120.98 22.01,106.92 64.11,-12.46 51.83,-120.96 -22.01,-106.92z"/>
  <path class="fil24" d="M1213.05 1110.85l65.61 -0 -0 -43.75c-82.95,0 -65.6,-14.6 -65.6,43.75z"/>
  <path class="fil24" d="M1213.05 1941.42l65.61 -0 -0 -43.75c-76.02,0 -66.26,-6.85 -66.05,14.14 0.1,9.84 0.45,19.67 0.45,29.61z"/>
  <path class="fil10" d="M1991.21 2313.93c57.4,-4.96 53.25,-73.07 -0.14,-77.25l0.14 77.25z"/>
  <path class="fil28" d="M224.62 2499.95c-35.77,-20.5 -61.47,6.31 -46.09,35.03 14.12,26.36 56.11,16.86 46.09,-35.03z"/>
  <path class="fil29" d="M1735.84 2278.38c-9.67,7.74 -19.7,11.91 -10.84,32.7 12.78,30 62.01,5.22 44.2,-26.01 -2.43,-4.25 -9.72,-9.73 -14.63,-10.99 -17.75,-4.58 -13.76,0.34 -18.72,4.31z"/>
  <path class="fil19" d="M1808.54 1632.62c5.07,35.24 44.94,36.22 68.54,11.05l1.62 -13.31 -1.01 -75.13 -66.21 -0.21 -2.94 77.59z"/>
  <path class="fil30" d="M202.76 2389.18c71.69,0 129.81,58.12 129.81,129.81 0,71.69 -58.12,129.81 -129.81,129.81 -71.69,0 -129.81,-58.12 -129.81,-129.81 0,-71.69 58.12,-129.81 129.81,-129.81zm0 56.88c40.28,0 72.93,32.65 72.93,72.93 0,40.28 -32.65,72.93 -72.93,72.93 -40.28,0 -72.93,-32.65 -72.93,-72.93 0,-40.28 32.65,-72.93 72.93,-72.93z"/>
  <circle class="fil31" cx="202.76" cy="2518.99" r="72.94"/>
  <circle class="fil30" cx="202.76" cy="2518.99" r="35.85"/>
  <rect class="fil32" x="637.98" y="2333.54" width="1346.92" height="71.7"/>
 </g>
</svg>
