<?xml version="1.0" encoding="UTF-8"?>
<!DOCTYPE svg PUBLIC "-//W3C//DTD SVG 1.1//EN" "http://www.w3.org/Graphics/SVG/1.1/DTD/svg11.dtd">
<!-- Creator: CorelDRAW -->
<svg xmlns="http://www.w3.org/2000/svg" xml:space="preserve" width="71.3849mm" height="99.3257mm" version="1.1" style="shape-rendering:geometricPrecision; text-rendering:geometricPrecision; image-rendering:optimizeQuality; fill-rule:evenodd; clip-rule:evenodd"
viewBox="0 0 6632.43 9228.44"
 xmlns:xlink="http://www.w3.org/1999/xlink">
 <defs>
  <style type="text/css">
   <![CDATA[
    .fil8 {fill:#492E2E}
    .fil3 {fill:#543838}
    .fil10 {fill:#594444}
    .fil1 {fill:#BF9D9D}
    .fil2 {fill:#D1B4B4}
    .fil4 {fill:#E2E2E2}
    .fil0 {fill:#E5CCCC}
    .fil5 {fill:#F2875C}
    .fil9 {fill:#F4E9E9}
    .fil6 {fill:#FFA488}
    .fil7 {fill:white}
   ]]>
  </style>
 </defs>
 <g id="Layer_x0020_1">
  <metadata id="CorelCorpID_0Corel-Layer"/>
  <g id="_105553348940544">
   <g>
    <g id="Layer_2" data-name="Layer 2">
     <g id="Layer_1-2" data-name="Layer 1">
      <path class="fil0" d="M6587.46 4021c0,-11.45 0,-1855.78 0,-1855.78l-2881.36 0c0,0 0,1843.93 0,1854.97l0 2.04 0 0c33.1,431.65 665.06,776.65 1440.48,776.65 775.42,0 1407.78,-344.59 1440.89,-776.65l-0.01 0 0 -1.23z"/>
      <ellipse class="fil1" cx="5146.58" cy="2142.73" rx="1485.03" ry="856.36"/>
      <path class="fil1" d="M6587.88 2943.09c0,76.44 0,122.62 0,122.62l0 0 0 0.01c-33.52,433.28 -665.88,776.64 -1441.3,776.64 -775.42,0 -1407.38,-343.36 -1440.48,-776.64l0 0 0 0c0,0 0,-47.42 0,-122.63 -28.88,64.21 -44.02,133.97 -44.15,204.39 -0.41,459.03 664.65,833.46 1484.63,833.46 819.98,0 1485.44,-374.43 1485.44,-835.93 -0.47,-69.65 -15.56,-138.48 -44.15,-201.95l0.01 0.03z"/>
      <path class="fil1" d="M6587.88 3880.79c0,76.03 0,122.62 0,122.62l0 0 0 0c-33.11,432.06 -665.47,776.65 -1440.89,776.65 -775.42,0 -1407.79,-342.54 -1440.89,-774.2l0 0 0 0c0,0 0,-47.41 0,-122.62 -29.03,64.12 -44.15,133.9 -44.15,204.36 0,461.91 665.07,835.92 1485.04,835.92 819.98,0 1485.44,-374.01 1485.44,-835.92 0,-0.33 0,-0.76 0,-1.12 0,-70.94 -15.23,-141.15 -44.54,-205.71l-0.01 0.03z"/>
      <path class="fil2" d="M5144.13 1786.29c618.04,0 1139.22,232.17 1303.95,550.19 35.11,-65.9 53.87,-139.45 54.38,-214.19 0,-422.25 -608.24,-764.39 -1358.32,-764.39 -750.08,0 -1359.96,342.13 -1359.96,764.39 0.49,74.74 19.25,148.29 54.39,214.22 166.34,-318.04 687.51,-550.22 1305.56,-550.22z"/>
      <path class="fil3" d="M5144.13 2886.68c569.81,0 1057.06,-197.44 1258.99,-477.44 16.65,-23.05 31.83,-47.5 45,-72.73 -163.5,-318.02 -685.91,-550.2 -1303.96,-550.2 -618.04,0 -1139.25,232.16 -1303.99,550.17 13.14,25.26 28.32,49.71 44.95,72.78 201.94,279.99 689.19,477.42 1259.01,477.42z"/>
      <polygon class="fil0" points="4125.49,210.1 4125.49,1139.22 4058.87,1220.56 4024.53,1197.27 4024.53,268.15 "/>
      <polygon class="fil1" points="4159.41,233.4 4159.41,1162.52 4058.87,1220.56 4058.87,291.44 "/>
      <path class="fil2" d="M4185.58 1328.07l109.14 -232.17 -114.05 -65.81 0 0c-7.49,-3.72 -15.76,-5.65 -24.13,-5.65 -11.1,0 -21.95,3.4 -31.05,9.74 -50.89,37.58 -81.19,96.95 -81.76,160.22 -0.37,3.11 -0.59,6.24 -0.59,9.37 0,22.32 9.97,43.47 27.17,57.68l-0.01 -0.01 2.86 0 0 0 112.41 66.63z"/>
      <ellipse class="fil4" transform="matrix(0.0697956 -1.6403E-001 0.16403 0.0697956 4239 1211.54)" rx="722.31" ry="408.16"/>
      <path class="fil1" d="M4356.44 1569.65l211.74 -449.63 -221.15 -127.13 0 0c-14.35,-7.28 -30.29,-11.09 -46.41,-11.09 -21.47,0 -42.44,6.75 -59.86,19.28 -89.52,51.5 -163.5,190.48 -163.5,309.84 -0.55,5.09 -0.81,10.22 -0.81,15.35 0,44.2 19.97,86.04 54.34,113.83l0.01 -0.01 5.31 3.27 0 0 220.32 126.3z"/>
      <path class="fil0" d="M4620.91 1250.4c0,119.36 -72.76,257.93 -163.5,309.84 -90.75,51.92 -163.5,-3.27 -163.5,-122.62 0,-119.36 72.76,-257.93 163.5,-309.44 90.75,-51.5 163.5,3.27 163.5,122.22z"/>
      <path class="fil5" d="M5552.89 2695.38l512.18 -1113.06 -1220.57 -702.67 0 0c-69.9,-40.87 -161.46,-38.01 -262.02,20.03 -220.73,127.13 -399.77,469.26 -399.77,763.16 0,156.96 51.1,267.74 132.04,318.42l0 0 13.08 7.36 0 0 1225.06 706.75z"/>
      <ellipse class="fil6" transform="matrix(0.0697956 -1.6403E-001 0.16403 0.0697956 5816.56 2142.49)" rx="3441.86" ry="1946.8"/>
      <path class="fil7" d="M6103.08 2013.97c0,182.72 -110.77,394.86 -247.71,473.75 -136.93,78.89 -248.12,-4.91 -248.12,-187.22 0,-182.3 111.19,-394.86 248.12,-473.75 136.94,-78.89 247.71,4.5 247.71,187.22z"/>
      <path class="fil1" d="M6005.39 2520.02l211.34 -449.64 -220.73 -127.12 0 0c-14.44,-7.27 -30.41,-11.08 -46.59,-11.08 -21.56,0 -42.57,6.73 -60.11,19.25 -89.52,51.51 -163.5,190.49 -163.5,309.85 -0.54,5.21 -0.85,10.47 -0.85,15.71 0,44.1 20.02,85.85 54.4,113.45l0 0.01 5.31 3.26 0 0 220.73 126.31z"/>
      <path class="fil0" d="M6271.08 2200.78c0,119.35 -72.35,257.93 -163.5,309.84 -91.15,51.91 -163.5,-3.27 -163.5,-122.62 0,-119.36 72.35,-257.93 163.5,-309.44 91.15,-51.5 163.5,3.27 163.5,122.22z"/>
      <path class="fil1" d="M6229.8 2242.47c-1.2,73.73 -37.32,142.63 -97.29,185.58 -53.54,31.07 -97.28,0 -97.28,-73.58 1.19,-73.73 37.31,-142.63 97.27,-185.58 53.55,-31.06 97.3,2.04 97.3,73.58z"/>
      <path class="fil2" d="M6207.32 2490.59l111.19 -232.17 -114.05 -65.81 0 0c-7.43,-3.8 -15.68,-5.8 -24.04,-5.8 -11.02,0 -21.79,3.47 -30.74,9.89 -50.88,37.58 -81.19,96.95 -81.75,160.23 -0.28,2.67 -0.42,5.36 -0.42,8.04 0,22.71 10.22,44.24 27.82,58.6l-0.01 -0.01 2.86 0 0 0 109.14 67.04z"/>
      <path class="fil4" d="M6345.07 2325.45c-0.98,63.54 -32.1,122.88 -83.8,159.83 -46.19,26.98 -83.8,0 -83.8,-63.36 1.06,-63.51 32.15,-122.84 83.81,-159.83 46.19,-26.57 83.79,1.64 83.79,63.36z"/>
      <path class="fil8" d="M4560.83 1151.48c-89.93,78.89 -219.92,171.68 -248.95,422.25 -32.7,283.28 43.74,315.15 3.27,408.76 -40.46,93.61 -5.72,163.5 54.78,115.27 60.49,-48.23 77.66,8.99 59.27,58.45 -18.4,49.47 -81.75,150.02 113.64,109.55 98.92,-20.44 188.02,-13.9 161.05,34.34 -26.98,48.23 15.93,73.58 88.29,40.87 38.01,-16.76 33.51,81.75 6.13,211.74 -27.39,129.98 172.08,40.87 212.55,12.26 76.85,-58.87 175.77,-36.79 165.55,62.13 -6.13,58.45 44.14,81.75 105.46,78.48 61.31,-3.27 137.34,-89.52 137.34,-89.52 -86.34,-107.41 -133.53,-241.24 -133.53,-379.13 0,-14.18 0.51,-28.58 1.48,-42.69 15.2,-203.4 86.47,-398.95 205.61,-564.49 61.32,-81.75 4.91,-115.67 -138.16,-13.48 -78.89,56.41 -166.77,189.25 -217.87,323.74 -21.67,56.41 -38.43,113.63 -66.23,131.21 -27.79,17.58 -71.53,-6.54 -75.21,-76.03 -2.86,-56.81 6.95,-177.81 102.19,-371.98 30.25,-61.72 117.73,-189.25 88.7,-214.6 -29.03,-25.35 -69.49,19.21 -81.75,35.16 -40.88,54.36 -117.73,184.75 -145.11,163.5 -27.39,-21.26 35.97,-163.5 2.04,-190.49 -33.93,-26.98 -122.63,73.58 -156.55,114.46 -33.93,40.87 -150.43,192.93 -204.39,142.25 -53.95,-50.68 -34.34,-210.11 27.39,-333.14 30.65,-60.9 104.23,-160.23 65.4,-208.88 -28.6,-34.37 -95.22,-13.93 -132.42,19.99z"/>
      <polygon class="fil0" points="6317.28,1453.97 6317.28,2383.09 6251.05,2464.43 6216.72,2441.13 6216.72,1512.01 "/>
      <polygon class="fil1" points="6351.61,1477.26 6351.61,2406.38 6251.05,2464.43 6251.05,1535.31 "/>
      <polygon class="fil9" points="6303.79,1381.61 3990.6,58.86 4092.79,0 6405.98,1322.75 "/>
      <polygon class="fil0" points="3990.6,266.11 6303.79,1574.55 6303.79,1381.61 3990.6,58.86 "/>
      <polygon class="fil1" points="6405.98,1322.75 6405.98,1515.69 6303.79,1574.55 6303.79,1381.61 "/>
     </g>
    </g>
   </g>
   <g>
    <path class="fil0" d="M2925.92 8325.9c0,-11.44 0,-1855.78 0,-1855.78l-2881.36 0c0,0 0,1843.93 0,1854.97l0 2.04 0 0c33.1,431.65 665.06,776.65 1440.48,776.65 775.42,0 1407.78,-344.59 1440.88,-776.65l0 0 0 -1.23z"/>
    <ellipse class="fil1" cx="1485.04" cy="6447.64" rx="1485.03" ry="856.36"/>
    <path class="fil1" d="M2926.33 7247.99c0,76.44 0,122.63 0,122.63l0 0 0 0c-33.51,433.28 -665.87,776.64 -1441.29,776.64 -775.42,0 -1407.38,-343.36 -1440.48,-776.64l0 0 0 0c0,0 0,-47.42 0,-122.63 -28.88,64.21 -44.03,133.97 -44.15,204.39 -0.41,459.03 664.65,833.46 1484.63,833.46 819.98,0 1485.44,-374.43 1485.44,-835.92 -0.47,-69.66 -15.56,-138.49 -44.15,-201.96l0 0.03z"/>
    <path class="fil1" d="M2926.33 8185.7c0,76.03 0,122.62 0,122.62l0 0 0 0c-33.1,432.06 -665.46,776.65 -1440.89,776.65 -775.42,0 -1407.78,-342.54 -1440.88,-774.2l0 0 0 0c0,0 0,-47.41 0,-122.62 -29.04,64.12 -44.15,133.9 -44.15,204.36 0,461.91 665.06,835.92 1485.04,835.92 819.98,0 1485.44,-374.01 1485.44,-835.92 0,-0.33 0,-0.76 0,-1.12 0,-70.94 -15.23,-141.15 -44.54,-205.71l-0.02 0.03z"/>
    <path class="fil2" d="M1482.59 6091.2c618.04,0 1139.22,232.17 1303.95,550.19 35.11,-65.9 53.87,-139.45 54.38,-214.19 0,-422.25 -608.24,-764.39 -1358.32,-764.39 -750.08,0 -1359.96,342.13 -1359.96,764.39 0.49,74.74 19.25,148.29 54.39,214.22 166.34,-318.04 687.51,-550.22 1305.56,-550.22z"/>
    <path class="fil3" d="M1482.59 7191.59c569.81,0 1057.06,-197.44 1258.98,-477.43 16.65,-23.06 31.84,-47.51 45,-72.74 -163.5,-318.02 -685.91,-550.19 -1303.95,-550.19 -618.05,0 -1139.25,232.15 -1303.99,550.16 13.13,25.26 28.32,49.71 44.95,72.78 201.94,279.99 689.18,477.42 1259.01,477.42z"/>
   </g>
   <g>
    <ellipse class="fil10" transform="matrix(0.789783 0.0975291 -1.02971E-001 0.748047 1844.19 5793.73)" rx="145.95" ry="82.2"/>
    <path class="fil1" d="M4087.37 3968.37l-2090.8 1284.89c-141.24,68.35 -202.82,198.41 -230.5,340.14l-37.38 190.3c78.44,-62.58 166.11,-71.21 229.89,28.46l37.57 -158.5c36.36,-147.25 37.06,-185.91 252.36,-317.5l1882.42 -1200.31c40.84,-85.75 21.17,-142.29 -43.57,-167.48z"/>
   </g>
  </g>
 </g>
</svg>
