<?xml version="1.0" encoding="UTF-8"?>
<!DOCTYPE svg PUBLIC "-//W3C//DTD SVG 1.1//EN" "http://www.w3.org/Graphics/SVG/1.1/DTD/svg11.dtd">
<!-- Creator: CorelDRAW -->
<svg xmlns="http://www.w3.org/2000/svg" xml:space="preserve" width="1291px" height="944px" version="1.1" style="shape-rendering:geometricPrecision; text-rendering:geometricPrecision; image-rendering:optimizeQuality; fill-rule:evenodd; clip-rule:evenodd"
viewBox="0 0 1217.85 889.98"
 xmlns:xlink="http://www.w3.org/1999/xlink">
 <defs>
  <style type="text/css">
   <![CDATA[
    .fil9 {fill:none}
    .fil2 {fill:white}
    .fil5 {fill:#8A7870}
    .fil1 {fill:#F0861B}
    .fil6 {fill:#E6232A}
    .fil8 {fill:#E6232A}
    .fil7 {fill:#E7B2A0}
    .fil0 {fill:#BB8877}
    .fil4 {fill:#57362A}
    .fil3 {fill:#724331;fill-rule:nonzero}
   ]]>
  </style>
   <clipPath id="id0">
    <path d="M132.57 742.62l492.17 0 0 7.37 -492.17 0 0 -7.37z"/>
   </clipPath>
 </defs>
 <g id="Layer_x0020_1">
  <metadata id="CorelCorpID_0Corel-Layer"/>
  <g id="_105553494071008">
   <path class="fil0" d="M55.91 505.51l644.12 0c30.75,0 55.91,25.16 55.91,55.91l0 269.83c0,30.75 -25.16,55.91 -55.91,55.91l-644.12 0c-30.75,0 -55.91,-25.16 -55.91,-55.91l0 -269.83c0,-30.75 25.16,-55.91 55.91,-55.91zm19.81 63.36l604.49 0c10.04,0 18.26,8.22 18.26,18.26l0 211.04c0,10.05 -8.22,18.26 -18.26,18.26l-604.49 0c-10.04,0 -18.25,-8.21 -18.25,-18.26l0 -211.04c0,-10.04 8.21,-18.26 18.25,-18.26z"/>
   <path class="fil1" d="M75.72 568.87l604.49 0c10.04,0 18.26,8.22 18.26,18.26l0 211.04c0,10.05 -8.22,18.26 -18.26,18.26l-604.49 0c-10.04,0 -18.25,-8.21 -18.25,-18.26l0 -211.04c0,-10.04 8.21,-18.26 18.25,-18.26z"/>
   <g>
    <g>
     <g>
      <path class="fil2" d="M82.52 516.56c10.58,0 19.15,8.58 19.15,19.16 0,10.58 -8.57,19.15 -19.15,19.15 -10.58,0 -19.16,-8.57 -19.16,-19.15 0,-10.58 8.58,-19.16 19.16,-19.16z"/>
      <path class="fil2" d="M140.72 516.56c10.58,0 19.16,8.58 19.16,19.16 0,10.58 -8.58,19.15 -19.16,19.15 -10.58,0 -19.15,-8.57 -19.15,-19.15 0,-10.58 8.57,-19.16 19.15,-19.16z"/>
      <path class="fil2" d="M202.61 516.56c10.58,0 19.16,8.58 19.16,19.16 0,10.58 -8.58,19.15 -19.16,19.15 -10.58,0 -19.15,-8.57 -19.15,-19.15 0,-10.58 8.57,-19.16 19.15,-19.16z"/>
      <path class="fil2" d="M260.82 516.56c10.58,0 19.15,8.58 19.15,19.16 0,10.58 -8.57,19.15 -19.15,19.15 -10.58,0 -19.16,-8.57 -19.16,-19.15 0,-10.58 8.58,-19.16 19.16,-19.16z"/>
      <path class="fil2" d="M320.5 516.56c10.58,0 19.15,8.58 19.15,19.16 0,10.58 -8.57,19.15 -19.15,19.15 -10.58,0 -19.16,-8.57 -19.16,-19.15 0,-10.58 8.58,-19.16 19.16,-19.16z"/>
      <path class="fil2" d="M378.7 516.56c10.58,0 19.16,8.58 19.16,19.16 0,10.58 -8.58,19.15 -19.16,19.15 -10.57,0 -19.15,-8.57 -19.15,-19.15 0,-10.58 8.58,-19.16 19.15,-19.16z"/>
      <path class="fil2" d="M439.86 516.56c10.58,0 19.15,8.58 19.15,19.16 0,10.58 -8.57,19.15 -19.15,19.15 -10.58,0 -19.16,-8.57 -19.16,-19.15 0,-10.58 8.58,-19.16 19.16,-19.16z"/>
      <path class="fil2" d="M498.06 516.56c10.58,0 19.16,8.58 19.16,19.16 0,10.58 -8.58,19.15 -19.16,19.15 -10.58,0 -19.15,-8.57 -19.15,-19.15 0,-10.58 8.57,-19.16 19.15,-19.16z"/>
      <path class="fil2" d="M558.48 516.56c10.58,0 19.15,8.58 19.15,19.16 0,10.58 -8.57,19.15 -19.15,19.15 -10.58,0 -19.16,-8.57 -19.16,-19.15 0,-10.58 8.58,-19.16 19.16,-19.16z"/>
      <path class="fil2" d="M616.68 516.56c10.58,0 19.16,8.58 19.16,19.16 0,10.58 -8.58,19.15 -19.16,19.15 -10.58,0 -19.15,-8.57 -19.15,-19.15 0,-10.58 8.57,-19.16 19.15,-19.16z"/>
      <path class="fil2" d="M680.78 516.56c10.58,0 19.16,8.58 19.16,19.16 0,10.58 -8.58,19.15 -19.16,19.15 -10.58,0 -19.15,-8.57 -19.15,-19.15 0,-10.58 8.57,-19.16 19.15,-19.16z"/>
     </g>
     <g>
      <path class="fil2" d="M82.52 826.01c10.58,0 19.15,8.57 19.15,19.15 0,10.58 -8.57,19.16 -19.15,19.16 -10.58,0 -19.16,-8.58 -19.16,-19.16 0,-10.58 8.58,-19.15 19.16,-19.15z"/>
      <path class="fil2" d="M140.72 826.01c10.58,0 19.16,8.57 19.16,19.15 0,10.58 -8.58,19.16 -19.16,19.16 -10.58,0 -19.15,-8.58 -19.15,-19.16 0,-10.58 8.57,-19.15 19.15,-19.15z"/>
      <path class="fil2" d="M202.61 826.01c10.58,0 19.16,8.57 19.16,19.15 0,10.58 -8.58,19.16 -19.16,19.16 -10.58,0 -19.15,-8.58 -19.15,-19.16 0,-10.58 8.57,-19.15 19.15,-19.15z"/>
      <path class="fil2" d="M260.82 826.01c10.58,0 19.15,8.57 19.15,19.15 0,10.58 -8.57,19.16 -19.15,19.16 -10.58,0 -19.16,-8.58 -19.16,-19.16 0,-10.58 8.58,-19.15 19.16,-19.15z"/>
      <path class="fil2" d="M320.5 826.01c10.58,0 19.15,8.57 19.15,19.15 0,10.58 -8.57,19.16 -19.15,19.16 -10.58,0 -19.16,-8.58 -19.16,-19.16 0,-10.58 8.58,-19.15 19.16,-19.15z"/>
      <path class="fil2" d="M378.7 826.01c10.58,0 19.16,8.57 19.16,19.15 0,10.58 -8.58,19.16 -19.16,19.16 -10.57,0 -19.15,-8.58 -19.15,-19.16 0,-10.58 8.58,-19.15 19.15,-19.15z"/>
      <path class="fil2" d="M439.86 826.01c10.58,0 19.15,8.57 19.15,19.15 0,10.58 -8.57,19.16 -19.15,19.16 -10.58,0 -19.16,-8.58 -19.16,-19.16 0,-10.58 8.58,-19.15 19.16,-19.15z"/>
      <path class="fil2" d="M498.06 826.01c10.58,0 19.16,8.57 19.16,19.15 0,10.58 -8.58,19.16 -19.16,19.16 -10.58,0 -19.15,-8.58 -19.15,-19.16 0,-10.58 8.57,-19.15 19.15,-19.15z"/>
      <path class="fil2" d="M558.48 826.01c10.58,0 19.15,8.57 19.15,19.15 0,10.58 -8.57,19.16 -19.15,19.16 -10.58,0 -19.16,-8.58 -19.16,-19.16 0,-10.58 8.58,-19.15 19.16,-19.15z"/>
      <path class="fil2" d="M616.68 826.01c10.58,0 19.16,8.57 19.16,19.15 0,10.58 -8.58,19.16 -19.16,19.16 -10.58,0 -19.15,-8.58 -19.15,-19.16 0,-10.58 8.57,-19.15 19.15,-19.15z"/>
      <path class="fil2" d="M680.78 826.01c10.58,0 19.16,8.57 19.16,19.15 0,10.58 -8.58,19.16 -19.16,19.16 -10.58,0 -19.15,-8.58 -19.15,-19.16 0,-10.58 8.57,-19.15 19.15,-19.15z"/>
     </g>
     <g>
      <g>
       <path class="fil2" d="M7.99 777.97c0.09,-10.58 8.73,-18.93 19.31,-18.65 10.58,0.28 19.09,9.08 19,19.66 -0.08,10.57 -8.73,18.92 -19.31,18.64 -10.57,-0.27 -19.08,-9.07 -19,-19.65z"/>
       <path class="fil2" d="M8.46 719.78c0.08,-10.58 8.73,-18.93 19.31,-18.65 10.58,0.28 19.08,9.08 19,19.65 -0.08,10.58 -8.73,18.93 -19.31,18.65 -10.58,-0.28 -19.09,-9.08 -19,-19.65z"/>
       <path class="fil2" d="M8.96 657.9c0.08,-10.58 8.72,-18.93 19.3,-18.65 10.58,0.28 19.09,9.08 19.01,19.66 -0.09,10.57 -8.73,18.92 -19.31,18.64 -10.58,-0.27 -19.09,-9.07 -19,-19.65z"/>
      </g>
      <path class="fil2" d="M28.73 580.66c10.58,0 19.16,8.58 19.16,19.16 0,10.58 -8.58,19.15 -19.16,19.15 -10.58,0 -19.15,-8.57 -19.15,-19.15 0,-10.58 8.57,-19.16 19.15,-19.16z"/>
     </g>
     <g>
      <g>
       <path class="fil2" d="M706.46 777.97c0.08,-10.58 8.73,-18.93 19.31,-18.65 10.58,0.28 19.08,9.08 19,19.66 -0.09,10.57 -8.73,18.92 -19.31,18.64 -10.58,-0.27 -19.09,-9.07 -19,-19.65z"/>
       <path class="fil2" d="M706.93 719.78c0.08,-10.58 8.72,-18.93 19.3,-18.65 10.58,0.28 19.09,9.08 19.01,19.65 -0.09,10.58 -8.73,18.93 -19.31,18.65 -10.58,-0.28 -19.09,-9.08 -19,-19.65z"/>
       <path class="fil2" d="M707.42 657.9c0.09,-10.58 8.73,-18.93 19.31,-18.65 10.58,0.28 19.09,9.08 19,19.66 -0.08,10.57 -8.73,18.92 -19.31,18.64 -10.58,-0.27 -19.08,-9.07 -19,-19.65z"/>
      </g>
      <path class="fil2" d="M727.2 580.66c10.58,0 19.16,8.58 19.16,19.16 0,10.58 -8.58,19.15 -19.16,19.15 -10.58,0 -19.16,-8.57 -19.16,-19.15 0,-10.58 8.58,-19.16 19.16,-19.16z"/>
     </g>
    </g>
    <path class="fil3" d="M606.31 623.2c0.43,4.82 5.21,21.86 6.18,29.85 1.05,8.68 -7.5,14.66 -12.21,7.52 -3.1,-4.71 -2.85,-8.89 -1.27,-17.49 1.59,-8.6 6.11,-33.06 7.3,-19.88z"/>
    <path class="fil3" d="M612.26 574.23c-2.28,-5.19 -3.8,-9.75 -4.05,-15.07 -0.26,-5.33 0,-37.51 0,-39.29 1.66,-11 21.94,-6.04 22.74,0.38 1.33,10.65 0,102.64 0,108.15 0,5.51 0.95,31.74 2.09,36.11 1.14,4.38 3.71,12.36 7.89,12.93 4.18,0.57 7.6,-1.81 8.17,-5.04 0.57,-3.23 1.24,-10.93 3.61,-15.96 2.38,-5.04 5.8,-11.03 11.03,-11.31 5.22,-0.29 6.75,-2.66 8.74,-9.69 2,-7.04 0,-47.9 0,-76.28 0,-28.39 56.83,-42.72 56.83,-45 -13.91,-10.19 -36.07,-8.53 -39.99,-8.69l-95.81 -0.04c0,0 6.71,4.43 7.22,14.19 0.51,9.76 0,39.79 0,43.97 0,4.18 -1.52,9.38 -3.17,13.43 -1.64,4.06 -5.7,13.31 -2.91,16.85 2.79,3.55 9.25,7.86 12.8,7.35 3.55,-0.5 11.27,-5.7 12.03,-9.5 0.77,-3.8 -4.94,-12.29 -7.22,-17.49z"/>
   </g>
  </g>
  <g id="_105553494069600">
   <path class="fil0" d="M300.52 0.08l644.12 0c30.75,0 55.91,25.16 55.91,55.91l0 269.83c0,30.75 -25.16,55.91 -55.91,55.91l-644.12 0c-30.75,0 -55.91,-25.16 -55.91,-55.91l0 -269.83c0,-30.75 25.16,-55.91 55.91,-55.91zm19.81 63.36l604.49 0c10.04,0 18.26,8.22 18.26,18.26l0 211.05c0,10.04 -8.22,18.25 -18.26,18.25l-604.49 0c-10.04,0 -18.25,-8.21 -18.25,-18.25l0 -211.05c0,-10.04 8.21,-18.26 18.25,-18.26z"/>
   <path class="fil1" d="M320.33 63.44l604.49 0c10.04,0 18.26,8.22 18.26,18.26l0 211.05c0,10.04 -8.22,18.25 -18.26,18.25l-604.49 0c-10.04,0 -18.25,-8.21 -18.25,-18.25l0 -211.05c0,-10.04 8.21,-18.26 18.25,-18.26z"/>
   <g>
    <g>
     <g>
      <path class="fil2" d="M327.13 11.13c10.58,0 19.15,8.58 19.15,19.16 0,10.58 -8.57,19.15 -19.15,19.15 -10.58,0 -19.16,-8.57 -19.16,-19.15 0,-10.58 8.58,-19.16 19.16,-19.16z"/>
      <path class="fil2" d="M385.33 11.13c10.58,0 19.16,8.58 19.16,19.16 0,10.58 -8.58,19.15 -19.16,19.15 -10.58,0 -19.15,-8.57 -19.15,-19.15 0,-10.58 8.57,-19.16 19.15,-19.16z"/>
      <path class="fil2" d="M447.22 11.13c10.58,0 19.16,8.58 19.16,19.16 0,10.58 -8.58,19.15 -19.16,19.15 -10.58,0 -19.15,-8.57 -19.15,-19.15 0,-10.58 8.57,-19.16 19.15,-19.16z"/>
      <path class="fil2" d="M505.43 11.13c10.58,0 19.15,8.58 19.15,19.16 0,10.58 -8.57,19.15 -19.15,19.15 -10.58,0 -19.16,-8.57 -19.16,-19.15 0,-10.58 8.58,-19.16 19.16,-19.16z"/>
      <path class="fil2" d="M565.11 11.13c10.58,0 19.15,8.58 19.15,19.16 0,10.58 -8.57,19.15 -19.15,19.15 -10.58,0 -19.16,-8.57 -19.16,-19.15 0,-10.58 8.58,-19.16 19.16,-19.16z"/>
      <path class="fil2" d="M623.32 11.13c10.57,0 19.15,8.58 19.15,19.16 0,10.58 -8.58,19.15 -19.15,19.15 -10.58,0 -19.16,-8.57 -19.16,-19.15 0,-10.58 8.58,-19.16 19.16,-19.16z"/>
      <path class="fil2" d="M684.47 11.13c10.58,0 19.15,8.58 19.15,19.16 0,10.58 -8.57,19.15 -19.15,19.15 -10.58,0 -19.16,-8.57 -19.16,-19.15 0,-10.58 8.58,-19.16 19.16,-19.16z"/>
      <path class="fil2" d="M742.67 11.13c10.58,0 19.16,8.58 19.16,19.16 0,10.58 -8.58,19.15 -19.16,19.15 -10.58,0 -19.15,-8.57 -19.15,-19.15 0,-10.58 8.57,-19.16 19.15,-19.16z"/>
      <path class="fil2" d="M803.09 11.13c10.58,0 19.15,8.58 19.15,19.16 0,10.58 -8.57,19.15 -19.15,19.15 -10.58,0 -19.16,-8.57 -19.16,-19.15 0,-10.58 8.58,-19.16 19.16,-19.16z"/>
      <path class="fil2" d="M861.29 11.13c10.58,0 19.16,8.58 19.16,19.16 0,10.58 -8.58,19.15 -19.16,19.15 -10.58,0 -19.15,-8.57 -19.15,-19.15 0,-10.58 8.57,-19.16 19.15,-19.16z"/>
      <path class="fil2" d="M925.39 11.13c10.58,0 19.16,8.58 19.16,19.16 0,10.58 -8.58,19.15 -19.16,19.15 -10.58,0 -19.15,-8.57 -19.15,-19.15 0,-10.58 8.57,-19.16 19.15,-19.16z"/>
     </g>
     <g>
      <path class="fil2" d="M327.13 320.58c10.58,0 19.15,8.57 19.15,19.15 0,10.58 -8.57,19.16 -19.15,19.16 -10.58,0 -19.16,-8.58 -19.16,-19.16 0,-10.58 8.58,-19.15 19.16,-19.15z"/>
      <path class="fil2" d="M385.33 320.58c10.58,0 19.16,8.57 19.16,19.15 0,10.58 -8.58,19.16 -19.16,19.16 -10.58,0 -19.15,-8.58 -19.15,-19.16 0,-10.58 8.57,-19.15 19.15,-19.15z"/>
      <path class="fil2" d="M447.22 320.58c10.58,0 19.16,8.57 19.16,19.15 0,10.58 -8.58,19.16 -19.16,19.16 -10.58,0 -19.15,-8.58 -19.15,-19.16 0,-10.58 8.57,-19.15 19.15,-19.15z"/>
      <path class="fil2" d="M505.43 320.58c10.58,0 19.15,8.57 19.15,19.15 0,10.58 -8.57,19.16 -19.15,19.16 -10.58,0 -19.16,-8.58 -19.16,-19.16 0,-10.58 8.58,-19.15 19.16,-19.15z"/>
      <path class="fil2" d="M565.11 320.58c10.58,0 19.15,8.57 19.15,19.15 0,10.58 -8.57,19.16 -19.15,19.16 -10.58,0 -19.16,-8.58 -19.16,-19.16 0,-10.58 8.58,-19.15 19.16,-19.15z"/>
      <path class="fil2" d="M623.32 320.58c10.57,0 19.15,8.57 19.15,19.15 0,10.58 -8.58,19.16 -19.15,19.16 -10.58,0 -19.16,-8.58 -19.16,-19.16 0,-10.58 8.58,-19.15 19.16,-19.15z"/>
      <path class="fil2" d="M684.47 320.58c10.58,0 19.15,8.57 19.15,19.15 0,10.58 -8.57,19.16 -19.15,19.16 -10.58,0 -19.16,-8.58 -19.16,-19.16 0,-10.58 8.58,-19.15 19.16,-19.15z"/>
      <path class="fil2" d="M742.67 320.58c10.58,0 19.16,8.57 19.16,19.15 0,10.58 -8.58,19.16 -19.16,19.16 -10.58,0 -19.15,-8.58 -19.15,-19.16 0,-10.58 8.57,-19.15 19.15,-19.15z"/>
      <path class="fil2" d="M803.09 320.58c10.58,0 19.15,8.57 19.15,19.15 0,10.58 -8.57,19.16 -19.15,19.16 -10.58,0 -19.16,-8.58 -19.16,-19.16 0,-10.58 8.58,-19.15 19.16,-19.15z"/>
      <path class="fil2" d="M861.29 320.58c10.58,0 19.16,8.57 19.16,19.15 0,10.58 -8.58,19.16 -19.16,19.16 -10.58,0 -19.15,-8.58 -19.15,-19.16 0,-10.58 8.57,-19.15 19.15,-19.15z"/>
      <path class="fil2" d="M925.39 320.58c10.58,0 19.16,8.57 19.16,19.15 0,10.58 -8.58,19.16 -19.16,19.16 -10.58,0 -19.15,-8.58 -19.15,-19.16 0,-10.58 8.57,-19.15 19.15,-19.15z"/>
     </g>
     <g>
      <g>
       <path class="fil2" d="M252.6 272.54c0.09,-10.58 8.73,-18.93 19.31,-18.65 10.58,0.28 19.09,9.08 19,19.66 -0.08,10.57 -8.73,18.92 -19.31,18.64 -10.57,-0.27 -19.08,-9.07 -19,-19.65z"/>
       <path class="fil2" d="M253.07 214.35c0.08,-10.58 8.73,-18.93 19.31,-18.65 10.58,0.28 19.09,9.08 19,19.65 -0.08,10.58 -8.73,18.93 -19.31,18.65 -10.58,-0.28 -19.09,-9.08 -19,-19.65z"/>
       <path class="fil2" d="M253.57 152.47c0.08,-10.58 8.73,-18.93 19.3,-18.65 10.58,0.28 19.09,9.08 19.01,19.66 -0.09,10.57 -8.73,18.92 -19.31,18.64 -10.58,-0.27 -19.09,-9.07 -19,-19.65z"/>
      </g>
      <path class="fil2" d="M273.34 75.23c10.58,0 19.16,8.58 19.16,19.16 0,10.58 -8.58,19.15 -19.16,19.15 -10.57,0 -19.15,-8.57 -19.15,-19.15 0,-10.58 8.58,-19.16 19.15,-19.16z"/>
     </g>
     <g>
      <g>
       <path class="fil2" d="M951.07 272.54c0.08,-10.58 8.73,-18.93 19.31,-18.65 10.58,0.28 19.08,9.08 19,19.66 -0.09,10.57 -8.73,18.92 -19.31,18.64 -10.58,-0.27 -19.09,-9.07 -19,-19.65z"/>
       <path class="fil2" d="M951.54 214.35c0.08,-10.58 8.73,-18.93 19.3,-18.65 10.58,0.28 19.09,9.08 19.01,19.65 -0.09,10.58 -8.73,18.93 -19.31,18.65 -10.58,-0.28 -19.09,-9.08 -19,-19.65z"/>
       <path class="fil2" d="M952.03 152.47c0.09,-10.58 8.73,-18.93 19.31,-18.65 10.58,0.28 19.09,9.08 19,19.66 -0.08,10.57 -8.73,18.92 -19.31,18.64 -10.58,-0.27 -19.08,-9.07 -19,-19.65z"/>
      </g>
      <path class="fil2" d="M971.81 75.23c10.58,0 19.16,8.58 19.16,19.16 0,10.58 -8.58,19.15 -19.16,19.15 -10.58,0 -19.15,-8.57 -19.15,-19.15 0,-10.58 8.57,-19.16 19.15,-19.16z"/>
     </g>
    </g>
    <path class="fil3" d="M850.92 117.77c0.43,4.82 5.21,21.86 6.18,29.85 1.05,8.68 -7.5,14.66 -12.21,7.52 -3.1,-4.71 -2.85,-8.89 -1.27,-17.49 1.59,-8.6 6.11,-33.06 7.3,-19.88z"/>
    <path class="fil3" d="M856.87 68.8c-2.28,-5.19 -3.8,-9.75 -4.05,-15.07 -0.26,-5.33 0,-37.51 0,-39.29 1.66,-11 21.94,-6.04 22.74,0.38 1.33,10.65 0,102.64 0,108.15 0,5.51 0.95,31.74 2.09,36.12 1.14,4.37 3.71,12.35 7.89,12.92 4.18,0.57 7.6,-1.81 8.17,-5.04 0.57,-3.23 1.24,-10.93 3.61,-15.96 2.38,-5.04 5.8,-11.03 11.03,-11.31 5.23,-0.29 6.75,-2.66 8.74,-9.69 2,-7.04 0,-47.9 0,-76.28 0,-28.39 56.83,-42.72 56.83,-45 -13.91,-10.19 -36.07,-8.53 -39.99,-8.69l-95.81 -0.04c0,0 6.71,4.43 7.22,14.19 0.51,9.76 0,39.79 0,43.97 0,4.18 -1.52,9.38 -3.17,13.43 -1.64,4.06 -5.7,13.31 -2.91,16.85 2.79,3.55 9.25,7.86 12.8,7.35 3.55,-0.5 11.28,-5.7 12.03,-9.5 0.77,-3.8 -4.94,-12.29 -7.22,-17.49z"/>
   </g>
  </g>
  <path class="fil4" d="M1000.55 121.31c15.71,2.01 39.2,7.56 40.52,22.81 1.53,17.66 4.76,79.62 -2.95,104.79 -3.16,10.32 -22.04,17.1 -37.57,18.93l0 -146.53z"/>
  <path class="fil5" d="M1077.91 196.43l-59.31 0.74c-9.21,0.11 -11.28,18.25 2.34,17.86l63.97 -1.65 32.05 -28 -15.1 -16.58 -23.95 27.63z"/>
  <path class="fil6" d="M1113.23 152.46c11.8,0 21.36,9.56 21.36,21.36 0,11.8 -9.56,21.37 -21.36,21.37 -11.8,0 -21.37,-9.57 -21.37,-21.37 0,-11.8 9.57,-21.36 21.37,-21.36z"/>
  <path class="fil7" d="M384.63 107.52l247.39 0c6.12,0 11.14,5.01 11.14,11.14l0 31.5c0,6.13 -5.02,11.14 -11.14,11.14l-247.39 0c-6.12,0 -11.13,-5.01 -11.13,-11.14l0 -31.5c0,-6.13 5.01,-11.14 11.13,-11.14z"/>
  <path class="fil7" d="M346.32 191.51l96.35 0c6.12,0 11.14,5.01 11.14,11.14l0 18.24c0,6.13 -5.02,11.14 -11.14,11.14l-96.35 0c-6.13,0 -11.14,-5.01 -11.14,-11.14l0 -18.24c0,-6.13 5.01,-11.14 11.14,-11.14z"/>
  <path class="fil7" d="M483.36 191.51l96.35 0c6.12,0 11.14,5.01 11.14,11.14l0 18.24c0,6.13 -5.02,11.14 -11.14,11.14l-96.35 0c-6.12,0 -11.14,-5.01 -11.14,-11.14l0 -18.24c0,-6.13 5.02,-11.14 11.14,-11.14z"/>
  <path class="fil7" d="M617.45 191.51l96.35 0c6.13,0 11.14,5.01 11.14,11.14l0 18.24c0,6.13 -5.01,11.14 -11.14,11.14l-96.35 0c-6.12,0 -11.13,-5.01 -11.13,-11.14l0 -18.24c0,-6.13 5.01,-11.14 11.13,-11.14z"/>
  <path class="fil7" d="M772.18 191.51l127.28 0c6.13,0 11.14,5.01 11.14,11.14l0 18.24c0,6.13 -5.01,11.14 -11.14,11.14l-127.28 0c-6.12,0 -11.14,-5.01 -11.14,-11.14l0 -18.24c0,-6.13 5.02,-11.14 11.14,-11.14z"/>
  <path class="fil0" d="M871.92 513.48l289.57 0c31,0 56.36,25.36 56.36,56.36l0 263.78c0,31 -25.36,56.36 -56.36,56.36l-289.57 0c-30.99,0 -56.35,-25.36 -56.35,-56.36l0 -263.78c0,-31 25.36,-56.36 56.35,-56.36zm26.34 55.07l236.9 0c12.25,0 22.27,10.03 22.27,22.28l0 218.86c0,12.25 -10.02,22.27 -22.27,22.27l-236.9 0c-12.25,0 -22.28,-10.02 -22.28,-22.27l0 -218.86c0,-12.25 10.03,-22.28 22.28,-22.28z"/>
  <rect class="fil1" x="875.98" y="568.55" width="281.45" height="263.41" rx="22.02" ry="22.28"/>
  <rect class="fil7" x="939.34" y="764.73" width="151.78" height="42" rx="11.14" ry="11.14"/>
  <rect class="fil7" x="377.92" y="614.42" width="4.42" height="95.04"/>
  <polygon class="fil7" points="132.57,742.62 624.74,742.62 624.74,749.99 132.57,749.99 "/>
  <g style="clip-path:url(#id0)">
   <g id="_105553494054752">
    <rect class="fil8" x="129.62" y="734.51" width="250.5" height="30.94"/>
   </g>
  </g>
  <polygon class="fil9" points="132.57,742.62 624.74,742.62 624.74,749.99 132.57,749.99 "/>
  <rect class="fil8" x="536.33" y="408.12" width="151.78" height="43.47" rx="11.14" ry="11.14"/>
  <path class="fil2" d="M926.1 521.58c11.39,0 20.63,9.23 20.63,20.63 0,11.39 -9.24,20.63 -20.63,20.63 -11.4,0 -20.63,-9.24 -20.63,-20.63 0,-11.4 9.23,-20.63 20.63,-20.63zm0 316.81c11.39,0 20.63,9.24 20.63,20.63 0,11.4 -9.24,20.63 -20.63,20.63 -11.4,0 -20.63,-9.23 -20.63,-20.63 0,-11.39 9.23,-20.63 20.63,-20.63zm61.15 0c11.39,0 20.63,9.24 20.63,20.63 0,11.4 -9.24,20.63 -20.63,20.63 -11.4,0 -20.63,-9.23 -20.63,-20.63 0,-11.39 9.23,-20.63 20.63,-20.63zm61.89 0c11.39,0 20.63,9.24 20.63,20.63 0,11.4 -9.24,20.63 -20.63,20.63 -11.4,0 -20.63,-9.23 -20.63,-20.63 0,-11.39 9.23,-20.63 20.63,-20.63zm61.15 0c11.39,0 20.63,9.24 20.63,20.63 0,11.4 -9.24,20.63 -20.63,20.63 -11.39,0 -20.63,-9.23 -20.63,-20.63 0,-11.39 9.24,-20.63 20.63,-20.63zm-250.13 -8.84c11.4,0 20.63,9.24 20.63,20.63 0,11.4 -9.23,20.63 -20.63,20.63 -11.39,0 -20.63,-9.23 -20.63,-20.63 0,-11.39 9.24,-20.63 20.63,-20.63zm-15.85 -61.89c11.4,0 20.63,9.24 20.63,20.63 0,11.4 -9.23,20.63 -20.63,20.63 -11.39,0 -20.63,-9.23 -20.63,-20.63 0,-11.39 9.24,-20.63 20.63,-20.63zm0 -58.94c11.4,0 20.63,9.24 20.63,20.63 0,11.4 -9.23,20.63 -20.63,20.63 -11.39,0 -20.63,-9.23 -20.63,-20.63 0,-11.39 9.24,-20.63 20.63,-20.63zm0 -63.36c11.4,0 20.63,9.24 20.63,20.63 0,11.39 -9.23,20.63 -20.63,20.63 -11.39,0 -20.63,-9.24 -20.63,-20.63 0,-11.39 9.24,-20.63 20.63,-20.63zm0 -58.94c11.4,0 20.63,9.23 20.63,20.63 0,11.39 -9.23,20.63 -20.63,20.63 -11.39,0 -20.63,-9.24 -20.63,-20.63 0,-11.4 9.24,-20.63 20.63,-20.63zm16.97 -54.53c11.39,0 20.63,9.24 20.63,20.63 0,11.4 -9.24,20.63 -20.63,20.63 -11.4,0 -20.63,-9.23 -20.63,-20.63 0,-11.39 9.23,-20.63 20.63,-20.63zm310.56 297.66c-11.4,0 -20.63,9.24 -20.63,20.63 0,11.4 9.23,20.63 20.63,20.63 11.39,0 20.63,-9.23 20.63,-20.63 0,-11.39 -9.24,-20.63 -20.63,-20.63zm15.85 -61.89c-11.4,0 -20.63,9.24 -20.63,20.63 0,11.4 9.23,20.63 20.63,20.63 11.39,0 20.63,-9.23 20.63,-20.63 0,-11.39 -9.24,-20.63 -20.63,-20.63zm0 -58.94c-11.4,0 -20.63,9.24 -20.63,20.63 0,11.4 9.23,20.63 20.63,20.63 11.39,0 20.63,-9.23 20.63,-20.63 0,-11.39 -9.24,-20.63 -20.63,-20.63zm0 -63.36c-11.4,0 -20.63,9.24 -20.63,20.63 0,11.39 9.23,20.63 20.63,20.63 11.39,0 20.63,-9.24 20.63,-20.63 0,-11.39 -9.24,-20.63 -20.63,-20.63zm0 -58.94c-11.4,0 -20.63,9.23 -20.63,20.63 0,11.39 9.23,20.63 20.63,20.63 11.39,0 20.63,-9.24 20.63,-20.63 0,-11.4 -9.24,-20.63 -20.63,-20.63zm-200.44 -64.84c11.39,0 20.63,9.23 20.63,20.63 0,11.39 -9.24,20.63 -20.63,20.63 -11.4,0 -20.63,-9.24 -20.63,-20.63 0,-11.4 9.23,-20.63 20.63,-20.63zm61.89 0c11.39,0 20.63,9.23 20.63,20.63 0,11.39 -9.24,20.63 -20.63,20.63 -11.4,0 -20.63,-9.24 -20.63,-20.63 0,-11.4 9.23,-20.63 20.63,-20.63zm61.15 0c11.39,0 20.63,9.23 20.63,20.63 0,11.39 -9.24,20.63 -20.63,20.63 -11.39,0 -20.63,-9.24 -20.63,-20.63 0,-11.4 9.24,-20.63 20.63,-20.63zm60.43 10.31c-11.39,0 -20.63,9.24 -20.63,20.63 0,11.4 9.24,20.63 20.63,20.63 11.4,0 20.63,-9.23 20.63,-20.63 0,-11.39 -9.23,-20.63 -20.63,-20.63z"/>
 </g>
</svg>
