<svg class="Path_11822" viewBox="0 0 46.383 46.383">
					<path id="Path_11822" d="M 42.63474273681641 23.19142532348633 C 42.63474273681641 20.61460113525391 44.040283203125 18.50628852844238 46.38285064697266 17.56926155090332 C 45.68008041381836 15.22669219970703 44.74304962158203 12.88412570953369 43.5717658996582 10.77581310272217 C 42.63474273681641 11.01006984710693 41.93197250366211 11.24432754516602 40.99494171142578 11.24432754516602 C 40.99494171142578 11.24432754516602 40.99494171142578 11.24432754516602 40.99494171142578 11.24432754516602 C 37.71534729003906 11.24432754516602 35.13852310180664 8.667502403259277 35.13852310180664 5.387906551361084 C 35.13852310180664 4.450879573822021 35.37277984619141 3.513852119445801 35.60703659057617 2.811081409454346 C 33.49872207641602 1.639797687530518 31.15615463256836 0.4685135781764984 28.81359100341797 2.235174179077148e-08 C 27.87656211853027 2.342568159103394 25.53399467468262 3.748109102249146 23.19142532348633 3.748109102249146 C 20.61460113525391 3.748109102249146 18.50628852844238 2.342568159103394 17.56926155090332 1.968866740753583e-07 C 15.22669219970703 0.4685138463973999 12.88412570953369 1.639797925949097 10.77581310272217 2.811081886291504 C 11.01006984710693 3.513852119445801 11.24432754516602 4.450879573822021 11.24432754516602 5.387906551361084 C 11.24432754516602 8.667502403259277 8.667502403259277 11.24432754516602 5.387907028198242 11.24432754516602 C 5.387907028198242 11.24432754516602 5.387907028198242 11.24432754516602 5.387907028198242 11.24432754516602 C 5.153650283813477 11.24432754516602 5.153650283813477 11.24432754516602 5.153650283813477 11.24432754516602 C 4.450879573822021 11.24432754516602 3.513852119445801 11.01007080078125 2.811081886291504 10.77581310272217 C 1.639797568321228 12.88412570953369 0.468513548374176 15.22669219970703 1.490116119384766e-08 17.56926155090332 C 2.342568159103394 18.50628852844238 3.748109102249146 20.61460113525391 3.748109102249146 23.19142532348633 C 3.748109102249146 25.76825141906738 2.342568159103394 27.87656211853027 1.490116119384766e-08 28.81359100341797 C 0.702770471572876 31.15615653991699 1.639797687530518 33.49872589111328 2.811081886291504 35.60703659057617 C 3.748109102249146 35.37277984619141 4.450879573822021 35.13852310180664 5.387907028198242 35.13852310180664 C 8.667502403259277 35.13852310180664 11.24432754516602 37.71534729003906 11.24432754516602 40.99494171142578 C 11.24432754516602 41.93197250366211 11.01007080078125 42.63474273681641 10.77581310272217 43.5717658996582 C 12.88412570953369 44.74304962158203 15.22669219970703 45.68008041381836 17.56926155090332 46.38285064697266 C 18.50628852844238 44.040283203125 20.61460113525391 42.63474273681641 23.19142532348633 42.63474273681641 C 25.53399467468262 42.63474273681641 27.87656211853027 44.040283203125 28.81359100341797 46.38285064697266 C 31.15615653991699 45.68008041381836 33.49872589111328 44.74304962158203 35.60703659057617 43.5717658996582 C 35.37277984619141 42.86899948120117 35.13852310180664 41.93197250366211 35.13852310180664 40.99494171142578 C 35.13852310180664 37.71534729003906 37.71534729003906 35.13852310180664 40.99494171142578 35.13852310180664 C 41.93197250366211 35.13852310180664 42.63474273681641 35.37277984619141 43.5717658996582 35.60703659057617 C 44.74304962158203 33.49872207641602 45.68008041381836 31.15615463256836 46.38285064697266 28.81359100341797 C 44.040283203125 27.87656211853027 42.63474273681641 25.53399467468262 42.63474273681641 23.19142532348633 L 42.63474273681641 23.19142532348633 Z M 23.19142723083496 32.79595565795898 C 18.03777694702148 32.79595565795898 13.5868968963623 28.57933235168457 13.5868968963623 23.19142532348633 C 13.5868968963623 17.80351829528809 18.03777694702148 13.5868968963623 23.19142532348633 13.5868968963623 C 28.57933235168457 13.5868968963623 33.03021240234375 17.80351829528809 33.03021240234375 23.19142532348633 C 33.03021240234375 23.19142532348633 33.03021240234375 23.19142532348633 33.03021240234375 23.19142532348633 C 33.03021240234375 28.57933235168457 28.57933235168457 32.79595565795898 23.19142532348633 32.79595565795898 C 23.19142532348633 32.79595565795898 23.19142532348633 32.79595565795898 23.19142532348633 32.79595565795898 L 23.19142532348633 32.79595565795898 Z">
					</path>
				</svg>